<?xml version="1.0" encoding="UTF-8" standalone="no"?>
<!-- Created with Inkscape (http://www.inkscape.org/) -->

<svg
   preserveAspectRatio="none"
   width="800mm"
   height="600.00024mm"
   viewBox="0 0 800 600.00024"
   version="1.1"
   id="svg1"
   xml:space="preserve"
   xmlns="http://www.w3.org/2000/svg"
   xmlns:svg="http://www.w3.org/2000/svg"><defs
     id="defs1" /><g
     id="layer1"
     transform="translate(-13.778384)"><path
       style="fill:#000000;stroke-width:1.01778"
       d="m 294.19574,585.25382 c -0.0308,-13.99399 -0.4662,-26.55313 -1.34256,-38.72564 -0.34706,-4.82042 -0.35237,-4.84367 -1.38501,-6.05468 -10.1262,-11.87538 -14.23951,-17.58067 -22.42091,-31.0985 -5.34221,-8.82675 -10.71564,-20.28783 -15.29228,-32.61719 -4.0541,-10.92167 -4.77138,-13.26037 -8.13075,-26.5102 -2.99022,-11.79389 -7.04726,-32.22948 -7.90399,-39.81291 -0.11439,-1.01252 -0.34808,-1.84095 -0.51933,-1.84095 -0.17124,0 -1.18251,0.48215 -2.24726,1.07145 -1.78905,0.99017 -2.23731,1.07091 -5.90871,1.06426 -5.54175,-0.0101 -7.96254,-1.12327 -13.05568,-6.0038 -5.20558,-4.98828 -9.14687,-12.73933 -15.63052,-30.73953 -1.84988,-5.13573 -4.75714,-12.85332 -6.46057,-17.15019 -2.86837,-7.23544 -7.31837,-19.86668 -10.11488,-28.71094 -1.579,-4.99371 -3.08176,-11.09817 -4.47151,-18.16406 -2.45575,-12.48569 -3.20747,-19.25072 -3.43992,-30.95703 l -0.17259,-8.69141 h -21.29496 -21.29497 v 5.19674 c 0,4.78676 -0.0592,5.35437 -0.75008,7.19476 -0.8078,2.15176 -2.24333,3.84986 -3.93187,4.65103 -0.8447,0.4008 -11.83163,0.50474 -54.799375,0.51845 -59.6605,0.019 -55.231895,0.21918 -57.403603,-2.59437 -0.596952,-0.77338 -1.390712,-2.30393 -1.763912,-3.40122 -0.660707,-1.94264 -0.678589,-2.30825 -0.680317,-13.90914 l -0.0018,-11.91406 0.879946,-2.10908 c 0.62149,-1.48961 1.348686,-2.52221 2.475835,-3.51563 l 1.595887,-1.40654 54.44182,-0.10175 54.441819,-0.10176 1.27309,0.81807 c 1.59151,1.02266 3.42149,3.7396 3.87646,5.7553 0.19034,0.8433 0.34607,3.6662 0.34607,6.27311 v 4.73984 h 21.33537 c 11.73446,0 21.33537,-0.0789 21.33537,-0.17531 0,-0.0964 0.20459,-2.24973 0.45461,-4.78515 0.79383,-8.04951 2.05316,-13.73331 4.57428,-20.64532 3.2115,-8.80483 7.14898,-13.57386 13.36368,-16.186 1.61347,-0.67817 2.76159,-0.86461 5.29705,-0.86016 5.47724,0.01 9.45069,2.08676 14.31057,7.48093 1.3549,1.50385 2.57712,2.73761 2.71606,2.7417 0.13894,0.004 0.17502,-0.40295 0.0802,-0.90453 -0.66396,-3.5115 -2.69228,-30.28076 -3.55663,-46.9396 -1.40379,-27.05566 -0.17319,-58.55386 3.18962,-81.64062 0.25035,-1.71875 0.86624,-5.937503 1.36863,-9.375003 2.48746,-17.019746 5.88023,-31.498821 11.67037,-49.804687 3.22558,-10.197878 10.40587,-27.374621 15.22689,-36.4259405 0.65804,-1.2354391 1.98542,-3.7403219 2.94974,-5.5664062 L 249.17844,0 h 3.50562 3.50563 l -1.01358,1.6601562 C 246.51057,15.853727 236.70342,38.788794 231.49915,57.03125 c -2.80327,9.826292 -6.48704,26.121867 -7.72666,34.179687 -0.33051,2.148438 -1.00241,6.455079 -1.49311,9.570313 -2.08234,13.21986 -3.48155,28.07177 -4.1217,43.75 -0.62954,15.41782 -0.17972,39.83085 1.03643,56.25 0.74366,10.04022 1.5834,20.25541 2.03908,24.80469 0.23672,2.36328 1.0344,11.94336 1.77262,21.28906 0.73823,9.3457 1.41183,17.56348 1.49691,18.26172 l 0.15467,1.26953 h 22.60672 22.60671 l 1.87475,-3.02734 c 6.15813,-9.9441 13.20527,-17.84568 19.89453,-22.30666 3.52661,-2.35185 9.28115,-5.31274 12.15221,-6.25267 5.52509,-1.80884 7.8664,-2.16803 14.12548,-2.16711 5.41273,8e-4 6.42862,0.10962 9.88433,1.05878 4.68333,1.28634 6.8975,2.27532 11.3039,5.04896 6.43357,4.04967 10.81157,8.11098 15.79761,14.65486 3.96984,5.21018 7.01865,10.36569 10.12808,17.12647 3.6656,7.97006 4.18954,9.87614 3.40226,12.37723 -0.63305,2.01113 -2.07604,3.08001 -7.17104,5.31182 -2.46152,1.07826 -6.03704,2.95825 -7.94558,4.17776 -4.30647,2.75174 -10.88292,6.07641 -15.53559,7.85389 -9.57628,3.65846 -20.32671,4.54427 -30.31094,2.49754 -11.0233,-2.25972 -20.4511,-7.97966 -28.69768,-17.41115 -3.39213,-3.87953 -7.63413,-10.41596 -8.93423,-13.7666 l -0.49259,-1.26953 h -22.22399 -22.22399 l 0.15609,1.26953 c 0.0859,0.69824 0.49543,4.87305 0.91017,9.27734 2.94443,31.2681 7.61473,68.17913 12.97412,102.53907 0.56969,3.65234 1.81317,11.65039 2.7633,17.77343 1.72129,11.0927 5.0726,30.15425 6.21535,35.35157 4.01787,18.2737 8.9973,33.95902 15.68434,49.4062 1.26203,2.91532 7.17639,14.68242 8.54454,17.00005 3.46977,5.87776 4.69044,7.8424 6.91686,11.13246 6.9857,10.32308 20.0888,26.56216 26.72248,33.118 0.80844,0.79897 3.30611,3.28726 5.55036,5.52956 2.24425,2.24229 4.74259,4.72367 5.55186,5.51417 2.31499,2.2613 9.30672,8.40146 15.44975,13.56802 0.8902,0.7487 2.28068,1.93584 3.08995,2.63809 7.1636,6.21626 24.34513,18.61751 32.95947,23.78943 l 2.94281,1.76681 -6.3682,0.007 -6.36819,0.007 -3.79407,-2.49037 c -5.63355,-3.69777 -17.3919,-12.67545 -24.08031,-18.38568 -0.80928,-0.69091 -2.99432,-2.5478 -4.85564,-4.12642 -7.45746,-6.32477 -20.8875,-19.19764 -25.38173,-24.32873 -1.9623,-2.24035 -1.98636,-2.25462 -1.98289,-1.17537 0.002,0.60088 0.2663,6.36594 0.5875,12.81126 0.57418,11.52197 0.79304,31.25041 0.39542,35.64453 L 299.29611,600 l -2.53397,-9e-5 -2.53396,-8e-5 z M 234.00766,402.37059 c 0.96958,-0.64968 1.84199,-1.35116 1.93869,-1.55886 0.0968,-0.20769 -0.0206,-1.57393 -0.26063,-3.03608 -0.24004,-1.46216 -0.7723,-4.69695 -1.18281,-7.18845 -0.69951,-4.24565 -2.59929,-16.93733 -4.61359,-30.82158 -1.70126,-11.72651 -6.53008,-49.90676 -7.13888,-56.44531 -0.24005,-2.57812 -0.98175,-10.22461 -1.64823,-16.99219 -0.66648,-6.76757 -1.28929,-13.13964 -1.38402,-14.16015 l -0.17222,-1.85547 h -3.46406 -3.46406 l 1.46682,4.58984 c 3.19817,10.00746 4.71085,15.98623 5.98729,23.66452 0.7836,4.71361 0.51873,8.88925 -0.85904,13.54251 -2.41121,8.14358 -2.62193,9.10385 -2.75849,12.56997 -0.21875,5.55217 1.00951,9.67299 4.70675,15.79134 5.98475,9.90382 7.51254,18.00896 4.52438,24.00267 -1.42138,2.85103 -5.02323,3.30263 -7.79782,0.97769 -1.80512,-1.51259 -2.99883,-3.28709 -5.16949,-7.68464 -1.16855,-2.36735 -2.74002,-4.93948 -3.78751,-6.19924 -3.876,-4.66146 -6.04495,-7.75968 -6.77975,-9.68447 -0.42265,-1.10713 -0.76847,-2.19459 -0.76847,-2.41658 0,-0.71413 1.06831,-0.43003 1.64652,0.43787 0.30832,0.46282 2.0835,2.46097 3.94483,4.44033 3.86648,4.11168 5.74144,6.64653 7.79507,10.5385 3.19326,6.05181 4.48182,7.61719 6.27019,7.61719 1.46433,0 1.97402,-1.20045 1.96661,-4.63196 -0.006,-2.69701 -0.11948,-3.28131 -1.17713,-6.05186 -0.64387,-1.68664 -2.63445,-5.65554 -4.42352,-8.81977 -4.18429,-7.40056 -5.13301,-10.58539 -5.12818,-17.21516 0.003,-4.69247 0.48194,-7.36128 2.48114,-13.83822 2.16189,-7.00398 2.21267,-7.77933 0.93559,-14.28678 -1.68717,-8.59706 -4.22941,-17.77344 -4.924,-17.77344 -0.66052,0 -3.96356,5.04157 -5.15352,7.86604 -2.06961,4.91242 -3.55443,10.6264 -4.7377,18.23194 -0.2603,1.67312 -0.7238,1.94129 -1.01154,0.58523 -0.35201,-1.65905 -0.25466,-7.20977 0.18517,-10.55767 0.86342,-6.57222 3.98562,-14.30345 7.16441,-17.74062 0.91738,-0.99195 1.83401,-1.88812 2.03695,-1.99149 0.5412,-0.27567 0.46065,-0.92693 -0.43976,-3.55551 l -0.80874,-2.36098 -7.5047,-0.12221 c -4.12757,-0.0672 -7.73644,0.0162 -8.01968,0.18543 -0.28324,0.1692 -0.51449,0.60907 -0.51388,0.97749 6.1e-4,0.36842 -0.25593,2.60345 -0.5701,4.96673 -0.31416,2.36328 -0.7092,5.86647 -0.87785,7.78486 -0.35261,4.01093 -0.63174,4.66017 -1.36498,3.17474 -0.80596,-1.63274 -1.10723,-9.93053 -0.55749,-15.35413 l 0.16828,-1.66016 h -3.88164 -3.88163 l 0.15523,8.69141 c 0.20417,11.43103 0.79674,16.75746 3.18244,28.60591 3.16997,15.7435 5.11483,21.75068 17.70763,54.69487 1.23184,3.22265 3.61457,9.64252 5.29495,14.26636 4.12151,11.34109 7.51769,17.90919 11.49718,22.23522 4.82826,5.24869 10.62312,6.61034 15.16899,3.56432 z m 92.00286,-103.54595 c 8.32914,-1.21923 19.40093,-5.70171 27.54992,-11.15375 2.40184,-1.60694 5.21454,-2.95642 8.17414,-3.92178 1.91656,-0.62514 3.56245,-2.07881 3.56245,-3.14639 0,-1.06696 -6.53596,-13.42127 -9.10676,-17.21363 -3.19035,-4.70631 -5.69464,-7.6436 -9.80838,-11.50428 -1.65484,-1.55304 -3.38312,-3.22768 -3.84064,-3.72144 -1.28561,-1.38744 -1.39484,-1.08447 -0.44675,1.23907 4.02262,9.85848 4.17038,21.87737 0.38602,31.39841 -3.48447,8.76655 -9.36323,14.84145 -16.35068,16.89622 -3.66979,1.07915 -9.25863,1.15182 -12.17679,0.15831 -9.32599,-3.17508 -16.634,-13.12301 -18.5576,-25.26128 -1.40626,-8.87374 0.30728,-19.62796 4.25359,-26.69566 0.5998,-1.07422 1.18335,-2.16008 1.29679,-2.41302 0.11344,-0.25294 -0.95026,0.15912 -2.36378,0.9157 -6.90364,3.69515 -11.87041,8.27373 -18.33222,16.89946 l -3.67851,4.91036 4.41421,0.0999 c 3.99556,0.0905 4.46047,0.1737 4.90194,0.87748 0.50514,0.8053 0.42667,2.13947 -0.15539,2.64194 -0.18278,0.15778 -2.69246,0.37477 -5.57705,0.48219 l -5.24471,0.19531 0.68336,1.24745 c 2.50527,4.5733 8.41446,12.15356 12.16032,15.59913 4.21106,3.87351 10.07039,7.28795 15.59688,9.0889 2.40598,0.78404 8.77143,2.24682 10.8884,2.50216 2.59505,0.31299 9.27619,0.24442 11.77124,-0.12081 z m 0.53052,-5.99982 c 3.23475,-1.45982 5.24972,-2.89416 7.22052,-5.13989 3.44975,-3.93096 5.91265,-8.75588 7.17297,-14.05212 0.85343,-3.58637 0.92027,-11.55812 0.12881,-15.36353 -1.01187,-4.86512 -2.94369,-9.42508 -5.38928,-12.72108 -1.93848,-2.61255 -2.96054,-3.25983 -6.86787,-4.34951 -6.45399,-1.79988 -17.66155,-1.76711 -20.36259,0.0596 -1.54329,1.0437 -4.3385,4.46619 -5.61977,6.88091 -3.16345,5.96194 -4.03659,9.31612 -4.24676,16.31397 -0.13891,4.62517 -0.0793,5.6576 0.48504,8.39844 2.12548,10.32286 7.753,17.67024 15.73441,20.54308 3.11552,1.1214 8.58501,0.85603 11.74452,-0.56982 z m -10.40786,-9.37822 c -1.78327,-0.68526 -3.76202,-2.25864 -5.6016,-4.45406 -1.78465,-2.12986 -2.54048,-3.64548 -3.63354,-7.28611 -0.74522,-2.48207 -0.80399,-3.0547 -0.70551,-6.87378 0.10276,-3.98485 0.16187,-4.31199 1.35866,-7.51789 3.22305,-8.63385 9.93402,-12.42684 17.111,-9.67099 1.1389,0.43733 3.26115,2.19543 3.26115,2.7016 0,0.18385 -0.59506,0.42331 -1.32238,0.53213 -3.44405,0.51528 -5.31437,5.43874 -3.59598,9.4661 0.98746,2.31427 2.5796,3.39033 4.78375,3.2331 2.20566,-0.15733 3.35579,-1.15135 4.28718,-3.70524 l 0.67171,-1.84184 0.5715,1.73964 c 0.91455,2.78387 1.01379,7.86546 0.21576,11.04862 -1.36192,5.43243 -3.50572,8.5469 -7.90007,11.47709 -1.98319,1.3224 -2.3637,1.43677 -5.14992,1.54784 -1.88564,0.0752 -3.50983,-0.0727 -4.35171,-0.39621 z m -188.13743,0.14836 c 0.32552,-0.26985 0.91401,-1.11426 1.30774,-1.87646 0.71111,-1.37655 0.71654,-1.46063 0.81022,-12.54826 0.0594,-7.02103 -0.0201,-11.67569 -0.21414,-12.54584 -0.16966,-0.76087 -0.71739,-1.90345 -1.21718,-2.53906 l -0.90872,-1.15565 -54.054818,-0.098 c -53.205221,-0.0964 -54.069632,-0.086 -54.99695,0.66632 -1.932746,1.56793 -2.000684,2.06594 -2.000684,14.66603 0,10.62559 0.0365,11.41038 0.588562,12.65448 0.323709,0.7295 0.962433,1.6963 1.419387,2.14844 l 0.830825,0.82208 51.99261,0.19531 c 59.550858,0.22371 55.671238,0.25048 56.443148,-0.38941 z m 61.7026,-18.94652 c 0.41771,-2.55438 1.43889,-6.54368 2.04985,-8.00782 1.78594,-4.28001 3.62765,-5.93754 6.56407,-5.90762 2.75355,0.0281 4.7968,1.33254 6.97433,4.45266 1.49936,2.14839 4.3358,7.31351 4.3358,7.89544 0,0.11862 0.33273,0.91531 0.73939,1.77041 l 0.73939,1.55474 h 4.13962 4.13963 l -0.15857,-1.07422 c -0.15748,-1.06684 -0.43565,-4.37248 -1.09298,-12.98828 -0.18849,-2.4707 -0.50729,-5.01953 -0.70843,-5.66406 -0.63068,-2.02095 -6.96111,-10.45335 -9.18906,-12.24021 -5.78444,-4.63923 -9.99958,-5.09004 -15.07334,-1.61211 -4.21027,2.88604 -7.6413,9.32261 -9.67444,18.14919 -1.02663,4.45694 -2.11219,11.59986 -2.11219,13.89804 v 1.5537 l 4.0357,-0.10868 4.03571,-0.10868 z m 15.805,0.28092 c -1.09508,-2.58634 -3.44153,-6.59462 -4.47012,-7.63601 -0.54707,-0.55389 -1.51996,-1.11718 -2.16195,-1.25176 -1.83633,-0.38494 -2.96299,0.85573 -4.44601,4.89591 -0.67033,1.82617 -1.30187,3.80371 -1.40344,4.39453 l -0.18467,1.07422 h 6.64577 6.64575 z m 252.05076,334.29512 c 2.0938,-1.29324 3.96171,-2.34948 4.15498,-2.34948 0.10372,0 2.45479,-1.51184 5.2246,-3.35965 12.88812,-8.59798 33.8242,-25.50625 44.62098,-36.03651 1.86133,-1.81538 4.17879,-4.07026 5.14992,-5.01085 3.58389,-3.47119 12.38693,-12.97399 15.15546,-16.36019 0.72836,-0.89084 2.84717,-3.43793 4.70851,-5.66021 5.06917,-6.05218 11.70692,-15.41293 16.34745,-23.05364 2.27415,-3.74441 4.39296,-7.36578 4.7085,-8.0475 0.31554,-0.68172 1.8499,-3.75789 3.4097,-6.83594 2.55291,-5.0378 6.43384,-13.57802 6.43384,-14.15802 0,-0.12512 -19.20798,-0.22749 -42.68442,-0.22749 H 482.0992 l -0.49197,1.13784 c -0.51795,1.19795 -0.21033,1.07873 -6.82219,2.6441 -0.75506,0.17876 -1.77442,1.19935 -3.98606,3.99084 -5.92333,7.47635 -13.69728,15.62097 -18.93078,19.83345 -1.71187,1.37788 -3.25167,2.64659 -3.42178,2.81934 -0.70063,0.7115 -8.13974,4.73778 -10.462,5.66235 -9.69729,3.86087 -27.03043,4.60292 -41.64075,1.78269 -4.83675,-0.93364 -7.83196,-2.09634 -12.85413,-4.98981 -8.05234,-4.63928 -15.4236,-11.56427 -24.43508,-22.95573 -4.16766,-5.26835 -4.47742,-5.52886 -7.87139,-6.61972 -3.4492,-1.1086 -3.95305,-1.4089 -4.61546,-2.75086 -0.40555,-0.82156 -0.42906,-1.22397 -0.14509,-2.48211 0.46018,-2.03876 1.96446,-3.05468 3.57481,-2.41425 0.60245,0.23959 1.65841,0.43562 2.34659,0.43562 2.24216,0 8.29919,-3.02599 14.70793,-7.34783 3.32399,-2.24159 8.43296,-5.69014 11.35326,-7.66344 8.30984,-5.61513 13.96325,-8.02785 18.82234,-8.03287 3.26899,-0.003 5.26465,0.71832 10.07572,3.64371 5.54441,3.37131 7.83045,3.39822 13.0244,0.15331 4.13269,-2.58189 6.35333,-3.46033 9.33615,-3.69323 6.06465,-0.47352 10.31314,1.55033 27.44897,13.07583 5.09842,3.42917 10.26305,6.72143 11.47696,7.31611 1.21391,0.59469 2.85219,1.42542 3.64063,1.84607 1.46085,0.7794 1.88515,0.78526 6.69856,0.0926 1.22099,-0.1757 1.89572,-0.0753 2.56034,0.38089 0.81187,0.55728 5.24143,0.61945 44.12913,0.61945 h 43.22668 l 0.38313,-1.07421 c 1.81035,-5.0758 5.19679,-15.27106 5.80628,-17.48047 3.04298,-11.03073 7.99352,-34.56918 9.68624,-46.0553 0.41472,-2.81412 1.27126,-8.52279 1.90342,-12.68593 0.63216,-4.16314 1.14939,-7.8106 1.14939,-8.10547 0,-0.76109 -130.03323,-0.80887 -130.19348,-0.0478 -0.0566,0.26855 -0.23775,1.873 -0.40267,3.56544 -0.61846,6.34663 -3.71337,12.31079 -7.86306,15.15278 -3.58133,2.45276 -8.50218,3.42353 -9.87487,1.94809 -1.09078,-1.17241 -0.55757,-1.87664 2.28257,-3.0147 7.17032,-2.8732 10.71405,-7.85703 11.71785,-16.47974 l 0.19326,-1.66016 h -14.67443 c -12.80523,1e-5 -14.75775,-0.0774 -15.32848,-0.60808 -0.35972,-0.33445 -0.65404,-0.97425 -0.65404,-1.42178 0,-1.8402 0.0895,-1.85075 15.82321,-1.86396 l 14.79323,-0.0124 -0.15037,-0.8789 c -0.28892,-1.68877 -0.71238,-4.01469 -0.97786,-5.3711 -0.44686,-2.28315 -1.81798,-6.58957 -3.64691,-11.45425 -1.70783,-4.54259 -1.90422,-5.79159 -0.98435,-6.26015 0.72221,-0.36786 4.29061,5.10302 5.95423,9.12869 1.6562,4.00773 3.15236,9.5146 3.47352,12.78493 l 0.2014,2.05079 65.59705,-10e-6 c 36.07836,0 65.59704,-0.0953 65.59704,-0.21178 0,-0.11647 0.19148,-1.47878 0.4255,-3.02734 0.23403,-1.54856 0.83883,-5.71595 1.34398,-9.26088 0.50516,-3.54492 1.36467,-9.08203 1.91004,-12.30468 1.1028,-6.51671 6.17947,-46.63323 7.3655,-58.20313 0.41845,-4.08203 1.09017,-10.84961 1.49272,-15.03906 0.40255,-4.18945 0.92107,-9.19922 1.15225,-11.13281 0.47177,-3.94577 0.73359,-6.92609 1.7673,-20.11719 0.97782,-12.47781 2.10146,-26.07731 2.62685,-31.79267 1.72233,-18.73632 2.52204,-32.58174 3.23497,-56.00769 0.27136,-8.91654 -0.52566,-31.56234 -1.47422,-41.88714 C 604.74856,84.93559 597.82562,55.831191 584.43584,24.609415 581.71636,18.268227 576.15696,7.3266161 573.2352,2.5651056 c -0.7441,-1.212663 -1.35293,-2.28589214 -1.35293,-2.38495369 0,-0.09906155 1.55601,-0.17723839 3.45781,-0.17372631 l 3.45779,0.00638559 2.68384,4.97408311 c 2.2132,4.1018186 8.64598,17.3846137 8.64598,17.8527327 0,0.07273 0.48124,1.247756 1.06943,2.611168 1.4715,3.410964 6.12051,15.769153 7.38251,19.624507 3.7832,11.557547 6.36233,21.691542 9.60423,37.737238 2.16376,10.709526 4.71524,30.30848 5.77184,44.33594 2.21612,29.42116 1.38181,66.2279 -2.30925,101.87629 -0.28482,2.75071 -0.43514,5.06914 -0.33405,5.15207 0.1011,0.0829 0.70604,-0.56642 1.34435,-1.44299 3.65169,-5.01473 9.45889,-8.71487 14.40474,-9.17818 5.80871,-0.54413 11.35126,2.46284 15.47553,8.39585 3.83359,5.51485 6.08308,11.6155 7.87933,21.36883 0.91367,4.9611 1.27039,8.49377 1.49549,14.80995 0.49442,13.87332 -0.65874,29.14767 -3.03766,40.23581 -0.9653,4.49929 -0.96858,4.54253 -0.35867,4.73786 0.33853,0.10843 10.81235,0.14873 23.27515,0.0896 l 22.65963,-0.10756 0.156,-5.66407 c 0.17187,-6.24041 0.37585,-7.12522 2.20113,-9.54809 2.05869,-2.73267 -1.78112,-2.56128 57.38192,-2.56128 58.76423,0 55.21881,-0.15066 57.21876,2.43151 0.54502,0.70369 1.30065,2.15833 1.67917,3.23255 0.6734,1.9111 0.68827,2.20632 0.69109,13.72042 0.003,12.76181 -0.0965,13.74867 -1.66354,16.47573 -0.43628,0.75926 -1.48959,1.78915 -2.42205,2.36819 l -1.65002,1.02465 -52.57307,0.13671 c -35.0416,0.0911 -53.22079,0.003 -54.51546,-0.26468 -2.42338,-0.50081 -4.10831,-1.9358 -5.31717,-4.52843 -0.86911,-1.86397 -0.89497,-2.06075 -0.98779,-7.51548 l -0.0953,-5.6014 -23.69155,0.1 -23.69155,0.1 -1.68731,5.85937 c -3.10449,10.78073 -5.31478,17.523 -8.13162,24.80469 -1.53753,3.97461 -4.58324,12.06055 -6.76824,17.96875 -2.185,5.9082 -4.70897,12.63184 -5.60882,14.94141 l -1.6361,4.19921 h 35.60047 l 35.60047,1e-5 -0.007,-4.98047 c -0.0104,-6.74538 0.56058,-8.51231 3.58043,-11.0902 l 1.30831,-1.11684 54.3108,0.0172 c 44.60235,0.0141 54.50816,0.11064 55.41494,0.54018 1.69526,0.80304 3.03292,2.3584 3.79493,4.41252 0.67151,1.81017 0.69517,2.21144 0.78924,13.38953 0.0634,7.52826 -0.0172,12.21508 -0.2324,13.51836 -0.44826,2.71498 -1.75569,4.95274 -3.6105,6.17963 l -1.51956,1.00513 -54.16348,-0.009 c -52.16652,-0.008 -54.2069,-0.0353 -55.34061,-0.73469 -1.58535,-0.97791 -3.25953,-3.37443 -3.81305,-5.45819 -0.30637,-1.15336 -0.45403,-3.14391 -0.45403,-6.1204 0,-2.42612 -0.0804,-4.68917 -0.17862,-5.02901 -0.16155,-0.55877 -3.62445,-0.61789 -36.19717,-0.61789 h -36.01855 l -1.31697,2.44141 c -0.72434,1.34277 -1.88279,3.49383 -2.57435,4.78012 -4.09799,7.62224 -9.53438,12.91739 -14.88386,14.49718 -3.30146,0.97497 -8.10831,0.62493 -10.72249,-0.78082 -1.09099,-0.58667 -2.09991,-0.97128 -2.24203,-0.85469 -0.14212,0.1166 -0.34434,0.96296 -0.44937,1.8808 -0.10503,0.91785 -0.53619,3.6903 -0.95814,6.161 -3.8756,22.69373 -7.6858,38.89292 -12.57621,53.46835 -0.74818,2.22985 -1.36031,4.11992 -1.36031,4.20016 0,0.0802 26.84945,0.10152 59.66546,0.0473 l 59.66547,-0.0986 0.15667,-4.10156 c 0.12139,-3.17772 0.30139,-4.46605 0.79913,-5.71975 0.94404,-2.37784 2.80013,-4.32147 4.59972,-4.81665 1.0392,-0.28595 18.04696,-0.38229 54.77208,-0.31026 50.59796,0.0992 53.32379,0.13974 54.44198,0.80879 1.57229,0.94076 2.68711,2.40301 3.63238,4.76443 l 0.78183,1.95313 v 12.5 c 0,12.11629 -0.0198,12.5491 -0.6448,14.09948 -0.35463,0.87972 -1.11422,2.14659 -1.68797,2.81527 -2.20703,2.57221 1.35534,2.42118 -57.11198,2.42118 -58.26583,0 -54.7326,0.14687 -57.02548,-2.37031 -2.11495,-2.32183 -2.40017,-3.57784 -2.56642,-11.30156 l -0.14714,-6.83594 -59.88618,-0.10679 c -32.93739,-0.0587 -60.15312,-0.0218 -60.47938,0.0821 -0.37816,0.12044 -0.94741,1.15038 -1.57029,2.84116 -1.6062,4.35991 -7.0278,16.14284 -9.69436,21.06909 -2.45173,4.52933 -6.18034,10.7845 -9.86168,16.54409 -3.21629,5.03199 -11.25183,15.63325 -16.15885,21.31832 l -1.37392,1.59176 -0.45204,6.41606 c -0.90932,12.90629 -1.4107,28.39733 -1.30444,40.30277 l 0.10373,11.6211 -2.53646,-1e-5 h -2.53645 l -0.19184,-1.46484 c -0.31846,-2.43175 -0.43827,-20.22785 -0.17554,-26.07422 0.62169,-13.83408 0.89169,-19.32461 1.06355,-21.62762 l 0.18558,-2.48699 -3.34862,3.48288 c -12.38489,12.88142 -22.39942,21.98632 -36.23481,32.94357 -1.497,1.18557 -3.25151,2.60946 -3.89893,3.16419 -1.85451,1.58902 -10.33887,7.86477 -13.09592,9.68686 -1.37553,0.90907 -2.73092,1.8156 -3.01197,2.01451 -0.28105,0.19891 -3.45928,0.35076 -7.06275,0.33743 l -6.55173,-0.0242 z m -32.23796,-88.10242 c 5.73463,-0.76337 9.81432,-1.81568 13.94085,-3.59588 3.91181,-1.68758 9.86009,-5.60858 13.73576,-9.05438 3.5462,-3.15287 11.27382,-10.75982 11.80758,-11.62321 0.22279,-0.36038 1.13588,-1.28409 2.02908,-2.0527 l 1.624,-1.39745 -9.12817,-0.005 c -6.46491,-0.003 -10.93122,-0.21706 -15.30806,-0.73205 -7.72065,-0.90844 -12.30447,-0.7068 -16.3326,0.71846 -1.53761,0.54405 -4.71584,1.53624 -7.06274,2.20487 -5.79921,1.65219 -9.41418,1.50569 -15.44975,-0.6261 -9.47324,-3.34599 -10.23894,-3.41501 -23.50561,-2.11876 -5.90567,0.57702 -10.23686,0.77285 -15.119,0.68359 -3.76324,-0.0688 -6.84216,0.002 -6.84203,0.15783 1.2e-4,0.15562 0.39015,0.55059 0.8667,0.87771 0.47656,0.32712 1.6353,1.43963 2.57496,2.47224 9.35494,10.28029 18.33216,17.46126 25.97106,20.77451 3.37779,1.46506 9.61371,3.00969 13.99395,3.46629 5.56366,0.57995 17.31667,0.50053 22.20402,-0.15006 z m 383.66146,-17.21758 c 0.45695,-0.45214 1.09568,-1.41894 1.41939,-2.14844 0.55444,-1.24946 0.58615,-1.97375 0.54693,-12.49425 -0.0349,-9.36356 -0.11717,-11.36177 -0.50912,-12.36785 -0.60613,-1.55587 -1.74814,-2.72895 -3.14153,-3.22699 -0.74255,-0.2654 -18.78011,-0.36354 -54.08775,-0.29429 l -52.97369,0.1039 -0.83081,0.82208 c -0.45694,0.45215 -1.09566,1.41895 -1.41936,2.14844 -0.53699,1.21014 -0.59713,2.16493 -0.68636,10.89667 -0.0538,5.26367 -0.012,10.48429 0.0929,11.60138 0.2313,2.46371 1.13868,4.37599 2.51215,5.29426 0.96644,0.64614 4.04369,0.67915 54.63527,0.58594 l 53.61115,-0.0988 z M 416.0605,480.84468 c 1.45669,-0.2194 5.09842,-1.19683 8.09272,-2.17207 2.99432,-0.97524 6.56983,-1.94637 7.94559,-2.15808 2.62794,-0.40439 3.43822,-0.35552 14.19811,0.85647 7.49105,0.84379 18.64176,1.00859 21.62253,0.31957 1.03368,-0.23894 1.8238,-0.50826 1.75582,-0.59848 -0.0679,-0.0902 -1.00383,-0.49818 -2.07968,-0.90658 -1.07585,-0.40839 -2.38483,-1.02933 -2.90883,-1.37987 -0.52401,-0.35054 -2.07837,-1.25354 -3.45413,-2.00668 -1.37577,-0.75313 -5.94448,-3.62389 -10.1527,-6.37946 -12.66892,-8.29569 -15.2259,-9.6278 -19.2754,-10.04187 -2.80734,-0.28706 -4.85914,0.39006 -9.55964,3.15476 -4.71534,2.77342 -5.72688,3.09243 -9.18822,2.89764 -2.55781,-0.14394 -3.16301,-0.32895 -5.38318,-1.64556 -7.43886,-4.41142 -7.23082,-4.32663 -10.59411,-4.31803 -4.35859,0.0111 -7.49865,1.44239 -16.94254,7.72251 -10.40656,6.92029 -16.7768,10.76441 -20.22989,12.20773 -1.54143,0.64428 -1.64382,0.75147 -1.02999,1.07824 1.11143,0.59166 13.50859,0.78417 18.48559,0.28705 18.27154,-1.825 18.53514,-1.81881 25.4307,0.59805 3.44462,1.20732 6.90811,2.16709 9.44159,2.61636 0.48557,0.0861 0.94906,0.18146 1.02999,0.21189 0.0809,0.0304 1.33897,-0.12419 2.79567,-0.34359 z M 603.2777,403.1934 c 2.24891,-0.92909 4.54105,-2.90367 7.12145,-6.13482 1.83867,-2.30238 5.0367,-7.47179 5.0367,-8.14152 0,-0.13485 -4.90393,-0.24519 -10.89763,-0.24519 -8.46779,0 -10.92025,0.10888 -10.99909,0.48829 -0.36509,1.75683 -1.65481,10.3958 -1.64745,11.03515 0.009,0.85447 1.48126,2.29401 3.20627,3.1368 1.6133,0.78819 6.12118,0.71175 8.17975,-0.13871 z m 206.24634,-2.12309 c 1.12921,-1.65566 1.29026,-2.13329 1.46985,-4.35919 0.11092,-1.3749 0.15392,-6.60263 0.0955,-11.61718 -0.0971,-8.3379 -0.1588,-9.25096 -0.72226,-10.67988 -0.33889,-0.85937 -1.06672,-1.91406 -1.61743,-2.34375 -0.9901,-0.77252 -1.59768,-0.78232 -54.41328,-0.87719 -29.37659,-0.0528 -53.68554,-0.0136 -54.01985,0.087 -0.7108,0.21395 -1.57608,1.17778 -2.27783,2.53726 -0.44157,0.85545 -0.49854,2.31884 -0.49854,12.80551 0,12.49977 0.0946,13.51819 1.39917,15.05981 0.32865,0.38839 0.97595,0.85875 1.43845,1.04526 0.46491,0.18749 24.77008,0.30839 54.35944,0.27041 l 53.51856,-0.0687 z m -190.76192,-20.1396 c 0.77739,-2.08025 2.63634,-7.12212 4.131,-11.20415 1.49465,-4.08203 4.69244,-12.51953 7.10621,-18.75 4.22663,-10.90987 5.78431,-15.26181 8.31897,-23.24219 1.15376,-3.63259 2.48536,-8.30963 2.86378,-10.05859 l 0.19016,-0.87891 h -4.77872 c -4.03369,0 -4.86263,-0.10079 -5.31689,-0.64647 -0.68632,-0.82446 -0.67998,-1.40582 0.0246,-2.25215 0.48825,-0.58651 1.20002,-0.67093 5.37922,-0.638 3.49439,0.0275 4.94374,-0.0984 5.28004,-0.4588 0.77881,-0.83465 2.90056,-11.76925 3.81834,-19.67816 0.874,-7.53168 1.10662,-23.32249 0.44263,-30.04893 -0.58336,-5.9097 -1.6798,-11.7232 -3.19216,-16.9253 -3.19605,-10.99351 -10.03852,-17.13134 -17.06385,-15.30659 -1.92323,0.49954 -5.00844,2.35872 -7.10404,4.28099 -1.53144,1.40477 -7.20953,9.14282 -8.05154,10.97259 -0.51993,1.12981 -0.76396,3.00976 -1.39444,10.74218 -0.9163,11.23777 -1.40672,16.54758 -2.50726,27.14614 -0.45733,4.4043 -1.04112,10.11719 -1.29728,12.69532 -1.31983,13.28312 -2.08402,20.1209 -3.27802,29.33075 -0.72176,5.56731 -1.71797,13.37433 -2.21381,17.34893 -0.87514,7.01493 -5.24476,37.69822 -5.77153,40.52735 l -0.16365,0.8789 11.58243,-0.0263 11.58243,-0.0263 z M 604.6946,366.6695 c -2.1049,-1.09332 -3.35674,-3.07649 -3.82623,-6.06151 -0.91647,-5.82693 0.71233,-11.68391 5.44854,-19.59237 3.05452,-5.10038 4.7032,-9.48658 5.13898,-13.67187 0.2719,-2.6114 -0.50112,-7.53249 -1.84166,-11.72405 -2.14169,-6.69655 -2.528,-8.93449 -2.31859,-13.43201 0.17635,-3.78748 1.21682,-9.61521 2.84279,-15.92268 1.86036,-7.21667 7.57932,-23.13843 9.62705,-26.80201 4.38337,-7.84223 8.57689,-10.48022 12.57551,-7.9108 3.13383,2.01374 5.64832,9.33586 6.64367,19.34624 0.65859,6.62361 0.10951,16.60156 -0.91359,16.60156 -0.39991,0 -0.8051,-2.44636 -1.13223,-6.83594 -0.4193,-5.62614 -2.06301,-15.27134 -3.2445,-19.03857 -2.05571,-6.5547 -5.07276,-7.5394 -8.28026,-2.7025 -2.1426,3.23102 -7.03542,14.74378 -7.03542,16.55427 0,0.38204 0.12489,0.69461 0.27751,0.69461 0.52957,0 3.90519,4.46243 5.00773,6.62 1.52347,2.98134 2.77323,6.36671 3.49177,9.45861 1.12195,4.8278 1.49287,13.3396 0.65931,15.12988 -0.37738,0.81053 -0.74512,-0.36747 -1.32838,-4.25536 -1.19819,-7.98676 -3.77296,-15.52872 -6.91953,-20.26859 -1.20655,-1.81753 -2.32209,-3.15933 -2.57075,-3.0922 -0.75012,0.20253 -3.43783,10.00916 -4.95015,18.06152 -1.10048,5.85953 -0.96587,7.60036 1.12367,14.53141 1.94439,6.44961 2.37499,8.93905 2.35578,13.61942 -0.0246,6.00754 -1.27637,10.4584 -4.39417,15.625 -2.19967,3.64513 -4.29109,7.77599 -5.47002,10.80404 -0.84235,2.1636 -0.96461,2.85528 -0.96564,5.46355 -10e-4,3.43161 0.50928,4.63085 1.97186,4.63085 1.74723,0 3.43196,-1.92548 5.98127,-6.83594 2.9848,-5.74931 3.57532,-6.59303 7.05401,-10.07869 1.94225,-1.94615 4.22509,-4.31746 5.07297,-5.26959 1.90535,-2.13963 2.31619,-1.54293 1.05943,1.53868 -0.89546,2.19564 -2.99448,5.17693 -6.64162,9.43323 -1.70307,1.9875 -2.71659,3.6077 -4.03192,6.44531 -3.46627,7.47795 -7.1766,10.64569 -10.46719,8.9365 z m 203.10496,-36.4119 c 1.36497,-0.29768 2.62153,-2.39389 3.04038,-5.07201 0.44235,-2.82842 0.26442,-21.00311 -0.22037,-22.51049 -0.18324,-0.5697 -0.82766,-1.5365 -1.43205,-2.14843 l -1.0989,-1.11261 -53.8455,-0.10077 -53.8455,-0.10077 -0.98757,0.99987 c -1.891,1.91455 -1.9031,2.0175 -1.80824,15.39313 l 0.0856,12.06704 0.7357,1.05727 c 0.40463,0.5815 1.08098,1.25459 1.50299,1.49576 0.56014,0.32009 15.09986,0.4111 53.85343,0.33708 29.19736,-0.0558 53.50639,-0.19305 54.02005,-0.30507 z M 391.68422,537.63021 c -0.86837,-1.15267 1.06973,-2.68959 6.01818,-4.77242 8.62512,-3.63037 21.07618,-4.13578 29.71971,-1.20639 5.03823,1.70752 9.26563,4.52527 8.67909,5.78501 -0.34592,0.74297 -1.90481,0.52514 -5.18014,-0.72385 -5.94355,-2.26648 -8.32046,-2.76517 -14.272,-2.99437 -7.05466,-0.27167 -12.26216,0.46538 -18.61028,2.63405 -4.38095,1.49663 -5.95183,1.81255 -6.35456,1.27797 z m 19.05042,-121.58713 c -4.14892,-0.88019 -6.49886,-2.62138 -11.27748,-8.35605 -1.04214,-1.25065 -2.3756,-2.59948 -2.96323,-2.99741 -1.64166,-1.11172 -4.45052,-1.95501 -6.51978,-1.95742 -3.51922,-0.004 -5.25458,-1.36388 -5.25458,-4.11734 0,-3.50557 5.10989,-5.17371 9.35446,-3.05378 2.41649,1.2069 4.32405,2.96259 7.49032,6.89398 3.97781,4.93905 4.97349,5.88502 7.2881,6.92422 2.88016,1.29312 5.82449,1.44067 8.80234,0.4411 3.28378,-1.10226 4.24635,-1.92053 8.50807,-7.23257 3.7967,-4.73239 5.73924,-6.36651 8.89211,-7.48025 4.19946,-1.48345 7.93224,0.13457 7.93224,3.43834 0,2.81889 -1.67074,4.18847 -5.10947,4.18847 -3.99944,0 -6.81169,1.65121 -10.59465,6.22061 -2.68011,3.23729 -4.67517,4.88371 -7.37628,6.0873 -2.46922,1.10026 -6.58601,1.54945 -9.17217,1.0008 z m -28.13567,-6.07222 c -6.09296,-2.22687 -10.53058,-8.52259 -11.85438,-16.818 -0.51229,-3.21023 -0.56798,-7.71114 -0.1355,-10.95221 1.00371,-7.522 4.29892,-15.9383 7.87724,-20.11925 1.02319,-1.19552 1.40387,-1.43916 1.71429,-1.0972 0.67464,0.74321 0.46771,1.68992 -1.52913,6.99597 -4.60529,12.23722 -5.4395,20.85602 -2.74751,28.38636 1.77623,4.96867 4.49462,7.81032 9.84926,10.29586 1.44367,0.67012 2.79524,1.4355 3.00351,1.70084 0.50333,0.64127 0.17855,1.66032 -0.61973,1.94451 -1.0736,0.3822 -4.09097,0.19932 -5.55805,-0.33688 z m 10.3431,-67.04517 c -0.41052,-1.01822 -0.30109,-3.94103 0.56879,-15.19132 1.65493,-21.40371 1.58519,-36.81196 -0.25464,-56.25 -0.66747,-7.05198 -1.1278,-10.33535 -2.34989,-16.76083 -0.89122,-4.68582 -1.13615,-7.84854 -0.60782,-7.84854 0.41168,0 1.6001,2.86679 2.67188,6.44531 3.58772,11.97877 5.09486,25.77454 5.05107,46.23517 -0.0484,22.62435 -1.87091,41.09893 -4.32052,43.79751 -0.31877,0.35117 -0.48206,0.25922 -0.75887,-0.4273 z m 112.72698,-39.25723 c -3.8075,-0.28755 -7.86348,-0.9978 -11.05022,-1.93501 -5.54814,-1.63169 -17.28432,-7.19432 -20.56791,-9.74864 -1.38023,-1.07368 -3.83771,-2.34714 -8.40408,-4.35499 -5.12548,-2.25369 -6.4753,-3.72253 -6.47327,-7.04402 0.001,-1.93219 1.28889,-5.29095 4.38797,-11.44518 3.87421,-7.69348 5.49612,-10.37274 9.58947,-15.841 5.28847,-7.0648 9.77002,-11.17728 16.58835,-15.22223 6.21028,-3.68422 11.24059,-5.21465 18.23336,-5.54734 10.55321,-0.50209 20.43109,2.76972 30.21438,10.00778 6.71037,4.96459 14.13109,13.84253 18.87577,22.58244 2.11611,3.89796 2.12721,4.28163 0.2365,8.172 -2.42549,4.99072 -9.03854,13.59361 -13.37379,17.39791 -4.44241,3.89833 -5.49801,4.67668 -8.82843,6.50961 -7.79837,4.2919 -14.58909,6.20582 -22.95392,6.4694 -2.50874,0.0791 -5.42212,0.0787 -6.47418,-7.3e-4 z m 8.76647,-4.86079 c 4.08817,-0.58809 10.92766,-2.47737 14.18744,-3.91901 5.52997,-2.44563 12.13677,-7.55882 16.52944,-12.79259 2.26975,-2.70437 7.89052,-11.10585 7.89339,-11.79842 0.004,-0.88402 -3.5849,-6.68352 -6.57599,-10.62748 -2.84772,-3.7549 -7.98596,-9.02191 -11.22551,-11.50679 -2.22735,-1.70847 -6.25846,-4.12895 -7.60239,-4.56484 -0.93627,-0.30367 -0.94283,-0.33286 0.56101,2.49521 0.87403,1.64368 2.56508,6.12451 3.31696,8.78906 1.35535,4.8032 1.63121,12.95142 0.62678,18.51309 -2.39573,13.26537 -10.59286,23.28765 -20.2977,24.81711 -0.72834,0.11478 -1.92365,0.29974 -2.65623,0.41102 -0.73258,0.11128 -2.65276,0.0334 -4.26707,-0.17297 -5.9982,-0.76694 -11.3775,-4.29807 -15.58919,-10.23319 -7.4486,-10.49659 -8.87156,-24.79948 -3.84361,-38.6341 0.41236,-1.13461 0.71592,-2.10782 0.6746,-2.16267 -0.0413,-0.0549 -0.72312,0.5469 -1.5151,1.33724 -0.79198,0.79033 -1.73253,1.70064 -2.09012,2.02291 -3.26901,2.94607 -4.71045,4.51083 -7.3161,7.94204 -5.40492,7.11736 -9.47703,13.98176 -11.82383,19.93154 -0.83351,2.11319 -0.83837,2.16219 -0.29357,2.96127 0.30468,0.44689 1.09522,1.00889 1.75675,1.2489 4.08761,1.48301 6.46531,2.60802 8.97759,4.24774 9.90999,6.46809 19.42246,10.48169 27.68605,11.68161 3.26897,0.47467 9.63355,0.48125 12.8864,0.0133 z m -2.41991,-5.09154 c 5.55796,-1.35114 10.57337,-5.90269 13.87688,-12.59344 3.29858,-6.68079 4.35795,-16.535 2.56072,-23.81971 -1.27576,-5.171 -3.90526,-10.54651 -6.63283,-13.55956 -2.26243,-2.49922 -2.90665,-2.90807 -5.41007,-3.43344 -5.69434,-1.19501 -10.23198,-0.96296 -17.19222,0.8792 -4.22314,1.11773 -5.40673,1.88734 -7.36996,4.79224 -6.42426,9.50568 -7.62919,23.30373 -2.94833,33.76228 3.14285,7.02215 7.54328,11.42906 13.54923,13.56916 2.50139,0.89131 6.81161,1.07301 9.56658,0.40327 z M 503.581,283.24307 c -3.32862,-1.4136 -6.96912,-5.41402 -8.35934,-9.1858 -3.39786,-9.21867 -1.20023,-18.9426 5.628,-24.90253 3.79722,-3.31435 9.84552,-3.34341 13.61738,-0.0654 l 1.25337,1.08926 -1.40204,0.47475 c -3.65368,1.23721 -5.28932,5.66609 -3.56812,9.66151 1.07013,2.48411 1.99936,3.16172 4.33579,3.16172 2.43336,0 3.343,-0.7151 4.37115,-3.4363 0.38095,-1.00825 0.8079,-1.73864 0.94877,-1.62307 0.54654,0.44836 1.15426,4.37413 1.15426,7.45625 0,5.85081 -1.93451,10.93516 -5.47276,14.38366 -2.76657,2.6964 -5.08662,3.73261 -8.29826,3.70627 -1.61137,-0.0132 -3.17238,-0.28041 -4.2082,-0.7203 z M 270.83066,249.80121 c -0.50731,-0.8114 0.61029,-2.92214 3.82783,-7.22939 8.57459,-11.47861 20.30849,-19.18097 34.28373,-22.50453 3.73091,-0.88727 14.99167,-1.01452 18.39256,-0.20783 11.11017,2.63532 18.70988,6.93037 26.82589,15.16092 3.09099,3.13461 7.62309,10.29143 8.06359,12.73353 0.35078,1.94464 -0.68295,1.23862 -3.65255,-2.49466 -5.37802,-6.76109 -9.06526,-10.32442 -14.49816,-14.01095 -7.43173,-5.04287 -16.28171,-7.8108 -24.97368,-7.8108 -9.72372,0 -18.89835,2.93431 -28.16796,9.00894 -6.70599,4.39461 -10.88695,8.15508 -17.30341,15.56317 -1.13298,1.30808 -2.14306,2.37893 -2.24464,2.37967 -0.10162,7.4e-4 -0.35051,-0.26389 -0.5532,-0.58807 z m 283.24761,-1.81104 c -3.80551,-4.38659 -7.33752,-8.03513 -10.15269,-10.48763 -3.05314,-2.65983 -9.7933,-7.13143 -13.16938,-8.73691 -4.15733,-1.97702 -10.6675,-4.11054 -14.53831,-4.76452 -4.97843,-0.84111 -13.00621,-0.59135 -17.61158,0.54794 -4.81009,1.18994 -11.58005,4.33309 -15.74256,7.30895 -4.95131,3.53979 -8.21558,6.81379 -14.06737,14.10933 -2.22262,2.77099 -2.91516,3.28958 -3.29721,2.46903 -0.75465,-1.62081 6.57147,-12.22984 11.54708,-16.72145 2.91546,-2.63187 9.89848,-7.27812 13.02592,-8.66699 5.11388,-2.27103 12.93263,-3.9073 18.67073,-3.9073 14.02873,0 27.86205,5.98913 38.70889,16.759 4.60894,4.57623 9.77669,12.31058 9.30818,13.93118 -0.24879,0.86062 -0.46999,0.7088 -2.6817,-1.84063 z M 252.83804,215.45849 c -0.17892,-0.52126 -0.24742,-1.35622 -0.15223,-1.85547 0.25589,-1.34187 3.83496,-8.34607 5.7312,-11.2159 3.3264,-5.0343 9.32879,-12.08037 13.92914,-16.35108 15.66704,-14.54442 29.94708,-18.60285 53.95865,-15.33522 10.55335,1.43616 19.20704,3.56834 27.95669,6.88825 6.60443,2.50593 11.61677,5.49881 14.13306,8.43888 1.83049,2.13878 4.16532,6.62173 4.70491,9.03363 0.99175,4.43288 0.33496,8.86922 -1.71116,11.55834 -2.54717,3.34762 -6.2422,3.56829 -14.10649,0.84245 -2.54705,-0.88283 -5.12937,-1.8627 -5.73848,-2.1775 -1.6565,-0.85609 -17.92787,-6.28724 -22.14858,-7.39288 -10.55061,-2.7638 -19.40362,-3.92539 -27.81609,-3.64973 -9.87309,0.32352 -16.70456,2.46866 -26.7131,8.38811 -2.96036,1.75088 -14.40283,9.44434 -14.90282,10.02007 -0.96875,1.11548 -5.15815,3.75581 -5.95933,3.75581 -0.60367,0 -0.93159,-0.26669 -1.16537,-0.94776 z m 12.33625,-11.89548 c 7.35647,-5.18624 13.08739,-8.41142 19.13298,-10.76747 10.60702,-4.13369 24.05726,-4.32122 41.26183,-0.57527 2.02318,0.44051 4.14201,0.95967 4.70849,1.15369 0.5665,0.19402 2.35425,0.71857 3.9728,1.16566 7.02078,1.93937 9.81888,2.90874 18.39256,6.37192 9.04055,3.65176 13.13395,4.49958 15.46979,3.20408 2.83058,-1.56989 2.31711,-8.94299 -0.92225,-13.24288 -3.98161,-5.28514 -15.10696,-10.18843 -30.58585,-13.48014 -11.26408,-2.39539 -15.96095,-2.96373 -24.42533,-2.95557 -5.7492,0.006 -8.0323,0.16172 -10.44697,0.71466 -8.77944,2.01042 -13.65973,4.18728 -20.35669,9.08013 -3.1165,2.27693 -9.84853,8.26893 -11.27852,10.0387 -0.3237,0.40063 -1.31691,1.48902 -2.2071,2.41864 -0.89021,0.92963 -2.08619,2.36248 -2.65774,3.18413 -0.57156,0.82164 -1.88371,2.68042 -2.91589,4.13062 -1.03218,1.45019 -1.79364,2.63671 -1.69214,2.63671 0.10151,0 2.14901,-1.38492 4.55003,-3.07761 z m 307.13567,12.29427 c -0.4931,-0.28511 -1.88358,-1.30695 -3.08994,-2.27074 -2.77879,-2.22006 -11.37653,-8.10355 -14.84747,-10.16023 -6.9332,-4.10823 -9.6194,-5.43634 -13.58534,-6.7169 -6.50062,-2.09898 -8.52522,-2.37458 -17.31416,-2.35692 -8.77806,0.0176 -10.24505,0.1976 -20.89395,2.56314 -5.45257,1.21123 -6.87172,1.63041 -14.41977,4.25915 -2.42782,0.84553 -5.53984,1.90775 -6.9156,2.3605 -1.37576,0.45275 -3.99164,1.42164 -5.81306,2.1531 -11.28533,4.53205 -15.86415,4.80294 -18.73027,1.10811 -1.74545,-2.25013 -2.33015,-4.17852 -2.35862,-7.77891 -0.0222,-2.79958 0.0799,-3.41334 0.96454,-5.80067 1.18638,-3.20167 4.03884,-7.34333 6.30593,-9.15594 2.56872,-2.0538 7.15935,-4.63007 10.50877,-5.89755 6.48287,-2.45324 9.6388,-3.39324 19.86397,-5.91647 3.62288,-0.89401 15.50935,-2.39375 20.59967,-2.59911 11.39536,-0.45971 21.53463,1.74658 29.42809,6.40353 6.49826,3.83381 9.53654,6.22323 15.5969,12.26603 4.80987,4.79594 8.32089,8.94156 11.38303,13.44041 2.44911,3.59822 5.20391,8.80379 6.00385,11.34511 0.40387,1.28303 0.40233,1.51728 -0.0155,2.36375 -0.52002,1.05351 -1.32178,1.17075 -2.67106,0.39061 z m -5.38957,-9.90025 c -0.7592,-1.38758 -5.81601,-7.92147 -8.28076,-10.69954 -1.78444,-2.01127 -5.62915,-5.68155 -9.42339,-8.99585 -1.62383,-1.41843 -7.98984,-5.79075 -8.43783,-5.7953 -0.13038,-0.001 -0.63434,-0.28419 -1.11991,-0.6286 -1.8402,-1.30524 -8.29265,-3.53997 -13.53692,-4.68834 -4.43404,-0.97094 -16.6884,-0.98068 -22.80677,-0.0181 -12.72056,2.00124 -21.07675,4.04032 -28.54526,6.96561 -11.57573,4.53403 -16.32816,9.20445 -16.7221,16.43352 -0.37787,6.93424 3.12234,7.73336 14.7693,3.37194 2.28795,-0.85676 4.42476,-1.72004 4.74847,-1.91838 0.32371,-0.19835 1.11827,-0.53462 1.76569,-0.74729 0.64742,-0.21266 3.99813,-1.35508 7.44603,-2.53871 21.71091,-7.45312 40.38381,-9.16595 53.72999,-4.92856 3.72012,1.18114 10.16303,4.14584 13.72223,6.31429 4.02806,2.45409 11.07881,7.25182 12.06177,8.20751 1.06065,1.03121 1.30541,0.90126 0.62946,-0.33418 z M 394.21013,156.44888 c -0.72909,-0.42064 -0.9564,-0.79449 -0.9564,-1.57289 0,-2.34638 1.18048,-3.26733 3.2431,-2.53009 2.6385,0.94307 2.0803,4.73587 -0.6873,4.67006 -0.35364,-0.008 -1.07337,-0.2636 -1.5994,-0.56708 z m 9.11462,-0.0257 c -0.77669,-0.72212 -0.878,-2.55445 -0.1916,-3.46557 1.00621,-1.33563 4.16085,-0.54385 4.27994,1.07422 0.0849,1.15443 -0.11488,2.0621 -0.55291,2.51116 -0.66408,0.68078 -2.75038,0.61008 -3.53543,-0.11981 z m 9.417,0 c -0.7767,-0.72212 -0.87801,-2.55445 -0.19161,-3.46557 0.60038,-0.79693 2.73737,-0.80036 3.59202,-0.006 0.7767,0.72212 0.878,2.55445 0.1916,3.46557 -0.60038,0.79693 -2.73736,0.80036 -3.59201,0.006 z m 9.03173,-0.20701 c -0.45097,-0.59861 -0.56394,-1.09143 -0.42532,-1.85547 0.26853,-1.48013 0.9473,-2.01693 2.55034,-2.01693 1.11154,0 1.49247,0.17813 1.85658,0.86817 0.5864,1.11129 0.58462,2.42372 -0.004,3.20549 -0.71412,0.94791 -3.20656,0.82178 -3.97727,-0.20126 z m 9.80394,0.33456 c -0.89611,-0.57327 -1.13466,-2.01691 -0.53425,-3.23324 0.40575,-0.82198 0.70888,-0.97372 1.94527,-0.97372 1.07225,0 1.62229,0.2093 2.05318,0.78125 1.77133,2.35124 -0.94494,5.03732 -3.4642,3.42571 z m -55.84364,-0.28177 c -0.96045,-0.51677 -1.35897,-1.4031 -1.14343,-2.54307 0.29294,-1.54928 1.2799,-2.2395 2.7547,-1.92646 1.49711,0.31777 2.07746,1.01706 2.07746,2.50322 0,1.9137 -1.90206,2.92761 -3.68873,1.96631 z m 8.75699,-0.2364 c -0.82916,-0.77091 -0.84317,-2.26587 -0.0313,-3.34351 0.51524,-0.68393 0.87375,-0.79457 2.07728,-0.64107 1.67409,0.21352 1.93033,0.46062 2.17726,2.09952 0.25588,1.69828 -0.44051,2.49314 -2.18428,2.49314 -0.77717,0 -1.67192,-0.26684 -2.03895,-0.60808 z m 56.06862,0.18617 c -0.62425,-0.48262 -0.67648,-2.26062 -0.0973,-3.31202 0.50626,-0.91902 3.03739,-1.06683 3.80415,-0.22214 0.56516,0.6226 0.64866,2.80353 0.13351,3.48732 -0.42799,0.5681 -3.12362,0.60098 -3.84037,0.0468 z m 9.74291,-0.0181 c -1.18515,-0.57661 -1.26288,-2.93104 -0.13036,-3.94853 0.66468,-0.59717 3.00973,-0.31971 3.51091,0.4154 0.61518,0.9023 0.62731,2.55927 0.0246,3.35931 -0.513,0.68095 -2.18714,0.76641 -3.40515,0.17382 z m -83.57685,-0.25141 c -1.16931,-0.20105 -1.81895,-1.35326 -1.57937,-2.80121 0.10934,-0.66075 0.44417,-1.37568 0.74409,-1.58874 1.37213,-0.97476 3.89325,0.006 4.21505,1.639 0.21067,1.06933 -0.49975,2.64924 -1.21004,2.69101 -0.27951,0.0164 -0.70684,0.0668 -0.94962,0.11186 -0.24279,0.0451 -0.79183,0.0217 -1.22011,-0.0519 z m 92.44721,-0.48047 c -0.74556,-0.98964 -0.74109,-1.59037 0.0213,-2.87701 0.50489,-0.85201 0.84695,-1.02821 1.98639,-1.02326 1.74315,0.008 2.09294,0.31519 2.30189,2.02437 0.14021,1.14693 0.0524,1.48942 -0.51732,2.01918 -0.98021,0.91133 -3.05693,0.83287 -3.79232,-0.14328 z m 9.48247,-0.21746 c -0.86825,-0.80725 -0.85544,-2.5202 0.027,-3.6207 0.86177,-1.07464 2.83718,-1.16772 3.51743,-0.16575 0.57224,0.84287 0.88703,2.48887 0.58646,3.06653 -0.70344,1.35192 -3.01744,1.75519 -4.13095,0.71992 z m -112.50632,-0.59764 c -0.63265,-0.83979 -0.59607,-2.29232 0.0851,-3.38193 0.46809,-0.74867 3.00224,-0.61667 3.70778,0.19312 1.64972,1.89346 0.74969,4.00391 -1.7075,4.00391 -1.0994,0 -1.62666,-0.20608 -2.08548,-0.8151 z m 121.78427,0.003 c -0.69417,-0.53667 -0.67983,-2.77461 0.0232,-3.61911 0.70664,-0.84886 3.07727,-0.86973 3.70789,-0.0326 0.54595,0.72468 0.61301,2.93631 0.10931,3.60491 -0.42798,0.5681 -3.12362,0.60098 -3.84036,0.0468 z m -130.99553,-0.47423 c -0.84103,-0.81632 -0.53477,-3.06867 0.50694,-3.72822 0.90564,-0.57341 2.44569,-0.36635 3.19921,0.43012 0.70696,0.74724 0.90145,2.47064 0.35994,3.18943 -0.57372,0.76156 -3.31787,0.8349 -4.06609,0.10867 z m 140.89564,0.24594 c -0.34125,-0.094 -0.79958,-0.61519 -1.01853,-1.15824 -0.85533,-2.12141 1.19462,-4.22255 3.3275,-3.41058 1.24267,0.47307 1.72677,2.06835 1.08804,3.58546 -0.35469,0.84244 -0.6698,1.05807 -1.60883,1.10093 -0.64226,0.0293 -1.44695,-0.0236 -1.78818,-0.11757 z m -150.32902,-0.99921 c -1.09897,-2.08265 -0.15557,-3.88444 2.03384,-3.88444 0.74879,0 1.54084,0.19764 1.76012,0.4392 0.6698,0.73788 0.82103,2.35494 0.31593,3.37821 -0.39299,0.79612 -0.69885,0.93519 -2.05671,0.93519 -1.3147,0 -1.6756,-0.1526 -2.05318,-0.86816 z M 496.54635,153.125 c -1.36135,-1.80703 -0.34312,-3.9021 2.04446,-4.20663 1.4379,-0.18339 1.47014,-0.16342 1.9666,1.21849 0.87482,2.43513 -0.0893,3.76939 -2.72359,3.76939 -0.3844,0 -0.96376,-0.35156 -1.28747,-0.78125 z m -168.45918,-0.47754 c -0.92207,-1.74743 -0.48569,-3.3282 1.04382,-3.78126 1.90215,-0.56343 3.50085,0.60002 3.50085,2.54775 0,1.46056 -0.76437,2.10167 -2.50572,2.10167 -1.29999,0 -1.66222,-0.15423 -2.03895,-0.86816 z m 177.75004,-0.1363 c -0.25433,-0.33761 -0.46244,-1.20655 -0.46244,-1.93097 0,-1.72283 0.86612,-2.53332 2.70722,-2.53332 1.16152,0 1.47969,0.16316 1.87336,0.96069 0.70983,1.43802 0.32753,3.1674 -0.81731,3.69715 -1.30421,0.6035 -2.76489,0.51785 -3.30083,-0.19355 z m -186.68412,-0.46038 c -0.92307,-1.05945 -1.03506,-2.17736 -0.33625,-3.35659 0.4683,-0.79024 0.87333,-1.03657 1.69727,-1.03218 2.22463,0.0118 3.32988,1.7799 2.49928,3.99815 -0.35624,0.95144 -0.5658,1.07421 -1.83346,1.07421 -0.94001,0 -1.63567,-0.23462 -2.02684,-0.68359 z m 196.56709,-0.54235 c -0.82919,-0.40716 -1.32831,-2.0791 -0.92172,-3.08755 0.43985,-1.09095 1.25293,-1.54588 2.76284,-1.54588 1.10018,0 1.42192,0.17237 1.81748,0.97372 0.56478,1.14418 0.36923,2.71163 -0.39097,3.13369 -1.03738,0.57596 -2.64039,0.83401 -3.26763,0.52602 z m -205.6744,-0.5283 c -0.80946,-0.46701 -0.95641,-0.75546 -0.95641,-1.87729 0,-1.98942 0.81274,-2.7797 2.51104,-2.44165 1.54888,0.30831 2.49173,1.34159 2.49173,2.73072 0,1.92663 -2.05901,2.7348 -4.04636,1.58822 z m -8.60772,-1.05462 c -1.40565,-0.52755 -1.76568,-1.00003 -1.76568,-2.31709 0,-1.69774 1.00385,-2.82609 2.27136,-2.55306 1.65014,0.35545 2.43713,1.24586 2.43713,2.75738 0,2.00493 -1.10889,2.80106 -2.94281,2.11277 z m 223.09937,-0.27048 c -1.49226,-1.98081 0.0981,-4.34253 2.92418,-4.34253 1.36134,0 1.96087,2.78763 0.87902,4.08722 -0.31714,0.38097 -1.16243,0.78032 -1.87843,0.88744 -1.0562,0.15803 -1.41934,0.0388 -1.92477,-0.63213 z m 9.39828,-1.97797 c -0.92024,-1.2215 -0.78076,-2.62381 0.35216,-3.54072 1.27932,-1.03537 2.68731,-1.00353 3.44635,0.0779 1.22434,1.74443 0.38097,3.61184 -1.81212,4.0124 -1.15776,0.21146 -1.48026,0.12223 -1.98639,-0.54962 z m -242.2045,0.0217 c -0.4022,-0.14864 -0.92919,-0.73829 -1.17108,-1.31034 -0.40486,-0.95746 -0.39017,-1.12687 0.18484,-2.13222 0.50443,-0.88197 0.82828,-1.07567 1.68297,-1.00662 1.6882,0.13639 2.83021,1.10604 2.83021,2.40305 0,2.01436 -1.40592,2.82999 -3.52694,2.04613 z m -8.8268,-2.41678 c -1.71963,-0.94558 -2.2834,-2.75012 -1.27666,-4.08645 0.58758,-0.77993 2.71679,-0.54762 3.82645,0.41749 1.93079,1.67929 -0.30846,4.9014 -2.54979,3.66896 z m 260.01221,-0.19267 c -0.7131,-0.94656 -0.58642,-2.77596 0.24213,-3.49658 2.36917,-2.06056 5.15313,-0.30241 4.01013,2.53251 -0.58078,1.44047 -3.41011,2.08193 -4.25226,0.96407 z m -268.91117,-4.4847 c -1.50151,-1.05242 -1.84305,-1.99804 -1.26116,-3.49169 0.5532,-1.42001 1.41626,-1.52848 3.09834,-0.3894 1.29958,0.88005 1.73442,2.21816 1.21376,3.73499 -0.40491,1.17965 -1.50146,1.23216 -3.05094,0.1461 z m 277.2236,-0.1749 c -0.49504,-1.44221 0.0861,-2.77107 1.65412,-3.78226 1.09222,-0.70437 1.44474,-0.77334 2.05771,-0.40262 0.76368,0.46187 1.24135,1.98376 0.9447,3.00989 -0.28202,0.97554 -2.03406,2.14854 -3.21145,2.15009 -0.89883,0.001 -1.1736,-0.18422 -1.44508,-0.9751 z m -284.72087,-6.0375 c -2.03587,-1.64775 -2.30578,-3.78274 -0.62416,-4.93704 0.86477,-0.59359 0.93053,-0.57632 1.94183,0.51016 0.5757,0.61851 1.17623,1.39706 1.3345,1.7301 0.44181,0.92975 0.006,2.49383 -0.83569,3.00325 -0.9232,0.55835 -0.7018,0.5957 -1.81648,-0.30647 z m 293.03565,-0.26518 c -0.33546,-0.56608 -0.60992,-1.202 -0.60992,-1.41315 0,-0.84841 2.29672,-3.41699 3.05533,-3.41699 0.82129,0 1.94744,1.21193 1.94744,2.09576 0,1.30525 -2.18705,3.76362 -3.34825,3.76362 -0.23908,0 -0.70914,-0.46316 -1.0446,-1.02924 z m 7.11257,-8.35911 c -0.3655,-0.19495 -0.81201,-0.7841 -0.99226,-1.30923 -0.27191,-0.79214 -0.20845,-1.24182 0.37251,-2.63979 0.82603,-1.98766 1.89471,-2.66677 3.07409,-1.95348 0.72285,0.43718 0.76824,0.60147 0.58576,2.12065 -0.12944,1.07756 -0.51785,2.08558 -1.12371,2.91629 -1.01556,1.39246 -0.96846,1.37119 -1.91639,0.86556 z M 259.84379,124.6115 c -1.38352,-2.18252 -1.3925,-4.4714 -0.0194,-4.92887 0.97002,-0.32316 1.8651,0.32705 2.71399,1.9715 0.64014,1.24009 0.65277,1.3871 0.2335,2.71906 -0.58879,1.87055 -1.82944,1.97152 -2.92815,0.23831 z m -3.983,-10.77178 c -0.32725,-0.55223 -0.68619,-1.81128 -0.79765,-2.79788 -0.23231,-2.0564 0.24026,-2.83869 1.71484,-2.83869 0.70415,0 0.93336,0.27011 1.4087,1.66015 0.74653,2.18309 0.72417,3.1028 -0.10048,4.13113 -0.89361,1.11434 -1.49831,1.07231 -2.22543,-0.15471 z m 314.41575,0.47886 c -1.22265,-1.18672 0.12842,-6.11543 1.67638,-6.11543 1.74237,0 2.21587,2.19159 1.1005,5.09368 -0.47798,1.24366 -0.75543,1.54694 -1.41517,1.54694 -0.45133,0 -1.0641,-0.23634 -1.36171,-0.52519 z M 253.38657,101.59989 c -0.27877,-0.6264 -0.50487,-1.934458 -0.50487,-2.920687 0,-1.488545 0.12639,-1.896124 0.75851,-2.445896 0.9837,-0.855567 2.20953,-0.345975 2.48324,1.032318 0.5474,2.756485 0.53832,3.823875 -0.0396,4.647225 -0.85302,1.21536 -2.08058,1.07293 -2.69733,-0.31296 z m 318.98617,0.87407 c -0.2981,-0.39568 -0.23425,-3.85269 0.0922,-4.992394 0.4288,-1.497079 1.5553,-2.0564 2.49524,-1.238909 0.64378,0.559925 0.74775,0.935743 0.74775,2.702869 0,2.734394 -0.56429,3.788854 -2.02761,3.788854 -0.61126,0 -1.19967,-0.11719 -1.30757,-0.26042 z M 252.9072,89.877601 c -0.85054,-1.129001 -0.85281,-4.213114 -0.004,-5.645234 0.69649,-1.175333 1.32973,-1.292952 2.26741,-0.421155 0.55856,0.519323 0.65404,0.96851 0.65404,3.077171 0,2.626264 -0.20572,3.105521 -1.52113,3.543751 -0.57955,0.193085 -0.94114,0.04947 -1.39618,-0.554533 z m 320.56847,0.448449 c -0.67072,-0.602593 -0.88121,-1.744697 -0.70753,-3.839099 0.1918,-2.312938 0.5438,-2.8775 1.80019,-2.887219 1.06156,-0.0082 1.44389,0.747753 1.6375,3.237814 0.14157,1.820709 0.0754,2.24514 -0.46058,2.956667 -0.6252,0.829871 -1.66631,1.073838 -2.26958,0.531837 z M 253.44599,77.311526 c -0.52768,-0.700427 -0.58462,-1.093987 -0.40971,-2.832031 0.23852,-2.370245 0.81001,-3.385745 1.90539,-3.385745 1.36758,0 1.85868,1.159796 1.62461,3.836769 -0.17056,1.950836 -0.31739,2.387123 -0.92747,2.756105 -1.03649,0.626867 -1.49737,0.548031 -2.19282,-0.375098 z m 319.24374,0.12988 c -0.61575,-0.913307 -0.95387,-4.082768 -0.54399,-5.099354 0.1761,-0.436797 0.72748,-0.912914 1.22525,-1.058038 1.3036,-0.380055 1.96146,0.568951 2.20767,3.18471 0.16349,1.736884 0.10472,2.263562 -0.32244,2.890108 -0.64799,0.950443 -1.95306,0.992433 -2.56649,0.08257 z M 683.70904,72.62557 c -1.85908,-1.115743 -3.14083,-2.902853 -3.82637,-5.334957 -0.49452,-1.754453 -0.58784,-3.044433 -0.58784,-8.125579 V 53.125 h -1.55969 c -1.76857,0 -2.26596,-0.451514 -2.26596,-2.05693 0,-2.09953 0.44283,-2.63057 2.19362,-2.63057 h 1.58437 l 0.0987,-6.933594 c 0.0892,-6.266146 0.16151,-7.089768 0.751,-8.555966 0.80345,-1.998338 2.52236,-3.933868 3.94803,-4.445572 0.69145,-0.248178 22.97794,-0.34868 62.82899,-0.28333 l 61.75743,0.101274 1.17713,0.843132 c 1.37737,0.986564 2.50925,2.516764 3.27707,4.430306 0.50256,1.252489 0.55587,2.607177 0.63549,16.147726 0.10234,17.405256 0.0343,18.034853 -2.27001,20.996092 -0.96305,1.237609 -1.81485,1.932704 -2.75246,2.246094 -1.01007,0.337602 -17.02031,0.451641 -62.51153,0.445259 -60.86346,-0.0085 -61.15997,-0.01235 -62.47796,-0.803351 z m 124.92227,-3.985539 c 2.22726,-1.661977 2.22752,-1.664205 2.13857,-18.318961 -0.0756,-14.168418 -0.10131,-14.759154 -0.68615,-15.820313 -0.33416,-0.606276 -1.12871,-1.453882 -1.76569,-1.88357 -1.14477,-0.772235 -1.83897,-0.782742 -60.16147,-0.910595 -32.45183,-0.07114 -59.99512,-0.0083 -61.20729,0.139745 -2.09179,0.255393 -2.2678,0.353807 -3.45781,1.933416 l -1.25383,1.664326 v 14.803586 c 0,16.848951 -0.0153,16.729003 2.35796,18.394942 l 1.26598,0.888643 60.79631,-0.0064 60.7963,-0.0064 z M 571.12519,65.113734 c -0.60754,-0.693665 -0.82291,-1.357744 -0.93283,-2.876319 -0.12601,-1.740581 -0.0615,-2.050146 0.54469,-2.613734 1.46106,-1.358401 2.87964,-0.166392 3.20674,2.694558 0.18979,1.660043 0.13442,1.98991 -0.46834,2.790008 -0.85936,1.140705 -1.35499,1.141862 -2.35026,0.0055 z M 255.10442,64.866662 c -0.66653,-0.977644 -0.3898,-4.316591 0.44043,-5.313917 0.66353,-0.79707 1.86222,-0.865769 2.51715,-0.144264 0.64305,0.7084 0.42926,4.329447 -0.32054,5.429215 -0.68074,0.99847 -1.96642,1.012593 -2.63704,0.02897 z m 2.81087,-11.600727 c -0.59326,-0.551581 -0.6666,-0.87684 -0.53833,-2.387505 0.16222,-1.910359 1.00553,-3.729906 1.82807,-3.944304 0.83457,-0.217532 1.87309,0.742215 2.06624,1.909511 0.19168,1.158406 -0.38812,3.419512 -1.06053,4.135899 -0.7805,0.831538 -1.59924,0.933691 -2.29545,0.286399 z m 258.64216,-0.232197 c -0.93426,-0.650802 -1.16212,-2.757906 -0.41651,-3.851527 0.76502,-1.122089 3.16818,-1.043685 3.78405,0.123456 0.57672,1.09294 0.5908,2.796255 0.0282,3.415994 -0.64888,0.714836 -2.56483,0.890914 -3.39577,0.312077 z m 8.82842,-0.0212 c -0.90338,-0.603617 -1.11535,-2.288001 -0.45601,-3.62372 0.38887,-0.787786 0.7087,-0.950286 1.86064,-0.945332 1.65278,0.0071 1.98892,0.243219 2.40266,1.6877 0.72809,2.541984 -1.63671,4.331664 -3.80729,2.881352 z m 9.04855,0.06672 c -1.00993,-0.511921 -1.35531,-2.055047 -0.77056,-3.44281 0.3649,-0.865999 0.65155,-1.019615 2.0903,-1.120189 1.59159,-0.11126 1.68814,-0.0633 2.12373,1.05482 0.251,0.644258 0.45635,1.416536 0.45635,1.716173 0,1.520111 -2.32685,2.589321 -3.89982,1.792006 z m 8.9954,0.05573 c -0.96199,-0.533507 -1.33215,-1.695011 -0.95728,-3.0038 0.39827,-1.390467 0.75739,-1.68031 2.0911,-1.6877 1.56245,-0.0087 1.94113,0.289349 2.3239,1.828862 0.2971,1.194952 0.27005,1.468338 -0.20648,2.086459 -0.66238,0.859214 -2.36751,1.266283 -3.25124,0.776179 z m 9.02991,-0.13909 c -0.86817,-0.385059 -1.0448,-0.66202 -1.12425,-1.7629 -0.1347,-1.866285 0.59651,-2.795492 2.19984,-2.795492 1.53866,0 2.45578,1.016022 2.45578,2.720631 0,1.747764 -1.71823,2.641946 -3.53137,1.837761 z m 8.96535,0.148044 c -1.11432,-0.599556 -1.40254,-1.409085 -1.03212,-2.898963 0.37258,-1.498535 0.75937,-1.807473 2.26288,-1.807473 1.35231,0 2.05416,0.53943 2.2841,1.755524 0.25551,1.351295 -0.21649,2.373214 -1.33523,2.890889 -1.07285,0.49644 -1.35411,0.504185 -2.17963,0.06002 z m 6.7922,-0.522669 c -0.26501,-0.536874 -0.55982,-1.613937 -0.65512,-2.393475 -0.29353,-2.401055 1.26214,-3.792612 2.66427,-2.3832 0.31575,0.3174 0.88346,0.465926 1.3289,0.347672 1.0728,-0.284804 2.3869,1.115061 2.3869,2.542678 0,2.014239 -0.60023,2.551246 -3.034,2.714381 -2.08948,0.140058 -2.23521,0.09522 -2.69095,-0.828056 z m 19.77628,0.440077 c -1.0105,-0.489862 -1.3575,-2.031851 -0.7707,-3.424901 0.35506,-0.842897 0.66435,-1.022342 1.93127,-1.120467 1.29033,-0.09994 1.57623,0.0115 1.97673,0.770511 0.25753,0.48804 0.46824,1.384547 0.46824,1.992237 0,0.891557 -0.19705,1.214175 -1.02053,1.670896 -1.16344,0.645262 -1.45814,0.657999 -2.58501,0.111724 z m 17.51031,-0.128705 c -0.80364,-0.463137 -0.95569,-0.756968 -0.9519,-1.839563 0.006,-1.895352 0.35962,-2.351007 1.98155,-2.557877 1.2483,-0.159214 1.55184,-0.05574 2.09134,0.712934 0.69671,0.99268 0.83593,2.78416 0.26324,3.387478 -0.67898,0.715288 -2.39683,0.86606 -3.38423,0.297028 z m 9.49057,0.284472 c -1.23306,-0.225203 -1.61855,-0.764948 -1.61855,-2.266228 0,-1.591961 0.86456,-2.515939 2.34615,-2.507401 1.20322,0.0069 1.55809,0.258214 2.02401,1.433181 0.94094,2.372902 -0.2347,3.800131 -2.75161,3.340448 z m 8.1751,-0.09996 c -0.86736,-0.463266 -1.17838,-2.189983 -0.62695,-3.480707 0.38182,-0.89374 0.61035,-1.002676 2.08725,-0.994911 0.91218,0.0048 1.74393,0.122114 1.84834,0.260708 0.10441,0.138594 0.26229,0.968967 0.35083,1.845274 0.15489,1.532765 0.12077,1.615598 -0.89813,2.180698 -1.18572,0.657627 -1.80457,0.69997 -2.76134,0.188938 z m 9.48175,0.124921 c -1.10475,-0.371137 -1.67912,-1.375154 -1.49308,-2.609928 0.0948,-0.628992 0.32017,-1.380101 0.50088,-1.669132 0.35174,-0.562588 2.80711,-0.720386 3.40161,-0.218611 0.34198,0.28864 0.97483,2.128779 0.97483,2.834524 0,0.938287 -2.2502,2.044123 -3.38424,1.663147 z m 8.82843,0.0046 c -0.97309,-0.340187 -1.32476,-0.933994 -1.31491,-2.220299 0.0145,-1.887254 0.58658,-2.588889 2.11102,-2.588889 1.38288,0 2.04992,0.605852 2.41298,2.19165 0.38464,1.679999 -1.4981,3.215685 -3.20909,2.617538 z m 17.51415,-0.07919 c -0.40221,-0.148641 -0.9292,-0.738297 -1.17109,-1.310348 -0.40403,-0.955486 -0.39001,-1.128929 0.17233,-2.132212 0.48979,-0.873841 0.8825,-1.115749 1.96486,-1.21034 1.6334,-0.142747 2.56084,0.826846 2.56084,2.677214 0,0.990738 -0.17217,1.287298 -1.02054,1.757813 -1.09857,0.609291 -1.38088,0.633832 -2.5064,0.217873 z m 8.97114,0.06547 c -0.97019,-0.316549 -1.32427,-0.916461 -1.32427,-2.24369 0,-1.742632 0.7719,-2.551775 2.43431,-2.551775 1.54306,0 2.27419,0.913428 2.27419,2.841224 0,0.891557 -0.19705,1.214175 -1.02053,1.670896 -1.04678,0.580564 -1.34368,0.616154 -2.3637,0.283345 z M 507.21125,52.34905 c -0.92296,-1.961719 0.0686,-3.91155 1.98917,-3.91155 1.4327,0 2.35425,1.064966 2.35425,2.720631 0,1.450392 -0.6718,1.966869 -2.55839,1.966869 -1.09802,0 -1.50273,-0.175927 -1.78503,-0.77595 z m 71.36592,0.354036 c -0.71793,-0.555051 -0.67776,-2.777102 0.0664,-3.670987 0.44677,-0.536692 0.89551,-0.651357 1.93842,-0.495321 1.57887,0.236224 1.82003,0.481114 2.06321,2.095081 0.25634,1.701317 -0.44084,2.496234 -2.17618,2.481263 -0.75725,-0.0065 -1.60857,-0.191049 -1.89181,-0.410036 z m 70.92171,0 c -0.66169,-0.511574 -0.68574,-2.811254 -0.0384,-3.670541 0.34312,-0.455449 0.89643,-0.600019 1.97559,-0.516183 1.43456,0.111445 1.51704,0.179661 1.91926,1.587156 0.38177,1.335961 0.37184,1.541746 -0.10836,2.246094 -0.58612,0.859685 -2.82076,1.070429 -3.74809,0.353474 z M 564.93934,42.020549 c -0.32984,-0.306667 -0.84901,-1.291405 -1.15371,-2.188308 -0.49977,-1.471155 -0.51132,-1.731949 -0.11806,-2.66508 0.85727,-2.034105 2.6159,-1.413794 3.52477,1.243262 0.71311,2.084813 0.70604,2.40653 -0.0741,3.371235 -0.7588,0.938374 -1.35617,1.003866 -2.17895,0.238891 z M 261.31431,41.473148 c -0.60057,-0.880899 -0.61038,-1.532708 -0.0498,-3.313382 0.81632,-2.5934 2.67456,-3.435572 3.57144,-1.618623 0.40845,0.827453 0.43546,1.239393 0.16102,2.455298 -0.65182,2.887819 -2.53761,4.156099 -3.68259,2.476707 z m 5.03436,-10.251756 c -0.93123,-0.720158 -1.15966,-1.782849 -0.6983,-3.248546 0.86629,-2.752117 2.47689,-3.785999 3.51831,-2.258494 0.95215,1.396573 0.30859,4.03363 -1.29038,5.28739 -0.94527,0.741199 -0.86933,0.730295 -1.52963,0.21965 z m 293.4895,-1.036956 c -1.46542,-2.359851 -1.27687,-4.268902 0.49112,-4.972491 0.96761,-0.385069 2.72121,2.217735 2.72314,4.041866 0.003,2.653245 -1.81729,3.180223 -3.21426,0.930625 z m -4.59537,-9.037182 c -1.79731,-1.454859 -2.37599,-3.718857 -1.31167,-5.131629 0.83854,-1.113058 1.5715,-0.97189 2.77472,0.534405 1.29187,1.61728 1.46882,3.720267 0.39689,4.716883 -0.81207,0.755015 -0.77656,0.7573 -1.85994,-0.119659 z M 272.01827,21.028133 c -0.89443,-0.447499 -1.17509,-0.99959 -1.18092,-2.32311 -0.009,-2.140862 2.23853,-4.385875 3.49669,-3.492084 1.1116,0.789678 1.1571,2.993497 0.095,4.601219 -0.80932,1.225086 -1.59638,1.621423 -2.41077,1.213975 z M 548.39752,10.821247 C 546.91377,8.7892226 547.31839,6.25 549.12594,6.25 c 0.98969,0 2.74523,2.3302767 2.74523,3.6439732 0,2.4325638 -1.98717,2.9630298 -3.47365,0.9272738 z m -271.22096,0.02934 c -0.6798,-1.2882905 -0.56466,-2.1199895 0.49831,-3.5995824 1.26406,-1.7595047 1.9929,-1.9998588 2.97014,-0.9794916 1.05197,1.0983838 0.98485,2.0218774 -0.28228,3.883616 -1.24968,1.836101 -2.44644,2.097323 -3.18617,0.695458 z M 541.60181,2.1348492 C 541.09949,1.3754163 540.68849,0.58440072 540.68849,0.37703272 540.68849,0.16615849 541.726,0 543.04274,0 h 2.35425 v 1.2890625 c 0,1.6667193 -0.4511,2.2265625 -1.79406,2.2265625 -0.87679,0 -1.26495,-0.2678397 -2.00112,-1.3807798 z m -257.5999,0.5682372 c -0.30632,-0.236825 -0.51499,-0.8651315 -0.51499,-1.5506216 V 0 h 2.20711 c 1.2139,0 2.2071,0.16225962 2.2071,0.36057692 0,0.19831731 -0.40747,0.90144228 -0.90547,1.56249998 -0.93901,1.2464195 -2.02463,1.5292727 -2.99375,0.7800095 z"
       id="path1" /></g></svg>
