<?xml version="1.0" encoding="UTF-8" standalone="no"?>
<!-- Created with Inkscape (http://www.inkscape.org/) -->

<svg
   width="799.99994mm"
   height="600.00012mm"
   viewBox="0 0 799.99994 600.00012"
   version="1.1"
   id="svg1"
   xml:space="preserve"
   xmlns="http://www.w3.org/2000/svg"
   xmlns:svg="http://www.w3.org/2000/svg"><defs
     id="defs1" /><g
     id="layer1"
     transform="translate(2.0889502,-35.633908)"><path
       style="fill:#000000;stroke-width:1.36949"
       d="m 133.18731,635.04245 c -5.28993,-1.38357 -10.3201,-4.80009 -13.89336,-9.43648 -3.21786,-4.17522 -3.46339,-4.3902 -4.41702,-3.86757 -0.4326,0.23708 -2.31832,0.87019 -4.19051,1.40692 -4.34525,1.2457 -11.735961,1.32748 -15.44678,0.17091 -9.946616,-3.10009 -17.096172,-12.50598 -19.668168,-25.87527 -0.75126,-3.90507 -0.907357,-13.41574 -0.30394,-18.51852 1.260733,-10.66136 5.236183,-21.37098 10.468811,-28.20231 4.698539,-6.13407 8.265743,-9.51302 16.683317,-15.80291 l 4.92964,-3.6836 0.67523,-3.34922 c 0.84625,-4.1975 3.39617,-18.79747 4.04202,-23.14331 1.81691,-12.22548 3.53694,-30.50984 5.19133,-55.18511 1.23316,-18.3926 3.32258,-30.13498 6.8197,-38.32628 5.66336,-13.26526 14.67202,-17.74555 22.999,-11.43815 7.59078,5.74976 11.7541,17.7772 14.05027,40.58989 0.50466,5.01389 1.06078,12.66456 1.68993,23.24885 0.0853,1.43561 0.28945,3.98056 0.45361,5.65545 0.16414,1.67489 0.70875,7.3521 1.21024,12.61602 1.03645,10.87908 1.85377,17.82552 2.76406,23.49189 1.43972,8.96204 3.83244,22.30698 4.27062,23.81864 0.53062,1.83059 0.84329,2.13242 7.59587,7.3324 11.00086,8.47148 17.8828,17.22179 21.34789,27.14363 1.62106,4.64167 3.29668,12.79889 3.73342,18.17496 0.11235,1.38251 0.3315,2.62708 0.48707,2.76567 0.15558,0.13861 1.59639,0.79978 3.20182,1.46928 2.66812,1.11268 16.69288,7.0935 17.93356,7.64772 0.48966,0.21874 0.52842,-0.34499 0.53174,-7.73276 0.003,-8.4615 0.24387,-10.72227 1.54667,-14.5654 1.47508,-4.35128 5.14963,-8.31766 8.56474,-9.24491 2.23367,-0.60647 117.17183,-0.60215 119.5065,0.005 4.04211,1.05032 7.52955,4.9073 9.29508,10.28005 l 0.96836,2.94685 0.0867,20.3035 c 0.084,19.66255 0.0666,20.38929 -0.54835,23.02079 -1.53242,6.55706 -5.21281,11.09187 -9.857,12.14534 -1.02568,0.23266 -26.24153,0.35979 -60.75557,0.30629 l -59.00217,-0.0914 -1.60383,-0.94765 c -3.71697,-2.19621 -6.5309,-6.70899 -7.62633,-12.2305 -0.48221,-2.43056 -0.57839,-4.34444 -0.57839,-11.5087 0,-4.72633 -0.0647,-8.59333 -0.14364,-8.59333 -0.22888,0 -17.62645,-7.36134 -19.59874,-8.29271 -0.98187,-0.46366 -1.89858,-0.84303 -2.03716,-0.84303 -0.13857,0 -0.25195,1.0527 -0.25195,2.33934 0,7.80745 -3.24123,17.42078 -7.9772,23.66001 -6.47598,8.53155 -18.94179,11.9261 -29.14438,7.93631 -4.0254,-1.57417 -3.54937,-1.69621 -6.04636,1.54994 -1.23924,1.61105 -3.1665,3.78682 -4.28279,4.83503 -2.73338,2.5667 -7.34404,5.16965 -10.61012,5.98997 -3.24168,0.81419 -10.00402,0.8292 -13.06344,0.0291 z m 11.97122,-7.26834 c 2.65196,-0.72091 6.23252,-2.77876 8.71609,-5.0094 1.53792,-1.38128 3.84916,-4.27696 6.97758,-8.74194 6.65657,-9.50056 9.11523,-12.01688 13.04712,-13.35314 5.72848,-1.94685 11.03915,0.85943 9.88773,5.22489 -0.39195,1.48599 -1.41809,1.95765 -4.81332,2.21247 -5.08471,0.38161 -7.1687,1.5351 -10.28353,5.69195 l -1.87138,2.49743 0.86466,0.39195 c 0.47555,0.21556 3.64876,0.41835 7.05158,0.45062 5.18427,0.0492 6.50473,-0.0712 8.14793,-0.74245 3.14191,-1.28358 5.40522,-2.82162 8.14934,-5.53792 4.98949,-4.93888 7.91666,-12.57911 7.97279,-20.80987 l 0.025,-3.65704 -2.26351,-1.02202 c -1.24493,-0.56211 -5.65659,-2.40812 -9.80369,-4.10225 -7.45629,-3.04596 -20.13325,-8.40218 -31.54309,-13.32749 l -5.88514,-2.54045 v -1.50811 c 0,-1.29763 0.10871,-1.52634 0.77914,-1.63871 0.85372,-0.14304 1.1947,-0.0115 13.25463,5.13027 17.38363,7.41097 35.0369,14.79441 35.37238,14.79441 0.62001,0 -1.41231,-9.22619 -3.21025,-14.57367 -1.87671,-5.58176 -2.38376,-6.60708 -5.65846,-11.44219 -2.86798,-4.23458 -4.79921,-6.44169 -8.88064,-10.14922 -6.55702,-5.95634 -7.8127,-6.96795 -7.90034,-6.36474 -0.0472,0.32502 0.31586,2.96228 0.80685,5.86057 1.34116,7.91689 1.99559,14.0034 1.5714,14.61486 -0.67365,0.97103 -1.38567,-0.37193 -3.67978,-6.94037 -2.75529,-7.88888 -4.89902,-16.9339 -7.51132,-31.69261 -2.04963,-11.57975 -2.42372,-13.97111 -3.47087,-22.18679 -1.50233,-11.78683 -2.06391,-18.45234 -3.94017,-46.76626 -1.67399,-25.26148 -3.89048,-36.11144 -8.89142,-43.5245 -3.19144,-4.73079 -7.81083,-6.84686 -11.34419,-5.19661 -4.96637,2.31951 -7.97853,7.05398 -10.66469,16.76256 -2.11702,7.65159 -3.33149,17.70033 -4.54593,37.61402 -1.37858,22.60516 -1.62861,25.67511 -3.06478,37.63051 -1.54809,12.88699 -2.53637,19.2509 -5.23584,33.71521 -3.04029,16.29054 -8.16002,32.5753 -9.7859,31.12686 -0.17948,-0.15982 -0.32577,-0.91541 -0.32509,-1.67891 0.002,-1.80919 1.56551,-12.72909 2.40473,-16.79104 0.36016,-1.74322 0.60653,-3.23911 0.54749,-3.3242 -0.14845,-0.21399 -11.099695,9.78585 -12.764887,11.65591 -3.503892,3.93498 -7.00343,9.48423 -8.986018,14.24921 -1.560879,3.75144 -3.397843,10.56735 -4.034798,14.9708 -0.530341,3.66641 -0.489153,11.15963 0.08069,14.68071 1.66335,10.27783 7.457546,18.65906 15.041136,21.75682 2.126008,0.86843 3.125141,0.99347 8.012217,1.00278 3.07083,0.007 6.39819,-0.15818 7.39414,-0.36433 l 1.81081,-0.37493 -1.63595,-2.11879 c -3.64899,-4.72596 -5.02226,-5.55774 -10.03282,-6.07686 -4.113385,-0.42615 -5.512786,-1.10065 -5.808618,-2.79967 -0.680167,-3.90637 4.854618,-6.63332 9.787478,-4.82226 4.53229,1.66401 7.44708,4.60144 13.87684,13.98453 3.87239,5.65109 5.97567,8.02869 9.04286,10.2223 4.63544,3.31517 11.50886,4.48795 17.21386,2.9371 z m 212.83112,-1.78893 c 2.17065,-1.53652 4.23411,-4.79897 5.06853,-8.0137 0.607,-2.33857 0.63681,-3.27599 0.67371,-21.18691 0.0342,-16.60584 -0.02,-18.98781 -0.47548,-20.91526 -1.10904,-4.6926 -4.20108,-8.84181 -7.28962,-9.78194 -1.03737,-0.31578 -19.90297,-0.42255 -60.36028,-0.34161 l -58.85126,0.11773 -1.7068,1.15344 c -2.12126,1.4335 -4.02927,4.20044 -5.05441,7.32973 l -0.78383,2.3927 v 19.79408 c 0,19.41908 0.0124,19.83298 0.6577,21.84627 0.75987,2.37091 3.13123,6.19334 4.46342,7.19467 2.46104,1.84982 0.555,1.79773 62.63329,1.71146 l 59.30397,-0.0824 z m 268.936,4.90438 c -4.41398,-0.90789 -8.33557,-6.33578 -9.58893,-13.2721 -0.34011,-1.88223 -0.46263,-4.8369 -0.46263,-11.1565 v -8.59622 l -4.45158,-3.78535 c -2.44836,-2.08194 -9.09533,-7.76689 -14.77105,-12.63322 -5.67571,-4.86634 -10.50597,-8.95104 -10.73393,-9.07714 -0.30513,-0.16878 -0.54114,0.6123 -0.89476,2.96113 -0.59503,3.95245 -2.3193,10.6617 -3.9958,15.54785 -6.07917,17.71783 -16.96318,29.5601 -30.19108,32.84922 -3.67325,0.91333 -11.67526,1.04998 -14.93918,0.2551 -7.54291,-1.837 -14.62841,-6.3199 -20.10667,-12.72124 -8.30863,-9.70863 -14.24319,-24.17286 -18.2693,-44.52751 -0.4824,-2.43885 -0.0189,-2.09156 -5.83792,-4.37443 -15.30364,-6.00386 -28.92052,-17.1816 -40.24806,-33.03858 -10.32638,-14.4555 -17.77585,-29.60225 -26.98943,-54.87666 -4.63478,-12.71398 -8.24518,-20.34221 -11.35667,-23.9949 l -1.6348,-1.91916 -0.41265,1.13525 c -0.22696,0.62438 -0.96648,4.31564 -1.64337,8.20277 -0.67689,3.88713 -1.3964,7.3213 -1.59892,7.63147 -0.90474,1.3857 -2.14459,-2.04222 -2.86847,-7.93069 -1.45719,-11.85359 3.3259,-25.42091 10.91679,-30.96562 1.6311,-1.19142 2.64874,-1.0633 2.64874,0.33352 0,0.48297 -1.08649,3.6454 -2.41442,7.02759 -1.32791,3.3822 -2.4144,6.37429 -2.4144,6.64909 0,0.32836 1.00867,0.0888 2.94256,-0.699 6.94661,-2.82966 12.11672,-5.6146 17.09829,-9.21022 2.72604,-1.96761 17.96639,-13.77061 18.43882,-14.28007 0.85262,-0.91947 9.6241,-7.23434 13.58106,-9.77744 11.97505,-7.69627 19.82321,-10.792 27.46393,-10.83329 4.47081,-0.0242 7.29364,0.69796 12.06395,3.08607 4.02249,2.01373 6.67647,3.8159 10.02693,6.80874 4.21709,3.76697 6.57186,5.22409 8.77136,5.42764 1.11218,0.10293 2.29151,-0.0534 2.86711,-0.38008 2.3953,-1.35933 4.5066,-2.90268 7.25491,-5.3033 3.68496,-3.21881 5.80112,-4.60857 10.36839,-6.80937 4.61701,-2.22477 9.51351,-3.29855 13.22497,-2.90019 6.10858,0.65564 12.94373,3.246 20.98308,7.95209 7.02842,4.1143 10.72272,6.78515 26.70941,19.30988 7.10912,5.56961 13.47176,10.18349 16.61146,12.04585 3.53738,2.09823 12.52165,5.97019 13.11976,5.65422 0.13671,-0.0722 -0.89217,-3.06782 -2.28641,-6.65685 -1.39423,-3.58903 -2.53749,-6.84528 -2.54057,-7.23609 -0.0244,-3.08511 5.66562,1.40894 9.03477,7.13583 3.49656,5.94343 4.99616,11.83976 4.94905,19.45932 -0.0391,6.31837 -1.40208,12.71189 -2.65354,12.44714 -0.72098,-0.15258 -0.77793,-0.35053 -1.70089,-5.91262 -0.48208,-2.9052 -1.16221,-6.63804 -1.51142,-8.29522 l -0.63489,-3.01305 -1.74517,1.93568 c -2.97885,3.30409 -5.54881,8.42257 -9.50687,18.93436 -1.12617,2.99086 -2.14596,5.63371 -2.26621,5.87298 -0.12025,0.23927 -0.87199,2.19691 -1.67054,4.35034 -5.50904,14.85602 -8.68349,22.1601 -13.89934,31.98088 -5.65018,10.63856 -15.20777,24.16718 -20.45225,28.9498 l -1.34691,1.22829 0.15841,6.76856 c 0.11338,4.84243 0.0188,8.40372 -0.33221,12.51467 -0.26984,3.16036 -0.49061,6.01885 -0.49061,6.35219 0,0.33335 1.59577,1.94502 3.54616,3.5815 4.31613,3.62146 9.13048,7.71941 18.56712,15.80427 3.94577,3.38055 7.23917,6.14645 7.31869,6.14645 0.0795,0 0.14618,-3.47484 0.14815,-7.72188 0.003,-8.43608 0.26743,-10.70937 1.67295,-14.43179 0.9873,-2.61481 3.14233,-5.65472 4.95222,-6.98567 3.03682,-2.23323 1.04286,-2.16443 62.93646,-2.17119 38.37999,-0.005 58.29965,0.14453 59.60577,0.44508 2.68964,0.61887 5.44308,2.55799 7.08041,4.98639 1.56318,2.31845 3.05133,6.50437 3.48544,9.80403 0.16717,1.27058 0.299,10.18686 0.299,20.22141 0,16.97927 -0.0341,18.1078 -0.63097,20.89345 -1.48381,6.92479 -5.12637,11.73633 -9.67853,12.78457 -2.30171,0.53003 -117.10027,0.54151 -119.67477,0.0115 z m 121.25681,-4.87873 c 2.09477,-1.48292 3.97678,-4.10108 5.04369,-7.01658 l 0.81666,-2.23166 0.0876,-19.10599 c 0.0994,-21.68308 0.0869,-21.83018 -2.23126,-26.3694 -1.01996,-1.99718 -1.70035,-2.80638 -3.33493,-3.96639 l -2.05354,-1.45731 -58.83045,-0.11608 c -63.95698,-0.12628 -60.78374,-0.23759 -63.49363,2.22829 -1.41035,1.28335 -2.85889,3.61398 -3.76447,6.05682 -0.67406,1.81835 -0.68177,2.03613 -0.76776,21.67938 -0.0839,19.16785 -0.0656,19.92445 0.53822,22.25077 1.06274,4.09439 4.06137,8.11699 6.74116,9.04315 0.52587,0.18174 27.64291,0.30056 60.26009,0.26403 l 59.30398,-0.0664 z M 551.24224,615.87575 c 8.34047,-2.48331 16.10927,-9.15609 21.28033,-18.27815 3.86114,-6.81124 7.72885,-19.08546 8.86004,-28.11739 l 0.20086,-1.60371 -2.19813,-1.82062 c -12.03468,-9.96776 -15.9301,-13.47473 -15.9301,-14.34154 0,-0.75212 0.73639,-2.16466 1.12851,-2.16466 0.36039,0 5.49442,4.14278 11.12166,8.97434 3.16879,2.72074 5.90354,4.94679 6.07721,4.94679 0.73988,0 1.16664,-12.07116 0.71103,-20.11185 -0.61909,-10.92602 -2.01513,-20.05003 -4.14804,-27.11019 -5.08164,-16.82075 -12.61818,-25.96186 -23.62035,-28.64924 -3.55014,-0.86715 -5.57043,-0.87423 -9.3059,-0.0327 -2.35137,0.52976 -11.64153,3.90596 -12.10528,4.3993 -0.0616,0.0654 0.59401,1.25367 1.45681,2.64043 6.49787,10.44396 10.64391,26.89098 11.05384,43.84971 0.16339,6.75909 -0.0365,8.91684 -0.72497,7.827 -0.1499,-0.23728 -1.05754,-4.44459 -2.01697,-9.34962 -2.68999,-13.75221 -5.16429,-22.89584 -7.83235,-28.94388 -5.30373,-12.02271 -10.79613,-17.61649 -20.05331,-20.42346 -3.30675,-1.00267 -9.74961,-0.88172 -13.46158,0.25273 -7.54721,2.30656 -13.08843,6.21506 -18.63457,13.14392 -1.86781,2.33347 -1.89366,2.75307 -0.24522,3.98182 0.68497,0.51058 0.8663,0.48059 1.48897,-0.24621 0.94644,-1.1047 1.53995,-1.04398 2.93899,0.30065 3.09692,2.97649 6.30262,8.83645 8.83695,16.15375 2.25811,6.51977 3.22145,11.53427 6.04034,31.44194 2.11897,14.96465 2.38149,16.47635 3.82832,22.04459 3.62441,13.94883 8.72656,24.46958 15.36461,31.68223 2.36406,2.56867 7.69723,6.50525 10.64323,7.85608 2.39543,1.09836 6.1144,2.20066 8.52116,2.52566 2.44504,0.33018 8.3712,-0.12726 10.72391,-0.82775 z m -54.36913,-61.64942 c -1.01401,-8.39718 -2.74801,-19.42082 -3.73942,-23.77284 -1.32761,-5.82788 -3.57018,-12.74499 -4.62273,-14.25867 -0.36133,-0.51961 -2.01507,-1.6672 -3.67498,-2.55016 -3.00201,-1.59689 -9.57669,-5.73016 -14.18467,-8.91742 -2.75524,-1.90574 -11.02282,-9.17024 -15.16875,-13.32834 -5.47165,-5.48776 -11.75684,-13.16876 -18.4821,-22.58666 -2.24088,-3.13807 -5.00193,-6.90552 -6.13568,-8.37212 -2.29617,-2.97027 -6.35476,-7.03315 -7.02571,-7.03315 -0.50451,0 -0.21559,0.93384 1.66991,5.39744 0.61584,1.45788 2.24638,5.58719 3.62344,9.17623 1.37706,3.58903 3.67077,9.55989 5.09714,13.26856 6.365,16.54947 12.1179,27.94567 19.88028,39.38183 10.42256,15.35533 22.66246,26.42663 35.60339,32.20418 1.96525,0.87739 4.11643,1.85811 4.7804,2.17936 0.66396,0.32125 1.50937,0.59342 1.87871,0.60484 0.59325,0.0184 0.6516,-0.14403 0.50077,-1.39308 z m 94.52208,-25.88459 c 5.27387,-6.81505 10.16914,-14.35566 14.21815,-21.90141 4.07065,-7.58608 11.17974,-24.18901 14.87291,-34.73489 1.18606,-3.38685 5.25826,-13.62357 6.36597,-16.00283 0.47043,-1.01046 0.75453,-1.92702 0.63132,-2.03679 -0.4211,-0.37513 -2.90364,1.52885 -5.0222,3.85178 -1.1641,1.27638 -5.376,6.77206 -9.35978,12.21259 -12.35703,16.87569 -18.81582,24.02934 -29.02189,32.14424 l -3.67057,2.9185 1.62113,4.86823 c 1.94573,5.84295 3.83634,13.83046 4.57574,19.33168 0.29737,2.21244 0.68232,4.02326 0.85542,4.02406 0.17312,8.1e-4 1.94332,-2.10301 3.9338,-4.67516 z M 482.06234,492.43011 c 6.3504,-6.85695 13.80154,-11.38775 21.28797,-12.94459 3.61245,-0.75123 11.23078,-0.32501 14.68382,0.82151 2.84612,0.94498 8.15813,3.9281 9.59052,5.38583 l 0.83829,0.85312 2.78333,-1.63061 c 3.75813,-2.20171 7.64902,-3.85525 11.25584,-4.78349 4.00139,-1.02978 12.06298,-1.06261 15.10284,-0.0615 7.48102,2.46368 15.16694,9.44161 19.43507,17.64482 l 0.75824,1.45729 5.64836,-4.93756 c 11.13092,-9.7302 15.51719,-14.65244 26.23067,-29.43596 l 6.83699,-9.43435 -3.47233,-0.12298 -3.47232,-0.12299 -4.72275,2.80214 c -13.45826,7.98512 -25.34029,12.2805 -45.16415,16.32691 -12.48081,2.54754 -19.09652,3.06572 -36.51798,2.86026 -16.56616,-0.19538 -22.5089,-0.82063 -35.23973,-3.70771 -19.06315,-4.3231 -30.06267,-8.49094 -42.80917,-16.22083 -3.1648,-1.91924 -3.24882,-1.94367 -7.20441,-2.09589 l -4.00226,-0.15407 2.06679,2.61021 c 1.13673,1.43563 3.77233,4.9594 5.85687,7.83063 11.61076,15.99246 17.96856,22.7755 30.32748,32.35592 l 3.92341,3.04136 1.9043,-2.99725 c 1.04736,-1.64848 2.8808,-4.05164 4.07431,-5.34035 z m 56.49428,-22.04923 c 7.42802,-0.46448 14.55372,-1.33187 19.91889,-2.42466 9.85299,-2.00688 20.12471,-4.64872 25.25336,-6.49509 3.43123,-1.23527 16.24434,-6.88627 16.24434,-7.16427 0,-0.14913 -2.07111,-0.60139 -4.60248,-1.00495 -2.53136,-0.40356 -9.49165,-1.74377 -15.46731,-2.97822 -10.33762,-2.13554 -11.18706,-2.24626 -17.50448,-2.28178 -6.36523,-0.0358 -6.82673,0.0199 -11.16666,1.34817 -2.48986,0.76201 -6.64544,2.25757 -9.23464,3.32347 -7.44028,3.06295 -11.46113,3.88857 -17.62568,3.61919 -5.63561,-0.24629 -8.64846,-1.00561 -16.52556,-4.16492 -13.418,-5.38164 -18.50807,-5.5673 -38.70409,-1.4117 -5.80968,1.19542 -12.24697,2.42577 -14.3051,2.73412 l -3.74205,0.56063 1.31473,0.82642 c 3.17813,1.99769 14.44823,6.64711 20.65583,8.52145 20.17788,6.09255 42.22851,8.44679 65.4909,6.99214 z M 533.4244,447.9557 c 1.24169,-0.3697 4.73481,-1.65307 7.7625,-2.85191 10.37436,-4.10787 13.50301,-4.82128 21.06113,-4.80249 5.77798,0.0148 6.76097,0.15801 22.6351,3.30891 19.57067,3.88456 19.50155,3.87522 28.82204,3.90069 10.33905,0.0283 16.13629,-0.96922 13.62664,-2.34461 -0.46166,-0.25302 -0.97147,-0.46003 -1.13291,-0.46003 -1.50861,0 -13.35346,-7.99959 -23.50948,-15.87747 -21.92787,-17.00915 -29.73912,-21.72785 -41.00287,-24.76948 -1.38777,-0.37476 -3.67193,-0.68136 -5.07594,-0.68136 -5.15584,0 -12.84112,3.82028 -19.718,9.80163 -3.17613,2.76253 -7.36373,5.39516 -9.25593,5.81895 -3.70233,0.82922 -6.63718,-0.39818 -12.47004,-5.21515 -7.33046,-6.05373 -10.5202,-7.96631 -15.90107,-9.53435 -4.01992,-1.17143 -7.33579,-1.11422 -11.57689,0.19974 -6.03889,1.87095 -10.70439,4.14479 -18.09367,8.81834 -3.20562,2.02748 -13.70067,9.59422 -14.63737,10.5533 -0.16599,0.16995 -2.06733,1.64266 -4.22522,3.2727 -2.15788,1.63004 -4.39876,3.38851 -4.97972,3.90772 -4.21833,3.76992 -13.72886,10.22683 -18.56078,12.60135 -1.8259,0.89729 -3.4362,1.78821 -3.57844,1.97982 -0.6711,0.90404 7.40951,2.16952 13.83968,2.16738 6.48913,-0.002 14.92539,-1.2551 32.06471,-4.76225 11.12903,-2.27727 15.85226,-2.80425 22.51283,-2.51179 6.09709,0.26771 8.78579,0.91375 15.92201,3.82566 6.24203,2.54707 10.18719,3.86958 12.86844,4.31384 3.14044,0.52035 9.81407,0.17131 12.60325,-0.65914 z M 142.71156,327.09439 c -3.69167,-2.19274 -5.4397,-4.58216 -7.16746,-9.79729 l -1.09952,-3.31884 -0.0983,-19.14153 c -0.0704,-13.70323 0.005,-19.82133 0.26243,-21.53423 0.97719,-6.48135 4.2088,-11.50469 8.68257,-13.49651 1.85229,-0.82468 2.8774,-0.85965 25.19812,-0.85965 12.797,0 23.13825,-0.16487 22.98057,-0.36638 -0.25085,-0.32056 -4.23144,-1.72988 -20.0547,-7.10031 -2.0749,-0.70421 -5.9455,-2.03506 -8.60135,-2.95746 -4.5789,-1.59025 -7.09379,-2.44311 -14.78826,-5.015 -1.8259,-0.61033 -5.01745,-1.68711 -7.09234,-2.3929 -6.59581,-2.24359 -8.12663,-2.68555 -8.4143,-2.42928 -0.15441,0.13763 -0.65637,1.17992 -1.11548,2.31634 -3.57472,8.84859 -7.58325,16.54059 -12.22535,23.45938 -2.41802,3.60392 -7.08121,9.32903 -9.02861,11.08462 -0.67171,0.60555 -0.85386,1.41492 -1.65991,7.37558 -0.82099,6.07119 -0.9054,7.50651 -0.9054,15.39607 0,4.78539 0.10486,10.56048 0.23302,12.83354 0.28794,5.10683 -0.004,6.2423 -1.65533,6.44147 -1.57025,0.18936 -1.92919,-0.85281 -2.51993,-7.31642 -0.38832,-4.24881 -0.46054,-7.51921 -0.33133,-15.00383 0.0909,-5.26392 0.30879,-10.53313 0.48427,-11.70934 0.17548,-1.17623 0.2504,-2.23756 0.16648,-2.35851 -0.0839,-0.12102 -1.20446,0.30536 -2.49009,0.9474 -3.290838,1.64342 -6.188286,2.44576 -8.863984,2.45454 -2.911845,0.01 -4.135017,-0.34333 -4.48832,-1.29493 -0.51333,-1.3826 0.326963,-2.14083 3.620641,-3.26708 4.747347,-1.62331 6.745289,-2.63111 10.543943,-5.31851 5.35097,-3.7856 11.53558,-11.04753 16.40217,-19.25927 1.97148,-3.32662 2.82655,-4.9122 5.39591,-10.0058 1.28976,-2.55688 3.57234,-7.99617 3.57234,-8.51273 0,-0.26999 -1.91689,-1.12219 -4.30067,-1.91194 -2.36536,-0.78367 -6.54154,-2.16586 -9.28039,-3.07153 -14.593231,-4.82566 -13.88286,-4.51794 -13.88286,-6.01381 0,-1.63364 0.5076,-2.2422 1.62847,-1.95236 0.51526,0.13319 6.76107,2.18898 13.87957,4.56832 7.11851,2.37935 13.09417,4.2418 13.27926,4.13878 0.30662,-0.17063 1.12811,-2.13425 3.51474,-8.40137 2.06965,-5.43473 7.05892,-15.84219 9.77446,-20.3892 1.87084,-3.13261 8.49081,-13.38415 11.91768,-18.45547 6.0663,-8.97731 9.66122,-16.26142 9.67815,-19.61008 0.007,-1.24057 -0.93438,-3.65303 -1.9022,-4.87854 -2.2433,-2.84055 -7.09252,-4.36981 -10.91822,-3.44319 -7.68344,1.86098 -11.48597,5.78544 -20.28716,20.93773 -5.58966,9.6233 -10.16746,13.99811 -13.96853,13.34918 -2.68199,-0.45787 -3.67356,-2.19899 -4.88104,-8.57076 -0.62122,-3.27808 -0.6988,-4.63948 -0.69377,-12.17401 0.006,-9.39654 0.69394,-17.22722 2.75062,-31.32252 5.75604,-39.4485 7.37748,-53.010059 7.37606,-61.692735 -10e-4,-7.223985 -1.37443,-11.370401 -4.52976,-13.677065 -4.08054,-2.983037 -7.62643,-0.351692 -10.31296,7.653082 -2.32554,6.929171 -5.82681,24.314712 -10.089194,50.097808 -0.949325,5.74246 -2.322939,13.45433 -3.052474,17.13748 -0.729535,3.68314 -1.289306,6.74902 -1.243934,6.81304 0.04538,0.064 0.955563,0.44192 2.022651,0.83976 3.448246,1.28562 6.035931,3.65229 5.460584,4.9942 -0.285958,0.66695 -0.650396,0.61575 -9.060652,-1.27284 -4.333628,-0.97315 -12.218805,-1.1677 -17.246151,-0.42551 -10.804565,1.59506 -23.58062,7.07332 -32.546908,13.9558 -3.015554,2.31473 -6.773473,5.55241 -8.303707,7.15416 -1.223796,1.281 -2.888267,2.47008 -3.076934,2.19812 -0.08455,-0.12184 0.16407,-1.13884 0.552491,-2.25992 0.714297,-2.06163 2.785015,-5.06396 4.870478,-7.06169 1.06668,-1.02181 1.110719,-1.14884 0.695117,-2.00519 -2.21204,-4.55793 -3.81079,-8.86465 -13.904907,-37.4572 -4.318249,-12.23185 -5.957301,-16.0616 -7.811226,-18.25139 -1.555218,-1.83698 -3.655804,-3.26039 -4.8305118,-3.27329 -2.5952552,-0.0285 -5.4388911,2.9059 -6.1525781,6.34893 -0.4982588,2.40374 -0.4691661,7.7054 0.062232,11.34075 0.891173,6.09662 5.3548341,22.31576 11.9504689,43.42319 5.417589,17.33741 6.099334,20.33905 6.768284,29.79988 1.722777,24.36492 2.4304,31.36319 4.255513,42.08631 1.636959,9.61768 4.223968,19.37289 6.544324,24.67766 2.996553,6.85068 6.023389,11.52591 10.145398,15.67051 4.293435,4.31697 8.597907,6.61461 14.708345,7.85102 3.470196,0.70218 3.743736,0.82639 3.743736,1.70003 0,2.94942 -8.502219,3.24534 -14.11931,0.49144 -1.13431,-0.55612 -2.50844,-1.34362 -3.053624,-1.75001 -0.545183,-0.40637 -1.058105,-0.6425 -1.139828,-0.52469 -0.08172,0.11773 0.08571,3.21555 0.372065,6.88387 0.40557,5.19549 0.48006,8.59282 0.337011,15.37041 -0.192105,9.10181 -0.459809,11.82754 -1.242666,12.65268 -0.626515,0.66037 -1.815199,0.29105 -2.482083,-0.77116 -0.491249,-0.78247 -0.536875,-1.85371 -0.502971,-11.80896 0.02814,-8.26272 -0.0964,-12.45413 -0.507701,-17.08639 -0.747012,-8.41327 -1.103827,-9.73731 -3.620626,-13.43516 -3.715951,-5.45972 -5.657653,-9.49809 -8.404626,-17.47999 -4.947811,-14.3769 -7.026703,-27.81855 -9.105179,-58.87211 -0.344318,-5.14429 -0.761054,-10.23419 -0.926081,-11.31091 -0.834138,-5.44229 -2.697122,-12.17313 -7.8868915,-28.49479 -5.5929461,-17.58965 -9.7126456,-33.24772 -10.5103748,-39.94765 -0.5040691,-4.23355 -0.2264924,-10.37741 0.6052044,-13.39553 0.97251276,-3.52912 2.9498529,-6.5806 5.3811528,-8.304315 1.8065419,-1.280784 2.2936632,-1.432574 4.5973923,-1.432574 2.2969108,0 2.7890388,0.152239 4.5314888,1.401771 4.968935,3.563288 6.531805,6.829058 15.151701,31.660888 4.449963,12.81926 6.583259,18.61637 6.758007,18.36448 0.06592,-0.095 -0.29558,-2.99342 -0.803329,-6.4409 -0.507747,-3.44747 -1.044175,-7.14907 -1.19206,-8.22578 -0.147885,-1.07672 -0.741041,-4.89415 -1.318125,-8.48319 -4.084518,-25.402712 -5.930178,-40.897841 -5.923046,-49.726601 0.0071,-8.726924 0.982257,-13.169394 3.795454,-17.289839 2.253031,-3.299981 4.351857,-4.655249 7.590627,-4.901474 3.623972,-0.27551 5.559444,0.853513 8.407885,4.904583 2.452975,3.488636 3.252133,5.535902 5.113689,13.100133 2.253264,9.15589 2.439553,10.171868 8.443764,46.050198 1.07814,6.44246 1.992999,11.76079 2.033019,11.81852 0.04002,0.0577 0.07276,-14.8059 0.07276,-33.030278 0,-29.695565 0.05596,-33.643838 0.539118,-38.034727 1.274879,-11.586089 3.4724,-17.333718 7.911321,-20.692105 1.67873,-1.270092 2.031277,-1.370403 4.833463,-1.375294 2.798816,-0.0049 3.167583,0.09816 4.979723,1.39152 2.316677,1.653458 3.781492,3.477231 5.134644,6.392906 3.044872,6.560879 3.81425,15.143729 4.507831,50.287463 0.167636,8.494055 0.372721,17.890815 0.455744,20.881675 0.08303,2.99087 0.152626,7.96658 0.15467,11.05714 0.0021,3.09056 0.07288,5.51952 0.157401,5.39767 0.08452,-0.12183 0.968258,-4.99967 1.963851,-10.83962 6.756739,-39.633696 9.96363,-53.202867 13.87893,-58.725275 3.37631,-4.762182 7.28334,-6.257034 11.3774,-4.353056 5.3869,2.50523 8.11317,8.63294 8.45973,19.01457 0.24334,7.289192 -0.12268,11.385453 -3.08569,34.533261 -0.46469,3.63037 -2.65315,19.11637 -4.02683,28.49479 -2.82948,19.31745 -3.67549,32.26705 -2.64824,40.53586 0.3818,3.07334 1.11132,5.36033 1.70989,5.36033 0.72681,0 3.40093,-2.33717 5.22167,-4.56372 1.08592,-1.32794 3.85912,-5.59167 6.16266,-9.47495 8.87725,-14.96518 15.41325,-20.3291 24.77116,-20.3291 3.69116,0 5.97358,0.70881 8.47779,2.63276 6.38345,4.90435 7.56048,13.48934 3.12829,22.81679 -2.2,4.62985 -5.23702,9.54947 -14.02864,22.72476 -4.94336,7.40822 -8.63145,13.7935 -10.87093,18.82108 -2.39384,5.37412 -6.64885,16.14453 -6.47636,16.39317 0.23294,0.33578 4.60936,1.87804 21.92615,7.72681 8.8805,2.9994 19.47372,6.61769 23.54049,8.04063 4.06679,1.42295 8.54854,2.97689 9.95945,3.45319 1.41092,0.47632 4.39876,1.48456 6.63964,2.24054 2.24087,0.75598 4.8816,1.74901 5.86827,2.20673 1.71649,0.79627 3.06744,0.83221 31.2801,0.83221 28.70943,0 29.53802,0.023 31.4556,0.87685 4.07827,1.81574 7.3755,6.93078 8.54873,13.26179 0.58006,3.13013 0.57955,37.76734 -6.1e-4,40.89328 -1.04685,5.64062 -3.59698,10.16632 -7.06151,12.532 l -2.03437,1.38913 -59.90757,0.10013 -59.90758,0.10013 z m 122.59489,-4.30667 c 2.27606,-1.69859 4.14206,-4.78503 5.0818,-8.4055 0.63525,-2.44744 0.64819,-2.94817 0.56041,-21.68374 l -0.0899,-19.17847 -1.04909,-2.78981 c -1.2001,-3.19134 -3.39839,-5.95932 -5.6662,-7.13461 -1.33592,-0.69233 -5.45374,-0.73512 -60.58641,-0.62961 l -59.15307,0.11313 -1.71727,1.21559 c -2.34118,1.65721 -4.58287,5.23974 -5.20313,8.31525 -0.69057,3.42421 -0.70572,38.71037 -0.0178,41.61703 0.93345,3.9444 4.05351,8.43875 6.59562,9.50076 0.55168,0.23047 25.63262,0.41168 60.14838,0.43455 l 59.20217,0.0393 z M 47.676998,153.9238 c 2.895612,-1.75099 7.95172,-4.12053 11.67472,-5.47135 l 1.262894,-0.45821 -0.575125,-1.87414 c -0.840001,-2.73727 -2.967642,-14.30325 -6.174152,-33.56302 -6.99219,-41.998305 -8.695247,-48.558751 -13.582793,-52.323052 -2.71009,-2.087263 -7.326768,0.640726 -8.868985,5.240672 -0.944642,2.817566 -1.3323,9.101304 -0.932004,15.107312 0.57729,8.661615 1.389519,15.007396 4.510272,35.237828 3.774223,24.4666 5.128536,33.85178 5.461603,37.84804 0.189446,2.27306 0.39171,4.36895 0.449476,4.65753 0.06834,0.34142 0.697674,0.01 1.80173,-0.94806 0.933186,-0.81 3.17075,-2.3641 4.972364,-3.45355 z m 22.785683,-8.61154 c 1.557931,-0.31926 5.51539,-0.55144 9.280392,-0.54447 4.329117,0.008 6.563338,-0.14107 6.561704,-0.43802 -0.0014,-0.24759 -0.127102,-2.11418 -0.279421,-4.14797 -0.385647,-5.14919 -0.585598,-11.75764 -0.776608,-25.66706 -0.536687,-39.081877 -1.251801,-54.601788 -2.889037,-62.699971 -1.189735,-5.884728 -4.582038,-9.895182 -7.946589,-9.394632 -4.030743,0.599662 -6.251989,4.188115 -7.41982,11.986816 -1.121929,7.492171 -1.268073,14.28393 -1.160598,53.936297 l 0.102957,37.98455 0.905404,-0.22945 c 0.497973,-0.12628 2.127701,-0.47995 3.621616,-0.78609 z M 412.17133,327.06632 c -3.17887,-1.88846 -5.41687,-4.87299 -6.87803,-9.17232 -1.41957,-4.17696 -1.52337,-6.04897 -1.42805,-25.75452 0.0854,-17.66107 0.10757,-18.25955 0.76987,-20.79463 1.41595,-5.41987 3.87963,-9.21099 7.26979,-11.18676 l 1.70595,-0.99423 22.63509,-0.21752 22.6351,-0.21751 -1.50899,-1.26856 c -0.82996,-0.69769 -3.47826,-3.12804 -5.88514,-5.40074 -6.24101,-5.89314 -26.94324,-25.57308 -32.4881,-30.88382 -2.57863,-2.46974 -4.8484,-4.40196 -5.04395,-4.2938 -0.19553,0.10819 -1.63626,3.30347 -3.2016,7.10068 -3.67865,8.92371 -5.60998,13.20059 -8.61826,19.08498 -1.34555,2.63196 -3.37592,6.74304 -4.51194,9.13573 -1.13601,2.3927 -2.70863,5.62283 -3.49468,7.17807 -2.16124,4.27608 -4.87583,10.7113 -7.50156,17.78323 -6.09203,16.40774 -8.49497,21.55887 -12.98143,27.82809 -6.98525,9.76092 -14.35253,14.0562 -24.16734,14.09007 -9.30661,0.0321 -16.55337,-3.9941 -22.49878,-12.50008 -4.25032,-6.08085 -6.43043,-12.24786 -7.51742,-21.26495 -0.52856,-4.38466 -0.61049,-14.26436 -0.14293,-17.23565 0.66399,-4.21965 0.92607,-5.22195 1.47638,-5.64649 1.57306,-1.21354 2.22628,1.16465 3.00725,10.94852 0.72676,9.10468 1.4458,13.37536 3.02599,17.97234 2.35716,6.8573 5.22997,10.87998 10.42655,14.59991 4.38626,3.13986 6.91691,3.98348 12.07206,4.02439 3.43501,0.0273 4.69953,-0.14535 6.76135,-0.92269 4.42243,-1.66743 9.32924,-5.66898 13.00439,-10.60523 2.8795,-3.86758 6.67867,-11.57516 9.50209,-19.27735 0.96481,-2.63197 2.43755,-6.64516 3.27275,-8.91822 0.8352,-2.27307 2.00388,-5.25068 2.59707,-6.61693 0.59318,-1.36625 1.70044,-3.91122 2.46058,-5.65547 0.76015,-1.74424 3.06305,-6.59724 5.11757,-10.78446 8.6196,-17.5671 15.98456,-34.16481 15.98456,-36.02284 0,-0.31289 -3.62794,-3.94839 -8.50303,-8.52071 l -0.8071,-0.75698 -0.61848,2.01541 c -1.47596,4.80964 -7.17116,17.07483 -11.0088,23.70854 -3.23836,5.59777 -7.42683,11.70497 -8.855,12.91143 -1.17822,0.9953 -1.89673,1.05419 -1.89673,0.15537 0,-0.50314 3.77621,-8.72234 6.8029,-14.80701 3.58768,-7.21248 7.62862,-16.4144 9.75892,-22.22276 1.01643,-2.77138 1.84807,-5.14114 1.84807,-5.26615 0,-0.12496 -0.84882,-1.06828 -1.88626,-2.09619 -2.87291,-2.8465 -3.22183,-3.77878 -1.88632,-5.04013 0.72941,-0.68891 0.82259,-0.65318 2.8098,1.07756 1.13045,0.98457 2.19532,1.7901 2.36637,1.7901 0.39204,0 3.06851,-9.68715 4.26695,-15.44372 2.88667,-13.86582 3.84985,-24.33053 3.59653,-39.07549 -0.2798,-16.28706 -2.33654,-29.92857 -6.17721,-40.97095 -3.07413,-8.838481 -7.87546,-15.831138 -13.61967,-19.835718 -3.76943,-2.627847 -6.45996,-3.522839 -10.5963,-3.524796 -8.5619,-0.0041 -15.86989,5.499297 -21.63728,16.294134 -2.83429,5.304945 -5.92606,15.50155 -6.93885,22.88417 -0.52467,3.82459 -0.77328,16.62891 -0.33513,17.26099 0.1169,0.16866 2.00702,0.76735 4.20025,1.33043 10.04383,2.57862 17.22818,7.71502 23.67311,16.92492 5.14668,7.35467 8.00229,15.06154 9.51038,25.66705 0.52024,3.65862 0.45061,13.22912 -0.12362,16.98886 -1.4162,9.27256 -4.72001,16.87368 -9.30569,21.40974 -0.71867,0.71089 -3.27593,2.72479 -5.68279,4.47533 -5.58074,4.05893 -7.66859,6.8308 -9.64928,12.81055 -4.58136,13.8312 -4.55029,13.75402 -6.93182,17.22017 -2.6051,3.79152 -4.15963,4.81444 -7.36291,4.84498 -4.4224,0.0423 -7.89271,-4.48388 -9.27508,-12.09671 -1.4168,-7.80245 0.0492,-14.83303 5.22324,-25.0508 3.8952,-7.69218 4.82668,-11.63458 4.17091,-17.65299 -0.64521,-5.92155 -2.10335,-9.49868 -5.99778,-14.71389 -3.56015,-4.76753 -4.27503,-8.15932 -2.04452,-9.70031 1.13413,-0.78354 1.95475,-0.22273 5.15782,3.52489 3.0062,3.51732 5.52465,7.32459 6.59958,9.97697 1.93741,4.78056 2.77811,13.44749 1.88786,19.46234 -0.68382,4.62012 -1.83579,7.83908 -5.00526,13.9861 -3.08798,5.989 -3.83403,7.85315 -4.43004,11.06933 -1.13406,6.11968 0.30189,12.52693 3.02854,13.5134 2.07343,0.75013 5.17597,-2.47813 6.6325,-6.90128 4.91321,-14.92028 5.53893,-16.42847 8.23619,-19.85196 1.75151,-2.22309 3.80399,-3.98222 7.64744,-6.55441 5.81788,-3.89355 8.2029,-6.90908 10.38467,-13.12996 1.07564,-3.06701 1.57837,-5.20214 2.06525,-8.77141 0.58383,-4.28 0.61211,-5.17086 0.3048,-9.60312 -0.18631,-2.68701 -0.63067,-6.14339 -0.9875,-7.68086 -3.52015,-15.16767 -13.29057,-26.92253 -25.80099,-31.04135 -2.20336,-0.72541 -4.97972,-1.27768 -4.97972,-0.99054 0,0.11549 0.53506,2.44673 1.18901,5.18052 2.4506,10.24446 4.105,14.67323 7.994,21.39961 1.58218,2.73654 1.91465,3.55712 1.63679,4.03975 -0.90263,1.56774 -4.36289,-0.98913 -7.52793,-5.56256 -5.01927,-7.25277 -8.41077,-16.88223 -9.97928,-28.33407 -0.95901,-7.00181 -0.96802,-18.44239 -0.0202,-25.64131 2.24179,-17.027079 9.60171,-32.464075 18.68292,-39.18636 5.83726,-4.320982 9.53129,-5.665257 15.48862,-5.636381 4.54827,0.02205 7.55122,0.846839 11.42029,3.136704 4.37171,2.58736 7.34041,5.385168 10.61704,10.005897 3.44405,4.85683 5.48376,9.087655 7.85331,16.289583 3.55747,10.812397 5.10823,20.361847 5.7792,35.587697 0.48134,10.92266 -0.0871,23.03877 -1.5872,33.8246 -1.21759,8.75513 -3.8227,20.92866 -6.11485,28.57436 -0.81079,2.70446 -0.97994,3.66426 -0.70396,3.99442 0.8082,0.96685 8.67801,8.3245 8.90396,8.3245 0.28877,0 0.81866,-1.50515 3.67562,-10.44084 4.27874,-13.38257 6.7189,-24.73216 8.28247,-38.52319 2.56263,-22.60296 1.59925,-41.44801 -3.1732,-62.072292 -6.20534,-26.816593 -19.5043,-44.859923 -36.80404,-49.933747 -7.76827,-2.278347 -15.15586,-1.32246 -24.29479,3.143529 -6.28531,3.071493 -11.693,8.019579 -17.41214,15.932292 -6.94002,9.601864 -11.83703,22.076861 -16.08108,40.966148 -3.38819,15.08006 -3.24324,14.64986 -5.08143,15.07985 -0.88565,0.20716 -1.11336,0.0867 -1.42547,-0.75392 -1.1064,-2.97997 1.96787,-21.243157 5.75692,-34.199832 4.70487,-16.088381 11.75568,-28.887717 20.71301,-37.60041 3.15367,-3.067543 10.10624,-7.809884 13.93796,-9.507073 15.74595,-6.97439 30.71742,-3.895497 44.34836,9.12028 8.84874,8.449388 16.42797,22.313529 21.47733,39.286929 4.05843,13.642316 6.33774,33.267356 5.94674,51.201796 -0.51651,23.69194 -4.39784,45.43939 -12.11373,67.87437 -1.08346,3.1503 -1.96993,5.80486 -1.96993,5.89899 0,0.0942 7.43564,7.28751 16.52363,15.98525 15.05987,14.41318 19.98503,19.06677 28.89748,27.30413 l 3.01802,2.78939 34.85805,0.21752 c 33.04501,0.2062 34.93867,0.2597 36.40766,1.02869 3.11256,1.62933 6.06539,5.88814 7.43074,10.71725 0.65918,2.33147 0.67894,2.87692 0.77204,21.31671 0.0658,13.03855 -0.0128,19.73582 -0.25261,21.53424 -0.7496,5.61982 -3.38386,10.38599 -7.16885,12.97058 l -2.02911,1.38557 -59.90758,0.10079 -59.90757,0.10063 z m 122.46188,-4.1046 c 2.0849,-1.42676 4.09145,-4.34181 5.06982,-7.36526 0.6544,-2.02232 0.6644,-2.35457 0.6644,-22.06483 v -20.01162 l -0.85087,-2.39269 c -1.07553,-3.02441 -2.32626,-4.90509 -4.43066,-6.66218 l -1.65989,-1.38597 -59.15308,-0.11542 -59.15307,-0.11543 -1.95882,0.98552 c -1.52424,0.76688 -2.32772,1.52581 -3.62162,3.42083 -2.87797,4.21502 -2.83524,3.85382 -2.9483,24.92424 -0.0658,12.27042 0.0124,18.98871 0.23942,20.56528 0.64808,4.49992 3.89743,9.79668 6.73761,10.98297 0.55399,0.23139 25.53733,0.41218 60.10118,0.4349 l 59.15307,0.039 z m 132.33262,4.14804 c -3.54822,-2.10918 -5.70325,-5.16473 -7.46407,-10.58305 l -0.82818,-2.54845 v -20.44663 c 0,-22.77385 -0.0838,-21.73849 2.15427,-26.59893 1.36454,-2.9633 3.45419,-5.41203 5.76738,-6.75842 l 1.73599,-1.01042 28.45511,-0.21752 28.45512,-0.21751 -1.59479,-2.69473 c -0.87714,-1.4821 -2.81709,-4.72149 -4.311,-7.19865 -1.49392,-2.47716 -6.11149,-10.24847 -10.26126,-17.26956 -4.14977,-7.02109 -7.91374,-13.37422 -8.36438,-14.11805 l -0.81936,-1.35244 -1.89685,1.0047 c -7.87706,4.17221 -16.27707,7.35331 -23.77746,9.00459 -12.94681,2.85037 -33.34254,2.05214 -45.87382,-1.79535 -6.84458,-2.10148 -17.32418,-6.12438 -19.70417,-7.564 -0.36708,-0.22203 -2.43295,-1.37525 -4.59083,-2.56266 -16.98968,-9.34897 -36.22152,-26.83734 -47.86899,-43.52947 -4.06243,-5.82191 -5.70113,-9.07748 -5.69999,-11.32406 10e-4,-3.29041 5.07574,-13.20883 13.24502,-25.89039 13.30931,-20.66069 29.16314,-36.448086 46.99818,-46.801234 6.80875,-3.952441 11.07452,-5.866171 18.67709,-8.378989 13.60466,-4.496641 25.90714,-5.587975 39.53598,-3.507176 5.34966,0.816764 8.50928,1.594893 14.18467,3.493304 2.66799,0.89244 4.89882,1.415317 5.43243,1.273286 1.30382,-0.347047 4.37052,-2.517934 6.4958,-4.598318 2.418,-2.366935 6.33075,-7.305832 6.33075,-7.991049 0,-0.876292 -10.74465,-5.95383 -16.74384,-7.912543 -14.65751,-4.785615 -25.57978,-6.031482 -37.92797,-4.326318 -12.6945,1.752987 -29.30152,7.915484 -39.33932,14.597947 -11.69042,7.782667 -15.52184,10.942265 -25.04951,20.657167 -8.05147,8.209688 -12.7009,13.971453 -22.26606,27.593043 -3.11684,4.43864 -5.81335,8.14235 -5.99226,8.23048 -0.43229,0.21295 -0.0738,-1.45652 0.73495,-3.42299 4.90429,-11.92421 18.09793,-30.475487 30.39048,-42.731401 12.47625,-12.439057 28.14138,-22.890738 40.97187,-27.336179 5.57041,-1.930006 12.0756,-3.73574 16.34855,-4.538082 11.1926,-2.101665 24.67845,-1.594216 35.6344,1.340865 5.70493,1.528339 15.94063,5.406329 18.25898,6.917771 0.49799,0.32465 1.99189,1.171339 3.31982,1.881532 1.32793,0.710192 2.90723,1.598801 3.50957,1.974686 1.01126,0.631074 1.13,0.626349 1.55005,-0.06168 0.60241,-0.986736 1.64416,-4.089318 3.24461,-9.66332 0.72136,-2.512327 1.48516,-4.84648 1.69733,-5.187006 1.22076,-1.959178 1.30384,8.469385 0.12059,15.134431 -0.35536,2.001679 -0.60525,3.692147 -0.55531,3.756592 0.05,0.06445 1.51682,1.143821 3.25972,2.398613 1.74291,1.25479 4.64105,3.627165 6.44034,5.271946 1.79929,1.644781 3.42902,2.855461 3.62162,2.690399 2.8235,-2.419728 7.35219,-10.728199 10.45685,-19.18446 0.5518,-1.502928 1.15184,-2.662309 1.33343,-2.5764 0.545,0.257837 0.55285,3.711456 0.0164,7.226648 -0.92555,6.065068 -3.29622,13.796464 -5.52257,18.01059 -0.60782,1.150495 -1.10512,2.143717 -1.10512,2.207157 0,0.06343 1.2413,1.604563 2.75843,3.424714 1.51713,1.820149 3.73508,4.577321 4.92878,6.127048 l 2.17036,2.817683 2.61625,-2.16882 c 5.05009,-4.186418 8.56292,-8.703099 13.13794,-16.892283 1.1362,-2.033789 2.18744,-3.763018 2.33609,-3.842732 1.12379,-0.602655 0.21519,5.312338 -1.72631,11.238327 -2.04463,6.240755 -5.76198,12.896733 -10.03103,17.960688 l -1.01217,1.200637 1.39367,2.440206 c 1.31457,2.30171 1.9638,4.24653 1.59506,4.77806 -0.32434,0.46753 -1.29947,-0.3044 -3.07874,-2.43722 -0.99499,-1.19269 -1.99501,-2.17351 -2.22229,-2.17958 -0.22727,-0.006 -1.17794,0.65204 -2.11261,1.46247 -2.51463,2.18042 -4.50603,3.54647 -6.45276,4.42646 -0.95444,0.43144 -1.73535,0.91693 -1.73535,1.07887 0,0.16194 1.52786,0.81842 3.39526,1.45885 3.76767,1.29212 7.93911,1.70105 11.2421,1.10208 9.74032,-1.76634 17.02073,-6.48303 24.41127,-15.815071 1.62492,-2.051779 3.14626,-3.730508 3.38078,-3.730508 1.82622,0 -2.44932,10.713689 -6.68804,16.758939 -5.21184,7.43312 -11.94258,12.50295 -19.2932,14.53234 l -2.71621,0.7499 1.0563,0.65645 c 0.58097,0.36105 2.34651,1.12924 3.92342,1.70709 2.52161,0.92402 3.53993,1.05063 8.45044,1.05063 9.21343,0 13.07136,-1.72723 22.57943,-10.10899 2.38208,-2.0999 3.8212,-3.12615 4.00743,-2.85772 0.38357,0.5529 -2.28777,6.44963 -4.33616,9.57163 -5.51282,8.40228 -15.13963,14.68135 -23.93576,15.61207 -1.56308,0.16539 -2.84196,0.39027 -2.84196,0.49973 0,0.10946 0.73328,1.30618 1.62952,2.65936 4.44046,6.70445 5.44349,9.63244 4.30871,12.5777 -0.55979,1.4529 -11.65371,17.45213 -15.14317,21.83891 -5.21952,6.56173 -15.09021,17.0821 -20.5225,21.87326 -5.21643,4.60078 -15.73243,12.54652 -18.86259,14.25231 -0.58096,0.31659 -1.17088,0.7192 -1.31092,0.89467 -0.2315,0.29009 2.38325,4.98013 6.29065,11.28344 0.82995,1.33886 2.79921,4.66372 4.37611,7.38856 1.57692,2.72485 3.54618,6.06573 4.37613,7.42419 0.82996,1.35846 2.52239,4.21049 3.76096,6.33784 1.23858,2.12737 3.32701,5.67503 4.64098,7.88374 l 2.38904,4.01579 29.61347,0.11707 c 28.02591,0.11082 29.69654,0.16048 31.16307,0.9282 3.11561,1.63092 6.00103,5.7957 7.40068,10.68208 0.68334,2.38559 0.69717,2.75516 0.79434,21.22608 0.0609,11.57721 -0.0195,19.72116 -0.20925,21.20092 -0.74955,5.84471 -3.24393,10.59483 -6.92592,13.18924 l -2.30765,1.62603 -59.90757,0.10079 -59.90757,0.10063 z m 122.46522,-4.22906 c 2.08993,-1.50541 3.60119,-3.71379 4.81623,-7.03792 l 0.84052,-2.29955 0.0987,-18.27147 c 0.0696,-12.89619 -0.006,-18.97537 -0.25759,-20.66416 -0.76024,-5.10656 -3.08889,-9.17202 -6.22125,-10.86137 -1.62858,-0.87833 -2.05687,-0.88457 -60.59047,-0.88457 h -58.9503 l -2.14328,1.54559 c -2.33202,1.68169 -3.8194,3.82639 -4.92111,7.09589 -0.67722,2.00975 -0.67944,2.08731 -0.62796,21.9443 l 0.0517,19.92744 0.91977,2.77799 c 1.03606,3.12926 2.67214,5.43196 4.97991,7.00901 l 1.50901,1.03121 59.33122,0.005 59.33121,0.005 z M 631.50497,214.88635 c -6.68309,-5.06901 -13.76382,-14.10209 -18.32121,-23.37292 -2.43567,-4.95472 -5.62407,-13.96469 -6.8498,-19.35655 -1.81392,-7.97927 -2.96908,-19.79205 -2.63761,-26.97218 0.851,-18.4332 5.70207,-34.55711 14.36469,-47.745084 1.3752,-2.093606 2.37646,-3.806557 2.22501,-3.806557 -0.41737,0 -5.9816,2.768475 -8.54259,4.250352 -10.06009,5.821119 -19.82354,13.808929 -29.12383,23.827209 -6.16884,6.64506 -10.28681,11.86045 -16.00629,20.2719 -4.56013,6.70642 -10.09953,16.09116 -10.09953,17.11038 0,0.81403 6.97192,10.33645 10.71395,14.63341 11.99273,13.77117 24.04302,23.90511 37.42337,31.47196 7.90081,4.46807 12.8834,6.71476 20.67339,9.32181 5.7232,1.91536 6.33162,2.0858 7.69593,2.15592 0.74009,0.038 0.46336,-0.28874 -1.51548,-1.78965 z m 51.76542,0.0222 c 3.45101,-1.23634 11.90717,-5.17349 12.28675,-5.72066 0.20255,-0.29196 -1.30394,-3.01931 -2.8886,-5.22949 l -1.21611,-1.69615 -2.95927,3.61986 c -3.1396,3.84049 -5.85005,6.53838 -9.29709,9.25412 -2.01911,1.59074 -2.05918,1.65245 -0.90541,1.39414 0.66397,-0.14864 2.90485,-0.87846 4.97973,-1.62182 z m -18.64454,-1.38943 c 5.28469,-1.42869 10.56048,-4.59442 15.47562,-9.2861 2.82343,-2.69507 6.66312,-7.19274 7.19238,-8.42489 0.24505,-0.5705 -0.17387,-1.50036 -2.12374,-4.7139 -2.89073,-4.76414 -3.35701,-5.86823 -2.91126,-6.89345 0.69204,-1.59174 1.48307,-1.10066 3.51107,2.17972 1.08051,1.74778 2.38841,3.86296 2.90643,4.7004 l 0.94187,1.52262 0.91484,-1.52262 c 4.34585,-7.23305 8.07367,-18.68896 9.67616,-29.73561 0.88478,-6.09921 0.88788,-16.6668 0.007,-23.77369 -1.12928,-9.11067 -3.76471,-18.79281 -7.04163,-25.86977 -1.8519,-3.99947 -6.14826,-10.64859 -9.01285,-13.948475 -2.73747,-3.153466 -8.34284,-7.749872 -10.7804,-8.839946 -7.18306,-3.21225 -28.11252,-3.47723 -35.01131,-0.443267 -7.41448,3.260759 -15.74176,12.629098 -20.92838,23.544818 -3.37872,7.11082 -5.96701,16.44142 -7.08937,25.55664 -0.69931,5.6795 -0.69194,16.61039 0.0151,22.4043 2.55939,20.97313 11.59886,38.26845 24.99726,47.82759 4.81665,3.43645 8.16154,5.03567 12.7459,6.09391 3.57409,0.82504 12.85017,0.61258 16.51533,-0.37828 z m -14.25181,-27.40854 c -8.69222,-2.77968 -15.56985,-10.64748 -19.01296,-21.75027 -2.28867,-7.38016 -2.90562,-17.11477 -1.55248,-24.49619 2.18851,-11.93842 7.85025,-21.35278 15.48798,-25.75345 2.58008,-1.48657 7.77355,-3.0762 10.05026,-3.0762 3.43345,0 9.44661,2.17717 11.5817,4.19336 l 0.70991,0.67039 -1.46442,0.99091 c -5.87734,3.9769 -7.24637,15.18849 -2.70107,22.1203 0.59699,0.91044 1.86641,2.17651 2.82094,2.81348 2.321,1.54883 5.54856,1.59316 7.71385,0.10589 1.77716,-1.22064 3.83831,-4.12037 4.68761,-6.59475 l 0.63379,-1.84649 0.6442,2.09926 c 2.05877,6.7088 2.29485,16.94163 0.56772,24.60656 -3.07583,13.65042 -10.20201,22.95871 -19.82744,25.89888 -2.44624,0.74722 -8.02928,0.75709 -10.33959,0.0183 z m 51.80762,19.30097 c 6.74533,-4.15467 15.90885,-11.52274 22.43551,-18.03965 7.79945,-7.78776 16.8218,-18.93396 22.34209,-27.60134 3.82556,-6.00649 3.70091,-5.14919 1.31684,-9.05712 -3.44622,-5.64902 -11.53711,-17.04542 -15.40158,-21.69391 -12.42591,-14.9468 -25.5174,-26.423 -37.53208,-32.901198 -5.04145,-2.718301 -4.99546,-2.758599 -2.14993,1.883697 4.35995,7.112961 7.48965,14.278851 9.82222,22.489341 4.42653,15.58115 4.99658,34.46602 1.53428,50.82819 -1.854,8.76171 -5.88943,19.4087 -9.53635,25.16058 l -1.5359,2.42241 0.55559,1.04324 c 0.60785,1.14138 4.44914,7.63551 4.5277,7.6546 0.0268,0.007 1.65649,-0.97848 3.62161,-2.18884 z M 728.76995,96.469332 c 1.20508,-0.384428 2.95571,-1.034521 3.89028,-1.44465 l 1.69922,-0.745692 -3.89028,-4.177572 c -5.89226,-6.327397 -5.17323,-5.954654 -6.9276,-3.591269 -1.89548,2.553473 -4.32445,5.223266 -6.57423,7.22601 l -1.76471,1.57094 0.92495,0.689464 c 0.50872,0.379204 1.43865,0.876335 2.06651,1.104732 1.60234,0.582887 7.95818,0.203092 10.57586,-0.631963 z m -22.26086,-9.819974 c 1.93652,-0.623159 7.45893,-3.960574 10.21678,-6.174411 l 1.91724,-1.539046 -1.91724,-1.637906 c -3.05093,-2.60642 -9.34798,-7.175563 -9.59089,-6.959158 -0.12192,0.108618 -0.84732,1.723641 -1.61201,3.588947 -0.83867,2.04579 -2.35567,4.772381 -3.82324,6.871744 -1.3381,1.914155 -2.43312,3.605849 -2.4334,3.759321 -4.5e-4,0.268199 1.39137,1.180378 3.62114,2.373255 0.58098,0.310802 1.26003,0.494514 1.50901,0.408248 0.24899,-0.08627 1.19967,-0.397212 2.11261,-0.690994 z M 74.339259,247.96171 c -0.419214,-0.97687 -0.488798,-8.59031 -0.109686,-12.00148 1.386895,-12.47907 7.09156,-26.61256 13.714278,-33.97754 3.3832,-3.76239 9.247081,-7.86825 12.213839,-8.55209 1.01901,-0.23489 1.23963,-0.16146 1.23963,0.41239 0,0.38396 -0.37347,1.03608 -0.82995,1.44914 -7.025204,6.35709 -9.797301,9.29171 -12.486871,13.21892 -4.360828,6.36757 -8.267877,15.47882 -10.188388,23.75938 -0.759329,3.27395 -2.751506,14.50331 -2.751506,15.50948 0,0.85318 -0.467692,0.95929 -0.801343,0.1818 z"
       id="path1" /></g></svg>
