<?xml version="1.0" encoding="UTF-8" standalone="no"?>
<!-- Created with Inkscape (http://www.inkscape.org/) -->

<svg
   preserveAspectRatio="none"
   width="800.00037mm"
   height="599.99951mm"
   viewBox="0 0 800.00037 599.99951"
   version="1.1"
   id="svg1"
   xml:space="preserve"
   xmlns="http://www.w3.org/2000/svg"
   xmlns:svg="http://www.w3.org/2000/svg"><defs
     id="defs1" /><g
     id="layer1"><path
       style="fill:#000000;stroke-width:1.8897"
       d="m 347.26263,598.96102 c -1.91187,-0.85099 -2.57524,-0.94772 -3.99808,-0.58298 -4.42814,1.13512 -19.67163,-3.40772 -22.26427,-6.63517 -1.27617,-1.58865 -1.33347,-4.88888 -0.11507,-6.62162 0.50016,-0.71124 3.72489,-3.87995 7.16606,-7.04158 6.58901,-6.05378 9.70947,-9.38463 13.41876,-14.32344 2.24373,-2.98746 2.25446,-3.02491 2.3374,-8.14626 0.0459,-2.82976 0.26317,-7.46026 0.48301,-10.29002 0.55179,-7.10209 -0.91507,-13.53674 -10.1647,-44.5901 -5.15215,-17.29704 -5.88216,-20.74967 -6.26291,-29.62048 -0.37685,-8.77988 0.16505,-13.65458 2.83166,-25.47401 1.7715,-7.85185 1.78984,-8.09627 1.81792,-24.22443 l 0.0284,-16.29252 -3.55739,-10.71878 c -4.3502,-13.10763 -4.9899,-15.42909 -6.49775,-23.5813 -4.58121,-24.76774 -6.47534,-46.21963 -5.03509,-57.02386 3.33041,-24.98326 6.48476,-38.74264 11.45091,-49.94948 1.03389,-2.33314 1.30568,-4.35752 1.66937,-12.43378 0.36103,-8.01729 0.76656,-11.06411 2.40079,-18.03653 l 1.96637,-8.38962 -0.70754,-6.83102 c -0.67579,-6.52418 -3.87618,-22.52199 -4.73503,-23.66896 -0.3708,-0.4952 -1.19927,1.52937 -4.69701,11.47854 -0.62176,1.76861 -1.66461,7.26733 -2.31745,12.21941 -0.92034,6.98135 -1.70008,10.49649 -3.47142,15.64941 -4.2108,12.24946 -6.99694,17.54756 -18.61194,35.3925 -3.84455,5.90663 -9.03567,14.49237 -11.53584,19.07942 l -4.54576,8.34008 0.14125,7.07438 c 0.15184,7.59914 -0.38848,10.46248 -3.0514,16.17065 -1.48212,3.17707 -2.22047,6.90332 -3.29493,16.62879 -0.75399,6.8247 -1.32203,8.49134 -3.28003,9.62391 -2.0245,1.17103 -4.01904,1.11155 -5.76437,-0.1719 -1.26276,-0.92857 -1.43733,-1.44563 -1.48365,-4.39468 l -0.0524,-3.34232 -1.40707,5.0577 c -2.09536,7.53173 -4.229,9.95971 -8.48575,9.65645 -1.39875,-0.0997 -2.26061,-0.5123 -3.18541,-1.52511 l -1.26785,-1.38849 -1.01012,1.17412 c -3.1233,3.63036 -8.70479,3.54725 -9.96618,-0.14844 -0.37761,-1.10638 0.0176,-5.98873 0.69112,-8.53876 0.25118,-0.95092 -0.0304,-0.72281 -1.08048,0.87503 -1.65721,2.52194 -4.55964,4.48436 -6.6324,4.48436 -0.8338,0 -2.18725,-0.53643 -3.16207,-1.25326 -1.42057,-1.04463 -1.70432,-1.60351 -1.70432,-3.35693 0,-2.46403 2.70192,-9.90124 7.20222,-19.82461 1.76359,-3.88871 3.12464,-7.13056 3.02461,-7.20413 -0.1,-0.0736 -0.74229,0.53305 -1.42724,1.34801 -4.27741,5.08939 -13.03534,7.38021 -16.35405,4.27773 -1.6994,-1.5887 -1.49437,-2.50479 1.0698,-4.77995 1.24362,-1.10347 3.09839,-3.31593 4.12169,-4.91659 4.51239,-7.05836 14.3051,-15.87872 21.1946,-19.09013 1.98881,-0.92704 4.11317,-2.09395 4.72081,-2.5931 2.13114,-1.75067 10.32146,-27.25796 11.72117,-36.50349 2.79975,-18.49326 5.91631,-27.89326 13.88655,-41.88383 4.89727,-8.59639 5.92035,-12.34108 7.41629,-27.14505 0.34553,-3.41928 0.73649,-6.45806 0.86883,-6.75283 0.19128,-0.4262 -10.97494,-0.53594 -54.53516,-0.53594 h -54.77571 l -0.15888,7.82471 -0.15888,7.8247 -89.068303,0.10857 L 0,193.53258 0.1524942,176.27398 0.30476804,159.0154 H 89.220636 178.13655 l 0.15865,8.04125 0.15867,8.04127 54.9401,-0.10938 54.94006,-0.10939 0.76627,-3.00125 c 0.51676,-2.02407 0.81419,-7.81745 0.91348,-17.79316 0.15801,-15.87042 0.46956,-17.90184 3.88039,-25.29956 4.32092,-9.37155 9.40722,-14.83084 17.66006,-18.95514 5.00771,-2.50257 8.98716,-3.65646 18.19983,-5.27728 11.33138,-1.99355 16.46329,-3.45466 26.65863,-7.589981 14.49746,-5.880301 15.61085,-6.98182 16.04426,-15.873273 l 0.2665,-5.466967 -2.14142,-3.665532 c -1.1778,-2.01605 -2.58565,-5.102879 -3.1286,-6.85962 -0.54296,-1.756742 -1.2886,-3.194088 -1.65702,-3.194088 -1.0576,0 -4.10169,-2.780687 -5.39169,-4.925193 -1.75539,-2.918088 -3.55206,-7.944722 -3.9446,-11.035942 -0.3926,-3.091641 0.52328,-4.962415 3.01794,-6.164387 l 1.44465,-0.696076 -0.35281,-6.703924 c -0.4354,-8.273209 0.33179,-11.404422 4.20919,-17.179376 5.8517,-8.7154697 16.30111,-13.8435626 30.54558,-14.99040571 17.13379,-1.37946239 32.81229,4.18716361 39.95831,14.18713571 1.13527,1.588682 2.54952,4.293969 3.14275,6.011738 l 1.07858,3.123224 65.95153,0.05218 65.95154,0.05218 v -7.647445 c 0,-6.8597499 0.10507,-7.6846693 1.02034,-8.0088617 1.10997,-0.3931598 176.04432,-0.3758207 176.57919,0.017501 0.35265,0.2593247 0.37149,33.7968857 0.0199,34.0559997 -0.11706,0.08605 -39.88693,0.185949 -88.3775,0.22194 -76.01612,0.05639 -88.23765,-0.01928 -88.69401,-0.549649 -0.2911,-0.338307 -0.53329,-3.991507 -0.53818,-8.118243 l -0.009,-7.503144 -61.3666,0.09415 c -33.75163,0.05169 -63.36147,0.09998 -65.79964,0.107113 l -4.43304,0.01296 -0.32457,6.324069 c -0.28324,5.518498 -0.20539,6.373704 0.61102,6.713696 3.60111,1.499637 4.7385,4.128162 3.70535,8.563226 -1.47569,6.334796 -4.97569,12.09763 -8.1648,13.443548 -1.32084,0.557444 -1.81387,1.300918 -2.88702,4.35357 -0.71178,2.02472 -2.10122,4.937671 -3.08763,6.473218 -2.03198,3.163185 -2.35158,5.385489 -1.64398,11.431257 0.80306,6.861484 2.22669,8.006982 17.15938,13.807102 10.07873,3.91475 14.64317,5.20158 24.77984,6.98608 13.05076,2.29751 19.92411,4.94733 26.2295,10.112 3.63866,2.98041 8.66466,10.28968 10.73763,15.6157 3.4001,8.73571 3.49806,9.41675 3.56661,24.80179 0.0557,12.51003 0.22665,15.1061 1.32445,20.12158 0.69324,3.16714 1.53664,8.66587 1.87423,12.21939 1.20812,12.71685 2.14604,15.71865 8.61451,27.57031 l 4.50096,8.24681 47.37324,0.006 c 44.70734,0.006 47.37694,-0.0356 47.43886,-0.74367 0.0361,-0.41267 0.10507,-3.74085 0.15337,-7.39594 0.0483,-3.6551 0.2966,-6.88682 0.55187,-7.18158 0.5946,-0.68656 176.77254,-0.79734 177.34895,-0.11149 0.45258,0.53847 0.433,33.36477 -0.0199,33.904 -0.20604,0.24516 -34.54076,0.40039 -88.56357,0.40039 -69.87181,0 -88.35234,-0.11149 -88.82924,-0.53594 -0.35676,-0.31753 -0.60275,-3.2441 -0.60364,-7.18158 -8.1e-4,-3.65509 -0.0244,-7.07974 -0.0523,-7.61032 l -0.0509,-0.9647 h -46.64441 c -39.4713,0 -46.64443,0.0919 -46.64443,0.59701 0,0.32835 0.77329,2.98124 1.71842,5.89533 0.94516,2.91407 2.40723,9.0606 3.24907,13.65896 2.76892,15.12445 4.34889,21.39261 8.19655,32.5179 2.7941,8.079 4.14042,11.2588 5.08438,12.00848 0.70616,0.56083 3.12055,1.94324 5.36532,3.07201 7.82054,3.93259 15.15687,10.64714 20.74484,18.98663 1.29567,1.93367 3.17089,4.13691 4.16714,4.89614 2.37012,1.80618 2.4534,3.70862 0.22405,5.11873 -3.58852,2.26983 -11.21919,0.13725 -15.04529,-4.20478 -1.00761,-1.14349 -1.93161,-2.00584 -2.05329,-1.91634 -0.1216,0.0894 1.74125,4.52756 4.13988,9.86237 6.76935,15.05576 7.48461,18.6281 4.15176,20.73621 -3.32553,2.10348 -6.52975,0.86806 -9.72847,-3.7509 l -1.0392,-1.50064 0.41257,2.57251 c 0.75421,4.70288 0.54387,6.90838 -0.78413,8.22201 -2.30564,2.28068 -6.55455,1.67763 -9.00538,-1.2781 -0.62485,-0.75358 -1.13708,-1.1202 -1.13827,-0.81472 -0.001,0.30549 -0.6462,1.029 -1.4333,1.60782 -3.00646,2.21079 -7.59862,0.65426 -9.32124,-3.15946 -0.50746,-1.12353 -1.39662,-3.96367 -1.97588,-6.31142 l -1.0532,-4.26864 -0.36322,3.43 c -0.31692,2.99292 -0.55747,3.55294 -1.88761,4.3947 -1.9711,1.24738 -3.2932,1.21774 -5.45899,-0.12235 -2.08893,-1.29254 -2.76532,-3.36827 -3.27838,-10.06046 -0.56332,-7.34787 -1.50107,-11.97517 -3.2965,-16.26621 -2.29565,-5.48657 -2.81947,-8.41905 -3.02993,-16.96199 l -0.17961,-7.28875 -4.11526,-7.28877 c -4.70509,-8.3334 -5.67797,-9.90746 -12.85849,-20.80419 -6.92263,-10.5054 -8.5125,-13.21592 -11.87644,-20.24796 -2.44673,-5.11471 -5.66125,-13.60718 -7.34381,-19.40173 l -0.49799,-1.715 -6.53853,-0.12121 -6.53852,-0.12121 v 1.27177 c 0,0.69946 0.66049,3.90152 1.46779,7.11568 2.03515,8.10297 2.78061,13.90574 2.36861,18.43757 -0.4173,4.59025 -0.1807,5.66074 3.65019,16.50691 3.27642,9.27661 5.29809,17.24852 7.06751,27.86881 3.96549,23.8014 3.96643,32.29083 0.007,58.85926 -2.26948,15.22672 -4.46967,24.99163 -8.15093,36.17567 -4.77224,14.49855 -4.52796,12.81012 -4.36362,30.16032 l 0.1483,15.64941 2.18864,10.29002 c 1.96714,9.24849 2.19542,11.17966 2.25542,19.07942 0.0368,4.83417 -0.1547,10.23643 -0.42535,12.00502 l -0.49208,3.21564 59.38066,-0.0423 59.38069,-0.0423 0.29154,-7.88961 0.29152,-7.88961 88.91593,-0.1102 c 83.0779,-0.10306 88.96378,-0.0624 89.64473,0.61789 0.5522,0.55166 0.72882,4.58515 0.72882,16.6424 0,12.05723 -0.17673,16.09073 -0.72882,16.64238 -0.68095,0.68033 -6.56683,0.72091 -89.64473,0.61789 l -88.91593,-0.11019 -0.15867,-8.04109 -0.15866,-8.0411 -59.88798,0.10922 -59.88795,0.10922 -0.99691,3.89929 c -0.54829,2.14462 -2.96263,10.44094 -5.36519,18.43628 -4.5056,14.99391 -6.63272,23.25662 -8.25106,32.05089 -0.85449,4.64347 -0.8556,5.45421 -0.0133,9.43253 0.50716,2.39382 0.85331,6.18531 0.76924,8.42554 l -0.15294,4.07313 3.31018,4.2875 c 3.52275,4.56284 7.8239,8.91038 13.73877,13.88694 4.9771,4.18759 6.7738,6.87215 6.41862,9.59043 -0.15074,1.15346 -0.79122,2.61339 -1.42331,3.24431 -1.77754,1.77419 -6.76495,3.76579 -13.16497,5.2571 -5.0078,1.1669 -6.11718,1.29293 -7.87976,0.89513 -1.80303,-0.40692 -2.36135,-0.32939 -4.61159,0.64035 -2.11131,0.90986 -3.09789,1.07052 -5.62659,0.91633 -4.09359,-0.24964 -7.46661,-1.99395 -11.60878,-6.00333 -3.15037,-3.04938 -3.6001,-3.82599 -5.98893,-10.34197 -0.74137,-2.02226 -1.50177,-2.91551 -4.01476,-4.71627 -1.70507,-1.22182 -3.58178,-2.89678 -4.1705,-3.72212 -1.41658,-1.98607 -1.41162,-7.01014 0.0107,-10.61475 1.06317,-2.69478 1.0604,-3.50385 -0.0372,-10.87903 -0.28525,-1.91657 0.0449,-3.64041 1.60203,-8.36065 1.78577,-5.41383 1.95221,-6.47148 1.85893,-11.81182 -0.2056,-11.7696 -2.2034,-25.31166 -6.02918,-40.86829 -0.92788,-3.77302 -1.99812,-8.76723 -2.37829,-11.09825 -0.83959,-5.14778 -0.3908,-15.20441 0.92059,-20.62932 2.59063,-10.71697 2.73788,-11.65926 2.44543,-15.64941 -0.16418,-2.24022 -0.70279,-5.23076 -1.1969,-6.64563 -4.89747,-14.02392 -6.01379,-20.56813 -7.64276,-44.80447 -0.91128,-13.55831 -1.95986,-20.6231 -4.92091,-33.15422 -2.28574,-9.67312 -4.00487,-19.35172 -4.64658,-26.15973 -0.47157,-5.00311 -1.14523,-6.91806 -2.16888,-6.16531 -0.20692,0.15232 -0.72964,3.32286 -1.16127,7.04581 -1.0636,9.17338 -2.23201,15.67587 -4.91425,27.34901 -2.78219,12.10817 -3.89869,19.36689 -4.35255,28.29756 -0.91824,18.06879 -2.93815,32.94852 -5.55833,40.94571 -4.12833,12.60042 -4.30661,14.72616 -2.05285,24.47838 3.672,15.88904 3.47511,20.33253 -1.91722,43.26425 -1.88528,8.01752 -3.86935,21.84282 -4.49168,31.29881 -0.40785,6.19698 -0.0972,8.18882 2.46199,15.78776 1.15373,3.42567 1.40356,4.97595 1.10553,6.86001 -1.03626,6.55134 -1.03754,8.15782 -0.009,11.07537 1.368,3.87976 1.38555,8.49027 0.0395,10.36351 -0.56358,0.78428 -2.55047,2.52071 -4.41533,3.85876 -3.32303,2.3843 -3.41632,2.51634 -4.67631,6.61899 -0.97261,3.16695 -1.83169,4.78498 -3.52848,6.64564 -6.42943,7.05043 -13.00934,9.41587 -18.89928,6.7942 z m 7.90576,-2.15326 c 2.33125,-0.71783 8.35294,-5.58963 9.58149,-7.75182 0.47571,-0.8372 1.4187,-3.29088 2.09556,-5.45261 l 1.23064,-3.93043 4.10853,-2.88086 c 4.0554,-2.8436 4.11174,-2.91354 4.35714,-5.40831 0.17012,-1.73004 -0.16306,-3.71426 -1.0562,-6.2892 -1.01096,-2.91455 -1.2166,-4.35789 -0.91313,-6.40878 1.12735,-7.61869 1.10489,-8.03763 -0.71613,-13.3658 -0.96715,-2.82976 -1.8713,-6.68851 -2.00922,-8.57502 -0.53287,-7.28772 1.83019,-25.77602 5.17866,-40.51695 4.37555,-19.26262 4.60384,-26.06993 1.31575,-39.23072 -0.9079,-3.63387 -1.28199,-6.78208 -1.27368,-10.71876 0.0107,-5.12941 0.20758,-6.13777 2.46857,-12.64816 1.37719,-3.96559 2.93487,-9.90057 3.5447,-13.50566 1.06485,-6.29506 2.52498,-21.89977 3.1715,-33.89457 0.17872,-3.31418 0.70896,-8.16767 1.17852,-10.78551 0.80798,-4.50479 1.18133,-6.261 2.62414,-12.34378 2.9724,-12.53138 4.33851,-20.21929 5.23858,-29.48088 0.31485,-3.2398 0.8601,-6.28578 1.21168,-6.76882 0.87722,-1.20533 3.12387,-1.7741 4.96944,-1.25811 2.32084,0.64886 3.19751,2.87225 3.77915,9.58468 0.60049,6.93022 1.63428,12.83049 4.06615,23.20686 3.7274,15.90436 4.47635,20.6507 5.25738,33.31752 0.8042,13.04344 2.17602,26.30643 3.22806,31.2095 0.48067,2.24022 1.96339,7.35308 3.29491,11.36189 2.15795,6.49692 2.42034,7.84772 2.41527,12.43378 -0.004,3.38001 -0.43753,6.91002 -1.26457,10.29002 -3.33623,13.63488 -3.23246,22.94777 0.39893,35.8007 3.12663,11.06633 6.03894,30.65558 6.0874,40.94572 0.028,5.92744 -0.11506,6.82409 -1.82345,11.44603 -2.02223,5.47066 -2.20914,7.37949 -1.16227,11.86876 0.5355,2.29634 0.53343,3.53098 -0.009,5.47453 -2.75622,9.87296 -2.59596,10.71912 2.76888,14.62014 3.94782,2.87064 3.99306,2.92997 5.24335,6.87596 1.66053,5.24079 1.77181,5.42316 5.28932,8.66781 5.07193,4.67854 9.60093,5.83204 13.63717,3.47331 2.0843,-1.21801 2.18087,-1.23101 4.81587,-0.64787 2.30978,0.51118 2.94604,0.50862 4.51259,-0.0181 1.00304,-0.33726 2.99776,-0.8366 4.43274,-1.1096 3.66259,-0.6968 9.1844,-2.82156 9.90468,-3.81126 1.83452,-2.52065 0.3068,-5.01294 -6.88171,-11.22685 -5.29113,-4.57373 -9.6173,-9.18604 -13.81551,-14.72924 -2.24984,-2.97062 -2.26346,-3.01735 -2.37418,-8.14627 -0.0612,-2.83718 -0.29782,-7.57023 -0.52574,-10.5179 -0.56754,-7.33924 0.94006,-14.31068 8.76183,-40.51695 3.74688,-12.55364 5.52839,-18.98233 5.52839,-19.94935 0,-0.78215 -0.58176,-0.83236 -10.92476,-0.94279 -10.16071,-0.10841 -10.93947,-0.17304 -11.1354,-0.92278 -0.11587,-0.44336 0.14302,-0.97606 0.57552,-1.18374 0.4324,-0.2077 4.19707,-0.36568 8.36591,-0.35106 4.16884,0.0146 9.05457,0.0167 10.85717,0.005 l 3.27745,-0.0219 0.36694,-2.03658 c 1.86869,-10.37124 1.56076,-17.25376 -1.40518,-31.40599 -0.96371,-4.59836 -1.90384,-9.09775 -2.08921,-9.99867 -0.18532,-0.90092 -0.34778,-8.90786 -0.36091,-17.79317 l -0.0239,-16.15514 2.67706,-7.93189 c 4.19864,-12.44016 5.19261,-16.088 7.94423,-29.15504 0.80368,-3.81661 3.3626,-21.23039 4.15826,-28.29756 1.15824,-10.2875 0.94925,-23.19113 -0.52771,-32.58508 -3.06928,-19.52126 -6.48158,-33.20162 -10.69437,-42.87508 -0.98993,-2.27309 -1.30221,-4.52588 -1.69385,-12.2194 -0.38839,-7.63023 -0.85,-10.98904 -2.41582,-17.57879 l -1.93567,-8.14626 -30.6816,-0.111 c -27.95226,-0.10112 -30.71465,-0.17422 -31.0527,-0.82202 -0.91347,-1.75047 -0.54012,-1.77021 34.38735,-1.81709 l 27.43199,-0.0368 0.66837,-5.94117 c 0.69549,-6.18263 4.08617,-21.65541 5.88565,-26.85827 0.84416,-2.44069 1.27059,-3.02627 2.2831,-3.13515 1.00725,-0.10825 1.35838,0.1783 1.83825,1.50063 0.32626,0.89899 1.5539,4.23918 2.72811,7.42265 3.98006,10.7906 4.74442,13.49563 5.45195,19.29379 0.38849,3.18349 0.82312,6.22226 0.96587,6.75283 l 0.25954,0.96469 h 20.39584 c 11.21769,0 20.39582,-0.0778 20.39582,-0.17305 0,-0.0951 -1.69494,-3.24912 -3.76654,-7.00874 -6.02396,-10.93254 -7.9617,-16.83563 -8.7611,-26.68953 -0.20097,-2.47604 -1.05407,-8.36063 -1.89597,-13.0769 -1.38964,-7.78462 -1.51891,-9.72109 -1.40236,-21.00878 0.13861,-13.42209 -0.22015,-16.12976 -3.1239,-23.58706 -0.82519,-2.11916 -2.94975,-6.04203 -4.72124,-8.71751 -6.07529,-9.17546 -12.86178,-12.75243 -30.25895,-15.94866 -12.018,-2.20796 -13.76196,-2.70516 -25.8115,-7.358694 -16.87304,-6.516387 -18.62487,-8.317562 -18.88751,-19.41949 -0.12866,-5.436696 -0.0875,-5.642286 1.67057,-8.360634 1.73808,-2.687381 3.63718,-6.95539 4.66315,-10.479811 0.40421,-1.388602 0.80348,-1.749741 2.23624,-2.022743 2.15336,-0.410321 3.32211,-1.812016 5.58293,-6.695709 2.28926,-4.94506 2.82426,-8.792053 1.38532,-9.961259 -0.5774,-0.469176 -1.78081,-0.853034 -2.67421,-0.853034 -0.89341,0 -1.78854,-0.1953 -1.98915,-0.434012 -0.20053,-0.238697 -0.0915,-1.830425 0.24271,-3.537191 0.33411,-1.70675 0.67952,-4.936099 0.76763,-7.176326 l 0.16021,-4.07313 -15.15945,-0.23262 c -8.33769,-0.127855 -15.22502,-0.272629 -15.3052,-0.321551 -0.0803,-0.04894 -0.14566,-0.571299 -0.14566,-1.160844 0,-0.874814 0.29478,-1.078443 1.60341,-1.107611 0.88187,-0.01961 7.63803,-0.0679 15.01368,-0.107114 l 13.41026,-0.07146 -0.18797,-1.181408 C 435.37234,20.5452 432.74878,16.07844 430.53685,13.627956 426.14045,8.7572205 418.69789,4.9558273 410.43378,3.3598694 405.39965,2.3876811 395.10252,2.3654806 390.15702,3.3161165 377.26359,5.7946504 367.42945,13.283177 364.7211,22.685144 c -1.03353,3.587879 -1.10815,8.067215 -0.23296,13.983134 0.58147,3.930237 0.54859,4.43581 -0.3186,4.902102 -0.53181,0.285965 -1.45703,0.425682 -2.05603,0.310499 -2.87021,-0.55195 -3.01529,4.488264 -0.30106,10.460155 2.14488,4.719247 3.97972,6.900456 5.94635,7.068856 1.3285,0.113757 1.65966,0.410985 2.0619,1.850534 1.22027,4.36715 2.51786,7.547836 4.31371,10.573848 1.84003,3.10044 1.94959,3.563167 1.94959,8.232357 0,5.943014 -0.68303,8.548934 -2.92083,11.143753 -2.19907,2.549899 -5.09884,4.049601 -16.51715,8.542419 -10.81616,4.255869 -13.03372,4.882749 -25.45726,7.196529 -12.01554,2.2378 -17.47746,4.20507 -23.01081,8.28806 -6.31302,4.65828 -11.00092,12.07324 -13.80212,21.83116 -1.12807,3.92959 -1.26352,5.83224 -1.34869,18.94581 -0.052,8.01764 -0.31312,15.59044 -0.5801,16.82847 l -0.4854,2.25094 h 7.61233 c 7.92443,0 8.74695,0.19695 7.61023,1.82219 -0.45875,0.65589 -1.47174,0.75031 -8.04958,0.75031 -4.13863,0 -7.6529,0.15249 -7.80947,0.3387 -0.15647,0.18629 -0.7078,4.18976 -1.22496,8.89659 -1.63627,14.89201 -2.48215,17.45499 -10.489,31.78093 -4.84945,8.6767 -7.06463,15.72199 -9.95351,31.65707 -2.18415,12.0476 -3.46069,16.80519 -8.45551,31.51318 -2.08378,6.13598 -3.40199,9.19234 -4.36656,10.12416 -0.75991,0.73413 -3.36865,2.24545 -5.79714,3.35849 -7.05691,3.23436 -13.78325,9.31313 -19.71411,17.81616 -1.56253,2.24023 -3.67096,4.7086 -4.68536,5.48528 -1.54588,1.18361 -1.70391,1.48038 -0.97651,1.83382 1.16347,0.56534 3.78966,0.16913 6.22987,-0.93987 1.09858,-0.49929 3.46233,-2.44509 5.25277,-4.32403 3.30687,-3.47031 5.13488,-4.53545 6.91955,-4.03186 1.71192,0.48308 0.6524,4.4812 -3.81887,14.41044 -6.16842,13.69804 -7.35362,17.55495 -5.90944,19.23087 0.73922,0.85786 2.63176,-0.0279 3.72723,-1.74445 0.49428,-0.77455 2.49342,-4.39879 4.44252,-8.05391 4.64756,-8.71547 6.39355,-10.76999 7.44323,-8.75847 0.37104,0.71098 -0.0469,2.78115 -2.46142,12.18849 -2.69321,10.49369 -2.7933,12.86252 -0.54357,12.86252 1.50339,0 2.7125,-2.03144 5.5536,-9.33075 1.53627,-3.94687 3.34571,-8.04438 4.02095,-9.10553 l 1.22779,-1.92939 -0.30753,4.07313 c -1.11318,14.74463 -1.11426,14.96751 -0.0743,15.26101 2.53542,0.71544 3.74146,-1.53799 6.75007,-12.61198 1.84719,-6.79905 2.95002,-9.08029 4.38971,-9.08029 1.6817,0 2.21648,1.89579 2.50451,8.87807 0.22947,5.56309 0.45255,6.98572 1.09548,6.98572 1.35767,0 1.86301,-1.79603 2.80028,-9.95259 1.17396,-10.21643 1.2268,-10.45479 3.55043,-16.01777 2.58512,-6.18905 3.19515,-9.59103 2.7688,-15.44111 -0.40737,-5.5897 -0.11346,-6.68572 3.89986,-14.54052 3.56488,-6.97722 6.22399,-11.382 15.02455,-24.88803 7.97028,-12.23179 10.29165,-16.55407 13.89695,-25.87557 3.31762,-8.57768 4.12752,-11.79926 5.50801,-21.90967 1.01079,-7.40287 1.56036,-9.5149 4.79721,-18.4363 3.24537,-8.94483 3.79518,-10.09041 4.89907,-10.20723 1.61664,-0.17109 1.94954,0.61836 4.48518,10.63599 2.43253,9.61018 3.67537,16.58839 4.12358,23.15255 0.35056,5.1341 0.23749,5.94347 -2.30591,16.50691 -1.28037,5.31774 -1.54775,7.71266 -1.54426,13.83206 0.004,7.90397 0.16704,7.15871 -4.2279,19.39612 -2.5915,7.21593 -4.61008,15.27713 -6.1197,24.4388 -0.64113,3.89093 -1.63603,9.77552 -2.21085,13.07692 -1.33642,7.67517 -1.31356,23.82892 0.0489,34.51443 3.19083,25.02613 6.119,38.30639 12.33687,55.952 l 2.11515,6.0025 -0.003,16.50691 c -0.003,13.37392 -0.18335,17.2393 -0.95219,20.36567 -0.52193,2.12232 -1.57222,7.04223 -2.33394,10.93316 -3.4742,17.74657 -2.89222,22.34738 6.9963,55.30886 2.36994,7.89972 5.14921,17.93249 6.17619,22.29504 1.95999,8.32604 2.0821,10.25468 1.58799,25.08192 -0.21376,6.41256 -0.22015,6.43875 -2.21073,9.00377 -4.03418,5.19837 -8.43746,9.92601 -14.11281,15.15235 -3.19809,2.94504 -6.32781,6.09426 -6.95497,6.99826 -1.16568,1.68023 -1.06549,3.36017 0.2747,4.60594 0.73502,0.68326 9.52333,3.89914 10.65548,3.89914 0.40692,0 1.658,0.32196 2.78012,0.71544 1.99169,0.69842 3.51201,0.58245 7.08288,-0.54025 0.34612,-0.10874 1.62848,0.38606 2.8497,1.09973 2.45213,1.43299 4.38707,1.61442 7.38213,0.69217 z M 766.4393,483.46171 v -14.69566 l -85.95938,0.0164 c -47.27769,0.01 -86.01864,0.0621 -86.091,0.11813 -0.33499,0.25914 -0.37612,2.29701 -0.31152,15.43104 l 0.0689,14.04301 86.1464,-0.10857 86.14641,-0.10857 z M 554.8034,350.4222 c 0.63924,-1.48105 -0.91097,-9.95837 -3.49884,-19.13322 -0.77562,-2.74983 -1.27704,-5.15815 -1.11431,-5.35178 0.55932,-0.66548 1.95056,-0.35074 2.83448,0.64125 0.48679,0.54635 2.85742,4.64327 5.26803,9.10427 4.61716,8.54435 5.95854,10.18303 7.54375,9.21559 1.9135,-1.16778 0.90804,-4.63168 -5.60605,-19.31319 -2.24951,-5.06998 -4.23525,-10.34186 -4.41273,-11.71528 l -0.3227,-2.49714 1.95009,0.13904 c 1.57331,0.11214 2.4309,0.59465 4.43834,2.49714 4.33259,4.10606 6.97391,5.92011 9.39723,6.45401 1.44364,0.31807 2.666,0.36336 3.25579,0.12073 0.81525,-0.33551 0.61576,-0.70883 -1.45954,-2.73133 -1.3221,-1.28849 -2.86814,-3.13332 -3.43558,-4.09961 -3.17334,-5.40372 -13.09836,-15.0718 -17.81712,-17.35588 -1.25482,-0.60739 -3.41147,-1.65394 -4.79255,-2.32566 -1.3811,-0.67173 -3.03326,-1.76058 -3.67146,-2.41966 -1.21583,-1.25559 -6.44808,-15.60204 -8.9516,-24.54467 -0.7993,-2.8551 -2.50371,-10.59335 -3.78757,-17.19613 -2.12346,-10.92066 -4.24924,-19.13887 -5.90472,-22.82754 l -0.62692,-1.39689 h -20.65325 c -19.51027,0 -20.65324,0.0428 -20.65324,0.77284 0,1.22134 3.81561,12.32683 5.80177,16.8863 2.66667,6.12167 6.75429,13.20223 13.44879,23.29598 7.18532,10.83378 9.55962,14.75948 13.86099,22.91791 l 3.28346,6.22775 0.0767,8.14626 c 0.0712,7.56229 0.19327,8.43826 1.70198,12.21941 3.04293,7.62572 3.25875,8.36167 3.83453,13.0769 1.55906,12.76734 1.80689,14.16889 2.61113,14.76638 0.45721,0.33968 1.0343,0.46839 1.28246,0.28601 0.24814,-0.18238 0.5987,-3.35437 0.779,-7.04887 0.32423,-6.64374 0.90783,-8.64665 2.51942,-8.64665 1.30663,0 2.6098,2.92884 4.76929,10.71878 2.21227,7.98029 3.68753,11.14751 5.19233,11.14751 1.97841,0 2.22271,-2.0053 1.27824,-10.49188 -0.49785,-4.47357 -0.79141,-8.21745 -0.65231,-8.31972 0.52892,-0.38896 2.62527,3.85929 5.43575,11.01554 1.60372,4.08352 3.22794,7.7011 3.6094,8.03907 1.01422,0.89865 2.74586,0.75008 3.18763,-0.27347 z m 242.12047,-125.70073 -0.16572,-14.68472 -85.85487,-0.10857 -85.8549,-0.10857 v 14.79332 14.79333 h 86.0206 86.02058 z m -318.51605,-4.93064 c -0.83568,-7.06151 -2.12582,-12.48745 -4.37008,-18.37901 -1.28307,-3.36826 -2.33286,-6.42315 -2.33286,-6.78866 0,-0.36551 -0.22812,-0.66456 -0.50693,-0.66456 -0.73606,0 -4.45674,17.28175 -5.0657,23.52917 -0.19811,2.03308 -0.45109,4.13062 -0.56204,4.6612 -0.19921,0.95318 -0.1216,0.96468 6.51456,0.96468 h 6.71628 z m -303.61627,-43.60423 0.15337,-14.8159 -85.862434,0.10857 -85.8624343,0.10857 -0.1533757,14.67706 -0.1533756,14.67709 14.1467246,0.11489 c 7.780708,0.0632 46.418839,0.0768 85.862525,0.0301 l 71.7158,-0.0846 z M 746.03237,25.030767 V 10.238854 L 660.46901,10.130282 574.90567,10.02171 V 25.030848 40.03997 l 85.56334,-0.108572 85.56336,-0.108572 z"
       id="path1" /></g></svg>
