<?xml version="1.0" encoding="UTF-8" standalone="no"?>
<!-- Created with Inkscape (http://www.inkscape.org/) -->

<svg
   width="800mm"
   height="599.99994mm"
   viewBox="0 0 800 599.99994"
   version="1.1"
   id="svg1"
   xml:space="preserve"
   xmlns="http://www.w3.org/2000/svg"
   xmlns:svg="http://www.w3.org/2000/svg"><defs
     id="defs1" /><g
     id="layer1"
     transform="translate(-151.73856,-98.693276)"><path
       style="fill:#000000;stroke-width:1.47775"
       d="m 498.14071,697.84375 c -2.01424,-1.31543 -2.50982,-3.1313 -2.01115,-7.36919 0.15478,-1.31533 0.76879,-6.4027 1.36448,-11.30528 1.95915,-16.12402 3.88194,-36.37271 5.69801,-60.00494 0.23358,-3.03961 0.31085,-9.85979 0.19707,-17.39273 -0.24753,-16.38529 -1.21845,-23.82633 -4.39223,-33.66137 -1.14933,-3.56159 -1.4815,-4.14262 -4.09132,-7.1563 -7.84711,-9.06144 -11.09034,-13.64622 -18.4411,-26.06915 -4.43795,-7.50024 -13.80674,-22.92701 -18.00232,-29.64286 -3.786,-6.06027 -8.96958,-15.75685 -11.15731,-20.87129 -2.24306,-5.24378 -4.65894,-12.35407 -7.75631,-22.82797 -1.34371,-4.54384 -3.07292,-10.0567 -3.84266,-12.2508 -3.21713,-9.17012 -8.92869,-21.32524 -13.91521,-29.61382 -5.04497,-8.38571 -7.13813,-12.71899 -12.93338,-26.77488 -6.15179,-14.9206 -7.6299,-17.82288 -14.5918,-28.65111 l -3.28487,-5.10911 -8.87426,-0.002 c -4.88084,-10e-4 -22.18949,-0.13065 -38.46367,-0.28799 l -29.58941,-0.28595 -0.13541,9.31047 c -0.12145,8.35636 -0.21521,9.55962 -0.91433,11.74187 -1.57831,4.92657 -4.4665,8.67538 -8.07077,10.47574 l -2.01607,1.00704 h -70.31542 -70.31541 l -2.10687,-1.04906 c -2.82514,-1.4067 -5.78902,-5.0723 -7.3078,-9.03803 l -1.13264,-2.95746 v -21.52389 -21.52351 l 1.02773,-2.50992 c 1.883,-4.59865 4.49998,-7.57832 8.33693,-9.49233 l 1.8858,-0.94072 69.26069,0.008 c 72.95157,0.008 70.64352,-0.0528 73.80341,1.94096 2.00357,1.26416 5.06951,5.01637 6.04577,7.39904 1.56772,3.82624 1.89248,6.43631 1.89248,15.20948 v 8.1702 l 12.39309,0.0197 c 6.8162,0.0115 23.58643,0.0598 37.26718,0.10863 13.68074,0.049 24.87408,0.0447 24.87408,-0.01 0,-0.0541 -0.71665,-1.41997 -1.59254,-3.03518 -3.48862,-6.43332 -3.53203,-12.21649 -0.14005,-18.65534 3.02443,-5.74117 8.42894,-10.26733 14.03777,-11.75635 5.93928,-1.57677 13.65395,-0.69812 20.2157,2.30238 9.3446,4.27304 22.50724,16.60251 29.87264,27.98177 2.41935,3.73781 6.64382,11.76228 9.06491,17.21897 1.07174,2.41551 2.96716,6.03538 4.21206,8.04415 3.04023,4.90574 4.4625,7.58328 8.52268,16.04463 8.76415,18.26439 12.43228,23.6985 17.48536,25.90345 1.37714,0.60092 1.55174,0.58878 2.36761,-0.16457 1.95082,-1.80134 5.22389,-11.51149 6.47749,-19.21661 0.63637,-3.91145 1.8303,-15.52665 2.36882,-23.04538 0.6228,-8.69542 0.51457,-33.49558 -0.17457,-40.00328 -0.90428,-8.53934 -1.8686,-15.11422 -3.73071,-25.43688 -0.94909,-5.26131 -2.06513,-11.71836 -2.4801,-14.34901 -0.41496,-2.63065 -1.37725,-8.20719 -2.13841,-12.39231 -1.40273,-7.7128 -1.99763,-11.65711 -4.52506,-30.00247 -0.77426,-5.62003 -1.62432,-11.68575 -1.889,-13.47938 -0.26469,-1.79362 -1.07205,-7.37016 -1.79416,-12.39232 -0.7221,-5.02216 -2.01675,-13.33805 -2.87697,-18.47978 -3.96874,-23.72174 -4.07664,-24.50003 -4.97342,-35.87253 l -0.24,-3.04372 -1.23052,-0.12408 c -0.67678,-0.0682 -8.82458,-1.28784 -18.10622,-2.71024 -9.28163,-1.42238 -19.48616,-2.97759 -22.67673,-3.456 -5.34147,-0.80094 -19.72526,-3.10775 -23.02828,-3.69322 -0.77348,-0.13706 -6.0735,-0.93265 -11.77785,-1.76791 -5.70433,-0.83526 -12.66556,-1.90824 -15.46938,-2.38442 -2.80382,-0.47616 -5.60111,-0.949 -6.21618,-1.05075 l -1.1183,-0.185 -0.12159,9.42508 c -0.14233,11.03812 -0.45728,12.54831 -3.49647,16.76554 -2.1343,2.96162 -3.70068,4.26775 -6.53354,5.44801 -2.0358,0.84818 -3.27188,0.86485 -70.78256,0.95359 -54.0004,0.071 -69.04929,-0.0258 -70.29267,-0.45213 -4.37531,-1.50019 -7.82505,-5.10873 -9.92473,-10.38159 l -1.14996,-2.8878 -0.10497,-19.29756 c -0.0682,-12.51823 0.027,-20.08313 0.2708,-21.53377 0.94623,-5.63073 4.10553,-10.527 8.42648,-13.05932 l 2.30662,-1.35182 69.60123,-0.11192 c 62.76723,-0.1009 69.79016,-0.044 71.52528,0.57984 4.72672,1.69944 8.74536,7.24863 9.83179,13.57638 0.21759,1.26731 0.39562,5.90245 0.39562,10.30029 v 7.9961 l 1.67,0.26653 c 0.91848,0.14659 2.69835,0.45271 3.95523,0.68024 1.2569,0.22753 6.24049,1.00346 11.07469,1.72431 9.16233,1.36623 13.76699,2.08562 22.32514,3.48787 2.80383,0.45942 7.78743,1.23387 11.07467,1.72101 3.28726,0.48716 10.88132,1.67243 16.8757,2.63394 21.59065,3.46322 32.34983,5.07798 32.60878,4.89402 0.14503,-0.10304 0.26368,-1.51982 0.26368,-3.14842 0,-6.16209 1.66527,-14.18658 3.73194,-17.98323 1.68938,-3.10351 5.79687,-7.83572 7.87106,-9.06816 3.45973,-2.0557 5.11782,-2.54756 8.58793,-2.54756 5.02621,0 9.82395,2.27157 13.13687,6.21987 4.60563,5.48895 9.24511,16.62073 12.55395,30.12149 1.43893,5.87112 3.83753,17.59506 5.46401,26.7073 1.1082,6.20857 4.95138,23.56649 8.42383,38.04661 4.9323,20.56779 6.60431,28.16123 10.34027,46.96038 4.28945,21.58421 5.49092,27.10988 6.54719,30.11119 0.67919,1.92988 1.48629,2.3847 1.92904,1.08704 0.37469,-1.0982 0.46985,-16.53055 0.15213,-24.67595 -1.00192,-25.68737 -1.09378,-42.17102 -0.31135,-55.87417 1.37365,-24.05747 1.99632,-38.61936 2.24977,-52.61302 0.4639,-25.61177 0.95537,-37.05814 1.96214,-45.69785 2.19043,-18.79748 7.37932,-28.80678 17.20644,-33.19091 4.62291,-2.062393 10.87939,-1.38293 15.83949,1.7202 3.61599,2.26222 7.36143,7.82974 9.252,13.75285 1.14919,3.60041 2.68369,10.60547 2.68488,12.25657 5.8e-4,0.81628 0.20996,1.29962 0.61614,1.42235 0.3384,0.10222 31.09731,0.23067 68.35313,0.2854 l 67.73787,0.0994 0.11654,-9.34859 0.11653,-9.34859 1.11976,-2.92343 c 1.34678,-3.51609 3.68226,-6.72078 6.06841,-8.327 3.77081,-2.538233 0.49474,-2.43058 74.21594,-2.438802 59.6961,-0.0067 67.93705,0.07119 69.76174,0.658987 4.86237,1.566355 8.21505,5.271385 9.90218,10.942845 l 1.009,3.39185 v 20.21906 20.21905 l -1.19149,3.14389 c -2.18611,5.76833 -6.5129,9.73221 -11.56912,10.5988 -1.42123,0.24359 -29.4617,0.35922 -70.04221,0.28885 -65.51013,-0.11356 -67.72833,-0.1438 -69.43005,-0.94353 -2.71063,-1.27396 -5.36749,-3.64245 -6.89766,-6.14901 -1.99612,-3.26981 -2.85526,-6.54629 -3.04517,-11.61329 -0.0874,-2.33184 -0.30224,-4.2396 -0.4774,-4.2396 -0.17516,0 -2.17394,0.89853 -4.44172,1.99672 -2.26778,1.09819 -6.89191,3.23868 -10.27584,4.75665 -3.38393,1.51795 -11.45262,5.23292 -17.93043,8.25546 -6.47782,3.02254 -13.28082,6.15886 -15.11781,6.96956 -1.837,0.81073 -5.95044,2.63416 -9.14101,4.05209 l -5.80102,2.57805 -0.22288,4.28421 c -0.36726,7.05982 -1.31285,14.70349 -5.04837,40.80898 -2.59302,18.12121 -3.71974,26.88391 -4.91998,38.26402 -2.10586,19.9666 -4.08246,33.62199 -7.06509,48.8093 -3.44435,17.53838 -5.41791,31.14807 -5.41949,37.37299 -9.2e-4,3.58189 0.49649,5.92524 1.20229,5.66415 0.56639,-0.20952 4.19546,-9.33602 7.9067,-19.884 1.80907,-5.14173 4.82987,-13.35979 6.71287,-18.26238 10.14171,-26.40485 10.59484,-27.71461 14.66706,-42.39452 3.96,-14.27548 6.70181,-21.84099 10.47929,-28.9157 5.50509,-10.31028 10.80896,-14.34624 18.16137,-13.81984 2.26427,0.16204 3.18867,0.47793 5.46108,1.86579 4.88612,2.98415 7.94627,7.78928 9.40184,14.76303 0.70145,3.36061 0.70833,11.87976 0.0136,16.75785 -0.28952,2.03278 -0.52662,4.13621 -0.52688,4.67431 l -4.8e-4,0.97834 h 30.24358 30.24356 l -0.0433,-8.37025 c -0.0389,-7.53413 0.0332,-8.65025 0.72216,-11.17311 1.86659,-6.83511 5.72634,-11.15772 11.25883,-12.60898 1.44556,-0.3792 19.28428,-0.47371 70.667,-0.37444 l 68.73331,0.13279 2.3699,1.38843 c 4.46693,2.61702 7.52593,7.77255 8.33505,14.04763 0.47166,3.65799 0.47633,34.12086 0.005,37.8292 -0.91163,7.18457 -5.26262,13.25346 -10.74789,14.99143 -1.88688,0.59785 -9.81238,0.66004 -71.20097,0.55868 l -69.07775,-0.11406 -2.65035,-1.62005 c -3.24032,-1.98069 -5.53601,-4.87318 -7.09215,-8.9359 l -1.11978,-2.92343 -0.11295,-9.23988 c -0.062,-5.08194 -0.2203,-9.25063 -0.35157,-9.26374 -1.74346,-0.17424 -60.66603,-0.14413 -60.89531,0.0312 -0.17459,0.13345 -0.57056,1.605 -0.87993,3.27009 -2.52583,13.59471 -12.6654,49.65891 -25.09885,89.27103 -7.57031,24.11844 -8.38296,28.52005 -12.14351,65.77343 -0.88382,8.75535 -2.16342,20.59328 -2.84356,26.30651 -0.68015,5.71321 -1.33211,11.21925 -1.44879,12.23563 l -0.21217,1.84798 h 29.02832 29.02831 l 0.11242,-9.48207 0.11255,-9.48207 1.36543,-3.41466 c 2.21198,-5.53171 5.27627,-8.52169 9.99024,-9.74794 1.33353,-0.34689 21.36949,-0.48316 70.49119,-0.47948 75.98464,0.005 70.73143,-0.19811 74.35098,2.88499 2.16948,1.84796 3.85464,4.38783 5.2608,7.92908 l 0.96997,2.44273 v 21.30611 21.3061 l -1.09082,2.84691 c -1.3335,3.48033 -2.91121,5.76484 -5.27178,7.63364 -3.72442,2.94849 1.2919,2.76251 -75.26597,2.79061 -69.13921,0.0255 -69.27628,0.0237 -71.21086,-0.87148 -4.06477,-1.8809 -6.7074,-5.09143 -8.778,-10.66437 -0.74733,-2.0114 -0.81509,-2.86202 -0.92637,-11.62993 l -0.12013,-9.45978 -29.22649,0.11126 -29.22649,0.11126 -0.93052,6.9571 c -2.48915,18.6105 -6.50902,37.72708 -11.15499,53.04783 -2.41914,7.97745 -7.22065,20.27305 -10.61245,27.17616 -5.83199,11.86945 -7.96836,20.75987 -9.87398,41.09034 -0.20175,2.15234 -0.45599,12.96303 -0.56497,24.02372 l -0.19817,20.11034 4.174,-0.005 c 2.29569,-0.003 17.48784,0.046 33.7603,0.10863 l 29.58632,0.11388 0.13664,-8.91378 0.13664,-8.91378 1.14005,-3.30837 c 1.99219,-5.78122 5.59563,-9.46288 10.53782,-10.76658 1.34883,-0.35581 20.71524,-0.49146 70.16371,-0.49146 61.76616,0 68.48331,0.067 70.2102,0.70019 5.09526,1.86828 8.40459,5.68655 10.28214,11.86339 0.70075,2.30535 0.74766,3.40185 0.86424,20.20313 0.0751,10.82357 -0.0179,18.8875 -0.23819,20.6369 -0.77337,6.14362 -3.98003,11.54503 -8.38659,14.12667 l -2.36989,1.38844 h -70.4912 -70.4912 l -2.03373,-1.01522 c -4.44149,-2.21714 -8.31503,-8.58205 -9.04987,-14.87057 -0.18069,-1.54627 -0.33169,-5.94211 -0.33559,-9.7685 l -0.007,-6.95709 -33.39358,0.0286 c -18.36648,0.0164 -33.50238,0.16303 -33.63536,0.32754 -0.28356,0.3507 0.72147,22.44264 1.50698,33.12496 0.7343,9.98625 0.7317,12.9399 -0.0133,14.34493 -1.4224,2.68482 -4.6679,3.03692 -6.54897,0.71046 -0.75304,-0.93132 -1.00448,-1.74228 -1.16971,-3.77267 -0.29883,-3.67195 -1.57449,-25.76371 -2.08265,-36.06737 l -0.42891,-8.69636 -32.21783,-0.0529 c -17.71982,-0.0291 -32.39377,-0.18743 -32.60879,-0.35177 -0.50252,-0.38411 -0.50926,-2.71463 -0.009,-3.09705 0.31341,-0.23956 14.98586,-0.38541 61.93007,-0.61565 l 2.71974,-0.0131 -0.004,-15.8767 c -0.004,-16.308 0.33215,-25.4887 1.28142,-34.99705 0.47535,-4.76143 1.54257,-12.01409 2.14048,-14.54625 0.14887,-0.63054 -0.24182,-0.39562 -1.51584,0.91148 -3.85064,3.95066 -10.65867,7.93365 -16.13106,9.4374 -10.68572,2.9363 -25.89711,0.95331 -34.66167,-4.51855 -1.98832,-1.24134 -2.80253,-2.27321 -2.29198,-2.90465 0.2324,-0.2874 3.2901,0.11175 12.34325,1.61109 14.30064,2.36848 24.23578,-0.0182 34.45456,-8.27704 3.68775,-2.98045 10.24065,-11.2816 13.64908,-17.29054 4.74742,-8.36955 7.49069,-14.71006 11.09287,-25.63891 3.49028,-10.58932 4.38069,-13.90851 7.19868,-26.83475 1.66946,-7.65784 5.50232,-30.68517 5.50232,-33.05722 0,-0.56048 -4.13161,-0.64121 -32.81796,-0.64121 -31.34701,0 -32.84405,-0.0357 -33.39983,-0.79516 -0.74528,-1.0185 -0.73316,-1.5096 0.0591,-2.39634 0.5845,-0.6542 3.54802,-0.72714 33.65485,-0.82832 l 33.01392,-0.11093 1.14718,-9.13119 c 0.63093,-5.02216 1.86504,-16.27308 2.74243,-25.00205 0.8774,-8.72898 1.82561,-17.72973 2.10712,-20.00164 0.28152,-2.27193 0.91386,-7.84848 1.40518,-12.39234 1.53651,-14.20961 3.80245,-24.01635 10.19764,-44.13407 4.10043,-12.89898 10.18078,-33.13745 13.16435,-43.81766 1.51838,-5.43533 4.13966,-14.77411 5.82506,-20.75286 2.60136,-9.22805 5.79338,-22.08413 5.79338,-23.33329 0,-0.20036 -2.51443,-0.36431 -5.58763,-0.36431 -4.77085,0 -5.61881,-0.10058 -5.80101,-0.6878 -0.34522,-1.11262 -0.246,-2.27852 0.22607,-2.65639 0.2417,-0.19348 3.04993,-0.4496 6.24048,-0.56918 l 5.80103,-0.2174 0.45715,-2.60891 c 0.25145,-1.43491 0.54878,-5.45567 0.66077,-8.93505 0.22511,-6.99459 -0.17301,-9.79445 -1.8637,-13.10682 -1.07089,-2.09802 -3.8017,-3.81933 -6.06918,-3.82559 -2.92836,-0.008 -4.25053,0.7983 -7.07795,4.31679 -4.2939,5.34339 -6.80394,11.99737 -14.85439,39.37821 -2.60695,8.86661 -5.93706,18.16392 -10.97992,30.65471 -1.78619,4.42426 -5.26165,13.71851 -7.72325,20.65387 -6.65111,18.73898 -8.32325,22.89963 -10.20105,25.38247 -3.64208,4.81558 -7.27542,4.87005 -11.71829,0.1757 -1.2802,-1.35266 -2.23698,-2.84978 -2.84377,-4.44976 -0.86163,-2.27194 -0.91322,-2.78797 -0.89309,-8.9335 0.0227,-6.94351 0.5144,-11.55033 2.27386,-21.30609 0.56071,-3.10897 1.65028,-9.37036 2.42128,-13.9142 0.771,-4.54386 1.95176,-11.09874 2.6239,-14.56641 1.81672,-9.37256 3.05185,-18.5493 4.79899,-35.65512 0.40302,-3.94597 0.8667,-7.85934 1.0304,-8.69636 0.16369,-0.83702 0.39705,-2.59805 0.51859,-3.91336 0.49306,-5.33663 3.51089,-28.23328 5.30116,-40.22071 2.44498,-16.37133 3.56048,-27.04857 2.80823,-26.87991 -0.19336,0.0434 -2.45126,1.06421 -5.01755,2.26856 -7.55359,3.54488 -8.51817,3.69027 -8.51817,1.28386 0,-1.14683 0.22263,-1.39834 2.19737,-2.48236 1.20854,-0.66345 4.3727,-2.1717 7.03146,-3.35167 l 4.83411,-2.1454 8e-5,-2.73595 c 9e-5,-3.45329 -0.85945,-8.65903 -1.90802,-11.55574 -1.08735,-3.00382 -3.33894,-6.04123 -5.37996,-7.2576 -1.27344,-0.75889 -2.31192,-1.00516 -4.31399,-1.02302 -3.10489,-0.0276 -4.60637,0.7749 -6.9628,3.72181 -3.24244,4.05491 -5.10655,9.08226 -7.63457,20.58977 -1.82978,8.32913 -1.75175,7.87856 -3.87745,22.39316 -2.89038,19.73606 -5.48169,34.28581 -8.24748,46.30815 -0.88509,3.84738 -5.30581,24.07829 -6.27087,28.69801 -0.39966,1.91321 -1.05651,5.63089 -1.45966,8.26155 -0.40315,2.63065 -1.61017,10.16388 -2.68228,16.74051 -3.3405,20.49159 -4.0752,23.30836 -6.84418,26.23967 -1.73964,1.84162 -3.52342,2.29964 -6.39726,1.6426 -2.53108,-0.57867 -3.73521,-1.35671 -5.12119,-3.309 -1.37027,-1.93017 -2.03715,-3.85177 -2.79378,-8.05017 -0.66958,-3.71543 -0.76685,-16.65024 -0.376,-50.00412 0.12185,-10.40302 0.0953,-21.94746 -0.0593,-25.65428 -0.15454,-3.70682 -0.45587,-11.04439 -0.66963,-16.3057 -0.21375,-5.26129 -0.4764,-10.83785 -0.58368,-12.39231 -0.10723,-1.55449 -0.32996,-18.28412 -0.49491,-37.17698 -0.16494,-18.89285 -0.43175,-35.13332 -0.59289,-36.08992 l -0.29299,-1.73928 -6.85038,-0.24121 c -3.7677,-0.13262 -6.88993,-0.27943 -6.93827,-0.32611 -0.0484,-0.0467 -0.0855,-0.52516 -0.0825,-1.06324 0.012,-2.1972 0.23298,-2.27339 7.01271,-2.41895 3.48801,-0.0749 6.34183,-0.20884 6.34183,-0.29769 0,-0.0889 -0.24216,-1.59292 -0.53814,-3.34239 -1.05566,-6.23992 -2.44336,-9.72461 -5.21583,-13.09764 -1.9658,-2.39165 -4.46176,-3.49227 -7.85817,-3.4652 -6.20384,0.0495 -10.75271,5.66675 -13.26234,16.37741 -0.49392,2.10798 -1.05679,5.06165 -1.2508,6.56369 -0.83495,6.4641 -1.72754,25.29877 -1.92702,40.6624 -0.22632,17.43094 -0.60139,28.77355 -1.42346,43.04701 -1.71254,29.73443 -1.89219,40.22848 -1.03143,60.24818 0.72713,16.91151 0.82582,33.89979 0.21826,37.5675 -1.10986,6.6998 -3.56093,9.34587 -8.66981,9.35954 -2.45157,0.007 -3.02694,-0.14824 -4.48223,-1.20629 -4.10383,-2.98348 -6.40959,-9.85935 -10.48037,-31.25271 -3.8491,-20.2284 -6.13853,-31.18043 -8.22826,-39.36186 -0.48642,-1.90437 -1.97601,-8.14337 -3.31022,-13.86448 -1.33419,-5.7211 -3.24002,-13.88033 -4.2352,-18.13161 -1.67305,-7.14715 -3.49869,-16.24257 -7.53468,-37.53805 -3.3481,-17.66595 -9.04576,-32.48737 -14.04159,-36.52662 -3.55305,-2.87273 -8.23716,-2.88849 -11.4501,-0.0385 -2.11907,1.87967 -4.09628,5.41416 -5.02361,8.98032 -0.77875,2.99472 -1.38092,13.06365 -0.78143,13.06635 2.00567,0.008 14.04599,2.30729 14.25882,2.72173 0.45279,0.88169 0.32638,1.88214 -0.32819,2.59749 -0.55569,0.60725 -1.12589,0.59498 -5.88892,-0.12688 -2.90051,-0.43959 -5.94604,-0.91948 -6.76786,-1.06644 -1.49016,-0.26644 -1.4942,-0.26343 -1.4942,1.11683 0,2.77969 1.17597,11.06633 4.43906,31.28066 1.83374,11.35964 4.03074,25.74125 4.88225,31.95916 0.85149,6.2179 1.78702,12.87062 2.07894,14.78382 0.29194,1.91321 1.32195,8.76159 2.28893,15.21865 1.92416,12.8485 4.79311,30.2865 9.51452,57.83084 1.52673,8.90685 2.27196,23.06172 1.9802,37.6118 -0.24886,12.41102 -0.62138,18.24587 -1.8301,28.66643 -1.3868,11.95561 -3.22011,20.64717 -5.64928,26.7828 -0.51916,1.31129 -0.85278,2.49691 -0.74136,2.63471 0.28348,0.3506 5.09257,-1.82852 11.49987,-5.21089 2.9891,-1.57791 5.6391,-2.86894 5.88892,-2.86894 1.2904,0 -0.61432,2.86607 -3.94053,5.92941 -4.33404,3.99153 -13.98714,10.28687 -16.93361,11.04338 -1.12018,0.28759 -3.68358,0.43598 -5.8854,0.34068 -3.51809,-0.15235 -4.12854,-0.30514 -6.22126,-1.55774 -1.27622,-0.76389 -4.01682,-2.88533 -6.09024,-4.71433 -2.09674,-1.84959 -3.89848,-3.15613 -4.05971,-2.94394 -0.15944,0.20982 -0.78425,1.92342 -1.38848,3.80799 -1.33804,4.17332 -4.38614,10.05914 -6.56671,12.68018 -2.32329,2.79259 -2.93946,2.56409 -1.51526,-0.56191 0.6265,-1.37513 1.40996,-2.98938 1.74103,-3.58725 0.33106,-0.59789 1.74626,-3.8897 3.14488,-7.31517 1.56285,-3.82775 2.80401,-6.34758 3.22034,-6.53806 0.61858,-0.28301 0.50354,-0.64844 -1.32441,-4.20751 -1.101,-2.14368 -3.23139,-6.44128 -4.73421,-9.55024 -9.23576,-19.1065 -12.73144,-24.56723 -15.72662,-24.56723 -0.91335,0 -0.94516,-0.0782 -0.84059,-2.06539 0.10219,-1.94209 0.0808,-2.0005 -0.3593,-0.97835 -0.25739,0.59789 -1.64995,2.11134 -3.09457,3.36322 -1.44461,1.2519 -4.05046,3.84202 -5.79077,5.75586 -5.27441,5.80031 -6.00305,6.11684 -3.84011,1.66819 2.00369,-4.12111 6.14062,-9.047 9.1929,-10.94609 1.39708,-0.86925 2.80119,-1.58045 3.12024,-1.58045 0.87655,0 0.41628,-2.11066 -1.50929,-6.92116 -5.97097,-14.91672 -20.79863,-30.7198 -33.96383,-36.19805 -3.77389,-1.57039 -9.55793,-2.13988 -12.92675,-1.27279 -4.24376,1.09232 -8.30974,4.35893 -9.5172,7.64612 -1.39114,3.78727 -0.91485,5.49493 3.45747,12.39605 l 2.06616,3.26114 9.02864,0.0289 c 8.06603,0.0258 9.10075,0.10961 9.70478,0.78563 0.80557,0.90164 0.62191,2.26968 -0.39505,2.9428 -0.46604,0.30847 -3.27498,0.41302 -8.21815,0.30592 -4.13056,-0.0896 -7.51011,-0.0846 -7.51011,0.0115 0,0.0955 1.36985,2.42913 3.04411,5.18596 4.81805,7.93337 7.21261,12.93696 12.42373,25.96029 4.66173,11.65035 5.12112,12.60394 10.66227,22.13222 9.76288,16.78783 14.29189,27.69317 20.6946,49.83022 2.58253,8.92897 6.40486,18.59359 10.09688,25.52956 1.55473,2.92078 6.72112,11.72585 11.48087,19.56683 4.75976,7.84098 10.89482,17.96925 13.63348,22.50726 2.73866,4.53803 6.34393,10.21505 8.01169,12.61561 9.14604,13.16468 21.68927,23.55506 34.58644,28.65022 9.44182,3.73009 17.73113,4.34376 29.72342,2.20046 2.42543,-0.43348 4.70144,-0.64977 5.05782,-0.48063 0.62343,0.29586 0.62411,0.34013 0.0178,1.16874 -1.44875,1.97986 -8.24484,5.079 -13.74885,6.2697 -4.28487,0.92695 -10.69874,0.8571 -16.17409,-0.17614 -7.33496,-1.38416 -12.04658,-3.15464 -18.72799,-7.03737 -2.0109,-1.16858 -3.70416,-2.06534 -3.76281,-1.9928 -0.0586,0.0725 0.20011,1.61284 0.57504,3.42291 1.50645,7.27282 2.15166,16.25939 2.14966,29.94127 -0.003,16.96942 -1.21988,34.23357 -4.61469,65.44016 -0.57234,5.26131 -1.36378,12.79453 -1.75875,16.74052 -0.39496,3.94597 -0.968,8.01025 -1.27341,9.03174 -0.91197,3.05011 -3.243,3.9482 -5.84212,2.25081 z m 374.72454,-22.02201 c 2.60653,-1.68492 4.75573,-4.59241 5.83506,-7.89378 0.79274,-2.4248 0.80276,-2.68887 0.80276,-21.15265 0,-18.43084 -0.012,-18.73126 -0.79609,-21.08869 -1.35051,-4.05697 -2.91505,-6.26566 -5.59338,-7.89628 l -2.38546,-1.45232 -69.61951,0.0131 -69.6195,0.0131 -2.10946,1.35995 c -3.07821,1.98452 -4.82837,4.51571 -5.97087,8.63554 -0.52658,1.89889 -0.59239,4.29189 -0.5599,20.36361 0.0202,10.01653 0.13626,18.72376 0.25779,19.34942 0.68212,3.51156 2.90512,7.31072 5.28842,9.03812 3.35445,2.4313 -1.28541,2.29236 73.23365,2.19267 l 69.08489,-0.0924 z m 22.45879,-175.78629 c 3.04927,-1.25688 5.61182,-4.12044 6.99441,-7.81599 0.7128,-1.9053 0.74406,-2.70705 0.8416,-21.59364 0.0985,-19.05418 0.0801,-19.68499 -0.64079,-22.06793 -1.12212,-3.70924 -3.07785,-6.48589 -5.68588,-8.07257 l -2.21248,-1.34602 -69.78805,0.11389 c -67.86249,0.1106 -69.822,0.13673 -71.01858,0.9419 -3.31319,2.22965 -5.52025,5.42813 -6.46738,9.37257 -0.47798,1.99063 -0.56415,5.08785 -0.56415,20.27682 0,16.21524 0.062,18.17389 0.64978,20.50937 0.82959,3.29656 2.48233,6.2636 4.37019,7.84546 1.94095,1.62634 2.54372,1.91435 4.6484,2.22097 0.96683,0.14084 32.29235,0.24234 69.61226,0.22551 55.55174,-0.0251 68.10935,-0.13574 69.26067,-0.61028 z M 304.08899,386.01799 c 2.69629,-1.68061 4.69769,-4.36698 5.68501,-7.63062 0.70341,-2.32516 0.72474,-3.08139 0.627,-22.2397 l -0.10113,-19.83268 -0.98826,-2.48901 c -1.03517,-2.60713 -2.96728,-4.98475 -5.34012,-6.57144 l -1.40632,-0.94038 -69.03117,-0.11307 c -60.4632,-0.0989 -69.25118,-0.0322 -70.80379,0.53806 -2.95117,1.08391 -5.41669,3.80713 -6.89805,7.61908 l -0.92935,2.39151 v 20.00164 20.00165 l 0.91739,2.39149 c 1.13515,2.95915 2.96013,5.29963 5.3451,6.85485 l 1.82377,1.18931 30.23564,0.2174 c 16.62959,0.11964 47.876,0.16848 69.43647,0.10863 l 39.20084,-0.10879 z m 305.26905,-71.98745 c 0.20687,-0.65766 0.98076,-5.01128 1.71974,-9.67471 3.81504,-24.07483 6.64143,-39.5287 9.66446,-52.84226 0.65311,-2.87631 1.66128,-7.47452 2.24038,-10.21824 0.5791,-2.74371 1.71347,-8.11927 2.5208,-11.94567 1.90874,-9.04646 3.20126,-16.77753 4.90688,-29.35025 3.07842,-22.69186 5.30846,-33.1699 8.98929,-42.23685 3.20151,-7.88624 6.10579,-11.93786 10.6635,-14.87613 3.06391,-1.97524 5.5923,-2.62166 9.22192,-2.35771 9.59038,0.69738 16.55242,10.30206 18.28728,25.22874 0.24321,2.09257 0.57718,3.80467 0.74213,3.80467 0.16496,0 5.94748,-2.62317 12.85003,-5.82926 6.90255,-3.20611 16.34713,-7.52586 20.98794,-9.59945 4.64082,-2.0736 10.17816,-4.60907 12.30521,-5.63437 2.12704,-1.02531 6.75466,-3.19137 10.28362,-4.81348 l 6.41628,-2.94929 10e-6,-2.8711 10e-6,-2.87112 -67.94228,0.0667 c -65.85221,0.0648 -67.93854,0.0915 -67.82102,0.86963 0.0667,0.44158 0.2505,17.04333 0.40848,36.89279 0.15798,19.84946 0.45379,38.82929 0.65735,42.17739 0.90783,14.93148 1.22669,27.39537 1.09572,42.8296 -0.23686,27.91398 -0.18583,51.40027 0.1184,54.46102 0.31864,3.20661 1.00078,3.91116 1.68394,1.73926 z m 332.47409,-18.05981 c 3.862,-2.51663 5.882,-6.2493 6.46802,-11.95194 0.19706,-1.91768 0.28383,-10.45486 0.20208,-19.88367 -0.13871,-16.00087 -0.16885,-16.60425 -0.9534,-19.09091 -1.11377,-3.53007 -3.74214,-6.80106 -6.45661,-8.0352 l -2.04632,-0.93036 -68.79646,0.11405 -68.79646,0.11405 -2.01115,1.16579 c -2.37293,1.37551 -4.8075,4.32045 -5.95587,7.20445 -0.8185,2.05554 -0.8229,2.15533 -0.9245,20.91705 -0.11215,20.71679 -0.0622,21.35037 2.00325,25.37043 1.24835,2.42973 3.81503,4.88715 6.00932,5.7535 1.35594,0.53535 11.43217,0.61311 70.49119,0.54401 l 68.90912,-0.0807 z M 366.84965,183.10342 c 2.7195,-1.52503 4.6007,-3.78437 5.81296,-6.98141 l 0.92107,-2.42911 v -19.78423 -19.78423 l -1.02281,-2.73958 c -1.25563,-3.36315 -3.7092,-6.22927 -6.28288,-7.33931 -1.75085,-0.75515 -5.00685,-0.79158 -70.74442,-0.79158 h -68.9091 l -1.97746,1.20105 c -2.33204,1.41639 -4.97154,4.74243 -6.04579,7.61828 -0.75132,2.01132 -0.76619,2.43132 -0.76619,21.64043 v 19.58929 l 1.21101,2.95102 c 1.40568,3.42539 3.57354,5.95524 6.17211,7.20271 1.71801,0.82475 3.31905,0.8444 70.58681,0.86656 l 68.82894,0.0227 z m 526.54793,-20.37228 c 3.75326,-2.29963 5.54529,-4.94343 6.50714,-9.60013 0.48449,-2.34564 0.5489,-5.34344 0.45309,-21.08869 l -0.11175,-18.35435 -0.92646,-2.44369 c -1.25581,-3.31235 -3.13458,-5.76851 -5.52127,-7.21807 l -1.99012,-1.2087 h -69.26068 -69.26068 l -1.7575,1.00928 c -2.42733,1.39394 -3.80616,2.77781 -5.06356,5.08203 -2.11857,3.88237 -2.18319,4.67809 -2.07046,25.49597 l 0.10205,18.85164 1.00623,2.53445 c 1.83805,4.62953 5.17423,7.57136 9.1895,8.10329 1.16021,0.15365 32.33076,0.26892 69.26789,0.25609 l 67.15843,-0.0233 z M 578.50793,542.96242 c 0.45005,-3.04503 1.33701,-10.95807 1.77598,-15.84428 2.25531,-25.10498 -2.62558,-56.28121 -12.71706,-81.22893 -5.78849,-14.31004 -11.5406,-24.34581 -19.95253,-34.81135 -6.96657,-8.66733 -12.349,-13.60434 -20.83094,-19.10708 -1.78865,-1.16041 -3.25208,-2.29819 -3.25208,-2.52843 0,-0.80419 3.71566,0.0572 6.72884,1.55985 10.78884,5.38044 21.60051,16.48347 30.71822,31.54606 8.81617,14.56443 15.89853,33.5076 19.86246,53.12601 2.33177,11.54047 3.23188,20.53848 3.26227,32.61138 0.0389,15.44485 -1.22249,25.21501 -4.30835,33.37063 -1.13352,2.99581 -1.60767,3.47708 -1.28681,1.30614 z M 479.23259,472.921 c 0,-0.0794 0.61889,-2.2901 1.37532,-4.91267 0.75643,-2.62257 1.87587,-6.91122 2.48765,-9.53035 0.61178,-2.61912 2.13891,-8.26128 3.39364,-12.53816 3.03126,-10.33236 3.99385,-12.12434 3.99385,-7.43494 0,3.03967 -1.16299,9.71841 -2.53086,14.5342 -1.06037,3.7331 -6.09997,16.59098 -7.38059,18.83054 -0.56922,0.99549 -1.33901,1.5999 -1.33901,1.05138 z m 177.01905,-41.79596 c -4.57993,-1.03114 -20.2595,-6.24401 -27.77459,-9.23401 -6.9263,-2.75575 -16.2925,-7.07224 -21.47525,-9.89706 -10.28061,-5.60335 -21.52347,-13.86641 -29.25548,-21.50157 -6.23296,-6.15492 -15.60706,-19.17254 -15.10978,-20.98265 0.10285,-0.37455 1.15553,0.59141 2.94056,2.69842 2.674,3.15636 7.88803,8.75255 11.5697,12.41768 6.90402,6.87302 19.72683,16.17439 30.23563,21.9322 7.92365,4.34139 14.46043,7.32621 35.1577,16.05373 13.21159,5.57099 18.10622,7.92165 18.10622,8.69557 0,0.57149 -1.28299,0.51828 -4.39471,-0.18231 z M 437.18231,399.07257 c -0.31207,-0.62448 0.47311,-1.53652 2.80575,-3.25908 5.60636,-4.14005 11.79299,-10.66795 11.84926,-12.5029 0.0153,-0.49767 0.1075,-0.66027 0.20509,-0.36133 0.23945,0.73391 0.7585,0.68403 1.42209,-0.13673 0.9283,-1.14809 1.32812,-0.0414 0.585,1.61931 -2.27605,5.08642 -7.71559,11.18522 -12.00908,13.46453 -2.07298,1.1005 -4.59124,1.71016 -4.85811,1.17613 z m 241.38844,-17.18502 c -2.07118,-2.19194 -4.0283,-4.43033 -10.86886,-12.43082 -3.05293,-3.57062 -4.2594,-5.24952 -4.0015,-5.56846 1.48648,-1.83845 13.47912,10.11745 16.22863,16.17889 1.07217,2.36367 1.3975,3.86044 0.83908,3.86044 -0.14835,0 -1.13716,-0.91803 -2.19735,-2.04005 z m -41.62461,-45.16458 c -4.51017,-2.18316 -11.96354,-6.74478 -14.62169,-8.94881 l -2.28525,-1.89481 1.473,-0.13246 c 2.05943,-0.18515 7.09619,1.98614 12.22098,5.26834 3.94063,2.5238 7.22486,5.59082 7.22486,6.74704 0,0.76905 -0.59368,0.61525 -4.0119,-1.03934 z m -7.76593,-0.18456 c -4.45275,-0.78872 -5.61806,-1.21533 -7.25325,-2.65537 -1.41509,-1.24621 -1.25655,-1.64645 0.48539,-1.22537 3.40097,0.8221 5.05054,1.78551 4.6002,2.68672 -0.12438,0.249 -0.0765,0.33828 0.10657,0.19839 0.3725,-0.28472 6.68118,1.12334 7.04411,1.5722 0.28519,0.3527 0.22187,0.34538 -4.98295,-0.57657 z m 63.10808,-0.26594 c -3.36648,-1.10989 -7.49764,-3.92741 -9.63575,-6.57175 -1.08147,-1.33753 -1.9663,-2.60037 -1.9663,-2.80634 0,-0.48268 1.99175,0.55051 5.09787,2.64444 1.35358,0.91249 3.72672,2.4924 5.27366,3.5109 4.03192,2.65464 4.7463,3.19293 4.7463,3.57642 0,0.50184 -1.3252,0.36853 -3.51578,-0.35367 z M 515.96633,335.2158 c -0.81165,-1.62418 10.27847,-9.06766 18.13457,-12.17158 3.28159,-1.29656 8.06398,-1.34518 8.06398,-0.082 0,0.20463 -1.77986,1.11569 -3.95524,2.02456 -4.02993,1.68372 -14.66682,6.90361 -19.01793,9.33277 -2.64992,1.47939 -2.89934,1.5487 -3.22538,0.89621 z m 178.25563,-6.54668 c -1.94691,-0.72532 -12.30226,-8.07104 -12.41886,-8.80953 -0.17571,-1.11278 1.15095,-0.89043 4.39428,0.73653 4.00575,2.00939 6.62528,4.06208 8.26819,6.47897 1.47019,2.16281 1.46012,2.22874 -0.24361,1.59403 z M 578.49381,318.29237 c -4.86681,-0.1318 -8.95603,-0.37287 -9.08718,-0.53553 -0.50302,-0.62396 2.94385,-2.24192 5.97583,-2.8051 6.09019,-1.13123 12.58986,-0.47349 16.16799,1.63612 3.4434,2.03017 2.67323,2.13071 -13.05664,1.70451 z m 128.38493,-23.6835 c -2.24432,-0.69174 -8.88647,-4.64335 -11.51415,-6.85008 -2.57217,-2.16013 -2.69685,-3.13447 -0.35158,-2.74755 2.00138,0.33019 3.00418,0.76469 6.2405,2.70398 3.91232,2.34437 7.85671,5.93123 7.89937,7.1833 0.0136,0.39886 -0.0783,0.38716 -2.27414,-0.28965 z M 640.68286,276.7208 c -1.60161,-0.58564 -3.81654,-1.63594 -4.92208,-2.33398 -1.95182,-1.23238 -4.6469,-4.06601 -4.6469,-4.88575 0,-0.52994 2.47792,0.0214 3.16419,0.704 0.86748,0.86287 6.55081,3.14494 11.38578,4.57183 2.49151,0.73529 4.69086,1.45984 4.88744,1.6101 0.21244,0.16236 0.0946,0.51085 -0.29039,0.85905 -1.09666,0.99175 -6.19389,0.71222 -9.57804,-0.52525 z m -132.95092,-4.95165 c -1.45588,-0.22587 -1.52112,-0.29052 -0.97313,-0.9642 0.33678,-0.41404 2.95226,-1.40862 6.13098,-2.33139 3.049,-0.88513 5.78095,-1.71362 6.071,-1.84111 0.29005,-0.12753 1.55573,-0.70706 2.81262,-1.28791 3.44431,-1.59175 6.26283,-2.52248 6.5528,-2.16386 0.42269,0.52279 -1.96437,2.80454 -4.87162,4.65671 -4.91768,3.133 -11.02582,4.66046 -15.72265,3.93176 z m 143.42183,-2.22284 c -0.87015,-0.15366 -3.2433,-0.96623 -5.27366,-1.80586 -2.03036,-0.83962 -4.4826,-1.75036 -5.44944,-2.02386 -5.50262,-1.55655 -6.98974,-2.07861 -7.10143,-2.49298 -0.39239,-1.4559 5.03681,-1.97313 8.85932,-0.84402 3.93497,1.16233 9.66195,4.68138 10.40207,6.39175 0.47731,1.10299 0.46353,1.11042 -1.43686,0.77497 z M 504.89771,263.5587 c 0,-0.89382 3.40035,-3.80477 6.41475,-5.4915 4.42863,-2.47808 11.39645,-3.94921 14.24041,-3.00661 1.3054,0.43267 0.91615,1.36417 -0.70316,1.68265 -3.04013,0.59792 -14.46357,5.05097 -16.85824,6.57161 -1.03549,0.65756 -3.09376,0.81978 -3.09376,0.24385 z m 71.72173,-10.72761 c -3.5192,-0.87398 -7.20734,-2.5236 -7.20734,-3.22368 0,-0.71983 2.91388,-0.72032 10.04218,-0.002 3.06016,0.30852 5.32522,0.30443 7.37388,-0.0131 5.59069,-0.86699 7.93196,-0.4203 5.60325,1.06906 -3.44122,2.20085 -11.32837,3.28305 -15.81197,2.16957 z m -7.03155,-11.44593 c 0,-0.81886 1.94728,-2.19091 4.77656,-3.36553 3.38692,-1.40613 8.30558,-1.85202 11.97839,-1.08583 2.43,0.5069 7.10684,2.83524 6.70165,3.33636 -0.10936,0.13525 -2.70276,0.22158 -5.76304,0.19175 -5.2299,-0.0509 -14.00316,0.5418 -16.55093,1.11831 -0.69251,0.15662 -1.14263,0.0799 -1.14263,-0.19506 z m 86.78697,-28.36208 c -1.47918,-0.67086 -5.32714,-1.90041 -8.55105,-2.73235 -3.22391,-0.83192 -5.96434,-1.63961 -6.08984,-1.79483 -0.12558,-0.15514 0.004,-0.46425 0.28898,-0.68673 0.45278,-0.35416 0.45151,-0.40916 -0.0106,-0.44175 -0.35526,-0.0251 -0.2979,-0.15924 0.17579,-0.4109 0.38673,-0.20554 2.22903,-0.38745 4.09399,-0.40426 3.6684,-0.033 6.63551,0.82972 9.96909,2.89885 2.11287,1.31144 5.09787,3.94609 5.09787,4.49952 0,0.72725 -2.25167,0.3074 -4.97465,-0.92755 z m -161.67289,-2.54585 c 0,-1.47835 5.89742,-5.84955 9.97469,-7.39332 4.74381,-1.79613 11.47152,-2.21203 11.47152,-0.70915 0,0.65273 -2.57487,1.76009 -13.00836,5.59441 -7.6778,2.8216 -8.43785,3.04752 -8.43785,2.50806 z m 76.14549,-32.59544 c -0.68738,-1.3755 4.10648,-3.37844 9.09733,-3.80098 5.15754,-0.43663 11.31372,1.24025 12.82586,3.49368 0.41583,0.61968 -0.58471,0.68402 -10.63797,0.68402 -6.10335,0 -11.1817,-0.16952 -11.28522,-0.37672 z"
       id="path1" /></g></svg>
