<?xml version="1.0" encoding="UTF-8" standalone="no"?>
<!-- Created with Inkscape (http://www.inkscape.org/) -->

<svg
   width="800mm"
   height="600.00006mm"
   viewBox="0 0 800 600.00006"
   version="1.1"
   id="svg1"
   xml:space="preserve"
   xmlns="http://www.w3.org/2000/svg"
   xmlns:svg="http://www.w3.org/2000/svg"><defs
     id="defs1" /><g
     id="layer1"
     transform="translate(-209.42521,-66.013574)"><path
       style="fill:#000000;stroke-width:2.23997"
       d="m 294.65763,665.85859 c -4.92666,-0.84589 -5.75869,-3.17078 -2.20875,-6.17155 1.35565,-1.14591 2.21436,-2.52668 2.22331,-3.57489 0.0134,-1.7592 1.01144,-2.68222 7.30049,-6.76229 2.81415,-1.8257 3.45724,-2.63954 4.08909,-5.1748 0.41236,-1.65461 1.05852,-3.23321 1.43595,-3.508 0.3774,-0.2748 0.83494,-1.14274 1.01672,-1.92876 0.52913,-2.28788 1.98399,-4.01106 6.07351,-7.19378 4.86224,-3.78408 6.27623,-5.32146 7.95481,-8.64903 0.74397,-1.4748 1.55971,-2.99454 1.81275,-3.37719 0.84348,-1.27548 -0.96923,-0.71687 -3.22527,0.99391 -4.99444,3.78729 -11.44317,10.99386 -13.67896,15.28655 -2.45579,4.71496 -4.01406,5.98316 -12.39498,10.08765 -2.77428,1.35867 -4.27385,2.61567 -5.92849,4.96951 -1.21817,1.73296 -3.65288,4.10803 -5.41047,5.27797 -1.75762,1.16993 -3.19565,2.29571 -3.19565,2.50173 0,0.59294 -6.82342,4.59164 -9.0126,5.28165 -2.65273,0.83608 -6.28401,0.79015 -8.07866,-0.10218 -2.28616,-1.13674 -1.74721,-3.04928 1.96618,-6.9771 1.88558,-1.9945 3.70254,-4.20017 4.03766,-4.90149 0.33513,-0.70134 2.14628,-2.14378 4.02478,-3.20543 2.71059,-1.53191 8.82964,-7.26759 8.82964,-8.27645 0,-0.406 -8.18898,2.42409 -9.39564,3.24712 -0.66664,0.45469 -1.82824,1.7604 -2.5814,2.90159 -1.88455,2.85559 -9.35237,8.12736 -16.44777,11.61101 -4.47416,2.19667 -11.21026,1.06512 -10.1505,-1.70509 1.31588,-3.43966 1.79028,-4.14877 3.27008,-4.88786 1.37528,-0.68688 3.36535,-2.6418 5.66595,-5.56587 0.43898,-0.55794 -0.0531,-0.43934 -1.64963,0.39758 -1.25136,0.65597 -2.27717,1.48238 -2.2796,1.83648 -0.003,0.59703 -6.32859,4.54141 -8.37589,5.22374 -2.49401,0.8312 -5.20715,0.79648 -6.79701,-0.087 -2.0894,-1.1611 -2.04663,-2.6803 0.1486,-5.27932 2.29723,-2.71974 2.25389,-2.82141 -0.89103,-2.0896 -5.47973,1.27512 -8.18759,-1.30121 -4.89754,-4.65971 0.7034,-0.71806 1.52104,-2.14974 1.81696,-3.18151 0.39542,-1.37877 1.23497,-2.169 3.16766,-2.98171 2.41902,-1.01719 6.76839,-3.95742 12.51546,-8.46065 1.25574,-0.98396 4.31942,-2.77299 6.8082,-3.97561 6.91982,-3.34383 14.71682,-8.34676 19.35895,-12.42169 5.74913,-5.04664 6.62073,-5.57837 10.9271,-6.66645 4.56041,-1.1523 5.86266,-1.80826 10.4343,-5.25597 1.95233,-1.47236 5.9214,-4.00368 8.82016,-5.62514 2.89876,-1.62147 5.27046,-3.13877 5.27046,-3.37181 0,-0.23302 -0.83276,-0.62422 -1.85058,-0.86934 -1.01782,-0.24512 -2.8806,-1.45806 -4.13948,-2.69541 -3.50749,-3.44751 -3.75626,-8.89901 -0.73606,-16.13076 1.52959,-3.6626 2.30722,-6.88231 2.30445,-9.54147 -0.007,-7.86246 -4.73468,-32.28298 -11.97257,-61.85865 -3.22206,-13.16609 -5.4464,-24.52612 -10.5868,-54.06835 -1.85696,-10.67186 -4.43362,-18.34516 -7.14125,-21.26637 -4.94499,-5.33512 -5.77982,-6.70982 -5.31333,-8.74951 0.70794,-3.09544 2.98123,-5.96512 6.25372,-7.89429 2.83321,-1.67022 2.94704,-1.85929 2.1045,-3.49548 -1.08738,-2.11155 -0.39069,-6.13712 1.39495,-8.06019 1.92398,-2.07206 4.45442,-2.45124 12.70325,-1.90348 7.06658,0.46924 15.10027,0.18193 14.32871,-0.51243 -0.25678,-0.23101 -3.21765,-0.34037 -7.06798,-0.26106 -7.2057,0.14845 -12.81105,-0.55215 -16.68489,-2.08541 -3.0723,-1.21602 -5.98952,-4.44263 -7.74744,-8.5691 -1.9905,-4.67246 -1.30239,-6.19061 5.80449,-12.80584 8.31709,-7.74172 9.27834,-9.7143 9.26699,-19.01644 -0.02,-16.76058 -10.31439,-45.23897 -28.30978,-78.31957 -4.9338,-9.0697 -10.12202,-19.42456 -16.23439,-32.40125 -1.85389,-3.93586 -4.4,-9.30293 -5.65798,-11.92684 -1.25797,-2.6239 -2.91175,-6.1125 -3.67505,-7.75245 -3.9783,-8.54745 -8.10468,-13.34101 -15.6654,-18.19817 -9.78703,-6.28743 -11.28756,-11.01833 -5.89185,-18.57626 1.56101,-2.18659 3.58897,-4.64152 4.50658,-5.4554 5.21123,-4.62227 15.58799,-7.15252 23.3489,-5.69333 4.38567,0.82458 6.58049,1.72708 6.58049,2.70588 0,1.6749 8.67264,-0.31882 12.34106,-2.83704 1.57122,-1.07858 2.19168,-2.17125 2.50934,-4.41918 l 0.42204,-2.9863 5.43114,-2.39978 5.43115,-2.39977 -2.49986,-1.77463 c -2.34265,-1.66298 -2.48747,-2.0122 -2.30238,-5.55145 0.17731,-3.38937 -0.0381,-3.98075 -2.09869,-5.76463 -2.96344,-2.56545 -6.62701,-4.29896 -14.8163,-7.01073 -12.18534,-4.03497 -13.91084,-5.45264 -19.0487,-15.65026 -4.70637,-9.3413 -3.90533,-12.84258 4.36587,-19.08295 12.48984,-9.423204 32.1374,-15.052377 54.43862,-15.597076 17.43447,-0.425832 31.09998,1.391062 42.65301,5.670931 5.62345,2.083216 12.82076,6.608385 15.25461,9.591015 1.92441,2.35835 2.56667,2.67819 7.03095,3.50132 l 3.53401,0.6516 -3.1494,-1.51133 c -3.85868,-1.85173 -5.24381,-3.25351 -5.24381,-5.30688 0,-3.36536 5.05227,-3.929521 15.78343,-1.762451 6.63219,1.339311 7.6646,1.079271 8.35598,-2.104664 0.27181,-1.25201 0.75116,-2.74075 1.06507,-3.308314 0.62427,-1.128648 1.51019,-0.949008 -11.91737,-2.416431 -3.84743,-0.420464 -5.2342,-0.800839 -6.8471,-1.878115 -2.64828,-1.768794 -2.59693,-3.396319 0.14593,-4.630624 2.56881,-1.155932 7.87029,-1.298441 15.28048,-0.410756 4.79272,0.574129 5.3893,0.41159 3.70063,-1.008241 -0.63511,-0.534011 -0.65738,-1.199141 -0.0691,-2.061061 0.47778,-0.699934 1.03499,-2.318255 1.23825,-3.596268 l 0.36951,-2.323664 -6.26411,0.09273 c -8.79972,0.13026 -9.18113,0.09762 -11.60525,-0.993194 -2.95042,-1.327656 -2.95042,-3.47922 0,-4.806876 2.38973,-1.075338 2.60738,-1.093778 11.63237,-0.985465 6.00538,0.07208 6.31593,0.03115 6.83584,-0.901009 1.00811,-1.8074 4.39843,-2.071069 26.6303,-2.071069 11.17623,0 21.36344,0.131898 22.63821,0.293114 1.40407,0.177563 2.7524,0.765283 3.42027,1.490854 0.96149,1.044497 2.2899,1.404766 4.6089,1.249941 0.34568,-0.02308 3.26441,-0.06768 6.48607,-0.09911 7.4182,-0.07238 9.35577,0.624381 9.44893,3.39796 0.0478,1.418064 -0.40374,2.076428 -1.87636,2.736767 -1.75051,0.784955 -2.71153,0.858758 -9.8823,0.75893 -7.93972,-0.11053 -7.94299,-0.11017 -7.42351,0.821216 0.28584,0.512488 0.59441,2.58187 0.68571,4.598623 0.15894,3.509215 0.24576,3.657933 2.02178,3.459909 1.0207,-0.113806 4.80658,-0.316583 8.41308,-0.450619 5.57871,-0.207332 6.85498,-0.134257 8.55217,0.489611 2.85989,1.05129 3.35108,3.198276 1.1019,4.816424 -2.11939,1.524773 -3.47237,1.810775 -12.69988,2.684569 -5.82761,0.551841 -6.81545,0.758549 -6.29226,1.316642 0.34133,0.364115 0.87651,1.948034 1.18926,3.519818 0.31288,1.571784 0.84842,2.983693 1.19039,3.137573 0.34197,0.15388 3.93154,-0.28234 7.97685,-0.969375 8.3465,-1.417535 10.04879,-1.501275 12.81228,-0.630269 4.28312,1.349965 1.56445,6.062924 -4.94336,8.569534 -3.56252,1.3722 -4.43616,1.60092 -10.9839,2.87567 -2.259,0.43979 -3.31308,0.90004 -3.31308,1.44657 0,1.38763 3.4353,0.94125 7.38464,-0.95954 2.01247,-0.96861 6.34268,-2.41625 9.62264,-3.21698 3.57899,-0.87372 5.96361,-1.71355 5.96361,-2.10028 0,-0.35443 1.60008,-2.09788 3.55575,-3.87435 6.53431,-5.935596 15.04931,-9.065888 30.89345,-11.357101 19.23971,-2.782246 39.0045,-1.620358 55.05227,3.23629 15.51052,4.694057 27.40565,12.438081 29.80814,19.405791 0.9843,2.85467 0.0568,8.67396 -1.86217,11.685 -0.4542,0.71268 -0.82585,1.6106 -0.82585,1.99538 0,0.66141 3.35252,0.69769 61.38499,0.66409 l 61.38496,-0.0355 0.23909,-8.01634 0.23909,-8.01634 h 153.72842 153.72844 v 17.09515 17.09513 l -153.9493,0.10052 -153.94934,0.10053 v -8.15113 -8.15113 H 638.8755 576.68475 l -0.5884,1.05494 c -1.2514,2.24363 -7.6299,5.52364 -17.70731,9.10561 -6.77073,2.40665 -10.52944,4.17681 -13.11254,6.17535 -2.11321,1.635 -2.38152,2.27945 -2.5783,6.19264 -0.20269,4.02848 -0.41085,4.49762 -2.68154,6.04035 l -2.46193,1.67265 2.81805,1.07985 c 1.54989,0.59393 3.06903,1.16932 3.37587,1.27865 3.06411,1.09186 4.47266,2.65404 4.47266,4.9606 0,1.81646 0.54268,2.93055 2.05567,4.22017 2.01221,1.71506 7.08141,3.6307 10.91338,4.12413 1.6099,0.20728 1.9718,0.0679 2.20875,-0.85041 0.34874,-1.35157 4.62416,-2.73656 9.6202,-3.11638 7.8522,-0.59695 17.4531,2.95213 22.0596,8.15458 8.37762,9.46147 7.88345,14.41189 -2.12113,21.249 -2.89615,1.97922 -6.36562,4.68467 -7.70995,6.01211 -2.47027,2.43926 -7.77669,10.43871 -10.11444,15.24747 -0.69909,1.43804 -2.08863,4.22475 -3.08785,6.19268 -0.99926,1.96793 -3.16573,6.4405 -4.8144,9.93904 -4.52101,9.59387 -8.76062,18.15334 -13.68571,27.63052 -2.44309,4.70115 -4.64807,8.95009 -4.89991,9.44207 l -0.45787,0.89451 h 76.43928 76.43931 v -7.67294 c 0,-5.43775 0.30888,-7.81189 1.0602,-8.14999 0.8165,-0.36742 36.00209,-0.47568 153.06582,-0.47099 83.6031,0.003 152.50694,0.14936 153.11974,0.32434 0.8738,0.24962 1.0643,3.95609 0.8835,17.18844 l -0.2307,16.87018 H 855.2363 701.50788 l -0.23942,-7.85184 -0.23942,-7.85183 -75.74118,-0.047 c -69.00943,-0.043 -78.04968,-0.0212 -78.55009,0.18932 -0.43046,0.18102 -10.27766,20.85282 -12.99958,27.28951 -9.62044,22.74983 -14.4736,43.03308 -12.08677,50.51531 1.54391,4.83993 3.08248,6.95106 9.41711,12.92167 3.85815,3.63648 5.82888,6.01833 6.2207,7.5185 l 0.57351,2.19582 h 81.60182 81.60181 v -7.73846 c 0,-7.24632 0.10886,-7.76466 1.71048,-8.15039 1.99293,-0.47994 298.05345,-0.55383 303.09595,-0.0756 l 3.0922,0.29325 0.2308,16.65705 c 0.1269,9.16137 -0.095,16.80357 -0.4929,16.98263 -0.5134,0.23105 -261.61002,0.51722 -304.30507,0.33353 l -3.29482,-0.0135 -0.23909,-8.05062 c -0.13157,-4.42784 -0.53738,-8.00589 -0.90182,-7.95123 -0.36444,0.0547 -37.1453,0.0993 -81.73525,0.0993 h -81.07262 l -1.09062,2.066 c -0.59985,1.1363 -2.25182,3.18261 -3.67105,4.54734 -2.08924,2.00901 -3.27382,2.64052 -6.2231,3.31758 -4.36073,1.00107 -13.7904,1.47691 -17.55745,0.88599 -2.10991,-0.33096 -2.91329,-0.30069 -3.72702,0.14049 -0.80505,0.4365 -0.76775,0.60107 0.16663,0.73495 3.88566,0.5568 8.76851,0.62876 14.01793,0.20662 3.2826,-0.26397 6.9628,-0.36764 8.17827,-0.23036 4.37532,0.49414 7.14806,5.16012 5.63467,9.48204 -0.75159,2.14638 -0.66394,2.33591 1.65324,3.57506 3.16953,1.69502 5.4098,4.08126 6.59669,7.02656 1.17199,2.90834 0.33649,4.79324 -3.95065,8.91269 -2.68802,2.58289 -3.45166,4.01256 -5.28832,9.90071 -1.18064,3.78505 -2.96905,11.71227 -3.97425,17.61607 -1.0052,5.90378 -2.61319,15.0897 -3.57331,20.41315 -0.96016,5.32345 -1.7457,10.10909 -1.7457,10.63477 v 0.95576 h 89.21489 89.2149 l 0.23908,-8.05062 0.23909,-8.05061 152.36983,-0.0682 c 96.24459,-0.0431 152.95512,0.0727 153.95882,0.31446 1.4969,0.36049 1.5757,1.35581 1.3587,17.16335 l -0.2304,16.78069 H 855.23661 701.50818 l -0.23908,-8.05063 -0.23909,-8.05061 h -89.55673 -89.55633 l -0.53641,1.68963 c -0.29518,0.9293 -1.32132,5.26769 -2.2806,9.64087 -0.95929,4.37317 -2.5595,11.43982 -3.55602,15.70367 -0.99648,4.26384 -2.20067,9.45203 -2.67593,11.52927 -2.42633,10.60474 -6.17078,33.75916 -6.16844,38.14344 0.002,3.54328 0.55367,6.2034 1.9013,9.16637 2.5391,5.58252 2.7473,12.84393 0.45313,15.80511 -0.89026,1.14909 -2.83214,2.63531 -4.31531,3.30271 -2.32375,1.04566 -2.56591,1.34262 -1.75108,2.14736 1.05656,1.04345 1.15142,1.05545 17.40348,2.20198 6.317,0.44564 13.47334,0.98966 15.90295,1.20894 2.42963,0.21927 17.33863,1.36205 33.13114,2.5395 34.19015,2.54912 121.48594,9.19652 127.44441,9.70464 l 4.1966,0.35786 v -7.71095 c 0,-7.6906 0.007,-7.71189 2.04136,-8.0602 2.23449,-0.38229 299.89187,-0.54501 303.87877,-0.16613 l 2.4389,0.23178 -0.2301,17.14739 -0.23,17.14738 -151.96149,0.10878 c -83.57879,0.0598 -152.85599,0.012 -153.94931,-0.10698 -1.97928,-0.2148 -1.98789,-0.25021 -1.98789,-8.16696 v -7.95203 l -1.98786,0.20773 c -1.83182,0.19142 -11.83076,1.04548 -62.94914,5.37681 -10.2044,0.86462 -24.71583,2.10664 -32.24763,2.76001 -7.53184,0.65339 -21.74508,1.85781 -31.58504,2.67648 -9.83992,0.81869 -17.8908,1.61694 -17.8908,1.77392 0,0.15696 1.96475,1.12248 4.36614,2.14557 2.40138,1.0231 5.20518,2.60072 6.23068,3.50584 4.19233,3.70016 8.64118,6.8838 11.23711,8.04138 1.9914,0.88799 2.93065,1.76161 3.39634,3.15903 0.35405,1.06238 1.41625,2.71748 2.36051,3.67802 2.02112,2.05604 1.56518,3.3163 -1.46374,4.04575 -1.86958,0.45023 -2.50884,0.43474 -4.34006,-0.10519 -3.05119,-0.89961 -3.26109,-0.53064 -0.92055,1.61833 3.85304,3.53766 2.00603,6.85662 -3.47143,6.238 -2.87115,-0.32427 -10.56977,-4.29148 -12.14938,-6.26075 -1.28336,-1.59996 -4.36213,-3.20866 -4.36213,-2.27929 0,0.28141 0.74981,1.06948 1.66626,1.75125 0.91644,0.68178 1.95607,1.68687 2.31029,2.23351 0.35422,0.54665 1.42667,1.37914 2.38325,1.85 1.70734,0.84038 3.0704,2.62787 3.9839,5.22446 0.52352,1.48817 -1.56181,2.86459 -4.34002,2.86459 -2.94972,0 -6.67984,-1.1352 -9.45401,-2.87716 -7.61318,-4.78042 -11.13263,-7.49513 -12.64462,-9.75332 -1.12131,-1.67467 -2.67697,-2.94624 -4.74056,-3.87483 -3.3949,-1.52765 -7.28945,-2.77628 -7.85945,-2.51979 -0.95434,0.42944 6.02402,7.00418 8.7843,8.27619 2.12474,0.97915 3.75657,2.37518 5.36002,4.58551 1.2679,1.74778 3.10058,3.75687 4.07266,4.46462 0.97207,0.70776 1.98241,2.22931 2.24524,3.38122 0.40595,1.77929 0.20169,2.20653 -1.35815,2.83981 -2.24782,0.91263 -5.46984,0.95658 -8.15202,0.11119 -2.2169,-0.69872 -9.64549,-5.31774 -9.64549,-5.99745 0,-0.23516 -1.3469,-1.28005 -2.99312,-2.32198 -1.64623,-1.04191 -4.0205,-3.36708 -5.27617,-5.16703 -1.94422,-2.78695 -2.94227,-3.56202 -6.72532,-5.22276 -2.44326,-1.07258 -4.44231,-2.10982 -4.44231,-2.30496 0,-0.19514 -0.95614,-0.75355 -2.12476,-1.2409 -1.58836,-0.66241 -2.7892,-2.09857 -4.75703,-5.68925 -2.85501,-5.20952 -8.90718,-12.07493 -13.45761,-15.26587 -1.57236,-1.1026 -3.02118,-1.93169 -3.21956,-1.84242 -1.082,0.48688 3.54006,7.76688 6.43394,10.13378 6.22788,5.09379 8.23213,7.17117 9.14343,9.47696 3.64888,9.23274 3.61719,9.18853 8.56422,11.94345 3.41236,1.90025 5.90611,4.70683 5.22728,5.883 -0.26279,0.45519 0.66317,1.76487 2.16668,3.06482 4.18799,3.62103 3.23929,5.80006 -2.82159,6.48059 -3.20009,0.35931 -7.46422,-0.61108 -14.21375,-3.23464 -13.09985,-5.09194 -13.08759,-5.0839 -14.36961,-9.44684 -0.50292,-1.71143 -1.30129,-2.29077 -6.68308,-4.84938 -5.16267,-2.45444 -6.11194,-3.12153 -6.11194,-4.29521 0,-0.76422 -0.89454,-2.0706 -1.98786,-2.90307 -1.61701,-1.23119 -2.08105,-2.32944 -2.48737,-5.88676 -0.6638,-5.81168 -2.90918,-8.74111 -10.6631,-13.91169 -4.14465,-2.76379 -6.06559,-4.4215 -6.06559,-5.23442 0,-0.74677 -0.80161,-1.52856 -2.15319,-2.09993 -1.18424,-0.50062 -2.66391,-1.80693 -3.28811,-2.90288 -0.90909,-1.59612 -1.77729,-2.17511 -4.363,-2.90962 -3.97859,-1.13018 -6.56143,-2.57055 -7.91233,-4.41249 -1.46902,-2.00294 -0.64621,-9.01169 1.32272,-11.2668 0.85908,-0.98397 1.97607,-2.88609 2.4822,-4.22693 0.91447,-2.42265 0.90348,-2.44504 -1.75773,-3.57805 -3.88262,-1.65305 -5.70068,-4.14676 -6.19341,-8.49504 -0.46969,-4.14483 0.21972,-5.36995 7.22683,-12.84181 8.03719,-8.57032 12.29434,-20.80577 14.48255,-41.62409 1.13866,-10.83326 0.54676,-83.59204 -0.72518,-89.13895 -1.96098,-8.55183 -5.77688,-14.93088 -12.67236,-21.18432 -3.6963,-3.3521 -4.56569,-4.79224 -5.93156,-9.82532 -1.21343,-4.47144 -0.62446,-6.97802 1.99127,-8.47438 1.79775,-1.02845 2.03888,-1.05172 7.68577,-0.74185 7.15477,0.39262 11.26222,0.32518 18.44234,-0.30277 4.75468,-0.41583 5.36823,-0.56425 4.30666,-1.04194 -1.06156,-0.47769 -2.01894,-0.46701 -6.7203,0.075 -12.96799,1.49496 -23.47258,-0.012 -25.59074,-3.67106 -1.9338,-3.34065 -3.82241,-11.36726 -3.27736,-13.92871 1.20993,-5.68596 3.55759,-7.61954 16.35895,-13.47355 8.0606,-3.68605 9.37016,-4.5015 13.72722,-8.54756 5.01394,-4.65606 16.41604,-20.01688 22.19269,-29.89782 3.14049,-5.37174 4.43937,-7.81071 14.93675,-28.04694 3.23271,-6.23177 8.03328,-15.35581 10.66798,-20.27563 13.33687,-24.90429 23.3518,-48.94419 23.37935,-56.11984 0.01,-3.00713 -0.32224,-3.76202 -2.63657,-5.96342 -3.73036,-3.54827 -3.73059,-6.88343 -7e-4,-10.07411 4.10565,-3.51214 3.35182,-7.22888 -2.51589,-12.40447 -2.13779,-1.88561 -7.24025,-3.92155 -10.61508,-4.23553 -3.65299,-0.33984 -5.18578,0.82816 -5.79706,4.41742 -1.38683,8.1433 -3.92413,11.22663 -12.37528,15.03866 -10.49934,4.73589 -27.23732,7.30963 -40.40863,6.21349 -9.41254,-0.78332 -17.34207,-2.84188 -26.5761,-6.89926 -9.77721,-4.29605 -17.33319,-6.71755 -21.80311,-6.98734 -5.84551,-0.35281 -12.1801,1.51496 -26.30098,7.75487 -13.26828,5.86315 -30.92608,7.86564 -46.39439,5.26138 -5.55389,-0.93507 -16.83498,-4.12733 -19.85312,-5.61793 -6.64955,-3.28412 -10.83908,-8.55275 -10.93494,-13.75149 -0.0267,-1.48744 -0.52439,-3.33062 -1.10438,-4.09592 -2.18193,-2.87916 -9.55746,-1.62979 -15.95036,2.70192 -5.34222,3.61978 -7.15667,9.8993 -3.53154,12.22203 4.86599,3.11776 4.9506,7.35955 0.22206,11.1298 -2.48998,1.98533 -2.76062,2.52203 -2.64361,5.24203 0.29418,6.83935 9.89535,30.40587 21.26326,52.1921 1.99668,3.82652 4.43219,8.56745 5.41231,10.53538 0.98009,1.96793 3.13654,6.17213 4.79209,9.34269 1.65557,3.17055 5.1988,9.96884 7.87383,15.10733 7.14335,13.72158 10.53565,19.55804 16.52163,28.42563 8.03916,11.9091 10.16506,14.62914 14.94526,19.12226 3.95195,3.71459 5.28108,4.52111 14.0381,8.51828 5.32009,2.42837 10.50162,5.18557 11.51454,6.12712 3.01373,2.80141 4.68293,7.171 4.03412,10.56043 -0.91918,4.80197 -3.22974,10.84278 -4.61184,12.05748 -2.74215,2.41001 -12.74423,3.28092 -23.40439,2.03792 -2.89793,-0.3379 -6.03651,-0.50475 -6.97466,-0.37078 -7.06918,1.00964 11.41857,2.3298 22.62115,1.61533 3.96975,-0.25317 4.69986,-0.17869 6.78907,0.69256 3.55381,1.48206 3.88823,3.29965 1.74997,9.51045 -1.66576,4.83838 -2.38419,5.9341 -6.25586,9.54147 -11.05613,10.30132 -13.70852,18.20603 -13.24013,39.45833 0.37135,16.84813 0.36321,34.46204 -0.0234,53.86956 -0.46722,23.36266 3.34264,40.64449 11.88428,53.90801 1.1941,1.8542 3.57147,4.62262 5.28308,6.15202 4.59588,4.10667 6.03167,7.05023 5.44474,11.16243 -0.54273,3.8023 -2.88604,6.82126 -6.47094,8.33675 -1.98075,0.83735 -2.1238,1.11865 -1.58659,3.12022 0.3249,1.20995 0.92913,2.3918 1.34306,2.62634 1.20432,0.68239 3.27786,4.90043 3.89454,7.92236 0.90783,4.44856 -2.27793,7.86429 -8.88788,9.52945 -2.77571,0.69924 -3.59014,1.1927 -4.43857,2.68928 -0.5715,1.00809 -1.85689,2.3497 -2.85642,2.98133 -0.99952,0.63164 -2.09234,1.67425 -2.4285,2.31688 -0.33615,0.64264 -3.01199,2.76232 -5.94634,4.71039 -8.33896,5.53616 -10.51268,8.24801 -11.02297,13.75177 -0.34437,3.71414 -0.81804,4.95238 -2.52414,6.59831 -1.15513,1.1144 -2.10026,2.3846 -2.10026,2.82268 0,0.86106 -3.82004,3.40955 -7.03399,4.69263 -3.86686,1.54374 -5.51649,3.01888 -6.21655,5.55902 -0.5831,2.11571 -1.26099,2.84051 -4.07163,4.35357 -1.85465,0.99841 -4.064,1.91411 -4.90969,2.03488 -0.84569,0.12081 -3.56433,1.11259 -6.04138,2.20402 -5.36146,2.36234 -10.7335,3.4526 -14.1346,2.86865 z m 7.22105,-3.20089 c 1.61654,-0.59911 3.46242,-1.40656 4.10191,-1.79435 0.63952,-0.38778 2.7519,-1.06986 4.69422,-1.51574 2.3375,-0.53662 3.43533,-1.03523 3.24724,-1.47478 -0.41734,-0.97511 -6.82727,-2.46053 -10.65032,-2.46808 -2.92454,-0.006 -3.31312,0.10684 -3.31312,0.9606 0,0.53193 -1.16328,2.27003 -2.58508,3.86243 -1.42176,1.59241 -2.39223,3.03566 -2.15659,3.20724 0.86179,0.62746 3.79477,0.28523 6.66174,-0.77732 z m 212.3161,0.70033 c 0.29385,-0.21392 -0.67662,-1.6304 -2.15659,-3.14774 -1.47996,-1.51732 -2.69082,-3.32226 -2.69082,-4.01099 0,-0.99942 -0.31222,-1.21416 -1.54612,-1.06361 -0.85036,0.10367 -2.66722,0.30124 -4.03743,0.43889 -3.23398,0.32487 -8.52742,1.87234 -8.54147,2.49696 -0.007,0.26771 1.0824,0.74371 2.41868,1.0578 1.33628,0.31409 3.62233,1.1464 5.08013,1.8496 4.71151,2.27277 10.08839,3.38768 11.47362,2.37909 z m -242.72894,-2.77196 c 1.57925,-0.85598 2.87138,-1.72813 2.87138,-1.9381 0,-0.38046 -2.03658,-0.8644 -3.63766,-0.8644 -0.80908,0 -4.31381,3.25674 -4.31381,4.00858 0,0.82157 2.38296,0.25583 5.08009,-1.20608 z m 271.45442,1.09986 c 0,-0.72718 -3.59966,-3.90236 -4.42404,-3.90236 -1.499,0 -3.52743,0.49511 -3.52743,0.86097 0,0.2081 1.25924,1.08346 2.79835,1.94528 2.72806,1.52756 5.15312,2.04339 5.15312,1.09611 z m -291.58659,-5.65276 c 0.44391,-0.52541 1.2357,-1.07448 1.75952,-1.22015 1.16642,-0.3244 0.35676,-1.00506 -1.19546,-1.00506 -1.1944,0 -3.18193,1.62581 -3.18193,2.60286 0,0.91936 1.73328,0.66931 2.61787,-0.37765 z m 309.2565,0.54495 c 0,-0.22568 -0.60546,-1.06241 -1.34549,-1.85942 -1.0433,-1.12359 -1.58265,-1.34237 -2.40119,-0.97404 -0.81854,0.36833 -0.68353,0.78598 0.60116,1.85941 1.60265,1.33913 3.14552,1.81691 3.14552,0.97405 z m -280.96542,-1.67687 c 1.43669,-0.71064 2.62377,-1.40874 2.63803,-1.55135 0.0134,-0.1426 -1.06744,-0.43738 -2.40372,-0.65507 -1.33628,-0.21768 -3.05751,-0.51096 -3.82489,-0.65172 -1.04273,-0.19127 -1.67117,0.12486 -2.48704,1.25142 -0.60045,0.82902 -1.28759,1.71718 -1.52698,1.97364 -0.37482,0.40154 0.39176,0.55618 4.31739,0.87102 0.37128,0.0298 1.85052,-0.52729 3.28721,-1.23794 z m 255.75666,0.8995 c 2.22635,-0.38089 2.25436,-0.42765 0.94102,-1.5705 -0.74451,-0.64786 -1.35364,-1.4743 -1.35364,-1.83654 0,-0.47362 -0.4343,-0.57649 -1.54612,-0.36619 -0.85036,0.16084 -2.44653,0.38025 -3.54707,0.48757 -3.07039,0.29942 -3.16693,0.76373 -0.4745,2.28217 2.75347,1.55284 2.76149,1.55419 5.98031,1.00349 z m -216.60099,-2.35736 c 0.72006,-2.73585 2.62204,-4.26576 8.29267,-6.67047 2.6789,-1.13605 4.71729,-2.27272 4.52972,-2.52595 -0.18766,-0.25321 -3.30818,-1.16576 -6.93465,-2.02787 -4.77262,-1.13456 -7.20279,-1.49864 -8.79953,-1.31831 -3.26393,0.36863 -4.42454,0.94627 -4.42454,2.20212 0,2.35699 -2.02496,5.19551 -5.36553,7.52127 -3.67095,2.55576 -3.67776,2.54493 1.86304,2.95605 1.71806,0.12742 4.50108,0.65883 6.18447,1.18077 1.68343,0.52194 3.30217,0.88405 3.59725,0.8047 0.29519,-0.0793 0.77076,-1.03439 1.0571,-2.12231 z m 176.92237,1.36898 c 1.77118,-0.54086 4.67124,-1.10105 6.44459,-1.2449 1.77335,-0.1438 3.5103,-0.33464 3.85992,-0.42403 0.34961,-0.0894 -0.72271,-1.01333 -2.38289,-2.0532 -3.75547,-2.35222 -4.7044,-3.46314 -5.72312,-6.70015 -0.44368,-1.4098 -1.27908,-2.81942 -1.85646,-3.13247 -1.39299,-0.75526 -5.06878,-0.71735 -8.34313,0.0861 -1.45776,0.35768 -4.16108,0.9912 -6.00736,1.40781 -5.05581,1.14083 -5.05321,1.73524 0.0167,3.84476 5.24288,2.18144 7.88025,4.3483 8.70737,7.15403 0.33158,1.12503 0.9317,2.0455 1.33344,2.0455 0.40174,0 2.1796,-0.44253 3.95077,-0.9834 z m 59.01002,-4.721 c -0.77843,-0.6891 -1.50968,-1.30324 -1.62505,-1.36473 -0.11521,-0.0615 -1.40955,0.19806 -2.87599,0.57679 l -2.66625,0.68858 2.2606,1.27487 c 2.13362,1.20325 2.37471,1.24123 4.29131,0.67615 1.95694,-0.57699 1.97928,-0.64423 0.61538,-1.85166 z m -295.26996,0.97404 c 1.41582,-1.11999 1.39305,-1.16633 -0.95678,-1.94809 l -2.4071,-0.80081 -1.14287,1.4222 c -1.02059,1.27003 -0.97104,1.47875 0.46301,1.95061 2.18571,0.71919 2.38469,0.68847 4.04374,-0.62391 z m -19.60425,-0.6165 c 1.98586,-0.9512 2.00002,-2.20681 0.0234,-2.20681 -0.80261,0 -3.51665,2.29135 -3.51665,2.96894 0,0.49325 1.59991,0.1441 3.49177,-0.76213 z m 331.41107,-1.14484 c -0.4935,-0.58407 -1.28122,-1.06197 -1.75051,-1.06197 -1.88,0 -1.84641,0.86773 0.0808,2.0856 2.26962,1.43429 3.24256,0.83786 1.66977,-1.02363 z m -43.12798,1.0785 c 2.05594,-0.32631 1.97741,-0.58366 -0.99024,-3.2451 -1.39502,-1.25105 -3.42385,-3.37761 -4.50856,-4.72569 l -1.9722,-2.45105 -3.6638,0.69979 c -4.83032,0.92259 -4.99097,1.68086 -0.64991,3.06797 3.5664,1.13958 6.29379,3.30979 7.57251,6.02553 0.37355,0.79337 1.02356,1.22621 1.64218,1.09355 0.56313,-0.12081 1.71966,-0.33002 2.57002,-0.465 z m -242.75245,-1.56465 c 1.67461,-2.52771 3.5676,-3.86933 7.43009,-5.2659 1.99394,-0.72094 3.6253,-1.44814 3.6253,-1.61599 0,-0.36773 -5.76249,-1.64515 -7.4213,-1.64515 -0.64731,0 -2.07669,1.11814 -3.17642,2.48475 -1.09973,1.36663 -3.15114,3.51751 -4.55867,4.77975 l -2.5592,2.29499 2.0107,0.36193 c 2.91609,0.52492 3.4925,0.35204 4.6495,-1.39438 z m -19.54244,-3.77741 c 1.25644,-1.50305 3.30548,-2.8164 6.69817,-4.29332 l 4.88799,-2.12785 -2.64224,-0.95128 c -1.45326,-0.5232 -2.84103,-0.9494 -3.08399,-0.9471 -0.24309,0.003 -2.23085,1.72549 -4.41749,3.8293 -2.18665,2.10381 -4.88021,4.37814 -5.98569,5.05405 -1.86751,1.14188 -1.89883,1.24861 -0.44174,1.50631 2.52003,0.4457 3.07444,0.21547 4.98499,-2.07011 z m 283.99916,1.81687 c 0.15561,-0.07 -1.06975,-0.92492 -2.72325,-1.8997 -1.65351,-0.97476 -4.3643,-3.22628 -6.02402,-5.00338 -1.65972,-1.7771 -3.33196,-3.23343 -3.71606,-3.23629 -0.99595,-0.008 -5.92785,1.67734 -5.92785,2.02496 0,0.15971 1.39712,0.67892 3.10465,1.1538 3.77076,1.04866 7.79062,3.58983 9.32552,5.89509 1.03542,1.55514 1.33652,1.68324 3.40685,1.44942 1.2491,-0.14109 2.39845,-0.31382 2.55416,-0.3839 z M 246.9488,644.66254 c 0,-0.82911 -3.12015,-0.77361 -4.58239,0.0815 -1.97086,1.15255 -1.97981,1.41111 -0.0561,1.61912 1.44878,0.15664 4.63835,-1.0128 4.63835,-1.70063 z m 320.68128,1.04844 c -0.0374,-0.602 -2.17559,-1.84359 -3.16156,-1.83596 -0.43236,0.003 -1.33478,0.16246 -2.00539,0.35359 -1.00857,0.28745 -0.93614,0.51644 0.41897,1.32485 1.63487,0.97531 4.80551,1.08049 4.74798,0.15752 z m -309.87519,-2.14022 c 1.55643,-0.79538 6.24297,-4.88448 5.81748,-5.07593 -0.51136,-0.23012 -2.96487,0.78037 -5.32612,2.19361 -3.87197,2.31739 -4.30006,4.82863 -0.49136,2.88232 z m 296.64254,0.39756 c -0.0167,-0.64134 -5.22836,-4.32558 -7.40739,-5.2376 -1.26652,-0.5301 -2.30281,-0.83723 -2.30281,-0.68252 0,0.58733 4.69138,4.46799 6.43594,5.32378 1.82013,0.89283 3.28995,1.16053 3.27426,0.59634 z m 23.84306,-0.39756 c -0.0417,-0.63277 -3.28955,-2.17494 -3.79915,-1.80392 -0.29551,0.21529 0.25913,0.77633 1.23327,1.24676 1.85426,0.8956 2.59883,1.05728 2.56588,0.55716 z m -344.00283,-1.97614 c -0.37719,-0.16973 -1.24963,0.0385 -1.93877,0.4625 -1.94629,1.19772 -1.47546,1.69104 0.68577,0.71851 1.06631,-0.47984 1.63017,-1.01129 1.253,-1.18101 z m 17.9228,-0.80678 c 0.94249,-0.81998 3.73359,-2.37866 6.20243,-3.46372 2.46887,-1.08509 4.48885,-2.10918 4.48885,-2.27577 0,-0.16661 -1.20685,-0.58375 -2.68188,-0.92698 l -2.68191,-0.62408 -2.24798,2.30351 c -1.23641,1.26691 -3.80572,3.14023 -5.70957,4.16291 -3.4927,1.87614 -3.47781,2.00061 0.27181,2.26885 0.35456,0.0254 1.41579,-0.62476 2.35825,-1.44472 z m 310.19672,0.7705 c 0,-0.12652 -1.01365,-0.70615 -2.25253,-1.28803 -1.23887,-0.58189 -3.73666,-2.32714 -5.55062,-3.87834 -3.19698,-2.7339 -3.36494,-2.80538 -5.47806,-2.33131 -2.85371,0.6402 -2.75116,1.09898 0.61799,2.76505 1.5389,0.76097 4.2314,2.28141 5.98335,3.37874 2.4307,1.52246 3.59932,1.94643 4.93263,1.78955 0.96099,-0.11315 1.74724,-0.30913 1.74724,-0.43566 z m -227.60303,-1.59085 c 0.69662,-0.61487 1.40116,-2.92367 1.66042,-5.44125 0.39262,-3.81292 0.85133,-4.82206 3.58052,-7.87703 1.86187,-2.08413 5.35865,-4.88405 8.63003,-6.91018 l 5.49987,-3.40633 -5.13179,-2.09838 c -5.74693,-2.3499 -10.41844,-2.98487 -15.93379,-2.16579 -3.5237,0.52329 -3.6576,0.70412 -4.26577,5.76013 -0.66296,5.51147 -2.70979,8.77588 -8.91115,14.2119 -7.7206,6.76776 -7.67065,6.65562 -2.9761,6.67936 2.52991,0.0135 5.74823,0.46761 9.55713,1.35061 3.15851,0.73221 6.04375,1.24889 6.41163,1.14817 0.36791,-0.10067 1.21346,-0.66375 1.879,-1.25121 z m 148.67113,-0.0742 c 3.0529,-0.73307 6.28081,-1.19269 8.37652,-1.19269 4.7772,0 4.53951,-0.6702 -2.30124,-6.48845 -6.56824,-5.5865 -9.22474,-9.80565 -9.77511,-15.52518 -0.192,-1.99599 -0.36447,-3.74574 -0.38311,-3.88835 -0.0765,-0.58519 -5.91673,-1.12453 -9.69019,-0.89486 -3.23936,0.19716 -5.06924,0.66251 -9.25333,2.35315 l -5.21543,2.10739 3.94497,2.52119 c 9.58778,6.12746 12.97513,10.21148 13.44375,16.20871 0.32157,4.11587 1.75075,5.99177 4.56469,5.99177 0.72688,0 3.55668,-0.5367 6.28848,-1.19268 z M 303.40283,634.3 c 3.02972,-5.50312 11.07245,-13.74326 16.07044,-16.46489 4.22879,-2.30277 4.79686,-2.76603 5.53335,-4.51251 0.30754,-0.72905 1.35735,-1.83009 2.33317,-2.44675 2.63149,-1.66295 2.3505,-3.42967 -0.65539,-4.12085 -4.70566,-1.08204 -7.89507,-1.17677 -9.85932,-0.29289 -2.05651,0.9254 -2.03184,0.88267 -4.4377,7.6892 -2.16928,6.13727 -5.45221,10.07675 -13.16924,15.80293 -3.09413,2.29592 -6.56547,4.96681 -7.71409,5.9353 l -2.08837,1.76092 4.60884,1.06356 c 3.57191,0.82426 4.86394,0.95859 5.74259,0.59704 0.62356,-0.25659 2.25963,-2.51157 3.63572,-5.01106 z m -63.52198,4.03541 c 0,-0.41621 -2.69901,-0.75763 -4.19661,-0.53088 -0.60744,0.0919 -1.10438,0.40573 -1.10438,0.69727 0,0.29155 0.49694,0.61027 1.10438,0.70828 1.30613,0.21074 4.19661,-0.39169 4.19661,-0.87467 z m 274.64969,0.31218 c 2.87949,-0.53849 4.5353,-1.08905 4.5353,-1.50802 0,-0.36295 -2.20203,-2.17284 -4.8934,-4.02201 -5.68258,-3.90433 -11.89977,-9.47252 -14.46064,-12.95114 -0.9851,-1.33811 -2.5632,-4.70515 -3.50693,-7.48232 -1.15085,-3.38664 -2.2239,-5.30198 -3.25859,-5.81647 -1.83459,-0.91219 -5.47322,-0.98393 -9.69043,-0.19102 -3.79657,0.71382 -4.0024,1.89414 -0.8356,4.79102 1.1952,1.0933 2.19115,2.34562 2.21326,2.78294 0.0234,0.43731 1.98993,1.94787 4.37288,3.35681 7.06522,4.1773 13.43217,11.1023 18.57107,20.19869 0.52499,0.9293 1.28375,1.68964 1.68616,1.68964 0.40237,0 2.7725,-0.38166 5.26692,-0.84812 z m 58.79808,0.6068 c 0.76865,-0.13268 1.39753,-0.59937 1.39753,-1.037 0,-0.66936 -0.38548,-0.75215 -2.4278,-0.52149 -3.15371,0.35618 -3.34385,0.46925 -2.00743,1.19386 1.28125,0.69469 1.18982,0.68372 3.0377,0.36463 z m -11.85393,-3.53477 c -2.09458,-1.52505 -4.24886,-1.94631 -2.5451,-0.49769 2.18985,1.86191 3.80054,2.77643 4.12308,2.34101 0.18365,-0.24813 -0.52629,-1.0776 -1.57798,-1.84332 z m -312.73017,0.3759 c 1.06691,-0.7768 1.74103,-1.50183 1.49803,-1.61117 -0.6262,-0.28178 -4.17724,1.82714 -4.17724,2.48083 0,0.8456 0.58356,0.65618 2.67921,-0.86966 z m 33.54377,0.0212 c 0.6047,-0.32787 1.6485,-1.80381 2.31951,-3.27988 1.67364,-3.68142 10.54209,-11.54371 17.11317,-15.17159 5.62435,-3.10518 5.54989,-3.03641 7.10489,-6.5618 0.99965,-2.26634 0.96165,-2.37827 -1.04354,-3.07224 -5.09238,-1.76244 -7.29545,-0.65871 -10.82702,5.4243 -2.76519,4.763 -11.67455,12.93809 -19.3663,17.77022 -2.86466,1.79964 -4.84574,3.32649 -4.40247,3.39298 0.44332,0.0666 2.17569,0.55611 3.84974,1.08802 3.64083,1.15688 3.84509,1.17282 5.25202,0.40999 z m 249.80231,-0.59655 c 2.06145,-0.54666 3.75112,-1.16129 3.75486,-1.36589 0.003,-0.20457 -1.50428,-1.18855 -3.35115,-2.18659 -8.88321,-4.80035 -15.9875,-11.2138 -20.56017,-18.56073 -1.48036,-2.37854 -3.27351,-4.72716 -3.9848,-5.21914 -1.56478,-1.08238 -3.90766,-1.1434 -6.57558,-0.17126 -1.83336,0.66803 -1.93657,0.92643 -1.35161,3.38429 0.55317,2.32441 1.0992,2.91907 4.31662,4.70101 2.02586,1.12199 4.80951,2.68512 6.18593,3.47366 3.93959,2.25689 12.03906,10.20398 13.57078,13.31546 1.33712,2.71616 2.58988,3.97525 3.71707,3.73572 0.29151,-0.0619 2.21662,-0.55988 4.27805,-1.10653 z m -288.72263,-1.03613 c 1.18906,-0.78552 3.49591,-1.8861 5.12638,-2.44571 2.98765,-1.02541 2.69914,-1.66556 -0.75733,-1.68038 -1.36931,-0.006 -7.85617,4.224 -7.85617,5.12275 0,0.81373 1.31624,0.43752 3.48712,-0.99666 z m 323.35635,-1.46411 c -3.14626,-2.61396 -3.71386,-2.82805 -6.62611,-2.49913 -2.81284,0.31768 -2.72502,0.70173 0.34714,1.51836 1.37812,0.36631 3.62925,1.39562 5.00253,2.28734 3.5714,2.31901 4.49833,1.37021 1.27644,-1.30657 z m -297.99452,-1.4782 c 0.59375,-0.5451 2.73488,-2.51177 4.75803,-4.37036 3.60256,-3.30956 13.29536,-10.29685 17.17825,-12.38337 1.11176,-0.59743 2.42874,-2.14522 3.04448,-3.57805 0.59685,-1.38885 1.65047,-2.92142 2.34139,-3.40571 1.94344,-1.36226 1.58922,-1.82503 -1.17343,-1.53297 -3.69159,0.39025 -5.822,1.74643 -9.49505,6.04438 -6.44156,7.5375 -12.90702,12.71185 -20.61917,16.50171 -2.50967,1.23327 -4.56305,2.40633 -4.56305,2.60679 0,0.43774 4.33215,1.26344 6.15411,1.17297 0.71219,-0.0353 1.7807,-0.5103 2.37444,-1.05539 z m 26.2332,-2.68072 c 5.60495,-4.42503 9.79905,-8.40704 9.15839,-8.69532 -0.7614,-0.34263 -4.03205,2.03516 -8.90772,6.47602 -7.81316,7.1164 -7.94626,8.29484 -0.25077,2.2193 z m 250.69677,3.41963 c 1.65177,-0.25111 3.16366,-0.51713 3.35977,-0.59113 0.19601,-0.0739 -2.15415,-1.5111 -5.22284,-3.19352 -7.81634,-4.28542 -13.145,-8.33202 -17.97328,-13.64903 -5.85068,-6.44284 -7.46328,-7.78715 -9.95409,-8.29782 -2.32132,-0.47594 -4.75496,-0.59366 -4.75496,-0.23 0,0.12021 0.55124,0.70162 1.22499,1.29208 0.67375,0.59045 1.92515,2.23642 2.78092,3.65769 0.88579,1.47115 2.93379,3.44031 4.75502,4.57196 8.53179,5.30139 14.74925,10.08733 19.8046,15.24478 1.80183,1.83822 1.77902,1.83366 5.97987,1.19499 z m -31.10338,-4.88924 c -2.56895,-2.53582 -5.785,-5.18811 -7.14676,-5.89397 -2.72599,-1.41301 -2.6738,-1.22161 0.62563,2.29467 1.79055,1.90825 10.44328,8.5468 10.88239,8.34921 0.1703,-0.0766 -1.79228,-2.21407 -4.36126,-4.74991 z m -256.58816,-0.31942 c 1.22993,-1.14795 5.51549,-4.02867 9.52346,-6.40156 11.39873,-6.74854 11.91775,-7.10995 15.28202,-10.64154 1.74577,-1.83256 3.38726,-3.55554 3.64781,-3.82887 0.26046,-0.27333 -0.12989,-0.49695 -0.86752,-0.49695 -1.96609,0 -5.17139,1.88573 -9.93002,5.842 -5.22868,4.34706 -13.34137,9.74503 -18.14575,12.07369 -5.42643,2.63017 -7.87894,3.97511 -7.87894,4.32073 0,0.17025 1.29214,0.49607 2.87138,0.72403 1.57924,0.22797 2.9591,0.43276 3.06635,0.45508 0.10719,0.0224 1.20128,-0.89866 2.43121,-2.04661 z m 299.13184,1.48064 c 1.43366,-0.33361 2.60662,-0.70452 2.60662,-0.82426 0,-0.11976 -2.48484,-1.45519 -5.52184,-2.96766 -4.27037,-2.12666 -6.07254,-2.7508 -7.95147,-2.75377 -1.33631,-10e-4 -2.42964,0.0933 -2.42964,0.21198 0,0.11871 1.54402,1.1474 3.43117,2.28598 1.88715,1.13857 4.08401,2.65156 4.88191,3.36221 1.67831,1.49474 1.56982,1.47982 4.98325,0.68552 z m 447.88903,-20.86178 v -15.10732 l -2.2087,-0.0442 c -1.2148,-0.0244 -3.00392,-0.0442 -3.97579,-0.0442 -0.97185,0 -67.31876,0.0198 -147.4376,0.0442 l -145.67063,0.0442 0.0661,15.10732 0.0658,15.10734 h 149.58043 149.58039 z m -460.30187,12.08511 c 0,-0.11615 -0.94416,-0.78081 -2.09812,-1.47687 -1.15399,-0.69604 -4.80651,-3.41237 -8.11673,-6.03628 -6.6965,-5.30809 -8.80784,-6.55975 -11.06528,-6.55975 -1.29086,0 -0.84354,0.70972 2.81088,4.45955 2.39036,2.45274 5.61606,5.181 7.16826,6.0628 7.5688,4.29977 8.11075,4.53017 9.73594,4.13877 0.86078,-0.2073 1.56505,-0.47199 1.56505,-0.58822 z m 35.78164,-2.75512 c 14.09176,-1.20282 32.77773,-2.79959 41.52436,-3.5484 8.74661,-0.74881 21.46896,-1.83336 28.27188,-2.4101 21.0399,-1.78374 37.6576,-3.288 37.99373,-3.43925 0.28149,-0.12667 -20.11481,-1.70144 -76.42583,-5.90066 -18.60896,-1.38772 -67.82113,-5.12825 -85.97423,-6.53477 -7.19715,-0.55764 -13.9258,-1.01389 -14.95257,-1.01389 h -1.86685 l 1.82844,0.89451 c 1.00564,0.49198 3.91462,2.38243 6.4644,4.20095 3.58179,2.55462 5.76242,3.64133 9.59015,4.77919 4.43142,1.31732 5.48287,1.92181 9.96434,5.72872 2.75558,2.34081 6.87144,5.5044 9.1464,7.03019 3.66952,2.46112 4.40027,2.7531 6.47535,2.58732 1.28646,-0.10278 13.86867,-1.171 27.96043,-2.37381 z m -221.44638,-6.50796 c 1.28723,-1.93332 1.3061,-5.27898 0.0367,-6.53255 -0.75005,-0.74078 -2.333,-1.13016 -6.81243,-1.67578 l -5.83532,-0.71077 -5.99707,2.94915 c -4.36227,2.1452 -5.99744,3.24718 -5.99828,4.04245 -10e-4,1.03193 0.2234,1.09328 4.00294,1.09328 5.31804,0 9.48413,0.83309 12.88667,2.57691 l 2.79465,1.43226 1.95406,-0.82607 c 1.07476,-0.45434 2.41034,-1.51134 2.96799,-2.34888 z m 105.54493,-0.41356 c 1.36793,-0.23136 4.00901,-0.42066 5.86907,-0.42066 6.37771,0 5.57727,-1.64942 -2.77898,-5.72659 -5.20464,-2.53943 -5.77575,-2.70874 -7.63044,-2.26208 -1.1026,0.26554 -3.65996,0.60995 -5.68302,0.76534 -4.2693,0.32796 -4.85874,0.87851 -4.96699,4.63919 -0.0691,2.39904 2.27713,5.59683 4.57524,6.23596 0.63995,0.17797 2.45838,-0.31999 4.59363,-1.25796 1.94389,-0.85389 4.65358,-1.74183 6.02149,-1.9732 z m -19.46721,-6.03565 c 0.42271,-1.24774 0.1536,-1.55184 -2.0097,-2.27157 -4.2106,-1.40082 -5.33818,-4.44895 -3.11233,-8.41345 0.53183,-0.9473 0.49089,-0.94153 -0.87384,0.12306 -3.51361,2.74098 -2.36359,9.95692 1.91817,12.0359 2.5607,1.24333 3.24036,0.99766 4.0777,-1.47399 z m -130.86548,-0.24903 c 2.05224,-1.25729 5.24572,-3.19702 7.09657,-4.31052 3.70391,-2.22827 4.07102,-2.96816 1.94689,-3.92398 -3.07588,-1.3841 -10.43294,0.77259 -15.35609,4.50156 -4.79953,3.63538 -4.98172,4.73654 -0.8955,5.41251 1.70072,0.28135 3.17875,0.53288 3.2845,0.55897 0.10585,0.0261 1.87136,-0.98126 3.92363,-2.23854 z m 54.58127,1.42601 c 2.89833,-1.39991 3.82823,-3.33289 3.38622,-7.03898 -0.39056,-3.27441 -1.95898,-5.80088 -3.35941,-5.41143 -0.35949,0.0999 -0.11987,0.85471 0.53217,1.67717 0.65222,0.82246 1.19454,2.03209 1.20519,2.68807 0.0267,1.61486 -2.8989,4.40505 -5.19877,4.95892 -1.58422,0.38152 -1.78233,0.67776 -1.28429,1.92049 0.96229,2.40118 1.8005,2.61536 4.71889,1.20576 z m 135.64605,-1.95623 c -3.31786,-4.2316 -10.73967,-7.91796 -15.94135,-7.91796 -2.78248,0 -3.91123,0.52906 -3.91123,1.83324 0,0.31653 1.49088,1.45569 3.31312,2.53148 1.8222,1.07576 4.78637,2.92707 6.58704,4.11399 l 3.27392,2.15806 3.9467,-0.58467 3.9467,-0.58468 z m -167.44409,-0.37688 c 5.25954,-2.72106 5.15372,-3.07769 -1.23904,-4.17629 -3.50326,-0.60205 -4.01222,-0.60278 -6.56143,-0.009 -2.37711,0.55314 -6.38409,2.81259 -7.67729,4.32903 -0.35215,0.41298 7.1898,2.10541 9.87094,2.21505 0.53454,0.0218 3.05761,-1.03933 5.60682,-2.3582 z m 145.8245,1.57666 c 1.70072,-0.27057 3.63228,-0.5561 4.29234,-0.6345 0.95929,-0.1139 0.89154,-0.36109 -0.33779,-1.2318 -6.58337,-4.66285 -9.8078,-5.28342 -17.03069,-3.27771 l -2.91596,0.80971 5.1052,2.60047 c 3.21786,1.63909 5.60235,2.53119 6.44994,2.41312 0.7396,-0.10308 2.73624,-0.40872 4.43696,-0.67929 z m -186.95076,-0.3714 c 1.58669,0 2.74038,-0.67193 5.89135,-3.43119 4.34083,-3.8012 8.93089,-6.12995 14.10852,-7.15789 3.76592,-0.74766 3.828,-1.34257 0.13858,-1.32903 -6.83845,0.0251 -11.35482,1.93905 -20.74619,8.79171 -4.52368,3.30082 -4.87824,3.73298 -2.76295,3.36772 0.76865,-0.13268 2.28538,-0.24132 3.37055,-0.24132 z m 222.29062,0.13118 c 0,-0.69378 -11.91016,-8.56531 -14.52021,-9.59653 -2.83899,-1.12167 -10.72718,-2.31873 -13.01667,-1.97531 -0.59541,0.0892 0.78364,0.56891 3.06458,1.06578 5.31404,1.15758 9.42496,3.33735 13.6192,7.22143 3.11711,2.88664 3.55268,3.10704 6.43564,3.2568 1.70072,0.0883 3.39043,0.19071 3.75487,0.22746 0.36444,0.0368 0.66259,-0.053 0.66259,-0.19963 z M 363.3509,599.64031 c 2.58895,-1.24809 3.1521,-2.63425 1.80995,-4.45482 l -1.14872,-1.55816 -6.62621,-0.0415 c -5.54137,-0.0347 -7.49414,-0.24094 -11.92723,-1.25976 -2.91552,-0.67005 -6.42205,-1.34003 -7.79229,-1.48882 -2.58835,-0.28109 -13.26371,0.47877 -12.73531,0.90649 0.16562,0.13388 1.2737,1.17853 2.46276,2.32134 2.08166,2.00069 2.29503,2.07818 5.74787,2.08719 2.54898,0.006 5.10387,0.42779 8.83499,1.45632 10.84996,2.9909 17.97889,3.66854 21.37419,2.03172 z m 94.14813,0.017 c 2.51969,-0.48267 6.76792,-1.46618 9.44049,-2.18556 3.66911,-0.98761 5.88707,-1.30821 9.05584,-1.30897 3.42035,-8.4e-4 4.19661,-0.13088 4.19661,-0.70265 0,-0.38589 0.78628,-1.36177 1.7473,-2.1686 0.96099,-0.80685 1.45797,-1.54467 1.10438,-1.6396 -1.66853,-0.44798 -10.68832,-1.05419 -12.19643,-0.81973 -0.93445,0.14531 -4.64987,0.8887 -8.25651,1.65205 -6.01744,1.27358 -7.01049,1.36703 -12.05635,1.13439 l -5.4988,-0.25351 -0.97521,1.25886 c -1.54104,1.9892 -1.15503,3.36842 1.31204,4.68774 2.79738,1.49599 5.6909,1.57845 12.12664,0.34558 z m 5.32906,-9.73717 c 6.68715,-1.37436 7.19515,-1.4164 14.36431,-1.18874 7.20609,0.22884 7.4757,0.20599 8.87039,-0.75183 1.90411,-1.30767 1.18244,-4.54546 -1.59708,-7.16534 -2.04132,-1.92407 -2.10553,-1.94412 -5.59897,-1.74762 -4.13613,0.23266 -14.83864,0.21939 -21.35322,-0.0265 -5.5803,-0.21057 -8.01091,0.62768 -10.85324,3.74301 -1.02774,1.12645 -2.27493,2.37482 -2.7715,2.77416 -1.58766,1.27677 -2.02452,4.41831 -0.68317,4.91287 1.59544,0.58825 8.69328,1.27025 10.9232,1.04958 0.97187,-0.0962 4.88655,-0.81602 8.69928,-1.59964 z m -99.55406,1.04844 c 4.31779,-0.73871 4.96245,-2.20593 2.16106,-4.91852 -0.91811,-0.88901 -2.66959,-2.6297 -3.89217,-3.86823 -2.63095,-2.6653 -4.57287,-3.22714 -10.6613,-3.08451 -8.05285,0.18864 -18.60379,0.17344 -21.32587,-0.0307 -2.43995,-0.18299 -2.80934,-0.0491 -4.65087,1.68529 -2.62408,2.47145 -3.49174,6.17882 -1.69695,7.25056 1.14398,0.68312 2.39554,0.78706 9.57466,0.79513 7.5168,0.009 8.77448,0.12486 14.00136,1.29604 6.11568,1.37032 11.82415,1.67322 16.49008,0.87495 z m -45.04922,-1.37705 c 0.7775,-0.10518 0.7971,-0.49366 0.0781,-1.54778 l -0.95985,-1.40734 -2.91272,1.48279 c -1.60201,0.81553 -2.92928,1.61249 -2.94951,1.77101 -0.0334,0.25603 3.9467,0.0798 6.74395,-0.29868 z m 179.63711,0.44564 c 0,-0.0887 -1.35996,-0.89364 -3.02211,-1.78887 l -3.02215,-1.62772 -0.57881,1.18591 c -0.31823,0.65226 -0.64811,1.32132 -0.73276,1.4868 -0.0848,0.16548 1.03883,0.41565 2.49659,0.55593 3.45307,0.33226 4.85924,0.38665 4.85924,0.18795 z m -185.07787,-5.3053 c 0.76414,-1.2573 2.12266,-3.30581 3.0189,-4.55228 l 1.6296,-2.26627 -2.11075,-1.87611 c -2.97492,-2.64422 -2.90096,-6.53899 0.20804,-10.96411 l 2.31894,-3.3004 -1.41389,-6.1622 c -0.77763,-3.38922 -1.6511,-8.13013 -1.94107,-10.53538 -0.8306,-6.88972 -6.6949,-40.80181 -8.38741,-48.50249 -0.52863,-2.40524 -1.72156,-7.2356 -2.65092,-10.73415 -0.9294,-3.49854 -2.49151,-10.11793 -3.4714,-14.70977 -0.97989,-4.59183 -2.66231,-12.3741 -3.7387,-17.29392 -2.47081,-11.29336 -2.71751,-27.94317 -0.48008,-32.40125 1.38744,-2.76443 1.38269,-2.79266 -0.71165,-4.24663 -1.15961,-0.80504 -3.88339,-2.36304 -6.05284,-3.4622 -2.16944,-1.09918 -5.2566,-2.90043 -6.86032,-4.00276 -1.60372,-1.10235 -3.38374,-2.00427 -3.95558,-2.00427 -1.8601,0 -5.09576,3.66647 -5.43816,6.1622 -0.28316,2.06368 0.21204,3.03175 3.67262,7.17839 4.77593,5.72299 6.80132,11.55146 8.97217,25.81921 1.46407,9.62259 7.48946,40.36583 9.70081,49.49638 2.66518,11.00444 8.35348,37.03 9.68859,44.32808 3.51047,19.18916 3.46729,22.00056 -0.48993,31.90557 -1.30386,3.26361 -1.69945,5.41051 -1.31351,7.12862 0.90369,4.02315 4.1496,7.28171 7.25345,7.28171 0.6665,0 1.75715,-0.9766 2.55295,-2.28597 z m 190.47509,0.19878 c 2.91889,-2.92779 2.90266,-9.09848 -0.0448,-17.05369 l -2.15732,-5.82257 1.54244,-10.47744 c 1.99357,-13.54189 7.69539,-41.51585 12.48848,-61.27033 1.86965,-7.70569 2.19946,-7.05229 -3.55952,-7.05229 -3.11201,0 -5.02904,0.18049 -5.27808,0.49695 -1.35698,1.72429 -7.27198,32.40284 -11.01869,57.14944 -0.97662,6.45044 -2.2573,13.75719 -2.84594,16.23724 -1.0238,4.31362 -0.97798,4.66707 1.05653,8.15001 2.70538,4.63142 2.75517,8.7083 0.1339,10.97122 -2.00816,1.73366 -1.96359,1.87327 2.64191,8.27388 2.31006,3.21048 4.13403,3.31346 7.04104,0.39758 z m -130.41553,-3.2799 c 1.45439,-1.31151 1.7641,-2.39159 1.76697,-6.16219 0.003,-4.46095 -0.0795,-4.654 -3.41126,-7.95122 -4.51436,-4.46742 -6.32014,-6.84015 -9.37951,-12.32441 -7.88012,-14.12587 -10.28234,-33.45003 -8.69819,-69.97079 0.33823,-7.79757 0.18533,-19.46262 -0.35418,-27.03417 -1.71445,-24.05697 1.5801,-36.26951 12.49458,-46.3159 2.37554,-2.18659 4.55033,-4.33342 4.83293,-4.77074 1.18455,-1.8333 3.16256,-7.69047 3.17762,-9.40956 0.0267,-3.12721 0.0561,-3.11818 -9.1229,-2.85888 -5.86578,0.16571 -9.74315,0.0529 -14.10742,-0.41067 -8.40273,-0.89241 -9.5784,-0.82548 -12.94371,0.73693 -1.6302,0.75686 -4.25311,1.65137 -5.82868,1.9878 -5.72082,1.22158 -14.57965,0.42791 -19.65076,-1.76055 -1.90248,-0.82103 -2.32355,-0.84636 -6.5258,-0.39273 -4.4784,0.48345 -17.25452,0.34468 -20.37981,-0.22135 -2.67807,-0.48503 -4.46498,2.17928 -3.99946,5.9633 0.45273,3.67992 3.17912,6.52267 9.74849,10.16459 8.05977,4.46814 14.13057,9.05137 16.5586,12.50114 0.61558,0.87463 1.40884,1.76916 1.7628,1.98781 0.35392,0.21866 1.4805,1.82878 2.50343,3.57806 6.48002,11.08092 12.47121,36.43411 14.30203,60.52227 1.12705,14.82865 1.22128,58.29424 0.13591,62.72173 -1.11536,4.55002 -4.2291,11.9976 -5.9151,14.14793 -0.74037,0.94423 -1.29821,3.06741 -1.29821,4.94095 0,4.35098 0.87948,4.8459 9.71847,5.46903 6.5424,0.46122 8.49583,0.48036 22.67869,0.22224 6.18951,-0.11269 7.57374,-0.0135 9.71847,0.69195 2.27834,0.75 5.6717,3.25256 6.87485,5.07011 0.77229,1.16666 3.41937,0.61025 5.34108,-1.12268 z m 70.08602,-0.71326 c 2.11916,-1.93703 3.5682,-2.71237 6.41444,-3.4322 3.30026,-0.83466 4.27651,-0.89709 9.53178,-0.60971 9.95599,0.54444 20.15171,0.29405 27.20904,-0.66824 4.98393,-0.67958 6.09157,-4.30932 2.99553,-9.81645 -2.96892,-5.28099 -5.30315,-11.61326 -6.25282,-16.96259 -0.88996,-5.01292 -0.54426,-46.56056 0.50015,-60.11264 l 0.46581,-6.04431 -5.9974,-0.11795 c -5.32108,-0.10458 -5.9974,-0.20757 -5.9974,-0.91302 0,-0.70497 0.67608,-0.80844 5.96361,-0.91268 4.21517,-0.0831 5.96358,-0.27124 5.96358,-0.64175 0,-2.34002 3.99358,-22.84843 5.80967,-29.83474 4.08177,-15.70208 7.37666,-22.53837 14.11393,-29.28389 4.63876,-4.64445 8.38437,-7.40271 14.66187,-10.79704 2.43504,-1.31667 5.63737,-3.48589 7.1163,-4.82049 2.31851,-2.09227 2.70449,-2.89425 2.80189,-5.82159 0.0868,-2.61229 -0.23975,-3.63757 -1.41632,-4.44699 -1.37235,-0.94403 -1.82494,-1.01378 -4.41165,-0.67997 -3.92523,0.50657 -14.06759,0.46884 -18.82341,-0.07 -3.66781,-0.41558 -4.07429,-0.37632 -6.79658,0.65659 -8.10116,3.07378 -17.40989,2.92037 -24.71516,-0.40732 l -3.26627,-1.48784 -8.21921,0.68093 c -5.18484,0.42956 -11.15467,0.62971 -16.17065,0.54214 l -7.95147,-0.13884 0.13658,4.1744 c 0.15727,4.8127 2.04726,8.93803 5.27573,11.51633 4.0585,3.2412 8.08007,8.09163 9.89943,11.93978 3.85477,8.1534 3.95328,9.5899 3.97983,58.04396 0.0234,40.43543 -0.16663,47.32541 -1.48802,54.26711 -2.66608,14.00714 -6.70074,22.59666 -14.57498,31.02929 -5.9811,6.40524 -7.02344,9.05586 -5.09501,12.95628 1.4049,2.84156 3.34731,4.7157 4.88752,4.7157 0.39165,0 1.94401,-1.12603 3.44969,-2.5023 z M 321.56381,519.63117 c -0.49845,-28.04643 -1.18856,-37.98691 -3.56046,-51.28541 -1.59146,-8.92283 -5.13706,-23.456 -7.02761,-28.80584 -1.71018,-4.83941 -7.04114,-14.38493 -8.95845,-16.04079 l -1.47111,-1.27049 -0.77897,1.19268 c -0.42846,0.65598 -0.82048,5.5758 -0.87117,10.93294 -0.10785,11.38039 1.90278,21.94606 10.70428,56.25492 0.95361,3.71721 2.17512,9.44209 2.71443,12.72197 0.53935,3.27988 1.75265,10.16763 2.69621,15.30611 0.94356,5.13849 2.30842,13.45745 3.03306,18.4866 0.72461,5.02915 1.60148,10.39624 1.94863,11.92684 l 0.63114,2.78294 0.71375,-2.38537 c 0.39259,-1.31196 0.4944,-14.72966 0.2264,-29.8171 z m 169.23162,19.26428 c 2.8262,-18.61594 8.74203,-49.71005 10.30241,-54.15029 l 0.52388,-1.49086 h -6.21972 -6.21973 l -0.54503,1.49086 c -0.91374,2.49946 -2.07374,55.64245 -1.32122,60.52871 0.38728,2.51458 0.73185,4.91485 0.76578,5.33395 0.0341,0.41909 0.24476,0.6796 0.46852,0.57889 0.22373,-0.10067 1.23411,-5.63177 2.24511,-12.29126 z M 1004.9891,482.45902 V 467.3517 H 855.23637 705.48367 v 15.10732 15.10734 h 149.7527 149.75273 z m -501.91275,-5.66524 c 3.94346,-16.25518 6.46078,-30.53184 6.89605,-39.11029 0.4961,-9.77692 -0.14626,-16.0283 -1.58041,-15.38291 -2.92561,1.3165 -8.77719,11.73418 -11.34821,20.20354 -3.57061,11.76205 -7.92653,32.36987 -8.0042,37.86771 -0.0134,0.84688 0.33259,0.89451 6.46954,0.89451 h 6.48219 z m 14.22973,3.77683 c 0.003,-0.38265 0.38278,-2.2164 0.84178,-4.07501 0.45898,-1.85859 2.04787,-10.44591 3.53087,-19.08294 4.81296,-28.03077 5.64415,-30.69511 11.72053,-37.56954 3.11434,-3.52336 3.4514,-4.22436 2.96308,-6.1622 -0.55792,-2.21377 -4.3817,-6.36099 -5.86494,-6.36099 -0.44408,0 -1.86488,0.76034 -3.15732,1.68964 -1.29244,0.92931 -4.68236,3.00041 -7.53317,4.60246 -7.08986,3.98423 -7.87427,4.7413 -6.89869,6.65792 1.98676,3.90314 2.79328,13.20747 1.81119,20.89409 -0.95451,7.47096 -6.65583,36.20283 -7.70117,38.81023 l -0.51801,1.29207 h 5.39932 c 4.55043,0 5.40042,-0.10939 5.40653,-0.69573 z m -22.66576,-87.21597 c 7.62821,-3.05941 13.07909,-7.09645 15.07943,-11.16818 l 0.5311,-1.08102 -10.83283,-0.11165 -10.83284,-0.11164 -0.27949,-1.09329 -0.27949,-1.09328 h 10.75036 10.75036 l -2.19393,-1.6717 c -3.2644,-2.48736 -9.47995,-3.93303 -17.64056,-4.103 -12.19934,-0.25407 -20.97592,1.13954 -26.05772,4.13766 -2.40382,1.41818 -2.87953,2.04305 -2.87953,3.78236 0,3.37728 2.16911,5.88155 7.86065,9.07513 6.53662,3.66779 9.80513,5.04149 12.87425,5.41084 4.72805,0.569 8.06033,0.0693 13.15038,-1.97218 z m -164.33746,1.18722 c 3.43374,-1.04884 8.75756,-3.57775 12.11058,-5.75276 3.86666,-2.50819 5.64479,-4.87112 5.67153,-7.53689 0.0457,-4.54663 -6.62363,-7.24261 -20.28006,-8.19797 -22.5712,-1.57903 -34.83314,5.00162 -25.24523,13.54844 3.03864,2.70871 8.94799,5.82147 14.53881,7.65834 4.27909,1.4059 9.17983,1.51012 13.20437,0.28084 z M 1004.9891,379.88821 V 364.78088 H 855.23637 705.48367 v 14.84229 c 0,8.16325 0.26513,14.96156 0.589,15.10732 0.3239,0.14575 67.71268,0.26504 149.7527,0.26504 h 149.16373 z m -705.37663,9.82975 c 0.20736,-0.0933 -0.9124,-1.40386 -2.48807,-2.91245 -2.42974,-2.32632 -2.86644,-3.19626 -2.87506,-5.7278 -0.01,-2.51853 0.3553,-3.26392 2.32896,-4.77073 5.38246,-4.10925 11.90733,-5.64095 24.02355,-5.63949 9.88046,0.001 15.42721,0.54673 21.52789,2.11741 5.1566,1.32758 8.65888,3.13968 10.46165,5.41287 1.94626,2.45411 1.65124,3.94219 -1.88074,9.48704 -0.46328,0.72729 -10e-4,0.8997 3.46155,1.29207 9.64756,1.09315 17.28741,0.25757 18.52145,-2.02568 1.45823,-2.69803 3.37333,-11.56148 2.94911,-13.64899 -0.91364,-4.49599 -3.21935,-6.41166 -13.20687,-10.97271 -13.15508,-6.00756 -18.08174,-10.18783 -26.86374,-22.79376 -10.21885,-14.66848 -15.83712,-24.76852 -38.5902,-69.37445 -12.77742,-25.04928 -20.4481,-43.61317 -21.43777,-51.88177 l -0.52342,-4.37316 3.19221,-2.97051 c 4.06945,-3.78679 4.18341,-5.67068 0.54172,-8.95633 -2.05986,-1.85847 -2.64168,-2.91228 -2.6341,-4.77074 0.0267,-6.47206 6.8087,-12.45567 16.42332,-14.48935 3.68074,-0.77853 3.99713,-0.95452 3.46983,-1.93 -0.96599,-1.78713 -4.70012,-3.99498 -9.23776,-5.46192 -2.36292,-0.76387 -6.91589,-2.70602 -10.11775,-4.31585 -7.50211,-3.7719 -8.92304,-3.96463 -10.29245,-1.39596 -2.603,4.88258 -14.7022,8.49164 -23.72355,7.0765 -3.03917,-0.47676 -3.76345,-1.54808 -1.04654,-1.54808 2.96738,0 2.7472,-0.6383 -0.45744,-1.32595 -6.49691,-1.39413 -12.57022,-0.32894 -17.7605,3.11499 -2.74636,1.82228 -6.33016,6.17512 -7.90446,9.60068 -2.39611,5.21365 -0.34237,8.87497 7.66527,13.66557 6.55382,3.92084 11.29117,9.10009 14.4566,15.80513 0.69396,1.46989 4.51019,9.47085 8.4806,17.77988 3.97038,8.30903 8.17487,17.11717 9.34332,19.57364 1.16842,2.45647 4.89023,9.70204 8.27063,16.10124 12.79081,24.21336 18.20599,36.1501 22.95324,50.59592 4.68803,14.26578 6.42849,22.23875 6.50887,29.8171 0.0922,8.68067 -1.18268,11.29428 -9.18698,18.83571 -2.89435,2.72698 -5.70212,5.74386 -6.2395,6.70418 -1.2136,2.16874 -0.50268,5.43518 1.96546,9.031 2.15806,3.14403 5.22955,4.71159 10.32778,5.27086 3.19678,0.35067 8.81816,0.35296 9.59389,0.005 z m 222.63436,-0.35685 c 2.47111,-0.4021 3.53241,-0.95453 5.57964,-2.90431 1.39048,-1.32426 2.9379,-3.0756 3.43874,-3.89183 l 0.91064,-1.48407 h -8.56225 -8.56228 l -1.10264,2.61553 c -0.60643,1.43856 -1.88982,3.3099 -2.85194,4.15857 -2.2019,1.94215 -2.21856,1.89152 0.68026,2.06387 3.43594,0.20428 6.93078,0.018 10.46983,-0.55776 z m -63.94673,-0.5399 c 1.41345,-0.24441 1.39242,-0.37625 -0.29785,-1.86702 -2.32178,-2.0479 -3.2062,-6.75339 -1.66446,-8.85549 1.65594,-2.25786 7.13974,-4.6948 13.47521,-5.98823 4.5517,-0.92928 7.05526,-1.15642 14.27702,-1.29535 4.93781,-0.095 10.718,0.0323 13.25245,0.29177 6.59042,0.6748 12.56892,2.80551 15.24085,5.43173 l 2.19442,2.15691 h 8.88261 8.88261 l -0.40949,-1.91766 c -0.26079,-1.22117 -2.40402,-3.84604 -5.90117,-7.2272 -11.79372,-11.40253 -12.63533,-16.72272 -6.19472,-39.15885 4.05119,-14.11238 8.20866,-24.99057 14.40044,-37.67915 7.05526,-14.4582 6.90837,-14.13457 6.5612,-14.45512 -0.15828,-0.1462 -2.97179,-0.22659 -6.25219,-0.17872 -7.66106,0.11179 -9.49685,-0.15583 -9.49685,-1.38458 0,-0.95984 0.0661,-0.96712 8.81812,-0.96712 8.4218,0 8.83847,-0.0403 9.27023,-0.8945 0.24877,-0.49198 2.46974,-4.65146 4.93577,-9.2433 2.46607,-4.59184 5.4281,-10.31672 6.5823,-12.72197 22.26215,-46.39161 22.17199,-46.24513 32.64883,-53.0541 3.1459,-2.04455 6.38105,-4.61317 7.1892,-5.70805 4.12609,-5.58995 -4.71972,-17.79506 -14.66764,-20.23784 -3.4557,-0.84858 -9.59088,-0.78844 -12.01745,0.1178 -1.28198,0.47876 -1.22762,0.59776 0.57284,1.25381 1.93697,0.7058 1.94519,0.73986 0.31155,1.29627 -3.03012,1.03206 -9.18828,0.7367 -14.49784,-0.69537 -5.53028,-1.49158 -8.31344,-3.16001 -10.23622,-6.13626 -1.27484,-1.9733 -1.48972,-2.08269 -3.28971,-1.6746 -1.0592,0.24013 -4.70881,1.71565 -8.11029,3.27892 -3.40148,1.56327 -8.31835,3.7194 -10.9264,4.79141 -2.60808,1.07201 -5.48176,2.68213 -6.38595,3.57805 -1.37729,1.36466 -1.64402,1.46769 -1.64402,0.63504 0,-1.1527 2.67797,-3.8172 4.99464,-4.96951 0.87921,-0.43731 3.01109,-1.26975 4.73756,-1.84987 1.72643,-0.58012 5.67136,-2.23498 8.76653,-3.67745 4.35232,-2.02837 6.19923,-2.62269 8.15043,-2.62269 3.2463,0 3.86465,-0.78414 2.00729,-2.54544 -1.82714,-1.73261 -8.54301,-3.81699 -12.28118,-3.81164 -2.99293,0.005 -10.85244,1.52121 -14.41496,2.7822 -4.06578,1.43912 -6.42109,3.29472 -9.07107,7.14655 -1.43152,2.08077 -3.60654,4.44461 -4.8334,5.25299 -1.22682,0.80837 -2.23062,1.93463 -2.23062,2.50283 0,1.95992 6.47738,3.77131 13.50854,3.77764 8.60241,0.008 18.46337,5.52368 21.04561,11.77234 1.2496,3.02381 0.52349,5.67812 -2.19465,8.02283 -1.19494,1.03077 -2.41134,2.36445 -2.70312,2.96375 -0.67732,1.39108 0.91447,4.31967 3.72618,6.85557 2.09685,1.89113 2.17105,2.20019 1.62222,6.75853 -0.70942,5.89236 -2.32996,10.49033 -8.96996,25.44998 -4.86338,10.95709 -7.929,17.27176 -13.70342,28.22684 -2.99663,5.68514 -6.16293,11.76782 -7.03619,13.5171 -8.27838,16.58237 -21.09881,39.74675 -25.30366,45.71954 -15.22596,21.62771 -18.37085,24.58089 -33.08387,31.06702 -8.58669,3.7854 -10.14873,4.81538 -11.9718,7.894 -1.54382,2.60699 -1.50154,5.84632 0.14525,11.12515 1.82611,5.85376 2.03127,6.13226 5.1789,7.03024 2.34349,0.66857 3.80909,0.75579 9.82246,0.58456 3.88737,-0.11074 7.75232,-0.31962 8.58876,-0.46426 z m 546.4787,-112.00077 0.2314,-15.00794 H 855.24692 705.48357 v 14.84228 c 0,8.16326 0.16696,14.91749 0.37142,15.00942 0.20436,0.092 67.49359,0.16646 149.53181,0.16565 l 149.1605,-0.001 z M 358.0609,207.57516 c 6.90504,-0.82714 11.85917,-2.30209 21.74962,-6.47527 4.89767,-2.06652 11.01138,-4.32412 13.58601,-5.01689 l 4.68115,-1.25958 -0.53918,-6.16222 c -0.29652,-3.3892 -0.68096,-6.37157 -0.8542,-6.62746 -0.1733,-0.25589 -2.62571,-0.57751 -5.44987,-0.71468 -11.39175,-0.55334 -17.06028,-1.43368 -25.4553,-3.95326 -20.22794,-6.07099 -37.63032,-18.91427 -39.05719,-28.82495 -0.47931,-3.32897 0.7788,-7.21608 3.30213,-10.2026 1.37014,-1.62162 2.70262,-0.69557 1.74587,1.21333 -0.43523,0.8683 -0.64573,1.64423 -0.46782,1.72428 0.17798,0.0801 1.58078,-0.27272 3.11744,-0.78396 2.11956,-0.70515 3.94901,-0.92952 7.57919,-0.92952 2.63185,0 4.7852,-0.0518 4.7852,-0.11525 0,-0.5542 -3.85383,-3.26889 -5.76245,-4.05917 -1.32026,-0.54664 -3.44619,-1.70951 -4.72434,-2.58414 l -2.32392,-1.59026 0.19368,-8.8937 c 0.22139,-10.17195 0.67552,-10.98601 7.76735,-13.92758 l 3.89734,-1.61656 -1.2929,-1.64896 c -2.34242,-2.9875 -6.53742,-5.803693 -12.18882,-8.182601 -9.09615,-3.828933 -19.20381,-5.590135 -34.15825,-5.951897 -7.66206,-0.185351 -10.65826,-0.07536 -17.21398,0.631963 -17.75891,1.916061 -32.77519,7.459 -41.55215,15.338105 -5.41017,4.85672 -5.84223,7.21561 -2.65149,14.47657 4.71295,10.72504 5.97593,11.80742 18.32881,15.70788 7.36156,2.32445 12.21296,4.76781 15.69808,7.90615 2.44333,2.20025 2.66725,2.73139 2.53923,6.02353 -0.2087,5.36474 2.13438,6.95992 11.38163,7.74907 12.66909,1.08115 20.40576,4.59905 25.39626,11.54783 2.63166,3.6643 5.40666,5.80763 8.12324,6.27418 4.94679,0.84958 8.79044,1.21213 15.29023,1.44227 13.29172,0.47059 24.016,2.29049 36.65965,6.22113 7.45774,2.31845 11.69732,3.15755 15.95367,3.15755 2.16797,0 3.0728,0.15966 2.81625,0.49695 -0.24677,0.32458 -2.2356,0.49614 -5.73298,0.49461 -4.94502,-0.001 -5.81371,-0.14605 -11.34784,-1.87964 -3.29609,-1.03251 -6.2045,-1.78206 -6.46315,-1.66567 -0.25879,0.11645 -0.0842,0.33607 0.38761,0.48818 4.0978,1.32096 6.28484,5.02559 4.41315,7.47548 -1.3302,1.74114 -7.01829,4.47331 -10.78889,5.18225 -4.81195,0.90471 -11.48441,0.69224 -15.64462,-0.4982 -4.36878,-1.25011 -9.32512,-3.96021 -10.99265,-6.01069 -1.66659,-2.04935 -2.43471,-9.2608 -1.10541,-10.37848 0.95598,-0.8038 0.82605,-0.8609 -1.95904,-0.8609 -1.64058,0 -4.93457,-0.26641 -7.31993,-0.59203 -5.58635,-0.76258 -5.13081,-0.82024 -6.44562,0.81591 -0.80028,0.99586 -2.40627,1.76762 -5.40757,2.59863 -4.12258,1.14144 -4.24102,1.22595 -3.44779,2.45965 0.45176,0.70269 1.20451,3.22676 1.67277,5.60907 0.67051,3.41128 1.39468,4.85389 3.40889,6.79076 4.74574,4.56348 16.91919,8.73393 28.85323,9.88469 3.91077,0.37711 12.635,0.22132 17.01967,-0.30393 z M 257.04637,131.13424 c -0.0544,-3.03846 -0.56015,-4.15242 -3.84472,-8.46821 -4.35632,-5.72397 -5.26996,-9.07478 -3.61241,-13.24842 1.36937,-3.44804 3.48783,-5.74829 7.63575,-8.29097 3.73954,-2.292368 12.277,-5.352428 15.87579,-5.690327 l 2.56167,-0.240521 -3.08953,1.112546 c -14.34447,5.165442 -20.32314,10.183942 -20.32314,17.059242 0,2.25282 0.76878,3.94182 3.62644,7.96709 4.43993,6.25412 5.52297,10.91416 2.87816,12.38393 -1.63491,0.90851 -1.64576,0.8921 -1.70801,-2.58436 z m 214.71569,76.39873 c 11.70784,-1.37224 22.06687,-4.94763 26.95222,-9.30253 2.20104,-1.96207 2.92948,-3.25223 3.56587,-6.31567 0.43987,-2.11744 1.04894,-4.74441 1.35348,-5.83771 l 0.55377,-1.9878 -3.53441,-0.88824 c -2.38122,-0.59843 -4.04878,-1.41283 -5.11081,-2.49602 -0.9067,-0.92474 -2.03585,-1.52847 -2.65784,-1.42107 -0.96516,0.16667 -2.48003,0.30958 -8.71662,0.82237 -0.97187,0.0799 -2.49435,0.15898 -3.38331,0.1757 -1.34222,0.0252 -1.51393,0.24025 -1.01241,1.26771 0.33225,0.68051 0.58376,2.6214 0.55908,4.31308 -0.0995,6.8314 -8.45482,12.08601 -20.07601,12.62572 -6.30635,0.29289 -13.01928,-1.12132 -16.89842,-3.55996 -5.35712,-3.36776 -4.69743,-6.38595 2.09187,-9.5705 l 4.26282,-1.99949 -5.95816,1.87455 c -7.6988,2.42217 -12.62242,3.41 -17.01276,3.41328 -4.77095,0.003 -7.05206,-0.6339 -3.4879,-0.97472 1.43242,-0.13689 4.39349,-0.42621 6.58013,-0.64275 2.37915,-0.23561 7.48859,-1.44985 12.72322,-3.02361 14.54302,-4.37231 21.2648,-5.48139 36.98522,-6.10249 15.4769,-0.61148 17.17144,-1.2763 22.73862,-8.9209 2.60672,-3.5794 3.38933,-4.19796 7.85284,-6.20672 4.92365,-2.21584 12.3897,-3.92896 17.13878,-3.93257 2.62124,-0.002 7.31966,-1.33029 8.7086,-2.462 0.61819,-0.50368 1.3488,-2.88372 1.62365,-5.28897 0.40154,-3.51425 0.92139,-4.76359 2.64689,-6.36097 2.3945,-2.21675 9.31633,-5.48133 19.82657,-9.3509 7.21431,-2.65611 9.66802,-3.91248 10.6601,-5.45826 0.56726,-0.88387 0.47219,-0.89453 -7.98487,-0.89453 h -8.55894 l 0.42512,2.28599 c 0.23374,1.25728 0.71412,2.64378 1.06734,3.0811 0.49223,0.60943 0.10819,0.53462 -1.64419,-0.32034 -1.81442,-0.88522 -2.28638,-1.5196 -2.28638,-3.07335 v -1.95789 l -19.21607,-0.10714 c -19.17319,-0.10698 -19.21667,-0.10908 -19.49836,-1.00166 -0.31722,-1.00482 -2.6578,-0.91124 25.90372,-1.0356 l 13.25245,-0.0577 3.43109,-4.57196 c 1.99488,-2.65814 3.61148,-5.66478 3.86202,-7.18265 1.00253,-6.0743 -3.80805,-12.06201 -13.13785,-16.352531 -2.85942,-1.314979 -5.19897,-2.563525 -5.19897,-2.774546 0,-0.211021 0.62477,-0.102537 1.38834,0.241064 0.76361,0.343607 1.7048,0.62474 2.09151,0.62474 0.38675,0 2.84316,0.940956 5.45876,2.091013 8.19867,3.60491 13.11334,9.36909 13.13184,15.40168 0.007,2.45271 -0.61404,3.79072 -3.50339,7.54167 -1.93193,2.50798 -3.1853,4.70724 -2.78533,4.88722 0.40001,0.18 4.01656,0.27484 8.03683,0.21077 l 7.30954,-0.11645 1.76527,-2.98172 c 1.22121,-2.06273 1.8022,-4.39082 1.88504,-7.55366 0.1102,-4.21027 -0.0835,-4.79212 -2.44893,-7.35489 -12.24392,-13.265261 -41.72809,-20.453137 -70.96116,-17.299436 -17.90496,1.931614 -28.59628,5.767096 -34.29509,12.303296 l -2.43344,2.79102 3.60269,1.75877 c 6.00318,2.93062 7.64657,4.74183 7.43907,8.1988 -0.0985,1.63994 0.46849,4.30034 1.25978,5.912 2.76202,5.62554 0.58386,9.49777 -7.2102,12.81801 -2.25219,0.95942 -4.6677,2.23637 -5.3678,2.83769 l -1.27293,1.09329 h 3.94092 c 4.62166,0 8.47369,0.56941 10.01042,1.47974 1.60943,0.9534 2.34389,0.3352 1.26159,-1.06188 -0.54483,-0.70328 -0.59632,-1.21299 -0.12255,-1.21299 1.65681,0 3.57925,1.95419 4.84047,4.9204 1.48705,3.49739 0.75219,7.27066 -2.32969,11.96195 -5.30729,8.0789 -20.67096,17.345 -36.4381,21.97648 -8.20652,2.41061 -12.85752,3.16672 -22.80697,3.70769 -4.52559,0.24608 -8.29063,0.47475 -8.36684,0.50815 -0.0761,0.0334 -0.26446,2.99533 -0.41826,6.58205 l -0.27983,6.52132 4.12508,1.25375 c 2.26876,0.68956 7.96757,2.89661 12.66402,4.90454 12.38503,5.29516 20.33507,7.12137 31.34979,7.20137 2.69196,0.0195 7.23167,-0.23839 10.08826,-0.5732 z M 360.74659,195.22558 c 3.04919,-1.15454 5.47428,-3.2596 5.47428,-4.75187 0,-2.28384 -8.01648,-6.83261 -14.57768,-8.27178 -4.438,-0.97346 -13.60063,-1.62426 -15.08153,-1.0712 -2.13752,0.79827 -1.62272,6.03055 0.9113,9.2619 3.38825,4.32062 7.41466,5.81831 15.64856,5.82076 4.05419,0.001 5.51176,-0.18763 7.62507,-0.98781 z m 104.42415,0.39337 c 3.6965,-0.86018 6.99082,-2.99765 8.92098,-5.78831 1.99457,-2.88375 2.24484,-7.43012 0.46919,-8.52283 -1.12508,-0.69237 -1.59237,-0.70894 -6.40536,-0.22724 -7.20726,0.72131 -12.41441,2.0108 -17.39917,4.30873 -4.88942,2.254 -6.9435,4.42427 -5.83442,6.16446 0.97428,1.52865 4.92312,3.83287 7.31188,4.26663 3.0529,0.55433 10.16486,0.44361 12.9369,-0.20144 z m -56.22613,-3.83557 c 0.31222,-1.34402 0.56763,-4.01445 0.56763,-5.93427 0,-3.80368 -0.22706,-3.95223 -5.52187,-3.61389 l -2.4296,0.15525 v 3.47462 c 0,1.91102 0.25545,4.57427 0.5676,5.91829 0.56526,2.43353 0.57942,2.44369 3.40812,2.44369 2.8287,0 2.8429,-0.0105 3.40812,-2.44369 z M 307.09094,181.27576 c 5.18137,-1.17015 5.88865,-2.73273 2.36439,-5.22358 -1.4801,-1.04607 -3.62828,-3.26978 -4.77375,-4.94156 -3.76208,-5.49068 -10.67566,-8.80702 -20.59142,-9.87742 -5.76443,-0.62227 -7.66928,-0.38057 -12.69795,1.61126 -5.67951,2.24962 -5.66645,4.34843 0.0267,4.34843 1.26843,0 8.21891,3.07414 8.21891,3.63517 0,0.14094 3.04411,1.30387 6.76468,2.58432 7.06104,2.43006 10.87745,5.00917 10.89662,7.36386 0.003,0.58309 0.50559,1.14318 1.11299,1.24464 1.51786,0.25355 5.93616,-0.12577 8.67844,-0.74512 z m 97.12032,-1.88794 c 0,-0.28988 -0.99394,-0.94722 -2.20875,-1.46077 -1.21483,-0.51355 -2.20874,-1.27924 -2.20874,-1.70154 0,-0.42231 -1.02694,-1.31701 -2.28211,-1.98825 -1.48061,-0.79179 -2.14504,-1.5431 -1.89183,-2.13918 0.31756,-0.7472 -0.41643,-1.15171 -3.93007,-2.16631 -2.37624,-0.68614 -4.72754,-1.58985 -5.22511,-2.00821 -1.08287,-0.9105 -0.35616,-2.16109 1.43555,-2.47048 0.71038,-0.12261 1.2916,-0.3904 1.2916,-0.59497 0,-0.20456 -3.92376,-1.5362 -8.71945,-2.9592 -4.79573,-1.42301 -9.59012,-3.1375 -10.65425,-3.80997 -1.06414,-0.67247 -3.04599,-2.70086 -4.40414,-4.50754 -6.25015,-8.31432 -12.99086,-11.83243 -22.67091,-11.83243 -8.85652,0 -12.16858,2.40988 -10.09814,7.34749 1.55777,3.71504 5.41725,7.06744 11.37475,9.8802 7.82482,3.69443 9.66776,5.81711 6.70372,7.72137 -1.2905,0.82907 -1.16368,0.97196 2.4296,2.73768 4.97517,2.44473 15.76049,6.29829 20.92136,7.47509 5.05739,1.15321 9.43591,1.67766 16.88447,2.02234 3.15848,0.1462 6.33907,0.42142 7.06795,0.61164 2.08019,0.54294 6.1845,0.43876 6.1845,-0.15696 z m 9.32088,0.16969 c 0.46161,-0.19654 4.4175,-0.56457 8.79078,-0.81783 12.27564,-0.71088 20.18183,-2.63836 32.44244,-7.90931 l 5.93757,-2.55259 -0.52423,-2.25679 c -0.63611,-2.73866 0.27015,-3.64566 7.06796,-7.07387 2.68999,-1.35657 5.89065,-3.23418 7.11263,-4.17246 2.62735,-2.01739 4.91784,-6.09268 4.93614,-8.78248 0.0167,-2.51897 -3.10629,-4.04727 -9.09779,-4.45157 -7.27508,-0.49093 -14.00457,1.95149 -19.89255,7.21982 -1.49954,1.34175 -3.20053,3.30966 -3.77998,4.37318 -2.53372,4.65038 -4.94068,5.93409 -17.35509,9.25603 -3.52293,0.9427 -6.40532,1.87866 -6.40532,2.07993 0,0.20126 0.59871,0.77713 1.3305,1.2797 2.0274,1.39234 0.35663,3.02001 -4.43753,4.32307 -2.91986,0.79363 -3.96096,1.32631 -3.96096,2.02667 0,0.52254 -0.79516,1.40496 -1.767,1.96092 -0.97185,0.55596 -1.76698,1.28946 -1.76698,1.63002 0,0.34055 -1.19273,1.23046 -2.65049,1.97758 -1.45779,0.74712 -2.65049,1.5584 -2.65049,1.80286 0,0.52879 5.46537,0.60017 6.67039,0.0871 z m -6.00736,-3.91643 c 0.21572,-0.29149 -0.39332,-0.49696 -1.47292,-0.49696 -1.08524,0 -1.8406,0.25671 -1.8406,0.6255 0,0.73067 2.75688,0.62371 3.31352,-0.12862 z m 0.6047,-2.47493 c 4.03352,-0.69006 2.71604,-1.4013 -2.59579,-1.4013 -4.83433,0 -5.89623,0.36699 -3.79624,1.31196 1.28486,0.57817 3.36491,0.60724 6.39203,0.0894 z m 5.67367,-3.95639 c 7.52726,-1.728 6.96754,-3.28471 -0.80745,-2.24573 -5.73845,0.76685 -8.80618,0.7852 -14.77577,0.0883 -3.81006,-0.44473 -4.77682,-0.44724 -5.57496,-0.015 -0.74911,0.40615 -0.0167,0.79418 3.26457,1.7307 5.22231,1.4903 12.5377,1.67064 17.89361,0.44112 z m -0.31519,-4.04537 c 1.45776,-0.20051 3.50079,-0.95609 4.54001,-1.67909 1.18362,-0.82344 4.86392,-2.09352 9.85115,-3.39965 4.37889,-1.14682 8.60532,-2.4052 9.3921,-2.7964 0.78678,-0.39122 2.63657,-2.38569 4.11069,-4.43216 3.66016,-5.08138 7.3992,-8.0941 13.40953,-10.80478 3.51431,-1.58496 5.08012,-2.60234 5.08012,-3.30079 0,-0.69373 1.76848,-1.85695 5.652,-3.71763 7.69936,-3.68891 8.77379,-4.73097 8.6677,-8.4067 -0.0478,-1.64956 -0.50599,-3.49565 -1.01866,-4.10241 -0.51263,-0.60676 -0.94082,-2.65694 -0.9515,-4.55598 -0.0134,-2.4916 -0.4707,-3.89547 -1.64055,-5.04302 -1.79215,-1.75799 -5.58381,-3.62218 -8.09753,-3.98119 -2.41585,-0.34503 -7.88081,1.07336 -13.04893,3.38673 -4.24512,1.90024 -4.84247,2.03826 -8.33084,1.92492 l -3.75777,-0.12208 -0.64673,2.32969 c -0.81831,2.9479 -3.53775,4.60726 -9.81565,5.98939 -6.19709,1.36434 -15.03893,1.95752 -24.88059,1.66918 -18.026,-0.52814 -27.83016,-3.50129 -27.83016,-8.43959 0,-1.3158 -0.12222,-1.36559 -3.35219,-1.36559 -2.64165,0 -4.11884,-0.316 -6.96908,-1.49085 -11.03432,-4.54827 -13.8463,-4.82087 -20.39731,-1.97738 -4.40424,1.91167 -4.62079,2.6431 -4.91113,16.58775 -0.0628,3.01251 1.02704,4.12471 6.94193,7.08508 2.42396,1.21316 4.62483,2.80947 5.3326,3.86774 0.87187,1.30356 2.52444,2.34454 5.9748,3.76353 5.43185,2.23392 9.74586,5.65994 13.34555,10.59854 2.66352,3.65421 5.59874,5.16755 15.07853,7.77417 2.91556,0.80166 6.36732,2.06822 7.67058,2.81454 1.39131,0.79675 3.57979,1.49077 5.30098,1.68107 1.61227,0.17825 3.92533,0.44313 5.14013,0.58863 2.39384,0.28669 5.97881,0.12937 10.16022,-0.44567 z m -26.72579,-8.17383 c -1.77275,-0.32188 -1.27087,-1.32694 0.66263,-1.32694 1.03692,0 1.767,-0.26504 1.767,-0.64149 0,-0.53498 -0.66009,-0.59693 -3.97575,-0.37319 -4.76497,0.32154 -5.15162,-0.17597 -0.8535,-1.09828 3.94136,-0.84575 5.11188,-0.84129 6.76676,0.0258 2.33901,1.2255 2.53916,2.06056 0.69295,2.89134 -1.73642,0.78135 -2.94718,0.90644 -5.06009,0.5228 z m 34.1874,-0.26937 c -2.69263,-0.60407 -3.15928,-1.60979 -1.3299,-2.86615 1.75448,-1.20493 5.34686,-1.27548 8.44601,-0.16584 l 2.20871,0.79081 -3.57675,-0.0775 c -3.83981,-0.0832 -6.04228,0.29269 -5.22047,0.89105 0.27949,0.20354 1.47876,0.37009 2.66491,0.37009 2.53806,0 2.82914,0.60517 0.55451,1.15296 -1.08444,0.26116 -2.2951,0.23034 -3.74702,-0.0954 z m -35.02598,-8.20813 c 1.34891,-1.6081 0.10853,-2.14929 -3.59468,-1.56839 -1.52655,0.23947 -3.48933,0.36982 -4.3617,0.28967 -1.35007,-0.12396 -1.23573,-0.25071 0.76815,-0.85123 4.47804,-1.34199 9.40179,-1.09546 11.38247,0.56993 1.2114,1.01855 -1.0036,2.74716 -3.52015,2.74716 -1.48701,0 -1.56081,-0.12997 -0.67409,-1.18714 z m 35.95759,0.39201 c -2.31714,-1.04268 -2.24087,-2.19091 0.19668,-2.95916 2.68712,-0.84694 5.38586,-0.77674 9.77794,0.25431 4.32497,1.01528 2.65096,1.47678 -2.55328,0.70391 -4.00771,-0.59518 -5.55523,-0.084 -4.09907,1.35415 1.59036,1.57069 -0.40548,1.95926 -3.32217,0.64679 z m -39.06852,-7.6592 c 3.07364,-1.47224 1.39973,-2.04632 -5.01454,-1.71976 -6.17559,0.31439 -7.28317,-0.24521 -2.32889,-1.1767 4.26509,-0.8019 7.7794,-0.71901 10.5112,0.24793 4.16398,1.47388 2.36943,3.54919 -3.06903,3.54919 h -1.97908 z m 41.34038,0.27592 c -3.43734,-1.54675 -0.0755,-3.74843 5.72349,-3.74843 3.69669,0 8.79111,0.92392 8.79111,1.59436 0,0.22848 -2.11625,0.28172 -5.28121,0.13283 -4.48261,-0.21083 -5.36874,-0.14575 -5.86007,0.43039 -0.31822,0.37332 -0.12856,0.88142 0.42198,1.12912 0.55046,0.24769 1.00082,0.59347 1.00082,0.7684 0,0.55654 -3.35446,0.34203 -4.79612,-0.3067 z m -45.5632,-7.27781 c 0,-0.19188 0.59635,-0.57159 1.32523,-0.8438 1.68079,-0.62769 1.6681,-0.98161 -0.0631,-1.76063 -1.88244,-0.84706 -5.48874,-0.7855 -9.62919,0.16438 -3.7939,0.87038 -4.90979,0.77953 -3.02344,-0.24617 1.96725,-1.0697 7.78878,-2.06808 10.83443,-1.85809 3.31209,0.22836 6.74052,1.5573 6.74052,2.6128 0,0.41882 -0.89454,1.09728 -1.98786,1.50772 -2.11085,0.79239 -4.19661,1.00302 -4.19661,0.42379 z m 50.56061,-0.46188 c -4.16642,-0.75301 -3.11103,-2.82444 1.92104,-3.77057 3.91037,-0.7352 9.29821,-0.093 12.59386,1.50112 1.99828,0.96658 2.15062,1.15022 0.74501,0.898 -6.79924,-1.22011 -9.012,-1.42144 -11.30703,-1.0288 -2.74332,0.46934 -3.00234,1.05352 -0.92499,2.08641 1.66526,0.82802 0.49073,0.94976 -3.02789,0.31384 z m 39.83823,30.72726 c 2.55593,-1.66436 7.97208,-6.85422 7.4148,-7.10497 -0.80976,-0.36438 -12.11445,6.78445 -12.11445,7.66092 0,1.38688 2.09705,1.13881 4.69965,-0.55595 z m -122.20473,0.35365 c 0,-0.87398 -2.8692,-2.82265 -7.36681,-5.0033 -3.84004,-1.86182 -3.99846,-1.67917 -0.94078,1.08481 4.56632,4.12771 8.30759,5.89238 8.30759,3.91849 z M 1004.9891,128.23189 V 113.12456 H 855.24595 705.5028 l 0.003,14.84816 c 0.002,8.16651 0.2628,14.9648 0.57942,15.10734 0.31689,0.14259 67.69962,0.25915 149.73965,0.25915 h 149.16393 z m -587.04841,-6.58045 c 6.48302,-0.75965 12.4643,-2.29112 13.23926,-3.38985 0.80415,-1.14011 0.0548,-1.33265 -2.38589,-0.61304 -8.20018,2.41776 -33.45776,2.53962 -45.48633,0.21948 -4.36043,-0.84107 -5.14748,-0.35934 -1.94228,1.1888 5.58385,2.697 24.34391,4.02783 36.57524,2.59461 z m -0.40448,-4.32162 c 7.29428,-0.58555 11.73852,-1.44817 14.23872,-2.7637 1.60502,-0.84452 1.60215,-1.08032 -0.0481,-3.98116 -0.64166,-1.12782 -0.52609,-2.45661 0.42755,-4.91511 0.71887,-1.85318 1.14836,-3.44079 0.95448,-3.52804 -0.19401,-0.0872 -2.30034,0.22911 -4.68109,0.70299 -7.23321,1.43977 -12.75832,1.92163 -22.00764,1.91935 -9.99683,-0.002 -18.82434,-0.72005 -24.28811,-1.97434 -2.04229,-0.46884 -3.90826,-0.7647 -4.14658,-0.65745 -0.23842,0.10724 -0.003,1.14841 0.51971,2.31371 0.96236,2.1395 1.20625,4.83742 0.76655,8.47971 l -0.24009,1.9878 4.85924,1.08279 c 7.93117,1.76731 21.52779,2.30618 33.64538,1.33345 z m -44.43414,-5.85613 c 0.22539,-0.52217 -2.07134,-1.11844 -11.74043,-3.04818 -1.74504,-0.34828 4.47526,2.43063 7.06798,3.1576 2.92317,0.81962 4.28547,0.78772 4.67245,-0.10942 z m 1.86571,-4.61072 c -0.11287,-2.41861 -0.94019,-3.72751 -2.58251,-4.08537 -5.75611,-1.25425 -10.23812,-2.00689 -13.23555,-2.22257 -3.38018,-0.24322 -3.53081,-0.20865 -3.53081,0.8104 0,1.49964 2.1607,3.20246 5.52094,4.35097 2.57886,0.88144 11.57774,2.92004 13.25338,3.00241 0.36444,0.0179 0.623,-0.81722 0.57455,-1.85584 z m 65.77227,1.2073 c 7.8724,-1.92406 10.99171,-3.00668 12.77351,-4.43327 2.45758,-1.96763 2.54534,-3.23441 0.22406,-3.23441 -2.88287,0 -13.95549,2.00911 -15.612,2.83278 -0.99314,0.49383 -1.69705,1.63521 -1.93981,3.14554 -0.42448,2.6407 0.007,2.80074 4.55424,1.68936 z m -18.85887,-6.13778 c 6.70247,-0.92651 9.71847,-1.71258 9.71847,-2.532965 0,-0.729043 0.64627,-0.747396 -9.06519,0.257449 -10.9447,1.132446 -23.20107,1.132966 -33.6333,0.0014 -9.2786,-1.006403 -9.42783,-1.010484 -9.42783,-0.257803 0,1.116249 12.13252,3.174579 20.76218,3.522399 6.31045,0.25434 15.77238,-0.17864 21.64567,-0.99052 z m 2.9785,-4.301332 6.07073,-0.868344 -0.73522,-1.658772 c -0.40438,-0.912324 -0.64758,-3.69125 -0.54042,-6.175391 0.19434,-4.508008 0.191,-4.516201 -1.80153,-4.297027 -7.59672,0.835629 -21.65969,1.1445 -31.83304,0.699166 -5.94227,-0.260122 -11.46054,-0.559867 -12.26281,-0.6661 -1.29027,-0.170851 -1.50648,0.416687 -1.87279,5.088837 -0.22774,2.905094 -0.70507,5.674238 -1.0607,6.153653 -0.58286,0.785739 -0.18065,0.930502 4.08154,1.468534 9.68605,1.222751 12.93242,1.398863 23.28154,1.262985 7.78021,-0.102147 12.2177,-0.37031 16.6727,-1.007541 z M 377.70636,89.11463 c 0,-2.093443 -0.47978,-2.216454 -9.81448,-2.516515 -6.94684,-0.223303 -8.36333,0.0244 -7.29609,1.275874 0.66136,0.775562 3.05433,1.261503 10.92607,2.218775 3.15851,0.384102 5.84213,0.714114 5.96361,0.733362 0.12154,0.01925 0.22072,-0.750925 0.22072,-1.711496 z m 63.16999,0.807371 c 6.53796,-0.633479 8.92044,-1.18778 9.51693,-2.214163 0.82505,-1.419735 -1.27648,-1.729706 -8.36958,-1.234486 -3.54409,0.247443 -6.70595,0.575581 -7.02631,0.729197 -0.32023,0.153616 -0.77463,0.950186 -1.00951,1.770156 -0.48535,1.694522 -0.61638,1.676465 6.88847,0.949296 z m -19.95102,-6.664253 c 3.19829,-0.245997 6.61025,-0.646683 7.58209,-0.890412 1.50598,-0.377684 0.98396,-0.48142 -3.53401,-0.702265 -8.74336,-0.427395 -38.99034,-0.381384 -41.58934,0.06326 -1.31385,0.224776 -2.10914,0.537855 -1.76738,0.695732 2.32482,1.073843 28.86736,1.636773 39.30864,0.833682 z m 6.57839,-9.292983 c -0.31121,-3.061222 -0.7425,-5.65531 -0.95815,-5.764639 -0.63581,-0.322329 -32.75472,-0.499386 -37.91916,-0.209031 l -4.73559,0.266245 -0.0528,3.251274 c -0.03,1.788201 -0.37786,4.14354 -0.77526,5.234088 -0.39743,1.090548 -0.56816,2.163964 -0.37937,2.385368 0.21939,0.25713 8.47924,0.402554 22.86475,0.402554 h 22.52147 z m -48.03039,-1.546792 v -1.348011 l -6.8471,-0.176367 c -3.76592,-0.09701 -7.54285,-0.02081 -8.39322,0.169315 -1.51085,0.337795 -2.12844,1.910957 -0.95711,2.438034 0.3239,0.145767 4.10091,0.265041 8.39321,0.265041 h 7.80422 z m 67.8762,0.232835 c 0.47971,-1.522703 -1.26723,-2.065685 -5.89509,-1.83231 -9.67223,0.487754 -9.85492,0.518781 -9.85298,1.673427 l 0.002,1.075279 h 7.72878 c 7.3972,0 7.74117,-0.03931 8.01746,-0.916396 z"
       id="path1" /></g></svg>
