<?xml version="1.0" encoding="UTF-8" standalone="no"?>
<!-- Created with Inkscape (http://www.inkscape.org/) -->

<svg
   preserveAspectRatio="none"
   width="800.00012mm"
   height="600.00006mm"
   viewBox="0 0 800.00012 600.00006"
   version="1.1"
   id="svg1"
   xml:space="preserve"
   xmlns="http://www.w3.org/2000/svg"
   xmlns:svg="http://www.w3.org/2000/svg"><defs
     id="defs1" /><g
     id="layer1"
     transform="translate(-235.61141,-142.66987)"><path
       style="fill:#000000;stroke-width:1.54204"
       d="m 503.21424,742.30615 c -0.83158,-0.58525 -1.24553,-11.49483 -1.24996,-32.94238 -0.007,-33.44561 1.84877,-49.73825 9.99578,-87.76111 l 1.47484,-6.88322 -0.16834,-8.60404 c -0.23973,-12.25223 -0.2502,-23.22618 -0.0252,-26.3229 0.10647,-1.464 0.0629,-2.67394 -0.0967,-2.68875 -0.15962,-0.0146 -26.66657,-0.027 -58.90433,-0.027 h -58.61415 l -0.10412,9.57198 -0.10413,9.57199 -44.30471,0.2151 c -24.3676,0.11837 -60.32406,0.11837 -79.90327,0 l -35.59854,-0.2151 v -20.64967 -20.64968 h 79.90325 79.90327 l 0.10398,9.46445 0.10398,9.46443 58.32408,-0.0447 c 32.07826,-0.0245 58.69087,-0.073 59.13914,-0.10747 0.72263,-0.0558 0.84426,-0.41656 1.07259,-3.18184 0.14172,-1.71544 1.04052,-8.58919 1.99751,-15.27504 2.96338,-20.70312 3.41225,-26.04771 3.44124,-40.97381 0.0341,-17.51244 -0.78177,-24.31961 -6.72809,-56.14131 -2.68049,-14.34457 -4.22311,-23.78779 -5.0811,-31.104 -0.2581,-2.20072 -0.59263,-3.84624 -0.74343,-3.65672 -0.15079,0.18954 -1.71835,5.76515 -3.48346,12.39024 -1.76512,6.6251 -3.44856,12.57803 -3.741,13.22871 -0.5822,1.29543 -2.03241,1.61087 -2.783,0.60534 -0.50516,-0.67672 0.39014,-4.37786 5.58382,-23.08338 1.87234,-6.7434 3.47868,-13.21005 3.56963,-14.37032 0.091,-1.16025 -0.0247,-5.80642 -0.25691,-10.32483 -0.23227,-4.51839 -0.52784,-15.6685 -0.65686,-24.77802 l -0.23456,-16.56276 -2.27989,-5.65071 c -3.18052,-7.88294 -5.63965,-15.35874 -6.71262,-20.40648 -0.8773,-4.12715 -0.88609,-4.33006 -0.2268,-5.23528 0.59803,-0.82111 0.81422,-0.8767 1.68801,-0.43406 0.61366,0.31086 1.08409,0.97193 1.21356,1.70534 1.49588,8.47368 5.99418,21.55684 10.13155,29.46724 4.71599,9.01671 12.80439,17.65308 20.69803,22.10031 2.00322,1.12859 2.48779,2.5151 1.27131,3.63758 -0.71728,0.66183 -1.81961,0.15007 -6.55941,-3.04523 -5.95473,-4.01433 -9.9873,-8.06238 -14.9979,-15.05548 l -1.06804,-1.49061 0.21561,11.83053 c 0.24369,13.37151 0.78128,27.31816 1.35982,35.27654 0.8654,11.9048 4.14017,33.8375 7.87009,52.70982 3.64545,18.44499 5.38219,33.51771 5.40186,46.88183 0.0211,14.29303 -0.7899,23.60035 -4.01702,46.10341 -1.05756,7.37444 -1.92282,13.81133 -1.92282,14.30419 0,0.87365 0.16739,0.89595 6.67472,0.88953 3.6711,-0.003 6.86577,-0.14877 7.09926,-0.32265 0.23351,-0.17384 0.53232,-1.28402 0.66404,-2.46707 0.36917,-3.31572 0.94786,-5.13949 2.3832,-7.51086 l 1.31832,-2.17803 -0.96468,-2.34272 c -2.20292,-5.34977 -1.79581,-12.19376 0.9835,-16.5333 l 0.76675,-1.19721 -1.10892,-3.18741 c -0.60992,-1.75306 -1.22634,-4.0706 -1.36985,-5.1501 -0.31371,-2.35985 0.2973,-6.36486 1.3371,-8.76422 0.6159,-1.4212 0.69014,-2.07137 0.39611,-3.46973 -0.57393,-2.72955 -0.4472,-8.83987 0.23703,-11.42981 1.41999,-5.37486 4.86844,-10.29054 8.7724,-12.50487 0.85179,-0.48314 2.70061,-1.93644 4.10851,-3.22958 3.88871,-3.57171 6.66423,-4.93016 10.63593,-5.20567 2.3661,-0.1641 3.80951,-0.0436 5.15092,0.4302 1.02502,0.362 3.22086,0.78161 4.87966,0.93245 4.56828,0.41542 6.91792,1.58136 10.07038,4.99713 1.542,1.6708 2.94644,2.84494 3.30904,2.76642 0.34648,-0.075 0.8041,-0.15121 1.01691,-0.16942 0.24169,-0.0206 0.38848,-2.81873 0.39104,-7.4539 0.006,-9.61981 1.06169,-15.44949 4.0797,-22.51411 3.7183,-8.70389 11.59569,-14.02081 19.84177,-13.39242 2.54308,0.19379 3.58249,0.50832 5.65325,1.7107 l 2.53727,1.47327 2.51511,-0.94186 c 3.64908,-1.36647 6.56972,-1.60955 11.0278,-0.91779 6.13657,0.9522 8.63953,0.31268 12.8929,-3.29419 5.9479,-5.04384 9.37358,-12.37532 10.2932,-22.02907 0.13528,-1.41967 0.52529,-4.38815 0.8668,-6.59664 0.89074,-5.76035 0.76409,-6.07216 -5.08758,-12.52642 -5.4983,-6.06452 -7.79388,-9.6079 -11.02241,-17.01387 -5.56253,-12.75997 -9.31943,-29.45321 -10.83985,-48.16546 -1.60146,-19.70937 -2.18295,-59.3398 -1.4584,-99.39366 0.15837,-8.75462 0.46952,-30.63036 0.69146,-48.61278 0.22193,-17.98242 0.48315,-32.95028 0.58048,-33.26188 0.10427,-0.33379 0.61505,-0.51053 1.24324,-0.43021 l 1.06629,0.13642 v 22.80069 c 0,12.54036 -0.17413,32.28661 -0.38695,43.88055 -0.53801,29.30976 -0.46822,83.23263 0.12387,95.71984 1.21635,25.65272 3.44184,41.29406 7.89367,55.4788 3.76596,11.99944 7.98049,19.7472 14.53489,26.72019 5.89425,6.27065 6.7612,8.52649 5.71808,14.87867 -0.30476,1.85592 -0.73689,5.33947 -0.96029,7.74122 -0.91725,9.86164 -4.70021,17.67835 -11.52488,23.81391 -3.62378,3.25786 -5.92394,4.07883 -10.94858,3.90771 -9.95562,-0.33904 -12.1079,-0.22701 -14.3168,0.74523 -2.64049,1.1622 -3.64214,1.17565 -5.04167,0.0676 -5.42204,-4.29248 -14.3624,-2.55575 -19.86581,3.85908 -4.26434,4.97054 -6.74874,13.19483 -7.10314,23.51398 -0.11466,3.33796 -0.085,7.16766 0.066,8.51046 0.27351,2.4338 0.28206,2.44687 2.72819,4.16445 1.3496,0.94765 3.0998,2.51795 3.88932,3.48957 l 1.4355,1.76657 3.52988,0.0581 c 3.87619,0.0637 6.27387,0.98385 9.70768,3.72553 1.68463,1.34507 1.77226,1.36426 6.47113,1.41681 4.7631,0.0533 4.76355,0.0533 7.60592,1.74155 l 2.84252,1.68828 2.1877,-0.82788 c 1.52294,-0.57632 3.24929,-0.82788 5.68132,-0.82788 2.98816,0 3.77164,0.15918 5.41512,1.09986 l 1.92147,1.09985 1.7433,-1.19356 c 3.09748,-2.1207 7.57484,-2.98355 10.95514,-2.11119 l 1.47301,0.38015 -0.92839,-1.35836 c -1.28164,-1.87518 -4.36317,-3.6413 -7.71357,-4.42083 -3.70233,-0.86142 -8.39205,-0.28438 -16.49713,2.02989 -3.26785,0.93307 -7.18563,1.80981 -8.70617,1.94829 -8.87525,0.8083 -17.56755,-3.95856 -20.6788,-11.34025 -0.94072,-2.23192 -1.04184,-2.93583 -1.00535,-6.99863 0.0351,-3.90519 0.21057,-5.06513 1.29541,-8.56255 l 1.25483,-4.04544 -0.80436,-1.59121 c -1.30006,-2.57173 -0.1891,-2.86554 3.24378,-0.85784 3.35643,1.96297 6.42808,1.61363 9.76367,-1.11042 0.83397,-0.68106 0.88784,-0.65683 1.54776,0.69575 4.60904,9.44667 10.89803,15.18195 20.41772,18.62004 17.38841,6.27992 35.3884,3.36206 50.9242,-8.25497 13.78082,-10.30476 23.96208,-24.27869 30.1797,-41.42213 1.04219,-2.87356 1.89488,-5.29236 1.89488,-5.37512 0,-0.0828 -7.0187,-0.15057 -15.59715,-0.15057 -16.46295,0 -17.17199,-0.0818 -16.84918,-1.94547 0.0775,-0.44722 0.57524,-0.9475 1.10617,-1.11175 0.53093,-0.16424 7.9525,-0.31793 16.49237,-0.3415 l 15.52707,-0.0429 0.53098,-3.54916 c 0.30256,-2.02243 0.52338,-6.51008 0.5133,-10.43239 -0.0196,-7.62168 -0.65782,-11.52439 -2.90522,-17.76451 -3.80951,-10.57748 -11.19774,-17.75064 -21.18362,-20.56698 -7.40994,-2.08984 -15.84065,-0.7335 -21.46739,3.4537 -2.09669,1.56029 -4.00993,3.50376 -7.62278,7.7433 -2.09381,2.45704 -2.14363,2.48587 -3.95914,2.29192 -2.51319,-0.26848 -4.50834,-1.91141 -7.27063,-5.98709 -3.12172,-4.60601 -4.67436,-7.83321 -6.77115,-14.07397 -5.90813,-17.58454 -7.69815,-36.86874 -8.20108,-88.35129 l -0.23008,-23.55353 h -2.42725 c -3.15061,0 -3.65135,-0.2423 -3.65135,-1.76684 v -1.24457 h 3.09551 3.09553 l 0.0161,-8.92669 c 0.009,-4.90966 0.0899,-10.57219 0.18017,-12.58339 0.0902,-2.0112 0.36372,-19.91834 0.60774,-39.79365 0.39321,-32.02741 0.51313,-36.19808 1.05459,-36.67468 0.80186,-0.7058 1.05387,-0.6798 1.8357,0.18944 0.60085,0.66803 0.63421,2.14679 0.41004,18.17602 -0.13425,9.59685 -0.32738,21.12704 -0.42928,25.62265 -0.10194,4.4956 -0.29431,18.48254 -0.42757,31.08206 l -0.24228,22.90824 h 87.34224 87.34223 l -0.26225,-1.18306 c -0.44634,-2.01353 -5.43938,-12.77887 -7.77348,-16.76021 -4.60205,-7.8498 -9.78583,-13.85318 -16.69793,-19.33801 -8.18911,-6.49816 -14.10827,-9.54821 -27.39376,-14.11561 -12.45548,-4.28203 -22.00489,-8.46944 -29.11935,-12.7688 -3.81855,-2.30761 -16.33434,-9.1971 -20.98948,-11.55396 -5.93057,-3.0026 -16.90311,-9.11672 -20.50786,-11.42739 -6.06683,-3.88887 -8.87253,-7.77 -11.17328,-15.45603 -1.1267,-3.76397 -2.36964,-11.41349 -2.36964,-14.58373 0,-1.2536 0.19329,-1.66519 0.96577,-2.05651 1.66915,-0.84553 2.36304,0.33994 2.63192,4.4965 0.42811,6.61805 2.20834,13.47875 4.53683,17.48416 2.16432,3.72303 4.83623,5.69652 15.97772,11.80136 5.35979,2.9368 16.46946,9.03686 24.68817,13.55568 15.84289,8.71071 22.42403,11.89327 29.94202,14.4796 17.5225,6.02803 24.26864,9.14624 31.77421,14.68676 12.20527,9.00976 19.33052,18.25695 25.97077,33.70502 1.57644,3.66746 3.07819,7.15209 3.33723,7.74363 l 0.47097,1.0755 26.39392,0.11057 26.3939,0.11056 v -9.44204 c 0,-7.08119 0.12094,-9.52904 0.48368,-9.79006 0.73004,-0.52533 158.10643,-0.62654 158.98753,-0.10227 0.6895,0.41028 0.7223,1.35568 0.7223,20.83409 0,19.73285 -0.025,20.41895 -0.7485,20.84964 -0.5089,0.3028 -26.0154,0.44533 -79.69616,0.44533 -77.65731,0 -78.95429,-0.013 -79.3483,-0.83212 -0.23975,-0.49806 -0.40055,-4.47031 -0.40055,-9.89464 v -9.06251 h -25.92504 c -14.25876,0 -25.92503,0.0706 -25.92503,0.15675 0,0.0862 0.70226,2.23536 1.56056,4.77588 3.19887,9.46844 6.32495,23.74964 7.39545,33.7855 0.72571,6.80332 0.55115,21.91545 -0.37518,32.48021 -1.66152,18.94973 -1.49676,23.24264 1.51434,39.45819 5.18046,27.89805 8.325,47.42313 7.92378,49.20042 -0.12182,0.53959 -0.60204,1.11536 -1.06717,1.27948 -1.34483,0.47457 -2.06375,-0.98651 -2.58632,-5.25623 -0.81869,-6.68918 -3.91867,-25.45848 -5.70857,-34.56338 -4.74085,-24.11587 -5.25004,-31.08636 -3.55487,-48.66336 1.11729,-11.58496 1.21343,-29.09681 0.2003,-36.48355 -1.24921,-9.1081 -4.02801,-21.03394 -7.07458,-30.36219 -0.77276,-2.36611 -1.49398,-4.64081 -1.60273,-5.05488 -0.18757,-0.71415 -4.72341,-0.75285 -88.23801,-0.75285 h -88.04026 l 0.23372,24.41393 c 0.40301,42.09633 1.68164,61.12409 5.13845,76.46833 2.41396,10.71513 6.66847,20.29302 11.51354,25.91965 1.86601,2.16701 3.03647,2.3463 4.24786,0.65074 0.46274,-0.64769 2.23666,-2.72878 3.94206,-4.62467 4.98815,-5.54531 10.58442,-8.18649 18.37449,-8.67189 16.22657,-1.01107 29.85675,10.15948 34.59407,28.35142 1.82829,7.02086 2.30996,16.70668 1.20324,24.19558 -0.31471,2.1295 -0.57526,3.96861 -0.57902,4.08691 -0.007,0.21653 36.00714,0.11821 36.19007,-0.0987 0.2429,-0.28817 2.52489,-20.45767 2.86053,-25.28311 0.53925,-7.75255 1.26555,-33.31169 1.11736,-39.32027 l -0.12621,-5.11925 -2.27041,3.29744 c -3.07866,4.47132 -6.81128,8.21823 -12.05321,12.09933 -6.27726,4.64765 -7.92627,5.26103 -8.52313,3.17027 -0.33044,-1.15753 0.30023,-1.86799 3.26858,-3.68211 9.72918,-5.946 17.45867,-15.82901 22.74263,-29.07898 2.52723,-6.33727 4.50615,-12.37686 5.73795,-17.5121 1.19007,-4.96125 2.02829,-6.34112 3.36782,-5.54406 0.69971,0.41633 0.75624,0.73547 0.52782,2.98012 -0.50746,4.98686 -4.28571,16.86274 -7.82876,24.60758 l -1.42876,3.12314 -0.27891,18.49867 c -0.15341,10.17427 -0.4977,22.09978 -0.76509,26.50114 l -0.4862,8.00248 1.96029,6.83948 c 1.07816,3.7617 2.54634,8.96896 3.2626,11.57168 l 1.30232,4.73223 52.12883,0.1091 52.12886,0.1091 v -9.16485 c 0,-6.55461 0.1322,-9.31186 0.46433,-9.68108 0.69276,-0.77022 158.13522,-0.74894 159.07952,0.0215 0.6072,0.49549 0.6511,2.14355 0.5576,20.97233 l -0.1015,20.43457 -79.47558,0.10862 c -58.42366,0.0798 -79.61446,-0.0197 -80,-0.37534 -0.41135,-0.37956 -0.52443,-2.4668 -0.52443,-9.68056 v -9.19665 H 823.72 c -49.07873,0 -51.68463,0.0382 -51.43417,0.75285 0.14508,0.41406 0.71074,2.47851 1.25697,4.58766 1.10839,4.27984 0.9512,5.19942 -0.8888,5.19942 -1.08013,0 -1.14227,-0.12845 -2.49869,-5.16242 l -1.39101,-5.16242 -3.55345,-0.12373 c -1.9544,-0.068 -3.55609,-0.068 -3.55934,0 -0.006,0.12292 -2.44067,13.29971 -5.34886,28.94718 -1.87331,10.0793 -3.33052,19.62137 -4.20465,27.53291 -1.43679,13.00378 -0.62482,36.10973 1.84435,52.48458 2.03847,13.51848 3.47639,24.19708 3.70659,27.52681 l 0.25322,3.6628 h 58.75787 58.75792 v -9.16329 c 0,-6.55341 0.1322,-9.31033 0.46432,-9.67954 0.73239,-0.81426 158.69043,-0.74415 159.29863,0.0707 0.3159,0.42309 0.4101,6.27797 0.3376,20.97233 l -0.1006,20.38537 -79.47558,0.10862 c -57.74844,0.0789 -79.61689,-0.0218 -79.99257,-0.36848 -0.39562,-0.36504 -0.54146,-2.6401 -0.62118,-9.69022 l -0.10412,-9.21319 -58.42807,-0.006 -58.42804,-0.007 -0.0834,5.50062 c -0.0458,3.02534 -0.27237,8.90102 -0.50347,13.05708 -0.50741,9.12579 -0.24813,11.98863 2.12094,23.41805 6.83324,32.96644 8.83847,49.05346 9.37086,75.17771 l 0.24329,11.93809 h 52.95073 52.95062 v -9.41841 c 0,-8.1915 0.0797,-9.45241 0.61205,-9.67953 0.33664,-0.14357 36.17122,-0.26113 79.6324,-0.26113 60.94434,0 79.12654,0.11805 79.48464,0.51625 0.3479,0.3868 0.4643,5.56058 0.4643,20.63453 0,18.72617 -0.047,20.14506 -0.6771,20.50501 -0.395,0.22556 -33.616,0.36632 -79.72379,0.33778 -69.81056,-0.0432 -79.08956,-0.12438 -79.41367,-0.69422 -0.20185,-0.35491 -0.36965,-4.7591 -0.37291,-9.78708 l -0.006,-9.14179 h -53.01089 -53.01087 l -0.007,5.05488 c -0.004,2.78017 -0.0883,6.3132 -0.18794,7.85117 -0.0996,1.53797 -0.28842,5.26833 -0.41954,8.28968 -0.20815,4.7965 -0.33157,5.54882 -0.97288,5.93041 -0.51046,0.30373 -0.9883,0.28602 -1.56654,-0.058 -0.92343,-0.54946 -0.91519,1.68955 -0.0752,-20.40138 l 0.25362,-6.66953 -57.99004,0.10894 -57.99005,0.10893 -0.32694,1.50572 c -0.80431,3.70416 -1.66299,6.59585 -3.39822,11.44376 -1.02484,2.8632 -2.14294,6.44463 -2.48469,7.95873 -1.38083,6.11794 -1.65956,6.33932 -7.83306,6.22121 -5.21107,-0.0997 -5.56101,-0.33887 -6.69625,-4.57696 -0.4283,-1.59894 -1.97712,-5.60366 -3.44184,-8.89941 -1.46471,-3.29574 -3.31111,-8.19991 -4.1031,-10.89815 -1.22706,-4.18044 -1.46644,-5.63748 -1.61881,-9.85321 -0.11597,-3.20989 0.0178,-6.27115 0.3812,-8.71688 0.65195,-4.3883 0.54442,-5.18095 -1.59566,-11.76204 -0.8543,-2.62709 -1.82678,-6.24875 -2.16109,-8.04814 -1.17066,-6.30124 -0.55302,-15.62344 1.35546,-20.4581 l 0.74138,-1.87809 -1.06212,0.25444 c -6.67945,1.60012 -7.98703,1.70953 -11.82215,0.98915 -4.33594,-0.81446 -7.41749,-2.25315 -12.10995,-5.65383 l -3.32834,-2.41208 -2.95888,0.64266 c -4.27119,0.9277 -5.60611,1.05299 -7.37902,0.69253 -1.47625,-0.30012 -2.07885,0.0289 -1.18184,0.64523 0.63625,0.43719 2.58032,4.99215 3.50408,8.21007 1.03561,3.60758 2.3831,6.68049 3.29463,7.51336 0.37218,0.34005 1.16931,1.47894 1.77141,2.53085 2.99084,5.22521 -0.34449,9.87646 -5.39894,7.52903 -3.29721,-1.53131 -4.95218,-4.4133 -6.657,-11.59261 -1.16673,-4.91337 -2.62473,-8.70468 -3.74506,-9.73843 -0.39156,-0.36129 -1.10056,-0.0494 -2.97653,1.30953 -3.74672,2.714 -6.10902,3.48158 -10.71488,3.48158 -7.59397,0 -13.06179,-3.12688 -19.44244,-11.11853 -4.01941,-5.03423 -6.46375,-11.34641 -6.46375,-16.69173 0,-1.23617 0.25796,-3.611 0.57323,-5.27738 l 0.57326,-3.02978 -1.08747,-1.83811 c -2.4296,-4.10673 -2.95559,-6.1551 -2.95844,-11.52123 -0.003,-4.4822 0.10149,-5.22374 1.09798,-7.83285 l 1.10061,-2.88193 -1.10061,-2.49199 c -0.99733,-2.25815 -1.10063,-2.91588 -1.10063,-7.00912 0,-4.50094 0.006,-4.52943 1.66229,-7.95872 1.63392,-3.38294 1.65307,-3.47095 1.12218,-5.16242 l -0.5401,-1.7208 -7.55829,-0.11642 -7.55831,-0.11642 -0.2254,1.83728 c -0.62731,5.1133 -0.66225,13.18936 -0.0937,21.67011 0.71219,10.62415 0.5769,12.48101 -1.75224,24.04774 -3.80245,18.88339 -4.70135,23.51789 -5.42365,27.9631 -1.69213,10.41383 -3.04187,23.21698 -3.83147,36.34401 -0.51788,8.60965 -0.53327,34.41029 -0.0266,44.74898 0.32492,6.63139 0.29613,7.61824 -0.24166,8.28138 -0.67899,0.83723 -1.19073,0.92774 -2.00511,0.35461 z m 137.34312,-4.93801 c 0.65787,-2.91929 1.94689,-7.15402 3.28634,-10.79631 1.25021,-3.39964 3.27923,-10.20115 3.27923,-10.99234 0,-0.2376 -2.24275,-0.40801 -5.36979,-0.40801 -5.73778,0 -6.57531,-0.29319 -6.05401,-2.11929 0.23281,-0.81553 0.61526,-0.8774 6.11084,-0.98859 l 5.86249,-0.1187 0.30173,-1.5057 c 0.52883,-2.63892 0.37828,-11.64265 -0.24816,-14.84196 -0.96661,-4.93656 -0.7583,-9.1681 0.70116,-14.24314 0.23596,-0.82052 0.0774,-0.93106 -1.66558,-1.16054 -4.16249,-0.54812 -8.23469,-3.90491 -11.03033,-9.0925 -1.48594,-2.75733 -1.73611,-4.29734 -0.76533,-4.7115 1.26869,-0.54127 1.70069,-0.17925 3.41021,2.85783 3.03609,5.39391 6.13199,7.38047 11.61354,7.45214 l 3.44718,0.045 1.88488,2.65342 c 3.7853,5.32869 9.0036,7.29337 14.47244,5.44885 2.59182,-0.87415 3.10172,-0.82269 4.62202,0.46655 3.22656,2.73616 10.36701,3.61382 15.38419,1.89091 2.91821,-1.00211 6.67493,-3.65151 8.48902,-5.98681 1.20148,-1.54666 1.41113,-1.64165 4.23988,-1.92072 4.20744,-0.41507 6.46618,-1.27483 9.17598,-3.49269 3.36529,-2.75437 5.61726,-6.34718 6.83716,-10.90806 1.2915,-4.82863 1.26217,-4.7773 3.60459,-6.30638 5.52133,-3.60423 8.45703,-9.43928 8.07539,-16.05081 l -0.18812,-3.25909 1.81296,-2.17046 c 3.51454,-4.20756 4.65897,-7.12394 4.65897,-11.87256 0,-2.95387 -0.39716,-4.64659 -1.95012,-8.31149 -0.70953,-1.67443 -0.79619,-2.23699 -0.43081,-2.79631 2.37836,-3.64084 2.9296,-5.51717 2.92302,-9.94953 -0.006,-3.83926 -0.75691,-5.98866 -3.31186,-9.47615 l -1.73336,-2.36601 0.69018,-1.26861 c 0.7566,-1.3907 2.147,-7.38351 1.80203,-7.76704 -0.26498,-0.29459 -11.57191,-0.30108 -11.83661,-0.007 -0.10457,0.11626 0.26813,3.653 0.8283,7.85929 1.51177,11.35156 1.92553,17.57477 1.66691,25.07098 -0.34948,10.12964 -1.71623,17.04116 -4.94782,25.02046 -5.56014,13.72885 -14.68285,24.30333 -25.15814,29.16173 -5.26925,2.44385 -9.13097,3.23946 -15.61548,3.21715 -10.67026,-0.0367 -17.18036,-2.43398 -28.44014,-10.47283 -2.87303,-2.05119 -6.08199,-4.10885 -7.13099,-4.57255 -1.50786,-0.66653 -1.97403,-1.113 -2.22596,-2.13191 -0.75104,-3.0376 0.47156,-4.50374 3.26518,-3.91562 1.45969,0.30731 5.81895,2.72608 8.21147,4.55623 0.91197,0.6976 3.4635,2.32343 5.67006,3.61296 22.4805,13.1377 43.2017,5.39479 54.95956,-20.53678 5.98492,-13.19955 6.76445,-25.06877 3.30983,-50.39625 l -0.88018,-6.45302 -6.13522,-0.11869 -6.13524,-0.1187 0.2666,2.23443 c 0.34767,2.91389 1.09225,4.83269 2.74604,7.07656 0.74035,1.0045 1.34608,2.06963 1.34608,2.36694 0,0.29731 -0.45542,2.00703 -1.01205,3.79941 -1.51573,4.88074 -0.94891,8.85464 1.88992,13.24998 l 1.17373,1.81729 -1.63572,1.97295 c -0.89964,1.08512 -1.88363,2.63261 -2.18662,3.43886 -0.71025,1.88993 -0.70481,5.95061 0.0117,8.59693 0.30934,1.14275 0.4932,2.20226 0.40858,2.35447 -0.0847,0.15219 -0.98299,0.74834 -1.99641,1.32471 -3.90931,2.22344 -5.33741,5.08348 -5.10125,10.21626 0.14302,3.10947 0.16092,3.0887 -3.18833,3.70777 -3.40738,0.62982 -6.899,4.78277 -7.53391,8.96089 -0.34887,2.29582 -1.32718,2.63587 -3.84017,1.33483 -1.30065,-0.67338 -2.66045,-1.0094 -4.0963,-1.0122 -1.92864,-0.003 -2.40542,0.19627 -4.64303,1.94808 l -2.49369,1.95227 -2.3219,-2.75826 c -1.27705,-1.51703 -2.93133,-3.11078 -3.6762,-3.54164 -1.42415,-0.82379 -5.49769,-1.10853 -7.39032,-0.51659 -0.83222,0.2603 -1.39982,-0.0285 -3.289,-1.6735 -4.26466,-3.71346 -8.64207,-5.32732 -14.47182,-5.33545 -7.10014,-0.01 -12.44834,2.50063 -16.85973,7.91424 -5.05178,6.19945 -7.31253,16.05743 -5.83722,25.45311 0.33442,2.12975 1.39907,6.43994 2.36591,9.57818 1.95169,6.33498 2.08059,7.80968 1.2974,14.84338 -0.8897,7.99015 0.29467,13.55879 5.46522,25.69644 1.6631,3.90409 3.23835,8.00158 3.50053,9.10558 l 0.47671,2.00724 3.44243,-0.0301 3.44244,-0.0301 z m 392.43384,-23.70221 -0.1051,-17.85351 H 955.50629 878.1265 v 17.85336 17.85337 l 77.48488,1.5e-4 77.48492,1.3e-4 z M 766.1477,701.51259 c -0.67636,-26.69538 -2.86521,-44.16068 -9.31386,-74.31732 -2.44554,-11.43634 -2.34523,-10.45067 -2.18903,-21.51006 0.0802,-5.67866 0.16727,-13.03512 0.19347,-16.34767 l 0.0477,-6.02282 -8.55863,-0.11561 -8.55863,-0.11561 -0.26445,2.59881 c -0.14552,1.42933 -0.51081,3.37511 -0.81191,4.32394 -0.53728,1.69301 -0.52156,1.77018 0.84455,4.1445 2.06844,3.595 2.8388,6.42763 2.8388,10.43843 0,3.36733 -0.94216,7.29947 -2.34916,9.8043 -0.41617,0.7409 -0.35169,1.23019 0.41938,3.18197 1.10114,2.78733 1.51608,9.51066 0.78593,12.73454 -0.71784,3.16955 -2.76823,7.368 -4.3975,9.00453 -1.35421,1.36023 -1.46171,1.62896 -1.23867,3.09665 0.3417,2.24867 -0.65681,7.12942 -2.15958,10.5561 -1.35436,3.08828 -5.11203,7.46191 -7.49775,8.72676 -1.06785,0.56616 -1.36261,1.07283 -1.91934,3.29911 -1.47308,5.89076 -4.85617,11.24062 -9.10128,14.39233 -2.43832,1.81029 -7.26235,3.52095 -9.92901,3.52095 -1.2617,0 -1.78479,0.27955 -2.87569,1.53685 -2.32094,2.67495 -5.67919,4.84967 -9.58507,6.20708 -5.89839,2.04987 -10.44953,1.67526 -16.36283,-1.34681 -2.29023,-1.17045 -2.71668,-1.25898 -4.06287,-0.8434 -2.33181,0.71983 -6.76856,0.56504 -9.34354,-0.32599 -2.76627,-0.95722 -5.4433,-2.92978 -7.11514,-5.24276 -0.67813,-0.93817 -1.38682,-1.70577 -1.57489,-1.70577 -0.65961,0 -1.49278,3.08828 -1.71799,6.36805 -0.15758,2.29488 -0.0294,4.38675 0.41755,6.81402 0.6599,3.58385 0.87291,12.59392 0.37893,16.02847 l -0.2537,1.76397 h 57.762 57.76202 z M 586.13807,674.9133 c 0.15099,-0.43744 -0.43654,-1.5489 -1.64871,-3.11896 -2.01475,-2.60958 -3.66208,-5.93153 -4.11416,-8.29645 -0.15312,-0.80097 -0.8102,-3.00502 -1.4602,-4.89789 -0.94362,-2.74797 -1.65528,-3.99051 -3.531,-6.165 -1.29207,-1.49785 -3.39644,-3.55783 -4.67636,-4.57771 -5.0741,-4.04319 -10.40493,-11.40321 -13.38152,-18.47522 -1.93629,-4.60039 -3.98887,-12.25366 -4.85549,-18.10425 -1.1372,-7.67732 -0.93417,-20.34302 0.56549,-35.27652 0.66529,-6.62511 1.38633,-14.54204 1.60227,-17.5932 0.42941,-6.0669 0.47238,-29.96687 0.0569,-31.61577 -0.14229,-0.5645 -0.79406,-1.48546 -1.44848,-2.04654 l -1.18986,-1.02016 0.1788,12.80158 c 0.18209,13.03781 -0.32612,24.01183 -1.65874,35.81738 -1.80097,15.95466 -2.22107,27.35607 -1.3399,36.36381 0.46532,4.75673 1.92004,12.48432 3.13281,16.6418 1.06737,3.65904 3.91189,9.88276 5.95542,13.03032 3.25713,5.01678 10.03519,11.95213 13.24027,13.54752 1.71116,0.85176 3.99968,3.63016 5.11442,6.20924 0.41682,0.96432 1.21265,3.59243 1.76855,5.84023 1.87401,7.57767 2.62216,9.19776 4.98834,10.80194 1.45989,0.98977 2.38988,1.03587 2.70121,0.13382 z m 99.67894,-3.64922 c 3.1139,-0.55781 7.48931,-1.99619 9.28085,-3.05098 0.74171,-0.43668 1.53029,-0.79399 1.7524,-0.79399 0.72773,0 7.30081,-5.03187 9.35856,-7.16423 7.22046,-7.48227 13.15968,-18.85544 15.80387,-30.2633 2.14408,-9.25022 2.13951,-19.55638 -0.0165,-36.99732 -1.36976,-11.08092 -1.16914,-10.32484 -2.73958,-10.32484 -0.72796,0 -1.32355,0.20689 -1.32355,0.45974 0,0.25287 0.51713,4.46347 1.14918,9.35689 1.96808,15.23713 2.24043,24.59553 0.95704,32.88451 -1.70558,11.01566 -7.22126,23.03385 -14.19355,30.92653 -6.30046,7.13218 -12.62638,10.75719 -21.38304,12.25338 -9.40854,1.60756 -21.0521,-1.79128 -30.89242,-9.01774 -2.8964,-2.12705 -7.60604,-4.80967 -9.20023,-5.24048 -0.76519,-0.20678 -1.07734,-0.0831 -1.28125,0.5077 -0.31435,0.9108 0.85184,2.14737 2.43854,2.58567 0.55834,0.1543 1.45048,0.60728 1.98252,1.00674 13.6602,10.2565 20.60741,13.20163 31.3422,13.28691 2.4474,0.0195 5.58161,-0.16739 6.96493,-0.41519 z M 565.12603,656.7546 c 3.0594,-1.7275 5.02731,-3.48123 4.28743,-3.82083 -0.90621,-0.41592 -5.21245,-4.48376 -7.67064,-7.24597 -5.61208,-6.30613 -9.30792,-13.31401 -11.56776,-21.93413 -3.66754,-13.98989 -4.07026,-29.28885 -1.34758,-51.19399 1.37736,-11.08128 1.74275,-18.06539 1.74652,-33.38159 l 0.004,-15.74335 -1.19835,-2.14327 c -1.65924,-2.96757 -2.55549,-5.75828 -2.4066,-7.49352 0.11115,-1.29506 0.25555,-1.46649 1.23544,-1.46649 1.01866,0 1.16829,0.21157 1.8257,2.58121 0.39385,1.41967 1.27474,3.33157 1.95755,4.24868 2.32113,3.11765 8.28208,5.28385 9.61743,3.49495 0.26494,-0.35491 0.86921,-0.64529 1.34282,-0.64529 0.68485,0 1.14975,0.64926 2.27108,3.17177 1.60469,3.60989 3.79453,5.90881 6.86329,7.20522 2.33431,0.98613 5.7832,1.04769 7.37648,0.13171 1.08396,-0.6232 1.23506,-0.61795 1.91549,0.0667 0.40629,0.4088 0.7387,0.98803 0.7387,1.28721 0,1.25127 3.86869,5.22792 6.27173,6.44674 3.18014,1.61297 7.48833,1.94367 10.36071,0.79531 1.92662,-0.77027 1.94597,-0.76913 3.00399,0.17524 5.8202,5.19502 10.48914,6.34947 15.96824,3.94835 2.54831,-1.11674 2.71813,-1.10133 5.74266,0.52127 2.26257,1.21382 3.04632,1.40005 6.54367,1.55479 4.6207,0.20446 6.87932,-0.30453 9.44673,-2.12885 1.68446,-1.19694 1.88832,-1.24492 2.90205,-0.68291 2.15538,1.19494 5.01717,1.81335 8.24872,1.78253 3.96917,-0.0379 6.67679,-1.02132 10.04588,-3.64882 l 2.33319,-1.81962 2.88748,0.54915 c 6.29408,1.197 11.24008,-0.85804 14.49976,-6.02459 l 1.59417,-2.52672 3.98131,0.25068 c 3.76977,0.23734 4.10879,0.18706 6.37995,-0.94613 2.86457,-1.42927 4.796,-3.65953 6.24712,-7.21372 l 1.05108,-2.57434 2.67262,-0.0668 c 5.05487,-0.1265 9.39632,-3.81721 10.86575,-9.23702 0.75932,-2.80065 1.35901,-3.49284 3.02614,-3.49284 4.15891,0 10.60998,-7.1695 10.64503,-11.83054 0.0178,-2.36866 1.44029,-3.34362 2.75148,-1.88583 0.64223,0.71405 0.75047,1.20329 0.54505,2.46389 -0.35992,2.20895 -1.88941,5.8136 -3.50504,8.26061 -1.30849,1.98179 -1.44238,2.5301 -2.90378,11.89162 -2.51012,16.0795 -3.18683,23.71597 -3.19511,36.05632 -0.006,9.40487 0.28989,15.49815 1.12409,23.12332 l 0.22355,2.04346 h 5.97488 5.9749 l -0.45943,-0.96795 c -0.25268,-0.53237 -1.29081,-1.98439 -2.30692,-3.22672 l -1.8475,-2.25875 1.30916,-2.41713 c 2.61619,-4.83036 2.15791,-10.4321 -1.22111,-14.92562 l -0.91033,-1.2106 1.55013,-2.44611 c 2.79235,-4.40638 2.92385,-8.8604 0.38462,-13.02676 -0.63529,-1.04237 -1.15823,-2.0591 -1.16211,-2.2594 -0.004,-0.2003 0.68132,-1.23361 1.52264,-2.29626 2.30248,-2.90822 3.11362,-5.08936 3.11362,-8.3726 0,-2.13616 -0.22967,-3.30598 -0.96573,-4.91904 -0.53115,-1.16401 -0.96647,-2.26725 -0.96736,-2.45167 -8.9e-4,-0.18443 0.68224,-1.29717 1.51804,-2.47277 2.78501,-3.9172 3.82131,-8.24782 3.01482,-12.59869 -0.5209,-2.81012 -0.50422,-3.05835 0.40456,-6.02282 2.5287,-8.24871 0.18425,-16.30979 -5.71692,-19.65694 -4.53584,-2.57272 -8.11274,-0.20338 -15.2657,10.11201 -4.24932,6.128 -7.14878,9.6014 -12.00962,14.38691 -6.82577,6.71996 -11.03971,9.98808 -19.15356,14.85453 -12.90977,7.74289 -25.50544,12.18776 -38.55902,13.60703 -5.98424,0.65064 -22.54871,0.25539 -27.80132,-0.66339 -13.88721,-2.42912 -26.6127,-7.17367 -40.04837,-14.93157 -6.49289,-3.74905 -11.02442,-6.92949 -14.21583,-9.97732 -6.2692,-5.98717 -12.85376,-8.2329 -17.2549,-5.88495 -2.66843,1.42356 -5.73255,4.70375 -6.90579,7.39273 -1.88852,4.32843 -2.38658,9.86775 -1.26483,14.06741 0.58444,2.18808 0.57488,2.30796 -0.35855,4.48764 -1.88206,4.3949 -1.65494,8.60118 0.72802,13.48313 l 1.28843,2.6396 -1.51693,2.24455 c -3.10947,4.60098 -3.41031,9.45237 -0.92391,14.89868 l 1.40197,3.0709 -1.57594,2.3104 c -1.84065,2.69846 -2.83773,5.68518 -2.6669,7.9886 0.13571,1.83107 -0.23438,1.71812 5.93751,1.81192 2.81403,0.0428 3.51156,0.71266 2.29646,2.20543 -0.58955,0.72429 -1.20159,0.84438 -4.30326,0.84438 -1.98879,0 -3.61598,0.16658 -3.61598,0.37018 0,0.20359 0.43532,1.08334 0.96736,1.955 0.53204,0.87166 0.96735,1.69798 0.96735,1.83625 0,0.1382 -0.62904,1.02554 -1.39789,1.9717 -3.83336,4.71746 -4.20512,11.56304 -0.90315,16.63091 l 1.20169,1.84435 -0.78572,0.92986 c -1.38575,1.63999 -2.4872,5.05624 -2.67609,8.30024 -0.20145,3.45963 0.81241,7.90626 2.34945,10.30425 2.58626,4.03493 2.42492,3.19652 1.45837,7.57829 -0.91811,4.16217 -0.88284,6.47134 0.15761,10.315 1.09709,4.05288 2.58897,6.53788 6.54544,10.90265 5.79151,6.38917 9.80476,8.44302 16.12759,8.25353 2.87777,-0.0862 3.63839,-0.28427 5.81696,-1.5144 z m 52.10329,-2.27891 c 3.145,-1.29217 5.66143,-3.43886 7.92089,-6.75706 2.03961,-2.99533 2.79779,-5.42669 2.43556,-7.81046 -0.22584,-1.48609 -0.39023,-1.65342 -2.27267,-2.31314 -2.40278,-0.8421 -4.90473,-2.87461 -6.30617,-5.123 -0.5554,-0.89103 -1.13811,-1.62004 -1.29493,-1.62004 -0.15682,0 -1.06402,0.38306 -2.01599,0.85125 -0.95199,0.46818 -2.93301,0.9728 -4.40228,1.12138 -7.54968,0.76347 -15.21832,-4.7557 -17.3857,-12.51257 -0.23508,-0.8413 -0.25614,-0.83897 -0.94903,0.10504 -0.84455,1.15069 -0.69215,3.61935 0.39768,6.4414 0.8262,2.1394 3.77067,5.76683 5.7444,7.07682 0.76753,0.5094 2.87554,1.94751 4.68449,3.19579 3.95905,2.73197 7.26365,3.70473 9.5132,2.80034 1.2752,-0.51268 1.46086,-0.4795 2.31625,0.41395 0.73383,0.76646 0.8349,1.0986 0.47927,1.57502 -1.32511,1.77516 -5.02404,2.42985 -8.25815,1.46162 -0.84983,-0.25441 -3.10207,-1.54939 -5.00497,-2.87772 -7.93508,-5.53912 -11.0597,-6.45658 -17.32227,-5.08629 -0.86705,0.18972 -1.15662,0.6013 -1.60556,2.28205 -0.75651,2.83229 -1.98306,5.43706 -3.81994,8.11233 -0.85704,1.24823 -1.46038,2.37834 -1.34072,2.51138 0.6301,0.70056 4.9026,0.64714 7.24992,-0.0906 1.37984,-0.43369 3.37942,-0.7894 4.44352,-0.79048 1.74946,-0.002 2.29675,0.27177 5.71616,2.85683 3.38951,2.56246 6.44079,4.07963 10.53535,5.23843 1.91741,0.54263 8.16867,-0.0873 10.54169,-1.06229 z m 64.33134,-3.27717 c 1.59614,0.11121 3.2503,0.32901 3.67593,0.48405 0.65239,0.23763 0.97882,-0.16162 2.07925,-2.54269 1.71522,-3.71143 3.92396,-5.81783 7.83335,-7.47034 0.86279,-0.36472 1.03691,-0.75986 1.25848,-2.85595 0.41998,-3.97275 2.49891,-7.80079 5.257,-9.67993 1.10222,-0.75098 1.49751,-1.26747 1.31698,-1.72082 -0.14186,-0.35626 -0.37421,-2.68047 -0.5163,-5.16489 -0.39351,-6.87964 -2.09538,-10.13269 -5.97041,-11.41211 -2.76105,-0.91163 -3.609,-0.8061 -6.62597,0.82454 -3.86238,2.08758 -8.00076,7.0003 -9.27235,11.00735 -0.57962,1.8265 -1.40152,3.02184 -2.07778,3.02184 -0.60004,0 -0.92779,-1.63736 -0.65333,-3.26392 0.1363,-0.80756 0.17469,-1.4683 0.0854,-1.4683 -0.0894,0 -0.92428,0.31501 -1.85551,0.70002 -0.93123,0.38501 -3.39181,0.82059 -5.46795,0.96795 l -3.77481,0.26794 1.55377,2.43177 c 1.70743,2.67226 2.45829,4.70218 2.86277,7.73934 0.25764,1.93461 0.32021,2.01246 1.99424,2.48111 3.8765,1.08525 10.10448,-1.31041 12.82962,-4.93503 0.73908,-0.98302 2.2459,-3.50872 3.34849,-5.61266 2.05918,-3.92924 3.07713,-4.78456 4.08595,-3.43311 0.40035,0.53632 0.16736,1.31722 -1.34363,4.50336 -3.45629,7.28812 -5.99107,10.02162 -11.06685,11.93436 -2.77145,1.04439 -7.72292,1.47424 -9.28836,0.80636 -0.45272,-0.19314 -0.80476,0.37558 -1.44965,2.34197 -0.46843,1.42839 -1.44446,3.46045 -2.16894,4.51568 l -1.31725,1.91863 2.08727,1.06242 c 1.14801,0.58433 2.83764,1.90642 3.75473,2.93794 l 1.66746,1.87551 2.12818,-1.23228 c 1.93007,-1.11757 2.39831,-1.21347 5.03022,-1.03011 z m -104.82975,-6.6617 c 2.84448,-4.26526 3.59454,-5.84701 4.38899,-9.25562 1.11234,-4.77265 0.60718,-8.53682 -1.90435,-14.1901 -1.05128,-2.36637 -2.06273,-3.79835 -4.3064,-6.09691 l -2.93241,-3.00412 0.65749,-2.91477 c 1.05601,-4.68149 0.0246,-8.78808 -2.85317,-11.35921 -0.87673,-0.78332 -1.59403,-1.58926 -1.59403,-1.79098 0,-0.20171 0.41143,-1.09137 0.91431,-1.97703 1.9708,-3.471 1.51259,-7.9984 -1.1464,-11.32701 -0.93644,-1.17226 -1.70262,-2.22537 -1.70262,-2.34025 0,-0.11495 0.52237,-1.29722 1.16082,-2.62742 1.88604,-3.9295 1.47809,-7.87973 -1.20879,-11.70493 -0.70297,-1.00079 -0.69814,-1.0496 0.27692,-2.79631 3.30213,-5.91535 3.42963,-10.5432 0.4134,-15.00624 -0.95283,-1.40991 -0.90852,-2.83468 0.10998,-3.5345 0.85802,-0.58957 1.97477,-3.74185 2.20925,-6.23608 l 0.2421,-2.57513 -2.86324,-3.13035 c -1.57478,-1.72168 -3.20974,-3.64624 -3.63326,-4.2768 -0.67093,-0.99896 -1.13515,-1.18268 -3.60746,-1.42774 l -2.83745,-0.28124 0.26957,10.24685 c 0.35637,13.54549 -0.0117,19.80455 -2.60509,44.23279 -0.29707,2.79879 -0.49876,9.47787 -0.49367,16.34765 0.007,10.39708 0.099,12.07411 0.87118,15.98816 1.67017,8.46664 4.91437,17.39906 8.31524,22.89469 2.09983,3.39322 10.05354,11.66448 11.2177,11.66556 0.1605,1.5e-4 1.34914,-1.58519 2.64144,-3.52296 z m 86.15867,2.26203 c 3.4167,-2.75175 5.2766,-6.84107 5.29744,-11.64732 0.019,-4.37977 -1.05128,-6.68108 -5.91142,-12.7109 -4.82059,-5.98075 -5.32298,-6.98907 -4.70499,-9.44311 0.25269,-1.00345 1.23173,-2.86563 2.17563,-4.13818 3.86557,-5.21149 4.81102,-9.27348 3.21336,-13.80571 -1.0446,-2.96332 -2.22841,-4.29284 -5.13725,-5.76948 -3.41708,-1.73466 -7.15351,-1.65523 -12.44065,0.26448 -5.82217,2.11397 -8.61455,1.8263 -11.07229,-1.14063 -0.55651,-0.67181 -1.91217,-2.80031 -3.01261,-4.73 -1.10042,-1.92968 -2.74435,-4.27056 -3.65318,-5.20196 -4.02934,-4.12935 -10.28613,-5.98627 -15.87268,-4.71077 -7.46921,1.70535 -12.92023,6.6009 -16.74016,15.03431 -0.72347,1.59724 -1.4731,2.90407 -1.66583,2.90407 -1.91279,0 -2.04191,-1.86996 -0.33833,-4.89974 0.98012,-1.74311 1.26788,-2.77789 1.38901,-4.9949 0.23038,-4.2163 -0.76731,-6.68464 -4.57956,-11.33005 -3.10813,-3.78741 -3.4786,-4.72307 -2.21922,-5.60481 0.72903,-0.51042 0.60865,-0.59632 5.1237,3.65584 2.68028,2.52423 4.74206,3.45823 8.95811,4.05813 1.57229,0.22372 2.56044,0.0571 4.83676,-0.81563 11.27689,-4.32339 21.59882,-0.44141 27.53277,10.3548 3.30791,6.01841 4.15281,6.40449 9.71585,4.43973 2.69677,-0.95245 5.02973,-1.46006 7.47918,-1.62734 4.10847,-0.28057 5.69545,0.0968 10.59038,2.51822 1.82377,0.90218 4.21797,1.85542 5.32045,2.11829 1.85837,0.4431 2.0045,0.56944 2.0045,1.73291 0,1.22266 -0.0509,1.25495 -1.9761,1.25495 -1.72949,0 -1.94155,0.094 -1.69926,0.75285 0.78615,2.13797 1.02905,4.0133 0.90174,6.96201 -0.16284,3.77192 -0.92912,5.80802 -3.83026,10.17751 -1.04985,1.5812 -1.90881,3.32569 -1.90881,3.87664 0,1.34719 2.06756,3.88835 3.59854,4.42284 3.71007,1.29522 9.2143,0.86711 12.90513,-1.00377 1.09637,-0.55575 3.33262,-2.39104 4.96947,-4.07843 2.30617,-2.37737 3.89133,-3.55512 7.04211,-5.23217 4.29794,-2.28762 5.22521,-3.16977 6.96718,-6.62814 0.95323,-1.89245 1.08348,-2.59677 1.08348,-5.85922 0,-3.54213 -0.0779,-3.87929 -1.74124,-7.52853 -0.95768,-2.10118 -1.76469,-4.01391 -1.79334,-4.25052 -0.0287,-0.2366 -0.0722,-0.62379 -0.097,-0.8604 -0.0504,-0.48387 -10.33562,-0.5322 -10.76879,-0.0506 -0.14522,0.16146 -0.0604,1.84566 0.18825,3.74279 0.34587,2.63833 0.77337,4.02786 1.81821,5.90989 1.42981,2.57547 1.72395,3.94928 0.84556,3.94928 -0.28623,0 -0.8356,-0.38719 -1.22078,-0.86041 -0.83658,-1.02776 -1.35431,-1.10452 -1.35431,-0.20081 0,1.33059 -2.03814,5.07702 -3.79992,6.98483 -2.32932,2.52239 -5.39532,4.09775 -8.40491,4.31854 -1.80184,0.13219 -2.45494,0.0146 -2.84861,-0.51273 -0.82959,-1.11136 -0.22293,-1.8579 1.76995,-2.17805 4.10982,-0.66025 7.91363,-3.48154 9.4816,-7.03253 0.74251,-1.6816 0.89445,-2.71686 0.89691,-6.11148 0.003,-3.4421 -0.13718,-4.37867 -0.88517,-5.93622 -0.48844,-1.01712 -1.09788,-1.92847 -1.35429,-2.0252 -0.25641,-0.0967 -7.01267,-0.2325 -15.01391,-0.3017 -15.52489,-0.1343 -16.01069,-0.20332 -15.74907,-2.23917 0.11407,-0.88792 0.27886,-0.90046 14.62048,-1.11315 l 14.50507,-0.2151 -1.81788,-1.33832 c -0.99983,-0.73609 -3.52227,-1.97473 -5.60542,-2.75251 -5.42618,-2.02597 -10.25285,-2.22899 -16.23845,-0.683 -5.79336,1.49634 -6.51003,1.46958 -7.52342,-0.28103 -0.44515,-0.76898 -0.68138,-1.01097 -0.52496,-0.53775 0.676,2.04516 0.57798,2.77104 -0.75009,5.55431 -0.76267,1.59835 -1.39758,2.74481 -1.4109,2.5477 -0.0132,-0.19712 -0.0594,-1.72911 -0.10223,-3.40445 -0.0654,-2.55499 -0.3138,-3.57648 -1.54058,-6.33623 -1.975,-4.44292 -4.33923,-7.04657 -8.40634,-9.25767 -3.45475,-1.8782 -11.0682,-4.37582 -13.3387,-4.37582 -0.73893,0 -2.691,0.41101 -4.33794,0.91335 -2.2128,0.67495 -4.30971,0.93844 -8.03333,1.00948 l -5.03893,0.0961 -1.85032,-1.89996 c -2.3106,-2.37258 -5.0779,-3.80209 -8.69528,-4.49176 -7.07033,-1.34799 -12.87759,2.21776 -14.6497,8.99511 -1.25082,4.78375 -0.19673,8.87536 3.65474,14.18638 1.06739,1.47188 2.05318,3.07013 2.19065,3.55169 0.13747,0.48154 -0.0478,1.98756 -0.41192,3.34668 -1.44399,5.39122 -1.37843,8.7278 0.23849,12.13701 2.96135,6.24395 12.22139,7.16136 19.56518,1.93838 2.08975,-1.48626 3.08686,-2.80358 5.61031,-7.41202 2.0669,-3.77468 3.7029,-4.99236 6.98443,-5.19851 4.32592,-0.27177 5.54305,0.69787 9.97703,7.94828 2.12992,3.48284 2.92018,4.40456 4.91955,5.73795 3.53918,2.3603 6.32651,3.24065 10.19357,3.21954 4.11426,-0.0224 6.60754,-0.92553 9.53631,-3.45402 2.3973,-2.06969 2.88794,-2.24051 3.61967,-1.26023 0.26494,0.35491 0.76302,0.64529 1.10685,0.64529 0.35583,0 -0.88675,1.62171 -2.88421,3.76426 -3.02083,3.24024 -3.60047,4.09523 -4.16378,6.14168 -0.8848,3.21437 -0.86454,4.32812 0.15631,8.59272 0.48144,2.0112 1.1253,4.72148 1.4308,6.02283 0.50964,2.17086 0.93571,2.77835 5.16334,7.3619 2.53433,2.74769 4.60787,5.20916 4.60787,5.46993 0,0.26078 -0.35992,0.68831 -0.79983,0.95005 -0.62902,0.37428 -1.02155,0.31627 -1.83797,-0.27163 -1.50808,-1.08593 -6.57313,-6.56827 -7.84025,-8.48617 l -1.0862,-1.64406 -0.82134,1.78999 c -0.84101,1.83281 -4.25805,5.98564 -5.55861,6.75553 -0.69363,0.41059 -0.68079,0.51387 0.29366,2.36254 1.48319,2.81383 2.05672,3.21484 5.07496,3.54836 1.48973,0.16461 3.49214,0.50603 4.44982,0.75872 2.4657,0.65056 6.8932,3.03705 8.91901,4.80747 0.94703,0.82763 1.91338,1.51476 2.14748,1.52692 0.23409,0.0114 1.1303,-0.54539 1.99157,-1.23906 z m -29.69652,-4.16099 c 1.38332,-0.55697 2.95043,-1.01973 3.48247,-1.02835 1.82607,-0.0296 2.08926,-0.56035 1.21862,-2.45773 l -0.78537,-1.71157 -2.44154,0.56874 c -1.34284,0.31281 -2.99257,0.57276 -3.66606,0.57771 l -1.22454,0.01 -0.12972,2.8021 c -0.10925,2.35996 -0.0382,2.75875 0.45067,2.52747 0.31922,-0.15105 1.71221,-0.73033 3.09551,-1.28732 z m 2.78447,-9.0998 c 6.42197,-3.39247 9.40382,-9.43869 7.89159,-16.00152 -0.82047,-3.5606 -2.15784,-5.97803 -4.82066,-8.71382 -1.97322,-2.02729 -2.79911,-2.50823 -7.52769,-4.38375 -5.16294,-2.04778 -5.40079,-2.0996 -8.51531,-1.85523 -1.83034,0.14357 -4.08529,0.6376 -5.25955,1.1522 -1.96308,0.86028 -2.07906,0.86633 -2.57846,0.13447 -0.28761,-0.4215 -0.52846,-0.98242 -0.53523,-1.24649 -0.0202,-0.79001 5.77324,-2.914 8.01633,-2.93892 2.00984,-0.0223 2.57572,-0.34378 1.45039,-0.82388 -0.31978,-0.13641 -1.5226,-1.85107 -2.67291,-3.8103 -1.15032,-1.95921 -2.51497,-4.00243 -3.03256,-4.54046 -1.16502,-1.21103 -3.10043,-1.86021 -4.57103,-1.53319 -1.37138,0.30493 -3.59702,2.6488 -4.60864,4.85345 -0.416,0.90655 -1.63339,2.8633 -2.70535,4.3483 -2.23676,3.09865 -2.45476,4.46199 -0.96266,6.02045 1.59413,1.66505 3.72869,5.52964 4.41361,7.99081 0.34975,1.25678 0.72795,2.38739 0.84044,2.51246 0.11247,0.12504 1.75805,-0.37966 3.6568,-1.1216 2.75694,-1.07729 4.11471,-1.35772 6.74126,-1.39234 3.00128,-0.0395 3.50157,0.0798 5.71882,1.36389 3.91049,2.26473 6.66329,5.94596 6.66329,8.91056 0,0.74721 -0.28094,1.22303 -0.87061,1.47458 -1.05313,0.44924 -1.22465,0.27809 -1.82968,-1.82566 -0.61797,-2.14885 -2.51742,-4.21401 -5.23587,-5.69274 -3.02816,-1.64718 -5.85077,-1.59389 -10.22739,0.19305 -1.79648,0.73349 -3.64698,1.33361 -4.11223,1.33361 -0.46525,0 -1.06268,0.29038 -1.32761,0.64531 -0.26493,0.35492 -0.63003,0.6453 -0.81132,0.6453 -0.44872,0 -1.51033,-2.34919 -1.51033,-3.34216 0,-3.64098 -2.84339,-8.5123 -5.95732,-10.20614 -2.34014,-1.27293 -3.67211,-1.36976 -9.13337,-0.664 -3.11131,0.40209 -4.71795,0.86087 -6.85985,1.95888 -2.90588,1.48965 -7.45695,5.07887 -7.45695,5.88094 0,0.25326 0.6289,1.23441 1.39755,2.18035 0.76865,0.94592 1.9288,3.00209 2.57811,4.56925 0.64932,1.56716 1.21934,2.90788 1.26674,2.97939 0.0474,0.0715 1.13871,-0.62633 2.42514,-1.55076 1.28642,-0.92442 3.47485,-2.33552 4.86315,-3.13582 2.31248,-1.33299 2.53383,-1.58183 2.63884,-2.96635 0.098,-1.29098 0.26976,-1.53115 1.17872,-1.64742 0.98286,-0.12569 1.27231,0.22536 1.10395,1.33906 -0.098,0.64815 1.18419,5.64386 1.77397,6.91188 1.11813,2.40396 3.94312,5.29464 6.41473,6.56385 2.12212,1.08977 2.8545,1.23878 6.08824,1.23878 3.17415,0 3.97648,-0.15657 5.87754,-1.14739 1.21088,-0.63106 2.42809,-1.55061 2.70492,-2.04345 0.27683,-0.49285 0.6599,-0.89607 0.85128,-0.89607 0.69243,0 1.33648,1.52992 1.12977,2.68373 -0.27735,1.54817 0.57216,2.93629 2.87498,4.6978 3.73865,2.85985 8.23866,3.18122 12.56242,0.89715 z m -43.64386,-1.95076 c 0.68046,-0.0831 0.66193,-0.1886 -0.24248,-1.38061 -1.13194,-1.49188 -2.23549,-4.81376 -2.23549,-6.72919 0,-1.64626 -0.50307,-1.48751 -3.31592,1.04639 l -2.01035,1.81099 0.1801,2.3661 c 0.099,1.30136 0.23144,2.56221 0.29416,2.8019 0.0974,0.37193 4.55592,0.42328 7.32998,0.0844 z m 113.50169,-18.33114 c -1.88249,-3.78718 -2.38379,-5.63637 -2.5189,-9.29177 -0.11246,-3.04077 0.0192,-4.3855 0.61305,-6.26506 l 0.75615,-2.39327 -1.12491,-1.67735 c -1.30752,-1.94967 -2.65305,-6.4399 -2.65305,-8.85361 v -1.67548 h -1.93471 c -2.2822,0 -2.41733,0.4266 -0.99779,3.1499 3.15384,6.05049 2.76605,15.57566 -0.80285,19.71919 l -0.98527,1.14391 1.73053,0.85108 c 2.24507,1.10412 4.77342,3.66382 5.77501,5.84658 l 0.79417,1.73076 0.73829,-1.01368 c 0.40605,-0.55752 0.68069,-1.12956 0.61028,-1.2712 z m -123.64868,-7.74036 2.58492,-1.58843 -2.06045,-1.77251 c -4.28353,-3.68489 -5.89661,-10.36666 -4.07899,-16.8961 l 0.85337,-3.06558 -1.01356,-1.59024 c -4.7478,-7.44902 -5.44859,-9.47108 -5.15955,-14.88718 0.22511,-4.21855 1.10693,-6.62201 3.55301,-9.68409 l 1.78803,-2.23831 -0.76534,-1.19498 c -0.42093,-0.65725 -1.04286,-1.45106 -1.38204,-1.76404 -0.3392,-0.31298 -1.08735,-1.65092 -1.66256,-2.9732 -0.92764,-2.13239 -1.04586,-2.9021 -1.04586,-6.8092 0,-3.19637 -0.13674,-4.46332 -0.49832,-4.61741 -0.60616,-0.25832 -0.75047,0.2036 -0.96073,3.07498 -0.0897,1.22447 -0.62635,3.27923 -1.19264,4.56611 l -1.02964,2.33979 0.96934,2.35406 c 1.8356,4.45774 1.69685,9.1492 -0.40854,13.81419 l -0.93405,2.06964 0.76761,1.67286 c 0.42218,0.92007 0.97438,3.01344 1.22709,4.65194 0.41724,2.7052 0.38329,3.23712 -0.36933,5.78607 l -0.8288,2.80699 1.37846,2.98711 c 1.7108,3.70722 2.1234,7.52559 1.15477,10.68621 -0.59589,1.94434 -0.59187,2.10813 0.0722,2.94771 2.28239,2.88553 3.38063,7.14297 2.98732,11.58063 l -0.265,2.98998 1.86718,-1.82929 c 1.02694,-1.00609 3.03039,-2.54407 4.45208,-3.41771 z m 61.45616,3.07326 c 10e-4,-0.41407 0.26243,-1.30719 0.58026,-1.98473 l 0.57786,-1.23188 -1.83781,0.30417 c -1.01078,0.1673 -1.89098,0.36131 -1.95597,0.43116 -0.0649,0.0697 0.32679,0.66077 0.87063,1.31317 0.54383,0.65242 0.98878,1.35151 0.98878,1.55359 0,0.20206 0.17412,0.36737 0.38693,0.36737 0.21282,0 0.38802,-0.33879 0.38932,-0.75285 z m -40.36046,-6.94368 c 0.42701,-0.7602 0.38254,-0.78213 -0.6808,-0.33589 -1.26265,0.52989 -1.50886,1.1492 -0.45686,1.1492 0.37445,0 0.8864,-0.36599 1.13766,-0.81331 z m 429.62052,-20.20317 v -18.00506 l -77.29146,0.11267 -77.29142,0.11268 -0.10105,17.89239 -0.10091,17.89239 h 77.39239 77.39245 z m -640.00003,-5.87112 v -17.85337 h -77.38816 -77.38814 v 17.85337 17.85337 h 77.38814 77.38816 z m 303.10928,1.8865 c 0.98435,-3.38858 0.84709,-7.69691 -0.32731,-10.27359 -1.95846,-4.29692 -5.21443,-5.25493 -8.66944,-2.55083 -1.50935,1.18131 -1.80722,1.27174 -2.61185,0.79299 -0.4995,-0.29722 -0.90818,-0.80112 -0.90818,-1.11978 0,-0.31865 1.70557,-1.80598 3.79016,-3.30515 4.27404,-3.07376 6.19298,-5.31313 7.84313,-9.15273 2.02146,-4.70361 1.37285,-10.30924 -1.58715,-13.71672 l -1.13135,-1.30239 -4.30602,0.0706 -4.30603,0.0706 -2.37628,2.60841 c -1.56073,1.7132 -3.30588,3.09565 -5.08486,4.02809 -2.63122,1.37914 -2.85245,1.41971 -7.74442,1.41971 -5.02834,0 -5.03862,0.002 -6.92419,1.39053 -2.61269,1.9239 -5.5678,3.07253 -8.75102,3.40146 -1.48439,0.15333 -2.69888,0.44899 -2.69888,0.6569 0,0.91868 3.37363,4.31902 5.36242,5.40488 2.00104,1.09257 2.55368,1.19186 6.63274,1.19186 6.41334,0 9.03698,-1.01834 13.44758,-5.21957 3.68601,-3.51103 8.03599,-6.61097 9.2768,-6.61097 2.65604,0 2.66802,1.52044 0.0254,3.22651 -7.75214,5.00483 -11.7866,10.31215 -12.52157,16.47205 -0.55054,4.61414 3.15124,9.98969 6.87469,9.98307 1.19769,-0.002 1.84873,-0.34852 4.29787,-2.28686 0.78543,-0.62162 1.15508,-0.68513 1.78971,-0.30752 0.85521,0.50888 1.07597,1.92594 0.37506,2.40754 -0.4958,0.34069 -2.67076,4.06667 -2.67076,4.57535 0,0.19029 2.75953,0.34598 6.13227,0.34598 h 6.13228 z m 6.05133,0.17699 0.80505,-2.02343 -1.46409,-3.20697 c -1.43378,-3.14057 -1.46409,-3.30615 -1.46409,-7.99673 0,-4.39277 0.0888,-4.97993 1.0707,-7.08423 l 1.07071,-2.29448 -0.97398,-3.13733 c -0.53568,-1.72553 -0.97396,-4.10078 -0.97396,-5.27832 0,-2.85904 1.24751,-7.2008 2.69989,-9.39653 1.00845,-1.52459 1.1228,-1.94993 0.78766,-2.92991 -0.21561,-0.63053 -0.39202,-2.76122 -0.39202,-4.73486 0,-3.37192 -0.0465,-3.57491 -0.77086,-3.3643 -0.42397,0.12325 -1.30131,1.25492 -1.94964,2.51477 -0.64834,1.25986 -2.04268,3.09482 -3.09856,4.07768 -1.05586,0.98286 -1.91976,1.97551 -1.91976,2.20587 0,0.23037 0.42292,1.03532 0.93981,1.78877 1.92711,2.80904 2.65684,5.39618 2.69783,9.56464 0.036,3.66196 -0.0465,4.08429 -1.38751,7.09831 -0.7842,1.76259 -2.0466,4.00983 -2.80533,4.99389 -0.75873,0.98405 -1.37951,1.88013 -1.37951,1.99126 0,0.11122 0.47885,0.42825 1.06409,0.70469 1.34507,0.63533 3.38399,3.61067 4.16859,6.0831 1.18399,3.73093 1.16865,7.1444 -0.0525,11.69468 -0.16558,0.61699 0.0439,0.75285 1.16022,0.75285 1.25119,0 1.4279,-0.16497 2.16732,-2.02342 z m 13.54796,1.55586 c 0,-0.25715 -0.28976,-2.91902 -0.64392,-5.91527 -0.46711,-3.95189 -0.65186,-8.93235 -0.67284,-18.13866 -0.0314,-13.81081 0.0924,-15.25928 2.6856,-31.4047 0.74109,-4.61391 1.43076,-8.93448 1.53264,-9.60126 0.16153,-1.0572 0.0744,-1.19483 -0.68098,-1.0755 -0.63052,0.0995 -1.20579,0.89762 -2.11433,2.93313 -1.51853,3.40215 -5.06495,7.31354 -7.61151,8.39481 l -1.78124,0.75631 v 3.52989 c 0,1.94145 0.25872,4.48023 0.57492,5.64174 0.57425,2.10935 0.57355,2.11384 -0.59957,3.83262 -3.26784,4.78785 -3.79522,9.29407 -1.62615,13.89467 l 1.25123,2.65389 -1.54144,3.25406 c -1.33488,2.81796 -1.54145,3.62543 -1.54145,6.0253 0,3.31856 0.90563,6.20978 2.88344,9.20531 l 1.41908,2.14931 -0.99043,1.62053 c -1.63804,2.68008 -1.58915,2.71138 4.23326,2.71138 3.50276,0 5.22369,-0.15398 5.22369,-0.46756 z m 4.49217,-0.71549 c -1.34586,-7.48884 -1.63129,-31.78004 -0.49666,-42.26729 0.56247,-5.19876 2.7569,-20.49853 3.60626,-25.14319 l 0.2317,-1.26698 -1.48527,1.32473 c -1.46406,1.30582 -1.49792,1.40374 -2.37129,6.85961 -2.12964,13.30348 -2.7918,17.85625 -3.21389,22.09764 -0.64904,6.52196 -0.54919,24.32784 0.17852,31.8349 0.33258,3.43087 0.60503,6.57671 0.60546,6.99078 6.1e-4,0.59383 0.33418,0.75285 1.57927,0.75285 1.5156,0 1.57003,-0.0471 1.3659,-1.18305 z m 34.44967,0 c -0.11042,-0.65067 -0.31299,-2.53818 -0.45029,-4.19447 -0.13732,-1.65626 -1.01408,-8.0974 -1.94843,-14.31363 -2.83939,-18.89077 -3.62014,-27.44552 -3.91551,-42.90317 -0.33634,-17.60196 0.64054,-27.32574 5.09991,-50.76377 2.58878,-13.60641 4.83597,-25.93545 4.83597,-26.5322 0,-0.19547 -8.1644,-0.3554 -18.14309,-0.3554 h -18.1431 l -1.29964,4.19447 c -2.77339,8.95084 -8.53344,20.25325 -14.0864,27.64045 -7.37805,9.8151 -17.98171,19.01858 -27.74093,24.0778 -15.444,8.00625 -34.2898,8.00942 -49.71959,0.008 -6.25586,-3.24395 -11.82012,-8.51977 -14.50139,-13.74966 -0.60409,-1.17829 -1.0739,-1.6519 -1.46864,-1.48049 -1.97306,0.8568 -4.71734,1.16752 -6.7297,0.76199 l -2.16404,-0.4361 -0.78011,2.31815 c -1.17724,3.49818 -1.52841,5.59907 -1.52948,9.14958 -10e-4,6.30103 3.09155,10.55949 9.83353,13.53708 2.53385,1.11906 2.9571,1.177 7.15841,0.97986 3.53923,-0.16607 5.78942,-0.58354 10.84983,-2.01293 13.1443,-3.71278 20.67285,-2.65361 26.14497,3.67824 l 1.99993,2.31416 0.92151,-0.80119 c 3.04038,-2.6434 7.61701,-4.04989 11.80441,-3.62772 l 2.29744,0.2316 1.09011,-1.74888 c 2.033,-3.26161 6.26451,-5.81513 10.56835,-6.37752 1.94724,-0.25444 2.14929,-0.39335 3.04563,-2.09384 1.5128,-2.87 4.89265,-6.12848 8.02654,-7.73831 l 2.81401,-1.44551 1.27073,-3.2148 c 4.79668,-12.13506 16.05609,-18.18618 24.43579,-13.13246 1.38009,0.83233 3.03162,1.82451 3.67007,2.20483 0.63845,0.38035 1.99214,1.0126 3.00818,1.40501 4.17818,1.61365 7.59091,5.40822 9.26033,10.29642 1.23932,3.62889 1.25503,10.45211 0.0328,14.23206 -0.71139,2.2 -0.77898,2.89375 -0.44017,4.51713 0.91551,4.38649 -0.3143,10.73426 -2.73911,14.13811 l -1.21488,1.70542 0.82757,2.71673 c 1.43848,4.72226 0.47133,10.40729 -2.42792,14.27164 l -0.92287,1.23006 0.98398,2.21059 c 0.83483,1.87544 0.984,2.80012 0.984,6.09923 0,3.47591 -0.12621,4.17178 -1.18922,6.55624 l -1.18923,2.66758 1.3827,3.09699 c 1.25526,2.81158 1.37985,3.41669 1.35186,6.56588 -0.0222,2.49307 -0.27149,4.15467 -0.88638,5.90677 l -0.85555,2.43791 1.35024,2.34676 c 0.74265,1.29074 1.46511,2.85554 1.60548,3.47738 l 0.25523,1.13059 h 8.88844 8.88842 z m -155.52615,-1.05233 c 0.70178,-0.75625 1.27597,-1.5053 1.27597,-1.66453 0,-0.15918 -0.56589,-0.40412 -1.25755,-0.54416 -0.69166,-0.13999 -1.62402,-0.3742 -2.07191,-0.52031 -0.80628,-0.26303 -0.80837,-0.24405 -0.21133,1.91916 0.33166,1.20166 0.68983,2.18483 0.79593,2.18483 0.10617,0 0.7671,-0.61876 1.46889,-1.37499 z m 80.59882,0.94478 c 0,-0.23661 -0.17412,-0.4302 -0.38694,-0.4302 -0.21281,0 -0.38693,0.19359 -0.38693,0.4302 0,0.23661 0.17412,0.43021 0.38693,0.43021 0.21282,0 0.38694,-0.1936 0.38694,-0.43021 z m -27.38346,-6.93477 c 2.74538,-0.79119 3.88394,-0.88187 8.59918,-0.68488 3.38706,0.14146 6.15139,0.48539 7.33659,0.91271 1.04598,0.37711 1.97263,0.60688 2.05925,0.51059 0.0866,-0.0963 -0.11626,-1.07136 -0.45074,-2.16682 -0.33452,-1.09546 -0.60822,-2.96063 -0.60822,-4.14485 0,-1.31135 -0.30562,-2.81915 -0.78174,-3.85677 l -0.78174,-1.70368 h -4.56519 c -5.21055,0 -7.62459,-0.61861 -10.05617,-2.57696 -0.88424,-0.71216 -1.6963,-1.29485 -1.80455,-1.29485 -0.10822,0 -0.19682,1.25834 -0.19682,2.79632 0,4.15707 -0.74782,3.78294 -2.14974,-1.07551 -1.10772,-3.83887 -2.58141,-6.26068 -4.73553,-7.78221 -2.37353,-1.67651 -3.36502,-1.92477 -4.47054,-1.11942 -0.49654,0.36171 -1.64088,0.87863 -2.54299,1.14871 -1.78801,0.53528 -9.06361,0.72366 -10.35464,0.26808 -0.63669,-0.22467 -1.28725,0.27406 -3.15394,2.41784 l -2.35178,2.70089 1.62686,0.35129 c 2.25871,0.48771 10.29905,3.26831 11.59058,4.00838 0.98548,0.5647 1.06408,0.54744 1.06408,-0.2337 0,-0.4639 0.1806,-1.37154 0.40133,-2.017 0.53747,-1.57168 1.18593,-0.82856 1.41525,1.62183 0.19298,2.0621 0.66057,2.90259 4.3509,7.82079 2.62532,3.49882 4.47496,4.95947 6.32163,4.99215 0.59087,0.01 2.49829,-0.39135 4.23868,-0.89293 z m -15.64662,-13.13145 c -0.11276,-0.59146 -0.21007,-0.48327 -0.37518,0.41712 -0.14391,0.78505 -0.0901,1.06792 0.15224,0.79855 0.20635,-0.22941 0.30666,-0.77647 0.22294,-1.21567 z m 34.33983,1.10873 c 0.35612,-0.64063 -0.0567,-0.98894 -0.79763,-0.67286 -0.3419,0.14585 -0.51325,0.46016 -0.3808,0.69845 0.31365,0.56422 0.85712,0.55242 1.17843,-0.0255 z m -60.64616,-2.55913 c 4.2962,-0.50317 6.79077,-1.71495 9.92593,-4.82169 1.1788,-1.16808 2.14325,-2.27843 2.14325,-2.4674 0,-0.18899 -0.49992,-0.57384 -1.11095,-0.85523 -0.92945,-0.42803 -1.56911,-0.35689 -3.91544,0.43547 -5.27026,1.77976 -10.55128,0.6969 -15.44187,-3.16634 -1.73828,-1.37313 -1.82704,-1.39454 -3.71554,-0.89641 -3.04041,0.80197 -5.33039,0.67732 -8.58945,-0.46755 -3.76762,-1.32351 -6.08278,-2.93722 -8.2757,-5.76831 -3.09213,-3.99197 -5.25075,-2.64173 -4.91501,3.07436 0.21451,3.65192 1.09153,5.8023 3.36333,8.24654 l 1.57619,1.69584 1.84234,-0.48428 c 6.61991,-1.74005 12.01962,-0.43297 18.09259,4.37957 2.17834,1.72622 2.89312,1.81303 9.02033,1.09543 z m 40.50934,-28.13665 c 16.38202,-2.79544 34.67348,-11.8399 48.30911,-23.8871 4.58725,-4.05286 11.65634,-12.17191 15.39909,-17.68627 3.75333,-5.52993 6.76389,-8.90207 9.16178,-10.26215 1.86679,-1.05884 2.0221,-1.55301 0.61183,-1.94654 -2.44294,-0.6817 -6.61602,3.1668 -12.10613,11.16449 -6.13839,8.94204 -15.32075,18.23073 -24.0359,24.31424 -4.33717,3.02752 -12.9576,7.75418 -16.83193,9.22912 -1.70253,0.64815 -3.92239,1.54068 -4.93302,1.98339 -2.44007,1.06889 -10.06745,3.1934 -14.62323,4.07313 -4.88133,0.94258 -20.98436,1.31956 -27.90681,0.65332 -2.83849,-0.27319 -7.07624,-0.88693 -9.41723,-1.36387 -17.21281,-3.50685 -36.99671,-13.1829 -48.10357,-23.52682 -5.43133,-5.05825 -11.32629,-7.6955 -14.20857,-6.35657 -0.73678,0.34226 -1.3396,0.80493 -1.3396,1.02812 0,0.2232 1.26238,0.73905 2.8053,1.14634 3.59087,0.9479 6.94816,2.96563 11.31803,6.80216 5.05902,4.44158 9.17324,7.21675 17.02538,11.48415 13.16548,7.15501 29.07221,12.43212 41.49413,13.7658 5.17956,0.55609 22.84356,0.15934 27.38134,-0.61494 z m -1.93471,-4.57505 c 21.19122,-3.43725 39.70851,-13.41515 53.82712,-29.00437 2.57711,-2.84554 6.25321,-7.49681 8.16911,-10.33614 3.60873,-5.34807 6.58335,-8.76915 9.13245,-10.50314 2.06608,-1.40541 1.3587,-1.97754 -2.41501,-1.95328 -2.62556,0.0169 -3.36983,0.20926 -5.68596,1.46967 -4.69333,2.55409 -9.56355,9.29752 -10.43203,14.44451 -0.22027,1.30547 -0.47996,1.55808 -2.43083,2.36465 -4.52324,1.87011 -7.50284,4.6088 -8.93207,8.20986 -0.43366,1.09264 -1.00815,2.18584 -1.27664,2.42931 -0.26851,0.24349 -1.68588,0.44831 -3.1497,0.45517 -2.18005,0.01 -3.10216,0.25365 -5.09727,1.34564 -2.38418,1.30496 -3.6041,2.58389 -5.35473,5.61379 -0.74319,1.28626 -1.03525,1.47437 -2.00398,1.2906 -0.62371,-0.11837 -2.70112,-0.207 -4.61648,-0.19711 -4.27889,0.0221 -6.29161,0.96817 -9.26646,4.35578 -1.10814,1.2619 -2.28701,2.29435 -2.61971,2.29435 -0.33269,0 -1.36394,-0.38293 -2.29164,-0.85094 -2.53828,-1.28054 -6.89189,-1.18931 -9.42557,0.19752 -1.0641,0.58244 -2.3884,1.46862 -2.94288,1.96928 l -1.00816,0.91031 -2.47431,-1.40631 c -2.22558,-1.26493 -2.80491,-1.40562 -5.7633,-1.39957 -2.65834,0.005 -3.7561,0.22239 -5.72511,1.1315 l -2.43611,1.12477 -2.35952,-1.69551 c -3.70565,-2.66287 -6.81096,-3.20641 -11.15721,-1.95298 l -2.11264,0.60928 -2.03428,-2.13903 c -2.71253,-2.8522 -4.89387,-3.88807 -8.16339,-3.87661 -1.4177,0.005 -3.14641,0.2026 -3.84158,0.43916 -1.22693,0.41753 -1.30773,0.36478 -2.75787,-1.80043 -0.82165,-1.22681 -1.90922,-2.6567 -2.41681,-3.17751 -1.61484,-1.65692 -4.5861,-2.84749 -7.47386,-2.99477 -1.95966,-0.1 -2.78444,-0.32249 -3.03424,-0.81877 -0.18867,-0.37483 -1.07637,-1.68337 -1.97266,-2.90783 -2.15457,-2.94352 -4.67266,-4.13055 -8.80135,-4.14901 -2.09881,-0.01 -3.44589,-0.2601 -4.64329,-0.86418 -2.28415,-1.15233 -7.00363,-1.01227 -6.93019,0.20565 0.0146,0.23661 0.76457,0.72154 1.66733,1.07761 2.67503,1.05508 4.59738,2.34692 8.05119,5.4105 13.39313,11.87992 33.1149,21.30297 50.27702,24.02232 11.45746,1.81543 23.27793,2.05843 31.92262,0.65626 z m 384.03873,-86.44757 v -18.06847 h -77.38819 -77.38815 v 17.78167 c 0,9.77991 0.11611,17.91071 0.25796,18.06846 0.14186,0.15772 34.96654,0.2868 77.38815,0.2868 h 77.13023 z m -265.16925,-1.89172 c 0.0433,-0.0416 -0.3321,-1.33394 -0.83417,-2.87174 -0.50206,-1.5378 -1.30325,-4.37989 -1.78043,-6.31574 -0.47718,-1.93585 -0.98993,-3.43568 -1.13946,-3.33294 -0.1495,0.10276 -0.48774,2.27434 -0.75162,4.8258 -0.26389,2.55145 -0.61754,5.35452 -0.78588,6.22903 -0.27369,1.42161 -0.21874,1.60469 0.51869,1.72862 0.75277,0.1265 4.58774,-0.0849 4.77287,-0.26303 z M 1032.9029,263.85524 v -18.03362 h -77.38819 -77.38815 v 17.78166 c 0,9.77991 0.0872,17.87865 0.19384,17.99718 0.10662,0.11853 34.93128,0.23193 77.38816,0.25198 l 77.19434,0.0364 z M 430.12656,425.99002 c -0.25537,-0.28394 -0.46433,-1.33785 -0.46433,-2.34204 0,-2.70877 2.7741,-20.55368 5.44088,-34.99945 5.13921,-27.83878 4.74964,-24.93373 4.75948,-35.49163 0.006,-6.80067 -0.23213,-12.02405 -0.84727,-18.55887 -2.16996,-23.05216 -0.26786,-41.60391 6.43393,-62.7521 7.56783,-23.8811 14.16344,-35.78624 25.89203,-46.73535 9.3236,-8.70397 16.99297,-12.82779 35.90257,-19.30483 6.81799,-2.33533 17.87863,-6.8506 18.9601,-7.74005 0.63736,-0.52417 22.88249,-12.97451 27.47279,-15.37618 17.75307,-9.28849 21.28559,-11.36838 24.27178,-14.29081 0.96708,-0.94644 2.28879,-2.64334 2.93714,-3.77093 1.98288,-3.44857 4.32568,-12.50845 4.32644,-16.73078 7.2e-4,-4.08713 1.00753,-5.90589 2.70891,-4.89355 0.63561,0.37821 0.77359,0.89972 0.77232,2.919 -0.004,5.89587 -1.7956,14.11548 -4.19351,19.23639 -1.61676,3.4527 -3.53523,5.75319 -6.94423,8.32702 -2.30601,1.74106 -17.35252,10.27095 -22.52456,12.76922 -1.3833,0.66819 -8.78355,4.72483 -16.44498,9.01477 -16.80772,9.41134 -19.22168,10.4886 -38.11366,17.00886 -5.55656,1.91775 -12.62378,5.21386 -16.44498,7.66986 -5.08987,3.27138 -12.95783,9.93771 -15.8784,13.45334 -7.19391,8.65973 -12.31201,18.40124 -16.93192,32.22731 -5.22009,15.6223 -7.2948,24.2442 -9.0536,37.6243 -0.91252,6.94196 -0.89506,21.98148 0.0363,31.18962 0.97376,9.62815 1.34334,19.493 0.95978,25.61803 -0.31924,5.09769 -0.84917,8.27613 -6.48789,38.9122 -0.84922,4.6139 -2.10624,12.35753 -2.79341,17.20806 -1.19627,8.44435 -1.7143,10.32483 -2.84425,10.32483 -0.24369,0 -0.652,-0.23231 -0.90739,-0.51624 z"
       id="path1" /></g></svg>
