<?xml version="1.0" encoding="UTF-8" standalone="no"?>
<!-- Created with Inkscape (http://www.inkscape.org/) -->

<svg
   preserveAspectRatio="none"
   width="800mm"
   height="600mm"
   viewBox="0 0 800 600"
   version="1.1"
   id="svg1"
   xml:space="preserve"
   xmlns="http://www.w3.org/2000/svg"
   xmlns:svg="http://www.w3.org/2000/svg"><defs
     id="defs1" /><g
     id="layer1"><path
       style="fill:#000000;stroke-width:1.20158"
       d="m 2.2603595,599.35453 c -0.8375771,-0.40038 -1.46777331,-1.13221 -1.88037716,-2.18369 -0.67271368,-1.71434 -0.82953767,0.0682 2.80605146,-31.89405 1.6949969,-14.90155 4.8908556,-37.31501 6.8558362,-48.08197 1.009576,-5.53185 6.150033,-29.83545 8.224302,-38.88369 3.700472,-16.14201 4.165008,-20.37156 4.614924,-42.01946 0.42848,-20.61616 1.040736,-29.00957 2.912574,-39.92895 2.462997,-14.36798 7.68849,-32.38899 12.823079,-44.2226 0.8251,-1.9016 1.500175,-3.60003 1.500175,-3.77429 0,-0.17425 0.507621,-0.92319 1.128037,-1.66431 1.453771,-1.73661 3.630706,-1.87638 5.2694,-0.33833 1.51976,1.42641 1.351133,3.50813 -0.764939,9.44343 -5.984698,16.7863 -9.95773,30.98579 -11.698617,41.81042 -2.124394,13.20937 -2.759635,20.72008 -2.935046,34.70264 -0.325506,25.94559 -0.939812,31.54485 -5.802705,52.89018 -3.007053,13.19925 -6.8596,31.43671 -7.772311,36.79316 -2.519462,14.78582 -5.68957,38.15597 -7.117712,52.47206 -1.6012479,16.05135 -2.1169083,20.61263 -2.511828,22.21848 -0.6175703,2.51124 -3.31088,3.77951 -5.6508435,2.66097 z M 114.64989,598.97019 c -1.12066,-1.2227 -1.11776,-1.2088 -2.09914,-10.07051 -0.7025,-6.34329 -6.63479,-46.51424 -7.15153,-48.42706 -0.11344,-0.41976 -0.26382,-0.70029 -0.33427,-0.62342 -0.0704,0.0769 -0.48036,2.48992 -0.91091,5.36233 -2.02745,13.52661 -9.840184,50.88533 -11.068768,52.92838 -0.952046,1.58316 -4.393365,1.91067 -5.958907,0.5671 -1.72381,-1.47941 -1.672995,-2.89856 0.444357,-12.41054 1.063358,-4.77708 2.730121,-12.26039 3.703912,-16.62958 2.065891,-9.26924 3.755386,-18.92731 6.107111,-34.9117 3.053185,-20.752 4.379765,-36.72263 4.465205,-53.75628 l 0.0421,-8.39199 -1.79932,-4.77829 c -2.516252,-6.6822 -3.399057,-9.44438 -4.934708,-15.43996 -4.253563,-16.60705 -5.483403,-28.63511 -3.168435,-30.98819 1.645277,-1.67237 3.853235,-1.3548 5.10807,0.73469 0.298122,0.49641 0.956496,3.60248 1.463079,6.90237 1.628194,10.60645 3.894744,20.05827 7.024124,29.29176 3.36222,9.92048 5.90826,15.18455 12.74472,26.35041 2.07514,3.38928 3.91885,6.77654 4.09715,7.52725 0.94228,3.96747 -1.92062,6.21946 -5.14371,4.04611 -0.71186,-0.48002 -2.44201,-2.54963 -3.84478,-4.59915 -1.40275,-2.04951 -2.67372,-3.72639 -2.82435,-3.72639 -0.64248,0 0.30879,25.03043 1.38906,36.55032 0.56015,5.97328 2.64031,21.94096 3.84439,29.51013 2.46928,15.52267 4.55522,30.67492 5.32961,38.71445 0.29599,3.07286 -0.28703,5.74954 -1.44511,6.63454 -1.3388,1.02312 -3.97984,0.83239 -5.07895,-0.36678 z m 367.61167,0.35963 c -1.47286,-0.87218 -1.90462,-2.96845 -1.46233,-7.10003 0.58824,-5.49487 3.45454,-26.52786 4.04342,-29.67067 2.04723,-10.92591 4.49749,-30.65327 5.73839,-46.20051 0.63187,-7.91677 1.23686,-28.43108 0.83848,-28.43108 -0.1344,0 -1.46421,1.6873 -2.95519,3.74953 -1.49099,2.06225 -3.15638,4.13186 -3.70085,4.59915 -2.1728,1.86473 -5.10197,0.40282 -5.10197,-2.54633 0,-2.05905 0.55071,-3.25205 3.91362,-8.47816 7.55655,-11.74326 13.5104,-25.87267 16.66669,-39.55271 1.96797,-8.52953 2.86179,-13.34244 2.57269,-13.85282 -0.11312,-0.19951 -9.09469,-0.36272 -19.9593,-0.36272 -15.64554,0 -19.71563,0.10868 -19.57014,0.52264 0.48486,1.37966 3.86598,18.55788 5.04049,25.60886 1.5372,9.22831 3.07842,21.83587 3.65448,29.89445 0.22192,3.10442 0.58067,8.09032 0.79723,11.07976 0.67732,9.35018 0.89946,32.67601 0.40016,42.01946 -0.99102,18.545 -2.5712,26.62724 -6.32184,32.33471 -3.7394,5.6904 -8.11963,8.2118 -14.84036,8.54252 -4.29519,0.21139 -7.64073,-0.35081 -12.39941,-2.08358 -1.2646,-0.46047 -7.47263,-3.61941 -13.79564,-7.01984 -16.50448,-8.87592 -26.30161,-12.60239 -39.08766,-14.86751 -2.80058,-0.49613 -17.95519,-4.71681 -21.587,-6.01215 -11.07211,-3.94901 -19.82449,-9.95613 -25.95689,-17.81523 -6.03468,-7.73388 -9.48991,-15.74196 -10.98087,-25.44998 -0.54606,-3.55568 -0.61646,-17.83767 -0.15168,-30.76267 0.48429,-13.46516 -0.32115,-22.41529 -3.74385,-41.60135 -1.88986,-10.59363 -2.28959,-15.57437 -2.06586,-25.74121 l 0.19072,-8.66728 -8.47282,-9.16426 c -11.01622,-11.91521 -11.37024,-12.24416 -13.17704,-12.24416 -1.37665,0 -1.91755,0.51261 -11.4871,10.88656 l -10.04242,10.88656 0.42189,4.47877 c 0.78101,8.29122 9.3e-4,18.6202 -2.53288,33.537 -2.66902,15.71289 -3.33803,23.94047 -2.95779,36.37506 0.502,16.41559 0.33785,28.20106 -0.45712,32.82118 -2.87717,16.72108 -12.16556,30.08631 -26.29602,37.83785 -6.02382,3.3045 -9.96618,4.82716 -18.30035,7.06822 -5.98741,1.61 -7.36877,1.94875 -19.72124,4.83636 -6.50196,1.51993 -11.91385,3.36858 -19.81917,6.77001 -4.77076,2.05273 -4.43944,1.88313 -15.54545,7.95751 -4.21533,2.30556 -8.81043,4.68665 -10.21133,5.29132 -8.72444,3.76571 -16.9042,3.69277 -23.20674,-0.20694 -3.00954,-1.86216 -6.34629,-6.07982 -7.7775,-9.83074 -6.61304,-17.3316 -5.86106,-72.80731 1.57752,-116.37671 1.944,-11.38635 5.24658,-26.01989 7.73757,-34.28454 0.31189,-1.0348 1.02331,-3.57478 1.58091,-5.64439 2.54718,-9.45411 5.68738,-18.43953 10.66662,-30.52161 6.89021,-16.71909 10.72792,-24.30201 19.57322,-38.67463 11.6729,-18.9672 28.75037,-37.71377 43.93755,-48.23192 3.78349,-2.6203 12.18868,-7.07156 15.35431,-8.1314 3.97224,-1.32987 9.32853,-1.88402 12.96286,-1.34111 9.44325,1.41069 16.19205,7.10807 20.54733,17.34621 4.91023,11.54265 7.07604,25.639 7.09303,46.16573 l 0.008,10.2895 0.78357,-1.04526 c 7.38417,-9.85038 8.60265,-13.36678 9.19987,-26.54962 0.21683,-4.78641 0.33067,-27.84947 0.26622,-53.93543 -0.0926,-37.52454 -0.20592,-45.8318 -0.64097,-47.03672 -0.29061,-0.80485 -1.26202,-2.31002 -2.15868,-3.34483 -0.89664,-1.0348 -1.84507,-2.33814 -2.10761,-2.8963 -0.54295,-1.15431 -1.31693,-4.67911 -1.70511,-7.76535 -0.14464,-1.14979 -1.28286,-4.58215 -2.52939,-7.62749 -2.87912,-7.03374 -3.38403,-9.94617 -2.52302,-14.5527 0.33673,-1.80161 0.5735,-3.30719 0.52614,-3.34573 -0.0474,-0.0385 -1.72433,-0.96433 -3.72662,-2.0573 -5.9054,-3.22352 -8.78762,-5.16634 -12.646,-8.52429 -5.10584,-4.44362 -13.86311,-12.96861 -21.84764,-21.26818 l -2.90744,-3.02215 0.0189,12.22044 c 0.0203,13.12066 -0.37539,18.44775 -1.90173,25.59978 -1.25601,5.88545 -2.22014,8.45576 -4.74408,12.64763 -5.61476,9.32526 -14.60299,15.63441 -47.75141,33.51841 -37.37251,20.16296 -45.77906,24.04035 -67.06216,30.93141 -6.11367,1.9795 -11.424226,3.98878 -18.885102,7.14534 -11.397728,4.82217 -25.118169,14.1512 -34.659045,23.56598 -15.290879,15.08878 -26.162859,34.29054 -34.597672,61.1053 -6.872279,21.84744 -9.981389,41.11476 -11.503321,71.28675 -0.795235,15.76538 -1.5235642,24.67226 -2.4957758,30.5216 -0.9112139,5.48225 -5.6386089,26.64651 -6.1637926,27.59487 -0.211846,0.38254 -0.2711978,-2.0636 -0.1521568,-6.27156 0.1073728,-3.79429 0.2854153,-11.88461 0.3957155,-17.97848 0.7555231,-41.74222 1.0791799,-49.76777 2.5039501,-62.08846 2.5749971,-22.26722 6.7946096,-39.95758 13.9620426,-58.53458 8.005173,-20.74826 16.402823,-35.06984 27.962286,-47.68758 9.383043,-10.24206 21.052752,-19.14636 34.508726,-26.33109 7.719662,-4.12186 12.243088,-5.90564 31.423425,-12.39159 2.73997,-0.92653 6.36132,-2.16278 8.04746,-2.7472 4.8354,-1.67598 16.14753,-6.75168 24.7172,-11.09048 9.69229,-4.90719 46.1575,-24.71142 51.98245,-28.23162 16.11446,-9.73851 20.92709,-14.62237 23.93894,-24.29321 2.10527,-6.75987 2.4529,-11.23843 2.38052,-30.66894 l -0.065,-17.45438 -1.69943,-2.19652 c -4.61573,-5.96588 -9.04117,-13.90171 -11.54918,-20.71046 -2.00896,-5.45387 -3.54714,-11.56561 -5.40051,-21.45829 -0.74949,-4.000444 -1.44159,-7.673371 -1.53799,-8.162059 -0.16643,-0.843615 -0.34507,-0.878134 -3.53312,-0.682699 -3.09861,0.189965 -3.60925,0.101683 -6.61512,-1.144136 -2.87827,-1.192902 -3.57272,-1.701584 -5.96795,-4.3715 -3.17592,-3.540099 -4.51155,-6.014902 -8.13458,-15.072655 -1.47169,-3.679316 -3.53705,-8.759281 -4.58966,-11.288812 -4.44882,-10.690959 -6.34141,-18.035483 -7.00311,-27.176768 -0.42625,-5.88886 -0.0454,-12.36942 0.97917,-16.661171 2.57867,-10.8015926 11.5473,-16.5195511 20.42851,-13.0242219 1.46076,0.5748928 2.8506,1.0452598 3.08855,1.0452598 0.25515,0 0.43265,-0.74686 0.43265,-1.8204155 C 192.63497,1.5198964 193.91979,0 196.0442,0 c 3.26103,0 3.9724,1.8119876 4.43192,11.288812 0.54037,11.144196 1.50272,20.824531 3.28368,33.030226 3.13866,21.510885 4.80876,31.896988 8.06778,50.172502 4.10418,23.01487 6.69712,30.35224 14.67186,41.51757 1.292,1.80893 2.97992,4.16704 3.75092,5.24026 3.85154,5.36113 24.56293,26.76781 30.97962,32.01961 4.75616,3.89271 6.0697,4.79903 10.38436,7.165 8.5564,4.69195 16.64892,6.46064 29.71108,6.49363 12.94881,0.0326 20.45658,-1.62649 29.02785,-6.41502 5.48168,-3.06245 13.88814,-9.51083 15.96336,-12.24506 0.30872,-0.40678 2.19955,-2.28018 4.20184,-4.16314 4.92173,-4.62839 18.72339,-19.61957 22.24765,-24.16508 3.1916,-4.11648 7.22126,-10.3486 8.63741,-13.35829 l 0.93448,-1.986 h -35.99746 c -32.8605,0 -36.2089,0.0627 -38.42351,0.71973 -3.6361,1.07872 -10.28843,0.97068 -14.68882,-0.23855 -3.31467,-0.91088 -3.85168,-0.93672 -13.79566,-0.6639 -13.49975,0.3704 -19.23314,-0.31999 -21.47392,-2.58575 -1.96915,-1.99112 -0.46117,-4.7574 2.59342,-4.7574 2.60837,0 5.28911,-1.13372 13.94301,-5.89676 8.87643,-4.8855 13.02183,-6.64636 15.64682,-6.64636 1.93304,10e-6 5.11101,0.98414 7.57633,2.34621 2.4461,1.35142 4.08012,1.25806 7.53295,-0.43046 6.52587,-3.19132 8.91346,-2.71783 21.47826,4.25939 9.97152,5.5372 11.85356,6.35631 14.62094,6.36346 1.86437,0.004 3.41991,1.20425 3.41991,2.63699 0,0.64 1.57739,0.7063 19.25643,0.80926 17.39776,0.10136 19.31432,0.0462 19.85635,-0.5706 2.01496,-2.29315 5.47098,-18.37133 9.37962,-43.636276 4.21867,-27.268835 5.358,-34.971499 5.19851,-35.145505 -0.093,-0.101362 -18.93674,-0.184294 -41.8752,-0.184294 -39.46557,0 -41.70615,0.03931 -41.70418,0.731683 0.001,0.402424 0.44549,3.177591 0.98744,6.167035 1.05256,5.806157 1.686,14.842697 1.0404,14.842697 -1.17803,0 -4.82386,-12.17418 -6.04136,-20.173524 l -0.23864,-1.567891 -3.52734,-0.01329 c -3.63354,-0.0137 -4.86861,-0.466773 -4.86861,-1.786031 0,-1.344222 1.55198,-1.96361 4.92013,-1.96361 3.1587,0 3.21196,-0.01698 2.95244,-0.940734 -0.14528,-0.517404 -0.35961,-4.703672 -0.47612,-9.302818 -0.17615,-6.952907 -0.10528,-8.814945 0.42068,-11.049384 0.8365,-3.55391 1.31212,-4.185032 2.22597,-2.953712 0.59608,0.803149 0.68685,1.805609 0.68685,7.585281 0,5.947173 0.44374,13.116255 0.97306,15.720633 l 0.1912,0.940734 h 42.50344 c 40.14605,0 42.5148,-0.04058 42.70806,-0.731682 0.42284,-1.511929 1.75266,-16.070902 2.14565,-23.490489 0.58701,-11.0826779 1.01579,-12.40656387 4.16775,-12.86782224 1.35044,-0.19762451 1.69059,-0.06612601 2.71222,1.04853184 0.92002,1.0037743 1.16814,1.6365706 1.16814,2.9790732 0,0.987506 0.18202,1.7045783 0.43266,1.7045783 0.23795,0 1.66064,-0.4888476 3.16149,-1.086329 2.37733,-0.9463887 3.15659,-1.0611309 6.04936,-0.8907285 4.99038,0.2939675 8.17432,2.3173817 11.20755,7.1225164 3.09247,4.898935 4.81741,13.796948 4.18623,21.594193 -0.18898,2.334259 -0.26645,4.328268 -0.17216,4.431132 0.0942,0.102861 14.78339,0.187026 32.64249,0.187026 h 32.47106 l 0.16571,-8.884712 c 0.18319,-9.820622 0.35324,-10.714028 2.80674,-14.746977 1.91005,-3.139609 5.14456,-5.867448 8.1869,-6.9044426 2.42771,-0.8275042 3.47166,-0.8389376 77.6005,-0.8498659 82.57536,-0.01217 76.79504,-0.1945162 80.70938,2.546011 3.77171,2.6406655 6.4015,6.9601765 7.23216,11.8790315 0.25891,1.53311 0.41896,8.963968 0.41896,19.450892 0,15.162118 -0.0747,17.264036 -0.70146,19.729991 -1.64094,6.456549 -5.48733,10.584416 -11.43856,12.275655 -1.91558,0.544379 -11.76906,0.625165 -76.25208,0.625165 -52.73196,0 -74.63689,-0.133462 -76.08295,-0.463555 -2.95256,-0.67398 -6.23571,-2.722374 -8.21698,-5.126686 -3.56734,-4.328986 -4.35209,-7.622972 -4.35209,-18.267639 v -7.499931 h -32.93012 -32.93013 l -0.65419,3.240308 c -1.1945,5.916379 -3.61891,12.853972 -8.9493,25.608878 -1.29739,3.104423 -2.82508,6.773287 -3.39494,8.15303 -3.01114,7.29076 -6.50891,11.79949 -10.89275,14.041042 -2.63762,1.348669 -3.02543,1.428805 -6.91396,1.428805 -2.26579,0 -4.11958,0.04934 -4.11953,0.109711 3e-5,0.06037 -0.69053,3.612944 -1.53456,7.894645 -1.5268,7.74519 -3.05095,14.28824 -4.04283,17.35548 -0.51924,1.60569 -0.51853,1.60792 0.51689,1.64631 1.67471,0.0621 1.51971,0.0621 54.74889,0.0107 l 51.02955,-0.0491 0.14816,-8.67565 c 0.13344,-7.81561 0.23445,-8.91408 1.01934,-11.08063 1.79104,-4.943756 5.15036,-8.295954 10.01272,-9.991468 2.48826,-0.867655 2.56924,-0.868533 77.09743,-0.828855 50.00505,0.02665 75.19151,0.18274 76.3805,0.473457 6.13748,1.500669 10.72365,6.593742 12.04741,13.378996 0.55344,2.83676 0.56626,35.33675 0.016,38.5071 -0.2035,1.17083 -0.92854,3.27207 -1.61117,4.66944 -2.51056,5.13917 -6.89912,8.48377 -11.97557,9.12679 -3.93104,0.49793 -144.51804,0.46293 -148.50378,-0.0369 -7.3653,-0.92378 -12.85011,-6.35257 -14.14611,-14.00158 -0.22938,-1.35377 -0.41704,-5.8135 -0.41704,-9.9105 v -7.44909 H 445.43452 391.2805 l -0.89221,2.40411 c -1.36913,3.6892 -4.0019,8.33689 -8.0747,14.25452 l -3.70629,5.3851 -0.25232,3.70848 c -0.13872,2.03967 -0.25254,9.16827 -0.25286,15.84133 -7.5e-4,16.35692 0.59141,22.7193 2.72968,29.3291 3.67961,11.37436 9.87693,16.36754 42.25576,34.04557 l 16.04477,8.76005 56.19075,0.10254 56.19076,0.10254 0.22125,-8.36209 c 0.25776,-9.74187 0.83016,-12.34902 3.61849,-16.48158 2.04866,-3.03629 6.02866,-5.78739 9.5317,-6.58861 1.85402,-0.42405 17.63109,-0.53708 75.93234,-0.54397 64.43128,-0.007 73.86877,0.0699 75.8149,0.62297 6.32184,1.79655 11.12515,7.70805 12.1609,14.96653 0.231,1.61897 0.33326,9.51185 0.25372,19.58386 -0.12688,16.05311 -0.17404,17.00377 -0.97364,19.58956 -1.49725,4.84192 -5.12935,8.98264 -9.61517,10.96165 l -2.16317,0.95431 h -75.87605 -75.87605 l -2.10767,-0.93775 c -4.58216,-2.03871 -8.11955,-6.21565 -9.63482,-11.37669 -0.65889,-2.24423 -0.83844,-4.16825 -0.99678,-10.68128 l -0.19312,-7.94398 h -52.03291 c -28.6181,0 -51.97063,0.10993 -51.89452,0.24429 0.0762,0.13435 3.81181,2.14962 8.30155,4.47838 13.47159,6.98745 18.54616,9.07298 41.32341,16.98287 3.69884,1.2845 6.85416,2.33545 7.01183,2.33545 0.1576,0 3.16696,1.24014 6.68729,2.75589 22.22412,9.56892 39.77383,23.48058 53.55482,42.45294 2.47652,3.40944 6.77245,10.17813 7.95992,12.54169 0.50549,1.00612 1.82149,3.58904 2.92442,5.73983 5.9997,11.69956 13.44522,32.69752 16.67461,47.02591 3.52248,15.62885 6.33627,36.76428 6.33627,47.59427 v 3.27768 h 9.54943 9.54945 l 0.13296,-9.72092 0.13312,-9.72092 1.21287,-2.81703 c 2.15923,-5.01515 6.1426,-8.65181 10.86846,-9.92246 1.2113,-0.32569 24.2797,-0.42354 80.06845,-0.33963 l 78.36692,0.11788 2.38456,1.33186 c 3.21819,1.79746 4.85864,3.28623 6.3644,5.77592 2.86786,4.74179 2.73453,3.48423 2.86248,27.0004 0.11168,20.51524 0.0915,21.21596 -0.67718,23.45719 -1.78432,5.20325 -5.41807,9.17251 -9.97621,10.89735 l -2.49088,0.94257 -75.49285,0.0341 c -41.52106,0.0187 -77.06847,-0.10618 -78.99423,-0.27754 -2.64922,-0.23581 -4.04823,-0.59946 -5.74818,-1.49414 -4.00187,-2.10615 -7.5095,-6.9894 -8.54685,-11.89875 -0.21309,-1.00844 -0.39165,-5.83493 -0.3968,-10.72555 l -0.01,-8.89201 -9.43385,0.11183 -9.43386,0.11183 0.0645,5.08529 c 0.0355,2.79692 0.12672,5.52504 0.20277,6.06252 0.0762,0.53746 0.24144,8.22086 0.3675,17.07421 0.27799,19.52368 0.58095,31.21066 0.84541,32.61212 0.12976,0.68737 0.0685,0.90211 -0.17922,0.62716 -0.57996,-0.64412 -5.36768,-22.11587 -6.41659,-28.77705 -1.02374,-6.50108 -1.90832,-16.63717 -2.31419,-26.51721 l -0.26192,-6.3761 h -6.12984 -6.12983 l 0.26186,8.46661 c 0.51706,16.71727 1.34949,23.30042 5.03574,39.82442 1.18607,5.31661 3.69165,17.0222 6.08826,28.44309 1.51778,7.23286 3.13216,16.43224 5.17064,29.46433 0.41367,2.64452 1.53375,11.48742 2.48907,19.6509 0.95532,8.16348 2.18837,18.6997 2.7401,23.41383 0.55171,4.71413 1.14688,9.76945 1.32256,11.23405 0.57128,4.76219 -0.0802,6.71232 -2.538,7.59732 -1.61219,0.58052 -3.75979,-0.0892 -4.53067,-1.41284 -0.81682,-1.40249 -1.23799,-4.3814 -2.87653,-20.34526 -1.64883,-16.06405 -1.81439,-17.4213 -4.4112,-36.16601 -2.62211,-18.92716 -3.96405,-25.95226 -10.18307,-53.30828 -4.83442,-21.26548 -6.48365,-34.03005 -6.49636,-50.27956 l -0.005,-6.5877 -29.96849,0.10708 -29.9685,0.10708 -0.66215,4.81988 c -1.28761,9.37269 -4.12865,20.12439 -8.27204,31.30486 l -2.10706,5.68567 0.23704,9.99239 c 0.21131,8.90807 1.00854,23.58401 1.59213,29.3094 2.06537,20.26241 6.73878,47.46601 12.64496,73.60522 2.20629,9.76449 2.19507,11.33695 -0.0904,12.66498 -1.18071,0.68612 -3.62869,0.604 -4.62194,-0.15504 -1.18125,-0.9027 -2.60944,-6.60355 -7.22377,-28.8349 -1.0578,-5.09626 -4.51962,-25.0919 -4.94036,-28.5356 -0.14752,-1.20727 -0.39832,-2.19505 -0.55736,-2.19505 -0.15904,0 -0.49248,1.64629 -0.74092,3.65841 -0.24847,2.01213 -0.78316,5.72803 -1.18821,8.25755 -0.40507,2.52953 -1.10597,6.95098 -1.55759,9.82544 -0.45161,2.87447 -1.32619,8.42481 -1.9435,12.33407 -0.61733,3.90929 -1.54048,10.81312 -2.0515,15.34184 -0.91728,8.12929 -1.48876,10.43564 -2.71269,10.94806 -1.07797,0.45132 -3.39239,0.24956 -4.47223,-0.38989 z M 158.7148,571.37049 c 2.15754,-0.78769 7.55971,-3.41791 12.00481,-5.84493 8.21197,-4.48371 16.92536,-8.71063 20.87765,-10.12788 1.20025,-0.43039 2.18353,-0.89605 2.18505,-1.03478 0.001,-0.13872 -1.24745,-1.15629 -2.7755,-2.26125 -10.08795,-7.29477 -20.42616,-20.07398 -29.63138,-36.62783 -2.88885,-5.19508 -8.96795,-18.07328 -10.63473,-22.52904 -3.46387,-9.25995 -9.07249,-28.22308 -9.07249,-30.67477 0,-0.52083 -0.13423,-0.69638 -0.34642,-0.45308 -0.35653,0.40881 -2.00451,12.63007 -2.70338,20.04809 -2.77267,29.42991 -3.03196,53.90654 -0.75736,71.49581 1.20854,9.34561 2.77837,13.92873 5.65926,16.52221 3.68496,3.31737 8.80843,3.81892 15.19449,1.48745 z m 296.15905,0.76655 c 0.98477,-0.3661 2.6623,-1.52084 3.72786,-2.56609 3.23651,-3.17486 4.17875,-5.89047 5.33435,-15.37392 2.81315,-23.08614 1.77589,-59.29091 -2.54242,-88.74259 -0.5479,-3.73681 -1.12616,-6.7942 -1.28502,-6.7942 -0.15888,0 -0.40709,0.70555 -0.55162,1.56789 -1.15627,6.89936 -3.38342,15.24337 -6.55641,24.56362 -4.08007,11.98469 -6.90681,18.56222 -11.89359,27.67514 -9.7503,17.81787 -19.37997,29.72951 -30.56432,37.80728 -3.55271,2.5659 -4.39106,3.34359 -3.83213,3.55486 6.20877,2.34692 13.59717,5.7846 21.2173,9.87199 12.19222,6.53983 13.07075,6.97184 16.47813,8.10285 3.48745,1.15759 7.87464,1.29722 10.46787,0.33317 z M 204.37816,550.68182 c 2.70987,-0.66861 8.9795,-2.07724 13.93252,-3.1303 4.95303,-1.05305 10.72996,-2.45963 12.83762,-3.12572 15.21475,-4.80833 25.33741,-12.73975 30.44877,-23.85755 4.6439,-10.10105 5.8211,-17.91907 4.97779,-33.05883 -0.75915,-13.62904 -0.4439,-31.02225 0.63088,-34.80718 0.30507,-1.0743 -0.31477,-0.89763 -1.99465,0.56855 -2.20008,1.92019 -10.74224,6.30434 -16.43503,8.43506 -5.74293,2.14948 -10.06808,3.30063 -16.28651,4.33465 -5.52896,0.91938 -20.39003,1.03568 -26.63327,0.20845 -21.96531,-2.91046 -46.36294,-14.05939 -57.40563,-26.23254 -2.51358,-2.77089 -2.60763,-2.74106 -3.41611,1.08345 -0.6362,3.00953 -0.60911,13.28932 0.0434,16.51511 1.42692,7.05301 5.26062,20.22853 8.56172,29.42452 3.85114,10.72831 11.46356,26.31063 16.97857,34.75446 6.01059,9.20264 14.40148,19.28302 19.72254,23.69361 1.76664,1.46436 8.72459,6.40989 9.01819,6.40989 0.0506,0 2.3092,-0.54704 5.01908,-1.21564 z m 200.24485,-2.385 c 11.16319,-7.33835 21.02538,-18.61591 30.31082,-34.66082 7.47509,-12.91666 13.21816,-27.28236 17.71466,-44.31129 2.63165,-9.96643 3.73714,-15.31002 4.46098,-21.56281 0.42625,-3.68213 0.39571,-4.2692 -0.42327,-8.13743 -0.48547,-2.29296 -1.12579,-5.06271 -1.42293,-6.15501 l -0.54025,-1.98599 h -28.28135 -28.28136 l -0.47582,-1.13938 c -0.42298,-1.01287 -0.38255,-1.22176 0.36417,-1.88146 0.78693,-0.69523 2.56746,-0.74209 28.19719,-0.74209 19.58158,0 27.35723,-0.13026 27.35723,-0.45828 0,-1.08584 -3.37915,-13.1953 -5.29736,-18.98356 -6.4501,-19.46335 -12.79456,-34.5906 -20.07966,-47.87651 -7.12388,-12.99184 -15.59557,-25.55382 -23.26525,-34.4981 -1.38412,-1.61414 -2.88789,-3.40154 -3.3417,-3.97199 -1.22984,-1.54591 -7.03602,-7.2725 -11.24277,-11.08865 -3.27331,-2.96936 -5.49699,-4.77456 -8.81718,-7.1578 -0.52691,-0.37822 -1.65589,-1.20767 -2.50885,-1.84321 -0.85296,-0.63555 -3.00853,-1.94174 -4.79016,-2.90264 -10.50437,-5.66539 -17.42725,-6.42203 -23.85191,-2.60691 -2.7424,1.62849 -6.19292,5.94127 -7.94027,9.9244 -3.46605,7.90108 -5.79958,20.82002 -6.36018,35.21159 -0.2652,6.80808 0.0931,17.26447 0.59146,17.26447 0.30605,0 2.98952,-6.32565 5.22603,-12.31917 1.36554,-3.65945 2.82941,-8.36134 3.64941,-11.72181 0.55354,-2.26843 1.36547,-3.5539 2.24479,-3.5539 1.3336,0 1.72057,3.36444 0.99401,8.64221 -0.93741,6.80941 -1.74981,9.35565 -8.24805,25.85139 -5.60529,14.22902 -6.27305,16.30772 -8.40622,26.16858 -2.21,10.21596 -2.71719,24.33284 -1.24067,34.53242 0.95878,6.62309 1.70761,9.07433 4.12896,13.51551 3.98507,7.30933 8.78333,12.70029 21.03246,23.63049 10.68677,9.53605 15.13312,16.07914 18.60101,27.37251 3.17735,10.34724 2.98181,21.44534 -0.60778,34.49627 -1.71974,6.25257 -1.88401,10.35995 -0.56571,14.14529 1.95075,5.60136 4.40247,7.10087 15.14109,9.26056 2.95074,0.59343 6.39965,1.33611 7.66424,1.65042 1.26461,0.3143 2.70555,0.59073 3.2021,0.61429 0.49654,0.0236 2.7952,-1.20115 5.10809,-2.72159 z m -36.67296,-5.49312 c -1.13867,-2.98973 -1.44773,-4.85432 -1.43801,-8.67567 0.01,-3.68277 0.2023,-4.87861 1.619,-10.03449 2.1089,-7.67497 2.69701,-11.48897 2.69765,-17.4947 0.001,-11.0104 -3.30779,-20.78057 -9.76873,-28.84364 -1.57528,-1.9659 -5.14204,-5.60838 -7.92612,-8.09435 -9.1302,-8.15266 -12.73198,-11.68699 -15.42027,-15.13143 -1.45763,-1.86765 -2.72883,-3.30997 -2.8249,-3.20516 -0.096,0.10478 0.0176,1.65716 0.2524,3.44969 0.99623,7.60287 1.2021,14.47144 0.75567,25.2096 -0.6641,15.97396 -0.56199,22.33916 0.44265,27.59487 1.8142,9.49076 4.88751,16.13741 10.15583,21.96392 5.04933,5.58429 9.26458,8.5404 17.62776,12.36215 4.00301,1.82925 4.19882,1.87526 3.82707,0.89921 z M 224.44208,461.58188 c 6.15251,-0.50088 13.08209,-1.71361 18.00501,-3.15102 7.23324,-2.112 15.93339,-6.52751 21.14148,-10.72978 l 2.87199,-2.31731 1.3971,-4.337 c 1.48391,-4.60645 1.81519,-6.01441 2.74204,-11.65382 3.39417,-20.65183 0.35219,-40.9027 -9.67201,-64.38803 -6.21052,-14.55042 -8.18188,-21.4446 -8.27449,-28.93719 -0.0365,-2.95784 0.0813,-3.77992 0.62713,-4.37682 0.64124,-0.70114 0.70816,-0.69563 1.45546,0.11971 0.43083,0.47005 1.04011,2.06333 1.35394,3.5406 0.31382,1.47729 1.0807,4.20226 1.70414,6.05547 2.14386,6.37283 7.18678,18.58096 7.67539,18.58096 0.50647,0 0.85789,-9.64237 0.61247,-16.80495 -0.30741,-8.97177 -1.12188,-16.12052 -2.72984,-23.9602 -2.10567,-10.26629 -3.91152,-14.5809 -8.15866,-19.49302 -4.86354,-5.62503 -10.90005,-7.04588 -19.232,-4.52675 -10.87914,3.28926 -28.30263,17.50223 -41.28232,33.67546 -2.68024,3.3397 -5.22804,6.59676 -5.66178,7.23792 -0.43374,0.64116 -2.51973,3.68754 -4.6355,6.76972 -10.49112,15.28292 -20.89874,36.49435 -27.88021,56.82172 -0.51336,1.49472 -1.45739,4.22285 -2.09783,6.06251 -1.05627,3.03412 -2.87731,9.23659 -5.60333,19.08494 -0.55036,1.9883 -1.00065,4.08632 -1.00065,4.66224 0,2.45758 6.00224,9.36686 11.68315,13.44866 11.93045,8.5722 26.92163,14.76701 41.96658,17.3419 9.72955,1.66516 14.76283,1.94407 22.99274,1.27408 z m 565.09659,-1.96387 c 2.00816,-1.17196 4.82107,-4.22633 5.6523,-6.13751 1.29541,-2.97841 1.44463,-5.86298 1.2972,-25.07547 -0.16934,-22.06738 -0.0709,-21.42215 -3.90363,-25.58014 -4.0244,-4.36591 4.70958,-3.95355 -83.73647,-3.95355 -88.41154,0 -79.81752,-0.40409 -83.79941,3.94035 -3.85619,4.20731 -3.79024,3.73007 -3.78983,27.41747 3.2e-4,18.0067 0.0635,20.03257 0.67724,21.70989 1.39115,3.80202 4.49803,7.11932 7.69408,8.21511 1.29101,0.44263 16.4028,0.53082 79.9588,0.46667 l 78.36693,-0.0791 z M 503.78528,425.14568 c 0.81992,-4.54704 3.34734,-6.17713 5.82798,-3.75886 1.06926,1.04237 1.24434,1.51519 1.39336,3.76294 l 0.17043,2.57078 h 29.89381 29.89381 l -0.25509,-4.70367 c -0.72964,-13.45419 -2.80752,-28.00046 -5.61521,-39.30932 -1.39498,-5.61871 -5.55611,-19.04801 -8.54688,-27.58351 -1.18776,-3.38977 -2.15956,-6.6939 -2.15956,-7.34252 0,-2.42647 2.62788,-4.23111 4.75151,-3.263 1.1688,0.5328 2.91275,2.60898 2.91275,3.46761 0,0.20198 0.58986,1.58404 1.31082,3.07124 2.75777,5.6888 7.59937,20.51649 9.75678,29.88076 2.8277,12.27366 4.7132,24.42132 5.25664,33.86644 0.1456,2.52953 0.31274,4.88136 0.37154,5.2263 0.0587,0.34494 0.12016,1.99122 0.13616,3.65841 l 0.0293,3.03126 h 5.97208 5.97211 l -0.25862,-4.70367 c -0.60557,-11.0144 -3.47568,-31.17467 -5.96719,-41.91495 -2.95613,-12.74313 -8.88806,-30.57026 -13.5863,-40.83064 -6.766,-14.77609 -12.68226,-23.97293 -22.00962,-34.21396 -14.22971,-15.6236 -31.95117,-26.52184 -55.46783,-34.1113 -11.72883,-3.78521 -22.23144,-7.6424 -26.93585,-9.89251 -11.35676,-5.43186 -20.34397,-9.9143 -27.01649,-13.47465 -4.00456,-2.13677 -8.26569,-4.38866 -9.46918,-5.00421 l -2.18816,-1.11916 -55.07988,0.0331 c -30.29395,0.0182 -55.12659,0.084 -55.18368,0.14631 -0.22513,0.24562 -0.31105,62.94406 -0.10784,78.67817 0.23671,18.32601 0.48704,20.76537 2.66997,26.01809 1.12458,2.70603 4.26144,7.82009 6.58718,10.73919 l 1.30389,1.63655 0.0285,-12.08915 c 0.04,-16.92154 1.32856,-27.51983 4.65637,-38.29501 2.07282,-6.71163 4.27776,-11.04845 7.60245,-14.953 6.06861,-7.12703 12.69526,-9.77579 21.88947,-8.74951 4.7516,0.53039 8.78071,1.96006 14.8273,5.26127 17.92565,9.78674 35.69645,28.25081 51.22888,53.22736 5.08733,8.18056 6.89296,11.44274 11.21903,20.26893 8.76091,17.87433 17.28526,41.29084 21.72697,59.68436 l 0.88344,3.65842 h 20.55522 20.55522 z M 280.83432,388.38024 c 1.44237,-1.63089 2.62246,-3.04371 2.62246,-3.13961 0,-0.0959 -0.9688,-1.81892 -2.15291,-3.82895 -3.1651,-5.37273 -6.7492,-10.55331 -7.30113,-10.55331 -0.26538,0 -0.66287,0.3677 -0.88332,0.81711 -0.31411,0.64036 -0.0386,1.97422 1.2737,6.16703 0.92096,2.94246 2.07765,7.18436 2.5704,9.42645 0.49277,2.24209 0.97523,4.07651 1.07214,4.07651 0.0968,0 1.35632,-1.33436 2.79866,-2.96523 z m 44.88512,-4.40903 c 0.99607,-3.82589 2.27427,-8.08236 2.84045,-9.45883 0.99818,-2.42675 1.0075,-2.52014 0.30782,-3.07834 -0.39684,-0.31662 -0.84398,-0.57567 -0.99363,-0.57567 -0.71275,0 -6.28833,7.95154 -8.51861,12.14874 l -1.01236,1.90519 2.57968,2.96261 c 1.41883,1.62944 2.67102,2.98282 2.78265,3.00754 0.11152,0.0247 1.01792,-3.08535 2.014,-6.91124 z M 292.242,372.76827 c -2.86362,-4.26481 -5.91251,-8.26399 -7.65978,-10.04716 l -1.90508,-1.94425 -1.01887,1.38235 c -0.56037,0.76028 -1.77907,2.25158 -2.70819,3.31397 l -1.68933,1.93163 2.43283,3.29468 c 1.33805,1.81207 3.44672,5.05122 4.68594,7.19812 l 2.25312,3.90346 3.37568,-3.66599 3.3757,-3.66598 z m 24.91701,5.39846 c 1.42898,-2.84075 6.05309,-9.59865 7.05698,-10.3134 0.41364,-0.2945 -3.58429,-5.51191 -4.87933,-6.36767 -0.58293,-0.38519 -1.11445,0.0412 -3.56232,2.85796 -1.58247,1.82088 -3.87147,4.9253 -5.08671,6.89872 l -2.20952,3.58802 3.29685,3.21568 c 1.81327,1.76863 3.41059,3.22676 3.54962,3.24031 0.13904,0.0136 0.96451,-1.39028 1.83443,-3.11962 z m -10.96323,-8.16741 c 1.51894,-2.95062 4.44385,-6.80643 7.62681,-10.05407 l 2.70511,-2.76011 -2.14167,-4.58707 c -1.52227,-3.26041 -2.34008,-5.63867 -2.82764,-8.22309 -0.54984,-2.91432 -0.80167,-3.58622 -1.26877,-3.38511 -1.5641,0.6734 -6.54088,1.43683 -9.33458,1.43193 -1.72029,-0.003 -4.76602,-0.37685 -6.7683,-0.83072 -2.00229,-0.45387 -3.64053,-0.82731 -3.64053,-0.82988 0,-0.002 -0.0453,0.70052 -0.1008,1.56241 -0.23154,3.60247 -1.56722,7.58269 -4.32647,12.89254 l -0.88812,1.70908 2.84926,3.1395 c 1.56709,1.72672 4.13094,5.02968 5.69746,7.33991 l 2.84819,4.20042 2.93894,-0.21979 c 1.81575,-0.13578 3.21695,-0.0437 3.6664,0.24111 1.30245,0.82513 1.85972,0.51929 2.96461,-1.62706 z m 1.55465,-33.21452 c 1.45317,-0.3359 2.68892,-0.66188 2.74612,-0.72442 0.0573,-0.0625 0.005,-2.81195 -0.11376,-6.10981 l -0.21768,-5.99612 -1.1872,0.25716 c -2.82191,0.61127 -11.4589,0.75183 -14.24524,0.23181 -1.57397,-0.29375 -2.95353,-0.43396 -3.06571,-0.31156 -0.11216,0.12238 -0.30045,2.85956 -0.4184,6.0826 l -0.21446,5.86008 2.05529,0.45459 c 1.13043,0.25002 2.40021,0.52868 2.82175,0.61924 1.95456,0.41994 9.44467,0.18993 11.83925,-0.36357 z m 1.47738,-17.58883 1.05384,-0.28 v -6.47932 -6.47933 l -1.24542,0.26464 c -2.9653,0.63009 -11.21693,0.76736 -14.33332,0.23842 -1.76128,-0.29894 -3.25008,-0.46603 -3.30845,-0.3713 -0.0584,0.0947 -0.0419,3.02981 0.0366,6.52242 l 0.14256,6.35022 1.9772,0.41997 c 2.06664,0.43898 13.85132,0.29937 15.67705,-0.18571 z m -2.96989,-17.34226 c 4.41269,-0.68931 4.02373,0.001 4.02373,-7.14664 0,-5.97502 -0.0346,-6.25961 -0.72934,-6.019 -3.3361,1.15525 -10.09941,1.3494 -14.79076,0.42458 -1.68613,-0.33238 -3.10881,-0.60804 -3.1615,-0.61257 -0.0528,-0.004 -0.0958,2.80049 -0.0958,6.23336 v 6.24158 l 2.01185,0.44397 c 1.10655,0.24418 2.35677,0.51808 2.77829,0.60864 1.55456,0.33399 7.36083,0.23264 9.96354,-0.17392 z m 1.34125,-17.66973 2.49088,-0.50593 0.10608,-6.42416 0.10608,-6.42416 -1.06405,0.24782 c -5.11928,1.19225 -10.08955,1.19764 -16.29677,0.0177 l -1.43704,-0.27317 v 6.29663 6.29663 l 2.01186,0.42622 c 1.10653,0.23444 2.35675,0.50817 2.77829,0.60831 1.63057,0.38732 8.93446,0.21553 11.30477,-0.26589 z m 410.42045,-16.00931 c 4.53277,-2.35375 6.66084,-5.75223 7.32794,-11.70258 0.24157,-2.15469 0.32856,-9.65312 0.22166,-19.10715 -0.17049,-15.08057 -0.20356,-15.6381 -1.07158,-18.06931 -1.20547,-3.37637 -4.01298,-6.45811 -6.9909,-7.67374 l -2.21356,-0.9036 -75.18345,0.10762 -75.18346,0.10763 -1.91605,1.02856 c -2.57027,1.37976 -5.02072,3.91593 -6.26152,6.48054 l -1.01952,2.10729 v 19.02374 c 0,21.68515 -0.0326,21.42897 3.21807,25.22073 2.19773,2.56348 4.93171,4.10399 7.89509,4.44863 1.2646,0.14708 35.23637,0.25789 75.49283,0.24624 l 73.19357,-0.0212 z m -411.7617,-1.44171 c 4.41808,-0.69015 4.02373,0.0308 4.02373,-7.35569 v -6.48062 l -0.86222,0.30179 c -2.26162,0.79155 -3.89173,0.98857 -8.14327,0.98421 -2.5292,-0.002 -5.71779,-0.26644 -7.08576,-0.58632 -1.36798,-0.3199 -2.5493,-0.51392 -2.62514,-0.43116 -0.20731,0.22619 -0.053,12.47927 0.16028,12.71177 0.39521,0.4312 5.87289,1.20337 8.78419,1.23828 1.68614,0.0202 4.27283,-0.15179 5.74819,-0.38226 z m 2.49088,-17.86892 1.34125,-0.33541 V 245.41 242.29135 l -1.91606,0.13775 c -4.83593,0.34766 -7.33959,-0.78298 -6.32301,-2.85543 0.37006,-0.75442 0.80238,-0.8362 4.42043,-0.8362 h 4.01024 v -1.25432 c 0,-1.46278 0.29037,-1.42283 -6.13139,-0.84352 -4.10496,0.37032 -9.32269,0.0996 -11.93669,-0.61918 l -1.01512,-0.27916 0.20344,6.20176 c 0.112,3.41097 0.25214,6.26402 0.31165,6.34011 0.0595,0.0761 1.37321,0.40164 2.91934,0.72341 2.92562,0.60889 11.45544,0.52276 14.11592,-0.14253 z m 107.15462,-12.99516 c -23.63242,-13.53003 -29.09501,-17.17542 -34.61105,-23.09724 -4.76156,-5.11183 -7.15001,-9.72065 -8.93848,-17.24806 -2.03821,-8.5785 -2.47377,-13.37806 -2.44571,-26.94951 l 0.0254,-12.25597 -3.67168,3.92157 c -9.96874,10.64718 -19.84931,20.11931 -24.75224,23.72901 -2.29584,1.69028 -10.59731,6.48452 -12.39874,7.16049 -0.28166,0.10564 -0.22888,1.26005 0.16952,3.70736 0.76448,4.69607 0.32128,7.38718 -2.34328,14.22814 -1.34689,3.458 -2.24483,6.51376 -2.64149,8.98923 -0.97598,6.09108 -1.2071,6.67727 -3.6858,9.3483 -1.25437,1.3517 -2.28375,2.62068 -2.28751,2.81994 -0.005,0.19926 -0.16854,2.04003 -0.36624,4.09058 -0.19769,2.05056 -0.29731,3.83795 -0.22139,3.97199 0.076,0.13404 23.24015,0.24371 51.47605,0.24371 h 51.338 z m -107.15462,-4.4966 1.72447,-0.22463 0.87632,-2.9651 c 0.988,-3.34297 0.93576,-3.46364 -1.68674,-3.89648 -1.26621,-0.20897 -2.0211,-0.026 -3.83213,0.92854 -1.87616,0.98895 -2.73843,1.18633 -5.12938,1.17421 -2.39116,-0.0121 -3.22404,-0.21308 -4.95684,-1.19601 -1.73148,-0.98219 -2.37517,-1.13772 -3.81664,-0.92216 -0.95364,0.14261 -1.86525,0.40263 -2.02581,0.57781 -0.41752,0.45553 1.16505,5.94869 1.78907,6.20995 1.91998,0.80386 11.88803,0.98727 17.05768,0.31387 z m -4.59854,-11.0149 c 2.91909,-1.7141 5.45456,-1.70863 9.41206,0.0203 2.10912,0.92141 3.03394,1.15246 3.2297,0.80685 0.15088,-0.26634 0.48433,-1.83513 0.74104,-3.48618 0.7268,-4.67494 1.47889,-7.23844 3.55973,-12.13322 1.74928,-4.11489 1.92435,-4.79975 1.9016,-7.4385 -0.0344,-3.98918 -0.27354,-4.67628 -1.54164,-4.42958 -0.55878,0.10871 -3.4302,0.61504 -6.38094,1.12518 -2.95074,0.51014 -5.62365,1.06919 -5.93979,1.24233 -0.31616,0.17315 -1.35864,1.84307 -2.31667,3.71093 -2.12816,4.1493 -3.16084,5.39156 -4.975,5.98458 -2.15973,0.70599 -3.44755,-0.26429 -5.93531,-4.47173 -1.15582,-1.95483 -2.10152,-3.83395 -2.10152,-4.1758 0,-0.89516 -1.09173,-1.25976 -6.89782,-2.30363 -2.84535,-0.51156 -5.68189,-1.08852 -6.30341,-1.28213 -1.53927,-0.47951 -1.73119,-0.01 -1.73818,4.25855 -0.005,3.31158 0.10528,3.82678 1.49727,6.9673 1.89198,4.26862 3.3118,8.55732 3.63803,10.98906 0.43665,3.25484 1.07176,5.43536 1.58309,5.43536 0.27128,0 1.32664,-0.39384 2.34526,-0.87522 1.09965,-0.51966 3.01962,-0.95506 4.72613,-1.07177 2.67681,-0.18306 3.00561,-0.11009 4.79016,1.06321 2.46582,1.62122 4.02896,1.63615 6.70621,0.0641 z m -1.37236,-21.592 c 0.54404,-1.25361 0.98914,-2.36822 0.98914,-2.47692 0,-0.10868 -1.29334,-0.19762 -2.8741,-0.19762 -1.58075,0 -2.87409,0.1034 -2.87409,0.22982 0,0.37878 1.20115,2.82606 1.98133,4.03686 0.97028,1.50583 1.58662,1.15256 2.77772,-1.59214 z M 666.09434,150.8684 c 3.40615,-1.97758 5.64789,-5.1973 6.53965,-9.39262 0.88218,-4.1502 0.63077,-35.68766 -0.30899,-38.76046 -1.17727,-3.849413 -3.61714,-6.514918 -7.38029,-8.062811 -1.85336,-0.762343 -4.38039,-0.788128 -77.2173,-0.788128 h -75.30122 l -2.18522,1.170724 c -2.93054,1.570027 -5.37766,4.590652 -6.40315,7.903745 -0.76088,2.45825 -0.80034,3.44396 -0.80034,19.98906 0,19.48134 0.0542,19.97482 2.59084,23.60906 1.54452,2.2128 3.52886,3.83788 6.03144,4.9395 1.39486,0.614 8.32904,0.66708 77.02568,0.58956 l 75.49284,-0.0852 z M 307.30112,119.79132 c 4.33111,-1.28708 7.38847,-1.44256 15.59581,-0.79308 4.3127,0.34128 8.45502,0.56426 9.20517,0.4955 1.31104,-0.12016 1.2228,-0.20146 -2.27661,-2.09776 -2.00229,-1.08502 -5.34298,-2.99462 -7.42373,-4.24354 -7.45819,-4.47659 -10.93696,-5.01606 -16.08176,-2.49392 -4.18962,2.05388 -6.11182,2.05272 -10.87338,-0.006 -2.40729,-1.04111 -4.14084,-1.52678 -5.44974,-1.52678 -2.62234,0 -6.91352,1.78013 -13.32147,5.52617 -2.90939,1.70081 -5.9796,3.41603 -6.82266,3.8116 -1.48947,0.69885 -1.31048,0.71002 6.32299,0.39439 11.17372,-0.46199 14.12778,-0.31388 18.3942,0.92232 3.01689,0.87414 4.23134,1.0213 7.08944,0.85908 1.89691,-0.10768 4.43568,-0.48901 5.64174,-0.84742 z M 200.94862,84.552264 c 0.81315,-0.698868 0.82323,-0.804053 0.30974,-3.23101 -0.29192,-1.379743 -0.98284,-5.895268 -1.53539,-10.0345 -0.55254,-4.13923 -1.76973,-12.095262 -2.70483,-17.68007 -0.93511,-5.584808 -1.70019,-10.335516 -1.70019,-10.557129 0,-1.237841 -0.84965,-0.0052 -1.95596,2.837374 -0.98068,2.519952 -1.25435,3.798001 -1.23099,5.748931 0.0347,2.897114 0.60162,4.563802 2.96493,8.71639 2.04883,3.600005 2.41995,4.932474 1.58448,5.688985 -0.50875,0.460669 -0.84554,0.362404 -2.15734,-0.629448 -2.31898,-1.753373 -5.14117,-5.31408 -6.36221,-8.027096 -0.93749,-2.082954 -1.07928,-2.878603 -1.0617,-5.957882 0.0234,-4.095592 0.49691,-5.933165 2.40895,-9.348053 l 1.3714,-2.449334 -0.88704,-2.776967 c -1.79379,-5.615702 -5.3312,-10.883756 -8.59657,-12.802392 -0.77907,-0.457761 -1.40645,-1.146409 -1.40645,-1.54381 0,-1.668196 3.2085,-2.632469 5.10275,-1.533572 3.19504,1.853499 6.74903,6.668235 8.33279,11.288781 0.46536,1.357627 0.90809,2.400766 0.98387,2.318088 0.0758,-0.08267 -0.028,-1.641016 -0.23087,-3.462974 -0.20275,-1.821958 -0.53987,-5.531484 -0.74915,-8.243393 -0.43709,-5.663587 -0.70889,-6.243322 -4.10448,-8.754232 -4.18539,-3.094971 -7.03001,-2.967559 -10.1412,0.454232 -4.04645,4.450426 -5.13789,13.905194 -2.97528,25.773865 1.06282,5.832809 2.44381,10.109552 6.2912,19.482864 1.83133,4.461605 4.10576,10.087552 5.05431,12.502103 1.95096,4.966216 3.58505,7.844211 5.77387,10.168959 2.42571,2.57638 5.91702,3.516072 7.62136,2.05129 z m 205.88593,-0.447547 c 1.62386,-0.91215 4.58538,-4.787629 5.92519,-7.753774 1.25102,-2.76959 8.17065,-19.90713 9.89481,-24.50603 1.42791,-3.808717 2.97403,-9.113482 2.97403,-10.203931 0,-0.584151 -0.80728,-0.666777 -6.51462,-0.666777 -3.58302,0 -6.51461,0.07294 -6.51461,0.162111 0,0.08916 0.55643,1.453224 1.23653,3.031254 1.13478,2.63309 1.23667,3.213135 1.23845,7.050186 0.001,3.709849 -0.11168,4.416639 -1.00672,6.271562 -1.38384,2.868111 -3.23757,5.311135 -5.37319,7.081369 -1.90846,1.581933 -3.25617,1.899105 -3.62414,0.852906 -0.22131,-0.629209 0.0907,-1.380915 3.29456,-7.934275 1.58819,-3.248713 1.63027,-3.434944 1.46409,-6.480614 -0.13808,-2.529545 -0.43171,-3.696294 -1.51924,-6.035059 l -1.34818,-2.899279 -0.44254,2.063071 c -0.62344,2.906542 -2.50685,14.996185 -4.09405,26.279923 -0.74139,5.270763 -1.52471,10.443528 -1.74069,11.49503 -0.36104,1.757744 -0.32174,1.974498 0.48757,2.689511 1.05321,0.93049 3.50424,0.715292 5.66275,-0.497184 z M 665.55266,67.26467 c 2.6073,-1.334035 4.60155,-3.440417 6.0025,-6.339968 l 1.05379,-2.181072 V 39.092736 19.441842 l -1.07718,-2.393331 c -1.7569,-3.903516 -4.86132,-6.323724 -8.99273,-7.010754 -1.20608,-0.2005665 -35.38865,-0.3303867 -75.96126,-0.288488 l -73.76839,0.076177 -2.67043,1.463365 c -1.9673,1.078061 -3.0541,2.013797 -4.12764,3.553884 -2.71891,3.900526 -2.78224,4.457175 -2.78224,24.459093 0,19.793368 -0.005,19.756848 2.72695,23.871947 1.23043,1.853952 4.44067,4.146245 6.98934,4.990791 0.55751,0.18474 34.64055,0.304303 75.74007,0.265695 l 74.72641,-0.07019 z m -239.042,-30.615393 c 0.10864,-0.309095 0.31287,-2.425747 0.45368,-4.703671 0.32114,-5.194924 -0.71881,-11.65013 -2.40929,-14.955061 -1.11104,-2.172137 -3.82834,-4.61784 -5.70011,-5.130401 -2.19189,-0.600221 -8.0357,2.79086 -9.23181,5.357089 -0.24874,0.533663 -0.71938,3.886573 -1.04589,7.450911 -0.3265,3.564338 -0.67621,7.139128 -0.77717,7.943979 -0.148,1.180368 0.0803,0.861368 1.18054,-1.649543 1.86559,-4.257421 3.6821,-6.834718 6.20818,-8.808308 2.38653,-1.864561 4.63088,-2.2351 5.90687,-0.975212 1.15073,1.136208 0.82836,2.058283 -1.22124,3.49326 -1.0571,0.740113 -2.58777,2.17086 -3.40147,3.179438 -1.41627,1.755463 -3.88014,6.437379 -4.43041,8.418776 l -0.26127,0.940734 h 7.26587 c 5.73058,0 7.30764,-0.118749 7.46352,-0.561991 z m -141.48693,117.563093 -0.91688,-0.37006 0.9204,-1.07504 c 1.34331,-1.56898 3.60075,-2.88179 6.86021,-3.98955 2.50049,-0.84982 3.6462,-0.9753 8.81388,-0.96536 6.34545,0.0122 9.20273,0.49126 12.54303,2.10299 3.16803,1.52864 5.00125,4.03899 3.26448,4.47032 -0.36883,0.0916 -1.53283,-0.17031 -2.58667,-0.582 -7.37392,-2.88076 -17.46525,-3.18436 -23.85663,-0.71773 -3.67163,1.41698 -4.09022,1.5105 -5.04182,1.12643 z m 9.16301,-10.81846 c -6.03285,-0.78475 -12.591,-3.38039 -16.47815,-6.52184 -2.24734,-1.81624 -5.36496,-5.29455 -5.36496,-5.98568 0,-0.75738 2.39242,0.0785 6.71429,2.34594 7.39291,3.8786 13.04477,4.96912 23.93776,4.61877 9.13186,-0.2937 12.51171,-1.06796 19.27293,-4.41504 2.78629,-1.37933 5.54216,-2.63674 6.12416,-2.79423 0.91872,-0.24862 1.02411,-0.1838 0.79986,0.49183 -1.14408,3.44696 -7.13498,8.01279 -13.72493,10.4602 -5.04447,1.87345 -14.54136,2.67674 -21.28096,1.80005 z m 4.76899,-56.436455 c -2.55613,-0.394163 -4.95234,-1.595255 -7.06827,-3.542946 -2.3052,-2.121912 -3.73956,-2.720411 -6.51973,-2.720411 -1.96181,0 -2.4773,-0.161797 -3.2696,-1.026256 -2.50243,-2.730263 0.39261,-6.150769 4.66507,-5.511842 2.2464,0.335937 4.10046,1.428003 6.77994,3.993439 2.82915,2.708757 4.06158,3.394651 6.61657,3.682358 3.16802,0.356739 5.13735,-0.454315 8.10944,-3.339805 3.2868,-3.191013 6.07976,-4.661647 8.32815,-4.385148 2.97921,0.366376 4.68752,2.586317 3.6375,4.726937 -0.554,1.129401 -1.89432,1.674847 -4.97139,2.02311 -1.66411,0.188345 -2.55122,0.595182 -4.21534,1.933185 -4.42981,3.56173 -8.01266,4.796482 -12.09234,4.167379 z M 279.1275,85.127216 c -2.40276,-0.966349 -4.45985,-2.689094 -5.64438,-4.726963 -1.71738,-2.954598 -2.00555,-4.373451 -1.83795,-9.049828 0.14208,-3.963448 0.24966,-4.445834 1.62432,-7.279976 2.18189,-4.498415 5.19181,-6.984347 6.5984,-5.449693 0.49326,0.53819 0.29893,1.167595 -1.59824,5.175983 -1.69663,3.584714 -2.20296,5.101249 -2.36106,7.071911 -0.39179,4.883239 1.44266,8.585684 5.37603,10.850386 2.25463,1.298133 3.29109,2.521059 2.6909,3.174997 -0.63309,0.689767 -3.38378,0.822071 -4.84802,0.233183 z m 39.04354,0.05335 c -1.09493,-0.900298 -0.54075,-1.791981 1.97482,-3.177457 3.18411,-1.753677 5.26211,-4.354285 5.87781,-7.356004 0.80401,-3.919764 -0.1088,-7.350501 -3.69944,-13.903135 -0.70279,-1.282546 -0.7057,-1.378348 -0.0634,-2.079153 0.64232,-0.700806 0.73806,-0.696651 2.07801,0.09019 1.6773,0.984926 3.23791,3.194537 4.86442,6.88735 1.09821,2.493367 1.19614,3.062768 1.18653,6.898718 -0.0128,4.583938 -0.6076,6.672248 -2.66132,9.323373 -2.17172,2.803481 -7.80416,4.757747 -9.55745,3.316123 z M 285.09555,57.593845 c 0.11712,-2.587019 0.64923,-6.985012 1.18263,-9.773318 1.82641,-9.547514 2.63052,-17.332375 2.6938,-26.079112 0.0323,-4.484167 0.19453,-8.388214 0.36021,-8.675661 0.46093,-0.799728 1.32936,-0.623147 1.81618,0.369289 0.74261,1.513935 1.47829,7.06463 1.48878,11.233101 0.0202,7.981502 -1.99049,23.520837 -3.83768,29.659944 -1.08451,3.604374 -3.00582,7.969428 -3.50781,7.969428 -0.27814,0 -0.34086,-1.504331 -0.19611,-4.703671 z"
       id="path1" /></g></svg>
