<?xml version="1.0" encoding="UTF-8" standalone="no"?>
<!-- Created with Inkscape (http://www.inkscape.org/) -->

<svg
   preserveAspectRatio="none"
   width="800mm"
   height="600mm"
   viewBox="0 0 800.00003 599.99995"
   version="1.1"
   id="svg1"
   xml:space="preserve"
   xmlns="http://www.w3.org/2000/svg"
   xmlns:svg="http://www.w3.org/2000/svg"><defs
     id="defs1" /><g
	id="zona-montañas"
	fill="transparent"
     	stroke="transparent"
     	role="button"
     	tabindex="0"
     	aria-label="Montañas llenas de vida y naturaleza"
     	data-zona="Montañas"><path
       d="m 0,413.88948 h 1.8236842 l 2.1710526,-0.60791 1.8236843,-1.21579 1.9105263,0.60791 2.6921056,1.21579 5.644737,3.38685 c 0,0 3.386842,1.73683 3.560526,2.34474 0.173684,0.60788 2.778947,4.51577 2.778947,4.51577 0,0 3.821053,1.56316 4.255265,1.56316 0.43421,0 2.344734,-3.82106 2.344734,-3.82106 l 1.563159,-3.03945 c 0,0 1.302631,-0.60791 1.910527,-0.60791 0.607893,0 4.776316,0 5.123685,0.0868 0.347366,0.0869 4.168421,-1.30263 4.168421,-1.30263 0,0 0.694735,-0.26053 1.128948,0.43421 0.43421,0.69474 2.605262,2.17107 2.605262,2.17107 l 3.560527,1.12895 c 0,0 1.910524,0.69471 2.344734,0.95525 0.434213,0.26053 3.560527,3.64736 3.560527,3.64736 l 4.428948,4.42896 1.65,-1.21581 1.823685,2.4316 1.563159,2.95262 0.347366,2.34474 0.43421,1.04211 12.939475,-0.60791 12.244736,-1.21578 49.326319,0.26053 35.77895,3.03948 31.00263,4.08157 35.6921,6.25263 32.13157,8.25 38.21055,13.37369 32.73946,13.37368 24.83683,11.02894 14.76317,5.90526 2.21448,-6.51314 1.47633,-4.81975 3.73419,-2.82237 1.60658,-0.82499 4.99343,-3.29999 8.33683,-0.21712 4.12502,0.26053 2.60524,1.21579 c 0,0 2.95265,2.43157 3.03948,2.69211 0.0868,0.26051 7.81579,6.55656 7.81579,6.55656 l 2.77895,1.12895 2.12762,0.9987 2.30132,3.86447 0.13028,3.82104 0.0868,2.30132 1.78024,0.26053 1.69344,-1.78027 1.65,-2.64867 4.03815,-1.21578 2.43157,-0.60791 0.73816,-2.0842 3.86448,-3.64739 4.81973,0.78158 3.86448,0.0434 3.38685,0.56447 c 0,0 1.86711,1.91053 2.21448,2.2579 0.34735,0.34737 4.03815,2.86578 4.03815,2.86578 l 3.38683,1.99736 c 0,0 0.52107,1.65 0.65132,1.95395 0.13026,0.30396 0.95528,2.56186 0.95528,2.56186 l 3.43025,0.30392 2.04081,-0.91183 c 0,0 0.52104,-3.03948 0.56446,-3.25657 0.0434,-0.21712 0.86841,-2.2579 1.08553,-2.60527 0.21709,-0.34738 1.78025,-2.38816 1.78025,-2.38816 l 2.17106,-1.78025 c 0,0 1.04209,-0.0434 1.25921,-0.13028 0.21712,-0.0868 2.34474,-0.825 2.34474,-0.825 l 1.60657,-3.47368 1.38949,-2.475 1.73683,-0.86841 2.38816,1.04209 0.0868,-1.78025 2.95265,-5.86185 2.95261,-1.73685 3.34344,-0.52105 1.60657,-1.43288 1.25921,-2.99606 2.47502,-1.12895 2.25787,-0.0434 5.81843,0.34738 1.56316,-0.30396 3.16973,1.43291 2.34474,1.69341 c 0,0 2.60527,1.4329 2.82236,1.51974 0.21712,0.0868 2.56186,0.825 2.56186,0.825 0,0 1.08553,2.43157 1.2592,2.77894 0.1737,0.34737 1.34607,2.56186 1.73686,3.0829 0.39079,0.52104 2.38815,1.73683 2.56183,1.78025 0.17369,0.0434 4.25526,0.91186 4.25526,0.91186 l 1.34604,-0.1737 2.6487,-0.95525 3.43026,-0.47763 c 0,0 0.99867,1.78025 1.21579,2.04079 0.21709,0.26053 3.77764,1.21578 3.9079,1.47632 0.13025,0.26051 1.56316,1.78025 1.86711,1.99736 0.30393,0.2171 2.73553,1.30263 2.73553,1.30263 l 2.30129,1.60657 2.2579,1.73686 c 0,0 0.73816,1.38946 0.86842,1.60658 0.13028,0.21709 3.16976,1.2592 3.16976,1.2592 0,0 0.86841,0.26054 0.95525,0.52105 0.0868,0.26053 0.91183,2.60527 0.91183,2.60527 l 1.34607,3.7342 1.30262,0.73816 4.86315,-0.26051 31.48028,-5.21055 28.87499,-5.60131 25.31448,-5.38421 16.93421,-3.0829 30.61184,-4.34211 40.77237,-0.82499 21.79738,1.91053 10.3342,1.99736 2.77895,-13.19998 1.73683,-1.73686 2.77895,-0.26053 2.34473,-2.34474 3.21318,-2.95262 2.51841,-0.34737 1.8237,0.43421 3.12631,0.0868 -0.14113,134.17105 -800.03739166,-0.003 z"
       id="path2" /></g><g
	id="zona-nubes"
	fill="transparent"
     	stroke="transparent"
     	role="button"
     	tabindex="0"
     	aria-label="Nubes en el cielo, cambiando de forma todo el tiempo"
     	data-zona="Nubes"><path
       d="m 736.4212,16.022278 -12.24473,1.476396 -9.37927,6.20944 -2.34456,3.386873 -1.4764,0.737939 -9.94358,-0.564306 -6.94738,0.998388 -5.64461,2.040703 -3.82096,3.647322 c 0,0 -2.43139,4.776387 -2.51819,4.993494 -0.0869,0.217104 0.26045,5.341006 0.26045,6.252848 0,0.911841 0.69486,3.343221 1.25935,4.168221 0.56446,0.825 1.34602,2.257863 1.91048,3.603915 0.56449,1.346054 -1.21595,1.215946 -1.21595,1.215946 0,0 -4.42903,-0.7379 -4.99349,-0.868164 -0.56449,-0.130263 -5.60121,-0.955497 -5.60121,-0.955497 l -3.16983,-0.651123 -7.38146,1.823661 -4.34237,1.953886 -4.64572,0.651123 -4.16873,-0.781348 h -6.0787 l -4.77645,1.38958 -5.47099,3.560506 c 0,0 -3.56052,2.865405 -3.64732,3.039091 -0.0868,0.173683 -1.78025,2.08411 -1.78025,2.08411 l -6.25285,0.04341 -10.07381,0.564823 -5.38416,2.127519 c 0,0 -4.21158,2.779121 -4.42867,2.909383 -0.21712,0.130262 -1.99721,2.996134 -2.25775,3.21324 -0.26053,0.217104 -2.25826,1.519288 -2.25826,1.519288 l -2.25774,-0.130225 -0.86868,-3.47369 -0.60772,-3.300057 -3.12642,-2.431376 c 0,0 -5.60113,-1.736833 -5.81825,-1.780253 -0.21711,-0.04342 -4.90668,0.564307 -4.90668,0.564307 0,0 -4.60274,2.735647 -4.81986,3.083016 -0.21709,0.347369 -1.73684,3.083015 -1.73684,3.083015 l -3.12591,-0.781864 -4.95009,0.130741 -3.47369,0.998389 -1.82366,1.86707 -0.43408,3.820955 -0.4346,3.647323 c 0,0 -4.03789,-0.217041 -4.38526,-0.217041 -0.34738,0 -4.21215,0.955497 -4.21215,0.955497 l -3.1259,3.647322 -0.65164,4.298446 13.55214,2.315621 20.14141,4.052466 12.64987,2.088244 27.63294,7.245549 24.56284,8.71988 25.79068,10.31617 21.12377,9.82524 19.52749,10.43916 16.45688,10.43915 19.28203,12.77235 19.42465,14.70763 8.51524,-1.10588 8.93434,-1.4428 4.11448,-2.14923 6.9081,-2.30321 4.54443,-0.46044 0.1571,-143.123047 -1.0418,-0.04341 -4.12533,-0.303858 -9.85625,0.738457 -5.68854,3.212723 c 0,0 -3.34343,2.865909 -3.5171,3.083016 -0.1737,0.217103 -1.60662,2.562118 -1.60662,2.562118 0,0 -4.55885,0.434082 -4.73252,0.434082 -0.1737,0 -5.16713,0.347266 -5.16713,0.347266 l -2.43189,0.695048 -3.95118,0.347265 v -2.301668 l 0.26045,-9.03149 -2.73524,-4.863269 -2.64893,-4.602303 -4.77646,-3.083016 -4.38526,-2.387968 z M 14.246159,133.80527 l -5.2193198,0.55242 -4.6364095,2.73265 -4.2064616,2.39469 -0.30695801,0.18448 v 94.41284 l 14.30817091,0.30696 5.710762,5.28082 12.219926,6.38617 17.009298,1.96525 14.737602,0.12248 10.439156,-2.94711 5.772257,-4.91288 4.666899,-5.58777 9.70225,-0.36845 26.098149,1.78077 21.06228,-0.24547 h 17.07079 l 12.15895,-0.7984 15.87707,-15.875 -0.77102,-1.13481 -10.19369,-3.59203 -9.79423,-1.68879 -3.86902,-0.89038 c 0,0 0.36854,-2.45624 0.42995,-2.67116 0.0614,-0.21492 0.092,-4.51342 0.092,-4.51342 l -0.39895,-2.70216 -1.75028,-3.53053 -3.99097,-2.85564 -4.23747,-1.62729 -5.00434,-1.13585 -4.75888,-0.8599 -1.93477,-0.18396 0.61443,-7.67602 -1.22835,-3.807 c 0,0 -2.11839,-5.15852 -2.2412,-5.28134 -0.12281,-0.12281 -5.74177,-4.94285 -5.74177,-4.94285 l -6.57014,-1.47381 -5.74177,-0.49144 -6.81612,1.68879 -5.09685,3.16259 -5.09685,3.46904 -2.57865,-1.04386 -3.070613,-1.22783 -5.280815,-0.092 c 0,0 -1.873095,-0.0309 -1.750281,-0.33796 0.122814,-0.30703 -0.736906,-3.8685 -0.736906,-3.8685 0,0 -1.289506,-2.27239 -1.412317,-2.3952 -0.122815,-0.12282 -3.101102,-2.17971 -3.101102,-2.17971 l -2.179712,-0.98237 0.214974,-3.53105 -1.105359,-2.33319 -3.531051,-1.6583 -2.824633,-0.24546 -0.859896,-0.30696 -1.197343,-1.84227 c 0,0 -1.28938,-1.965 -1.504301,-2.14922 -0.214924,-0.18422 -2.118356,-1.62756 -2.394686,-1.81178 -0.276331,-0.18422 -2.149223,-1.01285 -2.149223,-1.01285 l -2.610176,-0.92139 -4.850867,-1.01286 -4.114478,0.24546 -5.802746,1.53531 -3.377572,1.07435 -5.587773,2.64067 -4.052982,3.0086 -0.767395,0.52193 -2.118734,-10.16269 -1.627291,-3.99149 -3.43855,-4.05246 -4.23695,-2.51768 -3.869015,-1.81177 z m 614.490661,122.11864 -6.68693,1.12862 -2.86546,2.77916 -3.12643,1.99729 -3.73414,3.38687 -1.30276,3.99459 -1.30276,1.73685 -4.77594,-2.5182 h -4.16873 l -4.51549,0.17364 -3.12643,2.17092 -2.69234,2.77916 -0.60771,1.73685 -1.12913,2.95227 -4.34186,-0.95498 -5.5578,-0.0868 -2.34507,1.0418 -2.60501,1.911 -1.82366,3.5605 -2.17145,3.90777 -9.98647,-2.08411 -4.16874,1.9973 -3.38687,2.34456 -2.51819,4.86327 -1.30276,4.68963 -0.86817,5.47099 0.17363,2.69182 -0.43408,1.91048 -3.9951,0.17363 -11.72332,-0.0868 -2.25826,-1.64952 -3.99459,-0.43459 -2.60552,-0.69454 -1.0418,-3.38687 -0.17363,-3.56051 -3.73414,-5.47098 -2.69234,-2.25774 -4.51549,-1.30277 -5.38468,0.0868 h -5.73144 l -4.77645,2.60501 -8.24962,2.43189 -4.16874,1.9973 -4.34186,0.43408 -3.99458,1.56321 -3.12643,2.17093 -1.82366,3.73414 0.0868,2.17144 0.0868,3.29954 -3.12642,0.78186 -7.20783,-0.26044 -4.95009,1.04179 -2.77915,1.91048 -1.73685,2.60553 -0.17363,3.12642 -3.99459,0.26045 -3.64732,0.5209 -3.03961,0.69453 -1.56321,1.82366 -1.21543,3.03961 0.69453,2.86597 1.82366,2.60501 4.16822,0.4346 6.07922,0.78135 69.21334,1.12913 45.15745,-0.78187 0.52142,-1.73684 0.95498,-2.77864 0.52141,-1.04232 65.65233,1.56322 3.12642,0.95498 5.5578,-0.0868 8.77104,-2.08411 4.25556,1.4764 3.29954,1.73684 6.33966,0.86868 6.16603,-0.26097 4.77594,-1.30224 3.56051,-1.73685 8.16332,4.60231 8.85786,2.25826 5.5578,0.26045 9.90017,-0.86868 16.58659,-5.38417 6.42648,-4.86327 1.56321,-4.51549 0.86868,-5.81825 -1.30276,-4.516 c 0,0 -1.73671,-4.16859 -2.25775,-4.68964 -0.52107,-0.52104 -8.16332,-7.38146 -8.16332,-7.38146 l -10.59471,-3.5605 -9.37927,-1.56322 -5.47098,-1.56321 c 0,0 -1.3895,-3.12628 -1.65003,-3.64732 -0.26054,-0.52107 -4.16822,-5.81825 -4.16822,-5.81825 l -5.21054,-0.78187 c 0,0 -3.12641,-1.47625 -3.21324,-1.99729 -0.0868,-0.52107 -10e-6,-1.82345 -0.0868,-2.51819 -0.0869,-0.69472 -1.9973,-6.07922 -1.9973,-6.07922 l -3.21324,-1.99729 -5.90506,-1.21595 -5.9924,-0.60771 -0.86817,-0.34727 -2.95279,-4.34237 -7.72873,-3.64732 -8.16332,-1.9973 -9.11831,-0.60771 z m -503.33672,103.34202 -7.81606,0.17363 -4.25504,1.38958 -4.516,1.91048 -1.12862,2.43137 -3.38687,-0.26045 -5.123718,0.34727 -3.213241,1.73684 -2.865975,4.68964 -2.257743,6.33966 -1.38958,-0.17415 -6.513297,1.04232 -3.734139,0.86816 -3.386873,2.60553 -0.954981,2.77916 -0.695048,4.68912 4.168738,6.77374 6.513297,2.60553 9.899654,0.17363 38.731486,-2.95279 47.67668,-3.30006 0.86816,-1.47639 -0.69453,-2.34456 -3.12642,-2.17093 -6.86057,-1.73684 -4.60282,-0.78187 0.26097,-6.16551 c 0,0 -2.0845,-2.51869 -2.51871,-2.60553 -0.43421,-0.0868 -3.64732,-1.0418 -3.64732,-1.0418 l -6.25233,-0.60823 -0.9555,-0.5209 -1.21595,-2.77915 -2.95227,-1.73685 -3.82148,-1.73684 -5.47098,-0.26045 -2.69182,-0.86817 -2.4319,-1.38958 -2.34456,-3.30005 z m 457.74467,9.37875 -3.21324,1.12913 -1.73685,1.82366 -4.0814,1.0418 -4.08192,0.4346 -3.73414,1.12861 -1.65003,1.38958 -1.0418,3.64732 -0.17363,4.77646 -0.17363,1.12913 c -0.4342,0 -2.86589,-0.0868 -3.21324,-0.0868 -0.34737,0 -4.86327,0.0868 -4.86327,0.0868 l -2.17093,1.65003 -4.42919,3.47368 -3.90777,1.12862 -5.21053,1.82366 -1.04232,1.91048 0.86868,2.95279 5.21054,0.86816 10.42107,0.52142 17.28163,-0.9555 4.34185,1.73685 12.24473,1.73684 10.07381,-2.25774 8.77104,-0.0868 10.0738,-0.26045 5.29735,-0.69505 2.08411,-2.43137 0.43409,-3.38688 -0.95498,-2.17092 -3.99511,-1.4764 -7.55509,-0.69453 -1.56322,-0.26097 -0.0868,-3.90777 -0.69453,-1.65003 -2.77916,-2.17092 -9.55239,-0.43409 -0.78187,-0.34726 -1.12913,-5.55832 -3.47369,-4.16822 -4.77593,-1.21595 z" /></g><g
	id="zona-sol"
	fill="transparent"
     	stroke="transparent"
     	role="button"
     	tabindex="0"
     	aria-label="Sol incandescente que ilumina y calienta todo el día"
     	data-zona="Sol"><path
       d="m 93.154004,116.4885 -4.728394,0.49092 -6.570658,1.84227 -3.43855,1.96525 -4.114477,3.25458 -2.886129,3.68453 -2.149223,3.00861 -1.964738,3.07061 -1.90376,4.11396 -1.965254,4.72839 -0.920874,3.43855 1.350822,0.7984 v 1.48622 l 0.675411,0.14108 2.610176,0.92139 c 0,0 1.872892,0.82863 2.149223,1.01285 0.27633,0.18422 2.179762,1.62756 2.394686,1.81178 0.214921,0.18422 1.504301,2.14922 1.504301,2.14922 l 1.197343,1.84227 0.859896,0.30696 2.824633,0.24546 3.531051,1.6583 1.105359,2.33319 -0.214974,3.53105 2.179712,0.98237 c 0,0 2.978287,2.05689 3.101102,2.17971 0.122811,0.12281 1.412317,2.3952 1.412317,2.3952 0,0 0.85972,3.56147 0.736906,3.8685 -0.122814,0.30706 1.750281,0.33796 1.750281,0.33796 l 5.280815,0.092 3.070613,1.22783 2.57865,1.04386 5.09685,-3.46904 5.09685,-3.16259 6.81612,-1.68879 3.85971,0.33021 0.31574,-0.20722 0.98289,-7.36906 0.30696,-6.26318 v -5.58829 l -0.55294,-4.7284 -1.16634,-4.72787 -2.02675,-4.60592 -1.47381,-3.31556 -2.39468,-3.74603 -2.57917,-2.88613 -3.74551,-3.07009 -3.62304,-2.08825 -5.4653,-2.33319 -4.421432,-0.92139 z" /></g><g
	id="zona-arcoiris"
	fill="transparent"
     	stroke="transparent"
     	role="button"
     	tabindex="0"
     	aria-label="Arcoíris de múltiples colores que adorna el cielo"
     	data-zona="Arcoíris"><path
       d="m 513.1139,87.197262 -26.03665,0.245979 -32.66829,2.210201 -33.4052,4.667416 -27.26449,5.894732 -24.31686,6.87761 -27.01902,10.56215 -45.19517,19.89543 -48.1428,29.22974 -30.45757,22.59758 -24.56285,23.82594 -15.69413,14.34434 -7.51737,7.51634 -0.44338,0.0289 -13.18886,16.42794 -14.00122,18.66759 -18.17615,23.82594 -16.70234,27.75541 -20.387383,38.07261 -10.570414,21.32945 1.836064,-1.41232 3.734139,-0.86816 6.513297,-1.04232 1.38958,0.17415 2.257743,-6.33966 2.865975,-4.68964 3.213241,-1.73684 5.123718,-0.34727 3.38687,0.26045 1.12862,-2.43137 4.516,-1.91048 4.25504,-1.38958 5.64926,-0.12557 0.56224,-0.94465 5.89525,-9.3338 11.29905,-13.26379 8.5969,-11.29905 8.59689,-11.05307 11.78997,-12.03596 15.71998,-15.96543 12.52688,-11.54452 15.96595,-10.56214 16.21141,-12.52689 13.75524,-8.59689 14.00069,-8.10545 20.14141,-10.31668 14.98306,-6.38617 27.75593,-8.5969 27.01851,-4.91236 28.24737,-1.71979 h 17.93069 24.0714 l 25.54521,4.17597 32.42282,9.08834 26.2816,10.56163 27.01903,13.50977 28.00139,19.15852 19.89594,16.70285 1.77664,1.85932 5.11596,0.0801 4.34186,0.95498 1.12913,-2.95227 0.60771,-1.73685 2.69234,-2.77916 3.12643,-2.17092 4.51549,-0.17364 h 4.16873 l 4.77594,2.5182 1.30276,-1.73685 1.30276,-3.99459 3.73414,-3.38687 3.12643,-1.99729 2.86546,-2.77916 6.68693,-1.12862 8.16332,0.34727 9.11831,0.60771 8.16332,1.9973 7.72873,3.64732 2.95279,4.34237 0.86817,0.34727 5.9924,0.60771 5.90506,1.21595 3.21324,1.99729 c 0,0 1.9104,5.3845 1.9973,6.07922 0.0868,0.69474 10e-6,1.99712 0.0868,2.51819 0.0868,0.52104 3.21324,1.99729 3.21324,1.99729 l 5.21054,0.78187 c 0,0 3.90768,5.29718 4.16822,5.81825 0.26053,0.52104 1.65003,3.64732 1.65003,3.64732 l 5.47098,1.56321 9.37927,1.56322 10.59471,3.5605 c 0,0 7.64225,6.86042 8.16332,7.38146 0.52104,0.52105 2.25775,4.68964 2.25775,4.68964 l 1.30276,4.516 -0.86868,5.81825 -1.56321,4.51549 -6.42648,4.86327 -16.58659,5.38417 -9.90017,0.86868 -5.5578,-0.26045 -8.85786,-2.25826 -8.16332,-4.60231 -3.56051,1.73685 -4.77594,1.30224 -6.16603,0.26097 -6.33966,-0.86868 -3.29954,-1.73684 -4.25556,-1.4764 -8.77104,2.08411 -5.5578,0.0868 -3.12642,-0.95498 -0.98496,-0.0233 0.45682,0.47801 9.82473,12.52688 10.31668,14.98307 10.0707,14.98306 11.29854,17.19378 10.80761,20.87832 12.77235,27.75593 7.8605,20.87831 7.12463,22.23275 0.20929,1.19062 37.39306,-0.75654 21.79764,1.91048 10.33374,1.99729 2.77915,-13.19971 1.73685,-1.73684 2.77916,-0.26045 2.34456,-2.34508 3.21324,-2.95227 2.51819,-0.34779 1.82366,0.4346 3.12643,0.0868 -0.0305,29.17806 0.1173,5.2e-4 -0.34726,-285.18931 -4.56355,-4.22093 -10.0707,-7.85999 -18.09244,-15.03784 -0.18655,0.0243 -5.05034,-3.82406 -16.46256,-11.62048 -11.47165,-8.24549 -5.72213,-3.78995 -16.45688,-10.43915 -17.71365,-9.46971 -13.97227,-6.37325 -26.77098,-11.54349 -0.002,-0.001 -7.98298,-3.19309 -23.86314,-8.47131 -4.01578,-1.10795 -0.53123,-0.14934 L 593.18808,98.25085 580.53821,96.162606 560.3968,92.11014 547.58105,89.92061 534.23767,88.180147 Z M 74.62852,386.69216 l -0.449069,0.9064 -8.842871,28.0014 -5.709212,14.01413 1.422652,-1.04852 1.823662,2.4319 1.563212,2.95227 0.347265,2.34508 0.434082,1.04179 12.939779,-0.60771 5.559867,-0.55191 1.514637,-5.59345 9.333797,-19.4045 3.929992,-10.31669 1.098641,-1.84536 -4.85035,0.37 -9.899654,-0.17363 -6.513297,-2.60553 -4.168738,-6.77374 z" /></g><g
     	id="zona-cielo"
	fill="transparent"
     	stroke="transparent"
     	role="button"
     	tabindex="0"
     	aria-label="Cielo despejado"
     	data-zona="Cielo"><path
       d="M 0.13229167,0.13229167 V 139.51603 l 0.0516764,-0.031 4.2064616,-2.39469 4.6364095,-2.73265 5.2193198,-0.55242 6.447668,0.18397 3.869015,1.81177 4.23695,2.51768 3.43855,4.05246 1.627291,3.99149 2.118734,10.16269 0.767395,-0.52193 4.052982,-3.0086 5.587773,-2.64067 3.377572,-1.07435 5.802746,-1.53531 4.114478,-0.24546 4.175456,0.87178 v -1.48622 l -1.350822,-0.7984 0.920874,-3.43855 1.965254,-4.72839 1.90376,-4.11396 1.964738,-3.07061 2.149223,-3.00861 2.886129,-3.68453 4.114477,-3.25458 3.43855,-1.96525 6.570658,-1.84227 4.728394,-0.49092 4.482414,0.12247 4.421432,0.92139 5.4653,2.33319 3.62304,2.08825 3.74551,3.07009 2.57917,2.88613 2.39468,3.74603 1.47381,3.31556 2.02675,4.60592 1.16634,4.72787 0.55294,4.7284 v 5.58829 l -0.30696,6.26318 -0.98289,7.36906 -0.31574,0.20722 1.88206,0.16123 6.57014,1.47381 c 0,0 5.61896,4.82004 5.74177,4.94285 0.12281,0.12282 2.2412,5.28134 2.2412,5.28134 l 1.22835,3.807 -0.61443,7.67602 1.93477,0.18396 4.75888,0.8599 5.00434,1.13585 4.23747,1.62729 3.99097,2.85564 1.75028,3.53053 0.39895,2.70216 c 0,0 -0.0306,4.2985 -0.092,4.51342 -0.0614,0.21492 -0.42995,2.67116 -0.42995,2.67116 l 3.86902,0.89038 9.79423,1.68879 10.19369,3.59203 0.77102,1.13481 -0.30696,0.30696 c 0.0846,0.0367 0.16883,0.0797 0.25218,0.13022 0.0707,0.0429 0.13339,0.0965 0.19379,0.15348 l 7.19542,-6.57634 24.56285,-23.82594 30.45757,-22.59758 48.1428,-29.22974 45.19517,-19.89543 27.01902,-10.56215 24.31686,-6.87761 27.26449,-5.894732 33.4052,-4.667416 32.66829,-2.210201 26.03665,-0.245979 21.12377,0.982885 13.34338,1.740463 -0.73639,-0.126091 0.65164,-4.298446 3.1259,-3.647322 c 0,0 3.86477,-0.955497 4.21215,-0.955497 0.34737,0 4.38526,0.217041 4.38526,0.217041 l 0.4346,-3.647323 0.43408,-3.820955 1.82366,-1.86707 3.47369,-0.998389 4.95009,-0.130741 3.12591,0.781864 c 0,0 1.51975,-2.735646 1.73684,-3.083015 0.21712,-0.347369 4.81986,-3.083016 4.81986,-3.083016 0,0 4.68957,-0.607727 4.90668,-0.564307 0.21712,0.04342 5.81825,1.780253 5.81825,1.780253 l 3.12642,2.431376 0.60772,3.300057 0.86868,3.47369 2.25774,0.130225 c 0,0 1.99773,-1.302184 2.25826,-1.519288 0.26054,-0.217106 2.04063,-3.082978 2.25775,-3.21324 0.21709,-0.130262 4.42867,-2.909383 4.42867,-2.909383 l 5.38416,-2.127519 10.07381,-0.564823 6.25285,-0.04341 c 0,0 1.69345,-1.910427 1.78025,-2.08411 0.0868,-0.173686 3.64732,-3.039091 3.64732,-3.039091 l 5.47099,-3.560506 4.77645,-1.38958 h 6.0787 l 4.16873,0.781348 4.64572,-0.651123 4.34237,-1.953886 7.38146,-1.823661 3.16983,0.651123 c 0,0 5.03672,0.825234 5.60121,0.955497 0.56446,0.130264 4.99349,0.868164 4.99349,0.868164 0,0 1.78044,0.130108 1.21595,-1.215946 -0.56446,-1.346052 -1.34602,-2.778915 -1.91048,-3.603915 -0.56449,-0.825 -1.25935,-3.25638 -1.25935,-4.168221 0,-0.911842 -0.34735,-6.035744 -0.26045,-6.252848 0.0868,-0.217107 2.51819,-4.993494 2.51819,-4.993494 l 3.82096,-3.647322 5.64461,-2.040703 6.94738,-0.998388 9.94358,0.564306 1.4764,-0.737939 2.34456,-3.386873 9.37927,-6.20944 12.24473,-1.476396 7.33805,0.912089 4.38526,2.387968 4.77646,3.083016 2.64893,4.602303 2.73524,4.863269 -0.26045,9.03149 v 2.301668 l 3.95118,-0.347265 2.43189,-0.695048 c 0,0 4.99343,-0.347266 5.16713,-0.347266 0.17367,0 4.73252,-0.434082 4.73252,-0.434082 0,0 1.43292,-2.345015 1.60662,-2.562118 0.17367,-0.217107 3.5171,-3.083016 3.5171,-3.083016 l 5.68854,-3.212723 9.85625,-0.738457 4.12533,0.303858 1.0418,0.04341 -0.1571,143.123048 -4.54443,0.46044 -6.9081,2.30321 -4.11448,2.14923 -8.93434,1.4428 -8.32869,1.08159 18.09244,15.03784 10.0707,7.85999 4.56355,4.22093 0.34726,285.18931 -0.1173,-5.2e-4 -0.0584,55.36458 h 2.05827 V 0.13229167 Z M 376.30003,202.15045 l -28.24737,1.71979 -27.01851,4.91236 -27.75593,8.5969 -14.98306,6.38617 -20.14141,10.31668 -14.00069,8.10545 -13.75524,8.59689 -16.21141,12.52689 -15.96595,10.56214 -12.52688,11.54452 -15.71998,15.96543 -11.78997,12.03596 -8.59689,11.05307 -8.5969,11.29905 -11.29905,13.26379 -5.89525,9.3338 -0.56224,0.94465 2.1668,-0.0481 7.29464,2.34456 2.34456,3.30005 2.4319,1.38958 2.69182,0.86817 5.47098,0.26045 3.82148,1.73684 2.95227,1.73685 1.21595,2.77915 0.9555,0.5209 6.25233,0.60823 c 0,0 3.21311,0.955 3.64732,1.0418 0.43421,0.0868 2.51871,2.60553 2.51871,2.60553 l -0.26097,6.16551 4.60282,0.78187 6.86057,1.73684 3.12642,2.17093 0.69453,2.34456 -0.86816,1.47639 -47.67668,3.30006 -33.881136,2.58279 -1.098641,1.84536 -3.929992,10.31669 -9.333797,19.4045 -1.514637,5.59345 6.684864,-0.66404 49.326189,0.26045 35.77921,3.03961 31.00224,4.08192 35.6924,6.25233 32.13137,8.25014 38.21059,13.37386 32.7396,13.37335 24.83673,11.02878 14.76292,5.90559 2.21485,-6.5133 1.4764,-4.81986 3.73414,-2.82205 1.60662,-0.82528 4.99297,-3.30005 8.33696,-0.21704 4.12533,0.26045 2.60501,1.21594 c 0,0 2.95278,2.4318 3.03961,2.69234 0.0868,0.26051 7.81554,6.55619 7.81554,6.55619 l 2.77916,1.12913 2.12752,0.99891 2.30115,3.86436 0.13074,3.82096 0.0863,2.30115 1.78026,0.26097 1.69343,-1.78077 1.65003,-2.64842 4.03851,-1.21595 2.43138,-0.60771 0.73846,-2.08411 3.86436,-3.64733 4.81934,0.78135 3.86488,0.0434 3.38688,0.56431 c 0,0 1.86696,1.91089 2.21433,2.25826 0.34735,0.34737 4.038,2.86545 4.038,2.86545 l 3.38687,1.9973 c 0,0 0.52139,1.65045 0.65164,1.9544 0.13026,0.30396 0.95498,2.5616 0.95498,2.5616 l 3.43028,0.30386 2.04071,-0.91157 c 0,0 0.5214,-3.03956 0.56482,-3.25665 0.0434,-0.21712 0.86809,-2.25816 1.08521,-2.60553 0.21709,-0.34738 1.78025,-2.38797 1.78025,-2.38797 l 2.17093,-1.78025 c 0,0 1.04223,-0.0433 1.25935,-0.13022 0.21712,-0.0868 2.34508,-0.82528 2.34508,-0.82528 l 1.6061,-3.47369 1.38958,-2.47478 1.73684,-0.86816 2.38849,1.04179 0.0868,-1.78025 2.95227,-5.86166 2.95279,-1.73684 3.34347,-0.52142 1.60662,-1.43247 1.25883,-2.9962 2.47531,-1.12913 2.25774,-0.0434 5.81877,0.34727 1.56269,-0.30386 3.16983,1.43299 2.34508,1.69344 c 0,0 2.60496,1.43296 2.82205,1.5198 0.21712,0.0868 2.56212,0.82476 2.56212,0.82476 0,0 1.08517,2.43178 1.25884,2.77915 0.1737,0.34737 1.34605,2.56198 1.73684,3.08302 0.39079,0.52104 2.38844,1.73683 2.56212,1.78025 0.17369,0.0434 4.25503,0.91158 4.25503,0.91158 l 1.34618,-0.17364 2.64893,-0.95498 3.43028,-0.478 c 0,0 0.99831,1.78067 1.21543,2.04121 0.21709,0.26053 3.77751,1.21534 3.90777,1.47588 0.13025,0.26051 1.56364,1.7807 1.86759,1.99781 0.30393,0.2171 2.73523,1.30225 2.73523,1.30225 l 2.30115,1.60662 2.25826,1.73685 c 0,0 0.73791,1.3895 0.86817,1.60662 0.13028,0.21709 3.16983,1.25935 3.16983,1.25935 0,0 0.86866,0.26039 0.9555,0.5209 0.0868,0.26053 0.91157,2.60552 0.91157,2.60552 l 1.34617,3.73414 1.30276,0.73794 4.86276,-0.26045 31.48025,-5.21053 28.87524,-5.60121 25.31421,-5.38417 16.93437,-3.08301 30.61208,-4.34237 3.37913,-0.0682 -0.20929,-1.19062 -7.12463,-22.23275 -7.8605,-20.87831 -12.77235,-27.75593 -10.80761,-20.87832 -11.29854,-17.19378 -10.0707,-14.98306 -10.31668,-14.98307 -9.82473,-12.52688 -0.45682,-0.47801 -64.66737,-1.53996 -0.52141,1.04232 -0.95498,2.77864 -0.52142,1.73684 -45.15745,0.78187 -69.21334,-1.12913 -6.07922,-0.78135 -4.16822,-0.4346 -1.82366,-2.60501 -0.69453,-2.86597 1.21543,-3.03961 1.56321,-1.82366 3.03961,-0.69453 3.64732,-0.5209 3.99459,-0.26045 0.17363,-3.12642 1.73685,-2.60553 2.77915,-1.91048 4.95009,-1.04179 7.20783,0.26044 3.12642,-0.78186 -0.0868,-3.29954 -0.0868,-2.17144 1.82366,-3.73414 3.12643,-2.17093 3.99458,-1.56321 4.34186,-0.43408 4.16874,-1.9973 8.24962,-2.43189 4.77645,-2.60501 h 5.73144 l 5.38468,-0.0868 4.51549,1.30277 2.69234,2.25774 3.73414,5.47098 0.17363,3.56051 1.0418,3.38687 2.60552,0.69454 3.99459,0.43459 2.25826,1.64952 11.72332,0.0868 3.9951,-0.17363 0.43408,-1.91048 -0.17363,-2.69182 0.86817,-5.47099 1.30276,-4.68963 2.51819,-4.86327 3.38687,-2.34456 4.16874,-1.9973 9.98647,2.08411 2.17145,-3.90777 1.82366,-3.5605 2.60501,-1.911 2.34507,-1.0418 0.44184,0.007 -1.77664,-1.85932 -19.89594,-16.70286 -28.00139,-19.15852 -27.01903,-13.50977 -26.2816,-10.56162 -32.42282,-9.08834 -25.54521,-4.17597 h -24.0714 z M 0.13229167,234.08804 V 413.88947 H 1.8236613 l 2.1709269,-0.60772 1.8236613,-1.21595 1.9104777,0.60772 2.6923418,1.21595 5.644617,3.38687 c 0,0 3.386822,1.73665 3.560506,2.34456 0.173684,0.60788 2.779159,4.516 2.779159,4.516 0,0 3.820825,1.56321 4.255037,1.56321 0.43421,0 2.345077,-3.82095 2.345077,-3.82095 l 1.563212,-3.03961 c 0,0 1.302581,-0.60771 1.910477,-0.60771 0.607893,0 4.77635,-5e-4 5.123719,0.0863 0.347366,0.0869 4.168221,-1.30225 4.168221,-1.30225 0,0 0.694917,-0.26066 1.12913,0.43408 0.43421,0.69474 2.605009,2.17093 2.605009,2.17093 l 3.560506,1.12913 c 0,0 1.91035,0.69444 2.34456,0.95498 0.434213,0.26053 3.560506,3.64784 3.560506,3.64784 l 4.429187,4.42867 0.227376,-0.16743 5.709212,-14.01413 8.842871,-28.0014 0.449069,-0.9064 0.229443,-1.54719 0.954981,-2.77916 1.550809,-1.19321 10.570414,-21.32945 20.387383,-38.07261 16.70234,-27.75541 18.17615,-23.82594 14.00122,-18.66759 13.18886,-16.42794 -11.71557,0.76946 h -17.07079 l -21.06228,0.24547 -26.098149,-1.78077 -9.70225,0.36845 -4.666899,5.58777 -5.772257,4.91288 -10.439156,2.94711 -14.737602,-0.12248 -17.009298,-1.96525 -12.219926,-6.38617 -5.710762,-5.28082 z M 583.14477,368.64468 l 5.0369,0.17363 4.77593,1.21595 3.47369,4.16822 1.12913,5.55832 0.78187,0.34726 9.55239,0.43409 2.77916,2.17092 0.69453,1.65003 0.0868,3.90777 1.56322,0.26097 7.55509,0.69453 3.99511,1.4764 0.95498,2.17092 -0.43409,3.38688 -2.08411,2.43137 -5.29735,0.69505 -10.0738,0.26045 -8.77104,0.0868 -10.07381,2.25774 -12.24473,-1.73684 -4.34185,-1.73685 -17.28163,0.9555 -10.42107,-0.52142 -5.21054,-0.86816 -0.86868,-2.95279 1.04232,-1.91048 5.21053,-1.82366 3.90777,-1.12862 4.42919,-3.47368 2.17093,-1.65003 c 0,0 4.5159,-0.0868 4.86327,-0.0868 0.34735,0 2.77904,0.0868 3.21324,0.0868 l 0.17363,-1.12913 0.17363,-4.77646 1.0418,-3.64732 1.65003,-1.38958 3.73414,-1.12861 4.08192,-0.4346 4.0814,-1.0418 1.73685,-1.82366 z" /></g></svg>
