<?xml version="1.0" encoding="UTF-8" standalone="no"?>
<!-- Created with Inkscape (http://www.inkscape.org/) -->

<svg
   width="800.31628mm"
   height="602.80731mm"
   viewBox="0 0 800.31628 602.80731"
   version="1.1"
   id="svg1"
   xml:space="preserve"
   xmlns="http://www.w3.org/2000/svg"
   xmlns:svg="http://www.w3.org/2000/svg"><defs
     id="defs1" />
<g
     	id="zona-cielo"
	fill="transparent"
     	stroke="transparent"
     	role="button"
     	tabindex="0"
     	aria-label="Cielo despejado sin perturbaciones"
     	data-zona="Cielo"><path
       d="M 0.18298261,0.36596523 V 131.74748 l 19.76212239,-19.9451 11.161939,-9.97256 -0.182981,-2.927717 1.921317,2.012807 12.351327,-9.789567 8.691673,-11.16194 4.94053,-7.502287 8.783167,-10.247026 20.860017,-20.86002 1.006406,-0.548947 49.31381,44.09881 8.60019,4.300091 8.87465,3.842636 14.27265,11.5279 13.17474,-9.606583 24.42818,-16.74291 5.76396,-8.4172 -4.57457,1.463863 -3.65965,-0.731933 6.67886,-5.763951 4.75755,-8.600183 4.11711,-10.247026 1.92132,-17.749314 1.82982,0.64044 3.29369,4.757547 3.29369,8.691673 4.30009,7.136324 1.0064,1.646843 0.64044,6.3129 -0.36596,0.82342 26.07502,-17.200364 12.25984,9.972551 3.1107,-17.749313 2.56175,-7.227813 6.03843,-7.136322 1.28087,-4.574565 1.37237,-3.019213 3.93414,-5.4894787 6.12992,-2.5617566 4.84905,1.9213176 3.20217,3.4766697 4.11713,1.829826 5.1235,5.672461 5.12352,2.927722 3.29369,3.659652 5.30648,-2.1043 12.53432,3.202196 5.94694,1.921317 9.69806,7.319306 6.67888,5.946934 14.36412,-0.365967 -0.64042,-22.049403 -2.65325,-6.038427 0.0915,-6.3129 1.9213,-3.93412607 h 94.87648 l -0.45744,2.92772177 -2.1958,3.3851783 -2.83623,2.1043003 -2.28729,2.4702647 -4.11711,2.836231 -6.67885,1.006404 -7.59378,-4.300091 -1.09791,-0.914913 -0.9149,1.006404 -1.82983,1.280879 -3.2022,0.274473 -2.56175,-0.457456 -0.64045,0.914913 -1.18938,1.097896 -2.0128,1.006404 -0.64045,0.823422 -0.45746,1.921317 -0.36595,1.738335 -1.09791,1.921318 -2.10429,1.555352 -4.20862,1.372369 -4.20859,-0.548947 -2.19578,-1.463861 -2.10431,-1.646844 -1.09789,-0.457456 -0.18298,-0.457457 -1.09789,0.640439 -1.55535,0.640439 -2.19581,0.09149 -1.82983,0.823421 -1.73831,0.731931 -0.45747,1.097896 -1.46386,30.649588 5.94694,2.287283 3.01921,1.829826 3.29369,2.012808 2.47026,1.738336 1.00639,0.274473 26.07503,-17.108873 1.0064,-0.182983 32.75391,20.951509 10.33851,-7.227813 49.77128,31.473007 88.92955,-60.658736 5.48947,-2.83623 3.2022,-0.274474 7.41079,1.46386 14.18116,5.58097 -2.28729,-6.3129 7.41079,4.391583 3.01921,-15.645013 3.84265,15.46203 7.13632,-4.757547 -4.02564,10.978957 8.05125,3.934127 -5.03203,2.287283 122.0494,84.354982 V 0.18298261 Z" /></g>
<g
     	id="zona-montañas"
	fill="transparent"
     	stroke="transparent"
     	role="button"
     	tabindex="0"
     	aria-label="Montañas de fondo, cubiertas de nieve en la cima"
     	data-zona="Montañas"><path

       d="m 0.27447393,131.83897 -0.18298262,60.84172 2.56175669,-0.27447 4.2086,-5.3065 1.6468437,-3.1107 -1.3723697,-2.47027 1.829826,-2.19579 1.738335,-2.1043 0.548948,-1.64684 -2.012809,-0.0915 -4.2086,0.45745 -0.548948,-0.27447 3.3851784,-3.1107 1.8298263,-1.64685 -0.4574567,-0.73193 3.019213,-5.03202 2.653248,-3.93413 2.195791,-3.84263 1.829827,-4.2086 1.372369,-3.11071 1.646844,-4.48307 1.097895,-4.11711 0.365966,-2.37877 -1.189387,0.18298 -4.2086,0.0915 -0.823422,-1.09789 4.666056,-3.2022 2.470266,-4.84904 2.287282,-4.57457 2.195793,-6.95333 1.921317,-5.58097 0.09149,-5.39799 1.006404,-4.84904 0.548949,-0.91491 1.921317,6.95334 4.30009,11.80237 2.65325,6.95334 2.561757,3.93413 -1.006404,0.36597 3.019211,2.83623 1.829826,0.18298 0.09149,1.09789 -2.378773,2.65325 1.738333,0.27448 -3.659653,3.01921 0.914914,3.29369 2.83623,2.65324 1.921319,1.37237 -1.37237,1.28088 -2.378773,2.65325 H 44.1903 l 0.54895,1.64684 0.82342,1.18939 1.555353,-0.73193 4.11711,3.1107 1.006404,1.28088 0.548947,1.64685 4.757549,0.54894 1.646844,-8.96614 3.202193,4.30009 7.136323,6.40439 2.470267,2.01281 3.019213,0.45745 -1.646843,2.28729 0.457454,1.18938 -2.287281,2.74474 2.287281,1.00641 -0.823421,1.28088 1.37237,1.28087 -0.182983,0.73193 0.73193,1.82983 7.59378,4.39158 -0.457457,1.37237 1.829827,0.73193 2.83623,-0.73193 -0.823423,4.66606 6.038426,-4.30009 -4.391583,-2.47027 3.659653,-2.28728 -1.46386,-1.28088 2.378774,-3.75114 1.097896,-2.74474 -0.457457,-2.19579 -0.73193,-2.83623 -1.37237,-1.0979 -0.548949,-1.82982 4.574566,-1.0979 3.293687,-4.48307 -1.006403,-0.54895 4.574563,-16.65142 5.3065,11.98536 4.75754,7.13632 3.29369,4.30009 -0.36596,1.46387 0.82342,2.1043 3.20219,3.20219 3.29369,2.19579 2.56176,-1.46386 1.09789,-3.1107 1.18939,-3.47667 c 0,0 1.0064,-2.65325 1.18939,-3.01922 0.18298,-0.36596 1.0064,-2.56175 1.0064,-2.56175 l -0.27447,-1.00641 3.47667,-6.67886 5.30649,-16.10247 6.4044,14.45562 4.75754,-11.25343 -2.92772,0.91492 -4.02562,-0.82343 4.2086,-3.65965 3.29369,-5.03202 4.30009,-12.07685 2.56176,-11.89387 0.0915,-5.94694 2.37877,4.57457 3.01922,12.44282 8.23421,16.46843 2.01281,-4.66605 2.83623,-20.31108 7.68527,13.17475 2.1043,1.28088 9.42361,-9.14913 0.27447,-1.73833 4.75755,-5.94694 -4.94053,0.45746 -4.11711,-1.55535 5.85544,-2.92773 -0.0915,-1.46386 10.88747,-15.46203 1.28088,-6.861847 -0.64044,-0.274473 -36.59652,25.89204 -14.54712,-11.80238 -13.17475,-5.397987 -4.39158,-2.92772 -49.039343,-43.915829 -3.202197,3.202196 -13.632204,13.26624 -9.881062,10.978957 -3.568161,4.117109 -5.58097,8.325708 -8.325709,10.338519 -11.16194,9.240617 -11.070447,8.78317 z"
        /><path

       d="m 236.23056,60.10979 2.56175,3.65965 -1.0064,0.365967 5.58097,1.738333 -0.45746,1.738337 -1.82983,1.738333 -0.64043,1.646844 -1.00641,1.280879 -3.75114,1.46386 1.0064,1.37237 2.83623,0.73193 2.19579,1.829827 1.82983,3.019213 2.92772,3.751144 0.45746,4.391583 1.82982,2.287283 0.73193,1.372367 4.75755,1.28088 1.46386,-1.006404 3.93413,-14.455626 5.76396,-10.887467 5.76395,-8.691673 3.93412,-6.86185 0.45746,-0.73193 -12.35133,-9.78957 -27.63037,17.566333 z"
        /><path

       d="m 421.28813,62.623911 26.65399,-17.5968 32.86461,21.478449 10.8686,-7.245741 48.90876,31.053177 93.67711,-63.141463 5.95185,-0.517554 20.44335,7.504517 1.29386,3.881649 -7.5045,3.364095 7.5045,3.105317 -4.14041,11.386166 7.50451,-5.434306 1.03511,7.245742 -1.03511,2.846541 -3.88165,-0.77633 -4.65796,9.574731 -2.84655,5.95186 -2.0702,3.622871 -8.28085,9.057177 -4.91675,8.539623 -1.55266,6.469418 v 4.91675 l 0.77632,2.32899 5.4343,1.29388 v 0.77633 l 8.02209,-0.77633 h 0.77631 l -2.84655,3.36409 -9.05716,0.51756 -5.95185,3.36409 -1.03511,3.62287 -3.10533,4.91676 -2.84655,7.50451 -1.81142,3.10532 -1.81144,1.03511 -1.29389,1.0351 12.68005,2.58777 -1.29387,1.81143 11.12737,-2.32898 -5.17551,4.91675 6.21064,-0.77633 6.21062,-4.3992 -4.14041,6.72819 -2.58776,0.77633 -3.3641,4.14042 -7.50453,3.62287 -2.84655,0.51756 -1.55265,4.65797 -1.81142,-3.10531 2.32897,-4.14043 0.77634,-2.32899 -4.91675,-2.58776 -3.62289,-3.10532 -1.29386,-1.29388 2.32899,-2.84655 -3.3641,-1.0351 -3.62288,-4.14042 v -2.07022 l -4.3992,-7.76329 -4.91676,15.52659 -0.51755,2.58776 -3.3641,3.3641 -2.58191,1.87535 1.55536,2.33302 v 1.05215 l -1.09792,0.54895 0.64045,1.41812 -1.5096,1.23513 -1.78409,2.15005 0.96065,0.5032 -1.41811,2.6075 -3.88837,1.50961 1.18938,1.92131 0.73194,1.14365 0.0915,1.0064 0.82341,0.5032 -1.00639,1.64685 -0.91493,1.05215 -5.31241,-2.90432 -1.74675,-0.97041 -2.45838,-10.86862 -2.39368,-7.31043 -1.35859,0.64694 -0.45283,2.1349 -1.29389,4.07573 -2.45838,-0.32347 -3.42879,-2.39368 -0.58224,-1.94082 -1.16451,-2.32899 -0.97041,-1.94082 -2.91124,-2.58777 -3.10531,-4.59328 -0.71162,-1.87613 -1.29389,8.92779 -3.68758,14.2327 -1.94082,-0.19408 -0.97042,-2.97593 -3.88165,-9.12187 -6.53409,-20.70212 -1.42328,9.44534 -2.26427,10.48045 -1.61738,4.33451 -20.37863,-15.78537 -3.55819,-5.24022 -4.98145,-4.4639 -5.30492,-6.14594 -4.14041,-2.13491 -2.52307,-2.78184 -2.78185,-4.91676 -2.84655,-2.1996 -2.97593,-2.58776 -4.20512,-6.01655 -3.81694,-7.439828 -4.78737,-4.852062 -7.95737,-2.975927 -5.56371,-1.358577 -7.5692,-4.269812 -15.97946,-7.50452 -9.25126,-6.340025 -5.82247,-2.005518 z"
        /><path

       d="m 677.2181,44.768333 20.76908,13.054174 35.13267,24.245196 66.97162,46.477587 0.18299,71.18023 -2.10429,-2.65324 0.0915,-1.46387 -3.84264,-3.29368 2.74473,-2.19579 0.27448,-2.19579 -5.76395,-3.01922 -0.54896,-2.1043 0.64045,-25.52607 -2.01281,-7.22782 -2.19578,-7.86825 -2.83623,7.59378 -4.66606,8.23422 -4.75755,5.30649 -2.1958,-5.30649 1.09791,0.45745 -2.47028,-10.61299 -2.28727,-15.09606 -1.28088,1.55535 -2.83622,5.12351 -4.02564,3.93413 0.27448,2.1043 -1.46386,1.46386 -1.00639,1.55535 -1.82984,-2.1043 -1.92132,-10.06404 -1.55535,2.83623 -6.95333,12.44282 -4.30009,-1.18939 -3.11071,-3.38518 -1.09791,-2.37877 1.55535,-1.82983 -0.82341,-0.73193 -3.2022,-1.0064 -1.55535,-1.64685 -0.9149,-1.82982 0.82341,-1.46386 -5.1235,-7.68527 -0.73195,0.91491 -5.03203,11.5279 -0.36594,2.83623 -0.91493,3.11071 -4.94051,3.56816 1.18938,1.82983 0.64042,1.09789 -0.82341,1.0979 -0.18298,1.82982 -2.01282,2.47027 v 1.64684 l -2.47026,2.47027 -3.01921,-2.56176 -4.30009,-2.92772 -4.57456,-4.30009 -2.47026,-4.39159 3.75113,-1.18938 10.88747,-5.58097 -0.54895,-1.64685 2.28729,-1.82982 -3.1107,-2.56176 -0.36598,-3.56816 -2.28727,-6.95334 -4.75755,-3.47667 -7.04485,-2.47026 -5.30648,-2.74474 -1.73834,-0.45746 1.09789,-2.19579 5.48949,-2.65325 3.56815,-3.84263 0.64045,-2.56176 2.65324,-4.2086 2.47026,-3.842636 -5.76395,-0.457457 -2.01279,-2.653247 -1.92133,-13.99817 -3.38518,-4.757547 -4.2086,-3.47667 -6.49589,-2.74474 -3.84262,-2.83623 -2.74474,-0.823423 -5.76397,-10.978957 0.54896,-3.476669 2.37879,1.097896 5.39797,4.30009 -4.20859,-10.978956 z"
        /></g>
<g
     	id="zona-cabaña"
	fill="transparent"
     	stroke="transparent"
     	role="button"
     	tabindex="0"
     	aria-label="Cabaña cubierta de nueve encima, con una chimenea por donde sale mucho humo"
     	data-zona="Cabaña"><path
       d="m 230.00915,205.85544 2.92772,6.77036 4.2086,3.47667 2.74474,0.18298 2.74474,3.29369 1.64684,1.09789 4.02562,-0.54894 2.01281,-6.58738 3.1107,1.64684 1.64684,1.46387 -1.09789,5.48947 v 5.12352 l 0.91491,4.39158 0.73193,2.92772 0.36597,8.05124 0.73193,1.09789 -1.46386,4.02562 -0.54895,4.2086 2.01281,5.12351 0.91491,2.19579 -0.54895,5.30649 0.73193,2.74474 -1.46386,4.02563 -0.54895,5.1235 2.01281,4.20862 -1.46386,4.57454 -0.18298,5.30651 1.28088,2.01282 -1.64685,4.2086 1.0979,9.14913 -2.37877,3.84262 -1.64685,5.67246 3.84264,10.06406 -3.84264,0.9149 -1.64684,6.95336 0.54895,6.40437 0.73193,2.01282 -2.37878,6.77034 -0.36596,5.12352 0.36596,2.92772 13.35773,-6.58738 5.85545,-2.37876 6.4044,1.64684 9.33211,2.01282 7.31931,2.37876 c 0,0 5.85544,2.01282 6.77034,2.01282 0.91493,0 4.75755,0.36595 4.75755,0.36595 l 9.33212,-1.46386 12.62578,0.73194 6.95336,1.82983 16.65142,-3.47668 9.69806,1.09789 10.24705,3.29369 9.51508,4.57457 8.41721,2.74474 8.05122,-5.48947 8.78316,-4.39158 8.78319,-0.18299 7.50229,3.65964 6.40437,2.37879 5.67248,-4.94054 7.68527,-4.94054 7.13632,-2.19578 3.1107,-4.75755 5.1235,-2.56175 5.30651,-0.91493 4.39158,1.2809 4.94054,3.11068 5.85544,2.92775 4.75755,2.37876 4.39158,0.91491 24.70264,-4.02561 19.94511,-3.47668 11.5279,-3.65964 3.84265,0.18299 8.96615,-8.6002 2.92772,-1.28088 -3.2937,-4.02561 0.91491,-8.41721 -2.37877,-4.75753 0.18299,-6.4044 -2.1958,-7.3193 1.46386,-5.67245 -2.37877,-5.67248 1.46386,-4.94052 -0.54895,-5.30651 -1.64685,-2.37876 2.37879,-3.84265 -0.73194,-4.57456 -1.09789,-5.30649 1.28087,-3.65966 -0.73192,-6.03842 -0.54895,-1.82983 2.01282,-4.39158 7.13631,-1.64684 2.01282,0.73193 1.8298,1.09789 4.57457,-7.86825 2.92772,-3.29369 2.1958,0.18298 3.2937,-2.74473 h 2.92772 l 1.64684,-0.36597 2.01279,-11.5279 -1.09789,-10.97896 -5.12349,-12.99177 -2.92775,-4.39158 -4.39158,-3.65965 -6.58736,-8.23422 -5.85544,-6.95334 -14.82159,-21.043 -20.49407,-14.82159 -4.20859,-7.13632 -6.77037,-6.03843 -2.19578,-2.74474 -6.4044,-4.39158 -3.1107,-6.40439 -11.16193,-10.79598 -1.46386,-4.025614 -3.84265,-5.123513 -3.84262,-3.293689 -10.24702,-3.659651 -6.58738,-2.378773 -10.97897,-5.123514 -13.35773,-7.502289 -4.75755,-3.293687 -9.69806,-2.744737 -6.03843,-3.110706 -11.34493,-5.855444 2.92772,-31.290026 3.69358,-2.170707 2.19959,-0.129389 2.45837,-0.776329 2.71717,1.358576 1.61734,1.55266 4.01103,1.42327 h 1.29389 l 3.75227,-1.358576 2.32897,-1.811436 0.90572,-1.746741 0.25879,-2.070212 0.51755,-2.523071 1.87614,-0.258777 1.68203,-1.552658 0.84103,-0.970412 3.81696,0.388164 2.39369,-0.452859 2.45837,-2.2642939 1.74673,1.1644939 6.98696,4.399201 7.05167,-0.711636 4.59327,-3.493482 2.52307,-2.7171533 2.329,-1.6173532 2.0702,-3.2347061 0.38817,-2.78184741 -95.10035,-0.19408238 -2.00551,4.26981219 v 2.7171533 l 0.19407,3.8169529 2.52306,5.499001 0.58225,22.319472 -14.55616,-0.194083 -15.7207,-12.874129 -18.95535,-5.304919 -5.56372,2.005518 -3.42878,-4.07573 -5.11083,-2.652459 -6.14595,-5.8871649 -6.85758,-4.9167534 -4.14041,-1.5526591 -5.49899,2.1349062 -1.87614,2.4583766 -2.84654,3.4934826 -0.38817,2.134906 -1.22918,1.940824 -0.1941,3.105318 -2.0702,1.876129 -4.46389,5.822472 -1.48797,3.687564 -1.29389,5.563695 -1.35858,5.887164 -1.29387,9.83351 -3.23471,5.304917 -2.52307,3.75226 -4.85206,7.56921 -5.43431,10.415754 -4.14042,14.879651 -2.84654,21.866618 -0.64694,3.68756 -5.82248,14.94434 -1.16449,5.88717 -0.38816,7.56921 -3.2994,4.85206 -3.88165,10.86861 -2.13491,6.6635 -1.81143,8.99248 -3.62287,19.60232 z"
/></g></svg>
