<?xml version="1.0" encoding="UTF-8" standalone="no"?>
<!-- Created with Inkscape (http://www.inkscape.org/) -->

<svg
   width="800.31628mm"
   height="602.80731mm"
   viewBox="0 0 800.31628 602.80731"
   version="1.1"
   id="svg1"
   xml:space="preserve"
   xmlns="http://www.w3.org/2000/svg"
   xmlns:svg="http://www.w3.org/2000/svg"><defs
     id="defs1" /><g
     	id="zona-cielo"
	fill="transparent"
     	stroke="transparent"
     	role="button"
     	tabindex="0"
     	aria-label="Cielo despejado sin perturbaciones"
     	data-zona="Cielo"><path
       d="M 0.18298261,0.36596523 V 131.74748 l 19.76212239,-19.9451 11.161939,-9.97256 -0.182981,-2.927717 1.921317,2.012807 12.351327,-9.789567 8.691673,-11.16194 4.94053,-7.502287 8.783167,-10.247026 20.860017,-20.86002 1.006406,-0.548947 49.31381,44.09881 8.60019,4.300091 8.87465,3.842636 14.27265,11.5279 13.17474,-9.606583 24.42818,-16.74291 5.76396,-8.4172 -4.57457,1.463863 -3.65965,-0.731933 6.67886,-5.763951 4.75755,-8.600183 4.11711,-10.247026 1.92132,-17.749314 1.82982,0.64044 3.29369,4.757547 3.29369,8.691673 4.30009,7.136324 1.0064,1.646843 0.64044,6.3129 -0.36596,0.82342 26.07502,-17.200364 12.25984,9.972551 3.1107,-17.749313 2.56175,-7.227813 6.03843,-7.136322 1.28087,-4.574565 1.37237,-3.019213 3.93414,-5.4894787 6.12992,-2.5617566 4.84905,1.9213176 3.20217,3.4766697 4.11713,1.829826 5.1235,5.672461 5.12352,2.927722 3.29369,3.659652 5.30648,-2.1043 12.53432,3.202196 5.94694,1.921317 9.69806,7.319306 6.67888,5.946934 14.36412,-0.365967 -0.64042,-22.049403 -2.65325,-6.038427 0.0915,-6.3129 1.9213,-3.93412607 h 94.87648 l -0.45744,2.92772177 -2.1958,3.3851783 -2.83623,2.1043003 -2.28729,2.4702647 -4.11711,2.836231 -6.67885,1.006404 -7.59378,-4.300091 -1.09791,-0.914913 -0.9149,1.006404 -1.82983,1.280879 -3.2022,0.274473 -2.56175,-0.457456 -0.64045,0.914913 -1.18938,1.097896 -2.0128,1.006404 -0.64045,0.823422 -0.45746,1.921317 -0.36595,1.738335 -1.09791,1.921318 -2.10429,1.555352 -4.20862,1.372369 -4.20859,-0.548947 -2.19578,-1.463861 -2.10431,-1.646844 -1.09789,-0.457456 -0.18298,-0.457457 -1.09789,0.640439 -1.55535,0.640439 -2.19581,0.09149 -1.82983,0.823421 -1.73831,0.731931 -0.45747,1.097896 -1.46386,30.649588 5.94694,2.287283 3.01921,1.829826 3.29369,2.012808 2.47026,1.738336 1.00639,0.274473 26.07503,-17.108873 1.0064,-0.182983 32.75391,20.951509 10.33851,-7.227813 49.77128,31.473007 88.92955,-60.658736 5.48947,-2.83623 3.2022,-0.274474 7.41079,1.46386 14.18116,5.58097 -2.28729,-6.3129 7.41079,4.391583 3.01921,-15.645013 3.84265,15.46203 7.13632,-4.757547 -4.02564,10.978957 8.05125,3.934127 -5.03203,2.287283 122.0494,84.354982 V 0.18298261 Z"
       id="path2" /></g><g
        id="zona-montañas"
	fill="transparent"
     	stroke="transparent"
     	role="button"
     	tabindex="0"
     	aria-label="Montañas de fondo, cubiertas de nieve en la cima"
     	data-zona="Montañas"><path
       d="m 0.27447393,131.83897 -0.18298262,60.84172 2.56175669,-0.27447 4.2086,-5.3065 1.6468437,-3.1107 -1.3723697,-2.47027 1.829826,-2.19579 1.738335,-2.1043 0.548948,-1.64684 -2.012809,-0.0915 -4.2086,0.45745 -0.548948,-0.27447 3.3851784,-3.1107 1.8298263,-1.64685 -0.4574567,-0.73193 3.019213,-5.03202 2.653248,-3.93413 2.195791,-3.84263 1.829827,-4.2086 1.372369,-3.11071 1.646844,-4.48307 1.097895,-4.11711 0.365966,-2.37877 -1.189387,0.18298 -4.2086,0.0915 -0.823422,-1.09789 4.666056,-3.2022 2.470266,-4.84904 2.287282,-4.57457 2.195793,-6.95333 1.921317,-5.58097 0.09149,-5.39799 1.006404,-4.84904 0.548949,-0.91491 1.921317,6.95334 4.30009,11.80237 2.65325,6.95334 2.561757,3.93413 -1.006404,0.36597 3.019211,2.83623 1.829826,0.18298 0.09149,1.09789 -2.378773,2.65325 1.738333,0.27448 -3.659653,3.01921 0.914914,3.29369 2.83623,2.65324 1.921319,1.37237 -1.37237,1.28088 -2.378773,2.65325 H 44.1903 l 0.54895,1.64684 0.82342,1.18939 1.555353,-0.73193 4.11711,3.1107 1.006404,1.28088 0.548947,1.64685 4.757549,0.54894 1.646844,-8.96614 3.202193,4.30009 7.136323,6.40439 2.470267,2.01281 3.019213,0.45745 -1.646843,2.28729 0.457454,1.18938 -2.287281,2.74474 2.287281,1.00641 -0.823421,1.28088 1.37237,1.28087 -0.182983,0.73193 0.73193,1.82983 7.59378,4.39158 -0.457457,1.37237 1.829827,0.73193 2.83623,-0.73193 -0.823423,4.66606 6.038426,-4.30009 -4.391583,-2.47027 3.659653,-2.28728 -1.46386,-1.28088 2.378774,-3.75114 1.097896,-2.74474 -0.457457,-2.19579 -0.73193,-2.83623 -1.37237,-1.0979 -0.548949,-1.82982 4.574566,-1.0979 3.293687,-4.48307 -1.006403,-0.54895 4.574563,-16.65142 5.3065,11.98536 4.75754,7.13632 3.29369,4.30009 -0.36596,1.46387 0.82342,2.1043 3.20219,3.20219 3.29369,2.19579 2.56176,-1.46386 1.09789,-3.1107 1.18939,-3.47667 c 0,0 1.0064,-2.65325 1.18939,-3.01922 0.18298,-0.36596 1.0064,-2.56175 1.0064,-2.56175 l -0.27447,-1.00641 3.47667,-6.67886 5.30649,-16.10247 6.4044,14.45562 4.75754,-11.25343 -2.92772,0.91492 -4.02562,-0.82343 4.2086,-3.65965 3.29369,-5.03202 4.30009,-12.07685 2.56176,-11.89387 0.0915,-5.94694 2.37877,4.57457 3.01922,12.44282 8.23421,16.46843 2.01281,-4.66605 2.83623,-20.31108 7.68527,13.17475 2.1043,1.28088 9.42361,-9.14913 0.27447,-1.73833 4.75755,-5.94694 -4.94053,0.45746 -4.11711,-1.55535 5.85544,-2.92773 -0.0915,-1.46386 10.88747,-15.46203 1.28088,-6.861847 -0.64044,-0.274473 -36.59652,25.89204 -14.54712,-11.80238 -13.17475,-5.397987 -4.39158,-2.92772 -49.039343,-43.915829 -3.202197,3.202196 -13.632204,13.26624 -9.881062,10.978957 -3.568161,4.117109 -5.58097,8.325708 -8.325709,10.338519 -11.16194,9.240617 -11.070447,8.78317 z"
       id="path3" /><path
       d="m 236.23056,60.10979 2.56175,3.65965 -1.0064,0.365967 5.58097,1.738333 -0.45746,1.738337 -1.82983,1.738333 -0.64043,1.646844 -1.00641,1.280879 -3.75114,1.46386 1.0064,1.37237 2.83623,0.73193 2.19579,1.829827 1.82983,3.019213 2.92772,3.751144 0.45746,4.391583 1.82982,2.287283 0.73193,1.372367 4.75755,1.28088 1.46386,-1.006404 3.93413,-14.455626 5.76396,-10.887467 5.76395,-8.691673 3.93412,-6.86185 0.45746,-0.73193 -12.35133,-9.78957 -27.63037,17.566333 z"
       id="path4" /><path
       d="m 421.28813,62.623911 26.65399,-17.5968 32.86461,21.478449 10.8686,-7.245741 48.90876,31.053177 93.67711,-63.141463 5.95185,-0.517554 20.44335,7.504517 1.29386,3.881649 -7.5045,3.364095 7.5045,3.105317 -4.14041,11.386166 7.50451,-5.434306 1.03511,7.245742 -1.03511,2.846541 -3.88165,-0.77633 -4.65796,9.574731 -2.84655,5.95186 -2.0702,3.622871 -8.28085,9.057177 -4.91675,8.539623 -1.55266,6.469418 v 4.91675 l 0.77632,2.32899 5.4343,1.29388 v 0.77633 l 8.02209,-0.77633 h 0.77631 l -2.84655,3.36409 -9.05716,0.51756 -5.95185,3.36409 -1.03511,3.62287 -3.10533,4.91676 -2.84655,7.50451 -1.81142,3.10532 -1.81144,1.03511 -1.29389,1.0351 12.68005,2.58777 -1.29387,1.81143 11.12737,-2.32898 -5.17551,4.91675 6.21064,-0.77633 6.21062,-4.3992 -4.14041,6.72819 -2.58776,0.77633 -3.3641,4.14042 -7.50453,3.62287 -2.84655,0.51756 -1.55265,4.65797 -1.81142,-3.10531 2.32897,-4.14043 0.77634,-2.32899 -4.91675,-2.58776 -3.62289,-3.10532 -1.29386,-1.29388 2.32899,-2.84655 -3.3641,-1.0351 -3.62288,-4.14042 v -2.07022 l -4.3992,-7.76329 -4.91676,15.52659 -0.51755,2.58776 -3.3641,3.3641 -2.58191,1.87535 1.55536,2.33302 v 1.05215 l -1.09792,0.54895 0.64045,1.41812 -1.5096,1.23513 -1.78409,2.15005 0.96065,0.5032 -1.41811,2.6075 -3.88837,1.50961 1.18938,1.92131 0.73194,1.14365 0.0915,1.0064 0.82341,0.5032 -1.00639,1.64685 -0.91493,1.05215 -5.31241,-2.90432 -1.74675,-0.97041 -2.45838,-10.86862 -2.39368,-7.31043 -1.35859,0.64694 -0.45283,2.1349 -1.29389,4.07573 -2.45838,-0.32347 -3.42879,-2.39368 -0.58224,-1.94082 -1.16451,-2.32899 -0.97041,-1.94082 -2.91124,-2.58777 -3.10531,-4.59328 -0.71162,-1.87613 -1.29389,8.92779 -3.68758,14.2327 -1.94082,-0.19408 -0.97042,-2.97593 -3.88165,-9.12187 -6.53409,-20.70212 -1.42328,9.44534 -2.26427,10.48045 -1.61738,4.33451 -20.37863,-15.78537 -3.55819,-5.24022 -4.98145,-4.4639 -5.30492,-6.14594 -4.14041,-2.13491 -2.52307,-2.78184 -2.78185,-4.91676 -2.84655,-2.1996 -2.97593,-2.58776 -4.20512,-6.01655 -3.81694,-7.439828 -4.78737,-4.852062 -7.95737,-2.975927 -5.56371,-1.358577 -7.5692,-4.269812 -15.97946,-7.50452 -9.25126,-6.340025 -5.82247,-2.005518 z"
       id="path5" /><path
       d="m 677.2181,44.768333 20.76908,13.054174 35.13267,24.245196 66.97162,46.477587 0.18299,71.18023 -2.10429,-2.65324 0.0915,-1.46387 -3.84264,-3.29368 2.74473,-2.19579 0.27448,-2.19579 -5.76395,-3.01922 -0.54896,-2.1043 0.64045,-25.52607 -2.01281,-7.22782 -2.19578,-7.86825 -2.83623,7.59378 -4.66606,8.23422 -4.75755,5.30649 -2.1958,-5.30649 1.09791,0.45745 -2.47028,-10.61299 -2.28727,-15.09606 -1.28088,1.55535 -2.83622,5.12351 -4.02564,3.93413 0.27448,2.1043 -1.46386,1.46386 -1.00639,1.55535 -1.82984,-2.1043 -1.92132,-10.06404 -1.55535,2.83623 -6.95333,12.44282 -4.30009,-1.18939 -3.11071,-3.38518 -1.09791,-2.37877 1.55535,-1.82983 -0.82341,-0.73193 -3.2022,-1.0064 -1.55535,-1.64685 -0.9149,-1.82982 0.82341,-1.46386 -5.1235,-7.68527 -0.73195,0.91491 -5.03203,11.5279 -0.36594,2.83623 -0.91493,3.11071 -4.94051,3.56816 1.18938,1.82983 0.64042,1.09789 -0.82341,1.0979 -0.18298,1.82982 -2.01282,2.47027 v 1.64684 l -2.47026,2.47027 -3.01921,-2.56176 -4.30009,-2.92772 -4.57456,-4.30009 -2.47026,-4.39159 3.75113,-1.18938 10.88747,-5.58097 -0.54895,-1.64685 2.28729,-1.82982 -3.1107,-2.56176 -0.36598,-3.56816 -2.28727,-6.95334 -4.75755,-3.47667 -7.04485,-2.47026 -5.30648,-2.74474 -1.73834,-0.45746 1.09789,-2.19579 5.48949,-2.65325 3.56815,-3.84263 0.64045,-2.56176 2.65324,-4.2086 2.47026,-3.842636 -5.76395,-0.457457 -2.01279,-2.653247 -1.92133,-13.99817 -3.38518,-4.757547 -4.2086,-3.47667 -6.49589,-2.74474 -3.84262,-2.83623 -2.74474,-0.823423 -5.76397,-10.978957 0.54896,-3.476669 2.37879,1.097896 5.39797,4.30009 -4.20859,-10.978956 z"
       id="path6" /></g><g
     	id="zona-cabaña"
	fill="transparent"
     	stroke="transparent"
     	role="button"
     	tabindex="0"
     	aria-label="Cabaña de madera, cubierta de nieve y con la chimenea echando bastante humo"
     	data-zona="Cabaña"><path
       d="m 230.00915,205.85544 2.92772,6.77036 4.2086,3.47667 2.74474,0.18298 2.74474,3.29369 1.64684,1.09789 4.02562,-0.54894 2.01281,-6.58738 3.1107,1.64684 1.64684,1.46387 -1.09789,5.48947 v 5.12352 l 0.91491,4.39158 0.73193,2.92772 0.36597,8.05124 0.73193,1.09789 -1.46386,4.02562 -0.54895,4.2086 2.01281,5.12351 0.91491,2.19579 -0.54895,5.30649 0.73193,2.74474 -1.46386,4.02563 -0.54895,5.1235 2.01281,4.20862 -1.46386,4.57454 -0.18298,5.30651 1.28088,2.01282 -1.64685,4.2086 1.0979,9.14913 -2.37877,3.84262 -1.64685,5.67246 3.84264,10.06406 -3.84264,0.9149 -1.64684,6.95336 0.54895,6.40437 0.73193,2.01282 -2.37878,6.77034 -0.36596,5.12352 0.36596,2.92772 13.35773,-6.58738 5.85545,-2.37876 6.4044,1.64684 9.33211,2.01282 7.31931,2.37876 c 0,0 5.85544,2.01282 6.77034,2.01282 0.91493,0 4.75755,0.36595 4.75755,0.36595 l 9.33212,-1.46386 12.62578,0.73194 6.95336,1.82983 16.65142,-3.47668 9.69806,1.09789 10.24705,3.29369 9.51508,4.57457 8.41721,2.74474 8.05122,-5.48947 8.78316,-4.39158 8.78319,-0.18299 7.50229,3.65964 6.40437,2.37879 5.67248,-4.94054 7.68527,-4.94054 7.13632,-2.19578 3.1107,-4.75755 5.1235,-2.56175 5.30651,-0.91493 4.39158,1.2809 4.94054,3.11068 5.85544,2.92775 4.75755,2.37876 4.39158,0.91491 24.70264,-4.02561 19.94511,-3.47668 11.5279,-3.65964 3.84265,0.18299 8.96615,-8.6002 2.92772,-1.28088 -3.2937,-4.02561 0.91491,-8.41721 -2.37877,-4.75753 0.18299,-6.4044 -2.1958,-7.3193 1.46386,-5.67245 -2.37877,-5.67248 1.46386,-4.94052 -0.54895,-5.30651 -1.64685,-2.37876 2.37879,-3.84265 -0.73194,-4.57456 -1.09789,-5.30649 1.28087,-3.65966 -0.73192,-6.03842 -0.54895,-1.82983 2.01282,-4.39158 7.13631,-1.64684 2.01282,0.73193 1.8298,1.09789 4.57457,-7.86825 2.92772,-3.29369 2.1958,0.18298 3.2937,-2.74473 h 2.92772 l 1.64684,-0.36597 2.01279,-11.5279 -1.09789,-10.97896 -5.12349,-12.99177 -2.92775,-4.39158 -4.39158,-3.65965 -6.58736,-8.23422 -5.85544,-6.95334 -14.82159,-21.043 -20.49407,-14.82159 -4.20859,-7.13632 -6.77037,-6.03843 -2.19578,-2.74474 -6.4044,-4.39158 -3.1107,-6.40439 -11.16193,-10.79598 -1.46386,-4.025614 -3.84265,-5.123513 -3.84262,-3.293689 -10.24702,-3.659651 -6.58738,-2.378773 -10.97897,-5.123514 -13.35773,-7.502289 -4.75755,-3.293687 -9.69806,-2.744737 -6.03843,-3.110706 -11.34493,-5.855444 2.92772,-31.290026 3.69358,-2.170707 2.19959,-0.129389 2.45837,-0.776329 2.71717,1.358576 1.61734,1.55266 4.01103,1.42327 h 1.29389 l 3.75227,-1.358576 2.32897,-1.811436 0.90572,-1.746741 0.25879,-2.070212 0.51755,-2.523071 1.87614,-0.258777 1.68203,-1.552658 0.84103,-0.970412 3.81696,0.388164 2.39369,-0.452859 2.45837,-2.2642939 1.74673,1.1644939 6.98696,4.399201 7.05167,-0.711636 4.59327,-3.493482 2.52307,-2.7171533 2.329,-1.6173532 2.0702,-3.2347061 0.38817,-2.78184741 -95.10035,-0.19408238 -2.00551,4.26981219 v 2.7171533 l 0.19407,3.8169529 2.52306,5.499001 0.58225,22.319472 -14.55616,-0.194083 -15.7207,-12.874129 -18.95535,-5.304919 -5.56372,2.005518 -3.42878,-4.07573 -5.11083,-2.652459 -6.14595,-5.8871649 -6.85758,-4.9167534 -4.14041,-1.5526591 -5.49899,2.1349062 -1.87614,2.4583766 -2.84654,3.4934826 -0.38817,2.134906 -1.22918,1.940824 -0.1941,3.105318 -2.0702,1.876129 -4.46389,5.822472 -1.48797,3.687564 -1.29389,5.563695 -1.35858,5.887164 -1.29387,9.83351 -3.23471,5.304917 -2.52307,3.75226 -4.85206,7.56921 -5.43431,10.415754 -4.14042,14.879651 -2.84654,21.866618 -0.64694,3.68756 -5.82248,14.94434 -1.16449,5.88717 -0.38816,7.56921 -3.2994,4.85206 -3.88165,10.86861 -2.13491,6.6635 -1.81143,8.99248 -3.62287,19.60232 z"
       id="path7" /><path
       d="m 483.91206,351.93605 4.2051,5.36961 2.52307,1.55265 5.82248,3.42879 3.4935,1.94083 4.78734,4.26981 3.94634,4.52859 4.20513,5.17551 1.61735,3.04065 10.60984,-4.4639 10.54516,-2.65247 7.50451,-1.35858 8.15146,-3.62286 6.72817,-1.87614 0.25879,-2.0702 3.42879,-2.26431 0.12938,-3.36409 -0.64693,-0.97042 -20.83152,-1.74672 -0.32345,-3.75227 1.68203,-0.71162 0.19407,-4.5933 -15.2678,-3.17 z"
       id="path8" /></g><g
     	id="zona-arboles"
	fill="transparent"
     	stroke="transparent"
     	role="button"
     	tabindex="0"
     	aria-label="Arboles que adornan la escena, sus hojas estan cubiertas de nieve blanca"
     	data-zona="Arboles"><path
       d="M 0.73193047,194.69351 8.9661483,184.62946 7.68527,181.15279 l 4.025618,-6.40439 -6.7703573,1.0979 6.2214093,-6.22141 -2.0128091,0.18298 8.9661481,-13.54071 5.306496,-17.20037 h -6.221409 l 6.95334,-7.50229 6.770357,-17.74931 0.914913,-12.44282 5.306494,18.11528 6.77036,11.89387 -1.463863,0.73193 5.123513,3.65965 -2.561757,2.56176 1.829827,1.0979 -2.92772,2.0128 0.365963,3.65966 5.123514,4.39158 -3.47667,3.84263 -1.463861,-0.36596 1.646844,4.02562 1.829826,-0.91492 4.025617,3.65966 0.365967,1.82982 5.123513,0.18298 2.19579,-8.23421 5.855444,6.95334 4.94053,4.57456 4.757549,1.64685 -2.74474,2.37877 1.097897,0.73193 -2.01281,2.19579 1.829827,2.19579 0.365966,2.92772 8.783164,6.03843 -0.548947,1.28088 1.829827,1.64684 2.561756,-1.64684 -0.365966,5.12351 6.22141,-5.30649 -3.842637,-2.01281 2.927723,-2.92772 -0.73193,-0.73193 2.19579,-4.39159 0.731931,-3.84263 -2.012808,-3.65965 -0.660757,-0.595 -0.582247,-1.68205 1.940822,-0.19408 2.393683,-1.1645 1.876131,-2.03786 1.876129,-3.13767 -1.099799,-0.42051 4.302159,-15.52659 5.11083,11.45086 7.69861,11.15974 -0.19409,1.74674 1.97317,3.00828 1.81144,2.62011 1.94082,0.93806 1.0998,1.00276 1.6497,-0.51755 1.68205,-1.06745 4.72267,-12.29189 -0.22643,-1.0351 3.55818,-7.01932 0.64694,-2.26429 4.36686,-13.2623 0.51755,0.80868 5.9842,14.03862 4.9491,-12.48596 -3.04062,1.42327 -4.04338,-0.45286 4.33451,-3.68756 2.78184,-4.56094 2.32899,-5.499 3.2994,-10.09229 1.6497,-10.25401 0.22643,-4.17278 2.16725,4.85207 1.45562,6.01655 1.52031,5.56369 1.35858,3.39644 2.94358,6.08125 2.78185,5.04614 1.13215,2.23195 2.07021,-4.81971 2.78184,-20.31396 7.37514,12.68005 0.84102,1.61735 h 1.16449 l -4.26881,2.25047 -3.29369,4.57457 -0.91491,3.29369 2.01281,2.19579 4.02562,0.54895 2.92772,2.0128 0.73193,0.54895 3.84263,0.73193 1.0979,1.64685 -0.36596,3.1107 -1.28088,4.2086 -4.75755,2.74474 -2.92772,4.57457 -2.19579,4.2086 -2.56176,3.1107 -5.12351,3.84264 -2.37878,3.65965 1.46386,3.65965 6.40439,0.54895 -0.91491,1.82982 -0.18298,1.46387 2.74474,0.18298 -1.0979,1.64684 4.2086,0.18298 h 2.74474 l -0.91491,4.2086 -6.95334,9.69808 2.01281,0.73193 -11.34492,11.52791 -5.48948,-7.31931 3.47667,-2.37877 -0.36597,-3.84264 -1.64684,-2.56175 -3.29369,-0.91491 0.18298,-2.92773 -2.19579,-2.37877 1.0979,-1.82983 -2.19579,-4.94053 -1.46386,-8.4172 -3.47667,-11.89387 -1.64685,2.37878 -0.73193,5.48947 -0.54895,4.39159 -0.91491,5.67246 -1.82983,4.94053 -1.46386,3.84263 -0.73193,2.37878 -0.54895,4.57456 -2.74473,5.85545 1.46386,2.56175 -0.91492,1.82983 -21.40896,-3.1107 -28.911257,-1.46387 -0.914913,-4.57456 -2.01281,5.67246 -15.919487,1.28088 -15.187557,2.56176 1.280877,2.19579 3.842637,1.09789 -2.927723,2.74474 0.182983,1.46386 -0.548947,1.82983 0.548947,1.46386 -2.012807,2.01281 0.73193,1.09789 -0.182983,1.46387 3.110703,4.94053 5.672463,1.82982 0.914911,1.82983 0.365966,4.39158 -3.293687,5.48948 0.73193,0.91491 -2.744739,2.92772 2.195793,1.46387 -0.54895,1.46386 7.868253,0.91491 7.868253,0.73193 2.74474,0.73193 2.19579,2.37877 -0.365963,4.94054 -2.927723,4.02561 -2.01281,4.57457 v 3.1107 l 2.927723,-2.74474 -0.548947,8.23421 -2.74474,4.57457 -15.736506,-3.65964 -13.540713,-1.64685 -12.442817,-1.64684 -8.051237,-3.47667 -6.587374,-5.48948 -3.842635,-2.56176 -6.038426,0.73193 -4.757548,2.37878 -7.31930477,4.57456 z"
       id="path9" /><path
       d="m 79.185608,273.78554 2.1996,-4.14044 0.905719,-9.05717 -2.717154,2.58777 -0.646941,-2.45838 3.622871,-7.6339 1.42327,-0.90572 0.905719,-5.30492 -2.458376,-3.75226 -18.502521,-0.51755 0.258778,-2.71716 -1.940824,-0.38816 2.717151,-2.71715 -0.258775,-1.1645 3.493484,-5.69308 3.493481,-0.64694 -1.940824,-4.01104 0.517554,-10.22167 2.070211,-5.30492 11.157789,-4.20312 0.526073,-1.05215 2.355903,-4.62031 1.349497,-2.74474 1.71546,-4.96341 3.042087,13.70083 6.358646,14.59286 2.241534,3.65965 -1.280874,0.98353 0.983534,2.17292 1.44099,4.04849 2.51601,3.88838 0.54894,1.66972 3.56817,1.28088 3.20219,-2.12717 -0.98353,-1.57823 3.957,-2.99634 2.67612,-4.41446 -0.45746,-1.46386 4.75755,-4.84904 0.0457,-1.41811 6.26715,-8.11986 4.16286,-10.63586 2.7313,2.84938 2.45838,5.17553 2.58776,-5.95186 1.47179,-3.59052 -1.06745,-2.28047 2.5069,-5.98421 0.61459,-4.36685 0.51756,-2.57159 3.15383,-8.39407 2.2643,-15.80154 1.6497,-2.32899 1.68205,5.77396 1.85995,6.34002 1.39093,8.2485 2.1996,4.91675 -1.13215,1.87613 2.1996,2.37751 -0.11321,2.8142 1.18066,0.7925 2.16726,0.43669 1.585,2.52307 0.27495,3.62287 -3.41261,2.42603 5.499,7.42365 11.25678,-11.67729 -2.0217,-0.69546 7.18105,-9.94673 0.63077,-4.0272 -3.88165,0.0647 -2.62011,-0.2426 0.93806,-1.66588 -2.70097,-0.30729 -0.12939,-1.01894 0.88954,-1.66587 0.27495,-0.58225 -6.46941,-0.50138 -1.60118,-3.49348 2.42603,-3.59052 5.02997,-3.89782 2.63628,-3.15384 2.18343,-4.28599 2.81419,-4.3992 4.98145,-2.9921 1.14832,-3.96252 0.38817,-3.28322 -1.08363,-1.52032 -3.83313,-0.64694 -3.55817,-2.65246 -4.57711,-0.63076 -1.50414,-2.13491 0.4852,-2.39368 1.34241,-2.28047 2.50689,-3.23471 3.88165,-2.11873 0.5499,0.0162 9.51004,-9.25126 0.45286,-1.87613 4.3992,-5.82248 -5.04614,0.71164 -3.62288,-1.61735 6.08125,-3.23471 -0.32347,-1.42327 1.03511,-1.811434 9.8982,-13.456381 1.0998,-7.051659 6.14594,-9.445341 -4.26981,1.552659 -3.68757,-0.517554 7.18105,-6.275329 3.42879,-7.245742 4.65798,-11.386166 2.00551,-17.726191 2.00552,0.841023 1.94083,3.299402 2.45837,5.628388 2.2643,5.693082 4.98144,7.827991 0.32348,4.72267 0.12939,2.1996 -1.87614,0.582248 3.49349,4.852058 -1.42327,0.452861 5.75777,1.74674 -0.32347,1.940824 -1.87613,1.423271 -0.58224,2.070211 -1.22919,1.22919 -3.49348,1.229188 0.90571,0.970413 2.45838,1.035105 1.42327,1.358575 1.94082,1.876131 3.94635,5.304917 0.12938,3.170013 0.97042,2.652458 1.68204,1.876131 2.00552,1.099799 3.04062,0.582248 1.29389,-0.388165 -2.1996,17.208636 -1.42327,8.47493 -5.11084,12.87413 -2.26429,9.8982 0.32347,4.91676 -0.19409,1.22919 -3.36409,4.07572 -5.36961,15.4619 -5.82247,28.6595 -0.38817,9.8982 2.52307,5.62839 3.10532,3.2994 2.00552,1.35858 h 2.32899 l 4.3992,4.59328 4.14042,-0.58225 1.94083,-5.24022 2.1996,-0.38817 2.45837,2.07022 -1.35858,7.05165 1.22919,6.85758 1.29389,12.68005 0.90571,0.77633 -2.26429,7.56921 3.17001,8.08677 -0.84102,4.78737 0.97041,3.10533 -1.42327,3.62286 -0.5499,2.52307 -10.86861,-3.26705 -10.57467,-1.59874 -8.27997,1.23515 -5.39798,1.96704 -8.60019,6.03843 -5.07776,3.24795 -7.19359,5.63951 -12.80943,-0.12938 -13.97393,0.90572 0.90571,-2.58778 -0.77633,-0.51755 6.46942,-9.18655 h -7.11636 l -5.82247,-1.81144 -7.37513,-7.37513 6.46941,-3.75227 0.90572,-1.55266 -4.78736,0.77633 -3.88165,-3.10532 0.90572,-1.55266 -8.53963,-11.77433 -0.51755,-1.16449 -2.58776,8.92779 -5.04615,9.96289 -3.36409,3.3641 5.82247,-0.90572 -1.81143,3.10533 -7.24575,8.669 -3.62287,1.29389 -12.16249,-4.01103 -17.07925,0.77631 -12.162498,2.58779 -3.364095,-0.12941 z"
       id="path10" /><path
       d="m 0,426.2049 0.04574565,-2.23416 7.66239705,-7.20495 1.9670633,-3.06496 -3.179323,-1.87558 2.241537,-2.12717 -5.032022,-0.73192 -1.7383348,-1.71548 2.4016468,-1.09789 1.3952423,-1.5096 -1.303751,-0.64045 5.8096977,-5.64957 2.470266,-5.83258 -4.2086004,0.43458 -3.5910339,-0.34309 -0.8920404,-0.6862 1.4181154,-1.71545 0.7776762,-1.69259 0.045746,-1.39523 -5.0548949,2.08143 4.8719123,-3.27084 0.2973466,-1.6697 1.6468437,-2.88198 2.3787734,-6.97621 2.058555,-3.72827 2.401647,-1.98993 2.310155,-6.83898 -2.698993,0.41172 -2.561757,-1.14366 -0.89204,-1.1665 1.075022,-1.12077 -0.914913,-1.21227 -2.3787734,-1.37237 -1.5553523,-1.7612 4.6889297,-2.33304 4.826166,-5.26074 -2.012809,-0.43457 -1.806953,-1.41812 1.738335,-1.02928 1.075023,-0.89204 v -2.24155 l 0.937786,-2.31016 2.904849,-6.06129 3.087832,-6.35865 1.692589,-2.01282 1.486734,-1.92129 0.388838,-1.16653 -1.715462,0.18299 -5.443733,0.0457 2.630375,-2.92772 2.83623,-2.92772 -2.561756,-0.18299 2.790485,-4.07138 -0.137237,-1.98993 1.646843,-6.58736 1.806953,-4.68895 2.333029,-4.52882 2.241537,-6.95333 1.37237,-6.35865 1.738334,-0.82341 1.05215,0.59468 2.881976,7.27356 2.470267,5.76397 8.051233,7.77674 0.686187,1.92132 4.666056,2.01282 1.463861,-0.0457 -1.646844,2.19578 -0.137237,1.18941 -0.823423,1.0064 -2.83623,2.01281 -0.32022,0.73192 0.686187,0.96068 5.626713,2.10428 2.74474,3.65966 4.391583,4.66606 1.921317,2.10429 -0.274473,3.01921 -1.555353,1.64685 0.182983,1.73833 1.189387,0.54896 0.365966,1.09789 3.385177,0.18299 0.914913,-1.09792 -1.280877,3.65967 -2.195793,2.56174 -3.476667,1.18941 -2.195793,1.0064 0.73193,1.18938 1.37237,0.73194 2.83623,0.82341 1.463863,0.45747 0.548947,0.96065 -1.646843,1.41811 2.83623,1.09789 3.613906,0.45746 0.548947,0.54896 -0.457456,1.73834 -1.05215,1.78406 0.503203,1.23515 -0.503203,0.64043 -2.012807,2.51603 -0.365967,2.56174 0.04575,3.01922 0.594693,0.68617 -0.04575,0.96067 0.274473,1.46386 2.790486,0.45744 3.934127,0.96068 h 0.686184 l -1.189387,1.87558 -2.287283,2.15003 -1.78408,1.5096 1.509606,0.77769 0.869167,-0.41172 -0.320217,1.28088 -0.274476,2.47025 -0.503201,2.10432 -1.280879,1.18938 1.006406,1.37236 -1.326626,0.82344 -0.777674,1.18938 0.548947,1.14364 6.129916,-0.18299 4.574567,0.54896 1.69259,2.47025 1.326623,2.01282 0.41171,2.88198 -0.228727,2.47025 -0.686186,1.73834 -1.235133,1.92133 -1.646843,2.4245 -2.74474,2.69902 1.555353,3.70538 3.659653,0.54896 -0.823423,1.82983 -4.2086,3.56815 4.2086,2.47028 2.195793,0.64042 -0.274474,1.37237 4.117107,-0.54893 10.430015,3.56814 3.47667,-4.02561 7.41079,-3.01921 5.3065,-5.48947 3.20219,-2.74476 3.2022,-5.30648 -4.30009,1.73834 -8.96615,1.37236 -6.12992,-1.46386 -0.0915,-0.45746 2.19579,-1.55535 -1.18938,-1.55536 -4.39159,-2.56175 -3.751142,-3.20219 3.019212,-1.28088 -0.0915,-3.84265 1.097901,-3.20217 1.46386,-2.56178 1.37237,-1.46386 c 0,0 4.39158,-2.01279 4.84904,-2.19577 0.45745,-0.18299 5.76395,-3.47668 5.76395,-3.47668 l 7.13632,-2.01282 5.85545,-1.0064 -5.67247,-1.00639 5.39799,-5.30651 -6.03843,1.46386 -4.48307,-0.36597 v -1.18938 l -2.65325,-0.82341 -3.65965,-2.47029 7.86825,-2.01279 7.04483,-3.84265 -3.20219,-1.09788 1.55535,-2.37877 6.86185,-4.94054 6.03842,-8.23423 -4.84903,3.01922 -4.48308,1.55535 0.45746,-1.8298 -2.65325,1.00639 -0.0915,-2.56175 -3.38518,0.36595 -6.67887,0.36597 -3.65965,-1.18938 4.11711,-2.92772 -4.57456,-1.82983 -4.2086,-3.56818 -0.64044,-1.92129 3.93412,-0.0915 3.47667,-1.73834 9.78957,-5.58096 4.11711,-1.55535 -1.82983,-1.55535 -2.83623,-0.45747 2.37878,-2.01282 0.45745,-0.64042 -4.57456,-0.91493 -5.21501,-3.2022 2.65325,-0.45744 -0.73193,-2.92772 0.64044,-2.74476 5.3065,-2.37876 4.30009,-0.73192 -1.64684,-1.2809 1.82982,-1.46386 0.45746,-1.09789 -5.67246,-1.55535 -2.1043,-2.28727 -2.65325,-2.92772 -1.00641,-1.73834 5.12352,0.64042 2.28728,-0.54893 4.02562,-0.82343 1.37237,-1.0064 -1.92132,-0.82343 -0.36596,-1.09789 2.92772,-1.64685 2.28728,-2.01279 -3.84264,0.0915 -2.28728,-1.00642 4.75755,-2.47026 4.48307,-1.55535 2.92773,-3.01921 4.30009,-5.58096 1.73833,-3.56817 -5.48948,1.37236 2.83623,-3.20219 3.47667,-5.58097 2.65325,-6.12992 2.01281,-7.22781 2.32557,4.02535 6.72819,8.8631 -0.90572,1.32623 3.62287,3.10532 5.0138,-0.80868 -1.03511,1.84378 -6.27533,3.59053 7.18105,7.31044 5.82247,1.81144 7.21339,-0.0324 -6.43706,9.25126 0.87337,0.6146 -0.90572,2.45838 -4.74052,1.28836 1.09789,2.01282 6.03843,2.92772 4.2086,0.64043 6.49588,-3.01922 -0.73193,3.75116 -2.74474,5.76395 -0.54895,2.28729 -2.92772,2.74474 -3.38518,1.82983 2.19579,1.09789 -0.45745,1.55535 -2.56176,1.18938 -1.09789,1.09789 3.20219,2.47028 3.11071,3.56815 1.64684,3.01921 1.64684,-0.9149 5.85545,-0.54896 -4.66606,4.48307 0.64044,0.82344 5.67246,-0.27448 3.2022,-1.64684 -3.65966,4.1171 -5.30649,3.93414 -2.28729,1.46386 4.02562,1.09789 5.21501,-0.27448 -1.64685,2.10431 -6.22141,3.01921 -6.2214,0.73192 1.64684,2.92772 7.86825,4.02564 7.77676,4.1171 3.93413,-1.09789 -1.55535,4.20859 -2.83623,3.75113 -4.3001,4.30009 -4.57456,2.83626 -6.77036,0.54893 2.19579,2.92772 8.96615,2.37879 4.57457,1.09789 5.30649,-1.28088 -2.92772,4.02561 -3.93412,3.84265 -3.2022,1.9213 -3.2022,1.37236 1.28088,1.18941 h 4.2086 l -0.64044,1.9213 6.03843,-0.45744 2.1043,-1.28087 -6.40439,6.67885 3.65965,8.41719 0.45746,2.10431 -7.13633,-1.73834 -35.22415,-0.0915 -0.36596,9.14913 1.46386,3.01921 -0.45746,12.07686 -6.77036,2.65324 -12.80878,4.48307 -6.58737,0.91493 -12.25984,-2.01282 -9.60659,-4.1171 -7.50228,-4.30009 -10.235596,-3.87694 -4.151419,0.50319 -4.328469,2.46454 -6.792883,6.01655 -0.873371,0.1294 -0.452859,1.74673 -1.714394,1.6497 -9.736465,6.5341 -3.719912,4.5933 -0.77633,-1.0351 0.14556,-4.18897 -0.905716,-2.97592 -2.432534,-0.30716 -12.671547,-0.73192 -1.006403,2.47026 0.18298,3.33944 -0.18298,1.37237 -25.38884,-9.78956 -12.0768521,-2.42454 z"
       id="path11" /><path
       d="m 563.87399,245.19073 2.45837,-6.08124 3.49348,-3.62288 2.07023,0.51756 3.3641,-3.10532 5.04613,0.12939 1.94083,-12.80944 -1.0351,-9.70412 -3.75227,-9.31595 -4.52858,-8.66901 -3.75227,-3.10532 -12.29188,-15.52659 -14.87966,-20.83151 4.91677,-23.67805 9.05717,27.04214 1.29389,3.23471 -0.64696,0.12939 2.97593,2.58776 1.94082,-4.14042 3.75227,-19.27885 6.59881,9.57473 2.07021,3.10532 2.19959,3.62287 4.01105,1.81144 2.71714,-6.98697 0.64693,0.51755 5.04616,17.46742 7.24575,4.65797 2.97593,-4.3992 -2.329,0.25878 -0.25878,-1.94083 -1.55266,-1.81143 4.65799,-2.07021 0.64693,-3.23471 2.07021,-2.97593 0.64696,-1.29388 0.38814,-1.16449 -1.55265,-2.84655 4.65799,-4.14042 2.19958,-4.14042 -0.64693,-0.25878 4.78737,-14.75026 4.91675,8.53962 -0.51755,2.71716 2.84655,1.81143 4.01103,2.32899 -2.329,2.58777 4.39921,3.62287 5.56368,3.2347 -2.71714,6.21064 1.16449,3.62287 1.94082,-5.17553 9.96291,-3.75226 4.01103,-4.52859 2.45838,-0.51755 4.01103,-7.89268 -6.7282,5.4343 -6.08123,1.03511 5.69306,-4.91675 -10.8686,2.07021 1.16451,-1.81144 -12.1625,-2.58776 2.58776,-1.94083 1.16448,-3.10532 3.3641,-8.15146 2.97592,-4.78736 0.64696,-3.10532 4.3992,-2.1996 2.32897,-1.0351 8.41026,-0.90572 3.49348,-2.97593 -8.66902,0.51755 -1.55266,-1.29388 -4.78737,-1.42327 -0.38817,-3.3641 -0.38817,-4.3992 2.07024,-5.304916 4.91675,-8.539625 8.41023,-9.315953 9.31595,-18.502521 4.14041,0.646943 0.90572,-2.328989 -1.32622,-8.216154 -7.5692,5.854819 4.2051,-11.67729 -7.50451,-3.040624 7.60156,-3.461136 -4.30215,-10.642184 7.21339,4.302159 3.17,-15.591283 3.84932,15.300159 7.5045,-4.852058 -4.10808,11.321473 8.18381,3.978687 -5.3049,2.393683 -3.3641,1.00276 4.43153,11.353819 -7.98972,-6.08125 -0.51756,4.043384 6.14596,11.256777 2.39598,0.37324 4.71181,3.339433 5.67246,2.42452 2.56177,2.01281 2.65324,2.744737 2.24153,3.202196 1.87557,13.998171 1.87558,2.561756 6.08418,0.503203 -5.30651,8.188474 -0.64043,2.74474 -3.61392,3.65965 -5.6267,2.69899 -0.86919,2.15005 2.65327,0.77768 9.0119,4.84904 3.1107,0.41171 4.02561,2.97346 2.37876,7.77677 0.0915,3.06495 2.1958,2.05856 -2.2873,2.74474 1.18941,0.91491 -2.56177,1.73834 -7.59378,3.84263 -4.11711,1.0979 2.56175,4.43732 4.66606,4.39159 7.0906,5.16926 2.49311,-2.49314 -0.0686,-1.39524 2.19577,-2.65325 v -1.78408 l 1.00643,-0.86917 -1.92133,-3.01921 5.12353,-3.61391 1.23512,-5.94694 5.03203,-11.57365 0.86916,-0.82342 4.94054,7.77676 -0.77769,1.6011 0.91493,1.6011 1.5096,1.6011 3.33942,1.0064 1.00642,1.05215 -1.69259,1.69259 1.09788,2.47027 3.06496,3.20219 4.11711,1.0979 8.5087,-15.50778 2.18361,10.56271 1.5203,1.81144 2.49073,-2.87889 -0.29112,-2.07022 3.9787,-3.91399 3.23469,-5.56369 1.06746,-1.32623 2.10256,14.45913 2.65245,11.48321 -1.09979,-0.32347 2.03787,4.88441 1.32623,-0.45286 3.49348,-4.59329 4.85206,-8.44258 2.62011,-7.60156 4.36684,15.65598 -0.64693,24.35734 0.58224,2.65246 5.79012,3.13766 -0.29112,2.49073 -2.7495,1.90847 3.88165,3.42879 -0.12938,1.55266 2.0702,2.65246 -0.21272,58.49896 -21.40897,10.06404 -16.01097,5.58097 -13.90669,3.1107 -4.66606,0.54896 -4.84904,2.19578 -3.75113,3.2022 -0.45747,1.64684 -8.60017,4.1171 v 1.18941 l 14.27263,6.1299 5.58099,1.37239 3.84262,-1.64685 -1.37237,2.56175 6.58739,-2.65324 3.75113,-3.84265 -1.18938,3.75116 -2.92772,6.40437 -2.01282,2.01282 2.92772,2.47028 -15.27905,4.48307 -8.96615,4.02561 -10.43001,2.74474 -12.80877,-1.09789 -11.16195,-1.64685 -10.24702,1.46386 -8.23423,2.92772 -16.9799,0.45715 -4.5933,-3.00829 -9.2189,-4.75501 c 0,0 -5.30492,-1.87613 -5.56369,-1.84377 -0.25879,0.0323 -7.40748,0.12938 -7.40748,0.12938 l -5.43431,1.58501 -7.86034,2.1349 -2.29664,-1.48797 -7.92504,-3.52584 -9.47769,-2.19958 -3.88162,0.4205"
       id="path12" /><path
       d="m 751.87513,430.86287 -6.34003,-2.329 -0.25879,-2.84652 4.14044,-2.19961 -2.45837,-1.55266 -5.95189,-6.08126 3.10534,-1.55265 0.38817,-4.01103 0.64693,-3.75227 3.3641,-2.19959 9.57471,-14.10332 2.58779,-2.19959 -4.14044,-2.32899 -0.77631,-2.329 -3.3641,-4.01103 -2.45838,-4.3992 -0.51755,-3.75227 1.94083,-5.30492 6.4694,-3.49348 5.95186,-7.63389 4.26982,-3.75227 2.58775,-2.32899 -1.42327,-2.45838 -2.97593,-4.91675 -4.01103,-3.75227 2.97593,-1.0351 6.85758,-13.58577 7.50451,-9.44534 5.17554,-1.0351 1.68203,-2.84654 1.29389,-2.07021 1.16449,-5.4343 3.10533,-5.43431 1.81142,-4.78737 1.16451,-6.4694 1.81144,-1.03511 1.42325,3.62286 0.38817,7.37513 1.81144,5.82247 -0.12938,129.77641 -6.72819,-1.16449 -11.77433,-2.32899 -11.1274,-2.07021 -10.48043,1.03511 -6.08127,2.84654 z"
       id="path13" /></g><g
     	id="zona-entrada"
	fill="transparent"
     	stroke="transparent"
     	role="button"
     	tabindex="0"
     	aria-label="Entrada con puente de ladrillos y vallas de madera a los lados"
     	data-zona="Puente"><path
       d="M 0.81899399,448.79265 42.539032,448.06073 v -14.6386 l 15.37054,1.09789 1.829824,13.54071 24.153706,-1.09789 3.659653,-4.75755 h 33.668805 l 17.93229,1.82983 8.78317,0.73192 -0.73193,-10.24702 3.29368,-5.85544 5.85545,2.92772 1.82982,-1.09789 v -18.29827 l -2.19579,-2.56177 0.73193,-7.68525 35.13267,-0.36597 12.80878,2.92772 -0.36597,9.14913 18.29827,-13.90668 10.61299,-9.14913 13.90668,-2.19581 6.58737,-4.02561 13.90669,-1.09788 4.02561,2.19577 3.25223,-3.71234 5.49902,-2.78186 5.36959,-1.09979 5.30492,1.16448 4.65799,-0.77631 6.08123,-0.12941 5.75779,-0.77631 4.65799,1.35858 6.66348,4.33449 6.79288,2.58778 5.17554,1.22917 7.11634,4.65799 3.81696,3.55817 3.62286,-3.55817 6.59881,-2.32899 3.23472,0.12938 3.36407,1.29389 2.84655,2.45838 2.84654,2.71716 4.01103,3.36407 4.65799,3.10534 1.03511,3.88165 1.55265,5.4343 2.58776,-3.3641 3.4935,-4.14043 c 0,0 3.88165,-2.07021 4.3992,-2.32897 0.51756,-0.25879 4.91676,-1.42328 4.91676,-1.42328 l 13.45636,-6.4694 6.46941,-1.16451 7.24574,0.12938 12.03312,2.19961 3.49348,-1.68206 6.34003,-0.77631 c 0,0 7.24574,2.84654 8.41023,2.97592 1.16451,0.12938 11.77433,1.16449 11.77433,1.16449 l 4.65798,2.58778 3.62286,4.78735 4.14044,6.59881 1.81142,4.3992 10.60984,8.53961 7.24575,6.59882 5.30492,7.76329 1.94083,2.329 -0.77634,5.56368 -1.68204,2.45838 -5.69309,4.65796 -4.14041,5.30493 -2.329,5.4343 -0.77634,5.69309 -0.90572,4.01103 19.02008,3.3641 12.29188,-1.16448 14.36211,2.19958 h 17.07925 l 10.22167,0.64696 5.3049,2.97593 4.91675,3.3641 10.09229,2.19958 25.23072,2.58776 0.64694,-13.58574 0.51755,-7.24575 3.75227,-5.04616 5.17551,0.12941 3.75227,2.71714 2.97593,4.26981 2.84654,4.01104 1.42327,1.94082 0.38818,13.1976 0.25876,3.3641 63.52963,6.46941 19.14946,-1.42328 20.44335,0.64696 13.32698,6.21062 19.27886,4.3992 41.53363,4.3992 v 91.08935 l -72.19865,-0.51755 -34.80543,-8.66902 -70.646,-15.26781 v 24.45438 l -8.15144,-0.64696 -14.10333,-6.59879 0.64693,-21.996 -119.42534,-24.97193 0.51755,7.89268 -5.17554,-0.77634 -6.34003,-0.77632 -6.21062,-1.29389 -0.38817,-11.51554 -53.17857,-12.80946 -16.30291,-5.17551 -8.7984,-2.19962 -6.08127,-1.29386 -2.19958,-0.90572 -5.56369,-5.82248 -7.24575,-4.52858 -8.28085,-1.81144 -8.53963,0.64693 -8.28085,2.329 -7.11634,2.71716 -108.81552,-1.55268 -0.27549,-0.84238 -0.80055,-1.28087 -0.68618,-1.23513 -1.28088,-1.80695 -0.54895,-0.77769 -0.96066,-1.23513 -0.98353,-0.66331 -1.53248,-0.68619 -14.04392,-3.22506 -10.24702,-1.92133 -12.25984,0.27448 -9.14913,2.74474 -9.51509,3.38518 -4.3001,2.28727 -3.38517,-0.36594 -6.03843,-0.45747 0.18298,-4.84904 -16.8344,2.74473 -11.98536,-2.83623 -12.71729,-2.28727 -11.802381,-0.18298 -8.051234,2.19577 -10.5215,4.20863 -7.50229,3.38515 -7.319303,3.11071 -2.378774,0.91493 -11.710889,1.18938 -12.259834,1.28088 -13.449223,3.93411 -4.849039,2.92775 -4.666057,1.73831 -12.07685247,1.2809 z"
       id="path14"
       transform="translate(-0.45302876,-1.9491071)" /></g><g
     	id="zona-suelo"
	fill="transparent"
     	stroke="transparent"
     	role="button"
     	tabindex="0"
     	aria-label="Capa de nieve que cubre el suelo y los alrededores"
     	data-zona="Nieve"
     transform="translate(-33.668802,-27.813358)"><path
       id="rect14"
       d="M 832.69703 27.11986 L 432.69716 27.211328 L 506.25598 27.211328 L 506.21825 27.45369 L 411.42766 27.26042 L 411.1517 27.847981 L 832.69703 27.847981 L 832.69703 27.11986 z M 832.69703 27.847981 L 832.69703 155.29912 L 710.81042 71.056713 L 710.73497 71.09082 L 707.77856 71.971903 L 709.73245 71.705253 L 730.5012 84.759236 L 765.63394 109.00478 L 832.60557 155.48205 L 832.7885 226.65393 L 832.90994 226.80948 L 832.69703 285.30824 L 811.288 295.37222 L 795.27709 300.95327 L 781.37045 304.0642 L 776.70458 304.613 L 771.85527 306.80873 L 768.10459 310.01112 L 767.64674 311.65805 L 759.04675 315.77511 L 759.04675 316.96418 L 773.31926 323.09404 L 778.90032 324.46657 L 782.74298 322.81964 L 781.37045 325.38124 L 787.95816 322.72817 L 791.70935 318.88551 L 790.51976 322.63671 L 787.59178 329.04097 L 785.57898 331.05376 L 788.50697 333.52441 L 773.22779 338.00734 L 764.26193 342.03294 L 753.83156 344.77747 L 741.02304 343.67987 L 729.86093 342.03294 L 719.61401 343.49693 L 711.37989 346.4244 L 694.40005 346.88174 L 689.80653 343.87314 L 680.58745 339.11839 C 680.58745 339.11839 675.28274 337.24221 675.02397 337.27457 C 674.76518 337.30687 667.61667 337.40376 667.61667 337.40376 L 662.18238 338.9892 L 654.32187 341.12395 L 652.02537 339.63567 L 644.10028 336.1103 L 634.6223 333.91044 L 630.74088 334.33108 L 596.38846 272.12764 L 598.2607 267.4964 L 594.81956 273.41439 L 592.99022 272.31678 L 590.9769 271.58452 L 583.8409 273.23145 L 581.82811 277.62292 L 582.37691 279.45278 L 583.10865 285.49117 L 581.82811 289.15089 L 582.92572 294.45755 L 583.65797 299.03195 L 581.2793 302.8746 L 582.92572 305.25327 L 583.47504 310.55992 L 582.01104 315.50019 L 584.38971 321.17271 L 582.92572 326.84523 L 585.12196 334.16468 L 584.93851 340.56894 L 587.3177 345.32679 L 586.40251 353.74385 L 589.69636 357.76945 L 586.76837 359.0505 L 577.80251 367.6505 L 573.95985 367.46756 L 562.43188 371.12729 L 559.52973 371.6332 L 574.45698 374.73223 L 574.26268 379.32575 L 572.58061 380.03734 L 572.9041 383.78956 L 593.73591 385.53623 L 594.3829 386.50671 L 594.25319 389.87084 L 590.82446 392.13531 L 590.56556 394.20546 L 583.8378 396.08132 L 575.68585 399.70435 L 568.1814 401.06293 L 557.6363 403.71548 L 547.02661 408.17929 L 545.40914 405.13865 L 541.20423 399.96325 L 537.2577 395.43433 L 532.4704 391.16482 L 528.97707 389.22386 L 523.15469 385.79512 L 520.63133 384.24225 L 516.42642 378.87307 L 519.20196 378.39868 L 517.78395 378.62967 L 513.39249 377.71448 L 508.63516 375.33581 L 502.7797 372.40783 L 497.83892 369.29742 L 493.44746 368.01636 L 488.1408 368.93155 L 483.0176 371.49316 L 479.90668 376.25049 L 472.77017 378.44622 L 465.08536 383.387 L 459.41284 388.32727 L 453.00806 385.9486 L 445.5062 382.28888 L 436.72275 382.47181 L 427.93983 386.86379 L 419.88864 392.35286 L 411.47106 389.60833 L 401.95588 385.03393 L 391.70896 381.74008 L 382.01085 380.64247 L 365.35967 384.11874 L 358.40609 382.28888 L 345.7805 381.55714 L 336.44825 383.02113 C 336.44825 383.02113 332.60585 382.65526 331.69092 382.65526 C 330.77602 382.65526 324.92027 380.64247 324.92027 380.64247 L 317.60134 378.26328 L 308.26909 376.25049 L 301.86483 374.60356 L 296.00938 376.98274 L 282.65154 383.56994 L 282.28567 380.64247 L 282.65154 375.51875 L 285.0302 368.74862 L 284.29847 366.73531 L 283.74914 360.33105 L 285.39607 353.37798 L 289.23873 352.46279 L 285.39607 342.39881 L 287.043 336.72629 L 289.42167 332.88363 L 288.32406 323.73483 L 289.97099 319.5263 L 288.68993 317.51299 L 288.87286 312.20685 L 290.33686 307.63194 L 288.32406 303.42341 L 288.66977 300.19673 L 288.5411 300.78688 L 277.67251 297.51989 L 267.09796 295.92154 L 258.81785 297.15661 L 253.41973 299.12341 L 244.81974 305.1618 L 239.74201 308.40967 L 232.54865 314.04963 L 219.7391 313.91993 L 205.83504 314.82116 L 201.31542 316.04951 L 202.41354 318.06231 L 208.45193 320.98978 L 212.66046 321.63057 L 219.1567 318.61111 L 218.42445 322.3623 L 215.67991 328.12629 L 215.13059 330.41349 L 212.20312 333.15803 L 208.8178 334.98789 L 211.01353 336.08601 L 210.5562 337.64147 L 207.9946 338.83055 L 206.89647 339.92867 L 210.09886 342.39881 L 213.20978 345.96706 L 214.85619 348.986 L 216.50312 348.07133 L 222.35858 347.52253 L 217.69271 352.00546 L 218.33298 352.82866 L 224.0055 352.55426 L 227.20789 350.90733 L 223.54817 355.02439 L 218.24152 358.95904 L 215.95432 360.42251 L 219.97991 361.52064 L 225.1951 361.24624 L 223.54817 363.3505 L 217.32684 366.36944 L 211.105 367.10169 L 212.75193 370.02916 L 220.62018 374.05476 L 228.39697 378.17182 L 232.33109 377.07421 L 230.77563 381.28274 L 227.93963 385.03393 L 223.63964 389.33393 L 219.06524 392.16993 L 212.29459 392.71925 L 214.49032 395.64672 L 223.4567 398.02539 L 228.0311 399.12351 L 233.33775 397.84245 L 230.40976 401.86805 L 226.47564 405.71071 L 223.27377 407.63203 L 220.07138 409.00456 L 221.35244 410.19415 L 225.56097 410.19415 L 224.92018 412.11497 L 230.95909 411.65763 L 233.06335 410.37709 L 226.65857 417.05575 L 230.3183 425.47281 L 230.77563 427.57707 L 223.63964 425.83868 L 188.41543 425.74721 L 188.06868 434.42316 L 188.7813 426.9368 L 223.91404 426.57093 L 236.72307 429.4984 L 236.35669 438.64771 L 254.65531 424.74107 L 265.2681 415.59176 L 279.17475 413.39602 L 285.76194 409.37043 L 299.6691 408.27282 L 303.6947 410.46855 L 306.9467 406.75612 L 312.44558 403.97438 L 317.81528 402.87419 L 323.12038 404.03897 L 327.77798 403.26279 L 333.85926 403.13308 L 339.61705 402.3569 L 344.27517 403.71548 L 350.93884 408.0501 L 357.73171 410.63754 L 362.9071 411.86692 L 370.02347 416.52503 L 373.84029 420.08295 L 377.46332 416.52503 L 384.06188 414.19598 L 387.29683 414.32517 L 390.66097 415.61914 L 393.5073 418.07739 L 396.35416 420.79454 L 400.36477 424.15867 L 405.02288 427.26391 L 406.05796 431.14584 L 407.61083 436.58014 L 410.19827 433.216 L 413.69212 429.07569 C 413.69212 429.07569 417.57378 427.00539 418.09133 426.74663 C 418.60889 426.48784 423.00783 425.32346 423.00783 425.32346 L 436.46437 418.85409 L 442.93374 417.6893 L 450.1793 417.81849 L 462.21267 420.01836 L 465.706 418.33629 L 472.04618 417.56011 C 472.04618 417.56011 479.29203 420.40626 480.45652 420.53564 C 481.62103 420.66502 492.23048 421.70043 492.23048 421.70043 L 496.88859 424.28838 L 500.51162 429.07569 L 504.65194 435.67425 L 506.4632 440.07347 L 517.0734 448.613 L 524.31896 455.21208 L 529.62406 462.97543 L 531.56451 465.30448 L 530.78833 470.86797 L 529.10626 473.32622 L 523.41307 477.98433 L 519.27275 483.28943 L 516.9437 488.72373 L 516.16752 494.4164 L 515.26163 498.42753 L 534.28166 501.79166 L 546.57393 500.62739 L 560.93584 502.82674 L 578.0149 502.82674 L 588.2365 503.47373 L 593.5416 506.44978 L 598.45862 509.81391 L 608.55051 512.01326 L 633.78153 514.60122 L 634.42851 501.01548 L 634.9458 493.76941 L 638.69802 488.72373 L 643.87393 488.85292 L 647.62616 491.57006 L 650.60169 495.84009 L 653.44854 499.8507 L 654.87171 501.79166 L 655.2598 514.98931 L 655.5187 518.35344 L 719.04816 524.82281 L 738.19789 523.39965 L 758.64109 524.04663 L 771.96792 530.25711 L 791.24685 534.65632 L 832.78075 539.05554 L 832.78075 630.14507 L 760.58205 629.62727 L 725.77643 620.95855 L 655.13061 605.69075 L 655.13061 630.14507 L 646.97917 629.49808 L 632.87564 622.899 L 633.52263 600.90293 L 514.09736 575.93132 L 514.61464 583.82386 L 509.43924 583.04768 L 503.09906 582.27099 L 496.88859 580.97753 L 496.5005 569.46195 L 443.32183 556.6524 L 427.01895 551.477 L 418.22052 549.27714 L 412.13924 547.98316 L 409.93989 547.07779 L 404.37589 541.25489 L 397.13034 536.72648 L 388.84971 534.91522 L 380.30966 535.56221 L 372.02903 537.89127 L 364.91267 540.60841 L 256.09709 539.05554 L 255.82165 538.21321 L 255.02118 536.93215 L 254.33492 535.69709 L 253.05386 533.88996 L 252.50506 533.11275 L 251.54439 531.87716 L 250.56099 531.21416 L 249.02827 530.52789 L 234.98468 527.30277 L 224.73724 525.38144 L 212.47753 525.65584 L 203.32873 528.40089 L 193.81355 531.7857 L 189.51355 534.0729 L 186.12823 533.70703 L 180.08984 533.24969 L 180.27277 528.40089 L 163.43814 531.14543 L 151.45283 528.30942 L 138.73577 526.02171 L 126.93339 525.83877 L 118.88221 528.0345 L 108.36037 532.24355 L 100.85798 535.62836 L 93.539049 538.73928 L 91.160383 539.65395 L 79.44947 540.84354 L 67.189237 542.1246 L 53.740445 546.05873 L 48.891129 548.9862 L 44.225264 550.72459 L 33.703425 551.8408 L 33.703425 632.3532 L 834.36618 632.3532 L 834.36618 27.847981 L 832.69703 27.847981 z M 33.703425 551.8408 L 33.703425 473.76598 L 32.88022 473.78045 L 32.148481 552.00565 L 33.703425 551.8408 z M 33.703425 473.76598 L 74.600154 473.04871 L 74.600154 458.80927 L 73.868415 460.60555 L 74.05135 463.94488 L 73.868415 465.3174 L 48.479267 455.52782 L 36.402485 453.10316 L 33.703425 453.13003 L 33.703425 473.76598 z M 33.703425 453.13003 L 33.703425 449.83204 L 32.559826 450.90743 L 32.514351 453.14192 L 33.703425 453.13003 z M 33.703425 449.83204 L 40.222407 443.7027 L 42.189212 440.63777 L 39.010078 438.76192 L 41.251802 436.63492 L 36.219551 435.90318 L 34.481156 434.18752 L 36.883076 433.0894 L 38.27834 431.57993 L 36.974543 430.93966 L 42.784008 425.28987 L 45.254141 419.45767 L 41.045613 419.89227 L 37.454617 419.54914 L 36.562682 418.86287 L 37.980684 417.14722 L 38.758414 415.45481 L 38.804406 414.05955 L 33.749417 416.14108 L 38.621471 412.86996 L 38.918611 411.20029 L 40.565539 408.3183 L 42.944205 401.34198 L 45.002994 397.61404 L 47.404398 395.62398 L 49.714851 388.78512 L 47.015791 389.19647 L 44.453673 388.05287 L 43.561738 386.88653 L 44.636608 385.76567 L 43.721935 384.55334 L 41.343269 383.18133 L 39.787808 381.41968 L 44.476928 379.08701 L 49.30299 373.82635 L 47.290193 373.39175 L 45.483068 371.97323 L 47.221463 370.94435 L 48.296333 370.0519 L 48.296333 367.81069 L 49.23426 365.50024 L 52.138992 359.43911 L 55.227176 353.08033 L 56.919579 351.06753 L 58.40631 349.1462 L 58.794917 347.97986 L 57.079776 348.1628 L 51.635664 348.20827 L 54.266511 345.2808 L 57.102514 342.35333 L 54.540913 342.16988 L 57.33144 338.09881 L 57.193981 336.10875 L 58.840909 329.52156 L 60.648034 324.83244 L 62.980708 320.30352 L 65.222432 313.35045 L 66.594958 306.99167 L 68.332836 306.16846 L 69.385485 306.76274 L 72.266963 314.03671 L 74.737613 319.8007 L 82.788801 327.57697 L 83.475064 329.4983 L 88.140929 331.51162 L 89.604923 331.46562 L 87.957995 333.66136 L 87.820535 334.85095 L 86.99733 335.85709 L 84.161327 337.86988 L 83.840933 338.60214 L 84.527196 339.5628 L 90.153726 341.66707 L 92.898262 345.32679 L 97.290242 349.99266 L 99.211571 352.09692 L 98.93717 355.11638 L 97.381709 356.76279 L 97.564643 358.50118 L 98.753718 359.0505 L 99.120104 360.14811 L 102.50491 360.33105 L 103.4201 359.23344 L 102.13904 362.89316 L 99.94331 365.45476 L 96.466519 366.64384 L 94.270788 367.6505 L 95.003043 368.84009 L 96.375052 369.57183 L 99.211571 370.39503 L 100.67505 370.85288 L 101.22437 371.81355 L 99.577441 373.23155 L 102.41344 374.32916 L 106.02769 374.78701 L 106.5765 375.33581 L 106.11916 377.07421 L 105.06703 378.85808 L 105.56984 380.09315 L 105.06703 380.73393 L 103.05423 383.24954 L 102.68784 385.81166 L 102.73384 388.8306 L 103.32863 389.51686 L 103.28264 390.47753 L 103.55704 391.94152 L 106.34757 392.39886 L 110.2817 393.35952 L 110.96796 393.35952 L 109.77889 395.23538 L 107.49117 397.38511 L 105.7073 398.89458 L 107.21677 399.67231 L 108.08597 399.26097 L 107.76609 400.54151 L 107.49117 403.01164 L 106.98836 405.11643 L 105.7073 406.3055 L 106.71344 407.67803 L 105.38691 408.50123 L 104.60917 409.69082 L 105.1585 410.83442 L 111.28835 410.65149 L 115.86275 411.20029 L 117.55515 413.67043 L 118.88221 415.68322 L 119.29355 418.56522 L 119.06514 421.03587 L 118.37888 422.77375 L 117.14381 424.69508 L 115.49688 427.11973 L 112.75235 429.81879 L 114.30729 433.52399 L 117.96702 434.07331 L 117.14381 435.90318 L 112.93528 439.47092 L 117.14381 441.94157 L 119.33954 442.58184 L 119.06514 443.95437 L 123.1822 443.40505 L 133.61206 446.9733 L 137.08885 442.94771 L 144.49976 439.92877 L 149.8059 434.43918 L 153.00829 431.69413 L 156.21068 426.388 L 151.91016 428.12639 L 142.9443 429.4984 L 136.81444 428.03492 L 136.72298 427.57707 L 138.91871 426.02213 L 137.72912 424.46667 L 133.33765 421.90507 L 129.58646 418.70268 L 132.60592 417.42162 L 132.51445 413.57896 L 133.61206 410.37709 L 135.07605 407.81497 L 136.44857 406.35149 C 136.44857 406.35149 140.83991 404.33874 141.29737 404.15576 C 141.75482 403.97277 147.06136 400.67897 147.06136 400.67897 L 154.19788 398.66617 L 160.05334 397.65952 L 154.38081 396.65338 L 159.77842 391.34672 L 153.74003 392.81072 L 149.2571 392.44485 L 149.2571 391.25526 L 146.60403 390.43205 L 142.9443 387.9614 L 150.81256 385.9486 L 157.85709 382.10594 L 154.65522 381.00834 L 156.21068 378.62967 L 163.07227 373.68889 L 169.11066 365.45476 L 164.26186 368.4737 L 159.77842 370.02916 L 160.23627 368.1993 L 157.58269 369.20596 L 157.49122 366.64384 L 154.1059 367.01022 L 147.42723 367.37609 L 143.76751 366.1865 L 147.88457 363.25903 L 143.31017 361.42917 L 139.10164 357.86091 L 138.46137 355.93958 L 142.3955 355.84812 L 145.87177 354.10972 L 155.66136 348.52867 L 159.77842 346.97321 L 157.94855 345.41826 L 155.11255 344.96041 L 157.49122 342.94761 L 157.94855 342.30734 L 153.37416 341.39267 L 148.15897 338.19028 L 150.81256 337.73294 L 150.0803 334.80496 L 150.72109 332.06042 L 156.02722 329.68175 L 160.32774 328.9495 L 158.68081 327.66896 L 160.51067 326.20496 L 160.96801 325.10684 L 155.29549 323.5519 L 153.19122 321.26418 L 150.53815 318.33671 L 149.5315 316.59831 L 154.65522 317.23859 L 156.94241 316.68978 L 160.96801 315.86658 L 162.34053 314.85992 L 160.4192 314.03671 L 160.05334 312.93859 L 162.98081 311.29166 L 165.268 309.27886 L 161.42534 309.37033 L 159.13815 308.36419 L 163.89548 305.89406 L 164.68819 305.61914 L 152.58661 301.62817 L 135.50703 302.40435 L 123.34447 304.9923 L 119.98085 304.8626 L 111.6997 300.72228 L 113.89956 296.58197 L 114.80493 287.52464 L 112.08779 290.11259 L 111.56276 288.11633 L 111.56276 290.61489 L 114.49023 287.86984 L 113.94142 296.10448 L 111.19689 300.67887 L 95.460379 297.01915 L 81.919604 295.37222 L 69.476952 293.72529 L 61.425247 290.24902 L 54.838052 284.75943 L 50.995393 282.19783 L 44.957002 282.92957 L 40.19967 285.30824 L 33.703425 289.36794 L 33.703425 449.83204 z M 33.703425 289.36794 L 33.703425 221.07133 L 33.246089 221.63047 L 32.88022 289.88263 L 33.703425 289.36794 z M 33.703425 221.07133 L 35.112642 219.34895 L 33.703425 219.49985 L 33.703425 221.07133 z M 33.703425 219.49985 L 33.703425 157.85762 L 32.788752 158.77591 L 32.605818 219.61767 L 33.703425 219.49985 z M 33.703425 157.85762 L 55.042691 136.43153 L 52.459386 138.7394 L 33.703425 157.669 L 33.703425 157.85762 z M 33.703425 157.669 L 33.703425 27.847981 L 411.0685 27.847981 L 411.37701 27.215978 L 32.697285 27.302795 L 32.697285 158.68444 L 33.703425 157.669 z M 411.37701 27.215978 L 432.69716 27.211328 L 411.3796 27.211328 L 411.37701 27.215978 z M 411.0685 27.847981 L 409.45827 31.145454 L 409.45362 31.462748 L 411.1517 27.847981 L 411.0685 27.847981 z M 332.42266 30.138797 L 326.2928 32.700915 L 322.88577 37.45463 L 324.86705 35.023771 L 326.7429 32.565006 L 332.24231 30.430253 L 336.38262 31.983129 L 338.79178 33.710156 L 337.27198 32.060127 L 332.42266 30.138797 z M 409.42209 33.641943 L 409.3668 37.458247 L 409.61433 38.021004 L 409.42209 34.247074 L 409.42209 33.641943 z M 478.83905 36.44694 L 476.3808 38.711401 L 473.98715 39.164086 L 470.16981 38.775996 L 469.32903 39.74648 L 467.64696 41.29884 L 465.77059 41.557739 L 465.25331 44.080582 L 464.99441 46.15074 L 464.08852 47.89792 L 461.75998 49.709179 L 458.00724 51.067753 L 456.89 51.067753 L 457.76591 51.181957 L 461.97444 49.809431 L 464.07871 48.254488 L 465.17683 46.333158 L 465.5427 44.594763 L 466.00004 42.673433 L 466.64031 41.849711 L 468.6531 40.84357 L 469.8427 39.745446 L 470.48297 38.830773 L 473.04508 39.28811 L 476.24696 39.013708 L 478.07682 37.732649 L 478.99201 36.726509 L 480.08961 37.641182 L 485.49187 40.700427 L 480.58571 37.61121 L 478.83905 36.44694 z M 342.75123 36.549259 L 343.24009 36.899625 L 349.38597 42.787121 L 349.57562 42.885823 L 344.59091 37.36678 L 342.75123 36.549259 z M 410.01431 38.932059 L 412.02038 43.496638 L 412.66066 65.545939 L 404.01054 65.766597 L 412.72163 65.882869 L 412.13924 43.563301 L 410.01431 38.932059 z M 321.89359 39.213696 L 320.98615 41.20944 L 320.75412 42.038846 L 321.6321 40.651851 L 321.89359 39.213696 z M 700.67512 43.039302 L 700.65703 43.133353 L 704.05682 56.647774 L 700.67512 43.039302 z M 320.34691 43.493021 L 319.70561 45.783837 L 318.36099 47.372888 L 320.20893 45.698054 L 320.34691 43.493021 z M 448.36804 46.733133 L 448.0647 46.828735 L 448.15926 47.064896 L 449.25687 47.522233 L 451.36165 49.16916 L 453.55738 50.633154 L 456.61146 51.031579 L 452.70266 49.644584 L 451.08518 48.091707 L 448.36804 46.733133 z M 447.04409 47.151196 L 445.90979 47.509313 L 443.70992 47.639021 L 443.1296 47.980086 L 445.32326 47.888102 L 446.87821 47.247831 L 447.04409 47.151196 z M 363.43834 47.522233 L 363.28538 47.582694 L 363.44712 47.5243 L 363.43834 47.522233 z M 356.41189 47.715502 L 357.9255 49.514876 L 358.00508 49.485937 L 356.41189 47.715502 z M 364.55558 47.807486 L 381.96434 52.680057 L 381.91938 52.645951 L 375.97246 50.724621 L 364.55558 47.807486 z M 317.63958 48.226066 L 313.66722 52.920353 L 312.22338 56.993489 L 313.67497 53.396809 L 317.63958 48.226066 z M 670.9405 53.560624 L 667.73863 53.835025 L 667.29731 54.062919 L 671.59214 53.689298 L 670.9405 53.560624 z M 674.63278 54.289778 L 692.96964 61.021667 L 690.25095 54.295979 L 690.24526 54.292879 L 692.53246 60.605672 L 678.35142 55.024617 L 674.63278 54.289778 z M 665.34911 55.069575 L 662.24904 56.671545 L 601.79071 97.909855 L 665.34911 55.069575 z M 255.66145 55.116084 L 253.74839 72.787874 L 253.76803 72.740331 L 255.75809 55.150191 L 255.66145 55.116084 z M 385.99872 55.724833 L 396.66887 64.462801 L 391.6175 59.965401 L 385.99872 55.724833 z M 312.1779 57.12113 L 311.1051 60.148335 L 309.95323 66.720027 L 310.89322 62.647924 L 312.1779 57.12113 z M 259.02042 57.965006 L 259.72012 59.154597 L 262.17837 64.782678 L 264.44283 70.47587 L 269.41565 78.290897 L 269.38516 77.989107 L 268.37902 76.342179 L 264.07851 69.205664 L 260.78517 60.514204 L 259.02042 57.965006 z M 693.97578 63.511437 L 694.44501 64.91807 L 694.52924 64.879829 L 693.97578 63.511437 z M 121.99261 67.742187 L 121.81536 67.838822 L 170.84906 111.74932 L 175.24052 114.67679 L 188.41543 120.07491 L 202.96234 131.87729 L 239.55908 105.98533 L 240.19935 106.25973 L 238.91881 113.12185 L 232.54917 122.16781 L 239.21181 113.10944 L 240.31149 106.05768 L 245.43727 98.181156 L 240.65668 105.16213 L 216.22872 121.90477 L 203.05381 131.51142 L 188.7813 119.98344 L 179.9069 116.14078 L 171.3064 111.84079 L 121.99261 67.742187 z M 121.79159 67.851741 L 120.98647 68.290991 L 104.97556 84.3019 L 118.60729 71.035526 L 121.79159 67.851741 z M 104.97556 84.3019 L 100.12624 89.150699 L 91.343318 99.398136 L 86.402534 106.9 L 80.383263 114.63028 L 85.945198 107.72373 L 91.526252 99.398136 L 95.09451 95.281074 L 104.97556 84.3019 z M 295.73446 67.925122 L 280.41808 78.028381 L 295.73446 68.290991 L 308.08616 78.080574 L 307.62882 78.812312 L 303.89313 85.328194 L 305.00573 83.673514 L 308.24067 78.368412 L 309.23079 70.84329 L 307.99469 77.897639 L 295.73446 67.925122 z M 438.22809 68.92196 L 437.08862 81.099511 L 448.43367 86.954968 L 451.47121 88.51973 L 449.89766 87.412821 L 446.6038 85.400024 L 443.58487 83.570161 L 437.63794 81.282446 L 438.22809 68.92196 z M 688.49291 68.975187 L 694.41607 71.4262 L 694.43209 71.381758 L 688.49291 68.975187 z M 480.10253 72.197729 L 479.44934 72.316585 L 453.37445 89.425618 L 453.06542 89.341385 L 454.47206 90.065889 L 464.17017 92.810424 L 468.92751 96.10428 L 482.28535 103.60666 L 493.26452 108.72987 L 495.41736 109.5076 L 490.67812 106.83386 L 474.69873 99.329406 L 465.4471 92.989741 L 459.62471 90.984179 L 453.80233 89.560493 L 480.10253 72.197729 z M 697.79622 77.204142 L 693.38512 80.616337 L 697.82775 77.399479 L 697.79622 77.204142 z M 703.81291 77.365889 L 703.77519 77.660445 L 704.85367 78.158089 L 703.81291 77.365889 z M 697.83808 77.463041 L 698.86386 84.643998 L 697.82878 87.490336 L 693.94685 86.714156 L 689.28873 96.288765 L 686.44239 102.24086 L 684.37224 105.86389 L 676.0916 114.9207 L 671.17459 123.46023 L 670.76066 125.18364 L 671.43349 123.46023 L 676.34999 114.9207 L 684.76033 105.60499 L 694.07655 87.102246 L 698.21687 87.749234 L 699.12224 85.420178 L 697.83808 77.463041 z M 269.43839 78.511555 L 269.74742 83.026525 L 269.84612 84.704976 L 270.02543 84.3019 L 269.43839 78.511555 z M 492.71055 79.972448 L 513.32118 93.442427 L 524.13861 86.230981 L 523.54794 85.85736 L 513.20956 93.084826 L 492.71055 79.972448 z M 703.2977 81.389933 L 703.29511 81.409053 L 703.62429 82.012634 L 703.2977 81.389933 z M 249.24634 83.79392 L 244.86573 91.712817 L 238.18655 97.476806 L 238.60048 97.559488 L 245.68118 91.372269 L 249.10992 84.126717 L 249.24634 83.79392 z M 268.35319 85.698714 L 268.00075 85.808268 L 268.30668 86.233048 L 268.1041 85.85736 L 268.35319 85.698714 z M 301.02871 89.694852 L 297.93071 94.365885 L 292.16672 105.25359 L 288.90077 117.25389 L 292.19617 105.41069 L 297.63098 94.995304 L 301.02871 89.694852 z M 270.99488 90.819331 L 270.07091 91.11337 L 275.8287 92.860034 L 275.761 93.26621 L 275.88089 92.810424 L 270.30035 91.072029 L 270.99488 90.819331 z M 709.16142 92.154134 L 709.44099 92.666247 L 711.83723 93.039351 L 711.91939 93.097745 L 711.65429 92.901892 L 709.16142 92.154134 z M 715.8654 95.893957 L 716.54908 96.378682 L 722.22161 98.80334 L 724.78321 100.81614 L 727.07299 103.18498 L 726.20121 101.95974 L 721.99268 98.482946 L 715.8654 95.893957 z M 273.78179 96.108414 L 273.62935 96.224169 L 273.61798 96.26396 L 273.78179 96.108414 z M 246.45788 96.612259 L 243.69836 97.615816 L 246.35918 96.764188 L 246.45788 96.612259 z M 240.31149 97.901586 L 241.84628 98.208544 L 242.04471 98.144982 L 240.31149 97.901586 z M 271.28686 102.58916 L 271.68838 102.75814 L 273.11155 104.11671 L 275.05252 105.99308 L 275.1507 106.12486 L 274.23448 104.6128 L 272.03823 102.78294 L 271.28686 102.58916 z M 550.02591 102.60052 L 573.09841 117.24976 L 573.14388 117.21927 L 550.02591 102.60052 z M 279.00938 111.55243 L 279.12824 114.46802 L 279.38662 115.17392 L 279.00938 111.55243 z M 503.27528 112.33171 L 507.39131 113.80139 L 503.81116 112.46245 L 503.27528 112.33171 z M 510.1932 114.84939 L 513.9413 118.06211 L 517.78395 123.18583 L 519.24795 127.21143 L 521.59923 129.48571 L 520.37243 127.73026 L 516.55561 120.2904 L 511.7683 115.4385 L 510.1932 114.84939 z M 279.73905 116.13717 L 280.09872 117.12057 L 281.77252 118.98712 L 281.27901 118.06211 L 279.73905 116.13717 z M 288.21399 119.72196 L 286.82286 120.67797 L 286.82699 120.67849 L 288.05327 120.31055 L 288.05586 120.2904 L 288.21399 119.72196 z M 283.12696 119.73488 L 283.78635 120.09661 L 286.15365 120.54982 L 283.12696 119.73488 z M 75.565986 119.76227 L 65.359374 127.8517 L 63.438044 125.8389 L 63.621496 128.76689 L 55.767712 135.78351 L 64.301558 129.01338 L 64.353234 128.30903 L 64.510847 128.84698 L 66.457498 127.30289 L 75.565986 119.76227 z M 731.84892 121.16477 L 733.42919 123.32277 L 733.48965 123.32794 L 731.84892 121.16477 z M 228.71943 127.60623 L 228.0311 128.58343 L 228.12257 130.04743 L 222.26711 132.97541 L 223.04432 133.26894 L 222.52084 133.03536 L 228.60212 129.80041 L 228.27863 128.37725 L 228.71943 127.60623 z M 188.59836 127.94316 L 188.51361 133.45239 L 188.65366 132.58216 L 188.87638 128.4775 L 188.59836 127.94316 z M 64.902038 128.85835 L 64.641588 129.29295 L 69.659887 146.42472 L 72.723782 151.80682 L 71.123363 147.6138 L 66.823367 135.81142 L 64.902038 128.85835 z M 189.11771 128.94155 L 191.04731 133.2617 L 192.50303 139.27839 L 193.52571 143.02183 L 190.97703 132.51756 L 189.11771 128.94155 z M 64.186319 130.57659 L 63.346577 134.62234 L 63.25511 140.01995 L 61.33378 145.601 L 60.108532 149.48138 L 63.438044 140.7522 L 64.186319 130.57659 z M 669.62172 131.69436 L 669.62172 134.84662 L 670.11678 136.33077 L 669.75142 133.16455 L 669.62172 131.69436 z M 231.19008 133.94073 L 228.20163 134.36241 L 231.07226 134.09628 L 231.19008 133.94073 z M 188.25472 135.06004 L 185.9453 145.78393 L 181.80188 157.42147 L 183.70461 152.92872 L 187.00363 142.83631 L 188.25472 135.06004 z M 207.07941 136.45169 L 204.2434 156.76311 L 202.23061 161.42897 L 194.36855 145.70435 L 195.38193 148.23857 L 198.32542 154.31933 L 201.10716 159.36553 L 202.23939 161.59744 L 204.30955 156.7781 L 207.09026 136.47029 L 207.07941 136.45169 z M 670.18757 136.54316 L 670.39841 137.17567 L 675.43428 138.37457 L 674.92682 137.95185 L 670.18757 136.54316 z M 675.83271 138.70685 L 675.83271 139.24583 L 676.41252 139.18951 L 675.83271 138.70685 z M 685.14842 138.72803 L 684.37327 138.77454 L 682.51137 140.97441 L 685.14842 138.72803 z M 208.7036 139.23601 L 214.46655 149.14394 L 215.30733 150.76141 L 216.47211 150.76141 L 212.20312 153.01192 L 208.90927 157.58632 L 208.74804 158.16716 L 209.88905 156.22826 L 212.39639 152.99331 L 216.27781 150.87458 L 216.82765 150.8906 L 216.83282 150.88543 L 214.76472 149.62659 L 208.7036 139.23601 z M 227.10764 139.34402 L 226.56711 140.01995 L 226.30666 141.66946 L 226.33766 141.63949 L 226.79086 139.76363 L 227.10764 139.34402 z M 285.45292 140.2866 L 284.49794 145.9741 L 279.38714 158.84825 L 279.23159 159.52728 L 284.56253 145.8444 L 285.20952 142.15728 L 285.45292 140.2866 z M 724.38581 141.08913 L 724.32587 141.11807 L 724.13312 141.59401 L 724.38581 141.08913 z M 532.27609 141.85032 L 533.52046 144.41193 L 534.93071 145.37879 L 533.18198 143.45074 L 532.27609 141.85032 z M 678.94569 141.99605 L 672.72747 142.35107 L 666.77899 145.71314 L 670.91569 143.64505 L 673.24475 142.60997 L 678.94569 141.99605 z M 723.49801 143.16601 L 723.45667 143.26781 L 725.8281 143.96286 L 725.1036 143.5882 L 723.49801 143.16601 z M 729.15142 145.68213 L 735.12159 148.89486 L 738.12399 149.29225 L 737.45478 148.80339 L 730.40974 146.33326 L 729.15142 145.68213 z M 537.60497 147.21227 L 539.92524 148.80339 L 542.12097 151.54792 L 544.16064 153.36745 L 539.84566 148.36776 L 537.60497 147.21227 z M 665.91858 148.71347 L 665.83538 149.00493 L 665.86949 148.95015 L 665.91858 148.71347 z M 662.76632 154.04751 L 662.63506 154.25474 L 662.1183 155.61641 L 662.76632 154.04751 z M 58.286938 154.25629 L 56.85085 157.12898 L 55.521732 159.73812 L 56.667915 158.5015 L 58.286938 154.25629 z M 742.86634 154.26817 L 744.55771 159.79807 L 744.49983 159.23324 L 742.86634 154.26817 z M 645.0382 154.77253 L 643.35097 160.09986 L 645.0382 154.90172 L 649.43742 162.5426 L 649.43742 162.53588 L 645.0382 154.77253 z M 761.60835 155.39058 L 761.04404 156.09648 L 761.67811 155.49549 L 761.60835 155.39058 z M 579.37348 155.74302 L 578.88203 159.00587 L 579.43859 156.32489 L 581.49893 162.47749 L 579.37348 155.74302 z M 760.94586 156.21896 L 760.87661 156.30577 L 755.84436 167.83324 L 755.7255 168.75411 L 755.93583 167.74177 L 760.94586 156.21896 z M 181.56107 157.98887 L 178.35144 162.89297 L 174.14291 166.55269 L 174.35375 166.59558 L 178.59381 162.98857 L 181.37555 158.42761 L 181.56107 157.98887 z M 549.24043 158.17853 L 553.09963 164.72283 L 571.82303 178.26361 L 553.69029 164.21795 L 550.13185 158.97744 L 549.24043 158.17853 z M 76.27137 158.39815 L 75.332409 158.86737 L 76.338549 158.5015 L 76.27137 158.39815 z M 75.332409 158.86737 L 74.966023 159.05031 L 77.307482 160.72256 L 75.332409 158.86737 z M 208.26021 159.92416 L 207.9946 160.88017 L 208.21732 161.12305 L 208.06177 160.90239 L 208.26021 159.92416 z M 801.47878 160.27039 L 800.67521 161.24604 L 798.71254 164.79208 L 800.98321 160.88586 L 801.47878 160.27039 z M 744.65848 160.77889 L 744.72824 163.12189 L 746.92397 165.18017 L 744.63677 167.9247 L 745.82637 168.83989 L 744.55513 169.70237 L 746.23771 168.83989 L 745.68891 167.19296 L 747.97611 165.3631 L 744.8657 162.8015 L 744.65848 160.77889 z M 78.733752 161.74162 L 80.089741 162.71003 L 77.52814 165.27163 L 77.979276 165.54242 L 80.272676 162.98444 L 80.181208 161.88631 L 78.733752 161.74162 z M 659.20065 162.76688 L 657.97695 164.86494 L 656.16569 165.90002 L 654.87171 166.9351 L 667.55156 169.52254 L 666.2581 171.33431 L 666.85599 171.20926 L 667.94016 169.52254 L 655.7776 166.9351 L 658.36504 164.99413 L 659.20065 162.76688 z M 169.93439 163.25884 L 169.90131 163.35909 L 170.15246 163.75131 L 169.93439 163.25884 z M 214.08415 163.65985 L 214.70116 164.08411 L 214.14306 163.66811 L 214.08415 163.65985 z M 51.811364 163.74098 L 49.714334 165.18017 L 50.055399 165.63492 L 51.811364 163.74098 z M 649.6803 164.88354 L 649.43742 166.1584 L 652.28376 167.97018 L 652.48219 168.08542 L 649.6803 164.88354 z M 597.68192 165.57653 L 597.12071 169.44916 L 597.80904 165.91242 L 597.68192 165.57653 z M 78.224739 165.6897 L 79.195739 166.27209 L 79.632405 165.91191 L 78.224739 165.6897 z M 181.34299 165.70572 L 178.30235 167.12889 L 175.33716 166.79712 L 178.16851 167.3759 L 181.03603 166.47983 L 181.34299 165.70572 z M 50.331868 166.00337 L 50.538057 166.27829 L 54.746585 166.18682 L 55.936177 166.00337 L 50.331868 166.00337 z M 277.56916 166.79402 L 277.12268 168.74636 L 277.3175 171.70638 L 277.56916 166.79402 z M 77.675935 167.52576 L 76.430016 168.38256 L 76.446036 168.5412 L 77.675935 167.52576 z M 222.04852 167.68854 L 222.61231 168.53448 L 222.61799 168.48746 L 222.04852 167.68854 z M 796.47185 167.70611 L 793.81362 170.30389 L 793.81569 170.31939 L 796.47185 167.70611 z M 684.76033 167.71128 L 678.03205 173.14557 L 676.95977 173.32799 L 678.42014 173.14557 L 684.01102 169.18561 L 684.76033 167.71128 z M 134.06939 168.29109 L 129.49499 184.94227 L 130.46238 185.46988 L 130.84943 184.8229 L 129.74924 184.40225 L 134.05182 168.87555 L 139.16262 180.32653 L 146.86086 191.48657 L 146.66707 193.23324 L 147.69905 194.80678 L 147.06136 193.17639 L 147.42723 191.71291 L 144.13338 187.4124 L 139.37604 180.2764 L 134.06939 168.29109 z M 180.25572 168.44818 L 176.33865 177.71429 L 172.42519 168.88123 L 176.39394 178.19178 L 180.25572 168.44818 z M 654.25159 169.11274 L 656.09541 170.18348 L 656.42459 169.78144 L 654.25159 169.11274 z M 677.64396 169.26416 L 676.97941 169.39076 L 672.20967 173.92175 L 672.25773 173.91555 L 677.64396 169.26416 z M 640.31756 169.67912 L 640.12119 170.29923 L 639.77703 172.02006 L 640.89789 169.91063 L 640.31756 169.67912 z M 76.773148 171.81335 L 76.795885 172.04228 L 76.849112 172.08827 L 76.773148 171.81335 z M 818.97849 172.04021 L 817.23493 176.70815 L 812.56906 184.94227 L 808.082 189.94765 L 809.07005 189.6102 L 812.56389 185.01668 L 817.4158 176.5743 L 818.97849 172.04021 z M 222.06247 172.34872 L 221.02171 175.76918 L 221.08114 175.73353 L 222.06247 172.34872 z M 754.96534 172.41487 L 754.56382 173.78016 L 754.25686 174.00185 L 754.70076 173.68869 L 754.96534 172.41487 z M 794.05443 172.44174 L 792.62403 173.87163 L 792.05042 174.75839 L 794.05443 172.44174 z M 682.35169 172.45052 L 680.49082 175.47463 L 678.4341 176.09165 L 680.7492 175.60382 L 682.35169 172.45052 z M 654.14979 172.68203 L 653.96582 172.88667 L 658.36504 176.50971 L 658.49991 176.58826 L 655.38899 173.92175 L 654.14979 172.68203 z M 602.91364 173.30319 L 604.41019 175.47463 L 606.09226 177.99747 L 605.38068 176.5743 L 604.41019 174.63334 L 602.91364 173.30319 z M 638.99154 173.49904 L 636.3669 176.12369 L 638.69802 174.05146 L 638.99154 173.49904 z M 733.65657 174.95786 L 731.55334 175.51855 L 731.60501 175.60795 L 733.65657 174.95786 z M 678.27545 176.13919 L 677.90286 176.25081 L 674.86687 179.98753 L 678.27545 176.13919 z M 636.15296 176.31385 L 633.65802 178.12615 L 635.21296 180.45934 L 635.21296 181.51147 L 634.11536 182.06027 L 634.66623 183.27984 L 635.20469 182.2029 L 635.59278 181.03811 L 634.04042 178.19178 L 636.15296 176.31385 z M 616.12007 176.70349 L 615.42037 177.03681 L 616.05496 177.54479 L 620.64073 193.41772 L 618.51372 184.01416 L 616.12007 176.70349 z M 165.45921 176.83734 L 164.62773 179.36121 L 161.15094 186.04039 L 161.42534 187.04653 C 161.42534 187.04653 160.60218 189.24217 160.4192 189.60813 C 160.23621 189.9741 159.22961 192.62759 159.22961 192.62759 L 158.2059 195.6212 L 161.54678 186.92561 L 161.32044 185.89053 L 164.87836 178.8708 L 165.45921 176.83734 z M 615.40125 177.04611 L 614.7615 177.35048 L 614.3083 179.48575 L 613.66906 181.49958 L 615.40125 177.04611 z M 575.0895 177.2678 L 574.06889 180.00303 L 573.73506 179.74465 L 588.4153 200.58731 L 594.27076 207.54089 L 600.85795 215.77501 L 605.24993 219.43474 L 606.07572 220.67342 L 605.44527 219.46678 L 601.69305 216.36102 L 589.40129 200.83484 L 574.52158 180.00303 L 575.0895 177.2678 z M 217.01833 178.17421 L 216.22872 178.62948 L 216.20908 178.65996 L 217.01833 178.17421 z M 274.39054 178.35869 L 273.88773 178.96796 L 272.24855 183.68911 L 273.88825 179.09766 L 274.39054 178.35869 z M 661.57931 178.37833 L 663.89287 179.72295 L 663.92904 179.61494 L 661.57931 178.37833 z M 595.37767 178.4052 L 593.08323 187.26099 L 594.0594 185.17843 L 595.37767 178.4052 z M 51.906448 179.06511 L 51.452729 180.09347 L 49.622867 184.302 L 47.863284 187.3814 L 50.629524 183.20387 L 51.906448 179.06511 z M 587.17197 179.41599 L 588.4954 183.36717 L 589.78938 186.60212 L 589.14239 186.73131 L 590.57538 187.97774 L 589.78938 185.56704 L 587.17197 179.41599 z M 76.97882 179.91053 L 77.090958 180.18494 L 77.89401 180.18494 L 77.927599 180.14773 L 76.97882 179.91053 z M 91.709187 179.91053 L 90.372834 187.18606 L 92.153604 180.5074 L 91.709187 179.91053 z M 751.26686 179.95704 L 751.4529 180.2764 L 751.27151 180.51825 L 751.49889 180.32188 L 751.26686 179.95704 z M 663.74766 180.15858 L 662.31622 183.43022 L 663.15234 181.944 L 663.74766 180.15858 z M 674.48705 180.41593 L 673.01841 181.12493 L 674.27983 180.65002 L 674.48705 180.41593 z M 608.39083 181.72644 L 608.68022 182.2029 L 609.79333 182.70571 L 608.39083 181.72644 z M 79.632405 182.2892 L 78.223188 182.95221 L 78.625748 183.93613 L 80.45561 183.02094 L 84.481204 186.68066 L 84.847073 188.51053 L 87.806583 188.61595 L 85.304927 188.32759 L 84.755606 186.68066 L 83.749466 185.3996 L 79.632405 182.2892 z M 750.49223 182.74912 L 750.46639 183.00647 L 750.49223 182.97546 L 750.49223 182.74912 z M 611.14363 183.31549 L 612.69134 184.01416 L 612.87479 183.54287 L 611.14363 183.31549 z M 634.32568 183.83019 L 633.24616 184.71334 L 631.46229 186.8636 L 632.3196 187.31267 L 632.48755 186.47241 L 634.32568 183.83019 z M 664.27424 184.51594 L 664.18742 184.53196 L 663.53992 186.47396 L 664.27424 184.51594 z M 739.77144 185.06939 L 744.22285 188.31467 L 742.94437 187.22947 L 739.77144 185.06939 z M 805.70592 185.17843 L 806.63661 187.40878 L 805.7147 185.18101 L 805.70592 185.17843 z M 96.608113 185.73343 L 98.02198 187.4124 L 102.96276 191.98732 L 104.30015 192.45034 L 102.04757 190.61479 L 96.608113 185.73343 z M 130.22312 185.86986 L 127.55816 189.49755 L 128.97306 187.96069 L 130.22312 185.86986 z M 182.22201 186.63984 L 182.1941 186.68066 L 181.89283 188.93944 L 182.22201 186.63984 z M 632.24208 187.69921 L 631.00443 189.97452 L 627.1163 191.48399 L 627.27288 191.7372 L 631.84056 189.70735 L 632.24208 187.69921 z M 661.78085 187.72453 L 662.37616 189.57764 L 662.56582 189.07122 L 661.78085 187.72453 z M 591.28593 188.59528 L 592.11844 189.31926 L 592.40524 188.70741 L 591.28593 188.59528 z M 127.08584 190.00397 L 122.6334 191.07213 L 123.1822 192.90199 L 123.34188 193.02963 L 122.76259 191.35686 L 124.70356 191.16308 L 127.08584 190.00397 z M 207.78944 191.08866 L 203.4202 194.36598 L 201.36658 197.52445 L 203.43622 194.4621 L 207.78944 191.08866 z M 627.59792 192.26172 L 628.30537 193.40532 L 628.81749 194.20527 L 628.73532 193.58877 L 627.59792 192.26172 z M 269.26372 192.28446 L 268.51855 194.43006 L 268.41881 194.92202 L 269.26372 192.28446 z M 105.04119 192.70665 L 107.25708 193.47405 L 107.53716 193.08492 L 105.04119 192.70665 z M 621.08153 194.94373 L 621.10116 195.01194 L 628.34723 199.67005 L 631.32328 195.27084 L 629.12548 195.51527 L 629.1291 195.55557 L 629.9523 196.05839 L 628.94616 197.70531 L 628.03097 198.75745 L 622.71864 195.85323 L 621.08153 194.94373 z M 106.18117 194.96801 L 104.97556 196.01291 L 106.07317 196.74465 L 104.06037 198.94038 L 104.21282 199.12331 L 106.34757 196.56171 L 105.89023 195.37212 L 106.18117 194.96801 z M 124.8622 195.19177 L 125.28647 196.83612 L 125.71435 198.88974 L 126.0182 197.29345 L 124.8622 195.19177 z M 148.24889 195.64497 L 148.64008 196.24132 L 150.45185 198.86132 L 152.3923 199.79976 L 153.49198 200.80228 L 154.22268 200.57336 L 151.08696 198.48304 L 148.24889 195.64497 z M 43.675943 196.56171 L 41.992325 196.71468 L 41.754613 197.11052 L 42.212467 197.84277 L 40.382604 199.48918 L 36.997281 202.60011 L 37.546085 202.87451 L 41.754613 202.41717 L 43.709533 202.50605 L 44.225264 201.68543 L 37.454617 202.78304 L 43.675943 196.56171 z M 201.33867 198.77036 L 202.50501 201.68543 L 208.90927 202.23424 L 207.9946 204.0641 L 207.98064 204.17417 L 208.80592 202.63008 L 209.08083 202.04768 L 202.61094 201.54642 L 201.33867 198.77036 z M 125.6358 199.30212 L 124.64619 201.7769 L 122.26701 205.52809 L 123.48709 206.59521 L 123.82247 206.25983 L 123.09073 205.52809 L 125.28647 201.13611 L 125.6358 199.30212 z M 104.542 199.51812 L 105.84993 201.08754 L 106.34757 200.31291 L 104.542 199.51812 z M 155.79468 199.87056 L 154.98233 200.33513 L 155.14201 200.285 L 155.79468 199.87056 z M 106.0034 202.04097 L 106.2561 204.0641 L 107.13925 204.6713 L 106.71344 203.60676 L 106.89689 202.87451 L 106.0034 202.04097 z M 179.98132 202.27971 L 178.50647 206.2619 L 179.9684 202.37118 L 179.98132 202.27971 z M 207.94085 204.4925 L 207.81166 205.52809 L 210.5562 205.71103 L 209.45859 207.35795 L 211.54477 207.44839 L 209.80844 207.28767 L 210.74637 205.62214 L 208.04576 205.31467 L 207.94085 204.4925 z M 40.950011 206.89597 L 39.650349 208.45556 L 41.022875 210.9257 L 39.375947 214.03662 L 36.74665 217.35218 L 41.480212 211.56648 L 40.19967 208.08969 L 40.950011 206.89597 z M 216.31037 207.46596 L 213.15242 207.51867 L 213.66712 207.54089 L 216.29848 207.54089 L 216.31037 207.46596 z M 122.51144 207.57086 L 120.07128 209.09583 L 124.36973 211.51429 L 124.73766 211.2001 L 120.895 209.1873 L 122.51144 207.57086 z M 177.81556 208.10106 L 176.70452 211.01716 L 175.97278 213.39635 L 175.42346 217.97074 L 172.67892 223.8262 L 174.10106 226.31442 L 174.24265 225.96819 L 173.17553 223.68771 L 175.68236 217.70358 L 176.29679 213.33692 L 176.81459 210.76498 L 177.81556 208.10106 z M 112.52652 208.37495 L 114.96513 210.05133 L 115.03955 209.82809 L 112.52652 208.37495 z M 216.00651 209.40434 L 215.49801 211.74425 L 215.6794 211.4931 L 216.00651 209.40434 z M 114.62665 211.06522 L 114.49023 211.38355 L 116.32009 213.02996 L 118.88221 211.38355 L 118.65483 214.55958 L 119.24807 211.2001 L 116.41156 211.93235 L 114.58169 211.2001 L 114.62665 211.06522 z M 189.88562 211.39027 L 189.88252 211.39595 L 192.07515 213.76532 L 192.07515 213.76221 L 189.88562 211.39027 z M 123.52585 212.23363 L 118.56905 215.76364 L 118.51582 216.50675 L 123.52585 212.23363 z M 264.2015 215.67734 L 262.69565 223.08929 L 262.65896 224.02464 L 264.2015 215.67734 z M 192.28238 216.79821 L 193.14951 217.38008 L 195.31682 217.81675 L 196.83972 220.24141 L 196.83249 220.16647 L 195.18556 217.60487 L 192.28238 216.79821 z M 121.99261 219.06835 L 121.9616 219.1562 L 122.45356 221.37364 L 121.99261 219.06835 z M 208.93976 221.59171 L 210.4978 222.15808 L 210.52002 222.13535 L 208.93976 221.59171 z M 197.10895 223.06862 L 197.17665 223.96263 L 194.88583 225.59147 L 197.19836 224.00913 L 197.10895 223.06862 z M 120.54567 223.14665 L 120.2015 224.1161 L 120.23148 224.05513 L 120.54567 223.14665 z M 122.95844 223.64585 L 124.98881 232.79206 L 131.34759 247.38497 L 133.58932 251.04469 L 132.30826 252.0281 L 133.29166 254.20109 L 134.73292 258.24994 L 137.24904 262.13807 L 137.79785 263.80774 L 141.3661 265.0888 L 144.56798 262.9618 L 143.58457 261.38308 L 147.54144 258.38688 L 150.21776 253.97268 L 149.76042 252.50869 L 154.51776 247.65937 L 154.56375 246.24137 L 160.83055 238.12145 L 164.9936 227.48592 L 167.7247 230.33536 L 170.18347 235.51076 L 172.77091 229.55867 L 173.74242 227.18879 L 173.22773 228.21766 L 151.8187 225.10726 L 122.95844 223.64585 z M 119.89093 224.74811 L 104.06037 226.02193 L 88.872668 228.58353 L 90.153726 230.77926 L 93.996386 231.87739 L 91.068916 234.62192 L 91.251851 236.08592 L 90.70253 237.91578 L 91.251851 239.37977 L 89.239053 241.39257 L 89.970792 242.49018 L 89.787857 243.95417 L 92.898262 248.89495 L 98.570784 250.72482 L 99.485973 252.55416 L 99.851842 256.94614 L 96.557987 262.43521 L 97.290242 263.3504 L 94.54519 266.27787 L 94.761714 266.42257 L 97.466975 263.7173 L 97.208593 262.55303 L 100.70192 256.85984 L 104.19525 256.21285 L 102.25428 252.20173 L 102.77208 241.98013 L 104.84224 236.67503 L 116.00021 232.47218 L 116.52628 231.42005 L 118.88221 226.79966 L 119.89093 224.74811 z M 206.72232 226.07516 L 199.21115 233.70725 L 197.10585 230.89967 L 199.26335 233.81267 L 206.72232 226.07516 z M 609.57732 227.37637 L 613.30112 236.81765 L 614.39873 247.79683 L 612.38593 259.32481 L 610.73952 259.69068 L 607.81153 259.69068 L 604.51768 262.43521 L 602.32195 262.25228 L 600.16549 264.67849 L 602.34003 262.42333 L 604.41019 262.94112 L 607.77433 259.83589 L 612.82053 259.96508 L 614.7615 247.15553 L 613.72642 237.45172 L 609.97419 228.1355 L 609.57732 227.37637 z M 262.47654 228.67552 L 262.30756 232.98791 L 264.83092 238.61599 L 265.22108 239.03044 L 262.52357 232.79206 L 262.47654 228.67552 z M 282.83447 240.47738 L 280.82167 247.06509 L 276.79608 247.6139 L 275.77599 246.93383 L 276.66999 247.86711 L 280.81031 247.28523 L 282.75127 242.04473 L 284.95062 241.65664 L 287.40887 243.72679 L 286.0503 250.77856 L 286.4942 253.25438 L 286.4942 249.07789 L 287.5918 243.5883 L 285.94539 242.12431 L 282.83447 240.47738 z M 266.66802 240.56833 L 267.93616 241.91553 L 269.94172 243.27411 L 272.27078 243.27411 L 273.63245 244.69573 L 272.40462 243.22243 L 269.65957 243.0395 L 266.66802 240.56833 z M 287.34686 258.29645 L 288.57366 270.31639 L 289.17879 270.83522 L 289.23873 270.66985 L 288.50699 269.57173 L 288.14112 261.52054 L 287.40887 258.59307 L 287.34686 258.29645 z M 94.79272 266.44324 L 96.611213 267.65557 L 96.690795 266.82254 L 94.79272 266.44324 z M 96.556436 268.23434 L 96.192117 269.20586 L 96.460835 269.23686 L 96.556436 268.23434 z M 99.898351 269.63684 L 104.06037 270.12053 L 111.92862 270.85279 L 114.67368 271.58452 L 116.86941 273.96319 L 116.50302 278.90397 L 116.23224 279.27656 L 116.487 279.1143 L 117.39289 273.80971 L 114.93464 270.05749 L 99.898351 269.63684 z M 182.60441 271.22176 L 180.01698 280.14989 L 175.56712 288.9354 L 178.16851 284.75943 L 180.82158 278.62957 L 182.7765 271.60933 L 182.60441 271.22176 z M 184.50352 274.29082 L 185.15981 275.42718 L 188.92186 280.38295 L 184.50352 274.29082 z M 287.29053 278.40995 L 287.21508 278.66161 L 287.24712 278.74274 L 287.29053 278.40995 z M 113.88561 282.50324 L 113.57555 282.92957 L 112.20148 286.05238 L 113.88561 282.50324 z M 289.68987 290.70584 L 289.54414 291.53576 L 289.96944 292.89744 L 289.6046 291.52956 L 289.68987 290.70584 z M 174.29536 290.788 L 171.60664 293.47673 L 171.9632 293.42143 L 174.29536 290.788 z M 177.34479 292.17035 L 172.96211 293.26589 L 177.12671 292.61787 L 177.34479 292.17035 z M 175.73248 295.47971 L 175.61776 295.67608 L 168.37686 304.33963 L 168.37893 304.3386 L 171.3064 301.31914 L 175.60639 295.73809 L 175.73248 295.47971 z M 829.28691 311.33197 L 830.71007 314.955 L 831.09868 322.33026 L 832.90994 328.15265 L 832.78075 457.92922 L 826.05248 456.76444 L 814.278 454.43538 L 803.15052 452.36522 L 792.67002 453.4003 L 786.58874 456.24716 L 784.38939 457.79952 L 778.04921 455.47046 L 777.79031 452.62412 L 781.93114 450.42477 L 779.47237 448.87189 L 773.5208 442.79061 L 776.62604 441.23825 L 777.01413 437.22713 L 777.66112 433.4749 L 781.02525 431.27504 L 790.59986 417.17202 L 793.18782 414.97216 L 789.0475 412.6431 L 788.2708 410.31404 L 784.90667 406.30343 L 782.44842 401.90422 L 781.93114 398.15148 L 783.87159 392.84689 L 790.34096 389.35356 L 796.29305 381.7194 L 800.56308 377.96718 L 803.15052 375.63812 L 801.72735 373.17987 L 798.7513 368.26286 L 794.74018 364.51064 L 797.71622 363.47556 L 804.57368 349.88982 L 812.07865 340.4444 L 817.25405 339.40933 L 818.93612 336.56299 L 820.23009 334.49283 L 821.39436 329.05854 L 824.4996 323.62424 L 826.31138 318.83694 L 827.47565 312.36757 L 829.28691 311.33197 z M 188.05989 434.63452 L 188.04956 434.89652 L 189.51304 437.91597 L 189.0557 449.99276 L 182.28557 452.64582 L 169.47653 457.12876 L 162.88934 458.04394 L 150.62962 456.03115 L 141.02297 451.91409 L 133.52059 447.61409 L 123.28504 443.73681 L 119.13335 444.24014 L 114.80493 446.70459 L 108.01207 452.72127 L 107.13874 452.85046 L 106.68605 454.59713 L 104.97143 456.24716 L 95.23507 462.78112 L 91.5154 467.37464 L 90.928356 466.59174 L 91.800654 473.04871 L 115.95422 471.95059 L 119.61394 467.19326 L 153.28269 467.19326 L 171.21493 469.0226 L 179.99837 469.75486 L 179.26612 459.50794 L 182.55997 453.65248 L 188.41543 456.57995 L 190.24529 455.48234 L 190.24529 437.18372 L 188.05989 434.63452 z M 74.874556 458.13541 L 74.758284 458.42118 L 89.970792 459.50794 L 90.770743 465.42541 L 90.884431 462.15015 L 89.978543 459.17463 L 87.546134 458.86715 L 74.874556 458.13541 z " /></g></svg>
