<?xml version="1.0" encoding="UTF-8" standalone="no"?>
<!-- Created with Inkscape (http://www.inkscape.org/) -->

<svg
   width="800.31628mm"
   height="602.80731mm"
   viewBox="0 0 800.31628 602.80731"
   version="1.1"
   id="svg1"
   xml:space="preserve"
   xmlns="http://www.w3.org/2000/svg"
   xmlns:svg="http://www.w3.org/2000/svg"><defs
     id="defs1" /><g
     	id="zona-cielo"
	fill="transparent"
     	stroke="transparent"
     	role="button"
     	tabindex="0"
     	aria-label="Cielo despejado sin perturbaciones"
     	data-zona="Cielo"><path
       d="M 0.18298261,0.36596523 V 131.74748 l 19.76212239,-19.9451 11.161939,-9.97256 -0.182981,-2.927717 1.921317,2.012807 12.351327,-9.789567 8.691673,-11.16194 4.94053,-7.502287 8.783167,-10.247026 20.860017,-20.86002 1.006406,-0.548947 49.31381,44.09881 8.60019,4.300091 8.87465,3.842636 14.27265,11.5279 13.17474,-9.606583 24.42818,-16.74291 5.76396,-8.4172 -4.57457,1.463863 -3.65965,-0.731933 6.67886,-5.763951 4.75755,-8.600183 4.11711,-10.247026 1.92132,-17.749314 1.82982,0.64044 3.29369,4.757547 3.29369,8.691673 4.30009,7.136324 1.0064,1.646843 0.64044,6.3129 -0.36596,0.82342 26.07502,-17.200364 12.25984,9.972551 3.1107,-17.749313 2.56175,-7.227813 6.03843,-7.136322 1.28087,-4.574565 1.37237,-3.019213 3.93414,-5.4894787 6.12992,-2.5617566 4.84905,1.9213176 3.20217,3.4766697 4.11713,1.829826 5.1235,5.672461 5.12352,2.927722 3.29369,3.659652 5.30648,-2.1043 12.53432,3.202196 5.94694,1.921317 9.69806,7.319306 6.67888,5.946934 14.36412,-0.365967 -0.64042,-22.049403 -2.65325,-6.038427 0.0915,-6.3129 1.9213,-3.93412607 h 94.87648 l -0.45744,2.92772177 -2.1958,3.3851783 -2.83623,2.1043003 -2.28729,2.4702647 -4.11711,2.836231 -6.67885,1.006404 -7.59378,-4.300091 -1.09791,-0.914913 -0.9149,1.006404 -1.82983,1.280879 -3.2022,0.274473 -2.56175,-0.457456 -0.64045,0.914913 -1.18938,1.097896 -2.0128,1.006404 -0.64045,0.823422 -0.45746,1.921317 -0.36595,1.738335 -1.09791,1.921318 -2.10429,1.555352 -4.20862,1.372369 -4.20859,-0.548947 -2.19578,-1.463861 -2.10431,-1.646844 -1.09789,-0.457456 -0.18298,-0.457457 -1.09789,0.640439 -1.55535,0.640439 -2.19581,0.09149 -1.82983,0.823421 -1.73831,0.731931 -0.45747,1.097896 -1.46386,30.649588 5.94694,2.287283 3.01921,1.829826 3.29369,2.012808 2.47026,1.738336 1.00639,0.274473 26.07503,-17.108873 1.0064,-0.182983 32.75391,20.951509 10.33851,-7.227813 49.77128,31.473007 88.92955,-60.658736 5.48947,-2.83623 3.2022,-0.274474 7.41079,1.46386 14.18116,5.58097 -2.28729,-6.3129 7.41079,4.391583 3.01921,-15.645013 3.84265,15.46203 7.13632,-4.757547 -4.02564,10.978957 8.05125,3.934127 -5.03203,2.287283 122.0494,84.354982 V 0.18298261 Z"
       id="path2" /></g><g
        id="zona-montañas"
	fill="transparent"
     	stroke="transparent"
     	role="button"
     	tabindex="0"
     	aria-label="Montañas de fondo, cubiertas de nieve en la cima"
     	data-zona="Montañas"><path
       d="m 0.27447393,131.83897 -0.18298262,60.84172 2.56175669,-0.27447 4.2086,-5.3065 1.6468437,-3.1107 -1.3723697,-2.47027 1.829826,-2.19579 1.738335,-2.1043 0.548948,-1.64684 -2.012809,-0.0915 -4.2086,0.45745 -0.548948,-0.27447 3.3851784,-3.1107 1.8298263,-1.64685 -0.4574567,-0.73193 3.019213,-5.03202 2.653248,-3.93413 2.195791,-3.84263 1.829827,-4.2086 1.372369,-3.11071 1.646844,-4.48307 1.097895,-4.11711 0.365966,-2.37877 -1.189387,0.18298 -4.2086,0.0915 -0.823422,-1.09789 4.666056,-3.2022 2.470266,-4.84904 2.287282,-4.57457 2.195793,-6.95333 1.921317,-5.58097 0.09149,-5.39799 1.006404,-4.84904 0.548949,-0.91491 1.921317,6.95334 4.30009,11.80237 2.65325,6.95334 2.561757,3.93413 -1.006404,0.36597 3.019211,2.83623 1.829826,0.18298 0.09149,1.09789 -2.378773,2.65325 1.738333,0.27448 -3.659653,3.01921 0.914914,3.29369 2.83623,2.65324 1.921319,1.37237 -1.37237,1.28088 -2.378773,2.65325 H 44.1903 l 0.54895,1.64684 0.82342,1.18939 1.555353,-0.73193 4.11711,3.1107 1.006404,1.28088 0.548947,1.64685 4.757549,0.54894 1.646844,-8.96614 3.202193,4.30009 7.136323,6.40439 2.470267,2.01281 3.019213,0.45745 -1.646843,2.28729 0.457454,1.18938 -2.287281,2.74474 2.287281,1.00641 -0.823421,1.28088 1.37237,1.28087 -0.182983,0.73193 0.73193,1.82983 7.59378,4.39158 -0.457457,1.37237 1.829827,0.73193 2.83623,-0.73193 -0.823423,4.66606 6.038426,-4.30009 -4.391583,-2.47027 3.659653,-2.28728 -1.46386,-1.28088 2.378774,-3.75114 1.097896,-2.74474 -0.457457,-2.19579 -0.73193,-2.83623 -1.37237,-1.0979 -0.548949,-1.82982 4.574566,-1.0979 3.293687,-4.48307 -1.006403,-0.54895 4.574563,-16.65142 5.3065,11.98536 4.75754,7.13632 3.29369,4.30009 -0.36596,1.46387 0.82342,2.1043 3.20219,3.20219 3.29369,2.19579 2.56176,-1.46386 1.09789,-3.1107 1.18939,-3.47667 c 0,0 1.0064,-2.65325 1.18939,-3.01922 0.18298,-0.36596 1.0064,-2.56175 1.0064,-2.56175 l -0.27447,-1.00641 3.47667,-6.67886 5.30649,-16.10247 6.4044,14.45562 4.75754,-11.25343 -2.92772,0.91492 -4.02562,-0.82343 4.2086,-3.65965 3.29369,-5.03202 4.30009,-12.07685 2.56176,-11.89387 0.0915,-5.94694 2.37877,4.57457 3.01922,12.44282 8.23421,16.46843 2.01281,-4.66605 2.83623,-20.31108 7.68527,13.17475 2.1043,1.28088 9.42361,-9.14913 0.27447,-1.73833 4.75755,-5.94694 -4.94053,0.45746 -4.11711,-1.55535 5.85544,-2.92773 -0.0915,-1.46386 10.88747,-15.46203 1.28088,-6.861847 -0.64044,-0.274473 -36.59652,25.89204 -14.54712,-11.80238 -13.17475,-5.397987 -4.39158,-2.92772 -49.039343,-43.915829 -3.202197,3.202196 -13.632204,13.26624 -9.881062,10.978957 -3.568161,4.117109 -5.58097,8.325708 -8.325709,10.338519 -11.16194,9.240617 -11.070447,8.78317 z"
       id="path3" /><path
       d="m 236.23056,60.10979 2.56175,3.65965 -1.0064,0.365967 5.58097,1.738333 -0.45746,1.738337 -1.82983,1.738333 -0.64043,1.646844 -1.00641,1.280879 -3.75114,1.46386 1.0064,1.37237 2.83623,0.73193 2.19579,1.829827 1.82983,3.019213 2.92772,3.751144 0.45746,4.391583 1.82982,2.287283 0.73193,1.372367 4.75755,1.28088 1.46386,-1.006404 3.93413,-14.455626 5.76396,-10.887467 5.76395,-8.691673 3.93412,-6.86185 0.45746,-0.73193 -12.35133,-9.78957 -27.63037,17.566333 z"
       id="path4" /><path
       d="m 421.28813,62.623911 26.65399,-17.5968 32.86461,21.478449 10.8686,-7.245741 48.90876,31.053177 93.67711,-63.141463 5.95185,-0.517554 20.44335,7.504517 1.29386,3.881649 -7.5045,3.364095 7.5045,3.105317 -4.14041,11.386166 7.50451,-5.434306 1.03511,7.245742 -1.03511,2.846541 -3.88165,-0.77633 -4.65796,9.574731 -2.84655,5.95186 -2.0702,3.622871 -8.28085,9.057177 -4.91675,8.539623 -1.55266,6.469418 v 4.91675 l 0.77632,2.32899 5.4343,1.29388 v 0.77633 l 8.02209,-0.77633 h 0.77631 l -2.84655,3.36409 -9.05716,0.51756 -5.95185,3.36409 -1.03511,3.62287 -3.10533,4.91676 -2.84655,7.50451 -1.81142,3.10532 -1.81144,1.03511 -1.29389,1.0351 12.68005,2.58777 -1.29387,1.81143 11.12737,-2.32898 -5.17551,4.91675 6.21064,-0.77633 6.21062,-4.3992 -4.14041,6.72819 -2.58776,0.77633 -3.3641,4.14042 -7.50453,3.62287 -2.84655,0.51756 -1.55265,4.65797 -1.81142,-3.10531 2.32897,-4.14043 0.77634,-2.32899 -4.91675,-2.58776 -3.62289,-3.10532 -1.29386,-1.29388 2.32899,-2.84655 -3.3641,-1.0351 -3.62288,-4.14042 v -2.07022 l -4.3992,-7.76329 -4.91676,15.52659 -0.51755,2.58776 -3.3641,3.3641 -2.58191,1.87535 1.55536,2.33302 v 1.05215 l -1.09792,0.54895 0.64045,1.41812 -1.5096,1.23513 -1.78409,2.15005 0.96065,0.5032 -1.41811,2.6075 -3.88837,1.50961 1.18938,1.92131 0.73194,1.14365 0.0915,1.0064 0.82341,0.5032 -1.00639,1.64685 -0.91493,1.05215 -5.31241,-2.90432 -1.74675,-0.97041 -2.45838,-10.86862 -2.39368,-7.31043 -1.35859,0.64694 -0.45283,2.1349 -1.29389,4.07573 -2.45838,-0.32347 -3.42879,-2.39368 -0.58224,-1.94082 -1.16451,-2.32899 -0.97041,-1.94082 -2.91124,-2.58777 -3.10531,-4.59328 -0.71162,-1.87613 -1.29389,8.92779 -3.68758,14.2327 -1.94082,-0.19408 -0.97042,-2.97593 -3.88165,-9.12187 -6.53409,-20.70212 -1.42328,9.44534 -2.26427,10.48045 -1.61738,4.33451 -20.37863,-15.78537 -3.55819,-5.24022 -4.98145,-4.4639 -5.30492,-6.14594 -4.14041,-2.13491 -2.52307,-2.78184 -2.78185,-4.91676 -2.84655,-2.1996 -2.97593,-2.58776 -4.20512,-6.01655 -3.81694,-7.439828 -4.78737,-4.852062 -7.95737,-2.975927 -5.56371,-1.358577 -7.5692,-4.269812 -15.97946,-7.50452 -9.25126,-6.340025 -5.82247,-2.005518 z"
       id="path5" /><path
       d="m 677.2181,44.768333 20.76908,13.054174 35.13267,24.245196 66.97162,46.477587 0.18299,71.18023 -2.10429,-2.65324 0.0915,-1.46387 -3.84264,-3.29368 2.74473,-2.19579 0.27448,-2.19579 -5.76395,-3.01922 -0.54896,-2.1043 0.64045,-25.52607 -2.01281,-7.22782 -2.19578,-7.86825 -2.83623,7.59378 -4.66606,8.23422 -4.75755,5.30649 -2.1958,-5.30649 1.09791,0.45745 -2.47028,-10.61299 -2.28727,-15.09606 -1.28088,1.55535 -2.83622,5.12351 -4.02564,3.93413 0.27448,2.1043 -1.46386,1.46386 -1.00639,1.55535 -1.82984,-2.1043 -1.92132,-10.06404 -1.55535,2.83623 -6.95333,12.44282 -4.30009,-1.18939 -3.11071,-3.38518 -1.09791,-2.37877 1.55535,-1.82983 -0.82341,-0.73193 -3.2022,-1.0064 -1.55535,-1.64685 -0.9149,-1.82982 0.82341,-1.46386 -5.1235,-7.68527 -0.73195,0.91491 -5.03203,11.5279 -0.36594,2.83623 -0.91493,3.11071 -4.94051,3.56816 1.18938,1.82983 0.64042,1.09789 -0.82341,1.0979 -0.18298,1.82982 -2.01282,2.47027 v 1.64684 l -2.47026,2.47027 -3.01921,-2.56176 -4.30009,-2.92772 -4.57456,-4.30009 -2.47026,-4.39159 3.75113,-1.18938 10.88747,-5.58097 -0.54895,-1.64685 2.28729,-1.82982 -3.1107,-2.56176 -0.36598,-3.56816 -2.28727,-6.95334 -4.75755,-3.47667 -7.04485,-2.47026 -5.30648,-2.74474 -1.73834,-0.45746 1.09789,-2.19579 5.48949,-2.65325 3.56815,-3.84263 0.64045,-2.56176 2.65324,-4.2086 2.47026,-3.842636 -5.76395,-0.457457 -2.01279,-2.653247 -1.92133,-13.99817 -3.38518,-4.757547 -4.2086,-3.47667 -6.49589,-2.74474 -3.84262,-2.83623 -2.74474,-0.823423 -5.76397,-10.978957 0.54896,-3.476669 2.37879,1.097896 5.39797,4.30009 -4.20859,-10.978956 z"
       id="path6" /></g><g
     	id="zona-cabaña"
	fill="transparent"
     	stroke="transparent"
     	role="button"
     	tabindex="0"
     	aria-label="Cabaña de madera, cubierta de nieve y con la chimenea echando bastante humo"
     	data-zona="Cabaña"><path
       d="m 230.00915,205.85544 2.92772,6.77036 4.2086,3.47667 2.74474,0.18298 2.74474,3.29369 1.64684,1.09789 4.02562,-0.54894 2.01281,-6.58738 3.1107,1.64684 1.64684,1.46387 -1.09789,5.48947 v 5.12352 l 0.91491,4.39158 0.73193,2.92772 0.36597,8.05124 0.73193,1.09789 -1.46386,4.02562 -0.54895,4.2086 2.01281,5.12351 0.91491,2.19579 -0.54895,5.30649 0.73193,2.74474 -1.46386,4.02563 -0.54895,5.1235 2.01281,4.20862 -1.46386,4.57454 -0.18298,5.30651 1.28088,2.01282 -1.64685,4.2086 1.0979,9.14913 -2.37877,3.84262 -1.64685,5.67246 3.84264,10.06406 -3.84264,0.9149 -1.64684,6.95336 0.54895,6.40437 0.73193,2.01282 -2.37878,6.77034 -0.36596,5.12352 0.36596,2.92772 13.35773,-6.58738 5.85545,-2.37876 6.4044,1.64684 9.33211,2.01282 7.31931,2.37876 c 0,0 5.85544,2.01282 6.77034,2.01282 0.91493,0 4.75755,0.36595 4.75755,0.36595 l 9.33212,-1.46386 12.62578,0.73194 6.95336,1.82983 16.65142,-3.47668 9.69806,1.09789 10.24705,3.29369 9.51508,4.57457 8.41721,2.74474 8.05122,-5.48947 8.78316,-4.39158 8.78319,-0.18299 7.50229,3.65964 6.40437,2.37879 5.67248,-4.94054 7.68527,-4.94054 7.13632,-2.19578 3.1107,-4.75755 5.1235,-2.56175 5.30651,-0.91493 4.39158,1.2809 4.94054,3.11068 5.85544,2.92775 4.75755,2.37876 4.39158,0.91491 24.70264,-4.02561 19.94511,-3.47668 11.5279,-3.65964 3.84265,0.18299 8.96615,-8.6002 2.92772,-1.28088 -3.2937,-4.02561 0.91491,-8.41721 -2.37877,-4.75753 0.18299,-6.4044 -2.1958,-7.3193 1.46386,-5.67245 -2.37877,-5.67248 1.46386,-4.94052 -0.54895,-5.30651 -1.64685,-2.37876 2.37879,-3.84265 -0.73194,-4.57456 -1.09789,-5.30649 1.28087,-3.65966 -0.73192,-6.03842 -0.54895,-1.82983 2.01282,-4.39158 7.13631,-1.64684 2.01282,0.73193 1.8298,1.09789 4.57457,-7.86825 2.92772,-3.29369 2.1958,0.18298 3.2937,-2.74473 h 2.92772 l 1.64684,-0.36597 2.01279,-11.5279 -1.09789,-10.97896 -5.12349,-12.99177 -2.92775,-4.39158 -4.39158,-3.65965 -6.58736,-8.23422 -5.85544,-6.95334 -14.82159,-21.043 -20.49407,-14.82159 -4.20859,-7.13632 -6.77037,-6.03843 -2.19578,-2.74474 -6.4044,-4.39158 -3.1107,-6.40439 -11.16193,-10.79598 -1.46386,-4.025614 -3.84265,-5.123513 -3.84262,-3.293689 -10.24702,-3.659651 -6.58738,-2.378773 -10.97897,-5.123514 -13.35773,-7.502289 -4.75755,-3.293687 -9.69806,-2.744737 -6.03843,-3.110706 -11.34493,-5.855444 2.92772,-31.290026 3.69358,-2.170707 2.19959,-0.129389 2.45837,-0.776329 2.71717,1.358576 1.61734,1.55266 4.01103,1.42327 h 1.29389 l 3.75227,-1.358576 2.32897,-1.811436 0.90572,-1.746741 0.25879,-2.070212 0.51755,-2.523071 1.87614,-0.258777 1.68203,-1.552658 0.84103,-0.970412 3.81696,0.388164 2.39369,-0.452859 2.45837,-2.2642939 1.74673,1.1644939 6.98696,4.399201 7.05167,-0.711636 4.59327,-3.493482 2.52307,-2.7171533 2.329,-1.6173532 2.0702,-3.2347061 0.38817,-2.78184741 -95.10035,-0.19408238 -2.00551,4.26981219 v 2.7171533 l 0.19407,3.8169529 2.52306,5.499001 0.58225,22.319472 -14.55616,-0.194083 -15.7207,-12.874129 -18.95535,-5.304919 -5.56372,2.005518 -3.42878,-4.07573 -5.11083,-2.652459 -6.14595,-5.8871649 -6.85758,-4.9167534 -4.14041,-1.5526591 -5.49899,2.1349062 -1.87614,2.4583766 -2.84654,3.4934826 -0.38817,2.134906 -1.22918,1.940824 -0.1941,3.105318 -2.0702,1.876129 -4.46389,5.822472 -1.48797,3.687564 -1.29389,5.563695 -1.35858,5.887164 -1.29387,9.83351 -3.23471,5.304917 -2.52307,3.75226 -4.85206,7.56921 -5.43431,10.415754 -4.14042,14.879651 -2.84654,21.866618 -0.64694,3.68756 -5.82248,14.94434 -1.16449,5.88717 -0.38816,7.56921 -3.2994,4.85206 -3.88165,10.86861 -2.13491,6.6635 -1.81143,8.99248 -3.62287,19.60232 z"
       id="path7" /><path
       d="m 483.91206,351.93605 4.2051,5.36961 2.52307,1.55265 5.82248,3.42879 3.4935,1.94083 4.78734,4.26981 3.94634,4.52859 4.20513,5.17551 1.61735,3.04065 10.60984,-4.4639 10.54516,-2.65247 7.50451,-1.35858 8.15146,-3.62286 6.72817,-1.87614 0.25879,-2.0702 3.42879,-2.26431 0.12938,-3.36409 -0.64693,-0.97042 -20.83152,-1.74672 -0.32345,-3.75227 1.68203,-0.71162 0.19407,-4.5933 -15.2678,-3.17 z"
       id="path8" /></g><g
     	id="zona-arboles"
	fill="transparent"
     	stroke="transparent"
     	role="button"
     	tabindex="0"
     	aria-label="Arboles que adornan la escena, sus hojas estan cubiertas de nieve blanca"
     	data-zona="Arboles"><path
       d="M 0.73193047,194.69351 8.9661483,184.62946 7.68527,181.15279 l 4.025618,-6.40439 -6.7703573,1.0979 6.2214093,-6.22141 -2.0128091,0.18298 8.9661481,-13.54071 5.306496,-17.20037 h -6.221409 l 6.95334,-7.50229 6.770357,-17.74931 0.914913,-12.44282 5.306494,18.11528 6.77036,11.89387 -1.463863,0.73193 5.123513,3.65965 -2.561757,2.56176 1.829827,1.0979 -2.92772,2.0128 0.365963,3.65966 5.123514,4.39158 -3.47667,3.84263 -1.463861,-0.36596 1.646844,4.02562 1.829826,-0.91492 4.025617,3.65966 0.365967,1.82982 5.123513,0.18298 2.19579,-8.23421 5.855444,6.95334 4.94053,4.57456 4.757549,1.64685 -2.74474,2.37877 1.097897,0.73193 -2.01281,2.19579 1.829827,2.19579 0.365966,2.92772 8.783164,6.03843 -0.548947,1.28088 1.829827,1.64684 2.561756,-1.64684 -0.365966,5.12351 6.22141,-5.30649 -3.842637,-2.01281 2.927723,-2.92772 -0.73193,-0.73193 2.19579,-4.39159 0.731931,-3.84263 -2.012808,-3.65965 -0.660757,-0.595 -0.582247,-1.68205 1.940822,-0.19408 2.393683,-1.1645 1.876131,-2.03786 1.876129,-3.13767 -1.099799,-0.42051 4.302159,-15.52659 5.11083,11.45086 7.69861,11.15974 -0.19409,1.74674 1.97317,3.00828 1.81144,2.62011 1.94082,0.93806 1.0998,1.00276 1.6497,-0.51755 1.68205,-1.06745 4.72267,-12.29189 -0.22643,-1.0351 3.55818,-7.01932 0.64694,-2.26429 4.36686,-13.2623 0.51755,0.80868 5.9842,14.03862 4.9491,-12.48596 -3.04062,1.42327 -4.04338,-0.45286 4.33451,-3.68756 2.78184,-4.56094 2.32899,-5.499 3.2994,-10.09229 1.6497,-10.25401 0.22643,-4.17278 2.16725,4.85207 1.45562,6.01655 1.52031,5.56369 1.35858,3.39644 2.94358,6.08125 2.78185,5.04614 1.13215,2.23195 2.07021,-4.81971 2.78184,-20.31396 7.37514,12.68005 0.84102,1.61735 h 1.16449 l -4.26881,2.25047 -3.29369,4.57457 -0.91491,3.29369 2.01281,2.19579 4.02562,0.54895 2.92772,2.0128 0.73193,0.54895 3.84263,0.73193 1.0979,1.64685 -0.36596,3.1107 -1.28088,4.2086 -4.75755,2.74474 -2.92772,4.57457 -2.19579,4.2086 -2.56176,3.1107 -5.12351,3.84264 -2.37878,3.65965 1.46386,3.65965 6.40439,0.54895 -0.91491,1.82982 -0.18298,1.46387 2.74474,0.18298 -1.0979,1.64684 4.2086,0.18298 h 2.74474 l -0.91491,4.2086 -6.95334,9.69808 2.01281,0.73193 -11.34492,11.52791 -5.48948,-7.31931 3.47667,-2.37877 -0.36597,-3.84264 -1.64684,-2.56175 -3.29369,-0.91491 0.18298,-2.92773 -2.19579,-2.37877 1.0979,-1.82983 -2.19579,-4.94053 -1.46386,-8.4172 -3.47667,-11.89387 -1.64685,2.37878 -0.73193,5.48947 -0.54895,4.39159 -0.91491,5.67246 -1.82983,4.94053 -1.46386,3.84263 -0.73193,2.37878 -0.54895,4.57456 -2.74473,5.85545 1.46386,2.56175 -0.91492,1.82983 -21.40896,-3.1107 -28.911257,-1.46387 -0.914913,-4.57456 -2.01281,5.67246 -15.919487,1.28088 -15.187557,2.56176 1.280877,2.19579 3.842637,1.09789 -2.927723,2.74474 0.182983,1.46386 -0.548947,1.82983 0.548947,1.46386 -2.012807,2.01281 0.73193,1.09789 -0.182983,1.46387 3.110703,4.94053 5.672463,1.82982 0.914911,1.82983 0.365966,4.39158 -3.293687,5.48948 0.73193,0.91491 -2.744739,2.92772 2.195793,1.46387 -0.54895,1.46386 7.868253,0.91491 7.868253,0.73193 2.74474,0.73193 2.19579,2.37877 -0.365963,4.94054 -2.927723,4.02561 -2.01281,4.57457 v 3.1107 l 2.927723,-2.74474 -0.548947,8.23421 -2.74474,4.57457 -15.736506,-3.65964 -13.540713,-1.64685 -12.442817,-1.64684 -8.051237,-3.47667 -6.587374,-5.48948 -3.842635,-2.56176 -6.038426,0.73193 -4.757548,2.37878 -7.31930477,4.57456 z"
       id="path9" /><path
       d="m 79.185608,273.78554 2.1996,-4.14044 0.905719,-9.05717 -2.717154,2.58777 -0.646941,-2.45838 3.622871,-7.6339 1.42327,-0.90572 0.905719,-5.30492 -2.458376,-3.75226 -18.502521,-0.51755 0.258778,-2.71716 -1.940824,-0.38816 2.717151,-2.71715 -0.258775,-1.1645 3.493484,-5.69308 3.493481,-0.64694 -1.940824,-4.01104 0.517554,-10.22167 2.070211,-5.30492 11.157789,-4.20312 0.526073,-1.05215 2.355903,-4.62031 1.349497,-2.74474 1.71546,-4.96341 3.042087,13.70083 6.358646,14.59286 2.241534,3.65965 -1.280874,0.98353 0.983534,2.17292 1.44099,4.04849 2.51601,3.88838 0.54894,1.66972 3.56817,1.28088 3.20219,-2.12717 -0.98353,-1.57823 3.957,-2.99634 2.67612,-4.41446 -0.45746,-1.46386 4.75755,-4.84904 0.0457,-1.41811 6.26715,-8.11986 4.16286,-10.63586 2.7313,2.84938 2.45838,5.17553 2.58776,-5.95186 1.47179,-3.59052 -1.06745,-2.28047 2.5069,-5.98421 0.61459,-4.36685 0.51756,-2.57159 3.15383,-8.39407 2.2643,-15.80154 1.6497,-2.32899 1.68205,5.77396 1.85995,6.34002 1.39093,8.2485 2.1996,4.91675 -1.13215,1.87613 2.1996,2.37751 -0.11321,2.8142 1.18066,0.7925 2.16726,0.43669 1.585,2.52307 0.27495,3.62287 -3.41261,2.42603 5.499,7.42365 11.25678,-11.67729 -2.0217,-0.69546 7.18105,-9.94673 0.63077,-4.0272 -3.88165,0.0647 -2.62011,-0.2426 0.93806,-1.66588 -2.70097,-0.30729 -0.12939,-1.01894 0.88954,-1.66587 0.27495,-0.58225 -6.46941,-0.50138 -1.60118,-3.49348 2.42603,-3.59052 5.02997,-3.89782 2.63628,-3.15384 2.18343,-4.28599 2.81419,-4.3992 4.98145,-2.9921 1.14832,-3.96252 0.38817,-3.28322 -1.08363,-1.52032 -3.83313,-0.64694 -3.55817,-2.65246 -4.57711,-0.63076 -1.50414,-2.13491 0.4852,-2.39368 1.34241,-2.28047 2.50689,-3.23471 3.88165,-2.11873 0.5499,0.0162 9.51004,-9.25126 0.45286,-1.87613 4.3992,-5.82248 -5.04614,0.71164 -3.62288,-1.61735 6.08125,-3.23471 -0.32347,-1.42327 1.03511,-1.811434 9.8982,-13.456381 1.0998,-7.051659 6.14594,-9.445341 -4.26981,1.552659 -3.68757,-0.517554 7.18105,-6.275329 3.42879,-7.245742 4.65798,-11.386166 2.00551,-17.726191 2.00552,0.841023 1.94083,3.299402 2.45837,5.628388 2.2643,5.693082 4.98144,7.827991 0.32348,4.72267 0.12939,2.1996 -1.87614,0.582248 3.49349,4.852058 -1.42327,0.452861 5.75777,1.74674 -0.32347,1.940824 -1.87613,1.423271 -0.58224,2.070211 -1.22919,1.22919 -3.49348,1.229188 0.90571,0.970413 2.45838,1.035105 1.42327,1.358575 1.94082,1.876131 3.94635,5.304917 0.12938,3.170013 0.97042,2.652458 1.68204,1.876131 2.00552,1.099799 3.04062,0.582248 1.29389,-0.388165 -2.1996,17.208636 -1.42327,8.47493 -5.11084,12.87413 -2.26429,9.8982 0.32347,4.91676 -0.19409,1.22919 -3.36409,4.07572 -5.36961,15.4619 -5.82247,28.6595 -0.38817,9.8982 2.52307,5.62839 3.10532,3.2994 2.00552,1.35858 h 2.32899 l 4.3992,4.59328 4.14042,-0.58225 1.94083,-5.24022 2.1996,-0.38817 2.45837,2.07022 -1.35858,7.05165 1.22919,6.85758 1.29389,12.68005 0.90571,0.77633 -2.26429,7.56921 3.17001,8.08677 -0.84102,4.78737 0.97041,3.10533 -1.42327,3.62286 -0.5499,2.52307 -10.86861,-3.26705 -10.57467,-1.59874 -8.27997,1.23515 -5.39798,1.96704 -8.60019,6.03843 -5.07776,3.24795 -7.19359,5.63951 -12.80943,-0.12938 -13.97393,0.90572 0.90571,-2.58778 -0.77633,-0.51755 6.46942,-9.18655 h -7.11636 l -5.82247,-1.81144 -7.37513,-7.37513 6.46941,-3.75227 0.90572,-1.55266 -4.78736,0.77633 -3.88165,-3.10532 0.90572,-1.55266 -8.53963,-11.77433 -0.51755,-1.16449 -2.58776,8.92779 -5.04615,9.96289 -3.36409,3.3641 5.82247,-0.90572 -1.81143,3.10533 -7.24575,8.669 -3.62287,1.29389 -12.16249,-4.01103 -17.07925,0.77631 -12.162498,2.58779 -3.364095,-0.12941 z"
       id="path10" /><path
       d="m 0,426.2049 0.04574565,-2.23416 7.66239705,-7.20495 1.9670633,-3.06496 -3.179323,-1.87558 2.241537,-2.12717 -5.032022,-0.73192 -1.7383348,-1.71548 2.4016468,-1.09789 1.3952423,-1.5096 -1.303751,-0.64045 5.8096977,-5.64957 2.470266,-5.83258 -4.2086004,0.43458 -3.5910339,-0.34309 -0.8920404,-0.6862 1.4181154,-1.71545 0.7776762,-1.69259 0.045746,-1.39523 -5.0548949,2.08143 4.8719123,-3.27084 0.2973466,-1.6697 1.6468437,-2.88198 2.3787734,-6.97621 2.058555,-3.72827 2.401647,-1.98993 2.310155,-6.83898 -2.698993,0.41172 -2.561757,-1.14366 -0.89204,-1.1665 1.075022,-1.12077 -0.914913,-1.21227 -2.3787734,-1.37237 -1.5553523,-1.7612 4.6889297,-2.33304 4.826166,-5.26074 -2.012809,-0.43457 -1.806953,-1.41812 1.738335,-1.02928 1.075023,-0.89204 v -2.24155 l 0.937786,-2.31016 2.904849,-6.06129 3.087832,-6.35865 1.692589,-2.01282 1.486734,-1.92129 0.388838,-1.16653 -1.715462,0.18299 -5.443733,0.0457 2.630375,-2.92772 2.83623,-2.92772 -2.561756,-0.18299 2.790485,-4.07138 -0.137237,-1.98993 1.646843,-6.58736 1.806953,-4.68895 2.333029,-4.52882 2.241537,-6.95333 1.37237,-6.35865 1.738334,-0.82341 1.05215,0.59468 2.881976,7.27356 2.470267,5.76397 8.051233,7.77674 0.686187,1.92132 4.666056,2.01282 1.463861,-0.0457 -1.646844,2.19578 -0.137237,1.18941 -0.823423,1.0064 -2.83623,2.01281 -0.32022,0.73192 0.686187,0.96068 5.626713,2.10428 2.74474,3.65966 4.391583,4.66606 1.921317,2.10429 -0.274473,3.01921 -1.555353,1.64685 0.182983,1.73833 1.189387,0.54896 0.365966,1.09789 3.385177,0.18299 0.914913,-1.09792 -1.280877,3.65967 -2.195793,2.56174 -3.476667,1.18941 -2.195793,1.0064 0.73193,1.18938 1.37237,0.73194 2.83623,0.82341 1.463863,0.45747 0.548947,0.96065 -1.646843,1.41811 2.83623,1.09789 3.613906,0.45746 0.548947,0.54896 -0.457456,1.73834 -1.05215,1.78406 0.503203,1.23515 -0.503203,0.64043 -2.012807,2.51603 -0.365967,2.56174 0.04575,3.01922 0.594693,0.68617 -0.04575,0.96067 0.274473,1.46386 2.790486,0.45744 3.934127,0.96068 h 0.686184 l -1.189387,1.87558 -2.287283,2.15003 -1.78408,1.5096 1.509606,0.77769 0.869167,-0.41172 -0.320217,1.28088 -0.274476,2.47025 -0.503201,2.10432 -1.280879,1.18938 1.006406,1.37236 -1.326626,0.82344 -0.777674,1.18938 0.548947,1.14364 6.129916,-0.18299 4.574567,0.54896 1.69259,2.47025 1.326623,2.01282 0.41171,2.88198 -0.228727,2.47025 -0.686186,1.73834 -1.235133,1.92133 -1.646843,2.4245 -2.74474,2.69902 1.555353,3.70538 3.659653,0.54896 -0.823423,1.82983 -4.2086,3.56815 4.2086,2.47028 2.195793,0.64042 -0.274474,1.37237 4.117107,-0.54893 10.430015,3.56814 3.47667,-4.02561 7.41079,-3.01921 5.3065,-5.48947 3.20219,-2.74476 3.2022,-5.30648 -4.30009,1.73834 -8.96615,1.37236 -6.12992,-1.46386 -0.0915,-0.45746 2.19579,-1.55535 -1.18938,-1.55536 -4.39159,-2.56175 -3.751142,-3.20219 3.019212,-1.28088 -0.0915,-3.84265 1.097901,-3.20217 1.46386,-2.56178 1.37237,-1.46386 c 0,0 4.39158,-2.01279 4.84904,-2.19577 0.45745,-0.18299 5.76395,-3.47668 5.76395,-3.47668 l 7.13632,-2.01282 5.85545,-1.0064 -5.67247,-1.00639 5.39799,-5.30651 -6.03843,1.46386 -4.48307,-0.36597 v -1.18938 l -2.65325,-0.82341 -3.65965,-2.47029 7.86825,-2.01279 7.04483,-3.84265 -3.20219,-1.09788 1.55535,-2.37877 6.86185,-4.94054 6.03842,-8.23423 -4.84903,3.01922 -4.48308,1.55535 0.45746,-1.8298 -2.65325,1.00639 -0.0915,-2.56175 -3.38518,0.36595 -6.67887,0.36597 -3.65965,-1.18938 4.11711,-2.92772 -4.57456,-1.82983 -4.2086,-3.56818 -0.64044,-1.92129 3.93412,-0.0915 3.47667,-1.73834 9.78957,-5.58096 4.11711,-1.55535 -1.82983,-1.55535 -2.83623,-0.45747 2.37878,-2.01282 0.45745,-0.64042 -4.57456,-0.91493 -5.21501,-3.2022 2.65325,-0.45744 -0.73193,-2.92772 0.64044,-2.74476 5.3065,-2.37876 4.30009,-0.73192 -1.64684,-1.2809 1.82982,-1.46386 0.45746,-1.09789 -5.67246,-1.55535 -2.1043,-2.28727 -2.65325,-2.92772 -1.00641,-1.73834 5.12352,0.64042 2.28728,-0.54893 4.02562,-0.82343 1.37237,-1.0064 -1.92132,-0.82343 -0.36596,-1.09789 2.92772,-1.64685 2.28728,-2.01279 -3.84264,0.0915 -2.28728,-1.00642 4.75755,-2.47026 4.48307,-1.55535 2.92773,-3.01921 4.30009,-5.58096 1.73833,-3.56817 -5.48948,1.37236 2.83623,-3.20219 3.47667,-5.58097 2.65325,-6.12992 2.01281,-7.22781 2.32557,4.02535 6.72819,8.8631 -0.90572,1.32623 3.62287,3.10532 5.0138,-0.80868 -1.03511,1.84378 -6.27533,3.59053 7.18105,7.31044 5.82247,1.81144 7.21339,-0.0324 -6.43706,9.25126 0.87337,0.6146 -0.90572,2.45838 -4.74052,1.28836 1.09789,2.01282 6.03843,2.92772 4.2086,0.64043 6.49588,-3.01922 -0.73193,3.75116 -2.74474,5.76395 -0.54895,2.28729 -2.92772,2.74474 -3.38518,1.82983 2.19579,1.09789 -0.45745,1.55535 -2.56176,1.18938 -1.09789,1.09789 3.20219,2.47028 3.11071,3.56815 1.64684,3.01921 1.64684,-0.9149 5.85545,-0.54896 -4.66606,4.48307 0.64044,0.82344 5.67246,-0.27448 3.2022,-1.64684 -3.65966,4.1171 -5.30649,3.93414 -2.28729,1.46386 4.02562,1.09789 5.21501,-0.27448 -1.64685,2.10431 -6.22141,3.01921 -6.2214,0.73192 1.64684,2.92772 7.86825,4.02564 7.77676,4.1171 3.93413,-1.09789 -1.55535,4.20859 -2.83623,3.75113 -4.3001,4.30009 -4.57456,2.83626 -6.77036,0.54893 2.19579,2.92772 8.96615,2.37879 4.57457,1.09789 5.30649,-1.28088 -2.92772,4.02561 -3.93412,3.84265 -3.2022,1.9213 -3.2022,1.37236 1.28088,1.18941 h 4.2086 l -0.64044,1.9213 6.03843,-0.45744 2.1043,-1.28087 -6.40439,6.67885 3.65965,8.41719 0.45746,2.10431 -7.13633,-1.73834 -35.22415,-0.0915 -0.36596,9.14913 1.46386,3.01921 -0.45746,12.07686 -6.77036,2.65324 -12.80878,4.48307 -6.58737,0.91493 -12.25984,-2.01282 -9.60659,-4.1171 -7.50228,-4.30009 -10.235596,-3.87694 -4.151419,0.50319 -4.328469,2.46454 -6.792883,6.01655 -0.873371,0.1294 -0.452859,1.74673 -1.714394,1.6497 -9.736465,6.5341 -3.719912,4.5933 -0.77633,-1.0351 0.14556,-4.18897 -0.905716,-2.97592 -2.432534,-0.30716 -12.671547,-0.73192 -1.006403,2.47026 0.18298,3.33944 -0.18298,1.37237 -25.38884,-9.78956 -12.0768521,-2.42454 z"
       id="path11" /><path
       d="m 563.87399,245.19073 2.45837,-6.08124 3.49348,-3.62288 2.07023,0.51756 3.3641,-3.10532 5.04613,0.12939 1.94083,-12.80944 -1.0351,-9.70412 -3.75227,-9.31595 -4.52858,-8.66901 -3.75227,-3.10532 -12.29188,-15.52659 -14.87966,-20.83151 4.91677,-23.67805 9.05717,27.04214 1.29389,3.23471 -0.64696,0.12939 2.97593,2.58776 1.94082,-4.14042 3.75227,-19.27885 6.59881,9.57473 2.07021,3.10532 2.19959,3.62287 4.01105,1.81144 2.71714,-6.98697 0.64693,0.51755 5.04616,17.46742 7.24575,4.65797 2.97593,-4.3992 -2.329,0.25878 -0.25878,-1.94083 -1.55266,-1.81143 4.65799,-2.07021 0.64693,-3.23471 2.07021,-2.97593 0.64696,-1.29388 0.38814,-1.16449 -1.55265,-2.84655 4.65799,-4.14042 2.19958,-4.14042 -0.64693,-0.25878 4.78737,-14.75026 4.91675,8.53962 -0.51755,2.71716 2.84655,1.81143 4.01103,2.32899 -2.329,2.58777 4.39921,3.62287 5.56368,3.2347 -2.71714,6.21064 1.16449,3.62287 1.94082,-5.17553 9.96291,-3.75226 4.01103,-4.52859 2.45838,-0.51755 4.01103,-7.89268 -6.7282,5.4343 -6.08123,1.03511 5.69306,-4.91675 -10.8686,2.07021 1.16451,-1.81144 -12.1625,-2.58776 2.58776,-1.94083 1.16448,-3.10532 3.3641,-8.15146 2.97592,-4.78736 0.64696,-3.10532 4.3992,-2.1996 2.32897,-1.0351 8.41026,-0.90572 3.49348,-2.97593 -8.66902,0.51755 -1.55266,-1.29388 -4.78737,-1.42327 -0.38817,-3.3641 -0.38817,-4.3992 2.07024,-5.304916 4.91675,-8.539625 8.41023,-9.315953 9.31595,-18.502521 4.14041,0.646943 0.90572,-2.328989 -1.32622,-8.216154 -7.5692,5.854819 4.2051,-11.67729 -7.50451,-3.040624 7.60156,-3.461136 -4.30215,-10.642184 7.21339,4.302159 3.17,-15.591283 3.84932,15.300159 7.5045,-4.852058 -4.10808,11.321473 8.18381,3.978687 -5.3049,2.393683 -3.3641,1.00276 4.43153,11.353819 -7.98972,-6.08125 -0.51756,4.043384 6.14596,11.256777 2.39598,0.37324 4.71181,3.339433 5.67246,2.42452 2.56177,2.01281 2.65324,2.744737 2.24153,3.202196 1.87557,13.998171 1.87558,2.561756 6.08418,0.503203 -5.30651,8.188474 -0.64043,2.74474 -3.61392,3.65965 -5.6267,2.69899 -0.86919,2.15005 2.65327,0.77768 9.0119,4.84904 3.1107,0.41171 4.02561,2.97346 2.37876,7.77677 0.0915,3.06495 2.1958,2.05856 -2.2873,2.74474 1.18941,0.91491 -2.56177,1.73834 -7.59378,3.84263 -4.11711,1.0979 2.56175,4.43732 4.66606,4.39159 7.0906,5.16926 2.49311,-2.49314 -0.0686,-1.39524 2.19577,-2.65325 v -1.78408 l 1.00643,-0.86917 -1.92133,-3.01921 5.12353,-3.61391 1.23512,-5.94694 5.03203,-11.57365 0.86916,-0.82342 4.94054,7.77676 -0.77769,1.6011 0.91493,1.6011 1.5096,1.6011 3.33942,1.0064 1.00642,1.05215 -1.69259,1.69259 1.09788,2.47027 3.06496,3.20219 4.11711,1.0979 8.5087,-15.50778 2.18361,10.56271 1.5203,1.81144 2.49073,-2.87889 -0.29112,-2.07022 3.9787,-3.91399 3.23469,-5.56369 1.06746,-1.32623 2.10256,14.45913 2.65245,11.48321 -1.09979,-0.32347 2.03787,4.88441 1.32623,-0.45286 3.49348,-4.59329 4.85206,-8.44258 2.62011,-7.60156 4.36684,15.65598 -0.64693,24.35734 0.58224,2.65246 5.79012,3.13766 -0.29112,2.49073 -2.7495,1.90847 3.88165,3.42879 -0.12938,1.55266 2.0702,2.65246 -0.21272,58.49896 -21.40897,10.06404 -16.01097,5.58097 -13.90669,3.1107 -4.66606,0.54896 -4.84904,2.19578 -3.75113,3.2022 -0.45747,1.64684 -8.60017,4.1171 v 1.18941 l 14.27263,6.1299 5.58099,1.37239 3.84262,-1.64685 -1.37237,2.56175 6.58739,-2.65324 3.75113,-3.84265 -1.18938,3.75116 -2.92772,6.40437 -2.01282,2.01282 2.92772,2.47028 -15.27905,4.48307 -8.96615,4.02561 -10.43001,2.74474 -12.80877,-1.09789 -11.16195,-1.64685 -10.24702,1.46386 -8.23423,2.92772 -16.9799,0.45715 -4.5933,-3.00829 -9.2189,-4.75501 c 0,0 -5.30492,-1.87613 -5.56369,-1.84377 -0.25879,0.0323 -7.40748,0.12938 -7.40748,0.12938 l -5.43431,1.58501 -7.86034,2.1349 -2.29664,-1.48797 -7.92504,-3.52584 -9.47769,-2.19958 -3.88162,0.4205"
       id="path12" /><path
       d="m 751.87513,430.86287 -6.34003,-2.329 -0.25879,-2.84652 4.14044,-2.19961 -2.45837,-1.55266 -5.95189,-6.08126 3.10534,-1.55265 0.38817,-4.01103 0.64693,-3.75227 3.3641,-2.19959 9.57471,-14.10332 2.58779,-2.19959 -4.14044,-2.32899 -0.77631,-2.329 -3.3641,-4.01103 -2.45838,-4.3992 -0.51755,-3.75227 1.94083,-5.30492 6.4694,-3.49348 5.95186,-7.63389 4.26982,-3.75227 2.58775,-2.32899 -1.42327,-2.45838 -2.97593,-4.91675 -4.01103,-3.75227 2.97593,-1.0351 6.85758,-13.58577 7.50451,-9.44534 5.17554,-1.0351 1.68203,-2.84654 1.29389,-2.07021 1.16449,-5.4343 3.10533,-5.43431 1.81142,-4.78737 1.16451,-6.4694 1.81144,-1.03511 1.42325,3.62286 0.38817,7.37513 1.81144,5.82247 -0.12938,129.77641 -6.72819,-1.16449 -11.77433,-2.32899 -11.1274,-2.07021 -10.48043,1.03511 -6.08127,2.84654 z"
       id="path13" /></g><g
     	id="zona-entrada"
	fill="transparent"
     	stroke="transparent"
     	role="button"
     	tabindex="0"
     	aria-label="Entrada con puente de ladrillos y vallas de madera a los lados"
     	data-zona="Puente"><path
       d="M 0.81899399,448.79265 42.539032,448.06073 v -14.6386 l 15.37054,1.09789 1.829824,13.54071 24.153706,-1.09789 3.659653,-4.75755 h 33.668805 l 17.93229,1.82983 8.78317,0.73192 -0.73193,-10.24702 3.29368,-5.85544 5.85545,2.92772 1.82982,-1.09789 v -18.29827 l -2.19579,-2.56177 0.73193,-7.68525 35.13267,-0.36597 12.80878,2.92772 -0.36597,9.14913 18.29827,-13.90668 10.61299,-9.14913 13.90668,-2.19581 6.58737,-4.02561 13.90669,-1.09788 4.02561,2.19577 3.25223,-3.71234 5.49902,-2.78186 5.36959,-1.09979 5.30492,1.16448 4.65799,-0.77631 6.08123,-0.12941 5.75779,-0.77631 4.65799,1.35858 6.66348,4.33449 6.79288,2.58778 5.17554,1.22917 7.11634,4.65799 3.81696,3.55817 3.62286,-3.55817 6.59881,-2.32899 3.23472,0.12938 3.36407,1.29389 2.84655,2.45838 2.84654,2.71716 4.01103,3.36407 4.65799,3.10534 1.03511,3.88165 1.55265,5.4343 2.58776,-3.3641 3.4935,-4.14043 c 0,0 3.88165,-2.07021 4.3992,-2.32897 0.51756,-0.25879 4.91676,-1.42328 4.91676,-1.42328 l 13.45636,-6.4694 6.46941,-1.16451 7.24574,0.12938 12.03312,2.19961 3.49348,-1.68206 6.34003,-0.77631 c 0,0 7.24574,2.84654 8.41023,2.97592 1.16451,0.12938 11.77433,1.16449 11.77433,1.16449 l 4.65798,2.58778 3.62286,4.78735 4.14044,6.59881 1.81142,4.3992 10.60984,8.53961 7.24575,6.59882 5.30492,7.76329 1.94083,2.329 -0.77634,5.56368 -1.68204,2.45838 -5.69309,4.65796 -4.14041,5.30493 -2.329,5.4343 -0.77634,5.69309 -0.90572,4.01103 19.02008,3.3641 12.29188,-1.16448 14.36211,2.19958 h 17.07925 l 10.22167,0.64696 5.3049,2.97593 4.91675,3.3641 10.09229,2.19958 25.23072,2.58776 0.64694,-13.58574 0.51755,-7.24575 3.75227,-5.04616 5.17551,0.12941 3.75227,2.71714 2.97593,4.26981 2.84654,4.01104 1.42327,1.94082 0.38818,13.1976 0.25876,3.3641 63.52963,6.46941 19.14946,-1.42328 20.44335,0.64696 13.32698,6.21062 19.27886,4.3992 41.53363,4.3992 v 91.08935 l -72.19865,-0.51755 -34.80543,-8.66902 -70.646,-15.26781 v 24.45438 l -8.15144,-0.64696 -14.10333,-6.59879 0.64693,-21.996 -119.42534,-24.97193 0.51755,7.89268 -5.17554,-0.77634 -6.34003,-0.77632 -6.21062,-1.29389 -0.38817,-11.51554 -53.17857,-12.80946 -16.30291,-5.17551 -8.7984,-2.19962 -6.08127,-1.29386 -2.19958,-0.90572 -5.56369,-5.82248 -7.24575,-4.52858 -8.28085,-1.81144 -8.53963,0.64693 -8.28085,2.329 -7.11634,2.71716 -108.81552,-1.55268 -0.27549,-0.84238 -0.80055,-1.28087 -0.68618,-1.23513 -1.28088,-1.80695 -0.54895,-0.77769 -0.96066,-1.23513 -0.98353,-0.66331 -1.53248,-0.68619 -14.04392,-3.22506 -10.24702,-1.92133 -12.25984,0.27448 -9.14913,2.74474 -9.51509,3.38518 -4.3001,2.28727 -3.38517,-0.36594 -6.03843,-0.45747 0.18298,-4.84904 -16.8344,2.74473 -11.98536,-2.83623 -12.71729,-2.28727 -11.802381,-0.18298 -8.051234,2.19577 -10.5215,4.20863 -7.50229,3.38515 -7.319303,3.11071 -2.378774,0.91493 -11.710889,1.18938 -12.259834,1.28088 -13.449223,3.93411 -4.849039,2.92775 -4.666057,1.73831 -12.07685247,1.2809 z"
       id="path14"
       transform="translate(-0.45302876,-1.9491071)" /></g><g
     	id="zona-suelo"
		fill="transparent"
     	stroke="transparent"
     	role="button"
     	tabindex="0"
     	aria-label="Capa de nieve que cubre el suelo y los alrededores"
     	data-zona="Nieve"
     transform="translate(-33.668802,-27.813358)"><path style="display:inline"
      d="m 120.49193,223.29858 -0.29043,0.81752 0.03,-0.061 0.26148,-0.75603 h -5.2e-4 v -5.2e-4 z m 3.41116,0.39533 c -0.32056,0.0188 -0.6307,0.0235 -0.93018,0.016 l 2.0159,9.08213 6.35878,14.59291 2.24173,3.65972 -1.28106,0.98341 0.9834,2.17299 1.44126,4.04885 2.51612,3.88813 0.54881,1.66967 3.56825,1.28106 3.20188,-2.127 -0.98341,-1.57872 3.95687,-2.9962 2.67632,-4.4142 -0.45734,-1.46399 4.75734,-4.84932 0.046,-1.418 6.2668,-8.11992 4.16305,-10.63553 2.7311,2.84944 2.45877,5.1754 2.58744,-5.95209 0.97151,-2.36988 -0.51469,1.02887 -21.40903,-3.1104 -27.91458,-1.41335 z m -4.01216,1.0542 -15.83056,1.27382 -15.187702,2.5616 1.281058,2.19573 3.84266,1.09813 -2.92747,2.74453 0.182935,1.464 -0.549321,1.82986 0.549321,1.46399 -2.012798,2.0128 0.731739,1.09761 -0.182935,1.46399 3.110405,4.94078 5.672522,1.82987 0.915189,1.82934 0.365869,4.39198 -0.226859,0.37776 c 0.186711,0.12602 0.3728,0.25293 0.558627,0.38034 l 0.51831,-0.8444 3.49333,-0.64699 -1.94097,-4.01112 0.5178,-10.2216 2.07016,-5.3051 11.15797,-4.20285 0.52607,-1.05213 2.35593,-4.62039 z m 469.94547,47.09996 -5.99498,1.38338 -2.0128,4.39147 0.54881,1.82986 0.73174,6.03839 -1.28055,3.65972 1.09761,5.30666 0.73226,4.5744 -2.37867,3.84265 1.64641,2.37867 0.54932,5.30665 -1.46399,4.94027 2.37867,5.67252 -1.464,5.67252 2.19625,7.31945 -0.18345,6.40426 2.37918,4.75785 -0.91519,8.41706 3.29386,4.0256 -2.92799,1.28105 -8.96586,8.6 -3.84266,-0.18294 -11.52798,3.65973 -2.90215,0.50591 14.92726,3.09903 -0.19431,4.59352 -1.68206,0.71159 0.32349,3.75222 20.8318,1.74667 0.64699,0.97048 -0.1297,3.36413 -3.42874,2.26447 -0.25889,2.07015 -6.72776,1.87586 -8.15196,3.62303 -7.50445,1.35858 -10.54509,2.65255 -10.60969,4.46381 -1.61747,-3.04064 -4.20491,-5.1754 -3.94653,-4.52892 -4.78731,-4.26951 -3.49332,-1.94096 -5.82239,-3.42874 -2.52336,-1.55287 -4.20491,-5.36918 2.77554,-0.47439 -1.418,0.23099 -4.39146,-0.91519 -4.75733,-2.37867 -5.85546,-2.92798 -4.94078,-3.11041 -4.39147,-1.28106 -5.30665,0.91519 -5.1232,2.56161 -3.11092,4.75733 -7.13652,2.19573 -7.6848,4.94078 -5.67252,4.94027 -6.40478,-2.37867 -7.50187,-3.65972 -8.78344,0.18293 -8.78293,4.39198 -8.05118,5.48907 -8.41758,-2.74453 -9.51518,-4.5744 -10.24692,-3.29385 -9.69812,-1.09761 -16.65118,3.47627 -6.95358,-1.82986 -12.62558,-0.73174 -9.33225,1.46399 c 0,0 -3.8424,-0.36587 -4.75733,-0.36587 -0.9149,0 -6.77065,-2.01279 -6.77065,-2.01279 l -7.31893,-2.37919 -9.33225,-2.01279 -6.40426,-1.64693 -5.85546,2.37918 -13.35784,6.5872 -0.36587,-2.92747 0.36587,-5.12372 2.37867,-6.77013 -0.73174,-2.01331 -0.54932,-6.40426 1.64693,-6.95307 3.84266,-0.91519 -3.84266,-10.06398 1.64693,-5.67252 2.37866,-3.84266 -1.0976,-9.1488 1.64692,-4.20853 -1.28105,-2.01331 0.18293,-5.30614 1.46399,-4.57491 -2.01279,-4.20853 0.34571,-3.22668 -0.12867,0.59015 -10.86859,-3.26699 -2.281,-0.34468 c 0.87518,0.90598 1.80148,1.83587 2.78071,2.79053 0.46042,0.44887 0.94436,0.87494 1.38131,1.34669 0.0245,0.0265 0.0369,0.041 0.0393,0.046 v 5.1e-4 5.2e-4 5.2e-4 5.2e-4 h -5.2e-4 c -0.029,-0.009 -0.53962,-0.4836 -0.73484,-0.65475 -2.13331,-1.87036 -0.92978,-0.80996 -3.90932,-3.59771 l -7.85017,-1.18649 -8.28011,1.23507 -5.39812,1.9668 -8.6,6.03839 -5.07772,3.24787 -7.19336,5.63996 -12.80956,-0.1297 -13.90406,0.90123 -4.51962,1.22835 1.09813,2.0128 6.03839,2.92747 4.20853,0.64079 6.49624,-3.01946 -0.73225,3.75119 -2.74454,5.76399 -0.54932,2.2872 -2.92747,2.74454 -3.38532,1.82986 2.19573,1.09812 -0.45734,1.55546 -2.5616,1.18908 -1.09812,1.09812 3.20239,2.47014 3.11092,3.56825 1.64641,3.01894 1.64693,-0.91467 5.85545,-0.5488 -4.66586,4.48293 0.64027,0.8232 5.67252,-0.2744 3.20239,-1.64693 -3.65973,4.11706 -5.30665,3.93465 -2.2872,1.46347 4.0256,1.09813 5.21518,-0.2744 -1.64693,2.10426 -6.22132,3.01894 -6.22184,0.73225 1.64692,2.92747 7.86826,4.0256 7.77678,4.11706 3.93413,-1.09761 -1.55546,4.20853 -2.836,3.75119 -4.3,4.3 -4.5744,2.836 -6.77064,0.54932 2.19573,2.92747 8.96638,2.37867 4.5744,1.09812 5.30665,-1.28106 -2.92799,4.0256 -3.93413,3.84266 -3.20187,1.92132 -3.20239,1.37253 1.28106,1.18959 h 4.20853 l -0.64079,1.92082 6.03891,-0.45734 2.10427,-1.28054 -6.40478,6.67866 3.48557,8.01656 c 1.29115,0.9664 1.98604,2.18911 2.11926,3.40703 l 4.45967,1.01906 -0.36638,9.14931 18.29862,-13.90664 10.61279,-9.14931 13.90664,-2.19574 6.5872,-4.02559 13.90716,-1.09761 4.02559,2.19573 3.252,-3.71243 5.49889,-2.78174 5.3697,-1.10019 5.3051,1.16478 4.6576,-0.77618 6.08128,-0.12971 5.75779,-0.77618 4.65811,1.35858 6.66368,4.33462 6.79287,2.58744 5.17539,1.22938 7.11636,4.65811 3.81682,3.55792 3.62304,-3.55792 6.59856,-2.32905 3.23495,0.12919 3.36413,1.29397 2.84634,2.45825 2.84685,2.71715 4.01061,3.36413 4.65812,3.10524 1.03507,3.88193 1.55288,5.4343 2.58744,-3.36414 3.49384,-4.14031 c 0,0 3.88167,-2.0703 4.39922,-2.32906 0.51756,-0.25879 4.91649,-1.42317 4.91649,-1.42317 l 13.45655,-6.46937 6.46937,-1.16479 7.24555,0.12919 12.03338,2.19987 3.49332,-1.68207 6.34019,-0.77618 c 0,0 7.24584,2.84615 8.41033,2.97553 1.16451,0.12938 11.77396,1.16479 11.77396,1.16479 l 4.65812,2.58795 3.62303,4.78731 4.14032,6.59856 1.81126,4.39922 10.6102,8.53953 7.24555,6.59908 5.30511,7.76335 1.94045,2.32905 -0.77618,5.56349 -1.68207,2.45825 -5.69319,4.65811 -4.14032,5.3051 -2.32906,5.4343 -0.77618,5.69267 -0.90588,4.01113 19.02002,3.36413 12.29228,-1.16427 14.36191,2.19935 h 17.07906 l 10.2216,0.64699 5.3051,2.97605 4.91701,3.36413 10.09189,2.19935 25.23102,2.58796 0.64699,-13.58574 0.51728,-7.24607 3.75223,-5.04568 5.17591,0.12919 3.75223,2.71714 2.97552,4.27003 2.84686,4.01061 1.42317,1.94096 0.38809,13.19765 0.2589,3.36413 63.52945,6.46937 19.14974,-1.42316 20.44319,0.64698 13.32684,6.21048 19.27893,4.39921 41.5339,4.39922 v 91.08953 l -72.1987,-0.5178 -34.80563,-8.66872 -70.64581,-15.2678 v 24.45432 l -8.15144,-0.64699 -14.10354,-6.59908 0.64699,-21.99607 -119.42526,-24.97161 0.51728,7.89254 -5.1754,-0.77618 -6.34018,-0.77669 -6.21047,-1.29346 -0.38809,-11.51558 -53.17867,-12.80955 -16.30288,-5.1754 -8.79843,-2.19986 -6.08128,-1.29398 -2.19935,-0.90537 -5.564,-5.8229 -7.24556,-4.52841 -8.28063,-1.81126 -8.54004,0.64699 -8.28064,2.32906 -7.11636,2.71714 -108.81558,-1.55287 -0.27543,-0.84233 -0.80047,-1.28106 -0.68626,-1.23506 -1.28106,-1.80713 -0.54881,-0.77721 -0.96066,-1.23559 -0.9834,-0.663 -1.53273,-0.68627 -14.04358,-3.22512 -10.24744,-1.92133 -12.25972,0.2744 -9.14879,2.74505 -9.51518,3.38481 -4.3,2.2872 -3.38532,-0.36587 -6.03839,-0.45734 0.18293,-4.8488 -16.83463,2.74454 -11.98532,-2.83601 -12.71705,-2.28771 -11.80238,-0.18294 -8.05119,2.19573 -10.52184,4.20905 -7.50238,3.38481 -7.318934,3.11092 -2.378666,0.91467 -11.710913,1.18959 -12.260234,1.28106 -13.448791,3.93413 -4.849317,2.92747 -4.665865,1.73839 -10.521838,1.11621 v 80.5124 H 834.36618 V 291.04122 c -0.0934,-0.0562 -0.18641,-0.11306 -0.27905,-0.17053 -2.05363,-1.27407 -3.21833,-2.50252 -4.63124,-4.03852 l -18.16737,8.54005 -16.01091,5.58105 -13.90664,3.11093 -4.66587,0.5488 -4.84931,2.19573 -3.75068,3.20239 -0.45785,1.64693 -8.6,4.11706 v 1.18907 l 14.27252,6.12986 5.58105,1.37253 3.84266,-1.64693 -1.37252,2.5616 6.58771,-2.65307 3.75119,-3.84266 -1.18959,3.7512 -2.92799,6.40426 -2.01279,2.01279 2.92798,2.47065 -15.27917,4.48293 -8.96586,4.0256 -10.43037,2.74453 -12.80852,-1.0976 -11.16211,-1.64693 -10.24692,1.46399 -8.23412,2.92747 -16.97985,0.45734 -4.59351,-3.0086 -9.21908,-4.75475 c 0,0 -5.30471,-1.87618 -5.56348,-1.84382 -0.25879,0.0323 -7.4073,0.12919 -7.4073,0.12919 l -5.4343,1.58544 -7.8605,2.13475 -2.2965,-1.48828 -7.9251,-3.52537 -9.47797,-2.19986 -3.88142,0.42064 -31.66267,-57.33345 h -5.1e-4 c -3.036,-1.52342 -6.1187,-3.23684 -9.24182,-5.14956 z m 243.52467,0.78807 c -0.0828,0.45628 -0.11239,0.87263 -0.1018,0.90485 l 5.2e-4,5.2e-4 v 5.2e-4 l 5.2e-4,5.2e-4 5.1e-4,5.1e-4 5.2e-4,-5.1e-4 5.2e-4,-5.2e-4 c 0.0123,-0.0184 0.0474,-0.27142 0.0992,-0.90589 z m -782.365677,9.56169 -6.038391,0.73174 -4.757332,2.37867 -6.496245,4.0597 v 160.4641 l 6.518982,-6.12934 1.966805,-3.06493 -3.179134,-1.87585 2.241724,-2.127 -5.032251,-0.73174 -1.738395,-1.71566 2.40192,-1.09812 1.395264,-1.50947 -1.303797,-0.64027 5.809465,-5.64979 2.470133,-5.8322 -4.208528,0.4346 -3.590996,-0.34313 -0.891935,-0.68627 1.418002,-1.71565 0.77773,-1.69241 0.04599,-1.39526 -5.054989,2.08153 4.872054,-3.27112 0.29714,-1.66967 1.646928,-2.88199 2.378666,-6.97632 2.058789,-3.72794 2.401404,-1.99006 2.310453,-6.83886 -2.69906,0.41135 -2.562118,-1.1436 -0.891935,-1.16634 1.07487,-1.12086 -0.914673,-1.21233 -2.378666,-1.37201 -1.555461,-1.76165 4.68912,-2.33267 4.826062,-5.26066 -2.012797,-0.4346 -1.807125,-1.41852 1.738395,-1.02888 1.07487,-0.89245 v -2.24121 l 0.937927,-2.31045 2.904732,-6.06113 3.088184,-6.35878 1.692403,-2.0128 1.486731,-1.92133 0.388607,-1.16634 -1.715141,0.18294 -5.444112,0.0455 2.630847,-2.92747 2.836003,-2.92747 -2.561601,-0.18345 2.790527,-4.07107 -0.137459,-1.99006 1.646928,-6.58719 1.807125,-4.68912 2.332674,-4.52892 2.241724,-6.95307 1.372526,-6.35878 1.737878,-0.82321 1.052649,0.59428 2.881478,7.27397 2.47065,5.76399 8.051188,7.77627 0.686263,1.92133 4.665865,2.01332 1.463994,-0.046 -1.646928,2.19574 -0.13746,1.18959 -0.823205,1.00614 -2.836003,2.01279 -0.320394,0.73226 0.686263,0.96066 5.62653,2.10427 2.744536,3.65972 4.39198,4.66587 1.921329,2.10426 -0.274401,3.01946 -1.555461,1.64641 0.182934,1.73839 1.189075,0.54932 0.366386,1.09761 3.384806,0.18294 0.91519,-1.09761 -1.28106,3.65972 -2.19573,2.5616 -3.476791,1.18908 -2.195731,1.00666 0.732255,1.18959 1.372009,0.73174 2.836519,0.8232 1.463479,0.45785 0.54932,0.96067 -1.646929,1.418 2.835999,1.09761 3.61425,0.45785 0.54881,0.5488 -0.45734,1.7384 -1.05213,1.78387 0.50281,1.23507 -0.50281,0.64078 -2.0128,2.51561 -0.36639,2.56212 0.046,3.01894 0.59479,0.68626 -0.046,0.96067 0.2744,1.46399 2.79053,0.45734 3.93413,0.96066 h 0.68626 l -1.18907,1.87586 -2.28772,2.14973 -1.78387,1.50947 1.50947,0.77773 0.8692,-0.41134 -0.31988,1.28054 -0.27492,2.47013 -0.50281,2.10479 -1.28106,1.18907 1.00614,1.37253 -1.32653,0.8232 -0.77774,1.18959 0.54933,1.1436 6.12985,-0.18293 4.5744,0.5488 1.6924,2.47014 1.32706,2.01279 0.41134,2.882 -0.22841,2.47065 -0.68626,1.73788 -1.23507,1.92133 -1.64693,2.42465 -2.74453,2.69906 1.55494,3.7052 3.65973,0.54932 -0.82321,1.82987 -4.20853,3.56774 4.20853,2.47065 2.19573,0.64027 -0.2744,1.37253 4.11706,-0.54932 10.42986,3.56825 3.47679,-4.02559 7.41091,-3.01894 5.30614,-5.48959 3.20239,-2.74505 3.20239,-5.30613 -4.30052,1.73839 -8.96586,1.37201 -6.12986,-1.46348 -0.0915,-0.45785 2.19573,-1.55494 -1.18959,-1.55546 -4.39147,-2.5616 -3.75119,-3.20239 3.01946,-1.28106 -0.0915,-3.84266 1.09761,-3.20187 1.46399,-2.56212 1.37252,-1.46348 c 0,0 4.39134,-2.01275 4.8488,-2.19573 0.45745,-0.18299 5.76399,-3.47679 5.76399,-3.47679 l 7.13652,-2.0128 5.85546,-1.00665 -5.67253,-1.00614 5.39761,-5.30666 -6.03839,1.464 -4.48293,-0.36587 v -1.18959 l -2.65307,-0.82321 -3.65973,-2.47065 7.86826,-2.0128 7.04453,-3.84266 -3.20187,-1.0976 1.55546,-2.37867 6.86159,-4.94078 6.03839,-8.23413 -4.8488,3.01894 -4.48344,1.55546 0.45785,-1.82986 -2.65358,1.00666 -0.0915,-2.56212 -3.38532,0.36638 -6.67867,0.36587 -3.65972,-1.18959 4.11706,-2.92747 -4.5744,-1.82986 -4.20853,-3.56826 -0.64027,-1.92133 3.93413,-0.0915 3.47627,-1.7384 9.78959,-5.58105 4.11706,-1.55546 -1.82987,-1.55495 -2.836,-0.45785 2.37867,-2.0128 0.45733,-0.64027 -4.57439,-0.91467 -5.21519,-3.20239 2.65359,-0.45734 -0.73226,-2.92798 0.64079,-2.74454 5.30613,-2.37867 4.30052,-0.73225 -1.64693,-1.28054 1.82986,-1.464 0.45734,-1.09812 -5.67252,-1.55494 -2.10427,-2.28772 -2.65307,-2.92747 -1.00665,-1.7384 5.12372,0.64028 2.28719,-0.54881 4.0256,-0.8232 1.37252,-1.00666 -1.92133,-0.82321 -0.36586,-1.09812 2.92747,-1.64693 2.28719,-2.0128 -3.84266,0.0915 -2.28719,-1.00614 4.75733,-2.47013 0.79271,-0.27492 -12.10158,-3.99097 -17.07958,0.77618 -12.16256,2.58795 -3.36362,-0.1297 -3.78324,-1.89136 c -2.78468,1.50674 -6.40242,0.56359 -8.70644,-3.15433 l -12.030791,-2.79776 -13.540775,-1.64693 -12.442652,-1.64693 -8.051705,-3.47627 -6.587195,-5.48959 z m -17.291968,167.63421 -1.143599,1.07539 -0.04548,2.23449 1.189074,-0.0119 z m 0,3.29799 v 20.63595 l 35.143592,-0.6165 c 0.264169,-3.13574 0.607064,-6.26381 0.985986,-9.38805 l -21.353736,-8.23361 -12.076782,-2.42466 z m 0,20.63595 -0.823205,0.0145 -0.731739,78.2252 1.554944,-0.16485 z m 0,-184.39804 v -5.48649 c -0.114834,0.37686 -0.238175,0.75127 -0.363285,1.12499 -0.135617,0.40512 -0.282573,0.7875 -0.439767,1.14774 v 5.2e-4 l -0.02015,3.72793 z m 795.583485,21.96403 1.42316,3.62303 0.38861,7.37526 1.81126,5.82239 -0.12919,129.77657 -6.72827,-1.16478 -11.77448,-2.32906 -11.12748,-2.07016 -10.4805,1.03508 -6.08128,2.84686 -2.19935,1.55236 -6.34018,-2.32906 -0.2589,-2.84634 4.14083,-2.19935 -2.45877,-1.55288 -5.95157,-6.08128 3.10524,-1.55236 0.38809,-4.01112 0.64699,-3.75223 3.36413,-2.19986 9.57461,-14.10302 2.58796,-2.19986 -4.14032,-2.32906 -0.7767,-2.32906 -3.36413,-4.01061 -2.45825,-4.39921 -0.51728,-3.75274 1.94045,-5.30459 6.46937,-3.49333 5.95209,-7.63416 4.27003,-3.75222 2.58744,-2.32906 -1.42317,-2.45825 -2.97605,-4.91701 -4.01112,-3.75222 2.97604,-1.03508 6.85746,-13.58574 7.50497,-9.44542 5.1754,-1.03507 1.68207,-2.84634 1.29397,-2.07016 1.16427,-5.43429 3.10524,-5.4343 1.81178,-4.7873 1.16427,-6.46937 z m -706.00187,132.40484 -4.15169,0.50333 -4.32842,2.46445 -6.79286,6.01668 -0.87333,0.12919 -0.45269,1.74667 -1.71462,1.65003 -9.73636,6.53396 -0.28422,0.35089 c 0.177393,1.89733 0.298141,3.79874 0.306958,5.70559 0.0067,1.45947 -0.09066,2.81486 -0.277503,4.06642 l 20.973915,-0.95343 3.65972,-4.75733 h 33.66875 l 17.93224,1.82934 8.78344,0.73226 -0.73225,-10.24692 1.7787,-3.16208 c -0.0746,-1.0635 -0.14571,-2.12706 -0.21342,-3.19102 l -11.35487,3.97392 -6.58719,0.91518 -12.25972,-2.01279 -9.60665,-4.11706 -7.50238,-4.3 z" /></g></svg>
	  