<?xml version="1.0" encoding="UTF-8" standalone="no"?>
<!-- Created with Inkscape (http://www.inkscape.org/) -->

<svg
   preserveAspectRatio="none"
   width="800mm"
   height="600mm"
   viewBox="0 0 800.00002 599.99997"
   version="1.1"
   id="svg1"
   xml:space="preserve"
   xmlns="http://www.w3.org/2000/svg"
   xmlns:svg="http://www.w3.org/2000/svg"><defs
     id="defs1" /><g
	id="zona-hojas"
	fill="transparent"
     	stroke="transparent"
     	role="button"
     	tabindex="0"
     	aria-label="Hojas grandes y redondas que flotan sobre el agua con una gran flor encima"
     	data-zona="Nenúfares"><path
       d="m 283.1052,289.01027 c 0,0 -2.25784,0.69483 -3.64732,1.38958 -1.38949,0.69474 -5.73144,2.95279 -5.73144,2.95279 l -4.34237,-2.60501 -5.21053,-1.56321 -2.08411,1.38906 -5.5578,4.68963 -1.38958,2.25775 -9.03149,-3.29954 -4.16822,-0.69505 -1.38958,2.25774 -0.52142,4.16874 -1.38906,2.43138 -0.69505,2.60552 v 2.60501 l -3.64732,-0.34726 -4.86327,-1.04232 -6.5996,-0.34726 -0.17415,2.08411 -1.56269,1.73684 -22.92677,4.51601 -17.71571,8.51059 -3.47369,6.25233 3.47369,6.07921 c 0,0 15.11051,7.64185 15.80524,7.81555 0.69474,0.17367 18.23713,4.16874 18.23713,4.16874 l 34.38963,3.82095 27.61537,0.5209 46.02664,-4.86327 23.79442,-7.98918 8.51059,-7.46827 -0.17363,-5.38469 -2.60501,-4.16822 -9.37928,-4.51549 -7.81554,-2.95279 -5.5578,-1.91048 2.08411,-4.34237 0.69453,-1.04179 h -5.38416 -1.56322 l 0.17364,-7.4688 -1.38958,-0.86816 c 0,0 -6.42624,0.52116 -7.29465,1.38958 -0.86842,0.86841 -4.51549,-6.07922 -4.51549,-6.07922 l -2.25826,-1.56321 -4.68911,-0.17363 -6.25285,1.56321 -1.56322,1.56321 -5.38416,-3.99459 -4.34186,-2.08462 z m 347.41807,29.69017 -18.42213,0.73691 -26.03614,4.91236 -15.22904,6.2637 -6.01772,6.26319 -1.10536,4.17597 2.21072,5.52628 c 0,0 12.40426,7.86035 13.75523,8.10596 1.35093,0.24564 26.28212,6.01772 26.28212,6.01772 l 31.56293,1.47381 28.00139,-2.57917 19.77295,-4.54391 4.54391,-2.57917 -8.10545,-2.33319 -37.82663,-9.57978 -1.22835,-1.35082 4.05298,-0.61391 35.98437,0.49092 h 19.64996 l -2.82463,-5.52627 -5.77226,-3.56154 -10.56163,-4.54443 -11.91296,-2.82463 -18.29915,-3.68453 z m -528.9181,34.57309 -16.326138,0.34726 -24.663094,3.30006 c 0,0 -16.152813,4.68957 -16.84755,4.86327 -0.694738,0.17367 -7.121013,3.82095 -7.121013,3.82095 l -7.468278,6.07922 -1.563212,6.60011 c 0,0 3.299855,6.0787 3.994589,6.0787 l 54.189457,-8.16332 0.520898,0.86868 -36.994641,13.02608 -2.257743,2.43189 19.452559,5.21053 17.889348,2.25775 31.958258,0.17363 22.05757,-1.91048 22.57898,-6.25285 12.50518,-5.5578 5.73195,-6.0787 -0.34778,-5.5578 -5.21054,-6.94738 c 0,0 -9.20492,-5.38458 -9.89965,-5.73195 -0.69474,-0.34737 -9.72654,-3.30005 -9.72654,-3.30005 l -14.93656,-3.12591 -18.75802,-2.25826 z m 451.40552,139.64212 -11.72383,0.60823 -16.76074,3.38687 -4.77593,2.86546 -4.16874,4.25556 c 0,0 -0.43408,2.60489 -0.43408,2.95227 0,0.34737 0.86851,4.95001 1.47639,5.21054 0.60791,0.26054 8.59741,3.0396 8.59741,3.0396 0,0 18.06277,5.03688 18.75751,5.12372 0.69475,0.0868 13.98209,-0.0868 13.98209,-0.0868 l 26.74721,-1.9973 10.16062,-3.5605 -27.96315,-7.81607 0.5209,-1.21542 37.42872,-0.9555 -2.86546,-3.12643 -13.98157,-6.07869 -17.45527,-2.60553 z m -405.03161,22.05808 -4.08192,1.12913 c 0,0 -3.56038,2.77853 -3.99459,3.21273 -0.43421,0.43421 -5.21053,4.34237 -5.21053,4.34237 l -3.38688,-3.56051 -4.95008,-2.69234 -3.82096,-1.21543 -1.99729,2.17093 -3.38687,2.51819 -2.25775,3.47369 -1.38958,1.4764 -3.21324,-1.38958 -8.85786,-1.82366 -6.860558,-0.78135 -0.520899,1.99729 0.781348,3.38688 0.173633,5.29735 -2.34456,0.52089 H 91.79233 l 0.173633,2.51871 -0.347783,2.5182 -2.518192,0.78186 -4.081405,-1.38958 -7.81606,0.0868 -4.255038,-0.43408 -0.173632,2.08411 -1.910478,0.95498 -24.663611,5.73195 -19.626192,7.12101 -8.336959,6.94738 -1.562695,6.5996 6.599597,9.37927 16.500285,6.77375 c 0,0 36.29975,6.7737 37.515539,6.94737 1.21579,0.1737 45.157971,2.25775 45.157971,2.25775 l 27.09498,-0.5209 33.52095,-2.60553 37.16828,-9.72602 10.94197,-7.81606 4.16873,-8.51059 -4.516,-7.46828 -8.33696,-4.68963 -12.33155,-4.16822 -5.90506,-3.12643 1.91048,-5.5578 -0.69453,-0.5209 -5.21054,0.69453 -1.04231,-1.38958 0.34726,-8.68422 -1.12861,-0.95498 -5.73195,0.5209 -7.12101,2.17092 -1.30225,-4.68911 -2.08463,-3.64784 -3.1259,-1.73685 h -4.34237 l -5.47099,1.65003 -5.12372,2.60553 -0.78134,-0.17364 -3.30006,-3.21324 c 0,0 -3.21311,-3.21319 -3.64732,-3.30005 -0.43421,-0.0868 -4.68964,-2.08412 -4.68964,-2.08412 z m 357.82726,20.49229 -3.68402,0.55242 -2.64066,1.53531 c 0,0 -3.68427,1.59636 -3.8685,2.02623 -0.18423,0.42984 -1.22835,1.35134 -1.22835,1.35134 l -1.28933,-1.5353 -3.80752,-2.08773 -3.13159,-0.7984 h -2.94762 l -2.51768,2.33319 -1.5353,2.21072 -1.71928,2.3337 -1.71566,0.59118 -11.98376,-3.1259 -2.95279,0.34726 0.69453,4.34185 c 0,0 1.04205,4.16866 0.17363,4.51601 -0.86841,0.34737 -2.95227,0.86816 -2.95227,0.86816 l 0.69453,3.47369 -2.25775,-0.17363 -5.38416,-1.0418 -6.77375,-0.69505 -1.73684,1.21595 -0.5209,2.25774 -8.33696,2.60553 -11.28975,2.25774 -11.98428,3.12643 -7.46828,4.86327 -2.08411,4.16822 0.86816,6.94738 13.20023,7.46827 28.48405,5.73195 25.87904,3.99459 29.1791,-0.69453 35.60506,-3.9951 23.96856,-5.73144 12.15792,-9.20512 1.56321,-6.25285 -2.25774,-4.51548 -10.59522,-5.03691 -11.6365,-3.64732 1.91048,-2.77916 -0.69505,-2.43137 -5.03639,0.34726 0.34003,-4.516 -1.04386,-3.19309 c 0,0 -2.3337,0.0616 -2.70216,0.12299 -0.36843,0.0614 -5.21932,0.73639 -5.21932,0.73639 l -1.41232,-1.35082 -1.71979,-2.64015 -2.14922,-1.53531 -2.02624,-1.47381 -2.94762,0.0615 -3.50004,0.49092 -3.43907,1.35134 -2.14922,0.98237 -1.90325,-1.35082 -1.41231,-1.78077 -3.93,-2.57917 z m 167.56755,21.53926 -31.95826,3.12642 -17.54208,4.51549 9.20564,2.08463 31.26269,4.51548 26.92135,5.90558 -1.56321,0.86817 -13.37386,-0.86817 -74.33655,2.43138 -3.47369,1.38958 0.86817,3.64732 9.5529,6.60012 21.18941,7.12101 35.95232,4.51549 36.47375,0.34726 34.216,-2.08411 7.98917,-1.56321 -1.56269,0.52141 c 0.86842,-0.17369 28.48405,-6.77374 28.48405,-6.77374 l 12.67881,-9.03149 0.69505,-7.9897 -9.03201,-8.16332 -23.44715,-6.25233 -43.24749,-4.86327 z" /></g><g
	id="zona-patos"
	fill="transparent"
     	stroke="transparent"
     	role="button"
     	tabindex="0"
     	aria-label="La pata cuida de los patitos bebes en el estanque"
     	data-zona="Patos"><path
       d="m 448.75969,307.27892 -8.84236,0.7369 -11.29905,2.70165 -7.85998,4.91288 -3.19309,5.15782 -2.94762,6.14071 c 0,0 -0.49127,4.66677 -0.73691,5.64927 -0.24561,0.98251 -2.70164,5.15834 -2.70164,5.15834 l -4.6669,6.14071 -6.87762,4.42144 -9.82524,3.92999 -2.21072,3.92999 4.17598,2.45618 11.78997,1.22835 15.47451,-3.43906 5.64927,-2.94763 2.70216,1.47381 7.36854,2.45618 7.36906,1.7198 v 3.43855 l -1.47381,7.85998 -4.91288,8.59689 -8.10545,10.31669 -9.33379,12.52688 -7.61453,12.52688 V 430.829 l 2.21072,10.0707 4.91236,9.08834 11.29905,6.63163 12.77235,2.94763 23.58047,3.92999 30.9485,0.73691 21.8612,-0.24547 31.43994,-0.7369 25.29975,-2.21072 22.59759,-3.19309 26.77304,-6.63215 7.36906,-3.68453 c 0,0 -4.17561,1.22853 6.14071,-3.68401 10.31631,-4.91252 7.85999,-6.63216 7.85999,-6.63216 l 6.38617,-6.87761 c 0,0 6.14084,-8.84228 9.82524,-16.70234 3.62684,-7.73724 3.92115,-7.14402 3.92947,-7.1236 l 5.2e-4,5.2e-4 3.68401,-20.38739 v -4.91236 l -10.07018,3.19309 -22.84357,9.08833 -7.12308,-0.24546 5.40381,-5.40381 3.68453,-7.61452 v -4.17597 l -0.49145,-5.15783 -5.15834,1.96474 -13.26379,6.38669 -9.3338,3.68402 -13.01781,3.43906 -13.2643,0.98237 -17.93069,-0.98237 -28.98376,-0.7369 h -23.08903 l -12.28142,1.22783 -17.43925,5.64978 -12.77286,7.36854 -0.49093,-8.35142 0.73691,-7.85999 3.68453,-6.38617 2.70164,-6.38618 2.94763,-8.59689 1.47381,-8.35143 0.98237,-15.22904 -1.47382,-7.61401 -4.42143,-8.10596 -7.85999,-8.59689 -8.35091,-4.91236 z m -125.53342,44.51821 -7.46828,2.17145 -7.55561,5.12371 -2.17093,3.82096 c 0,0 -1.4764,3.47351 -1.4764,4.16822 0,0.69475 -0.26054,3.30033 0,4.16874 0.26053,0.86842 1.73685,4.86275 1.73685,4.86275 l 3.38687,3.30006 1.04232,1.73684 -0.86869,0.86868 -16.32613,1.73685 -10.85515,2.25774 -11.5502,0.0868 -6.77375,-1.12913 -5.5578,-3.21273 -4.42867,6.77323 0.5209,6.60012 2.08411,5.29735 3.73414,6.25285 11.28975,6.60011 14.67611,3.64732 21.62348,0.17364 25.0977,-1.4764 7.72872,-2.60553 7.55561,-5.90506 3.03909,-5.29735 v -4.08141 l -0.60771,-3.73414 -2.25774,-3.30005 -3.21324,-3.73414 -6.60012,-4.08192 -1.73684,-1.73685 0.86868,-1.56321 3.38687,-1.30225 7.0342,1.30225 7.98917,-0.78135 4.77646,-2.25774 0.5209,-1.30276 -0.60772,-0.9555 -1.99729,-1.0418 -5.38417,-1.82366 -5.21054,-2.17144 -2.43189,-2.43138 -2.77864,-7.0342 -4.34237,-3.82095 -6.86056,-3.03961 z m -97.24988,38.74906 -6.75463,0.49144 -6.14071,2.33319 -6.50916,6.63215 -1.35082,3.80701 -0.49145,4.91236 0.61444,5.03587 3.43854,4.91236 1.22835,3.31608 -8.84287,0.24546 -9.2108,1.35082 -9.21133,1.35082 -9.57926,1.71979 -6.01772,-0.49144 -5.03535,-1.10536 -4.78989,-1.96525 -1.47381,-1.4733 -6.26318,7.85999 1.35082,4.17545 1.10536,6.50917 2.94762,4.6669 3.43855,3.68453 7.61452,5.28081 10.19369,2.82463 9.21081,2.08773 17.8077,0.98289 14.49214,-1.10536 16.94832,-1.35134 8.71988,-3.0701 7.85999,-6.01772 3.07009,-7.61452 -0.85938,-5.52679 -3.31607,-5.15783 -4.17598,-3.43907 -5.03535,-3.31607 -1.47329,-2.33319 1.10484,-1.59681 c 0,0 3.07065,-0.73638 4.17597,-0.73638 1.10532,0 9.82473,0.73638 9.82473,0.73638 l 6.63215,0.12299 3.68453,-3.43854 -0.12299,-1.7198 -4.54391,-2.2102 -6.01824,-1.84226 -3.68401,-2.08773 -2.45618,-5.15834 -3.19361,-6.50917 -4.5439,-2.21071 -4.42144,-1.96474 z m 125.90807,29.24834 -6.77374,1.56321 -9.03201,5.5578 -5.38417,5.73195 -0.86816,4.16822 -1.56321,4.34238 -3.99459,2.25774 -6.77375,2.77916 -7.46828,1.91047 -0.86868,1.73685 1.38958,2.43138 5.0369,2.25774 10.07329,1.21595 h 6.25285 l 5.0369,-2.08412 1.73685,0.5209 3.12642,2.77916 -0.69505,1.56321 -6.25233,4.16823 -6.60011,4.86326 -5.0369,6.42597 -1.04232,9.72654 3.30006,9.37875 11.28975,6.60012 12.50518,3.64732 23.79493,1.56321 28.31042,-1.0418 9.37875,-1.04231 11.11612,-2.60553 11.1156,-5.03638 10.76833,-9.03201 c 0,0 2.43179,-8.33666 2.77916,-9.37875 0.34737,-1.04211 2.08411,-8.85786 2.08411,-8.85786 l -3.47369,-3.47369 -1.38958,-4.516 -2.43137,-0.17364 -3.12643,1.73685 -11.98428,3.64732 -5.38417,0.17363 -14.06839,-1.73684 c 0,0 -13.89486,-2.77854 -15.28434,-3.12591 -1.38946,-0.34737 -13.37386,-1.21594 -13.37386,-1.21594 l -3.82095,-1.04232 5.0369,-4.68912 3.12642,-4.516 c 0,0 0.86869,-5.03701 0.86869,-8.16333 0,-3.12631 -2.08463,-7.12101 -2.08463,-7.12101 l -4.68912,-6.5996 -4.34237,-3.47369 -3.30006,-0.86868 -8.68422,-2.95279 z" /></g><g
	id="zona-vegetacion"
	fill="transparent"
     	stroke="transparent"
     	role="button"
     	tabindex="0"
     	aria-label="Cesped, árboles y arbustos que rodean el estanque"
     	data-zona="Vegetación"><path
       d="M -0.34736841,305.85788 29.873683,306.89999 102.99473,303.6 165,295.61051 l 33.69473,-8.51053 16.67368,-9.72629 c 0,0 0,-2.77895 0,-3.64739 0,-0.86842 -4.16842,-5.03682 -4.16842,-5.03682 l -3.82105,-1.56316 196.26314,-0.1737 107.68423,0.86842 -10.94211,3.30001 -14.4158,6.77368 -5.73156,7.12105 1.04209,6.42633 10.07369,6.25261 19.45262,5.21054 24.31579,3.82106 28.48422,2.95262 50.19474,2.77894 48.11051,2.43158 h 32.82632 l 33.86841,-0.17367 71.90529,0.52104 L 799.98945,0 577.3263,0.34736841 l -6.6,4.51578939 V 6.686842 l -6.07894,-1.1289474 -7.72895,1.9105263 -1.47632,1.9105263 -0.34737,2.0842108 -2.17104,-0.173685 -5.21052,-0.955263 -6.07896,0.781579 c 0,0 -0.95525,0.781579 -1.12895,1.389474 -0.17368,0.607895 -0.34738,1.476316 -0.34738,1.476316 l -1.91052,1.302631 -3.21316,0.434211 -1.47632,0.955263 0.0869,3.126316 -0.26053,1.563157 -1.73683,0.781579 -18.90192,4.505745 -9.94788,4.298466 -13.50947,7.860049 -5.89502,8.351302 -4.6669,10.193505 v 7.368796 l 0.24561,7.123171 2.57908,10.807567 2.94751,6.877545 1.71939,3.193145 -4.17565,0.982506 -9.08817,-0.245626 -14.98322,6.631913 -5.89505,7.49161 c 0,0 -1.22812,3.43878 -1.59658,4.29847 -0.36843,0.85969 -2.33344,5.28097 -2.33344,5.28097 l -1.22814,5.03534 -5.28095,-2.8247 -5.52662,-1.59657 -9.08817,-0.12282 -8.84256,3.6844 0.12282,1.10532 -16.91783,-14.0659 -11.63685,-3.90789 -13.20001,-2.17105 -14.67631,1.56315 -12.7658,5.03685 c 0,0 -10.42104,6.6 -10.42104,7.38158 0,0.78158 -6.68684,12.76579 -6.68684,12.76579 l -1.38948,10.9421 -0.52105,3.56053 -12.33156,-7.90264 -6.68684,-2.17105 -9.55265,-1.38947 -11.46316,0.43421 -10.42106,2.17105 -5.64473,2.17105 -5.73159,3.56053 -5.73156,4.08158 -1.73684,1.82368 -3.47369,-4.68947 -7.72895,-7.03421 -1.56315,-1.56316 3.47368,-1.99737 0.17368,-4.25526 v -3.56052 l 3.9079,-1.21579 2.43158,-1.21579 0.86842,-2.43158 v -2.60527 l -0.43421,-2.17105 3.21316,-2.60526 1.73684,-2.60527 -0.95526,-2.34473 -2.17106,-0.52106 -0.95526,-2.25789 v -3.299999 l -1.30263,-1.910527 c 0,0 -2.86579,-1.997368 -3.47369,-1.997368 -0.60789,0 -3.99473,-0.08684 -3.99473,-0.08684 l -0.43421,-2.605262 0.34736,-2.605265 -1.12894,-3.213158 -2.34474,-0.868421 -3.03947,-0.955262 V 84.58421 l 1.21579,-1.823683 3.56052,0.521052 c 0,0 1.30263,1.042104 2.77895,1.389473 1.47632,0.347369 3.3,0.521054 3.82105,0.521054 0.52105,0 4.51579,-0.521054 4.51579,-0.521054 l 1.56316,-2.344735 v -4.168423 l -0.95526,-2.692104 -1.73685,-3.907896 4.77632,1.997369 7.46841,1.21579 6.60001,-0.173683 3.30001,-2.431579 c 0,0 0.17368,-0.868421 0,-1.736845 -0.1737,-0.86842 -1.12895,-4.255261 -1.12895,-4.255261 l -2.51843,-2.778948 -3.99474,-2.08421 -0.78158,-2.171052 3.03949,-1.302631 3.29998,-1.65 c 0,0 0.69475,-0.694738 0.69475,-1.21579 0,-0.521054 -0.69475,-2.952633 -0.69475,-2.952633 l -2.77894,-2.344735 -5.55789,-1.736844 -0.95525,-1.65 1.38946,-0.955262 1.21578,-2.692106 -0.34737,-1.65 -1.82367,-2.08421 -3.12631,-0.868421 -5.21053,-1.823683 -0.17369,-1.302634 -1.21579,-3.3 -1.21579,-1.128945 c 0,0 1.73684,-1.65 2.43158,-2.257896 0.69474,-0.607893 2.95263,-1.997368 2.95263,-1.997368 L 265.04213,23.186844 263.39214,21.79737 259.3974,21.276317 257.05262,19.8 256.7921,17.628947 254.88157,16.5 l -3.90789,0.08684 -4.42895,1.042105 -2.51842,-0.260526 -0.34737,-1.823684 -0.78158,-1.042106 -2.86579,-0.781579 -1.0421,-0.347368 h -3.47369 l -3.47368,1.042105 -2.17105,0.434211 -1.04211,-1.302632 -1.91052,-2.257895 -4.25527,-2.0842102 -5.73158,0.6947369 -1.65,-0.7815789 -0.78158,-2.3447367 -3.47368,-4.6026315 -5.73158,-2.2578947 -1.73684,-0.34736841 L 0,-0.0868421 Z"
       id="path12" /></g><g
	id="zona-agua"
	fill="transparent"
     	stroke="transparent"
     	role="button"
     	tabindex="0"
     	aria-label="Estanque profundo donde viven toca clase de seres acuáticos"
     	data-zona="Estanque"><path
       d="m 403.64203,266.9527 -196.26296,0.17363 3.82096,1.56321 c 0,0 4.16822,4.16848 4.16822,5.0369 v 3.64733 l -16.6734,9.72602 -33.6951,8.51059 -62.005,7.98969 -73.121121,3.30006 -29.74392115,-1.02578 V 600.34527 H 646.07426 l -15.94786,-2.00298 -21.18941,-7.12101 -9.5529,-6.60012 -0.86817,-3.64732 3.47369,-1.38958 74.33655,-2.43138 13.37386,0.86817 1.56321,-0.86817 -26.92135,-5.90558 -31.26269,-4.51548 -9.20564,-2.08463 17.54208,-4.51549 31.95826,-3.12642 h 35.95232 l 43.24749,4.86327 23.44715,6.25233 9.03201,8.16332 -0.69505,7.9897 -12.67881,9.03149 c 0,0 -27.61563,6.60005 -28.48405,6.77374 l 1.56269,-0.52141 -4.02508,0.78755 h 59.40258 V 315.23399 l -71.53,-0.51832 -33.86822,0.17364 H 661.9105 l -48.11076,-2.43138 -50.19435,-2.77916 -28.48456,-2.95227 -24.31583,-3.82147 -19.45256,-5.21054 -10.07329,-6.25233 -1.04231,-6.42648 5.73143,-7.12101 14.41617,-6.77375 10.94197,-3.30006 z M 283.1052,289.01027 h 4.516 l 4.34186,2.08462 5.38416,3.99459 1.56322,-1.56321 6.25285,-1.56321 4.68911,0.17363 2.25826,1.56321 c 0,0 3.64707,6.94763 4.51549,6.07922 0.86841,-0.86842 7.29465,-1.38958 7.29465,-1.38958 l 1.38958,0.86816 -0.17364,7.4688 h 1.56322 5.38416 l -0.69453,1.04179 -2.08411,4.34237 5.5578,1.91048 7.81554,2.95279 9.37928,4.51549 2.60501,4.16822 0.17363,5.38469 -8.51059,7.46827 -23.79442,7.98918 -46.02664,4.86327 -27.61537,-0.5209 -34.38963,-3.82095 c 0,0 -17.54239,-3.99507 -18.23713,-4.16874 -0.69473,-0.1737 -15.80524,-7.81555 -15.80524,-7.81555 l -3.47369,-6.07921 3.47369,-6.25233 17.71571,-8.51059 22.92677,-4.51601 1.56269,-1.73684 0.17415,-2.08411 6.5996,0.34726 4.86327,1.04232 3.64732,0.34726 v -2.60501 l 0.69505,-2.60552 1.38906,-2.43138 0.52142,-4.16874 1.38958,-2.25774 4.16822,0.69505 9.03149,3.29954 1.38958,-2.25775 5.5578,-4.68963 2.08411,-1.38906 5.21053,1.56321 4.34237,2.60501 c 0,0 4.34195,-2.25805 5.73144,-2.95279 1.38948,-0.69475 3.64732,-1.38958 3.64732,-1.38958 z m 165.65449,18.26865 12.77286,2.21072 8.35091,4.91236 7.85999,8.59689 4.42143,8.10596 1.47382,7.61401 -0.98237,15.22904 -1.47381,8.35143 -2.94763,8.59689 -2.70164,6.38618 -3.68453,6.38617 -0.73691,7.85999 0.49093,8.35142 12.77286,-7.36854 17.43925,-5.64978 12.28142,-1.22783 h 23.08903 l 28.98376,0.7369 17.93069,0.98237 13.2643,-0.98237 13.01781,-3.43906 9.3338,-3.68402 13.26379,-6.38669 5.15834,-1.96474 0.49145,5.15783 v 4.17597 l -3.68453,7.61452 -5.40381,5.40381 7.12308,0.24546 22.84357,-9.08833 10.07018,-3.19309 v 4.91236 l -3.68401,20.38739 -5.2e-4,-5.2e-4 c -0.008,-0.0204 -0.30263,-0.61364 -3.92947,7.1236 -3.6844,7.86006 -9.82524,16.70234 -9.82524,16.70234 l -6.38617,6.87761 c 0,0 2.45632,1.71964 -7.85999,6.63216 -10.31632,4.91254 -6.14071,3.68401 -6.14071,3.68401 l -7.36906,3.68453 -26.77304,6.63215 -22.59759,3.19309 -25.29975,2.21072 -31.43994,0.7369 -21.8612,0.24547 -30.9485,-0.73691 -23.58047,-3.92999 -12.77235,-2.94763 -11.29905,-6.63163 -4.91236,-9.08834 -2.21072,-10.0707 v -16.45688 l 7.61453,-12.52688 9.33379,-12.52688 8.10545,-10.31669 4.91288,-8.59689 1.47381,-7.85998 v -3.43855 l -7.36906,-1.7198 -7.36854,-2.45618 -2.70216,-1.47381 -5.64927,2.94763 -15.47451,3.43906 -11.78997,-1.22835 -4.17598,-2.45618 2.21072,-3.92999 9.82524,-3.92999 6.87762,-4.42144 4.6669,-6.14071 c 0,0 2.45603,-4.17583 2.70164,-5.15834 0.24564,-0.9825 0.73691,-5.64927 0.73691,-5.64927 l 2.94762,-6.14071 3.19309,-5.15782 7.85998,-4.91288 11.29905,-2.70165 z m 181.76358,11.42152 22.47511,0.24547 18.29915,3.68453 11.91296,2.82463 10.56163,4.54443 5.77226,3.56154 2.82463,5.52627 h -19.64996 l -35.98437,-0.49092 -4.05298,0.61391 1.22835,1.35082 37.82663,9.57978 8.10545,2.33319 -4.54391,2.57917 -19.77295,4.54391 -28.00139,2.57917 -31.56293,-1.47381 c 0,0 -24.93119,-5.77208 -26.28212,-6.01772 -1.35097,-0.24561 -13.75523,-8.10596 -13.75523,-8.10596 l -2.21072,-5.52628 1.10536,-4.17597 6.01772,-6.26319 15.22904,-6.2637 26.03614,-4.91236 z m -307.297,33.09669 9.03149,1.12913 6.86056,3.03961 4.34237,3.82095 2.77864,7.0342 2.43189,2.43138 5.21054,2.17144 5.38417,1.82366 1.99729,1.0418 0.60772,0.9555 -0.5209,1.30276 -4.77646,2.25774 -7.98917,0.78135 -7.0342,-1.30225 -3.38687,1.30225 -0.86868,1.56321 1.73684,1.73685 6.60012,4.08192 3.21324,3.73414 2.25774,3.30005 0.60771,3.73414 v 4.08141 l -3.03909,5.29735 -7.55561,5.90506 -7.72872,2.60553 -25.0977,1.4764 -21.62348,-0.17364 -14.67611,-3.64732 -11.28975,-6.60011 -3.73414,-6.25285 -2.08411,-5.29735 -0.5209,-6.60012 4.42867,-6.77323 5.5578,3.21273 6.77375,1.12913 11.5502,-0.0868 10.85515,-2.25774 16.32613,-1.73685 0.86869,-0.86868 -1.04232,-1.73684 -3.38687,-3.30006 c 0,0 -1.47632,-3.99433 -1.73685,-4.86275 -0.26054,-0.86841 0,-3.47399 0,-4.16874 0,-0.69471 1.4764,-4.16822 1.4764,-4.16822 l 2.17093,-3.82096 7.55561,-5.12371 z m -221.6211,1.4764 18.75803,0.17363 18.75802,2.25826 14.93656,3.12591 c 0,0 9.0318,2.95268 9.72654,3.30005 0.69473,0.34737 9.89965,5.73195 9.89965,5.73195 l 5.21054,6.94738 0.34778,5.5578 -5.73195,6.0787 -12.50518,5.5578 -22.57898,6.25285 -22.05757,1.91048 -31.958258,-0.17363 -17.889348,-2.25775 -19.452559,-5.21053 2.257743,-2.43189 36.994641,-13.02608 -0.520898,-0.86868 -54.189457,8.16332 c -0.694734,0 -3.994589,-6.0787 -3.994589,-6.0787 l 1.563212,-6.60011 7.468278,-6.07922 c 0,0 6.426275,-3.64728 7.121013,-3.82095 0.694737,-0.1737 16.84755,-4.86327 16.84755,-4.86327 l 24.663094,-3.30006 z m 124.37122,37.27266 9.94771,1.5968 4.42144,1.96474 4.5439,2.21071 3.19361,6.50917 2.45618,5.15834 3.68401,2.08773 6.01824,1.84226 4.54391,2.2102 0.12299,1.7198 -3.68453,3.43854 -6.63215,-0.12299 c 0,0 -8.71941,-0.73638 -9.82473,-0.73638 -1.10532,0 -4.17597,0.73638 -4.17597,0.73638 l -1.10484,1.59681 1.47329,2.33319 5.03535,3.31607 4.17598,3.43907 3.31607,5.15783 0.85938,5.52679 -3.07009,7.61452 -7.85999,6.01772 -8.71988,3.0701 -16.94832,1.35134 -14.49214,1.10536 -17.8077,-0.98289 -9.21081,-2.08773 -10.19369,-2.82463 -7.61452,-5.28081 -3.43855,-3.68453 -2.94762,-4.6669 -1.10536,-6.50917 -1.35082,-4.17545 6.26318,-7.85999 1.47381,1.4733 4.78989,1.96525 5.03535,1.10536 6.01772,0.49144 9.57926,-1.71979 9.21133,-1.35082 9.2108,-1.35082 8.84287,-0.24546 -1.22835,-3.31608 -3.43854,-4.91236 -0.61444,-5.03587 0.49145,-4.91236 1.35082,-3.80701 6.50916,-6.63215 6.14071,-2.33319 z m 125.90807,29.24834 h 8.33645 l 8.68422,2.95279 3.30006,0.86868 4.34237,3.47369 4.68912,6.5996 c 0,0 2.08463,3.9947 2.08463,7.12101 0,3.12632 -0.86869,8.16333 -0.86869,8.16333 l -3.12642,4.516 -5.0369,4.68912 3.82095,1.04232 c 0,0 11.9844,0.86857 13.37386,1.21594 1.38948,0.34737 15.28434,3.12591 15.28434,3.12591 l 14.06839,1.73684 5.38417,-0.17363 11.98428,-3.64732 3.12643,-1.73685 2.43137,0.17364 1.38958,4.516 3.47369,3.47369 c 0,0 -1.73674,7.81575 -2.08411,8.85786 -0.34737,1.04209 -2.77916,9.37875 -2.77916,9.37875 l -10.76833,9.03201 -11.1156,5.03638 -11.11612,2.60553 -9.37875,1.04231 -28.31042,1.0418 -23.79493,-1.56321 -12.50518,-3.64732 -11.28975,-6.60012 -3.30006,-9.37875 1.04232,-9.72654 5.0369,-6.42597 6.60011,-4.86326 6.25233,-4.16823 0.69505,-1.56321 -3.12642,-2.77916 -1.73685,-0.5209 -5.0369,2.08412 h -6.25285 l -10.07329,-1.21595 -5.0369,-2.25774 -1.38958,-2.43138 0.86868,-1.73685 7.46828,-1.91047 6.77375,-2.77916 3.99459,-2.25774 1.56321,-4.34238 0.86816,-4.16822 5.38417,-5.73195 9.03201,-5.5578 z m 201.12623,73.12112 h 17.54208 l 17.45527,2.60553 13.98157,6.07869 2.86546,3.12643 -37.42872,0.9555 -0.5209,1.21542 27.96315,7.81607 -10.16062,3.5605 -26.74721,1.9973 c 0,0 -13.28734,0.17361 -13.98209,0.0868 -0.69474,-0.0868 -18.75751,-5.12372 -18.75751,-5.12372 0,0 -7.9895,-2.77906 -8.59741,-3.0396 -0.60788,-0.26053 -1.47639,-4.86317 -1.47639,-5.21054 0,-0.34738 0.43408,-2.95227 0.43408,-2.95227 l 4.16874,-4.25556 4.77593,-2.86546 16.76074,-3.38687 z m -405.03161,22.05808 h 3.73414 c 0,0 4.25543,1.99732 4.68964,2.08412 0.43421,0.0869 3.64732,3.30005 3.64732,3.30005 l 3.30006,3.21324 0.78134,0.17364 5.12372,-2.60553 5.47099,-1.65003 h 4.34237 l 3.1259,1.73685 2.08463,3.64784 1.30225,4.68911 7.12101,-2.17092 5.73195,-0.5209 1.12861,0.95498 -0.34726,8.68422 1.04231,1.38958 5.21054,-0.69453 0.69453,0.5209 -1.91048,5.5578 5.90506,3.12643 12.33155,4.16822 8.33696,4.68963 4.516,7.46828 -4.16873,8.51059 -10.94197,7.81606 -37.16828,9.72602 -33.52095,2.60553 -27.09498,0.5209 c 0,0 -43.942181,-2.08405 -45.157971,-2.25775 C 76.07355,589.48439 39.7738,582.71069 39.7738,582.71069 l -16.500285,-6.77375 -6.599597,-9.37927 1.562695,-6.5996 8.336959,-6.94738 19.626192,-7.12101 24.663611,-5.73195 1.910478,-0.95498 0.173632,-2.08411 4.255038,0.43408 7.81606,-0.0868 4.081405,1.38958 2.518192,-0.78186 0.347783,-2.5182 -0.173633,-2.51871 h 0.868164 l 2.34456,-0.52089 -0.173633,-5.29735 -0.781348,-3.38688 0.520899,-1.99729 6.860558,0.78135 8.85786,1.82366 3.21324,1.38958 1.38958,-1.4764 2.25775,-3.47369 3.38687,-2.51819 1.99729,-2.17093 3.82096,1.21543 4.95008,2.69234 3.38688,3.56051 c 0,0 4.77632,-3.90816 5.21053,-4.34237 0.43421,-0.4342 3.99459,-3.21273 3.99459,-3.21273 z m 357.82726,20.49229 3.1321,1.04387 3.93,2.57917 1.41231,1.78077 1.90325,1.35082 2.14922,-0.98237 3.43907,-1.35134 3.50004,-0.49092 2.94762,-0.0615 2.02624,1.47381 2.14922,1.53531 1.71979,2.64015 1.41232,1.35082 c 0,0 4.85089,-0.67499 5.21932,-0.73639 0.36846,-0.0614 2.70216,-0.12299 2.70216,-0.12299 l 1.04386,3.19309 -0.34003,4.516 5.03639,-0.34726 0.69505,2.43137 -1.91048,2.77916 11.6365,3.64732 10.59522,5.03691 2.25774,4.51548 -1.56321,6.25285 -12.15792,9.20512 -23.96856,5.73144 -35.60506,3.9951 -29.1791,0.69453 -25.87904,-3.99459 -28.48405,-5.73195 -13.20023,-7.46827 -0.86816,-6.94738 2.08411,-4.16822 7.46828,-4.86327 11.98428,-3.12643 11.28975,-2.25774 8.33696,-2.60553 0.5209,-2.25774 1.73684,-1.21595 6.77375,0.69505 5.38416,1.0418 2.25775,0.17363 -0.69453,-3.47369 c 0,0 2.08386,-0.52079 2.95227,-0.86816 0.86842,-0.34735 -0.17363,-4.51601 -0.17363,-4.51601 l -0.69453,-4.34185 2.95279,-0.34726 11.98376,3.1259 1.71566,-0.59118 1.71928,-2.3337 1.5353,-2.21072 2.51768,-2.33319 h 2.94762 l 3.13159,0.7984 3.80752,2.08773 1.28933,1.5353 c 0,0 1.04412,-0.9215 1.22835,-1.35134 0.18423,-0.42987 3.8685,-2.02623 3.8685,-2.02623 l 2.64066,-1.53531 z" /></g><g
	id="zona-cielo"
	fill="transparent"
     	stroke="transparent"
     	role="button"
     	tabindex="0"
     	aria-label="Cielo despejado con una parvada de aves a lo lejos"
     	data-zona="Cielo"><path
       d="m 204.48881,-0.24804687 0.80615,0.16123046 5.73144,2.25774331 3.47369,4.6028198 0.78134,2.3445598 1.65003,0.7818644 5.73143,-0.695048 4.25556,2.0841101 1.91048,2.25826 1.04231,1.302763 2.17093,-0.434598 3.47369,-1.041797 h 3.47369 l 1.04179,0.347265 2.86598,0.781348 0.78186,1.042314 0.34727,1.823661 2.51819,0.260449 4.42919,-1.042314 3.90777,-0.08682 1.91048,1.12913 0.26045,2.170927 2.34507,1.476396 3.99459,0.520898 1.65003,1.389579 -0.69505,3.039608 c 0,0 -2.25753,1.389401 -2.95227,1.997294 -0.69474,0.607896 -2.4319,2.257744 -2.4319,2.257744 l 1.21595,1.12913 1.21595,3.300057 0.17363,1.302762 5.21053,1.823662 3.12643,0.868164 1.82366,2.08411 0.34727,1.650029 -1.21595,2.692342 -1.38958,0.955497 0.9555,1.649512 5.5578,1.736845 2.77916,2.345076 c 0,0 0.69453,2.431221 0.69453,2.952275 0,0.521052 -0.69453,1.215946 -0.69453,1.215946 l -3.30006,1.650029 -3.03961,1.302763 0.78187,2.170927 3.99458,2.08411 2.5182,2.779159 c 0,0 0.95543,3.386617 1.12913,4.255037 0.17368,0.868424 0,1.736845 0,1.736845 l -3.30006,2.431893 -6.60011,0.173633 -7.46828,-1.215947 -4.77645,-1.997294 1.73684,3.907772 0.9555,2.692342 v 4.168221 l -1.56321,2.34456 c 0,0 -3.99496,0.521415 -4.51601,0.521415 -0.52105,0 -2.34463,-0.174046 -3.82095,-0.521415 -1.47632,-0.347369 -2.77916,-1.389063 -2.77916,-1.389063 l -3.56051,-0.521415 -1.21543,1.823661 v 1.12913 l 3.03909,0.955498 2.34508,0.868164 1.12861,3.21324 -0.34726,2.605009 0.4346,2.605526 c 0,0 3.38669,0.08682 3.99458,0.08682 0.6079,0 3.47369,1.997294 3.47369,1.997294 l 1.30277,1.910478 v 3.300061 l 0.95498,2.25774 2.17092,0.52141 0.9555,2.34456 -1.73684,2.60553 -3.21324,2.60501 0.43408,2.17093 v 2.60552 l -0.86817,2.43138 -2.43189,1.21594 -3.90777,1.21595 v 3.56051 l -0.17363,4.25503 -3.47369,1.9973 1.56321,1.56321 7.72873,7.0342 3.47369,4.68963 1.73684,-1.82366 5.73195,-4.08192 5.73143,-3.56051 5.64462,-2.17092 10.42107,-2.17093 11.46338,-0.43408 9.55239,1.38906 6.68693,2.17144 12.33155,7.90236 0.5209,-3.5605 1.38958,-10.94197 c 0,0 6.68693,-11.98405 6.68693,-12.76563 0,-0.78158 10.42107,-7.38198 10.42107,-7.38198 l 12.76563,-5.0369 14.67662,-1.56269 13.19971,2.17092 11.63702,3.90777 16.91783,14.06581 -0.12299,-1.10536 8.84287,-3.68401 9.08781,0.12247 5.5268,1.59681 5.28081,2.82463 1.22835,-5.03535 c 0,0 1.96476,-4.42113 2.33319,-5.28082 0.36846,-0.85969 1.5968,-4.29844 1.5968,-4.29844 l 5.89525,-7.49205 14.98307,-6.631638 9.08833,0.245463 4.17546,-0.982369 -1.71928,-3.193087 -2.94762,-6.877616 -2.57917,-10.807609 -0.24547,-7.12308 v -7.369059 l 4.6669,-10.193176 5.89473,-8.351428 13.50977,-7.859986 9.94772,-4.298445 18.9022,-4.505668 1.73685,-0.781865 0.26045,-1.563212 -0.0873,-3.125907 1.4764,-0.955498 3.21324,-0.434082 1.91048,-1.302762 c 0,0 0.17358,-0.868501 0.34726,-1.476396 0.1737,-0.607895 1.12913,-1.389579 1.12913,-1.389579 l 6.07922,-0.781348 5.21053,0.95498 2.17093,0.17415 0.34727,-2.0846273 1.47639,-1.9104777 7.72873,-1.9104777 6.07921,1.12913 V 4.863269 l 6.60012,-4.51600338 10.21488,-0.0160197 v -0.5792928 z" /></g></svg>
