<?xml version="1.0" encoding="UTF-8" standalone="no"?>
<!-- Created with Inkscape (http://www.inkscape.org/) -->

<svg
   preserveAspectRatio="none"
   width="800mm"
   height="600mm"
   viewBox="0 0 800.00002 599.99998"
   version="1.1"
   id="svg1"
   xml:space="preserve"
   xmlns="http://www.w3.org/2000/svg"
   xmlns:svg="http://www.w3.org/2000/svg"><defs
     id="defs1" /><g
	id="zona-personas"
	fill="transparent"
     	stroke="transparent"
     	role="button"
     	tabindex="0"
     	aria-label="Ni침os y diversas personas divirtiendose"
     	data-zona="Personas"><path
       d="m 260.9603,205.20815 -2.77864,0.26045 -4.08192,0.52089 h -2.25775 l -3.5605,0.95498 -1.4764,0.69505 -5.29735,1.38958 -1.38906,0.86817 -2.60553,12.41836 -0.5209,2.17144 -1.65003,1.47588 -0.26045,1.91048 0.34727,2.60553 3.30006,3.5605 2.25774,3.73414 1.04231,1.4764 -0.17415,1.91047 -2.34455,2.95279 -0.60772,2.69183 -0.52141,2.77916 v 1.91048 l 2.95279,4.68963 3.30005,3.73414 2.17093,4.86327 c 0,0 2.17136,5.12357 2.43189,5.64462 0.26052,0.52104 2.60501,6.25233 2.60501,6.25233 l 2.77916,0.69505 2.95228,1.99729 1.56321,1.65003 0.0868,1.56321 0.69505,1.91048 1.30276,3.30006 1.47588,2.60501 0.9555,1.65002 1.91048,2.34508 4.86327,1.21543 5.90506,-0.5209 1.56322,-2.17093 1.91047,-1.47639 c 0,0 1.56352,0.0869 2.25826,-0.17363 0.69472,-0.26053 2.95228,-2.17093 2.95228,-2.17093 l 0.52141,-2.25826 -1.56321,-3.12642 -3.30006,-0.86817 c 0,0 -4.25562,-1.38933 -4.08192,-2.25774 0.17367,-0.86842 -0.34726,-3.21324 -0.34726,-3.21324 l -0.86817,-10.07381 -1.56321,-1.38958 -2.77916,-1.12861 -2.25774,-2.08463 v -2.08411 l 1.47639,-6.94738 -0.17363,-7.12101 -0.34778,-3.73414 -1.30225,-2.17092 0.17364,-1.9973 1.21543,-4.16874 1.73736,-2.08411 0.34726,-6.16551 -1.21594,-2.60553 -1.91048,-1.99729 0.26045,-5.12372 1.38958,-2.51819 0.69453,-0.86868 0.26045,-0.69454 -1.56321,-1.12913 -1.9973,-1.47639 -1.82366,-2.69183 -1.91048,-1.12913 z m 442.26861,7.99589 -0.49144,1.84227 -7.00009,9.70225 -0.8599,3.31556 -0.98237,3.56154 -1.22835,0.85989 -0.61391,0.61392 -1.84227,1.10536 -2.21071,0.85989 -2.82464,2.57917 -2.57917,2.33319 -1.10536,3.43907 -1.10536,3.43855 0.49145,2.08773 0.24546,-0.85938 1.84226,-0.8599 v 0.8599 l -0.36845,1.22783 -2.70164,2.94762 0.85938,2.57917 3.92999,2.94763 0.7369,3.19309 c 0,0 -2.57884,-0.36847 -3.07009,-0.73691 -0.49125,-0.36844 -2.45618,-2.82463 -2.45618,-2.82463 l -3.43907,-1.47382 -1.59628,1.47382 -1.47382,1.71927 -0.61391,2.45618 0.12247,3.43855 0.24598,2.57917 4.17546,0.12299 2.57917,-0.12299 5.77225,-0.12247 1.96474,0.49092 -1.10536,2.70217 -2.57865,3.31556 -3.93051,1.84226 -5.03535,0.12299 -2.08773,0.12299 -1.35082,-1.5968 -1.71928,-3.43855 -1.35082,-2.4567 -1.71979,-2.94711 -2.33319,0.49093 -2.57917,0.98289 -1.59629,3.56154 -0.36845,4.91236 1.35082,4.54391 2.57917,1.84226 4.05247,0.12299 4.17597,0.12299 4.17546,-0.12299 1.84226,0.85938 4.17546,-2.2102 1.84226,1.10536 3.56154,1.22783 -2.45618,0.98237 -3.56154,5.89525 0.12299,5.89524 2.45618,2.57866 4.54391,-1.59629 2.45618,-3.19308 1.96526,-3.93 3.07009,-4.42143 2.70216,-1.10536 2.70165,-1.22835 c 0,0 0.36864,-1.96475 0.85989,-2.70164 0.49125,-0.73686 1.59681,-4.54391 1.59681,-4.54391 l -0.49145,-2.21072 -1.47381,-4.29845 5.15834,-1.10536 6.75463,-3.43906 5.03535,2.33371 2.70164,-0.24547 0.73691,-6.38669 0.73691,-3.807 -2.70165,-2.08773 -3.92999,-0.98237 -1.22835,1.22784 -1.22835,4.05298 -2.08773,2.70164 -2.33319,1.47381 -5.52679,-0.61391 0.24546,-1.71928 1.84227,-3.19308 1.71979,-2.21072 1.22783,-3.80752 c 0,0 1.96526,-5.89492 1.96526,-6.38618 0,-0.49125 -1.96526,-5.52627 -1.96526,-5.52627 l -0.85989,-2.94763 -1.71928,-1.10536 -0.36845,-8.35142 -0.98237,-10.31617 z m -347.31627,64.59968 -4.78937,1.84226 -4.42143,2.08773 -0.98237,2.94762 -1.47382,0.49093 -5.28081,-1.96474 -4.54443,-0.49144 -6.87761,0.24546 -4.54391,2.21072 -3.807,2.21072 0.49092,1.71927 -3.92999,-3.31556 -6.63164,-3.43907 c 0,0 -1.71979,0.24566 -1.71979,0.73691 0,0.49125 0.8599,6.38617 0.8599,6.38617 l 0.98237,3.19309 2.45669,1.5968 3.31556,-1.10536 2.94763,-1.22783 0.49144,2.70164 c 0,0 -0.12316,2.9473 -0.24598,3.43855 -0.12282,0.49125 -1.10536,3.93051 -1.10536,3.93051 l -2.70164,-3.56205 -2.45618,-1.4733 -1.5968,1.71928 0.24598,1.84226 -2.4567,1.22783 -2.82464,0.49145 0.24598,1.22783 0.49093,1.96525 -1.35082,1.59681 1.84226,1.59628 0.61392,2.33371 2.33371,0.61391 1.35082,0.85938 -0.49144,1.47382 3.19308,-1.10536 1.96526,-0.49093 c 0,0 0.98221,0.36813 1.59628,0.85938 0.61407,0.49126 2.08825,1.5968 2.08825,1.5968 l 5.03535,2.70164 0.85938,3.56206 3.07061,14.24616 2.08773,5.64927 6.26318,3.19308 13.63276,-1.35082 7.00009,-2.08773 6.63215,0.24547 2.21021,-0.36846 1.35133,-4.42143 0.36846,-2.82463 -5.28133,-1.71928 -2.3332,2.82463 -4.17597,0.24598 -8.35091,-0.61443 -0.49144,-1.35082 13.01832,0.8599 2.3332,-2.08825 3.31607,0.61443 2.45618,0.85938 2.82464,-0.36845 3.93051,-2.08773 0.73639,-2.57917 -0.36846,-5.28081 -1.22783,-2.82464 -4.78989,2.21072 -3.807,2.70164 -4.42144,0.61444 -2.33319,0.24546 -6.75514,1.96474 -3.19309,-2.57866 c 0,0 -2.33356,-2.21108 -2.57917,-2.82515 -0.24564,-0.61407 -1.47329,-4.6669 -1.47329,-4.6669 l 9.33379,-10.43863 3.68402,-1.35134 6.75514,0.36845 1.10484,-1.10536 0.8599,-2.94711 0.36845,-2.45669 -2.21072,-1.71928 -0.61391,-2.82463 -2.08773,0.12299 0.98237,-1.84227 0.61391,-0.61443 -1.71927,-0.98237 h -1.96474 l -1.84226,-0.12247 -1.22835,-1.71979 -0.49144,-0.61392 -2.21021,2.45618 -1.96525,2.21072 -1.71928,2.70216 -0.7369,3.43855 -1.35082,1.10536 -1.35134,-1.71928 v -2.45618 l 1.47381,-0.98288 0.12299,-2.82464 -0.49144,-2.21072 0.98288,-1.59628 h 4.78937 l 1.84227,-0.8599 c 0,0 1.71964,-1.22804 1.96525,-2.08772 0.24564,-0.85971 1.22801,-3.19328 1.35083,-3.68453 0.12282,-0.49125 0.7369,-2.57917 0.7369,-2.57917 l -0.12299,-2.21021 z m 398.65215,44.94971 -15.22904,0.49092 -3.68401,1.47381 -11.05359,2.45618 -7.61401,5.15835 -1.96525,4.91236 1.71927,12.03596 c 0,0 0.49127,6.38603 0.73691,7.36854 0.24562,0.9825 0.49144,4.42143 0.49144,4.42143 l -2.45618,3.19309 0.24546,3.68453 2.45619,4.42144 2.45618,4.66689 7.85998,5.89474 1.96526,2.21071 1.22834,1.47381 -4.91287,0.98237 c 0,0 -4.42131,0.24583 -5.40381,0.49145 -0.98251,0.24563 -7.36854,-0.73691 -7.36854,-0.73691 l -7.61452,0.98237 -0.24547,7.61452 -0.7369,3.43855 -6.14071,4.42144 -1.71928,6.14071 0.49093,5.89525 4.17597,9.33379 1.96474,1.71928 3.43907,2.94762 1.96473,3.68401 9.3338,1.47382 -2.70164,14.24667 -16.70286,27.26449 0.73691,9.33379 2.94762,20.38687 2.45618,4.42144 -1.22835,2.21072 c 0,0 -6.87747,5.6493 -7.85998,7.12308 -0.9825,1.47375 -1.96474,9.82524 -1.96474,9.82524 l 4.91236,3.68401 6.38617,1.71927 4.6669,0.98289 4.6669,-10.31668 3.68453,-6.8771 3.19309,-6.87762 0.49144,-6.14071 -0.49144,-9.82524 -1.47381,-8.10545 v -4.6669 -3.43906 l 11.54451,-15.22853 1.71928,1.71927 -0.49093,11.05308 -2.21072,13.01832 c 0,0 1.96489,19.40439 1.71928,21.12378 -0.24564,1.71937 -1.22784,7.61452 -1.22784,7.61452 l -1.47381,6.38617 -6.38669,10.56215 3.19361,3.92999 7.36854,2.45618 h 7.36906 l 3.68401,-1.47381 4.6669,-15.71997 1.71979,-15.96595 0.98237,-16.21141 -1.96525,-8.59689 2.70216,-5.40381 2.94762,-6.14071 4.42092,-11.544 3.68453,-3.43906 2.21072,-5.64927 0.49092,-8.84287 2.70216,-9.82473 7.61452,-6.14071 1.96474,-4.6669 1.71928,-6.63215 -0.49093,-9.08782 -6.14071,-6.38669 -3.19309,-2.70164 0.73691,-9.3338 -4.42144,-2.45618 -11.05307,-1.96525 8.10545,-4.6669 5.64979,-7.61452 2.2102,-6.63164 0.98288,-4.42144 -0.24598,-7.12308 -1.47381,-9.57926 -6.38617,-14.49213 -6.38618,-5.64927 z m -193.39129,35.38337 -11.1156,2.25774 -6.77375,4.516 -4.86327,4.34186 -3.82095,5.55831 -2.60501,5.73144 -1.21595,6.42648 v 8.16281 l 0.86817,5.90558 1.56321,8.16281 v 7.12101 l -0.34727,8.16333 3.99459,2.77916 7.29516,1.38906 1.73685,0.69505 -4.16874,3.12642 -1.21595,2.60501 -6.0787,4.34237 h -4.34185 l -4.516,-1.73684 0.86816,-4.34238 3.64784,-0.69453 0.34727,-2.60552 v -4.34186 l -0.69505,-2.95279 -2.25775,-1.73684 h -2.43137 l 0.5209,-4.51601 -4.51601,-8.33644 -6.25233,-8.16332 -1.91048,-3.99459 1.38907,-0.52142 -5.73144,-2.08411 -10.42107,0.34727 -6.60011,0.69505 2.77916,-6.25285 v -0.69453 l -13.37386,7.46827 -4.68912,4.34237 0.69453,-4.16873 0.34727,-2.08411 -2.77865,1.21594 -6.25284,7.98918 -3.82096,9.20564 -0.86868,2.08411 -3.12591,-3.30006 -0.86868,-1.38958 -1.0418,-0.17363 v 6.42648 l 1.73685,6.42597 2.43138,8.16332 3.12642,5.73144 2.08411,5.21053 -2.95279,1.38958 -1.73685,0.69505 2.25826,5.73143 1.91048,3.47369 3.30006,2.60501 7.29464,3.64732 5.90507,2.60553 -0.5209,2.25774 -4.34237,3.12642 -2.95227,7.29465 0.69453,14.06839 3.47369,17.19482 0.5209,2.25774 -5.03691,3.99511 -2.08411,2.77864 -0.69453,2.08411 -5.0369,1.38958 -5.5578,3.99459 -5.38417,4.68963 -2.95279,7.12101 -1.73684,9.37928 0.17363,16.84703 2.25774,18.93166 2.08463,7.29465 -6.07922,1.21594 -5.21053,4.51601 -4.51549,5.5578 1.5627,3.1259 1.56321,0.86869 36.12648,-0.34727 -18.41077,-11.81065 -0.86816,-7.46828 2.25774,-5.21053 10.94249,-10.24744 7.12101,3.47369 8.33644,-1.21594 6.07922,-2.77865 5.0369,-2.08462 19.97346,-0.17364 14.24202,-4.51548 15.63161,-8.51059 7.12101,-5.90559 4.86327,-10.76833 0.5209,-6.77375 v -4.16822 l -1.91048,-1.91048 -1.56321,-13.02608 -0.86817,-12.15791 3.12643,1.0418 16.6734,6.60011 19.45256,4.68964 11.11611,-10.76886 1.56322,-4.86275 -6.42648,-22.40535 -15.80524,-4.68963 -0.69453,-9.72603 -3.12643,-11.28975 -3.12642,-11.28923 v -4.16874 l 6.94738,-6.60011 1.21594,-3.29954 -1.04231,-2.08463 0.17363,-15.6316 0.5209,-13.89424 -1.38906,-10.94249 -4.86327,-6.77375 -5.5578,-2.25774 -3.47369,-0.5209 -0.52141,-2.25826 -6.5996,-5.21053 z m -497.556194,101.92194 -0.982369,2.82463 -3.193087,0.61392 -12.895854,0.12299 -4.420919,3.19309 -4.544425,4.42143 -3.929993,3.80701 7.491533,-2.45619 0.122989,1.59629 -4.298445,3.31608 -1.105359,3.19308 -1.350822,3.43907 -1.350822,4.17545 v 3.43855 l -2.456181,4.29845 0.245463,1.84227 0.368453,2.70216 1.842265,3.07009 2.333191,0.73691 8.842871,7.85998 -5.403804,5.03536 -2.947624,3.19308 1.596285,3.31608 0.12299,4.6669 v 6.01772 l 0.245463,5.52679 1.228349,2.57917 v 2.08773 l -9.579261,5.15834 -1.965254,-4.54442 -4.543909,-2.70165 -4.421436,1.71928 -2.947623,5.28081 0.491443,4.17598 2.087727,3.68452 c 0,0 3.807192,1.71913 4.298446,1.96474 0.491253,0.24564 6.509163,2.21072 6.509163,2.21072 l 5.035352,-1.35082 5.772258,-2.70216 6.509163,-3.92999 c 0,0 1.719451,0.85977 1.842265,1.47381 0.122814,0.61408 0.736906,1.84226 0.736906,1.84226 l 11.789978,0.98237 15.474507,-0.49093 -2.947623,-2.21071 0.859895,-5.89525 0.736906,-0.85938 18.544605,9.82472 6.01772,-2.08772 4.175968,-3.93 2.70165,-5.03535 0.61391,-4.78989 -2.21071,-3.56154 -3.93,-0.7369 -2.701639,1.96525 -3.929993,3.80701 -1.842265,0.7369 -5.772257,-3.31608 -5.649268,-4.78937 -1.842265,-5.52679 -1.105359,-4.54391 1.228349,-1.71979 4.666899,-1.71928 4.666898,-0.98237 8.105449,-0.7369 -0.859896,4.05298 c 0,0 -0.122812,0.85956 0,1.35082 0.122814,0.49127 1.842265,1.5968 1.842265,1.5968 l 3.439062,0.49093 2.21072,-1.96474 1.10484,-4.42143 3.56206,-8.10545 1.4733,-3.68453 -0.49093,-0.98237 -1.10536,-0.12299 -0.8599,-2.45618 0.49145,-2.70216 2.82463,-0.12247 h 2.21072 l 2.08773,-4.78989 0.61391,-4.17546 -0.24546,-5.52679 -1.35082,-0.8599 -12.15843,-1.59628 -0.98289,4.78937 -2.087726,6.50916 -0.490927,2.94762 2.210203,2.70217 -0.982371,1.10535 -2.824633,3.43855 -3.807003,3.0701 -5.772258,1.47381 -4.421435,-0.49092 -3.807003,-1.47382 -4.175972,-1.5968 1.842264,-3.31607 5.403805,-5.28082 2.947624,-0.61391 1.964738,-1.47382 1.596801,-4.78988 -1.228348,-3.19309 -1.473812,-2.45618 -0.122473,-5.89525 -1.596802,-5.89473 -2.824634,-5.64927 -2.579171,-3.56205 -0.122473,-1.4733 0.245463,-1.5968 -4.789888,0.85989 -3.43855,-1.10535 -4.912362,-3.80752 z m 119.272304,25.38863 -6.07921,0.86817 -7.81555,2.08462 -4.68963,3.47369 -3.64733,5.38417 -2.25774,6.60011 v 2.95228 l 3.64732,2.77916 2.60501,3.12642 -1.21543,3.12591 -3.64784,1.73684 -0.86816,1.91048 2.08411,3.30006 1.21595,1.91048 0.86816,1.73684 2.77916,1.911 1.04231,0.86816 -0.69505,1.21595 1.56322,2.43137 3.64732,3.82096 4.68964,2.08462 4.86326,0.69454 5.5578,-1.21595 -0.17363,1.73684 -8.51059,6.25285 -7.64243,3.12643 -11.1156,1.56269 -7.46828,2.60553 -1.38958,3.12642 1.04232,6.0787 3.47369,14.76344 -1.91048,3.12591 4.34185,-0.17363 8.33696,-0.5209 1.91048,1.38958 -1.04231,4.51548 -0.69453,3.82147 1.04179,2.60501 5.0369,1.91048 4.16874,-2.25774 5.0369,-3.82096 4.86276,-3.64732 4.34237,-3.30006 6.60011,-2.60552 5.73143,-2.60501 2.9528,-4.16874 0.17363,-4.86275 1.73684,-3.64732 0.69453,-1.73685 -0.86816,-8.16333 -2.08463,-7.81606 -2.25774,-3.99458 -1.91048,-3.99459 2.43138,-2.43189 5.0369,-0.34727 4.86327,-3.30006 2.08411,-3.1259 -2.25774,-8.33696 -1.91048,-13.20023 -2.08411,-6.60012 -4.34237,-6.77323 -5.90507,-2.43189 -4.34237,-1.56321 z" /></g><g
	id="zona-basurero"
	fill="transparent"
     	stroke="transparent"
     	role="button"
     	tabindex="0"
     	aria-label="Basurero en medio del parque para mantenerlo limpio"
     	data-zona="Basurero"><path
       d="m 476.93683,312.97893 -0.69475,8.51053 1.56316,10.59474 0.52107,16.32633 2.77895,3.29998 h 5.03684 l -0.34737,-3.47368 -0.1737,-5.55789 6.07896,2.0842 5.90527,-0.52105 4.3421,-0.69474 4.3421,-0.86841 h 3.82106 l 0.69472,3.12631 -0.52105,4.68948 2.60528,1.38948 3.29999,0.17368 0.34737,-5.03685 v -6.07893 c 0,0 -1.56316,-19.10528 -1.56316,-19.97369 0,-0.86842 -0.52104,-9.03158 -0.52104,-9.03158 l -0.86842,-3.47369 v -3.99473 l -0.1737,-2.60527 -3.82106,-1.38946 -10.07366,-0.52107 -15.11054,1.56316 -3.82106,1.38948 -1.91051,2.60525 0.34735,4.16843 -0.86842,2.60527 z"
       id="path8" /></g><g
	id="zona-bancas"
	fill="transparent"
     	stroke="transparent"
     	role="button"
     	tabindex="0"
     	aria-label="Bancas para sentarse y descansar en el parque"
     	data-zona="Bancas"><path
       d="m 698.90514,424.48417 2.4319,1.04231 -5.55832,6.94738 -22.57898,39.59965 v 4.16874 2.43137 l 11.81064,5.21054 0.69505,10.0738 0.34727,9.03149 3.12642,2.08411 5.5578,-1.04179 h 4.16822 l 3.94498,-0.41548 -2.56883,-17.76688 -0.73691,-9.33379 16.70286,-27.26449 2.70164,-14.24667 -9.3338,-1.47382 -1.96473,-3.68401 -3.43907,-2.94762 -1.96474,-1.71928 -0.0661,-0.14779 z m 70.44945,11.78171 -2.01745,7.33547 -0.49092,8.84287 -2.21072,5.64927 -3.68453,3.43906 -4.42092,11.544 -2.94762,6.14071 -2.70216,5.40381 1.96525,8.59689 -0.0734,1.21078 47.9118,7.86618 v -60.78957 z m -181.48246,20.53053 0.56999,7.98246 15.80524,4.68963 6.42648,22.40535 -1.56322,4.86275 -11.11611,10.76886 -19.45256,-4.68964 -16.6734,-6.60011 -3.12643,-1.0418 0.86817,12.15791 1.56321,13.02608 1.91048,1.91048 v 4.16822 l -0.5209,6.77375 -4.86327,10.76833 -7.12101,5.90559 -15.63161,8.51059 -14.24202,4.51548 -19.97346,0.17364 -5.0369,2.08462 -6.07922,2.77865 -8.33644,1.21594 -7.12101,-3.47369 -10.94249,10.24744 -2.25774,5.21053 0.86816,7.46828 18.41077,11.81065 -1.79111,0.0171 1.27021,0.50385 73.64201,-0.69453 74.68434,-96.91605 1.73684,7.29464 3.82096,3.82148 6.60011,0.69453 6.94738,-10.42107 -3.12643,-21.88445 4.51549,-5.5578 0.69505,-5.5578 -1.73685,-3.47369 z m 144.34054,7.92923 -11.54451,15.22853 v 3.43906 4.6669 l 0.003,0.0171 10.19162,2.75435 0.40566,0.0667 c -0.0248,-0.24745 -0.0382,-0.38189 -0.0382,-0.38189 l 2.21072,-13.01832 0.49093,-11.05308 z" /></g><g
	id="zona-resbaladera"
	fill="transparent"
     	stroke="transparent"
     	role="button"
     	tabindex="0"
     	aria-label="Resbaladera de rampa lisa donde bajar es pura diversi칩n"
     	data-zona="Resbaladera"><path
       d="m 228.56848,48.631657 -9.72654,2.08411 -25.35763,18.410763 -28.83183,23.968046 -35.43143,29.179094 -29.873626,25.70541 -14.937072,21.18941 2.779158,7.64191 1.042314,2.77915 2.778641,157.01058 4.516004,5.21053 4.862751,-1.38958 0.69505,-45.15797 35.25986,1.86914 -0.0212,0.56741 -3.19361,34.38756 3.19361,2.45618 2.9471,-7.12308 36.84426,-1.22834 2.45619,1.47381 4.42143,0.49144 0.94206,-28.50265 15.45539,0.81907 1.04231,70.16833 20.49488,3.82095 -4.51601,-101.08375 13.5475,9.03149 6.94738,11.81065 3.82095,12.85244 2.08411,14.58929 1.73685,18.0635 2.43137,17.71571 3.12643,11.11561 4.516,9.37875 10.76834,8.33696 11.81064,4.86327 21.18941,6.25285 6.60011,1.73684 93.09458,-19.80034 v -3.82096 l -5.5578,-12.50517 -5.5578,-7.29465 -17.36845,-10.42107 -4.516,-3.82095 -0.24185,-0.71211 -1.06919,0.17829 -6.63215,-0.24547 -7.00009,2.08773 -13.63276,1.35082 -6.26318,-3.19308 -2.08773,-5.64927 -3.07061,-14.24616 -0.85938,-3.56206 -5.03535,-2.70164 c 0,0 -1.47418,-1.10554 -2.08825,-1.5968 -0.61407,-0.49125 -1.59628,-0.85938 -1.59628,-0.85938 l -1.96526,0.49093 -3.19308,1.10536 0.49144,-1.47382 -1.35082,-0.85938 -2.33371,-0.61391 -0.61392,-2.33371 -1.84226,-1.59628 1.35082,-1.59681 -0.49093,-1.96525 -0.24598,-1.22783 2.82464,-0.49145 2.4567,-1.22783 -0.24598,-1.84226 1.5968,-1.71928 2.45618,1.4733 2.70164,3.56205 c 0,0 0.98254,-3.43926 1.10536,-3.93051 0.12282,-0.49125 0.24598,-3.43855 0.24598,-3.43855 l -0.49144,-2.70164 -2.94763,1.22783 -3.31556,1.10536 -2.45669,-1.5968 -0.98237,-3.19309 c 0,0 -0.8599,-5.89492 -0.8599,-6.38617 0,-0.49125 1.71979,-0.73691 1.71979,-0.73691 l 6.63164,3.43907 3.92999,3.31556 -0.49092,-1.71927 3.807,-2.21072 4.54391,-2.21072 6.87761,-0.24546 4.54443,0.49144 5.28081,1.96474 1.47382,-0.49093 0.98237,-2.94762 1.03559,-0.48886 -4.88497,-8.90798 L 340.07382,157.35784 235.51586,51.063033 Z M 108.07557,175.74586 c 0.49125,-0.12281 63.37185,9.08834 63.37185,9.08834 l 1.84226,1.22783 -1.22835,1.47381 -32.05437,13.01833 -38.44055,13.63224 -1.596285,-31.93138 4.052985,-4.54443 c 0,0 3.5612,-1.84192 4.05246,-1.96474 z m 152.88473,29.46229 3.12642,0.78134 1.91048,1.12913 1.82366,2.69183 1.9973,1.47639 1.56321,1.12913 -0.26045,0.69454 -0.69453,0.86868 -1.38958,2.51819 -0.26045,5.12372 1.91048,1.99729 1.21594,2.60553 -0.34726,6.16551 -1.73736,2.08411 -1.21543,4.16874 -0.17364,1.9973 1.30225,2.17092 0.34778,3.73414 0.17363,7.12101 -1.47639,6.94738 v 2.08411 l 2.25774,2.08463 2.77916,1.12861 1.56321,1.38958 0.86817,10.07381 c 0,0 0.52093,2.34482 0.34726,3.21324 -0.1737,0.86841 4.08192,2.25774 4.08192,2.25774 l 3.30006,0.86817 1.56321,3.12642 -0.52141,2.25826 c 0,0 -2.25756,1.9104 -2.95228,2.17093 -0.69474,0.26053 -2.25826,0.17363 -2.25826,0.17363 l -1.91047,1.47639 -1.56322,2.17093 -5.90506,0.5209 -4.86327,-1.21543 -1.91048,-2.34508 -0.9555,-1.65002 -1.47588,-2.60501 -1.30276,-3.30006 -0.69505,-1.91048 -0.0868,-1.56321 -1.56321,-1.65003 -2.95228,-1.99729 -2.77916,-0.69505 c 0,0 -2.34449,-5.73129 -2.60501,-6.25233 -0.26053,-0.52105 -2.43189,-5.64462 -2.43189,-5.64462 l -2.17093,-4.86327 -3.30005,-3.73414 -2.95279,-4.68963 v -1.91048 l 0.52141,-2.77916 0.60772,-2.69183 2.34455,-2.95279 0.17415,-1.91047 -1.04231,-1.4764 -2.25774,-3.73414 -3.30006,-3.5605 -0.34727,-2.60553 0.26045,-1.91048 1.65003,-1.47588 0.5209,-2.17144 2.60553,-12.41836 1.38906,-0.86817 5.29735,-1.38958 1.4764,-0.69505 3.5605,-0.95498 h 2.25775 l 4.08192,-0.52089 z m 88.07524,84.14008 -0.98288,1.59628 0.49144,2.21072 -0.12299,2.82464 -1.47381,0.98288 v 2.45618 l 1.35134,1.71928 1.35082,-1.10536 0.7369,-3.43855 0.81804,-1.28519 -0.015,-0.046 -1.18288,-5.91488 z m 5.86373,17.38137 -0.82838,0.30386 -9.33379,10.43863 c 0,0 1.22765,4.05283 1.47329,4.6669 0.24561,0.61407 2.57917,2.82515 2.57917,2.82515 l 3.19309,2.57866 6.75514,-1.96474 0.92398,-0.0971 -1.17771,-3.47059 -3.47369,-14.93656 z m 6.96443,25.24238 -1.77509,1.58906 -13.01832,-0.8599 0.49144,1.35082 8.35091,0.61443 4.17597,-0.24598 1.84744,-2.23655 z" /></g><g
	id="zona-cajaarena"
	fill="transparent"
     	stroke="transparent"
     	role="button"
     	tabindex="0"
     	aria-label="Caja llena de arena para cavar y construir"
     	data-zona="Caja de arena"><path
       d="m 131.65243,438.37893 -19.79983,1.38958 -112.19986562,21.88393 v 138.60033 l 294.56858562,1.38958 14.93655,-12.15792 0.69453,-22.92676 -2.08411,-6.94738 z m -68.035124,21.67981 1.596801,0.49093 4.912362,3.80752 3.43855,1.10535 4.789888,-0.85989 -0.245463,1.5968 0.122473,1.4733 2.579171,3.56205 2.824634,5.64927 1.596802,5.89473 0.122473,5.89525 1.473812,2.45618 1.228348,3.19309 -1.596801,4.78988 -1.964738,1.47382 -2.947624,0.61391 -5.403805,5.28082 -1.842264,3.31607 4.175972,1.5968 3.807003,1.47382 4.421435,0.49092 5.772258,-1.47381 3.807003,-3.0701 2.824633,-3.43855 0.982371,-1.10535 -2.210203,-2.70217 0.490927,-2.94762 2.087726,-6.50916 0.98289,-4.78937 12.15843,1.59628 1.35082,0.8599 0.24546,5.52679 -0.61391,4.17546 -2.08773,4.78989 h -2.21072 l -2.82463,0.12247 -0.49145,2.70216 0.8599,2.45618 1.10536,0.12299 0.49093,0.98237 -1.4733,3.68453 -3.56206,8.10545 -1.10484,4.42143 -2.21072,1.96474 -3.439062,-0.49093 c 0,0 -1.719451,-1.10553 -1.842265,-1.5968 -0.122812,-0.49126 0,-1.35082 0,-1.35082 l 0.859896,-4.05298 -8.105449,0.7369 -4.666898,0.98237 -4.666899,1.71928 -1.228349,1.71979 1.105359,4.54391 1.842265,5.52679 5.649268,4.78937 5.772257,3.31608 1.842265,-0.7369 3.929993,-3.80701 2.701639,-1.96525 3.93,0.7369 2.21071,3.56154 -0.61391,4.78989 -2.70165,5.03535 -4.175968,3.93 -6.01772,2.08772 -18.544605,-9.82472 -0.736906,0.85938 -0.859895,5.89525 2.947623,2.21071 -15.474507,0.49093 -11.789978,-0.98237 c 0,0 -0.614092,-1.22818 -0.736906,-1.84226 -0.122814,-0.61404 -1.842265,-1.47381 -1.842265,-1.47381 l -6.509163,3.92999 -5.772258,2.70216 -5.035352,1.35082 c 0,0 -6.01791,-1.96508 -6.509163,-2.21072 -0.491254,-0.24561 -4.298446,-1.96474 -4.298446,-1.96474 l -2.087727,-3.68452 -0.491443,-4.17598 2.947623,-5.28081 4.421436,-1.71928 4.543909,2.70165 1.965254,4.54442 9.579261,-5.15834 v -2.08773 l -1.228349,-2.57917 -0.245463,-5.52679 v -6.01772 l -0.12299,-4.6669 -1.596285,-3.31608 2.947624,-3.19308 5.403804,-5.03536 -8.842871,-7.85998 -2.333191,-0.73691 -1.842265,-3.07009 -0.368453,-2.70216 -0.245463,-1.84227 2.456181,-4.29845 v -3.43855 l 1.350822,-4.17545 1.350822,-3.43907 1.105359,-3.19308 4.298445,-3.31608 -0.122989,-1.59629 -7.491533,2.45619 3.929993,-3.80701 4.544425,-4.42143 4.420919,-3.19309 12.895854,-0.12299 3.193087,-0.61392 z m 119.272304,25.38863 11.6365,3.99459 4.34237,1.56321 5.90507,2.43189 4.34237,6.77323 2.08411,6.60012 1.91048,13.20023 2.25774,8.33696 -2.08411,3.1259 -4.86327,3.30006 -5.0369,0.34727 -2.43138,2.43189 1.91048,3.99459 2.25774,3.99458 2.08463,7.81606 0.86816,8.16333 -0.69453,1.73685 -1.73684,3.64732 -0.17363,4.86275 -2.9528,4.16874 -5.73143,2.60501 -6.60011,2.60552 -4.34237,3.30006 -4.86276,3.64732 -5.0369,3.82096 -4.16874,2.25774 -5.0369,-1.91048 -1.04179,-2.60501 0.69453,-3.82147 1.04231,-4.51548 -1.91048,-1.38958 -8.33696,0.5209 -4.34185,0.17363 1.91048,-3.12591 -3.47369,-14.76344 -1.04232,-6.0787 1.38958,-3.12642 7.46828,-2.60553 11.1156,-1.56269 7.64243,-3.12643 8.51059,-6.25285 0.17363,-1.73684 -5.5578,1.21595 -4.86326,-0.69454 -4.68964,-2.08462 -3.64732,-3.82096 -1.56322,-2.43137 0.69505,-1.21595 -1.04231,-0.86816 -2.77916,-1.911 -0.86816,-1.73684 -1.21595,-1.91048 -2.08411,-3.30006 0.86816,-1.91048 3.64784,-1.73684 1.21543,-3.12591 -2.60501,-3.12642 -3.64732,-2.77916 v -2.95228 l 2.25774,-6.60011 3.64733,-5.38417 4.68963,-3.47369 7.81555,-2.08462 z" /></g><g
	id="zona-columpio"
	fill="transparent"
     	stroke="transparent"
     	role="button"
     	tabindex="0"
     	aria-label="Columpios que se suben hasta tocar el cielo"
     	data-zona="Columpios"><path
       d="m 779.14727,163.61069 -59.05272,8.68422 h -9.03149 l -7.98918,1.38906 -29.52636,3.82147 -6.25285,3.82096 -22.57898,3.47369 -1.0418,-3.12642 -79.89487,15.6316 -2.77915,7.29464 -23.62078,130.26337 v 10.0738 l 7.64191,1.38907 4.516,-6.5996 7.64191,-54.18946 24.66309,-0.69504 7.64243,41.68427 2.77864,3.12643 15.28434,2.43137 -11.1156,-32.305 28.48405,-1.73685 9.37876,-1.38958 8.68422,-1.04231 1.73685,-6.60011 -4.16822,-5.21002 2.08411,-84.41087 29.17909,-4.51549 2.08411,7.98918 1.0418,83.02129 -5.21053,1.0418 -1.0418,2.43189 0.34726,4.51549 32.65279,0.34778 25.35763,-2.77916 -2.08411,-7.98969 h -5.21054 l 0.69505,-95.52596 4.51549,-2.08462 26.39994,-3.47369 h 1.73684 l -17.36845,145.5477 18.75803,1.0418 -2.08411,-7.98918 16.6734,-138.60032 2.77916,5.90558 3.12642,43.07334 6.60012,111.8526 17.02066,-0.34726 -12.15791,-128.52601 -3.47369,-38.21058 z m -69.47379,24.31582 6.07921,0.17364 0.66766,48.50143 v 5.2e-4 c 0.44879,0.98349 0.72192,2.23708 0.72192,3.76049 v 7.72459 6.71639 2.88871 c 0,0.92677 -0.10103,1.75352 -0.28112,2.48047 0.0582,0.49936 0.10805,1.00005 0.14728,1.50172 0.0714,1.00273 0.0952,2.00787 0.11111,3.01273 0.007,0.51435 0.0104,1.02868 0.0134,1.54306 0.007,1.02322 -0.11075,1.92525 -0.32246,2.7063 v 5.1e-4 l 0.15761,14.68851 -16.01401,0.45786 c -0.10858,0.066 -0.24811,0.11734 -0.42013,0.14469 -0.0456,0.007 -0.0908,0.0147 -0.13642,0.0217 -0.31383,0.0383 -0.62933,0.0633 -0.94413,0.092 -0.24636,0.0282 -0.49261,0.0587 -0.74104,0.0594 -0.18391,0.009 -0.36743,0.0254 -0.54984,0.0512 -0.25253,0.034 -0.50466,0.0687 -0.75602,0.11059 -0.32904,0.0457 -0.65872,0.0916 -0.99116,0.10232 -0.34736,0.0106 -0.69473,0.0273 -1.04231,0.0253 -0.37719,10e-6 -0.75452,-6e-5 -1.13171,0 -0.0347,10e-6 -0.0692,0 -0.10387,0 -1.31108,1.3678 -3.30407,1.51392 -4.90772,0.26459 -0.11708,0.0156 -0.23411,0.0317 -0.35139,0.046 -0.30249,0.0352 -0.60666,0.0549 -0.90899,0.092 -0.31806,0.0364 -0.6365,0.071 -0.94878,0.14418 -0.24781,0.0473 -0.49632,0.0922 -0.74363,0.14211 -0.41568,0.0764 -0.83285,0.14292 -1.2485,0.21962 -0.43805,0.0769 -0.87563,0.16026 -1.31723,0.21446 -0.25039,0.0307 -0.44673,-0.005 -0.58705,-0.0791 l -4.88755,0.49712 0.004,-2.11563 c -0.26965,-0.28237 -0.43244,-0.7721 -0.34726,-1.45211 0.005,-0.0434 0.0115,-0.0868 0.0165,-0.13022 0.0285,-0.34064 0.0656,-0.68036 0.0925,-1.02113 0.0305,-0.30238 0.0686,-0.60409 0.0884,-0.90744 0.0193,-0.25132 0.0175,-0.50242 0.0155,-0.75447 10e-5,-0.31619 3.6e-4,-0.63259 0.001,-0.94878 10e-4,-0.30542 0.002,-0.61083 0.007,-0.91622 0.006,-0.34826 0.0149,-0.69624 0.0377,-1.04387 0.0264,-0.35559 0.0605,-0.71084 0.1235,-1.06195 l -0.0171,5.2e-4 0.0124,-5.76192 c -0.24113,-0.81067 -0.37955,-1.75773 -0.3793,-2.84169 2.4e-4,-1.13131 8.4e-4,-0.5648 0.001,-1.69912 0,-1.17126 -6.6e-4,-2.34223 0.005,-3.51348 0.004,-0.789 0.009,-1.57807 0.0326,-2.36678 0.0306,-0.91662 0.0765,-1.83329 0.17983,-2.74506 0.0562,-0.47946 0.11996,-0.95795 0.18914,-1.43557 l 0.11317,-57.51845 1.04231,-4.51549 z m -77.46297,11.46287 3.99458,0.5209 1.56322,39.7738 -0.86817,32.13189 -2.08462,14.58929 -11.98377,0.5209 -15.45797,1.04231 -6.25285,-1.91048 0.17363,-49.8476 1.56322,-26.92084 0.86868,-4.86327 z m -36.12648,5.5578 0.69505,2.17144 -0.0868,37.51554 -1.82366,44.8107 -0.9555,-0.34726 -16.84755,-71.12382 -1.82366,-8.68423 0.9555,-1.21595 z m -27.09447,22.05809 v 2.60552 l 3.73414,18.06298 5.64461,22.40535 1.65003,2.69183 c 0,0 -20.14752,0.17384 -20.49487,0.0868 l 8.07651,-43.94202 z" /></g><g
	id="zona-vegetacion"
	fill="transparent"
     	stroke="transparent"
     	role="button"
     	tabindex="0"
     	aria-label="Cesped, 치rboles y arbustos que rodean el parque"
     	data-zona="Vegetaci칩n"><path
       d="M 26.282117,61.652051 21.369755,62.388957 14.737602,67.301835 8.1054484,80.811088 4.1754557,76.389653 0,73.933472 -0.24546305,210.99332 l 4.91236165,-0.24598 5.1583415,-1.96474 0.4909259,1.22835 2.456181,2.45618 3.193604,1.96474 7.123079,-2.45618 0.736906,-1.71927 2.456181,15.4745 0.982369,56.98516 -2.701644,3.19308 -2.947624,-0.49092 -0.982369,-4.91288 -1.228349,-2.70164 h -2.947623 l -5.894731,1.96473 -1.9652547,-4.91236 -4.6668986,-2.70164 -3.68452965,0.24546 -1.11362711,327.85286 h 0.52089844 V 461.65244 L 111.8526,439.76851 l 19.79983,-1.38958 176.11586,121.23136 2.08411,6.94738 -0.69453,22.92676 -13.22916,10.76834 h 147.24424 l -0.6258,-0.34779 -1.5627,-3.1259 4.51549,-5.5578 5.21053,-4.51601 6.07922,-1.21594 -2.08463,-7.29465 -2.25774,-18.93166 -0.17363,-16.84703 1.73684,-9.37928 2.95279,-7.12101 5.38417,-4.68963 5.5578,-3.99459 5.0369,-1.38958 0.69453,-2.08411 2.08411,-2.77864 5.03691,-3.99511 -0.5209,-2.25774 -3.47369,-17.19482 -0.69453,-14.06839 2.95227,-7.29465 4.34237,-3.12642 0.5209,-2.25774 -5.90507,-2.60553 -7.29464,-3.64732 -3.30006,-2.60501 -1.91048,-3.47369 -2.25826,-5.73143 1.73685,-0.69505 2.95279,-1.38958 -2.08411,-5.21053 -3.12642,-5.73144 -2.43138,-8.16332 -1.73685,-6.42597 v -6.42648 l 1.0418,0.17363 0.86868,1.38958 3.12591,3.30006 0.86868,-2.08411 3.82096,-9.20564 6.25284,-7.98918 2.77865,-1.21594 -0.34727,2.08411 -0.69453,4.16873 4.68912,-4.34237 13.37386,-7.46827 v 0.69453 l -2.77916,6.25285 6.60011,-0.69505 10.42107,-0.34727 5.73144,2.08411 -1.38907,0.52142 1.91048,3.99459 6.25233,8.16332 4.51601,8.33644 -0.5209,4.51601 h 2.43137 l 2.25775,1.73684 0.69505,2.95279 v 4.34186 l -0.34727,2.60552 -3.64784,0.69453 -0.86816,4.34238 4.516,1.73684 h 4.34185 l 6.0787,-4.34237 1.21595,-2.60501 4.16874,-3.12642 -1.73685,-0.69505 -7.29516,-1.38906 -3.99459,-2.77916 0.34727,-8.16333 v -7.12101 l -1.56321,-8.16281 -0.86817,-5.90558 v -8.16281 l 1.21595,-6.42648 2.60501,-5.73144 3.82095,-5.55831 4.86327,-4.34186 6.77375,-4.516 11.1156,-2.25774 5.73195,0.69453 6.5996,5.21053 0.52141,2.25826 3.47369,0.5209 5.5578,2.25774 4.86327,6.77375 1.38906,10.94249 -0.5209,13.89424 -0.17363,15.6316 1.04231,2.08463 -1.21594,3.29954 -6.94738,6.60011 v 4.16874 l 3.12642,11.28923 3.12643,11.28975 0.12454,1.74357 59.62271,11.45615 1.73685,3.47369 -0.69505,5.5578 -4.51549,5.5578 3.12643,21.88445 -6.94738,10.42107 -6.60011,-0.69453 -3.82096,-3.82148 -1.73684,-7.29464 -74.68434,96.91605 h 246.89191 l 0.0708,-98.01728 -47.54852,-7.80675 -0.90899,15.00063 -1.71979,15.96595 -4.6669,15.71997 -3.68401,1.47381 h -7.36906 l -7.36854,-2.45618 -3.19361,-3.92999 6.38669,-10.56215 1.47381,-6.38617 c 0,0 0.9822,-5.89515 1.22784,-7.61452 0.24118,-1.68839 -1.62003,-20.06767 -1.68827,-20.74292 l -0.39843,-0.0656 -10.19162,-2.75435 1.47071,8.08839 0.49144,9.82524 -0.49144,6.14071 -3.19309,6.87762 -3.68453,6.8771 -4.6669,10.31668 -4.6669,-0.98289 -6.38617,-1.71927 -4.91236,-3.68401 c 0,0 0.98224,-8.35149 1.96474,-9.82524 0.98251,-1.47378 7.85998,-7.12308 7.85998,-7.12308 l 1.22835,-2.21072 -2.45618,-4.42144 -0.37879,-2.61999 -3.94498,0.41548 h -4.16822 l -5.5578,1.04179 -3.12642,-2.08411 -0.34727,-9.03149 -0.69505,-10.0738 -11.81064,-5.21054 v -2.43137 -4.16874 l 22.57898,-39.59965 5.55832,-6.94738 -2.4319,-1.04231 3.27526,0.54777 -4.10983,-9.186 -0.49093,-5.89525 1.71928,-6.14071 6.14071,-4.42144 0.7369,-3.43855 0.24547,-7.61452 7.61452,-0.98237 c 0,0 6.38603,0.98254 7.36854,0.73691 0.9825,-0.24562 5.40381,-0.49145 5.40381,-0.49145 l 4.91287,-0.98237 -1.22834,-1.47381 -1.96526,-2.21071 -7.85998,-5.89474 -2.45618,-4.66689 -2.45619,-4.42144 -0.24546,-3.68453 2.45618,-3.19309 c 0,0 -0.24582,-3.43893 -0.49144,-4.42143 -0.24564,-0.98251 -0.73691,-7.36854 -0.73691,-7.36854 l -1.71927,-12.03596 1.96525,-4.91236 7.61401,-5.15835 11.05359,-2.45618 0.47904,-0.19172 5.31595,-44.55025 -5.02553,1.21853 -2.95279,-3.12642 c 0,0 -1.56342,-1.38948 -2.60553,-1.73685 -1.04209,-0.34737 -1.91048,-1.73684 -1.91048,-1.73684 l -2.25774,-1.91048 -6.42648,3.30006 -0.46819,0.20825 -0.0527,7.26003 h 5.21054 l 2.08411,7.98969 -25.35763,2.77916 -10.8443,-0.11576 -2.10323,2.7342 -4.54391,1.59629 -2.45618,-2.57866 -0.0388,-1.84898 -12.66641,-0.13487 -0.34726,-4.51549 1.0418,-2.43189 5.21053,-1.0418 -0.047,-3.74344 -2.85512,0.0842 -4.17597,-0.12299 -4.05247,-0.12299 -2.57917,-1.84226 -0.12092,-0.40721 -1.27951,0.0754 -3.30006,0.69505 c 0,0 -0.86857,-1.21574 -1.21594,-1.91048 -0.34737,-0.69474 -2.43138,-0.86868 -2.43138,-0.86868 l -3.82095,0.5209 -2.95279,-2.08411 -4.86327,1.91048 -0.55914,0.24598 -0.13539,5.48597 4.16822,5.21002 -1.73685,6.60011 -8.68422,1.04231 -9.37876,1.38958 -28.48405,1.73685 11.1156,32.305 -15.28434,-2.43137 -2.77864,-3.12643 -7.64243,-41.68427 -24.66309,0.69504 -7.64191,54.18946 -4.516,6.5996 -7.64191,-1.38907 v -10.0738 l 9.91102,-54.65661 -4.52686,1.50895 -2.43189,-1.56321 -2.77864,2.08463 0.69453,4.34185 -4.34185,-4.34185 -5.38417,0.34726 h -4.16874 l -3.99459,0.17363 -5.5578,5.21054 -3.9951,-1.38958 -2.95228,-2.25774 -2.60552,-0.5209 -1.73685,-2.60553 h -3.82095 l -5.73144,1.38958 -2.77916,-1.56321 h -3.30005 l -5.5578,2.77916 -1.56321,-2.25826 h -3.64733 l -6.77374,-2.77864 -5.03691,1.21543 -5.5578,0.86868 -5.73143,11.98428 -2.95279,2.60501 -1.91048,-2.95279 -1.56321,-2.25775 -2.60501,-0.17363 -3.64732,-0.34727 -0.86868,-3.30005 -2.43138,-1.38958 -0.86868,-2.08411 -1.38906,-2.77916 -3.12643,-0.34727 -3.82095,-1.56321 -3.82147,0.17363 -5.21054,1.56322 -2.25774,-1.0418 c 0,0 -3.29987,-2.77916 -3.99459,-2.77916 -0.69474,0 -8.16333,2.08411 -8.16333,2.08411 l -4.68963,5.38417 -1.0418,2.43189 -10.94197,8.16333 v -3.12643 c 0,-0.69474 -0.34778,-3.30005 -0.34778,-3.30005 l -2.25774,-2.25775 -1.38958,-1.73684 -0.69453,-2.25826 -6.07922,-0.34727 -1.73684,-1.21594 -1.21543,-2.43138 -1.73685,-0.5209 -1.73684,0.69453 -3.30006,1.73685 c 0,0 5e-5,-2.77885 -1.91048,-3.82096 -1.91053,-1.04209 -1.73684,0 -1.73684,0 l -3.64733,1.21543 -1.91047,-2.43137 -4.34237,-1.0418 -3.12643,-1.38958 -4.86327,2.43138 -2.76727,-0.16279 3.83129,6.98666 3.38584,-1.59887 4.78937,-1.84226 3.68453,0.12298 0.12299,2.21021 c 0,0 -0.61408,2.08792 -0.7369,2.57917 -0.12282,0.49125 -1.10519,2.82482 -1.35083,3.68453 -0.24561,0.85968 -1.96525,2.08772 -1.96525,2.08772 l -1.84227,0.8599 h -3.81837 l 1.18288,5.91488 0.015,0.0455 0.90124,-1.41645 1.96525,-2.21072 2.21021,-2.45618 0.49144,0.61392 1.22835,1.71979 1.84226,0.12247 h 1.96474 l 1.71927,0.98237 -0.61391,0.61443 -0.98237,1.84227 2.08773,-0.12299 0.61391,2.82463 2.21072,1.71928 -0.36845,2.45669 -0.8599,2.94711 -1.10484,1.10536 -6.75514,-0.36845 -2.85564,1.04748 0.1111,0.34416 3.47369,14.93656 1.17771,3.47059 1.40921,-0.14831 4.42144,-0.61444 3.807,-2.70164 4.78989,-2.21072 1.22783,2.82464 0.36846,5.28081 -0.73639,2.57917 -3.93051,2.08773 -2.82464,0.36845 -2.45618,-0.85938 -3.31607,-0.61443 -0.55811,0.49919 0.0724,0.21188 0.48576,-0.58808 5.28133,1.71928 -0.36846,2.82463 -1.35133,4.42143 -1.14102,0.19017 0.24185,0.71211 4.516,3.82095 17.36845,10.42107 5.5578,7.29465 5.5578,12.50517 v 3.82096 l -93.09458,19.80034 -6.60011,-1.73684 -21.18941,-6.25285 -11.81064,-4.86327 -10.76834,-8.33696 -4.516,-9.37875 -3.12643,-11.11561 -2.43137,-17.71571 -1.73685,-18.0635 -2.08411,-14.58929 -3.82095,-12.85244 -6.94738,-11.81065 -13.5475,-9.03149 4.51601,101.08375 -20.49488,-3.82095 -1.04231,-70.16833 -15.45539,-0.81907 -0.94206,28.50265 -4.42143,-0.49144 -2.45619,-1.47381 -36.84426,1.22834 -2.9471,7.12308 -3.19361,-2.45618 3.19361,-34.38756 0.0212,-0.56741 -35.25986,-1.86914 -0.69505,45.15797 -4.862751,1.38958 -4.516004,-5.21053 -1.367875,-77.29864 -1.32395,-0.078 -1.563212,-0.34726 -2.084627,-0.17363 -2.778642,1.82366 -2.34456,1.38958 -1.438155,-1.0604 -2.456697,-0.49145 -6.8771,0.98289 -2.456698,5.4038 -4.420918,-2.94762 -4.912879,5.89473 -1.964738,8.35143 -5.403804,-0.49093 -6.386174,1.96474 -2.947624,-0.98237 -3.929992,-54.52897 0.490926,-10.80761 10.807609,-0.49144 6.877616,-2.45618 4.421436,-7.36906 -0.491443,-6.8771 16.702856,1.96474 6.877617,-6.38618 v -9.82524 l 6.222876,-0.44441 -0.03049,-1.72962 -1.042314,-2.77915 -2.779158,-7.64191 14.937072,-21.18941 7.740617,-6.66057 -3.92483,-2.53938 -7.859984,-1.22835 -1.228349,-1.47381 5.403804,-5.15783 2.456179,-4.17597 c 0,0 0.98254,-7.3684 0.73691,-8.35091 -0.24562,-0.9825 -1.96474,-4.91288 -1.96474,-4.91288 l -6.632153,-2.45618 -11.789978,0.24546 2.701644,-7.61401 1.719791,-7.123591 -1.473811,-11.053072 -3.68453,-5.649268 -10.562146,-3.193087 -11.543998,3.929993 -10.316683,9.333797 -1.964738,-5.649267 -1.965255,-8.105966 -5.89473,-9.333797 -9.088335,-4.421435 z m 774.315013,58.884779 -8.94468,1.65003 -5.21053,1.12913 -4.16822,7.29464 -2.08411,5.21054 -11.11612,-4.51601 -8.33644,4.51601 -3.82147,5.5578 c 0,0 -1.73663,6.25243 -2.43138,7.64191 -0.69471,1.38947 -2.08411,3.47369 -2.08411,3.47369 l -4.86327,3.12642 h -9.72654 l -4.86275,4.16822 -1.73685,4.51601 3.47369,5.21053 0.10646,0.61805 44.35646,-6.52311 3.82096,12.50518 3.47369,38.21058 12.15791,128.52601 -17.02066,0.34726 -3.72742,-63.17288 -0.78859,0.12557 -3.30005,-0.17363 -3.99459,-1.91048 -3.30006,-0.86817 -4.16874,-0.86868 -4.62607,0.79737 -5.27358,43.8397 0.47956,1.83917 1.68516,-0.0543 4.6669,1.47381 6.38618,5.64927 6.38617,14.49213 1.47381,9.57926 0.24598,7.12308 -0.98288,4.42144 -2.2102,6.63164 -5.64979,7.61452 -8.10545,4.6669 11.05307,1.96525 4.42144,2.45618 -0.73691,9.3338 3.19309,2.70164 6.14071,6.38669 0.49093,9.08782 -1.71928,6.63215 -1.96474,4.6669 -7.61452,6.14071 -0.68471,2.48926 31.00999,5.18624 z m -199.9971,11.81065 -7.29464,3.12642 -5.5578,4.51549 -0.52142,3.12642 -1.38958,-0.69453 -2.95227,-1.21595 -6.07922,-0.34726 -8.68422,5.21053 -3.82096,5.73144 -2.43137,3.30005 -6.42648,-0.17363 c 0,0 -6.25267,1.56311 -6.94738,1.91048 -0.69475,0.34737 -6.94738,4.51549 -6.94738,4.51549 l -3.30006,5.73194 h -5.5578 l -6.0787,1.56322 -4.68964,3.29954 -2.95279,5.21053 v 6.42648 l 3.99459,3.64733 c 0,0 3.99481,1.21588 5.0369,1.38957 1.04211,0.17368 2.77916,2.77916 2.77916,2.77916 l 0.34727,2.95228 7.98969,2.60552 4.68912,1.38958 -1.0418,2.77864 1.91048,6.25285 4.68964,3.64733 5.38416,1.04179 4.55425,1.89756 1.69809,-9.36584 2.77915,-7.29464 79.89487,-15.6316 1.0418,3.12642 22.57898,-3.47369 2.80086,-1.71152 -1.93218,0.32194 0.5209,-2.43138 1.38958,-3.12642 -0.69505,-3.30006 c 0,0 -1.21555,-3.12621 -2.60501,-3.82095 -1.38948,-0.69474 -3.30006,-1.04232 -3.30006,-1.04232 l -2.08411,-2.25774 -0.86868,-2.25774 -2.95227,-2.77916 -2.43189,-0.86817 h -3.99459 l -4.51601,1.91048 -1.38958,-1.21594 v -1.56322 l -1.56269,-4.86326 -4.68964,-3.47369 -5.90506,0.17363 -0.17415,-2.25775 -1.38907,-4.34185 c 0,0 -3.99485,-3.99495 -4.86326,-4.516 -0.86845,-0.52105 -6.42649,0.5209 -6.42649,0.5209 l -5.21053,1.04231 c 0,0 -3.12627,-2.25806 -3.64732,-2.95279 -0.52107,-0.69474 -3.82127,-3.29995 -4.51601,-3.64732 -0.69474,-0.34737 -6.25233,-0.5209 -6.25233,-0.5209 z m 150.75773,50.02072 -18.788,2.4722 c -0.9526,1.54828 -1.70688,3.43338 -1.70688,3.43338 l 1.73736,3.82095 -3.12642,6.94738 0.34727,4.86327 3.82095,5.5578 2.43138,3.82096 1.38958,5.21053 5.90558,4.51601 4.90616,-0.25167 4.81986,-40.39081 z m 17.71571,0 -4.96042,41.23262 2.52904,0.45165 7.08174,2.90629 1.23714,4.14083 -3.10834,-42.82581 z m -107.395,14.07356 -19.04689,2.94762 -0.17054,6.90345 1.21285,-0.1297 5.38417,-0.17364 5.90506,-2.08411 4.86327,-3.82095 z m -29.46796,2.94762 -28.48405,5.0369 -0.86868,4.86327 -0.35399,6.09627 c 1.22653,0.65924 4.86999,2.58796 4.86999,2.58796 l 3.64732,1.04179 4.68964,-2.60501 1.21543,-5.0369 3.30005,3.82096 4.68964,0.86868 1.91048,-1.21595 1.04231,-2.95279 0.69453,-1.21543 4.16822,-1.21595 3.78117,-1.72857 -0.30748,-7.82433 z m -36.12648,5.5578 -19.88664,3.12642 -0.9555,1.21595 1.49552,7.12101 h 5.97328 l 3.82095,-1.04231 6.0787,1.04231 0.34778,59.74726 -2.03398,0.32143 2.98896,12.61835 0.9555,0.34726 1.82366,-44.8107 0.0868,-37.51554 z m 6.40788,10.64121 -1.19735,20.622 -0.17363,49.8476 6.25285,1.91048 15.45797,-1.04231 11.98377,-0.5209 0.84387,-5.90559 c -1.14244,0.4717 -2.7389,1.10867 -3.27525,1.21595 -0.86842,0.17367 -2.95279,0.17363 -2.95279,0.17363 l -2.25775,-1.04179 -3.12642,-0.17364 c 0,0 -2.25797,-1.2159 -3.30006,-1.38958 -1.04211,-0.17369 -2.95227,1.0418 -2.95227,1.0418 l -2.60553,1.73736 -2.43137,-3.12642 -1.04232,-3.30006 h -2.60501 c -1.38948,0 -3.99458,1.56321 -3.99458,1.56321 l -1.21595,-57.31588 c 0,0 -0.75507,-3.14498 -1.40818,-4.29586 z m 103.70788,60.04853 -2.17455,0.29456 c -2e-5,8e-5 3e-5,4.3e-4 0,5.1e-4 -0.24188,0.81602 -1.11266,3.69702 -1.53324,4.32791 -0.49091,0.73638 -0.85939,2.69896 -0.85989,2.70164 l -2.58899,1.17719 17.92552,-0.51263 -0.0656,-6.14588 -1.32395,0.58808 -5.90558,-0.17363 z m -23.97218,5.11442 -3.98425,2.10891 -0.007,3.37137 5.99911,-0.61029 0.93948,-1.55443 2.45618,-0.98237 -3.56154,-1.22783 z m -182.71185,19.20141 10.07381,0.5209 3.82095,1.38958 0.17364,2.60501 v 3.9951 l 0.86868,3.47369 c 0,0 0.52089,8.16307 0.52089,9.03149 0,0.86841 1.56322,19.97346 1.56322,19.97346 v 6.07922 l -0.34727,5.0369 -3.30006,-0.17364 -2.60552,-1.38957 0.5209,-4.68964 -0.69453,-3.12643 h -3.82096 l -4.34237,0.86869 -4.34185,0.69453 -5.90507,0.5209 -6.07922,-2.08412 0.17364,5.55781 0.34726,3.47368 h -5.03638 l -2.77916,-3.29954 -0.5209,-16.32665 -1.56321,-10.5947 0.69453,-8.51059 1.21595,-0.69453 0.86816,-2.60553 -0.34727,-4.16822 1.91048,-2.60552 3.82096,-1.38907 z" /></g><g
	id="zona-cielo"
	fill="transparent"
     	stroke="transparent"
     	role="button"
     	tabindex="0"
     	aria-label="Cielo lleno de nubes que se mueven y cambian"
     	data-zona="Cielo"><path
       d="M 0.13229167 0.13229167 L 0.13229167 74.011503 L 4.1754557 76.389653 L 8.1054484 80.811088 L 14.737602 67.301835 L 21.369755 62.388957 L 26.282117 61.652051 L 30.212109 62.388957 L 39.300444 66.810392 L 45.195174 76.144189 L 47.160429 84.250155 L 49.125167 89.899422 L 59.44185 80.565625 L 70.985848 76.635632 L 81.547994 79.828719 L 85.232524 85.477987 L 86.706335 96.531059 L 84.986544 103.65465 L 82.2849 111.26866 L 94.074878 111.0232 L 100.70703 113.47938 C 100.70703 113.47938 102.42615 117.40976 102.67177 118.39226 C 102.9174 119.37477 101.93486 126.74317 101.93486 126.74317 L 99.478682 130.91914 L 94.074878 136.07697 L 95.303227 137.55078 L 103.16321 138.77913 L 107.08804 141.31851 L 129.22105 122.27367 L 164.65248 93.094576 L 193.48431 69.12653 L 218.84194 50.715767 L 228.56848 48.631657 L 235.51586 51.063033 L 340.07382 157.35784 L 342.85246 272.33687 L 343.90614 274.25819 L 346.67341 274.42098 L 351.53668 271.9896 L 354.66311 273.37918 L 359.00548 274.42098 L 360.91595 276.85235 L 364.56328 275.63692 C 364.56328 275.63692 364.38959 274.59483 366.30012 275.63692 C 368.21065 276.67903 368.2106 279.45788 368.2106 279.45788 L 371.51066 277.72103 L 373.2475 277.0265 L 374.98435 277.5474 L 376.19978 279.97878 L 377.93662 281.19472 L 384.01584 281.54199 L 384.71037 283.80025 L 386.09995 285.53709 L 388.35769 287.79484 C 388.35769 287.79484 388.70547 290.40015 388.70547 291.09489 L 388.70547 294.22132 L 399.64744 286.05799 L 400.68924 283.6261 L 405.37887 278.24193 C 405.37887 278.24193 412.84746 276.15782 413.5422 276.15782 C 414.23692 276.15782 417.53679 278.93698 417.53679 278.93698 L 419.79453 279.97878 L 425.00507 278.41556 L 428.82654 278.24193 L 432.64749 279.80514 L 435.77392 280.15241 L 437.16298 282.93157 L 438.03166 285.01568 L 440.46304 286.40526 L 441.33172 289.70531 L 444.97904 290.05258 L 447.58405 290.22621 L 449.14726 292.48396 L 451.05774 295.43675 L 454.01053 292.83174 L 459.74196 280.84746 L 465.29976 279.97878 L 470.33667 278.76335 L 477.11041 281.54199 L 480.75774 281.54199 L 482.32095 283.80025 L 487.87875 281.02109 L 491.1788 281.02109 L 493.95796 282.5843 L 499.6894 281.19472 L 503.51035 281.19472 L 505.2472 283.80025 L 507.85272 284.32115 L 510.805 286.57889 L 514.8001 287.96847 L 520.3579 282.75793 L 524.35249 282.5843 L 528.52123 282.5843 L 533.9054 282.23704 L 538.24725 286.57889 L 537.55272 282.23704 L 540.33136 280.15241 L 542.76325 281.71562 L 547.29011 280.20667 L 559.30178 213.96575 L 554.74753 212.06819 L 549.36337 211.0264 L 544.67373 207.37907 L 542.76325 201.12622 L 543.80505 198.34758 L 539.11593 196.958 L 531.12624 194.35248 L 530.77897 191.4002 C 530.77897 191.4002 529.04192 188.79472 527.99981 188.62104 C 526.95772 188.44735 522.96291 187.23147 522.96291 187.23147 L 518.96832 183.58414 L 518.96832 177.15766 L 521.92111 171.94713 L 526.61075 168.64759 L 532.68945 167.08437 L 538.24725 167.08437 L 541.54731 161.35243 C 541.54731 161.35243 547.79994 157.18431 548.49469 156.83694 C 549.1894 156.48957 555.44207 154.92646 555.44207 154.92646 L 561.86855 155.10009 L 564.29992 151.80004 L 568.12088 146.0686 L 576.8051 140.85807 L 582.88432 141.20533 L 585.83659 142.42128 L 587.22617 143.11581 L 587.74759 139.98939 L 593.30539 135.4739 L 600.60003 132.34748 C 600.60003 132.34748 606.15762 132.52101 606.85236 132.86838 C 607.5471 133.21575 610.8473 135.82096 611.36837 136.5157 C 611.88942 137.21043 615.01569 139.46849 615.01569 139.46849 L 620.22622 138.42618 C 620.22622 138.42618 625.78426 137.38423 626.65271 137.90528 C 627.52112 138.42633 631.51597 142.42128 631.51597 142.42128 L 632.90504 146.76313 L 633.07919 149.02088 L 638.98425 148.84725 L 643.67389 152.32094 L 645.23658 157.1842 L 645.23658 158.74742 L 646.62616 159.96336 L 651.14217 158.05288 L 655.13676 158.05288 L 657.56865 158.92105 L 660.52092 161.70021 L 661.3896 163.95795 L 663.47371 166.21569 C 663.47371 166.21569 665.38429 166.56327 666.77377 167.25801 C 668.16323 167.95275 669.37878 171.07896 669.37878 171.07896 L 670.07383 174.37902 L 668.68425 177.50544 L 668.16335 179.93682 L 670.09553 179.61488 L 673.54752 177.50544 L 703.07388 173.68397 L 711.06306 172.29491 L 720.09455 172.29491 L 734.79081 170.1338 L 734.68435 169.51575 L 731.21066 164.30522 L 732.94751 159.78921 L 737.81026 155.62099 L 747.5368 155.62099 L 752.40007 152.49457 C 752.40007 152.49457 753.78947 150.41035 754.48418 149.02088 C 755.17893 147.6314 756.91556 141.37897 756.91556 141.37897 L 760.73703 135.82117 L 769.07347 131.30516 L 780.18959 135.82117 L 782.2737 130.61063 L 786.44192 123.31599 L 791.65245 122.18686 L 800.13204 120.62261 L 800.13204 0.13229167 L 0.13229167 0.13229167 z M 108.07557 175.74586 C 107.58431 175.86868 104.02311 177.7106 104.02311 177.7106 L 99.970125 182.25503 L 101.56641 214.18641 L 140.00696 200.55417 L 172.06133 187.53584 L 173.28968 186.06203 L 171.44742 184.8342 C 171.44742 184.8342 108.56682 175.62305 108.07557 175.74586 z M 88.262313 181.31917 L 82.039437 181.76358 L 82.039437 191.58882 L 75.16182 197.975 L 58.458964 196.01026 L 58.950407 202.88736 L 54.528971 210.25642 L 47.651355 212.7126 L 36.843746 213.20404 L 36.35282 224.01165 L 40.282812 278.54062 L 43.230436 279.52299 L 49.61661 277.55825 L 55.020414 278.04918 L 56.985152 269.69775 L 61.898031 263.80302 L 66.318949 266.75064 L 68.775647 261.34684 L 75.652747 260.36395 L 78.109444 260.8554 L 79.547599 261.9158 L 81.892159 260.52622 L 84.670801 258.70256 L 86.755428 258.87619 L 88.31864 259.22345 L 89.64259 259.30149 L 88.262313 181.31917 z M 732.56976 184.8404 L 724.95782 185.84189 L 720.44233 187.92651 L 719.95916 254.32246 L 720.54568 254.46922 L 723.24733 256.55695 L 722.51042 260.36395 L 721.77351 266.75064 L 719.86769 266.92376 L 719.79999 276.19244 L 720.26818 275.98419 L 726.69466 272.68413 L 728.9524 274.59461 C 728.9524 274.59461 729.82079 275.98408 730.86288 276.33145 C 731.90499 276.67882 733.46841 278.0683 733.46841 278.0683 L 736.4212 281.19472 L 741.44673 279.97619 L 748.27474 222.75901 L 743.36858 223.01068 L 737.463 218.49467 L 736.07342 213.28414 L 733.64204 209.46318 L 729.82109 203.90538 L 729.47382 199.04211 L 732.60024 192.09473 L 730.86288 188.27378 C 730.86288 188.27378 731.61716 186.38868 732.56976 184.8404 z M 709.67348 187.92651 L 679.45258 193.48431 L 678.41027 197.9998 L 678.29451 256.7311 L 679.89442 257.41685 C 679.89442 257.41685 680.38564 258.03057 680.93828 258.69067 L 680.93828 258.69119 C 681.49085 259.3512 682.10501 260.05729 682.3506 260.24148 C 682.36592 260.25297 682.38303 260.26411 682.40227 260.27559 L 682.40227 260.2761 L 682.40279 260.2761 C 682.46044 260.31043 682.53531 260.34459 682.62293 260.37842 C 682.97457 260.51418 683.537 260.64331 684.06574 260.74687 C 684.77073 260.88496 685.41575 260.97768 685.42069 260.97839 L 684.68379 257.7853 L 680.7538 254.83767 L 679.89442 252.2585 L 682.59606 249.31088 L 682.96451 248.08305 L 682.96451 247.22315 L 681.12225 248.08305 L 680.87679 248.94243 L 680.38534 246.8547 L 681.4907 243.41615 L 682.59606 239.97708 L 685.17523 237.64389 L 687.99987 235.06472 L 690.21058 234.20483 L 692.05285 233.09947 L 692.66676 232.48555 L 693.89511 231.62566 L 694.87748 228.06412 L 695.73738 224.74856 L 702.73747 215.04631 L 703.22891 213.20404 L 705.31664 216.76558 L 706.29901 227.08175 L 706.66746 235.43317 L 708.38674 236.53853 L 709.24663 239.48616 C 709.24663 239.48616 711.21189 244.52118 711.21189 245.01243 C 711.21189 245.50369 709.24663 251.39861 709.24663 251.39861 L 708.0188 255.20613 L 706.29901 257.41685 L 704.45674 260.60993 L 704.21128 262.32921 L 709.73807 262.94312 L 712.07126 261.46931 L 714.15899 258.76767 L 715.38734 254.71469 L 716.61569 253.48685 L 716.64618 253.4946 L 716.62086 251.14746 L 715.75269 188.10015 L 709.67348 187.92651 z M 671.81067 194.87389 L 661.67847 196.44176 L 659.82639 200.08443 L 654.96312 203.90538 L 649.05806 205.98949 L 643.67389 206.16313 L 642.46104 206.29283 L 640.68286 278.31428 L 641.242 278.0683 L 646.10527 276.15782 L 649.05806 278.24193 L 652.87901 277.72103 C 652.87901 277.72103 654.96302 277.89497 655.31039 278.58971 C 655.65776 279.28445 656.52633 280.50019 656.52633 280.50019 L 659.82639 279.80514 L 661.1059 279.7297 L 659.876 275.593 L 660.24445 270.68064 L 661.84074 267.1191 L 664.41991 266.13621 L 666.7531 265.64528 L 668.47289 268.59239 L 669.82371 271.04909 L 671.54299 274.48764 L 672.89381 276.08444 L 674.81204 275.97127 L 674.70765 267.65601 L 673.13979 267.61002 L 672.89381 265.03085 L 672.77134 261.5923 L 673.38525 259.13612 L 674.58311 257.73827 L 673.89478 202.86307 L 671.81067 194.87389 z M 636.51257 207.73461 L 632.7314 209.46318 L 628.56318 210.67913 L 627.86865 211.89456 L 626.82634 214.84735 L 624.91586 216.0633 L 620.22622 215.19462 L 616.92617 211.37366 L 615.71074 216.41056 L 611.0211 219.01557 L 607.37378 217.97378 C 607.37378 217.97378 603.73032 216.04506 602.50379 215.38582 L 602.49191 215.58839 C 603.14499 216.73942 603.90009 219.88425 603.90009 219.88425 L 605.11604 277.20013 C 605.11604 277.20013 607.72114 275.63692 609.11062 275.63692 L 611.71563 275.63692 L 612.75795 278.93698 L 615.18932 282.0634 L 617.79485 280.32604 C 617.79485 280.32604 619.70501 279.11055 620.74712 279.28424 C 621.78921 279.45792 624.04718 280.67382 624.04718 280.67382 L 627.1736 280.84746 L 629.43135 281.88925 C 629.43135 281.88925 631.51572 281.88929 632.38414 281.71562 C 632.92048 281.60834 634.51695 280.97137 635.65939 280.49967 L 636.90014 271.81597 L 637.76831 239.68408 L 636.51257 207.73461 z M 9.8252401 208.7826 L 4.6668986 210.74734 L 0.13229167 210.9742 L 0.13229167 305.71777 L 0.24546305 272.39991 L 3.9299927 272.15445 L 8.5968913 274.85609 L 10.562146 279.76845 L 16.456877 277.80372 L 19.4045 277.80372 L 20.632849 280.50536 L 21.615218 285.41824 L 24.562842 285.90916 L 27.264486 282.71608 L 26.282117 225.73092 L 23.825936 210.25642 L 23.08903 211.97569 L 15.965951 214.43187 L 12.772347 212.46713 L 10.316166 210.01095 L 9.8252401 208.7826 z M 586.53164 215.36825 L 582.71069 216.41056 L 576.73741 216.41056 L 577.06555 217.97378 L 590.92414 276.47925 L 592.95812 276.15782 L 592.61034 216.41056 L 586.53164 215.36825 z M 764.11305 223.60082 L 757.67417 277.12882 L 762.29972 276.33145 L 766.46846 277.20013 L 769.76852 278.0683 L 773.76311 279.97878 L 777.06316 280.15241 L 777.85175 280.02684 L 774.97905 231.34712 L 774.96097 231.09959 L 773.72383 226.95876 L 766.64209 224.05247 L 764.11305 223.60082 z M 568.98956 227.00527 L 567.59998 228.91574 L 559.52347 272.85776 C 559.87082 272.94457 580.01834 272.77095 580.01834 272.77095 L 578.36831 270.07912 L 572.7237 247.67377 L 568.98956 229.61079 L 568.98956 227.00527 z M 714.03652 264.6624 L 707.28189 268.10146 L 702.12355 269.20682 L 703.59736 273.50527 L 704.08881 275.71599 C 704.08881 275.71599 704.06581 275.79464 704.02524 275.93148 L 706.19979 275.63692 L 709.67348 277.89467 L 715.57906 278.0683 L 716.90301 277.48022 L 716.77899 265.93364 L 714.03652 264.6624 z M 685.66667 267.48755 L 679.89442 267.61002 L 678.27333 267.68754 L 678.25679 275.88135 L 680.01689 275.83846 L 683.9474 273.9962 L 686.52605 270.68064 L 687.63141 267.97847 L 685.66667 267.48755 z " /></g></svg>
