<?xml version="1.0" encoding="UTF-8" standalone="no"?>
<!-- Created with Inkscape (http://www.inkscape.org/) -->

<svg
   preserveAspectRatio="none"
   width="793.75024mm"
   height="576.8559mm"
   viewBox="0 0 793.75024 576.85588"
   version="1.1"
   id="svg1"
   xml:space="preserve"
   xmlns="http://www.w3.org/2000/svg"
   xmlns:svg="http://www.w3.org/2000/svg"><defs
     id="defs1" /><g
	id="zona-bancas"
	fill="transparent"
     	stroke="transparent"
     	role="button"
     	tabindex="0"
     	aria-label="Bancas de madera, resistentes y muy limpias"
     	data-zona="Bancas"><path
       d="m 619.96578,319.05804 -23.1867,1.21543 -21.53667,2.86598 -11.46339,2.69234 -0.34726,5.73143 v 4.16823 l 0.0868,2.77915 0.69453,3.64733 1.04231,4.516 0.86816,3.73414 0.17364,3.21272 -1.12862,3.30006 -0.86868,1.91099 2.17093,0.43409 1.73684,-1.04232 1.21595,-1.12913 0.43408,-5.81825 1.38958,-2.43137 1.12913,1.04179 1.21543,1.56322 0.78187,0.86868 0.78134,2.86545 c 0,0 0.60824,1.47677 0.60824,1.99782 0,0.52107 0.43408,2.86545 0.43408,2.86545 l 1.56321,1.65003 1.56321,-0.26045 0.34727,-4.516 0.26045,-3.99459 -0.0868,-1.47639 46.63436,-6.94738 c 0,0 1.65003,2.43178 1.65003,2.77915 0,0.34738 0.43408,3.64733 0.43408,3.64733 l 2.25775,-4.42919 0.34726,-4.16822 -0.0863,-2.77916 -1.47639,-3.12591 -2.51871,-2.25826 -2.95228,-1.38906 -1.91099,-1.21595 -0.34727,-1.47639 0.34727,-3.64732 -0.17363,-1.65003 -1.30225,-5.0369 z m -314.59062,91.87502 -142.63316,22.92986 -2.43137,1.04232 -1.73685,5.73143 -1.38958,7.29516 -0.86816,6.5996 -0.34778,8.33696 0.52141,5.21053 0.86817,6.07922 1.04231,4.68912 0.69453,5.21053 1.38958,3.82096 0.69453,3.64732 0.69505,4.516 0.17363,6.94738 -1.04231,4.86327 -2.25774,8.16281 -2.43138,4.516 0.17363,1.91048 1.91048,2.25775 1.73685,1.04231 5.90506,-8.16333 5.90507,-10.07328 4.516,-2.4319 3.30006,-0.34726 4.516,0.5209 2.43138,1.38958 3.82095,2.25774 1.91048,2.77916 1.73685,3.64732 1.04231,5.5578 0.5209,7.12101 -0.17364,6.77375 -1.21594,7.12101 -0.17363,5.0369 v 4.86327 l 4.16873,2.25775 2.95228,0.34726 2.25826,-11.98376 1.21543,-11.81065 0.52141,-9.55291 0.17364,-1.56321 136.16843,-44.11565 1.04179,4.86327 0.34727,6.60011 -0.34727,5.90507 0.34727,2.25774 3.99511,1.21595 1.21543,-3.47369 0.34778,-14.58929 0.5209,-8.5106 -1.91048,-6.94737 -5.21054,-5.03691 -5.78311,-2.14354 -3.7455,-0.49092 -6.07922,-0.73691 -3.56154,-0.98288 -3.56154,-1.59629 -3.25458,-3.8685 -2.57917,-7.61452 -0.92139,-6.01772 v -5.83375 l 0.30696,-2.76314 0.24598,-5.4038 -0.61444,-3.80752 -0.92087,-2.57917 -2.45618,-2.64015 z" /></g><g
	id="zona-postes"
	fill="transparent"
     	stroke="transparent"
     	role="button"
     	tabindex="0"
     	aria-label="Postes que alumbran el sendero con suavidad"
     	data-zona="Postes de luz"><path
       d="m 644.54205,43.073857 -24.48946,24.836726 6.94738,2.778642 11.98428,39.600165 -1.38958,2.43189 0.86868,0.86817 1.38907,1.21595 0.86868,1.21543 -2.60553,154.92646 -0.5209,139.46849 -0.86816,2.43137 0.69453,1.38958 -2.25774,8.68423 -2.77916,7.64242 -1.38958,11.1156 0.17363,9.03149 -1.73684,11.1156 2.25826,16.84755 5.21053,2.25775 7.29465,0.86868 6.0787,-2.08411 1.21594,-17.54208 -0.5209,-29.00547 -3.12642,-11.28923 -3.12642,-8.68423 0.69504,-143.28944 1.21543,-133.56342 0.69505,-22.57899 1.56321,-1.56321 -0.52141,-3.30006 14.41617,-41.162859 5.03639,-3.126424 z m -268.488,40.807845 -12.28091,8.842354 -4.97437,3.807003 -1.78077,2.210718 -0.061,0.67541 1.28933,1.166853 3.13159,1.22835 9.3338,29.90463 -0.18397,1.22835 0.18397,1.16686 1.04386,1.35082 0.55294,1.22835 -1.35082,211.23878 -1.16685,1.41232 -0.67542,1.16685 -0.0615,1.28933 0.36845,0.42995 v 2.08773 l -1.04386,7.00009 -1.16686,9.57977 -0.55242,5.95623 -0.18448,6.57066 0.49144,10.80761 5.03535,1.41231 2.2717,0.12299 1.78077,-0.36845 1.53531,-0.55294 1.78077,-1.10536 0.30695,-0.49092 -0.12247,-19.52749 -0.61443,-11.60601 -0.92088,-4.11396 -0.61391,-5.40381 -0.24598,-2.27221 -0.61392,-2.33319 1.73891,-211.47598 1.94562,-1.66657 0.73691,-0.85989 -0.12299,-1.71928 -0.92088,-0.61391 0.42943,-2.94763 8.35143,-28.12438 1.28985,-0.0615 1.53479,-0.859383 1.5968,-0.92139 0.36845,-0.798401 0.30696,-1.043864 v -0.306958 z" /></g><g
	id="zona-basurero"
	fill="transparent"
     	stroke="transparent"
     	role="button"
     	tabindex="0"
     	aria-label="Basusero de metal, necesario para la limpieza"
     	data-zona="Basurero"><path
       d="m 77.126742,483.14747 -0.982507,53.42377 0.491255,9.57942 1.842198,1.84222 5.772224,3.19315 6.754731,2.33344 4.912532,0.49125 h 9.333805 l 5.5266,-1.10533 5.64941,-1.965 7.98287,-4.29845 0.61406,-5.03537 -0.12281,-20.50981 -0.12281,-41.26526 -1.22814,-3.56158 -2.51398,-4.69556 -1.54144,-1.8237 -2.08421,-1.95394 -2.69211,-1.60658 -3.27829,-1.56316 -3.84276,-1.51974 -3.49539,-0.43421 -5.319085,-0.13025 -4.16842,0.41248 -3.386844,1.0204 -4.23355,2.12764 -2.692106,1.95395 -2.475,2.49669 -2.540133,2.71383 -1.063815,1.56316 -0.477631,1.17237 -0.32566,1.4546 -0.282236,1.8888 -0.195395,1.88884 -0.06513,1.88881 z"
       id="path4" /></g><g
	id="zona-arboles"
	fill="transparent"
     	stroke="transparent"
     	role="button"
     	tabindex="0"
     	aria-label="Árboles frondosos que brindan sombra en el sendero"
     	data-zona="Árboles"><path
       d="m 0,0 v 164.96409 l 1.1053589,0.46561 2.2107178,0.85937 3.4385498,0.24598 3.6845295,-2.3337 0.736906,-0.12299 0.613916,1.35134 v 2.57865 l 0.736906,2.08824 2.579171,1.71928 2.824633,-0.49144 1.596802,-0.36846 1.350822,1.96526 1.105359,2.33319 1.350822,1.22835 2.210718,0.36845 2.456181,-0.12299 c 0,0 1.228182,-0.98239 1.473811,-1.71927 0.245626,-0.73688 2.210718,-1.47382 2.210718,-1.47382 h 2.210718 c 0,0 1.719466,-0.73691 2.210718,-1.10535 0.491254,-0.36844 1.473295,-2.94763 1.473295,-2.94763 l 1.351339,-2.82463 2.947106,1.5968 2.456698,1.47381 4.052466,0.85938 2.674772,-1.41903 1.736845,-5.90559 3.744474,-5.10615 5.634798,5.10615 13.89476,10.42107 19.452559,14.93707 10.073291,12.50518 7.98969,28.83184 6.94738,46.89481 3.12642,38.90512 1.0418,51.06303 2.43189,11.81065 -2.77916,12.50518 -3.12642,7.98969 -5.5578,5.5578 3.90829,1.0418 6.25233,0.69505 12.15791,0.69453 h 8.25015 11.20241 l 5.21054,-0.43408 1.12913,-0.69453 -2.64894,-4.9935 -2.0407,-3.64732 -2.86546,-7.68584 -1.99781,-9.29194 -3.90777,-24.31582 -2.30115,-15.28434 -1.30276,-8.46719 -0.30386,-5.25394 -2.17093,-9.68261 -2.30167,-12.72222 -1.21543,-10.94249 -1.17253,-4.38526 -0.40773,-11.32696 0.0615,-7.6755 v -5.4653 l 1.35083,-9.33379 0.7984,-3.37758 0.61391,-2.70164 1.65778,-7.12308 2.39521,-6.81612 3.0086,-7.92148 2.27221,-4.72839 3.43907,-5.89525 3.99097,-6.26319 16.57986,-20.63284 c 0,0 1.65813,-1.1667 1.90376,-1.78077 0.24562,-0.61406 0.36846,-1.04387 0.36846,-1.04387 l 0.61391,-0.24546 0.98237,0.85938 0.92139,0.61443 0.61392,0.85938 -0.0615,0.98237 -0.7369,0.36845 -1.71928,0.73691 -1.71927,1.41231 -0.49145,0.8599 -0.30695,1.41232 0.36845,1.90376 0.24598,1.35082 1.16634,1.10536 -0.24547,0.42995 -0.55242,1.71927 -0.0615,1.78077 0.36845,2.08773 0.79788,1.35082 1.6583,1.22835 3.0701,0.7984 0.98288,0.0615 0.92088,0.42944 0.7984,1.35133 -1.04387,2.3332 0.12248,1.96525 0.61443,1.78077 1.84227,1.90324 1.47329,0.92139 h 1.96526 l 2.70164,-0.7984 1.41232,2.33371 2.02675,3.19309 1.84226,0.61391 1.96474,0.36846 2.82463,-0.67541 3.19361,-2.45619 2.27169,-2.64066 1.22835,-2.14922 1.96474,-0.55242 0.42995,1.10484 2.27221,1.78128 2.08773,1.35083 2.14922,0.42994 3.37757,-0.98288 1.96474,-1.84227 0.42995,-2.39468 0.18397,-1.84227 3.62303,1.53531 2.88613,0.92087 c 0,0 2.70209,0.61416 3.00912,0.42995 0.30703,-0.18422 2.27221,-2.45618 2.27221,-2.45618 l 1.35082,-1.78077 2.21072,-1.41232 2.14922,2.08773 2.02624,1.53531 2.64066,1.28933 1.10536,0.67541 3.56154,-0.73691 4.32583,-2.36678 1.56322,-2.08463 0.69453,-1.65003 0.17363,-2.25774 1.04231,-1.91048 c 0,0 1.47621,0.34727 2.08411,0.34727 0.60789,0 1.73685,0.17363 1.73685,0.17363 l 2.69182,-0.26045 3.12643,-1.21543 1.56321,-1.56321 1.9973,-2.69234 2.08411,-2.25774 1.30276,-1.91048 0.0868,-2.17145 -0.78135,-2.60501 -0.26097,-1.65002 1.21595,-0.5209 2.95279,-0.52142 2.77864,-1.38906 2.86598,-2.95279 0.60771,-2.25774 v -2.60553 l 0.0868,-1.56321 4.86327,-6.33915 0.69504,-1.73685 0.69454,-2.77915 1.12913,-2.08411 2.605,-3.38688 c 0,0 0.17364,-2.34495 0.17364,-2.77916 0,-0.43421 -0.69453,-2.51819 -0.69453,-2.51819 l -2.69235,-2.60552 -0.34726,-2.25775 -0.0868,-3.03961 -1.04231,-2.605 -2.17093,-1.56322 -1.65003,-0.17363 h -4.42867 l 1.30225,-3.38687 -0.5209,-3.56051 c 0,0 -0.78175,-1.2159 -1.12913,-1.38958 -0.34737,-0.17369 -1.47588,-0.78135 -1.47588,-0.78135 l -1.65003,-0.52141 0.17364,-1.12861 0.43408,-2.60553 v -2.17093 -2.34456 l -1.12913,-1.99729 -2.17093,-1.65003 0.9555,-2.34508 0.86816,-2.25774 0.69505,-1.73684 v -1.9973 -2.25826 l 1.82366,-1.91048 v -2.77864 c 0,-0.52106 0.26045,-2.17092 0.26045,-2.17092 l -0.52141,-1.30277 -1.9973,-1.91048 -2.51819,-1.12913 -0.78187,-0.69453 1.04232,-1.823658 1.38958,-2.865975 v -2.431376 l -0.78187,-1.042313 -0.69453,-2.34456 0.5209,-2.518709 c 0,0 -0.52079,-0.78122 -0.86816,-1.21543 -0.34734,-0.43421 -1.30277,-1.476396 -1.30277,-1.476396 l -1.56321,-1.389579 -1.56321,-0.520899 h -1.38958 l -0.69453,-1.389579 c 0,0 -1.04222,-1.823558 -1.30276,-2.170927 -0.26051,-0.347369 -1.65003,-1.650028 -1.65003,-1.650028 l -2.08411,-0.434599 -1.56322,0.08682 -2.17092,1.476396 -3.99459,2.084111 0.17363,-1.389063 1.12913,-2.865975 v -1.12913 l -0.17415,-3.039091 0.0868,-1.12913 0.86868,-2.08411 -0.34727,-2.345077 -1.12913,-2.518192 -2.17092,-0.868165 -3.82096,-0.174149 -0.0868,-0.781348 0.26044,-3.560506 -0.52141,-2.431376 -1.91048,-0.868681 c 0,0 -1.56323,-1.736691 -1.65003,-2.257743 -0.0868,-0.521052 -0.60771,-2.171444 -0.60771,-2.171444 l -1.4764,-2.605009 0.60823,-2.170927 -0.69504,-2.518709 -0.43409,-2.605009 0.43409,-2.257743 -0.60772,-1.736845 -1.21595,-1.38958 -1.91047,-1.389579 -1.73685,-0.434082 c 0,0 -0.0868,-1.563572 -0.17363,-2.084627 -0.0868,-0.521052 -1.21595,-2.431376 -1.21595,-2.431376 l -1.30224,-0.954981 c 0,0 -0.69485,-0.260942 -1.38958,-0.347782 -0.69474,-0.08684 -1.38941,-0.520821 -1.9973,-0.781348 -0.6079,-0.260525 -1.21594,-0.434082 -1.21594,-0.434082 l -0.26045,-1.476395 c 0,0 0.52077,-0.781686 0.95498,-1.38958 0.43422,-0.607895 0.26045,-1.823506 0.26045,-2.344559 0,-0.521053 -0.34727,-1.736845 -0.34727,-1.736845 0,0 -0.43401,-0.955343 -0.69453,-1.476396 -0.26053,-0.521053 -0.6949,-0.781633 -1.21595,-1.563212 -0.52106,-0.781577 -0.86816,-0.694531 -0.86816,-0.694531 l -1.21595,-0.347783 V 14.85027 l 0.26045,-2.171443 c 0,0 -0.52091,-2.344457 -0.60771,-2.6918257 -0.0868,-0.3473686 -1.04232,-0.695048 -1.04232,-0.695048 0,0 -0.86855,-1.5631351 -1.30276,-1.8236613 -0.43421,-0.2605265 -1.65003,0 -1.65003,0 l -3.38635,0.3472656 -2.34508,-0.086816 0.60823,-1.9104777 c 0,0 0.86818,-2.3443801 0.95498,-2.9522746 0.0868,-0.6078949 0.60772,-2.17144365 0.60772,-2.17144365 L 219.83568,0 Z M 0,164.96409 -1.2283488,164.44681 0,164.99975 Z m 480.93137,-147.074743 -2.5616,1.12913 -1.91048,1.432988 -0.86868,1.60662 -0.39068,1.823661 -0.73793,0.954981 -1.21595,-0.520899 -1.56321,-1.997294 -1.56322,-1.389579 -0.99838,-0.347266 -1.56322,0.130225 -2.08411,1.563212 -2.51871,2.82205 -1.47639,-0.607715 -2.12752,-0.390674 -1.5198,0.564307 -1.95389,0.738456 -2.25774,2.084111 -1.17254,2.908866 -1.86707,0.521415 c 0,0 -1.47634,-0.608166 -1.60662,-0.825272 -0.13026,-0.217107 -0.95498,-0.520899 -0.95498,-0.520899 l -1.34617,-0.434082 -1.38958,-0.08682 -2.60553,1.041797 -2.12752,2.562117 -1.5198,1.563212 -2.12752,0.781348 c 0,0 -1.56315,1.302722 -1.73684,1.432987 -0.17368,0.130263 -1.30273,1.129066 -1.4764,1.346172 -0.1737,0.217104 -0.56431,1.693436 -0.56431,1.693436 l -0.5643,1.693437 -0.13023,2.127519 1.65003,3.430281 -0.9555,0.868164 -1.82366,1.606621 -1.60662,2.345076 -0.65112,1.693437 -0.13023,1.172021 1.25884,2.040703 v 0.651639 l -1.12861,1.476396 -1.38958,1.258838 c 0,0 -0.13022,1.042263 -0.13022,1.215946 0,0.173686 -0.17364,1.346171 -0.17364,1.346171 l -1.47639,0.651123 -1.08573,0.26045 -1.65002,0.998905 c 0,0 -1.25882,1.867007 -1.38907,2.084111 -0.13026,0.217107 -0.65164,1.60662 -0.65164,1.60662 l 0.0868,2.257743 0.0434,1.650029 -0.0434,1.346171 -1.12861,0.347265 -1.65003,0.738457 -2.43189,1.867069 -1.08521,5.384168 -0.56482,0.520898 -1.65003,0.955497 -1.34566,0.564307 -1.30276,0.868164 -0.69505,1.389579 -0.78134,1.563212 -0.47749,3.083016 0.34726,2.214335 -0.26045,2.170927 c 0,0 4e-5,0.08726 -0.13022,0.347783 -0.13025,0.260527 -0.4346,0.47749 -0.4346,0.47749 l -0.95498,0.781348 -0.82527,1.215946 -0.86817,1.780253 0.0868,2.040707 v 1.60662 l 1.04231,1.86707 0.91157,0.69505 0.91209,0.47749 1.21543,0.34726 0.60823,0.78187 -1.30276,3.0825 0.30386,0.0868 0.60771,1.08572 -0.30385,3.77755 c 0,0 -0.73788,0.0868 -0.91158,0.13023 -0.17367,0.0434 -1.64998,0.39069 -1.86707,0.47749 -0.21711,0.0868 -2.73575,1.34617 -2.73575,1.34617 l -0.91157,1.47639 -0.9555,1.38958 -0.34726,1.86707 0.26045,1.73685 -1.17254,0.95549 -1.99729,2.34456 -0.91158,1.38958 c 0,0 -0.43461,1.78019 -0.52141,2.04071 -0.0868,0.26053 0,2.08411 0,2.08411 l 0.60823,1.60662 v 0.9989 c 0,0.43421 0.39067,1.12862 0.39067,1.12862 l 1.21595,1.69343 c 0,0 -2.25817,2.60556 -2.56212,2.4753 -0.30396,-0.13027 -1.82366,-0.91209 -1.82366,-0.91209 0,0 -1.3461,-0.69454 -1.5198,-0.73794 -0.17367,-0.0434 -0.99839,0.34727 -0.99839,0.34727 l -2.60553,2.73523 -1.25935,1.12913 -0.30386,1.30277 c 0,0 0.65164,1.43294 0.65164,1.60662 0,0.17369 -0.0434,1.12861 -0.0434,1.12861 0,0 -1.17246,0.78182 -1.38958,0.9555 -0.21709,0.17369 -1.30276,1.38958 -1.30276,1.38958 l -0.65112,1.91047 -0.21704,1.65003 0.78134,2.34456 -0.60771,1.04232 -0.52142,1.73684 -0.69453,1.95389 c 0,0 0.60772,2.73562 0.60772,3.16983 0,0.43421 1.08572,1.30225 1.08572,1.30225 l 0.73794,1.30276 3.64732,1.69344 1.08572,0.9989 -0.91157,1.78025 -2.38848,2.60501 -0.30386,1.12913 -0.0434,1.38958 0.82476,1.69344 0.82527,1.43247 0.82476,1.08572 -0.43409,0.78135 0.0434,3.56051 1.08572,2.21485 0.86817,0.95498 1.25935,-0.17364 h 2.60501 c 0,0 1.08564,-0.17363 1.34617,-0.17363 0.26047,0 0.34727,0.30386 0.34727,0.30386 l -0.43408,0.86868 c 0,0 -1.04225,1.17247 -1.25936,1.43299 -0.21709,0.26053 -0.99833,1.8236 -1.12861,2.0407 -0.13028,0.21711 -0.17364,1.12908 -0.17364,1.30276 0,0.17369 0.65113,1.60611 0.65113,1.60611 l 1.04231,1.73684 1.08521,1.65003 0.26045,1.86707 c 0,0 0.65164,2.04116 0.65164,2.21485 0,0.17368 2.69182,1.30225 2.69182,1.30225 l 4.34237,-3.29954 c 0,0 -2e-5,2.34445 -0.0434,2.69182 -0.0435,0.34737 -0.0868,1.78012 -0.13022,2.25775 -0.0434,0.47763 0,2.08462 0,2.08462 0,0 0.82471,1.38949 1.0418,1.69344 0.21712,0.30395 0.95549,0.99839 0.95549,0.99839 0,0 1.04217,0.1736 1.56322,0.30386 0.52104,0.13026 1.25935,0.34778 1.25935,0.34778 l 0.91157,0.30386 0.73846,0.65112 1.38906,1.12913 1.12913,0.39067 2.60501,0.0868 1.78025,-0.56431 4.34237,-2.90938 0.30386,-0.56431 1.34617,-1.25935 0.99839,-2.82257 0.21756,-1.43299 1.38906,-0.5643 1.43299,-0.56431 0.9989,-0.52141 0.82476,-1.30225 0.52141,-1.78025 v -2.34508 l -0.478,-1.34565 -0.26045,-1.95441 -0.26045,-1.30224 1.25935,-0.56483 0.91158,0.0434 2.30166,1.5198 2.99569,-0.17363 2.43189,-1.34617 1.43247,-1.73684 -0.30386,-4.21163 -1.47639,-3.25665 2.95279,1.91048 7.81606,5.21053 9.89965,8.85786 10.42107,10.76833 5.73195,10.24744 2.77864,10.24744 0.69505,11.81064 -1.56321,25.35763 -2.08463,27.96367 -1.91047,20.84162 c 0,0 -2.60491,11.98444 -2.95228,13.20023 -0.34737,1.21578 -2.60552,11.1156 -2.60552,11.1156 l -2.25775,6.94738 -3.99459,7.46879 h 7.12102 l 10.94196,-2.25826 6.25285,-1.91048 3.12591,-2.25774 -0.76791,-5.82445 -0.61392,-5.4038 -0.24546,-11.05359 -0.36845,-15.35152 1.53995,-28.73571 1.97559,-8.92297 1.56322,-6.96909 0.93379,-3.62562 1.30224,-3.49539 0.60824,-1.34617 1.58491,-2.47479 6.44767,-10.16062 7.36028,-10.18232 3.71243,-4.45037 3.69073,-4.27726 4.29845,-4.77646 10.65981,-11.31093 1.58492,-1.17254 0.84697,0.17363 0.56431,0.82527 -0.58601,0.54261 -0.91209,2.497 -0.0651,0.86817 1.12913,2.71404 -0.71675,1.21543 -0.36897,0.89039 -0.23875,2.19263 0.0868,1.30276 0.47749,1.38958 0.60823,1.0418 1.41128,0.91209 0.69453,0.45578 0.86817,0.15193 0.41289,1.41128 0.58601,0.93328 0.89039,0.89039 1.19372,0.60771 0.76016,0.26045 0.82476,0.0651 0.76016,-0.17363 0.71624,-0.39067 1.36787,-1.62833 0.65112,-1.54151 5.40588,0.21704 2.12751,-0.26044 1.28106,-0.65113 1.10743,-1.21594 0.65112,-1.17254 0.54261,-1.28054 0.10903,-1.06402 c 0,0 -0.17414,-0.60768 -0.13074,-0.73794 0.0435,-0.13027 0.0873,-1.23765 0.0873,-1.23765 l -0.19533,-1.62833 v -1.67173 l 0.30385,-0.34727 0.97669,-0.45578 1.78025,-0.32608 1.30277,-0.5209 0.78134,-0.80305 0.4129,-0.99891 0.88987,-2.0624 0.73845,-0.80357 1.9973,-1.15032 1.36735,-1.28106 c 0,0 1.04233,-1.60658 1.08573,-1.71514 0.0434,-0.10855 0.17363,-1.62832 0.17363,-1.62832 l -0.65112,-3.30006 -0.19534,-1.78025 1.4981,-1.60662 c 0,0 0.86818,-1.21538 0.93328,-1.41077 0.0651,-0.1954 0.43408,-1.23765 0.43408,-1.23765 l 1.78025,-2.62723 2.01952,-2.75694 0.78134,-2.43189 -0.21704,-2.5399 -0.67283,-2.34456 -0.76016,-2.01951 0.41238,-1.47588 0.62994,-2.41019 -0.15193,-1.30276 -0.69505,-1.73685 -0.71623,-1.25883 -0.65164,-0.89039 -0.19534,-0.84646 -0.0868,-0.69505 -0.0217,-0.75964 -0.45579,-0.58601 -0.60771,-0.34778 -0.91209,-0.78135 0.13022,-3.99459 -0.65112,-1.36787 -1.5198,-1.91048 -1.88878,-0.73846 c 0,0 -1.433,0.0217 -1.5198,0.13023 -0.0869,0.10856 -1.38958,0.91209 -1.38958,0.91209 l -1.54151,0.69453 1.02061,-3.92948 c 0,0 1.23765,-2.84422 1.23765,-2.9962 0,-0.15197 -0.17364,-1.23715 -0.23874,-1.32395 -0.0651,-0.0868 -0.60824,-1.75901 -0.65164,-1.9327 -0.0435,-0.17368 -0.95498,-1.84536 -0.95498,-1.84536 l -1.28106,-1.08521 -1.69344,-1.58491 c 0,0 0.19534,-1.36783 0.19534,-1.54151 v -1.69344 c 0,-0.43421 -0.45579,-1.47641 -0.47749,-1.56321 -0.0217,-0.0868 -1.19424,-2.10582 -1.19424,-2.10582 0,0 -1.34614,-1.08573 -1.4764,-1.15083 -0.13028,-0.0651 -1.41128,-0.43408 -1.41128,-0.43408 l -1.91048,-0.34727 -1.41077,-0.32556 -1.38958,-1.02061 -1.12913,-0.71623 -1.41128,-0.23875 -1.32395,0.21704 -1.54151,0.5209 -1.10742,0.95498 -1.19425,0.86868 -0.5426,1.78025 -0.9772,0.45579 -0.78962,-0.2682 -3.31607,-0.12247 -3.31608,3.19308 -1.04386,0.12248 -2.45618,-0.18397 -1.65778,1.35082 -1.10536,1.71928 -1.47382,3.62303 -2.70216,-2.57917 c 0,0 -1.59662,-1.04378 -1.84226,-1.35082 -0.24562,-0.30703 -1.28933,-0.98237 -1.28933,-0.98237 0,0 -2.70198,0.12257 -2.94762,0.18397 -0.24561,0.0614 -0.98237,0.61443 -0.98237,0.61443 l -1.90376,1.71927 -0.73691,2.45619 -1.41231,0.7984 -1.22784,0.92087 -0.85989,2.33371 -0.12299,2.14922 0.61443,1.35082 -5.89525,3.31608 -0.24546,-0.36845 -1.5968,0.0615 -3.31608,2.14922 -0.18397,-1.35133 -0.24546,-2.45619 -0.61443,-1.96473 -3.74551,-1.84227 0.0615,-1.28933 0.61391,-2.82515 -0.42995,-2.82463 -1.47381,-1.84226 -0.18397,-1.71928 1.04387,-3.25458 11.69903,-21.74441 1.73684,0.56482 3.86488,0.65113 2.43138,0.78134 0.5209,0.82528 -0.17364,1.65003 -0.34726,2.0407 -0.17364,2.25774 c 0,0 0.7813,2.64882 0.91158,3.03961 0.13026,0.39079 0.78186,0.65112 0.78186,0.65112 l 1.43299,0.52142 2.34456,0.34726 1.91048,-0.0434 1.78025,0.78135 1.38958,0.60823 0.99839,0.43409 1.65003,0.0868 1.73684,-0.17363 1.12913,-0.43408 1.25935,0.47749 1.34618,0.13022 2.12751,-0.47749 2.25775,-1.86707 0.78135,-1.30276 0.52141,-1.25936 0.65112,-3.25664 0.39068,-0.47749 1.69343,-1.43299 1.82367,-0.91157 0.91208,-1.34618 0.91158,-1.73684 0.30437,-1.5198 0.0434,-2.73575 -1.08572,-2.43138 c 0,0 0.13023,-0.86862 0.17363,-1.04231 0.0434,-0.17368 0.56431,-1.0418 0.56431,-1.0418 l 1.91099,-2.95279 0.17363,-2.08411 -2.04121,-5.340766 -1.5627,-0.912089 -2.17144,-0.520899 -3.38688,0.173633 0.30438,-2.344559 -0.4346,-2.257744 -0.99839,-1.910994 1.21543,-3.082499 0.39119,-2.128036 -0.73846,-2.431376 -1.25883,-2.084111 -1.82418,-0.86868 -0.34727,-0.911573 0.4346,-0.825272 1.78025,-0.520899 1.60611,-0.998388 1.25935,-1.215947 0.82527,-1.650028 0.43409,-2.127519 1.04179,-3.343465 0.30438,-1.085722 c 0,0 -0.47795,-1.129051 -0.60823,-1.389579 -0.13025,-0.260524 -0.5209,-1.476396 -0.5209,-1.476396 0,0 -0.91201,-1.302206 -1.17254,-1.432471 -0.26054,-0.130262 -0.5209,-1.085722 -0.5209,-1.085722 l 0.17363,-1.042313 c 0,0 0.0868,-1.432408 0.0868,-1.649512 0,-0.217106 -0.43408,-1.476396 -0.43408,-1.476396 l -1.30276,-1.650028 c 0,0 -0.69491,-0.608191 -1.17254,-0.738456 -0.47762,-0.130262 -1.73685,-0.434082 -1.73685,-0.434082 l -1.30224,-0.390674 c 0,0 0,-0.651549 0.0434,-0.955497 0.0435,-0.303948 -0.39119,-1.085205 -0.39119,-1.085205 l -1.43247,-1.693437 c 0,0 -1.38954,-0.651616 -1.56321,-0.738456 -0.1737,-0.08684 -1.86707,-0.26045 -1.86707,-0.26045 l -3.38687,0.868681 c 0,0 -1.08572,1.215352 -1.08572,1.475879 0,0.260525 -0.82468,1.563147 -0.91158,1.780253 -0.0868,0.217108 -1.69343,0.304374 -1.69343,0.304374 0,0 -0.30438,-0.868628 -0.30438,-1.042313 0,-0.173683 0.21756,-1.432988 0.21756,-1.432988 l 0.86817,-1.953886 c 0,0 0.13022,-2.214285 0.0868,-2.387968 -0.0434,-0.173686 -0.39062,-0.998893 -0.60771,-1.042313 -0.21712,-0.04342 -1.21595,-0.520899 -1.21595,-0.520899 l -1.73684,-0.825272 -1.17254,-0.911572 0.73845,-2.34456 -0.21704,-1.172538 -0.65164,-0.825273 -0.60771,-1.563212 c 0,0 -1.38947,-1.606545 -1.78026,-1.86707 -0.39079,-0.260527 -1.56321,-0.868164 -1.56321,-0.868164 l -1.78025,-0.607715 c 0,0 -0.82519,0.347228 -1.08572,0.477491 -0.26051,0.130265 -1.78026,0.998388 -1.78026,0.998388 l -1.04179,0.478007 c 0,0 -0.21696,-0.955446 -0.30386,-1.12913 -0.0868,-0.173683 -0.69497,-1.129079 -0.91209,-1.302763 -0.21709,-0.173685 -1.25935,-0.737939 -1.25935,-0.737939 l -2.5182,-0.04341 c 0,0 -1.30263,0.955406 -1.78025,1.259354 -0.47763,0.303948 -1.30276,1.128614 -1.30276,1.128614 l -1.86707,0.08682 0.39067,-1.302246 0.52142,-2.605526 0.5643,-1.693436 -0.86868,-1.780253 -2.5616,-1.736845 v -1.563212 l 0.17364,-1.519804 c 0,0 -0.60764,-2.127441 -0.82476,-2.387968 -0.21709,-0.260526 -0.99891,-1.563212 -0.99891,-1.563212 l -2.25774,-0.998906 c 0,0 -1.51977,-0.434058 -1.69344,-0.520898 -0.1737,-0.08685 -0.69504,0.08682 -0.69504,0.08682 l -2.60501,1.259355 -0.39068,-0.520899 -1.99781,-1.60662 -1.25884,-0.65164 z m 17.06459,88.665903 1.91048,0.0434 0.13022,0.65112 -0.0434,1.69344 -0.13022,4.08192 -0.43408,3.34347 -0.69453,3.86436 c 0,0 -1.08567,2.60542 -1.21595,2.95279 -0.13026,0.34737 -0.78187,1.73685 -0.78187,1.73685 0,0 -2.77865,3.69066 -2.86545,3.95118 -0.0868,0.26053 -1.69344,2.73523 -1.69344,2.73523 l -2.51871,2.77916 -0.34726,-0.43408 -1.51981,-8.42378 -0.47749,-2.82256 -0.17363,-2.43138 0.21704,-1.65003 2.08411,-2.0407 1.73684,-1.95389 h 0.52142 l 1.5627,0.34727 1.65002,-0.21704 c 0,0 1.3896,-1.56316 1.4764,-1.73685 0.0869,-0.17368 1.12907,-2.90929 1.25935,-3.21324 0.13025,-0.30395 0.26045,-2.12752 0.26045,-2.12752 z m -20.12952,13.98623 0.36845,1.16634 -0.18397,2.08772 0.24547,5.40381 -1.47382,1.16685 -2.02623,1.10536 -1.71979,1.04387 0.18449,-1.65778 1.10535,-3.07062 0.36846,-1.59628 -0.30696,-1.04387 0.12247,-0.61443 1.16686,-1.22783 1.35082,-1.47381 z m -387.898288,5.90041 1.736845,0.78187 2.084627,1.21543 2.257743,0.4346 4.602303,-1.65003 -2.08411,3.03961 -1.21543,2.86545 0.694531,0.60824 0.08682,2.17092 -1.389579,3.21324 -0.173633,1.73685 1.997294,1.99729 1.042314,1.30225 -0.520899,4.08192 0.694531,3.21324 1.389581,2.17093 1.30276,0.5209 3.12591,2.60552 2.69234,1.73685 -0.0868,5.0369 1.0418,6.94738 -0.0863,5.90506 0.5209,0.78135 0.95498,11.0293 -0.5209,-0.0868 -5.73143,-4.60282 -8.510592,-8.42378 -8.857858,-6.25233 -8.510591,-4.86327 -9.726538,-6.77375 -7.90236,-6.33966 1.12913,-1.0418 0.95498,-0.60823 1.389579,1.21595 1.128614,0.86868 c 0,0 2.952634,0.17363 3.473689,0.17363 0.521052,0 2.692342,-0.17363 2.692342,-0.17363 0,0 2.257641,-1.12915 2.605009,-1.21595 0.347369,-0.0868 1.042314,-1.47639 1.042314,-1.47639 l 0.955497,-1.9973 0.434082,-1.30276 0.173633,-1.91048 -0.260449,-2.17093 -0.695048,-1.91047 c 0,0 0.08682,-0.86855 0.08682,-1.30277 0,-0.43421 0.260966,-1.30276 0.260966,-1.30276 l 0.694532,-0.95498 0.694531,-0.78186 1.736845,1.12913 1.12913,0.0868 3.039607,-1.73684 1.650029,-1.56321 2.952275,-4.42919 z m 51.021688,37.14554 1.22784,3.68401 2.21071,2.21072 1.84227,1.10536 0.36845,4.42144 2.33319,2.70164 3.31608,1.10536 3.56154,-1.47381 2.82463,-3.0701 5.28133,0.36845 -0.12299,7.737 -4.66689,15.72049 -4.6669,6.38617 c 0,0 -9.94775,14.00088 -10.68462,14.49214 -0.73688,0.49125 -6.50917,11.91245 -6.50917,11.91245 l -3.80752,8.35143 -9.70225,-72.09121 2.33371,2.33319 2.57917,1.10536 c 0,0 3.68438,-0.24549 4.29845,-0.61392 0.61406,-0.36844 2.82463,-1.96525 2.82463,-1.96525 l 2.70165,-3.92999 z m 307.02881,4.53874 0.86816,0.4346 0.78135,1.95389 -0.0868,2.12752 0.47801,3.21324 c 0,0 2e-5,2.51813 0.0434,2.73523 0.0434,0.21711 0.13022,2.25826 0.13022,2.25826 l -0.17363,1.0418 -8.46718,-4.08141 -1.73685,-0.69505 0.30386,-0.60771 0.86868,-0.60772 1.47588,-0.82527 1.30276,-0.86816 1.60662,-2.38849 c 0,0 0.9121,-1.82361 0.9555,-1.99729 0.0434,-0.17369 0.5209,-1.21543 0.5209,-1.21543 z m 11.1156,3.03961 1.17254,1.17254 0.86816,1.5198 1.08572,1.60662 1.17202,2.0407 0.78187,1.30225 2.90938,2.21485 0.95498,0.0868 0.39068,-0.21704 3.69073,1.91048 1.86758,0.78134 1.12862,-0.43408 1.04231,-0.65112 2.25774,-2.12804 0.69453,-0.43408 0.17415,0.17363 0.34727,14.67663 -0.0868,2.30115 -1.73684,5.42757 -0.78187,0.21705 -6.16551,-5.16713 -7.64243,-7.16442 -3.95118,-3.69073 -2.77916,-4.81986 -3.03909,-7.85896 0.91157,-0.21704 0.99891,-0.26096 0.95498,-0.73794 1.91099,-0.95498 z m 29.96044,9.5529 5.12372,0.69454 2.60501,2.43137 -0.0868,1.91048 0.26097,2.25826 0.78135,2.17093 3.90777,1.47639 1.82366,-0.95549 1.04232,-1.38958 1.47639,-1.30225 0.34727,0.0868 c 0,0 -0.52092,1.4763 -0.60772,1.82366 -0.0868,0.34737 -0.78186,1.65003 -0.78186,1.65003 l -0.43408,2.95227 1.12913,1.38958 1.21542,0.86868 1.04232,0.5209 0.5209,0.9555 1.12913,1.47588 h 2.69182 l 0.60823,0.34778 0.60772,1.56269 -0.60772,8.51059 -2.69234,10.07381 -2.77864,5.9924 -4.16874,6.25233 -5.12372,5.38417 -4.25503,2.86597 -1.65003,-2.69234 -0.43408,-4.95009 -0.86868,-15.54427 -0.34727,-14.76344 -0.5209,-14.41565 -0.78186,-6.94738 z" /></g><g
	id="zona-cielo"
	fill="transparent"
     	stroke="transparent"
     	role="button"
     	tabindex="0"
     	aria-label="Cielo despejado"
     	data-zona="Cielo"><path
       d="m 793.86524,0 -573.24977,0.02222087 0.38706,0.29300537 c 0,0 -0.52091,1.56354866 -0.60771,2.17144366 -0.0868,0.607895 -0.95498,2.9522746 -0.95498,2.9522746 l -0.60824,1.9104777 2.34508,0.086816 3.38636,-0.3472656 c 0,0 1.21582,-0.260526 1.65003,0 0.43421,0.260526 1.30276,1.8236613 1.30276,1.8236613 0,0 0.95551,0.3476794 1.04231,0.695048 0.0868,0.3473687 0.60772,2.6918261 0.60772,2.6918261 l -0.26045,2.171443 v 1.475879 l 1.21594,0.347783 c 0,0 0.34711,-0.08705 0.86817,0.694531 0.52105,0.781579 0.95541,1.042159 1.21594,1.563212 0.26052,0.521053 0.69454,1.476396 0.69454,1.476396 0,0 0.34726,1.215792 0.34726,1.736845 0,0.521053 0.17377,1.736664 -0.26045,2.344559 -0.43421,0.607894 -0.95498,1.38958 -0.95498,1.38958 l 0.26045,1.476395 c 0,0 0.60805,0.173557 1.21595,0.434082 0.60789,0.260527 1.30255,0.694508 1.99729,0.781348 0.69473,0.08684 1.38958,0.347782 1.38958,0.347782 l 1.30225,0.954981 c 0,0 1.12914,1.910324 1.21594,2.431376 0.0868,0.521055 0.17364,2.084627 0.17364,2.084627 l 1.73684,0.434082 1.91048,1.389579 1.21595,1.38958 0.60771,1.736845 -0.43408,2.257743 0.43408,2.605009 0.69505,2.518709 -0.60823,2.170927 1.47639,2.605009 c 0,0 0.52092,1.650392 0.60772,2.171444 0.0868,0.521052 1.65003,2.257743 1.65003,2.257743 l 1.91047,0.868681 0.52142,2.431376 -0.26045,3.560506 0.0868,0.781348 3.82095,0.174149 2.17093,0.868165 1.12913,2.518192 0.34726,2.345077 -0.86868,2.08411 -0.0868,1.12913 0.17415,3.039091 v 1.12913 l -1.12913,2.865975 -0.17364,1.389063 3.99459,-2.084111 2.17093,-1.476396 1.56321,-0.08682 2.08411,0.434599 c 0,0 1.38952,1.302659 1.65003,1.650028 0.26054,0.347369 1.30276,2.170927 1.30276,2.170927 l 0.69453,1.389579 h 1.38958 l 1.56321,0.520899 1.56322,1.389579 c 0,0 0.95542,1.042186 1.30276,1.476396 0.34737,0.43421 0.86816,1.21543 0.86816,1.21543 l -0.52089,2.518709 0.69453,2.34456 0.78186,1.042313 v 2.431376 l -1.38958,2.865975 -1.04231,1.823667 0.78186,0.69453 2.5182,1.12913 1.99729,1.91048 0.52141,1.30276 c 0,0 -0.26044,1.64987 -0.26044,2.17093 v 2.77864 l -1.82367,1.91048 v 2.25826 1.99729 l -0.69504,1.73685 -0.86817,2.25774 -0.9555,2.34508 2.17093,1.65002 1.12913,1.9973 v 2.34456 2.17092 l -0.43408,2.60553 -0.17363,1.12861 1.65003,0.52142 c 0,0 1.1285,0.60766 1.47587,0.78135 0.34738,0.17368 1.12913,1.38958 1.12913,1.38958 l 0.5209,3.5605 -1.30224,3.38688 h 4.42867 l 1.65003,0.17363 2.17092,1.56321 1.04232,2.60501 0.0868,3.03961 0.34727,2.25774 2.69234,2.60553 c 0,0 0.69453,2.08398 0.69453,2.51819 0,0.43421 -0.17363,2.77916 -0.17363,2.77916 l -2.60501,3.38687 -1.12913,2.08411 -0.69453,2.77916 -0.69505,1.73684 -4.86327,6.33915 -0.0868,1.56321 v 2.60553 l -0.60771,2.25774 -2.86598,2.9528 -2.77864,1.38906 -2.95279,0.52141 -1.21594,0.5209 0.26096,1.65003 0.78135,2.60501 -0.0868,2.17144 -1.30276,1.91048 -2.08411,2.25774 -1.99729,2.69235 -1.56322,1.56321 -3.12642,1.21543 -2.69183,0.26045 c 0,0 -1.12895,-0.17364 -1.73684,-0.17364 -0.6079,0 -2.08411,-0.34726 -2.08411,-0.34726 l -1.04232,1.91048 -0.17363,2.25774 -0.69453,1.65003 -1.56321,2.08462 -4.32584,2.36679 -3.56154,0.7369 -1.10535,-0.67541 -2.64067,-1.28933 -2.02623,-1.5353 -2.14923,-2.08773 -2.21071,1.41232 -1.35083,1.78077 c 0,0 -1.96518,2.27196 -2.27221,2.45618 -0.30703,0.18421 -3.00912,-0.42995 -3.00912,-0.42995 l -2.88613,-0.92088 -3.62303,-1.5353 -0.18397,1.84226 -0.42995,2.39469 -1.96473,1.84226 -3.37758,0.98289 -2.14922,-0.42995 -2.08773,-1.35082 -2.27221,-1.78129 -0.42995,-1.10484 -1.96474,0.55242 -1.22834,2.14922 -2.2717,2.64067 -3.1936,2.45618 -2.82464,0.67541 -1.96474,-0.36845 -1.84226,-0.61392 -2.02675,-3.19308 -1.41232,-2.33371 -2.70164,0.7984 h -1.96526 l -1.47329,-0.92139 -1.84227,-1.90324 -0.61443,-1.78077 -0.12247,-1.96526 1.04386,-2.33319 -0.7984,-1.35134 -0.92087,-0.42943 -0.98289,-0.0615 -3.07009,-0.7984 -1.6583,-1.22834 -0.79789,-1.35083 -0.36845,-2.08772 0.0615,-1.78077 0.55242,-1.71928 0.24546,-0.42995 -1.16634,-1.10536 -0.24598,-1.35082 -0.36845,-1.90376 0.30696,-1.41231 0.49144,-0.8599 1.71928,-1.41232 1.71927,-0.7369 0.73691,-0.36846 0.0615,-0.98237 -0.61391,-0.85937 -0.92139,-0.61444 -0.98237,-0.85938 -0.61392,0.24547 c 0,0 -0.12283,0.4298 -0.36845,1.04386 -0.24563,0.61407 -1.90376,1.78077 -1.90376,1.78077 l -16.57987,20.63285 -3.99097,6.26318 -3.43907,5.89525 -2.27221,4.72839 -3.0086,7.92148 -2.3952,6.81613 -1.65778,7.12308 -0.61392,2.70164 -0.7984,3.37757 -1.35082,9.3338 v 5.4653 l -0.0615,7.6755 0.40773,11.32696 1.1653,4.35787 0.8785,0.47594 6.14071,-2.70165 1.84227,2.82464 0.85989,3.31608 2.57866,2.21071 0.7369,2.82464 3.56154,-1.84227 1.22835,-1.10536 0.24547,-5.03535 1.10535,-3.43855 2.08773,-1.22835 3.56206,-0.85989 v -2.82464 l -2.70216,-2.45618 c 0,0 0.24564,-3.31575 0.36845,-3.807 0.12281,-0.49125 0.98237,-4.17597 0.98237,-4.17597 l 0.8599,-1.59629 0.7369,-4.6669 1.35082,-2.3337 2.94763,-1.59629 0.85989,-0.61443 0.12248,-2.57866 c 0,0 -0.24563,-0.49166 0,-1.71979 0.24563,-1.22813 1.10536,-3.56154 1.10536,-3.56154 0,0 0.85974,-1.71928 1.47381,-2.08772 0.61407,-0.36844 3.92999,-0.98237 3.92999,-0.98237 l 0.98237,-0.12299 1.5968,-5.89473 3.68453,-1.59681 2.82463,-1.10536 2.33319,-2.94762 3.56154,1.10536 c 0,0 0.86009,2.08774 1.35134,2.45618 0.49125,0.36844 3.19309,-0.36845 3.19309,-0.36845 l 0.98237,-3.19309 c 0,0 1.84229,-3.07011 2.57917,-3.43855 0.73688,-0.36844 3.43855,-0.24546 3.43855,-0.24546 l 2.94762,1.84175 1.22835,2.82515 2.94711,1.84174 1.5968,0.73691 0.73691,3.92999 c 0,0 1.6e-4,2.45638 -0.24547,2.94763 -0.24563,0.49126 -0.24598,2.45618 -0.24598,2.45618 l 4.17598,-0.61392 3.19308,1.35082 1.10536,2.70216 -0.12299,3.43855 1.10536,2.21072 2.21072,0.8599 1.35082,3.43855 -0.98237,2.57917 1.22783,2.57917 4.17598,-0.73691 2.70164,-2.94762 3.31608,-1.22835 1.84226,-0.49093 -0.36845,-2.3337 c 0,0 -0.24563,-2.21023 0,-2.94711 0.24563,-0.73688 1.96474,-3.43907 1.96474,-3.43907 l 3.1936,-1.10536 c 0,0 0.61375,-1.71946 0.85938,-2.21071 0.24563,-0.49126 1.84226,-2.45618 1.84226,-2.45618 l 2.21072,-0.98237 2.70165,0.61391 1.5968,-1.96473 1.47381,-3.56154 2.45618,-1.7198 2.08773,-0.36845 c 0,0 1.59666,1.10537 2.21072,1.47381 0.61407,0.36844 1.96525,0.61444 1.96525,0.61444 l 2.08773,-0.36846 2.82463,-0.49144 3.68453,0.24546 1.71928,1.71928 c 0,0 0.73656,1.59683 0.85938,2.33371 0.12282,0.73689 0.36862,2.08792 0.49144,2.57917 0.12282,0.49126 1.96525,1.59628 1.96525,1.59628 l 3.68402,-1.59628 3.31607,-0.49145 3.43907,1.22835 c 0,0 1.71927,1.35102 1.71927,1.84227 0,0.49126 -0.12299,2.33338 -0.12299,2.82463 0,0.49125 -0.24546,2.70164 -0.24546,2.70164 l 1.96474,1.71928 -0.24546,2.57917 v 2.70216 l 1.35082,1.10536 4.42143,-1.5968 4.78989,-1.96474 1.47381,2.57865 1.96474,4.29845 2.82464,2.21072 1.5968,3.92999 3.19308,-0.49093 3.19309,-0.49144 2.70164,1.84227 c 0,0 0.8599,1.71931 0.8599,2.82463 0,1.10532 2e-5,1.71964 0.36845,2.33371 0.36846,0.61407 1.35083,2.70164 1.35083,2.70164 l 1.22834,2.45618 5.5268,0.49144 3.56154,-0.12299 1.47329,2.82464 c 0,0 3.07083,0.61406 3.93051,0.36845 0.85971,-0.24564 3.56154,-0.98237 3.56154,-0.98237 0,0 0.24548,-1.47383 0.61392,-2.21072 0.36843,-0.73687 2.21039,-3.31555 2.70164,-3.31555 0.49126,0 3.07062,-0.36897 3.07062,-0.36897 l 4.17545,0.24598 1.47381,-3.31608 1.84227,-2.08773 3.31608,-0.24546 c 0,0 2.70183,0.73673 3.19308,0.98237 0.49126,0.24561 3.68453,1.10536 3.68453,1.10536 l 1.22783,-4.17598 3.43907,-2.45618 h 3.58531 l 0.90175,-141.00018 -0.55293,-1.22835 -1.04387,-1.35082 -0.18397,-1.16685 0.18397,-1.22835 -9.33379,-29.90463 -3.1316,-1.22835 -1.28932,-1.166862 0.061,-0.67541 1.78077,-2.210718 4.97437,-3.807003 12.2809,-8.842354 17.74672,12.710852 v 0.306958 l -0.30696,1.043864 -0.36845,0.798401 -1.5968,0.92139 -1.53479,0.859382 -1.28984,0.0615 -8.35143,28.12438 -0.42943,2.94762 0.92087,0.61392 0.12299,1.71927 -0.7369,0.8599 -1.94562,1.66656 -1.16582,141.76861 2.49287,-1.08365 2.21072,0.61391 c 0,0 1.35101,2.21074 1.84226,2.57917 0.49125,0.36846 3.43855,0.73691 3.43855,0.73691 l 1.84227,-0.24598 1.22783,2.4567 c 0,0 1.22835,2.33338 1.22835,2.82463 0,0.49125 0.36845,1.84227 0.36845,1.84227 l 3.68453,-0.73691 3.0701,-1.5968 2.08772,1.22835 2.4567,3.07009 2.2102,1.35082 1.10536,3.68453 c 0,0 -0.12264,2.2106 -0.24546,2.82464 -0.1228,0.61407 -0.12299,1.5968 -0.12299,1.5968 l 1.96525,1.47381 3.19309,0.12248 1.5968,-1.35083 1.10484,-5.52679 2.94763,-2.33319 3.31607,-2.21072 1.22835,-3.92999 3.19309,-0.61392 0.49093,-2.82463 0.49144,-3.43907 c 0,0 -0.49106,-0.85974 0.49144,-1.47381 0.98251,-0.61407 1.84177,-0.8594 2.57866,-1.22783 0.73687,-0.36846 2.94762,-0.73691 2.94762,-0.73691 l 1.71927,0.36845 1.7198,-2.45669 2.82463,-0.49093 2.08773,-0.61392 0.49144,-2.08824 0.36845,-3.68401 c 0,0 0.85977,-1.35135 1.84227,-1.71979 0.9825,-0.36844 3.07009,-1.22784 3.07009,-1.22784 l 2.57918,1.35083 c 0,0 1.47365,0.36845 2.08772,0 0.61404,-0.36844 1.35083,-0.36846 1.35083,-0.36846 0,0 2.70201,0.24549 2.94762,1.35082 0.24564,1.10529 0.36845,2.21072 0.36845,2.21072 0,0 2.45638,-0.8594 2.94763,-1.22783 0.49126,-0.36846 3.56154,-1.22835 3.56154,-1.22835 l 2.45618,0.49144 3.19308,1.84227 c 0,0 2.21056,0.4908 2.82464,1.10484 0.61404,0.61407 1.84226,2.21072 1.84226,2.21072 l 0.12299,2.57917 c 0,0 1.22817,2.70183 1.47381,3.19309 0.24561,0.49125 1.71928,4.54442 1.71928,4.54442 l 0.85989,0.12247 0.63666,0.0491 1.14876,-15.41302 1.56322,-25.35762 -0.69505,-11.81065 -2.77864,-10.24744 -5.73195,-10.24743 -10.42107,-10.76834 -9.89966,-8.85785 -7.81606,-5.21054 -2.95279,-1.91048 1.4764,3.25665 0.30385,4.21163 -1.43247,1.73685 -2.43189,1.34617 -2.99568,0.17363 -2.30167,-1.5198 -0.91157,-0.0434 -1.25936,0.56482 0.26045,1.30225 0.26045,1.9544 0.47801,1.34565 v 2.34508 l -0.52142,1.78025 -0.82475,1.30225 -0.99891,0.52142 -1.43299,0.5643 -1.38906,0.56431 -0.21756,1.43299 -0.99838,2.82256 -1.34618,1.25936 -0.30385,0.5643 -4.34237,2.90939 -1.78026,0.5643 -2.60501,-0.0868 -1.12913,-0.39068 -1.38906,-1.12913 -0.73845,-0.65112 -0.91158,-0.30386 c 0,0 -0.73831,-0.21752 -1.25935,-0.34778 -0.52105,-0.13026 -1.56321,-0.30386 -1.56321,-0.30386 0,0 -0.73838,-0.69444 -0.9555,-0.99839 -0.21709,-0.30395 -1.0418,-1.69343 -1.0418,-1.69343 0,0 -0.0434,-1.607 0,-2.08463 0.0434,-0.47763 0.0867,-1.91037 0.13023,-2.25774 0.0434,-0.34737 0.0434,-2.69183 0.0434,-2.69183 l -4.34238,3.29954 c 0,0 -2.69182,-1.12856 -2.69182,-1.30224 0,-0.17369 -0.65164,-2.21486 -0.65164,-2.21486 l -0.26045,-1.86707 -1.0852,-1.65002 -1.04232,-1.73685 c 0,0 -0.65112,-1.43241 -0.65112,-1.6061 0,-0.17368 0.0433,-1.08566 0.17363,-1.30277 0.13028,-0.2171 0.91152,-1.78017 1.12861,-2.0407 0.21711,-0.26052 1.25936,-1.43298 1.25936,-1.43298 l 0.43408,-0.86869 c 0,0 -0.0868,-0.30385 -0.34726,-0.30385 -0.26053,0 -1.34618,0.17363 -1.34618,0.17363 h -2.605 l -1.25936,0.17363 -0.86816,-0.95498 -1.08572,-2.21485 -0.0434,-3.56051 0.43408,-0.78134 -0.82476,-1.08573 -0.82527,-1.43247 -0.82476,-1.69343 0.0434,-1.38958 0.30386,-1.12913 2.38849,-2.60501 0.91157,-1.78025 -1.08572,-0.99891 -3.64733,-1.69344 -0.73794,-1.30276 c 0,0 -1.08572,-0.86804 -1.08572,-1.30225 0,-0.43421 -0.60771,-3.16983 -0.60771,-3.16983 l 0.69453,-1.95388 0.52141,-1.73685 0.60772,-1.04231 -0.78135,-2.34456 0.21704,-1.65003 0.65112,-1.91048 c 0,0 1.08568,-1.21589 1.30277,-1.38958 0.21712,-0.17368 1.38958,-0.95549 1.38958,-0.95549 0,0 0.0434,-0.95493 0.0434,-1.12862 0,-0.17368 -0.65163,-1.60662 -0.65163,-1.60662 l 0.30385,-1.30276 1.25936,-1.12913 2.60552,-2.73523 c 0,0 0.82472,-0.39067 0.99839,-0.34727 0.1737,0.0434 1.51981,0.73794 1.51981,0.73794 0,0 1.5197,0.78182 1.82366,0.91209 0.30395,0.13026 2.56211,-2.4753 2.56211,-2.4753 l -1.21594,-1.69344 c 0,0 -0.39068,-0.6944 -0.39068,-1.12861 v -0.99891 l -0.60823,-1.60662 c 0,0 -0.0868,-1.82358 0,-2.08411 0.0868,-0.26052 0.52142,-2.0407 0.52142,-2.0407 l 0.91157,-1.38958 1.99729,-2.34456 1.17254,-0.9555 -0.26045,-1.73684 0.34727,-1.86707 0.9555,-1.38958 0.91157,-1.4764 c 0,0 2.51864,-1.25937 2.73575,-1.34617 0.21709,-0.0868 1.6934,-0.43409 1.86707,-0.47749 0.1737,-0.0434 0.91157,-0.13022 0.91157,-0.13022 l 0.30386,-3.77755 -0.60772,-1.08572 -0.30385,-0.0868 1.30276,-3.0825 -0.60823,-0.78186 -1.21543,-0.34727 -0.91209,-0.47749 -0.91157,-0.69505 -1.04232,-1.86707 v -1.60662 l -0.0868,-2.040702 0.86816,-1.780253 0.82527,-1.215946 0.95498,-0.781348 c 0,0 0.30435,-0.216963 0.4346,-0.47749 0.13026,-0.260523 0.13023,-0.347783 0.13023,-0.347783 l 0.26045,-2.170927 -0.34727,-2.214335 0.47749,-3.083016 0.78135,-1.563212 0.69505,-1.389579 1.30276,-0.868164 1.34565,-0.564307 1.65003,-0.955497 0.56482,-0.520898 1.08521,-5.384168 2.43189,-1.867069 1.65003,-0.738457 1.12861,-0.347265 0.0434,-1.346171 -0.0434,-1.650029 -0.0868,-2.257743 c 0,0 0.52138,-1.389513 0.65164,-1.60662 0.13025,-0.217104 1.38906,-2.084111 1.38906,-2.084111 l 1.65003,-0.998905 1.08572,-0.26045 1.4764,-0.651123 c 0,0 0.17363,-1.172485 0.17363,-1.346171 0,-0.173683 0.13022,-1.215946 0.13022,-1.215946 l 1.38958,-1.258838 1.12862,-1.476396 v -0.651639 l -1.25884,-2.040703 0.13022,-1.172021 0.65113,-1.693437 1.60662,-2.345076 1.82366,-1.606621 0.95549,-0.868164 -1.65002,-3.430281 0.13022,-2.127519 0.56431,-1.693437 c 0,0 0.3906,-1.476332 0.5643,-1.693436 0.17367,-0.217106 1.30272,-1.215909 1.4764,-1.346172 0.17369,-0.130265 1.73684,-1.432987 1.73684,-1.432987 l 2.12752,-0.781348 1.51981,-1.563212 2.12752,-2.562117 2.60552,-1.041797 1.38958,0.08682 1.34617,0.434082 c 0,0 0.82472,0.303792 0.95498,0.520899 0.13028,0.217106 1.60662,0.825272 1.60662,0.825272 l 1.86707,-0.521415 1.17254,-2.908866 2.25774,-2.084111 1.95389,-0.738456 1.5198,-0.564307 2.12752,0.390674 1.4764,0.607715 2.51871,-2.82205 2.08411,-1.563212 1.56321,-0.130225 0.99839,0.347266 1.56321,1.389579 1.56321,1.997294 1.21595,0.520899 0.73794,-0.954981 0.39067,-1.823661 0.86868,-1.60662 1.91048,-1.432988 2.5616,-1.12913 h 2.34508 l 1.25884,0.65164 1.99781,1.60662 0.39067,0.520899 2.60501,-1.259355 c 0,0 0.52135,-0.173666 0.69505,-0.08682 0.17367,0.08684 1.69343,0.520898 1.69343,0.520898 l 2.25775,0.998906 c 0,0 0.78181,1.302686 0.9989,1.563212 0.21712,0.260527 0.82476,2.387968 0.82476,2.387968 l -0.17363,1.519804 v 1.563212 l 2.5616,1.736845 0.86868,1.780253 -0.56431,1.693436 -0.52141,2.605526 -0.39068,1.302246 1.86707,-0.08682 c 0,0 0.82513,-0.824666 1.30276,-1.128614 0.47762,-0.303948 1.78026,-1.259354 1.78026,-1.259354 l 2.51819,0.04341 c 0,0 1.04227,0.564254 1.25936,0.737939 0.21712,0.173684 0.82528,1.12908 0.91208,1.302763 0.0869,0.173684 0.30386,1.12913 0.30386,1.12913 l 1.0418,-0.478007 c 0,0 1.51974,-0.868123 1.78025,-0.998388 0.26053,-0.130263 1.08572,-0.477491 1.08572,-0.477491 l 1.78026,0.607715 c 0,0 1.17242,0.607637 1.56321,0.868164 0.39079,0.260525 1.78025,1.86707 1.78025,1.86707 l 0.60772,1.563212 0.65164,0.825273 0.21704,1.172538 -0.73846,2.344559 1.17254,0.911573 1.73684,0.825272 c 0,0 0.99883,0.477479 1.21595,0.520899 0.21709,0.04342 0.56432,0.868627 0.60772,1.042313 0.0434,0.173683 -0.0868,2.387968 -0.0868,2.387968 l -0.86817,1.953886 c 0,0 -0.21755,1.259305 -0.21755,1.432988 0,0.173685 0.30437,1.042313 0.30437,1.042313 0,0 1.60664,-0.08727 1.69344,-0.304374 0.0869,-0.217106 0.91157,-1.519728 0.91157,-1.780253 0,-0.260527 1.08572,-1.475879 1.08572,-1.475879 l 3.38688,-0.868681 c 0,0 1.69337,0.17361 1.86707,0.26045 0.17367,0.08684 1.56321,0.738456 1.56321,0.738456 l 1.43247,1.693437 c 0,0 0.43469,0.781257 0.39119,1.085205 -0.0434,0.303948 -0.0434,0.955497 -0.0434,0.955497 l 1.30225,0.390674 c 0,0 1.25922,0.30382 1.73684,0.434082 0.47763,0.130265 1.17254,0.738456 1.17254,0.738456 l 1.30276,1.650028 c 0,0 0.43408,1.25929 0.43408,1.476396 0,0.217104 -0.0868,1.649512 -0.0868,1.649512 l -0.17363,1.042313 c 0,0 0.26035,0.95546 0.52089,1.085722 0.26053,0.130265 1.17254,1.432471 1.17254,1.432471 0,0 0.39065,1.215872 0.5209,1.476396 0.13028,0.260528 0.60823,1.389579 0.60823,1.389579 l -0.30437,1.085722 -1.0418,3.343465 -0.43408,2.127519 -0.82527,1.650028 -1.25936,1.215947 -1.6061,0.998388 -1.78026,0.520899 -0.43459,0.825272 0.34726,0.911573 1.82418,0.86868 1.25884,2.084111 0.73845,2.431376 -0.39119,2.128036 -1.21543,3.082499 0.99839,1.910994 0.4346,2.257744 -0.30437,2.344559 3.38687,-0.173633 2.17144,0.520899 1.5627,0.912089 2.04122,5.340753 -0.17363,2.08411 -1.911,2.95279 c 0,0 -0.52091,0.86812 -0.56431,1.0418 -0.0434,0.17369 -0.17363,1.04231 -0.17363,1.04231 l 1.08572,2.43138 -0.0434,2.73575 -0.30438,1.5198 -0.91157,1.73685 -0.91209,1.34617 -1.82366,0.91157 -1.69344,1.43299 -0.39067,0.47749 -0.65113,3.25665 -0.52141,1.25935 -0.78135,1.30277 -2.25774,1.86707 -2.12752,0.47749 -1.34617,-0.13023 -1.25936,-0.47749 -1.12913,0.43408 -1.73684,0.17364 -1.65003,-0.0868 -0.99839,-0.43408 -1.38958,-0.60823 -1.78025,-0.78135 -1.91048,0.0434 -2.34456,-0.34727 -1.43299,-0.52141 c 0,0 -0.6516,-0.26034 -0.78186,-0.65113 -0.13028,-0.39079 -0.91157,-3.0396 -0.91157,-3.0396 l 0.17363,-2.25775 0.34727,-2.0407 0.17363,-1.65003 -0.5209,-0.82527 -2.43138,-0.78135 -3.86488,-0.65112 -1.73684,-0.56483 -11.69903,21.74441 -1.04386,3.25459 0.18397,1.71927 1.47381,1.84227 0.42995,2.82463 -0.61392,2.82515 -0.0615,1.28933 3.7455,1.84226 0.61444,1.96474 0.24546,2.45618 0.18397,1.35134 3.31607,-2.14922 1.59681,-0.0615 0.24546,0.36845 5.89525,-3.31607 -0.61444,-1.35082 0.12299,-2.14923 0.8599,-2.3337 1.22783,-0.92088 1.41232,-0.7984 0.7369,-2.45618 1.90376,-1.71928 c 0,0 0.73676,-0.55303 0.98237,-0.61443 0.24564,-0.0614 2.94763,-0.18397 2.94763,-0.18397 0,0 1.0437,0.67534 1.28932,0.98237 0.24564,0.30704 1.84227,1.35082 1.84227,1.35082 l 2.70216,2.57918 1.47381,-3.62304 1.10536,-1.71927 1.65778,-1.35083 2.45618,0.18397 1.04386,-0.12247 3.31608,-3.19309 3.31608,0.12248 0.78961,0.2682 0.9772,-0.45579 0.54261,-1.78025 1.19424,-0.86868 1.10743,-0.95498 1.5415,-0.5209 1.32395,-0.21704 1.41129,0.23874 1.12913,0.71624 1.38958,1.02061 1.41076,0.32556 1.91048,0.34726 c 0,0 1.281,0.36899 1.41128,0.43409 0.13026,0.0651 1.4764,1.15083 1.4764,1.15083 0,0 1.17254,2.01901 1.19424,2.10581 0.0217,0.0868 0.47749,1.12901 0.47749,1.56322 v 1.69343 c 0,0.17368 -0.19533,1.54151 -0.19533,1.54151 l 1.69343,1.58492 1.28106,1.0852 c 0,0 0.91148,1.67169 0.95498,1.84537 0.0434,0.17369 0.58654,1.8459 0.65164,1.9327 0.0651,0.0868 0.23875,1.17198 0.23875,1.32395 0,0.15198 -1.23765,2.9962 -1.23765,2.9962 l -1.02061,3.92947 1.5415,-0.69453 c 0,0 1.30268,-0.80353 1.38958,-0.91209 0.0868,-0.10853 1.51981,-0.13022 1.51981,-0.13022 l 1.88877,0.73845 1.5198,1.91048 0.65113,1.36788 -0.13023,3.99458 0.91209,0.78135 0.60772,0.34778 0.45578,0.58601 0.0217,0.75965 0.0868,0.69505 0.19534,0.84646 0.65164,0.89038 0.71624,1.25884 0.69504,1.73684 0.15193,1.30277 -0.62993,2.41019 -0.41238,1.47587 0.76016,2.01952 0.67283,2.34456 0.21704,2.5399 -0.78135,2.43189 -2.01952,2.75694 -1.78025,2.62723 c 0,0 -0.36898,1.04225 -0.43408,1.23765 -0.0651,0.19539 -0.93328,1.41076 -0.93328,1.41076 l -1.4981,1.60662 0.19534,1.78026 0.65112,3.30005 c 0,0 -0.13023,1.51978 -0.17363,1.62833 -0.0434,0.10856 -1.08572,1.71514 -1.08572,1.71514 l -1.36736,1.28106 -1.99729,1.15031 -0.73846,0.80357 -0.88987,2.06241 -0.41289,0.99891 -0.78135,0.80305 -1.30276,0.5209 -1.78026,0.32607 -0.97668,0.45579 -0.30386,0.34727 v 1.67173 l 0.19534,1.62832 c 0,0 -0.0438,1.10738 -0.0873,1.23765 -0.0434,0.13026 0.13075,0.73794 0.13075,0.73794 l -0.10904,1.06402 -0.5426,1.28054 -0.65113,1.17254 -1.10742,1.21595 -1.28106,0.65112 -2.12752,0.26045 -5.40587,-0.21704 -0.65112,1.54151 -1.36788,1.62832 -0.71624,0.39067 -0.76016,0.17364 -0.82475,-0.0651 -0.76016,-0.26044 -1.19373,-0.60772 -0.89038,-0.89038 -0.58601,-0.93328 -0.4129,-1.41128 -0.86816,-0.15193 -0.69453,-0.45579 -1.41129,-0.91209 -0.60823,-1.04179 -0.47749,-1.38958 -0.0868,-1.30277 0.23874,-2.19263 0.36897,-0.89038 0.71675,-1.21543 -1.12913,-2.71405 0.0651,-0.86816 0.91209,-2.49701 0.58601,-0.5426 -0.5643,-0.82527 -0.84698,-0.17364 -1.58491,1.17254 -10.65982,11.31094 -4.29845,4.77645 -3.69073,4.27726 -3.71243,4.45038 -7.36028,10.18232 -6.44766,10.16062 -1.58492,2.47478 -0.60823,1.34617 -1.30225,3.4954 -0.93379,3.62562 -1.56321,6.96908 -1.97559,8.92297 -0.1385,2.58589 3.8747,-0.12144 1.84227,2.08773 c 0,0 0.36828,1.7193 0.24546,2.82463 -0.12279,1.10532 -0.24546,1.96526 -0.24546,1.96526 l 1.84226,1.84226 1.59629,1.71928 0.36845,2.57917 1.5968,1.96473 1.22783,-0.73638 1.59681,-2.08825 1.47381,-0.98237 2.82463,0.8599 3.92999,1.71927 2.21072,-0.85989 3.80701,-0.24547 1.22834,-1.10536 c 0,0 0.12266,-2.08794 0.61392,-2.94762 0.49125,-0.85971 2.82463,-2.57917 2.82463,-2.57917 l 3.56154,-1.22783 2.4567,-0.36845 c 0,0 1.35085,-0.85958 1.71928,-1.35083 0.36846,-0.49125 1.47351,-1.71944 2.33319,-1.84226 0.85968,-0.12282 3.43906,-0.36845 3.43906,-0.36845 0,0 4.42132,0.49092 5.03536,0.49092 0.61407,0 3.92999,-0.24546 3.92999,-0.24546 l 4.91236,2.21072 2.70216,1.59628 3.0701,-0.36793 3.68453,1.84174 0.7369,-1.71927 -0.85989,-2.33319 c 0,0 -2.21072,-1.35139 -2.21072,-2.08825 v -1.47329 -2.70216 c 0,-0.49126 0.61443,-1.59629 0.61443,-1.59629 v -1.71979 l 1.10536,-1.96474 c 0,0 0.98222,-1.35084 1.59629,-1.71927 0.61407,-0.36846 2.82463,-0.98289 2.82463,-0.98289 l 1.22835,-0.49092 0.36845,-2.33371 2.33319,-2.82464 c 0,0 2.33356,-0.73707 2.94763,-0.85989 0.61407,-0.12282 1.96525,-0.12247 1.96525,-0.12247 l 0.36845,-2.21072 1.47382,-2.33371 3.807,-2.70164 c 0,0 2.82465,0.98256 3.56154,1.47381 0.73686,0.49125 3.56154,1.96474 3.56154,1.96474 l 1.35082,2.45669 1.71979,1.22784 1.35082,-1.59629 1.96474,-4.29896 c 0,0 1.47383,-1.22801 2.21072,-1.35082 0.73689,-0.12282 4.54442,-0.24547 4.54442,-0.24547 0,0 2.08757,1.35068 2.70165,1.96474 0.61407,0.61407 4.17545,1.71979 4.17545,1.71979 l 2.08825,1.47381 0.7369,2.82464 v 3.92999 l 0.49093,1.84227 1.84227,1.22783 c 0,0 0.24545,0.98237 0.61391,1.71927 0.36843,0.73686 2.94763,0.49145 2.94763,0.49145 l 1.22834,-2.70165 3.31556,-0.7369 c 0,0 1.35104,-0.73707 2.21072,-0.49145 0.85969,0.24563 2.57917,1.35082 2.57917,1.35082 l 1.5968,3.31608 2.45618,0.98237 c 0,0 0.85938,0.24565 1.22784,0.73691 0.36843,0.49125 1.47381,1.84226 1.47381,1.84226 l 3.31608,0.36845 2.70216,0.36846 0.7369,1.47381 1.71928,1.35082 0.7984,0.21601 0.0434,-11.6272 2.60552,-154.92646 -0.86868,-1.21543 -1.38906,-1.21595 -0.86868,-0.86816 1.38958,-2.43189 -11.98428,-39.600166 -6.94738,-2.778642 24.48946,-24.836726 23.27351,21.53667 -5.03638,3.126424 -14.41618,41.16286 0.52142,3.30005 -1.56321,1.56322 -0.69505,22.57898 -1.21543,133.56342 -0.0672,13.87461 3.47472,0.29766 3.68401,-1.10536 0.36846,-3.43855 0.36845,-4.6669 2.82463,-2.08773 1.96526,-2.33371 v -1.96474 l 0.61392,-2.70216 1.47381,-0.85937 1.10536,-2.08773 v -4.05299 l 0.61391,-2.08772 2.94763,-1.84227 0.7369,-0.24598 1.10536,-2.33319 1.22835,-2.57917 1.59628,-0.98237 3.80752,0.24546 2.08773,-0.36845 0.61392,-1.84226 -0.8599,-3.0701 0.49144,-3.43907 2.94763,-1.59628 c 0,0 2.08757,-4.05298 2.70164,-4.05298 0.61407,0 3.31608,-0.85938 3.31608,-0.85938 l 3.56154,-0.12299 1.22835,-4.29845 3.19308,-0.85989 3.43855,1.22834 c 0,0 0.49164,2.70183 0.98289,3.19309 0.49125,0.49125 4.17546,-0.49144 4.17546,-0.49144 l 4.42143,1.5968 1.71928,1.96474 0.12299,3.1936 c 0,0 -0.61444,2.08741 -0.61444,2.57866 0,0.49126 0.98289,1.84226 0.98289,1.84226 0,0 1.10536,0.85974 1.10536,1.47381 v 2.82464 2.57917 l 4.17545,-0.73691 2.70165,0.61392 1.84226,3.1936 0.12299,1.35082 -0.36845,3.68453 1.71927,1.71928 c 0,0 0.61392,1.35101 0.61392,2.21071 0,0.85969 -0.12247,2.21021 -0.12247,2.21021 l -0.49145,1.96525 2.45618,1.5968 c 0,0 0.49127,0.98224 0.73691,1.96474 0.24561,0.98251 0.49144,2.94762 0.49144,2.94762 v 1.22784 l 1.96474,0.85989 c 0,0 1.35133,1.22819 1.71979,1.84227 0.36843,0.61407 1.35083,3.07009 1.35083,3.07009 l 0.85937,3.07062 3.93051,-0.12299 2.94711,1.35082 1.71979,0.85989 0.73639,-3.43855 c 0,0 5e-5,-1.7198 1.84227,-2.45669 1.84219,-0.73687 2.57917,-0.98237 2.57917,-0.98237 l -0.36846,-6.38618 c 0,0 0.49115,-1.59664 2.08773,-2.21071 1.59657,-0.61407 6.87762,-3.19309 6.87762,-3.19309 l 3.43906,-0.98237 h 2.45619 c 0,0 3.07029,-3.43873 3.56154,-3.56154 0.49125,-0.12282 2.3334,-1.10536 3.19308,-1.10536 0.85971,0 3.31608,2.21072 3.31608,2.21072 0,0 1.96476,4.29828 2.33319,4.91236 0.36846,0.61407 0.73711,2.45617 1.5968,2.08773 0.85971,-0.36843 1.47381,-1.96492 1.47381,-2.45618 0,-0.49125 0.24547,-3.92999 0.24547,-3.92999 l 2.94762,-2.45618 4.6669,-0.73691 2.57917,-2.08773 2.57917,-5.4038 2.82463,-0.36846 c 0,0 0.61398,-2.21108 1.71928,-2.82515 1.10532,-0.61406 2.70164,-1.35082 2.70164,-1.35082 l 0.8599,-0.24546 z M 0.12298991,0.0304891 0.0738973,164.51037 l 0.17621663,0.0744 V 0.0304891 Z M 0.25011393,164.58479 v 0.0357 l -0.17621663,-0.0796 -0.0304891,102.15139 2.3879679,0.21704 1.6500285,0.73794 1.4763957,1.91048 0.9989054,1.38958 1.4763957,0.0434 c 0,0 2.3878276,-0.73787 2.8654586,-0.91157 0.477632,-0.17368 3.169832,-0.65164 3.169832,-0.65164 l 1.953886,0.9555 2.822567,2.64842 -0.26045,4.03851 0.781348,0.99839 3.723287,-1.24695 1.596285,-1.59681 4.052983,-1.47381 4.175455,0.24547 1.105359,1.10535 1.842265,0.61444 h 2.579171 l 3.070097,1.10536 1.842264,1.84174 v 3.93 l 0.12299,2.3337 1.228349,0.61392 2.701644,2.94762 v 3.93 l -0.613916,2.57917 2.947624,-0.24547 3.31556,-3.68453 2.70216,-0.7369 c 0,0 2.087741,-0.36844 2.456181,0.36845 0.36844,0.73687 2.579171,2.33319 2.579171,2.33319 l 2.947623,-0.49092 3.684013,0.24546 2.824634,2.45618 2.825151,-2.94762 c 0,0 2.087399,-0.24547 2.578654,-0.24547 h 2.333707 c 0,0 1.473975,0.85964 1.228349,-1.10536 -0.245629,-1.96501 -0.368453,-3.31555 -0.368453,-3.31555 l 1.104842,-2.82516 2.825151,-0.49092 0.982369,-2.70216 c 0,0 0.982397,-0.73675 1.719275,-1.35082 0.73688,-0.61407 2.57917,-1.10536 2.57917,-1.10536 l 2.456181,0.36845 1.965255,-2.21072 0.490926,-2.94762 2.947624,-1.47381 3.193086,-0.73639 1.228351,1.59628 1.84226,1.5968 h 3.31556 l 2.82515,-2.21071 2.82464,1.10536 1.59628,1.71927 -0.24546,2.94762 1.35082,2.21072 2.08773,-1.10536 h 1.96525 l 3.37603,2.55747 -0.4899,-6.09834 -6.94738,-46.89481 -7.98969,-28.83183 -10.073287,-12.50518 -19.45256,-14.93707 -13.894759,-10.42107 -5.634798,-5.10615 -3.744474,5.10615 -1.736845,5.90558 -2.674772,1.41904 -4.052466,-0.85938 -2.456698,-1.47382 -2.947107,-1.5968 -1.351338,2.82464 c 0,0 -0.982041,2.57918 -1.473295,2.94762 -0.491252,0.36844 -2.210718,1.10536 -2.210718,1.10536 h -2.210718 c 0,0 -1.965092,0.73693 -2.210718,1.47381 -0.245629,0.73688 -1.473811,1.71928 -1.473811,1.71928 l -2.456181,0.12299 -2.210718,-0.36846 -1.350822,-1.22835 -1.105359,-2.33319 -1.350822,-1.96525 -1.596802,0.36845 -2.824633,0.49144 -2.579171,-1.71927 -0.736906,-2.08825 v -2.57865 l -0.613916,-1.35134 -0.736906,0.12299 -3.6845296,2.33371 -3.4385498,-0.24598 -2.2107178,-0.85938 z M 498.24607,106.17595 l -0.0868,1.12913 c 0,0 -0.1302,1.82357 -0.26045,2.12752 -0.13028,0.30395 -1.17246,3.03956 -1.25936,3.21324 -0.0868,0.17369 -1.47639,1.73684 -1.47639,1.73684 l -1.65003,0.21704 -1.5627,-0.34726 h -0.52141 l -1.73685,1.95388 -2.08411,2.04071 -0.21704,1.65002 0.17363,2.43138 0.4775,2.82257 1.5198,8.42377 0.34726,0.43408 2.51871,-2.77915 c 0,0 1.60664,-2.47471 1.69344,-2.73524 0.0868,-0.26052 2.86546,-3.95118 2.86546,-3.95118 0,0 0.6516,-1.38947 0.78186,-1.73684 0.13028,-0.34737 1.21595,-2.95279 1.21595,-2.95279 l 0.69453,-3.86437 0.43408,-3.34346 0.13023,-4.08192 0.0434,-1.69344 -0.13023,-0.65112 z m -20.12952,13.98622 -0.7984,1.28933 -1.35082,1.47381 -1.16685,1.22784 -0.12248,0.61443 0.30696,1.04386 -0.36845,1.59629 -1.10536,3.07061 -0.18449,1.65778 1.7198,-1.04386 2.02623,-1.10536 1.47381,-1.16686 -0.24546,-5.4038 0.18397,-2.08773 z m -387.898284,5.90042 -1.823662,1.99729 -2.952274,4.42919 -1.650029,1.56321 -3.039607,1.73685 -1.12913,-0.0868 -1.736845,-1.12913 -0.694532,0.78187 -0.694531,0.95498 c 0,0 -0.260966,0.86855 -0.260966,1.30276 0,0.43422 -0.08682,1.30276 -0.08682,1.30276 l 0.695048,1.91048 0.260449,2.17093 -0.173633,1.91047 -0.434082,1.30277 -0.955497,1.99729 c 0,0 -0.694954,1.3896 -1.042314,1.4764 -0.34737,0.0868 -2.605009,1.21594 -2.605009,1.21594 0,0 -2.171282,0.17364 -2.692342,0.17364 -0.52105,0 -3.473689,-0.17364 -3.473689,-0.17364 l -1.128614,-0.86868 -1.389579,-1.21594 -0.95498,0.60823 -1.129131,1.04179 7.90236,6.33967 9.726539,6.77375 8.510591,4.86326 8.857857,6.25234 8.510596,8.42377 5.73143,4.60282 0.5209,0.0868 -0.95498,-11.0293 -0.5209,-0.78135 0.0863,-5.90507 -1.04179,-6.94738 0.0868,-5.0369 -2.69234,-1.73684 -3.12591,-2.60553 -1.30276,-0.5209 -1.38958,-2.17092 -0.694535,-3.21324 0.520898,-4.08193 -1.042313,-1.30224 -1.997294,-1.9973 0.173633,-1.73684 1.389579,-3.21324 -0.08682,-2.17093 -0.694531,-0.60823 1.21543,-2.86546 2.084103,-3.03961 -4.602296,1.65003 -2.257743,-0.4346 -2.084627,-1.21543 z m 51.021694,37.14554 -2.4567,0.49092 -2.70164,3.92999 c 0,0 -2.21058,1.59682 -2.82464,1.96526 -0.61407,0.36843 -4.29844,0.61392 -4.29844,0.61392 l -2.57917,-1.10536 -2.33371,-2.33319 9.70225,72.0912 3.80752,-8.35143 c 0,0 5.77228,-11.4212 6.50916,-11.91245 0.73687,-0.49126 10.68462,-14.49214 10.68462,-14.49214 l 4.6669,-6.38617 4.6669,-15.72049 0.12299,-7.73699 -5.28133,-0.36846 -2.82464,3.0701 -3.56154,1.47381 -3.31607,-1.10536 -2.33319,-2.70164 -0.36846,-4.42143 -1.84226,-1.10536 -2.21072,-2.21072 z m 307.0288,4.53874 -1.12913,0.478 c 0,0 -0.4775,1.04174 -0.5209,1.21543 -0.0434,0.17368 -0.95549,1.9973 -0.95549,1.9973 l -1.60662,2.38848 -1.30277,0.86817 -1.47588,0.82527 -0.86868,0.60771 -0.30385,0.60772 1.73684,0.69505 8.46718,4.0814 0.17364,-1.0418 c 0,0 -0.0868,-2.04115 -0.13023,-2.25826 -0.0434,-0.2171 -0.0434,-2.73523 -0.0434,-2.73523 l -0.478,-3.21324 0.0868,-2.12752 -0.78134,-1.95388 z m 11.1156,3.0396 -0.86816,0.69505 -1.911,0.95498 -0.95498,0.73794 -0.9989,0.26097 -0.91157,0.21704 3.03909,7.85895 2.77916,4.81986 3.95118,3.69073 7.64242,7.16442 6.16552,5.16713 0.78186,-0.21704 1.73685,-5.42758 0.0868,-2.30115 -0.34726,-14.67662 -0.17415,-0.17363 -0.69453,0.43408 -2.25775,2.12803 -1.04231,0.65113 -1.12861,0.43408 -1.86759,-0.78135 -3.69073,-1.91048 -0.39067,0.21704 -0.95498,-0.0868 -2.90939,-2.21485 -0.78186,-1.30225 -1.17202,-2.0407 -1.08572,-1.60662 -0.86817,-1.51981 z m 29.96045,9.55291 0.17363,0.69453 0.78187,6.94738 0.52089,14.41566 0.34727,14.76344 0.86868,15.54427 0.43408,4.95008 1.65003,2.69235 4.25504,-2.86598 5.12372,-5.38417 4.16873,-6.25233 2.77865,-5.9924 2.69234,-10.0738 0.60771,-8.51059 -0.60771,-1.5627 -0.60823,-0.34778 h -2.69183 l -1.12913,-1.47588 -0.5209,-0.9555 -1.04231,-0.52089 -1.21543,-0.86868 -1.12913,-1.38958 0.43408,-2.95228 c 0,0 0.69507,-1.30266 0.78187,-1.65003 0.0868,-0.34736 0.60771,-1.82366 0.60771,-1.82366 l -0.34727,-0.0868 -1.47639,1.30224 -1.04231,1.38958 -1.82367,0.9555 -3.90777,-1.4764 -0.78135,-2.17092 -0.26096,-2.25827 0.0868,-1.91047 -2.60501,-2.43138 z" /></g><g
	id="zona-vegetacion"
	fill="transparent"
     	stroke="transparent"
     	role="button"
     	tabindex="0"
     	aria-label="Arbustos gigantes con una gran área de pasto alrededor"
     	data-zona="Arbustos y pasto"><path
       d="m -0.97358398,218.12519 v 359.5796 H 794.83882 v -359.5796 h -1.02784 l -0.0145,29.2008 -0.8599,0.24546 c 0,0 -1.59632,0.73676 -2.70164,1.35082 -1.1053,0.61407 -1.71928,2.82515 -1.71928,2.82515 l -2.82463,0.36846 -2.57917,5.4038 -2.57917,2.08773 -4.6669,0.73691 -2.94762,2.45618 c 0,0 -0.24547,3.43874 -0.24547,3.92999 0,0.49126 -0.6141,2.08775 -1.47381,2.45618 -0.85969,0.36844 -1.22834,-1.47366 -1.5968,-2.08773 -0.36843,-0.61408 -2.33319,-4.91236 -2.33319,-4.91236 0,0 -2.45637,-2.21072 -3.31608,-2.21072 -0.85968,0 -2.70183,0.98254 -3.19308,1.10536 -0.49125,0.12281 -3.56154,3.56154 -3.56154,3.56154 h -2.45618 l -3.43907,0.98237 c 0,0 -5.28105,2.57902 -6.87762,3.19309 -1.59658,0.61407 -2.08773,2.21071 -2.08773,2.21071 l 0.36846,6.38618 c 0,0 -0.73698,0.2455 -2.57917,0.98237 -1.84222,0.73689 -1.84227,2.45669 -1.84227,2.45669 l -0.73639,3.43855 -1.71979,-0.85989 -2.94711,-1.35082 -3.93051,0.12299 -0.85937,-3.07062 c 0,0 -0.9824,-2.45602 -1.35083,-3.07009 -0.36846,-0.61408 -1.71979,-1.84227 -1.71979,-1.84227 l -1.96474,-0.85989 v -1.22784 c 0,0 -0.24583,-1.96511 -0.49144,-2.94762 -0.24564,-0.9825 -0.7369,-1.96474 -0.7369,-1.96474 l -2.45619,-1.5968 0.49145,-1.96525 c 0,0 0.12247,-1.35052 0.12247,-2.21021 0,-0.8597 -0.61392,-2.21071 -0.61392,-2.21071 l -1.71927,-1.71928 0.36845,-3.68453 -0.12299,-1.35082 -1.84226,-3.1936 -2.70165,-0.61392 -4.17545,0.73691 v -2.57917 -2.82464 c 0,-0.61407 -1.10536,-1.47381 -1.10536,-1.47381 0,0 -0.98289,-1.351 -0.98289,-1.84226 0,-0.49125 0.61444,-2.57866 0.61444,-2.57866 l -0.12299,-3.1936 -1.71928,-1.96474 -4.42143,-1.5968 c 0,0 -3.68421,0.98269 -4.17546,0.49144 -0.49125,-0.49126 -0.98289,-3.19309 -0.98289,-3.19309 l -3.43855,-1.22834 -3.19308,0.85989 -1.22835,4.29845 -3.56154,0.12299 c 0,0 -2.70201,0.85938 -3.31608,0.85938 -0.61407,0 -2.70164,4.05298 -2.70164,4.05298 l -2.94763,1.59628 -0.49144,3.43907 0.8599,3.0701 -0.61392,1.84226 -2.08773,0.36845 -3.80752,-0.24546 -1.59628,0.98237 -1.22835,2.57917 -1.10536,2.33319 -0.7369,0.24598 -2.94763,1.84227 -0.61391,2.08772 v 4.05299 l -1.10536,2.08773 -1.47381,0.85937 -0.61392,2.70217 v 1.96473 l -1.96526,2.33371 -2.82463,2.08773 -0.36845,4.6669 -0.36845,3.43855 -3.68402,1.10536 -3.32744,-0.28526 c -0.12961,0.11852 -0.26261,0.22748 -0.39791,0.32608 l -0.30903,63.77389 6.49831,-0.6687 20.32538,-2.02623 15.41301,-2.39469 -1.16685,2.82464 -1.4733,3.56154 -2.88613,1.04386 -3.1321,0.73691 -6.32468,0.67541 -14.61462,2.14922 -12.5274,2.02675 v -0.83767 c -0.0474,-0.047 -0.096,-0.0968 -0.14521,-0.14883 l -0.28473,58.73956 3.1259,8.68423 3.12643,11.28923 0.5209,29.00547 -0.48525,6.99957 c 0.56373,0.28615 1.10507,0.61252 1.61541,0.99632 l 42.6961,4.03231 29.22923,1.96526 30.70355,1.96474 24.56284,0.98236 14.0007,-0.7369 -0.0414,99.06165 L 5.1676432e-4,576.7927 -0.12247314,542.83457 0.24597982,542.09766 H 9.579777 l 28.738298,-3.43855 19.65048,-3.43907 18.290356,-2.57917 0.921908,-50.12769 -0.249597,-0.0227 0.06511,-1.88878 0.195337,-1.88929 0.282153,-1.88877 0.325562,-1.45418 0.47749,-1.17253 1.064018,-1.56322 2.539896,-2.71404 2.475301,-2.49649 2.691826,-1.95389 4.23385,-2.12752 3.386873,-1.02061 4.168221,-0.41237 5.319059,0.13022 3.49539,0.43408 3.84266,1.51981 3.27835,1.56321 2.69234,1.60662 2.08412,1.95389 1.5415,1.82366 2.51406,4.69583 1.22783,3.56154 0.12299,41.26519 0.0341,5.6441 c 0.67896,-0.22495 1.36347,-0.4351 2.05414,-0.62994 0.44078,-0.12435 0.87327,-0.23341 1.29708,-0.32763 h 5.1e-4 l 6.75411,-2.70164 8.59689,-0.98237 8.84236,-1.22835 h 3.68453 l 0.21911,0.41083 -0.0682,-0.75034 2.4319,-4.51601 2.25722,-8.16281 1.04232,-4.86327 -0.17364,-6.94738 -0.69504,-4.516 -0.69454,-3.64732 -1.38957,-3.82096 -0.69454,-5.21053 -1.04179,-4.68912 -0.86868,-6.07922 -0.5209,-5.21053 0.34726,-8.33696 0.86817,-6.5996 1.38958,-7.29516 1.73684,-5.73143 2.43138,-1.04232 142.63315,-22.92986 3.68505,0.24598 2.45618,2.64015 0.92087,2.57917 0.61444,3.80752 -0.24598,5.4038 -0.30696,2.76314 v 5.83375 l 0.92139,6.01772 2.57865,7.61452 3.25458,3.8685 3.56154,1.59629 3.56154,0.98288 6.07974,0.73691 3.74499,0.49092 5.78311,2.14354 4.10001,3.96359 0.19585,-1.17461 9.3338,-3.68401 7.61452,-6.38669 2.70164,-5.40381 0.98289,-4.17545 -1.96526,-5.40381 -4.91236,-5.64927 -6.63215,-4.91287 -15.47451,-8.10545 -29.72067,-12.52689 -17.68522,-6.87761 -33.15922,-11.29905 -27.51046,-7.85999 -20.63234,-6.87762 -33.40519,-10.07018 -17.93121,-5.15834 -7.91476,-2.35335 0.35398,2.35025 3.90778,24.31582 1.99781,9.29194 2.86546,7.68584 2.0407,3.64732 2.64945,4.9935 -1.12913,0.69453 -5.21105,0.43408 h -11.2019 -8.25066 l -12.15792,-0.69453 -6.25233,-0.69505 -3.90829,-1.0418 5.5578,-5.5578 3.12643,-7.98969 2.77916,-12.50518 -2.4319,-11.81065 -0.41341,-20.26181 -7.62899,-2.204 -14.06839,-3.30006 -7.989695,-2.08411 v -2.25826 l -0.08682,-3.29954 22.492172,2.60501 7.08742,1.02474 -0.43408,-21.285 -2.68511,-33.41243 -3.07733,-2.33113 h -1.96526 l -2.08773,1.10536 -1.35082,-2.21072 0.24547,-2.94762 -1.59577,-1.71927 -2.82515,-1.10536 -2.82515,2.21071 h -3.31556 l -1.84227,-1.5968 -1.228347,-1.59628 -3.19257,0.73639 -2.947624,1.47381 -0.490926,2.94762 -1.965771,2.21072 -2.456181,-0.36845 c 0,0 -1.841774,0.49129 -2.578654,1.10536 -0.736878,0.61407 -1.719275,1.35082 -1.719275,1.35082 l -0.982369,2.70216 -2.825667,0.49092 -1.104326,2.82516 c 0,0 0.122824,1.35055 0.368453,3.31556 0.245626,1.965 -1.228865,1.10535 -1.228865,1.10535 h -2.333191 c -0.491255,0 -2.578654,0.24547 -2.578654,0.24547 l -2.825151,2.94762 -2.82515,-2.45618 -3.684013,-0.24546 -2.947107,0.49092 c 0,0 -2.210731,-1.59632 -2.579171,-2.33319 -0.36844,-0.73689 -2.456697,-0.36845 -2.456697,-0.36845 l -2.701644,0.73691 -3.31556,3.68452 -2.947624,0.24547 0.613916,-2.57917 v -3.93 l -2.701644,-2.94762 -1.228865,-0.61392 -0.12299,-2.3337 v -3.93 l -1.841748,-1.84174 -3.070097,-1.10536 h -2.579171 l -1.842781,-0.61444 -1.105359,-1.10535 -4.174939,-0.24547 -4.052983,1.47381 -1.596285,1.59681 -3.723287,1.24695 -0.781864,-0.99839 0.260966,-4.03851 -2.822567,-2.64842 -1.953886,-0.9555 c 0,0 -2.6922,0.47796 -3.169832,0.65164 -0.477631,0.1737 -2.8659751,0.91157 -2.8659751,0.91157 l -1.4758789,-0.0434 -0.9989055,-1.38958 -1.4763956,-1.91048 -1.6500285,-0.73794 -2.38796794,-0.21704 0.0144694,-47.93299 z m 209.88176398,0 -0.28887,0.50539 0.0992,-0.11524 0.22272,-0.39015 z m -5.93556,19.60604 c -0.76752,0.0153 -1.6273,0.0767 -1.99574,0.26096 -0.73688,0.36844 -2.57917,3.43855 -2.57917,3.43855 l -0.98237,3.19309 c 0,0 -2.70184,0.73689 -3.19309,0.36845 -0.49125,-0.36844 -1.35134,-2.45618 -1.35134,-2.45618 l -3.56154,-1.10536 -2.33319,2.94763 -2.82463,1.10535 -3.68453,1.59681 -1.5968,5.89473 -0.98237,0.12299 c 0,0 -3.31592,0.61393 -3.92999,0.98237 -0.61407,0.36844 -1.47381,2.08772 -1.47381,2.08772 0,0 -0.85973,2.33341 -1.10536,3.56154 -0.24563,1.22813 0,1.71979 0,1.71979 l -0.12248,2.57866 -0.85989,0.61443 -2.94763,1.59629 -1.35082,2.3337 -0.7369,4.6669 -0.8599,1.59629 c 0,0 -0.85956,3.68472 -0.98237,4.17597 -0.12281,0.49125 -0.36845,3.807 -0.36845,3.807 l 2.70216,2.45618 v 2.82464 l -3.56206,0.85989 -2.08773,1.22835 -1.10535,3.43855 -0.24547,5.03535 -1.22835,1.10536 -3.56154,1.84227 -0.7369,-2.82464 -2.57866,-2.21071 -0.85989,-3.31608 -1.84227,-2.82463 -6.14071,2.70164 -0.61701,-0.33435 c -0.15793,0.14369 -0.32352,0.28286 -0.48886,0.41031 l 1.19941,10.79728 2.30167,12.72222 2.17092,9.68261 0.30438,5.25394 1.11001,7.21558 18.40559,4.01216 25.05377,3.43855 20.38739,4.17597 28.73829,6.38618 30.21211,7.12308 23.3345,5.4038 20.63233,4.42144 31.68592,8.59689 19.4045,6.38617 1.13843,1.62678 -0.3483,-7.66465 0.18449,-6.57066 0.55242,-5.95623 1.16685,-9.57977 1.04387,-7.00009 v -2.08773 l -0.36846,-0.42995 0.0615,-1.28933 0.67541,-1.16685 1.16685,-1.41232 0.45165,-70.61791 h -3.33726 l -3.43907,2.45618 -1.22783,4.17598 c 0,0 -3.19327,-0.85975 -3.68453,-1.10536 -0.49125,-0.24564 -3.19308,-0.98237 -3.19308,-0.98237 l -3.31608,0.24546 -1.84227,2.08773 -1.47381,3.31608 -4.17545,-0.24598 c 0,0 -2.57936,0.36897 -3.07062,0.36897 -0.49125,0 -2.33321,2.57869 -2.70164,3.31556 -0.36844,0.73689 -0.61392,2.21071 -0.61392,2.21071 0,0 -2.70183,0.73673 -3.56154,0.98237 -0.85968,0.24561 -3.93051,-0.36845 -3.93051,-0.36845 l -1.47329,-2.82463 -3.56154,0.12299 -5.5268,-0.49145 -1.22834,-2.45618 c 0,0 -0.98237,-2.08757 -1.35083,-2.70164 -0.36843,-0.61407 -0.36845,-1.22839 -0.36845,-2.33371 0,-1.10532 -0.8599,-2.82463 -0.8599,-2.82463 l -2.70164,-1.84227 -3.19309,0.49144 -3.19308,0.49093 -1.5968,-3.92999 -2.82464,-2.21072 -1.96474,-4.29845 -1.47381,-2.57865 -4.78989,1.96474 -4.42143,1.5968 -1.35082,-1.10536 v -2.70216 l 0.24546,-2.57917 -1.96474,-1.71928 c 0,0 0.24546,-2.21039 0.24546,-2.70164 0,-0.49125 0.12299,-2.33337 0.12299,-2.82463 0,-0.49125 -1.71927,-1.84227 -1.71927,-1.84227 l -3.43907,-1.22835 -3.31607,0.49145 -3.68402,1.59628 c 0,0 -1.84243,-1.10502 -1.96525,-1.59628 -0.12282,-0.49125 -0.36862,-1.84228 -0.49144,-2.57917 -0.12282,-0.73688 -0.85938,-2.33371 -0.85938,-2.33371 l -1.71928,-1.71928 -3.68453,-0.24546 -2.82463,0.49144 -2.08773,0.36846 c 0,0 -1.35118,-0.246 -1.96525,-0.61444 -0.61406,-0.36844 -2.21072,-1.47381 -2.21072,-1.47381 l -2.08773,0.36845 -2.45618,1.7198 -1.47381,3.56154 -1.5968,1.96473 -2.70165,-0.61391 -2.21072,0.98237 c 0,0 -1.59663,1.96492 -1.84226,2.45618 -0.24563,0.49125 -0.85938,2.21071 -0.85938,2.21071 l -3.1936,1.10536 c 0,0 -1.71911,2.70219 -1.96474,3.43907 -0.24563,0.73688 0,2.94711 0,2.94711 l 0.36845,2.33371 -1.84226,0.49092 -3.31608,1.22835 -2.70164,2.94762 -4.17598,0.73691 -1.22783,-2.57917 0.98237,-2.57917 -1.35082,-3.43855 -2.21072,-0.8599 -1.10536,-2.21072 0.12299,-3.43855 -1.10536,-2.70216 -3.19308,-1.35082 -4.17598,0.61392 c 0,0 3.5e-4,-1.96492 0.24598,-2.45618 0.24563,-0.49125 0.24547,-2.94763 0.24547,-2.94763 l -0.73691,-3.92999 -1.5968,-0.7369 -2.94711,-1.84175 -1.22835,-2.82515 -2.94762,-1.84175 c 0,0 -0.67528,-0.0308 -1.44281,-0.0155 z m 394.44569,18.5601 c 0,0 -3.80753,0.12265 -4.54442,0.24547 -0.73689,0.12281 -2.21072,1.35082 -2.21072,1.35082 l -1.96474,4.29896 -1.35082,1.59629 -1.71979,-1.22784 -1.35082,-2.45669 c 0,0 -2.82468,-1.47349 -3.56154,-1.96474 -0.73689,-0.49125 -3.56154,-1.47381 -3.56154,-1.47381 l -3.807,2.70164 -1.47382,2.33371 -0.36845,2.21072 c 0,0 -1.35118,-3.5e-4 -1.96525,0.12247 -0.61407,0.12282 -2.94763,0.85989 -2.94763,0.85989 l -2.33319,2.82464 -0.36845,2.33371 -1.22835,0.49092 c 0,0 -2.21056,0.61443 -2.82463,0.98289 -0.61407,0.36843 -1.59629,1.71927 -1.59629,1.71927 l -1.10536,1.96474 v 1.71979 c 0,0 -0.61443,1.10503 -0.61443,1.59629 v 2.70216 1.47329 c 0,0.73686 2.21072,2.08825 2.21072,2.08825 l 0.85989,2.33319 -0.7369,1.71927 -3.68453,-1.84174 -3.0701,0.36793 -2.70216,-1.59628 -4.91236,-2.21072 c 0,0 -3.31592,0.24546 -3.92999,0.24546 -0.61404,0 -5.03536,-0.49092 -5.03536,-0.49092 0,0 -2.57938,0.24563 -3.43906,0.36845 -0.85968,0.12282 -1.96473,1.35101 -2.33319,1.84226 -0.36843,0.49125 -1.71928,1.35083 -1.71928,1.35083 l -2.4567,0.36845 -3.56154,1.22783 c 0,0 -2.33338,1.71946 -2.82463,2.57917 -0.49126,0.85968 -0.61392,2.94762 -0.61392,2.94762 l -1.22834,1.10536 -3.80701,0.24547 -2.21071,0.85989 -3.93,-1.71927 -2.82463,-0.8599 -1.47381,0.98237 -1.5968,2.08825 -1.22784,0.73638 -1.5968,-1.96473 -0.36845,-2.57917 -1.59629,-1.71928 -1.84226,-1.84226 c 0,0 0.12267,-0.85994 0.24546,-1.96526 0.12282,-1.10533 -0.24546,-2.82463 -0.24546,-2.82463 l -1.84227,-2.08773 -3.8747,0.12144 0.0243,-0.45372 c -0.0765,-0.0185 -0.15214,-0.0394 -0.22686,-0.063 l -1.44952,27.04589 0.36845,15.35152 0.24547,11.05359 0.61391,5.4038 0.76791,5.82445 -3.1259,2.25774 -6.25285,1.91048 -10.94197,2.25826 h -7.12101 l 3.99459,-7.46879 2.25774,-6.94738 c 0,0 2.25815,-9.89982 2.60552,-11.1156 0.34737,-1.21579 2.95228,-13.20023 2.95228,-13.20023 l 1.91048,-20.84162 0.96531,-12.94702 -0.41548,-0.032 -0.85989,-0.12247 c 0,0 -1.47367,-4.05317 -1.71928,-4.54442 -0.24564,-0.49126 -1.47381,-3.19309 -1.47381,-3.19309 l -0.12299,-2.57917 c 0,0 -1.22822,-1.59665 -1.84226,-2.21072 -0.61408,-0.61404 -2.82464,-1.10484 -2.82464,-1.10484 l -3.19308,-1.84227 -2.45618,-0.49144 c 0,0 -3.07028,0.85989 -3.56154,1.22835 -0.49125,0.36843 -2.94763,1.22783 -2.94763,1.22783 0,0 -0.12281,-1.10543 -0.36845,-2.21072 -0.24561,-1.10533 -2.94762,-1.35082 -2.94762,-1.35082 0,0 -0.73679,2e-5 -1.35083,0.36846 -0.61407,0.36845 -2.08772,0 -2.08772,0 l -2.57918,-1.35083 c 0,0 -2.08759,0.8594 -3.07009,1.22784 -0.9825,0.36844 -1.84227,1.71979 -1.84227,1.71979 l -0.36845,3.68401 -0.49144,2.08824 -2.08773,0.61392 -2.82463,0.49093 -1.7198,2.45669 -1.71927,-0.36845 c 0,0 -2.21075,0.36845 -2.94762,0.73691 -0.73689,0.36843 -1.59615,0.61376 -2.57866,1.22783 -0.9825,0.61407 -0.49144,1.47381 -0.49144,1.47381 l -0.49144,3.43907 -0.49093,2.82463 -3.19309,0.61392 -1.22835,3.92999 -3.31607,2.21072 -2.94763,2.33319 -1.10484,5.52679 -1.5968,1.35083 -3.19309,-0.12248 -1.96525,-1.47381 c 0,0 1.9e-4,-0.98273 0.12299,-1.5968 0.12282,-0.61404 0.24546,-2.82464 0.24546,-2.82464 l -1.10536,-3.68452 -2.2102,-1.35083 -2.4567,-3.07009 -2.08772,-1.22835 -3.0701,1.5968 -3.68453,0.73691 c 0,0 -0.36845,-1.35102 -0.36845,-1.84227 0,-0.49125 -1.22835,-2.82463 -1.22835,-2.82463 l -1.22783,-2.4567 -1.84227,0.24598 c 0,0 -2.9473,-0.36845 -3.43855,-0.73691 -0.49125,-0.36843 -1.84226,-2.57917 -1.84226,-2.57917 l -2.21072,-0.61391 -0.35812,0.15554 c -0.66951,0.75485 -1.51204,1.18185 -2.38487,1.27486 l -0.5736,69.73993 0.61391,2.33319 0.24598,2.27221 0.61392,5.40381 0.92087,4.11396 0.61443,11.60601 0.12248,19.52749 -0.30696,0.49092 -1.78077,1.10536 -1.53531,0.55294 -0.98133,0.20309 1.91099,0.2465 3.19309,-2.21072 1.22783,-0.49093 15.96595,2.2102 15.22905,-1.47329 35.12447,-6.38669 56.24824,-13.50926 36.10736,-8.35142 24.8083,-6.14071 1.00924,-0.25218 c -0.0106,-0.0322 -0.0208,-0.0647 -0.0305,-0.0972 l -1.56683,-0.31316 0.86868,-1.91099 1.12861,-3.30006 -0.17363,-3.21272 -0.86817,-3.73414 -1.04231,-4.516 -0.69453,-3.64733 -0.0863,-2.77915 v -4.16823 l 0.34726,-5.73143 11.46339,-2.69234 21.53667,-2.86598 23.1867,-1.21543 0.78186,0.69454 1.30225,5.0369 0.17363,1.65003 -0.34727,3.64732 0.34727,1.47639 1.91099,1.21595 2.95228,1.38906 2.51871,2.25826 1.47639,3.12591 0.0863,2.77916 -0.34726,4.16822 -2.0836,4.08761 1.24127,0.31005 2.45618,-3.43854 5.39295,0.44906 0.24547,-65.77996 -0.54932,-0.14883 -1.71928,-1.35082 -0.7369,-1.47381 -2.70216,-0.36846 -3.31608,-0.36845 c 0,0 -1.10538,-1.35101 -1.47381,-1.84226 -0.36846,-0.49126 -1.22783,-0.73691 -1.22783,-0.73691 l -2.45619,-0.98237 -1.5968,-3.31608 c 0,0 -1.71948,-1.10519 -2.57917,-1.35082 -0.85968,-0.24562 -2.21072,0.49145 -2.21072,0.49145 l -3.31556,0.7369 -1.22834,2.70165 c 0,0 -2.5792,0.24541 -2.94763,-0.49145 -0.36846,-0.7369 -0.61391,-1.71927 -0.61391,-1.71927 l -1.84227,-1.22783 -0.49093,-1.84227 v -3.92999 l -0.7369,-2.82464 -2.08825,-1.47381 c 0,0 -3.56138,-1.10572 -4.17545,-1.71979 -0.61408,-0.61406 -2.70165,-1.96474 -2.70165,-1.96474 z m 29.11502,87.57709 -46.63436,6.94738 0.0863,1.47639 -0.26045,3.99459 -0.18758,2.43654 1.12447,-2.81068 3.93,-0.98237 35.61591,-5.64926 1.96474,0.98236 2.4567,-1.96473 3.43855,1.47381 0.49816,0.12454 c -0.11515,-0.88806 -0.38241,-2.97691 -0.38241,-3.24942 0,-0.34737 -1.65003,-2.77915 -1.65003,-2.77915 z m 11.30939,13.87202 -14.19655,2.83962 -23.33449,4.91236 -26.52758,6.38617 -21.36924,4.91236 -16.70286,5.89525 -29.4752,9.82524 -16.21141,7.36854 -9.08782,5.64927 -4.91288,4.91288 -1.96474,4.91236 8.84236,8.35143 10.56214,3.92999 25.79068,11.29854 38.31755,12.28142 22.59759,6.38617 36.35282,7.61452 11.05204,1.43299 c 0.28229,-0.17565 0.64579,-0.35225 1.10122,-0.52968 0.53555,-0.20865 0.96136,-0.4024 1.39579,-0.55346 l -0.58653,-4.37441 1.73633,-11.1156 -0.17364,-9.03149 1.38958,-11.1156 2.77968,-7.64242 2.25722,-8.68423 -0.69453,-1.38958 0.86817,-2.43137 z" /></g><g
	id="zona-sendero"
	fill="transparent"
     	stroke="transparent"
     	role="button"
     	tabindex="0"
     	aria-label="Sendero por donde transita la gente"
     	data-zona="Sendero"><path
       d="m 94.570972,332.77917 0.08682,3.29954 v 2.25826 l 7.989688,2.08411 14.06839,3.30006 7.81555,2.25774 -0.26045,-9.55239 -7.20783,-1.04231 z m 52.559578,5.93969 1.71928,14.0007 9.08782,2.70216 17.9312,5.15834 33.4052,10.07018 20.63233,6.87762 27.51047,7.85999 33.15921,11.29905 17.68523,6.87761 29.72066,12.52689 15.47451,8.10545 6.63215,4.91287 4.91237,5.64927 1.96525,5.40381 -0.98288,4.17545 -2.70165,5.40381 -7.61452,6.38669 -9.3338,3.68401 -0.24546,1.47381 1.96474,6.87762 0.98288,7.85998 v 6.87762 l -0.24598,9.08833 -2.70164,4.17546 -2.70216,-1.47381 -1.22783,-5.15783 0.24546,-7.36906 -0.24546,-7.36854 -136.32295,44.45827 -0.98237,2.45618 -0.49144,7.61452 -2.70164,18.17615 -1.71928,5.89525 -5.15834,-2.45618 v -6.63215 -13.50925 -10.31669 l -2.21072,-8.35091 -4.42143,-5.15834 -9.3338,-1.47381 -6.38617,2.94762 -5.89474,7.85999 -6.87761,9.08833 -1.47381,-1.47381 -1.96526,-3.68453 h -3.68453 l -8.84235,1.22835 -8.59689,0.98237 -9.82524,3.92999 -0.24547,10.80761 v 8.59689 l -5.89524,3.68453 -7.61401,2.94762 -6.63215,1.71928 -12.281424,-0.49144 -10.316166,-3.93 -4.421436,-2.70164 -0.490926,-5.40381 -0.24598,-9.08833 -19.15852,2.70164 -19.65048,3.43907 -28.7382977,3.43855 H 0.24546305 L -0.12298991,542.83457 0,576.7927 l 793.8239,0.0124 0.0413,-99.06165 -14.0007,0.7369 -24.56284,-0.98236 -30.70355,-1.96474 -29.22923,-1.96526 -44.2128,-4.17545 v 2.21072 l 0.73691,7.36854 -7.12308,3.68453 c 0,0 -7.61439,-0.98273 -8.59689,-1.22835 -0.9825,-0.24563 -5.15835,-1.96474 -5.15835,-1.96474 l -0.98237,-5.4038 -0.24598,-7.12308 -13.26379,-1.7198 -36.35281,-7.61452 -22.59759,-6.38617 -38.31756,-12.28142 -25.79067,-11.29854 -10.56215,-3.92999 -8.84235,-8.35143 1.96473,-4.91236 4.91288,-4.91288 9.08782,-5.64927 16.21141,-7.36854 29.47521,-9.82524 16.70285,-5.89525 21.36924,-4.91236 26.52758,-6.38617 23.33449,-4.91236 14.73761,-2.94763 v -10.31668 l -5.89473,-0.49092 -2.45619,3.43854 -1.96525,-0.49092 -3.43855,-1.47381 -2.4567,1.96473 -1.96474,-0.98236 -35.61591,5.64926 -3.92999,0.98237 -1.96526,4.91288 -1.71927,0.49093 -1.96474,-3.43855 0.73691,-4.42144 -2.45618,-4.42092 h -2.21072 l -0.73691,1.96474 -1.47381,6.87762 -3.92999,0.98237 -24.80831,6.14071 -36.10735,8.35142 -56.24825,13.50926 -35.12447,6.38669 -15.22905,1.47329 -15.96595,-2.2102 -1.22783,0.49093 -3.19309,2.21072 -7.61452,-0.98237 -1.96525,-2.94763 -1.71928,-2.45618 -19.4045,-6.38617 -31.68592,-8.59689 -20.63233,-4.42144 -23.33449,-5.4038 -30.21211,-7.12308 -28.7383,-6.38618 -20.38739,-4.17597 -25.05377,-3.43855 z m 540.1939,3.07061 -15.41301,2.39469 -20.32537,2.02623 -6.57066,0.67593 -0.18449,1.28933 c 0,0 0.36846,2.70209 0.36846,3.00912 v 3.62303 l 12.5274,-2.02675 14.61461,-2.14922 6.32468,-0.67541 3.13211,-0.73691 2.88613,-1.04386 1.47329,-3.56154 z" /></g></svg>
